<svg xmlns="http://www.w3.org/2000/svg" width="369" height="312" fill="none">
   <path fill="#E5F1FF"
      d="M289.869 158.261c43.703 0 79.131-35.428 79.131-79.13C369 35.428 333.572 0 289.869 0s-79.131 35.428-79.131 79.13c0 43.703 35.428 79.131 79.131 79.131ZM118.696 278.701c18.08-18.08 18.08-47.394 0-65.474-18.08-18.081-47.394-18.081-65.474 0-18.08 18.08-18.08 47.394 0 65.474 18.08 18.08 47.394 18.08 65.474 0Z" />
   <path fill="#A9CCEA"
      d="M85.309 26.377c-23.334 0-42.332 18.907-42.332 42.333 0 23.333 18.906 42.332 42.332 42.332 23.333 0 42.332-18.907 42.332-42.332 0-23.426-18.907-42.333-42.332-42.333Zm0 69.263c-14.941 0-27.023-12.082-27.023-27.023 0-14.94 12.082-27.022 27.023-27.022 14.94 0 27.022 12.082 27.022 27.022 0 14.941-12.082 27.023-27.022 27.023Z" />
   <path fill="#0F3157"
      d="M245.137 296.695c0 2.674-2.213 4.888-4.888 4.888H117.587c-2.674 0-4.888-2.214-4.888-4.888 0-2.675 2.214-4.889 4.888-4.889h43.531l5.995-11.067h23.61l5.995 11.067h43.531c2.675.093 4.888 2.214 4.888 4.889Z" />
   <path fill="#FF4D6B"
      d="M187.957 270.687h-20.105v5.902h20.105v-5.902ZM187.957 261.002h-20.105v5.903h20.105v-5.903Z" />
   <path stroke="#FF4D6B" stroke-miterlimit="10"
      d="M338.01 241.081a30.5 30.5 0 0 1-11.252 2.121c-17.339 0-31.449-14.11-31.449-31.449 0-17.339 14.11-31.449 31.449-31.449 17.339 0 31.449 14.11 31.449 31.449 0 4.611-1.014 9.038-2.859 13.004" />
   <path fill="#289DF2"
      d="M249.198 64.098h-4.981c-1.014-4.427-2.767-8.67-5.164-12.45l3.504-3.505c1.568-1.568 1.568-3.966 0-5.534l-7.839-7.84c-1.568-1.567-3.966-1.567-5.534 0l-3.504 3.505a43.834 43.834 0 0 0-12.451-5.164v-4.98c0-2.122-1.752-3.874-3.874-3.874h-11.159c-2.121 0-3.873 1.752-3.873 3.873v4.98c-4.427 1.015-8.67 2.767-12.451 5.165l-3.505-3.504c-1.568-1.568-3.966-1.568-5.533 0l-7.84 7.839c-1.568 1.568-1.568 3.966 0 5.534l3.505 3.504a43.82 43.82 0 0 0-5.165 12.45h-4.98c-2.121 0-3.874 1.753-3.874 3.874v11.16c0 2.121 1.753 3.873 3.874 3.873h4.98c1.015 4.427 2.767 8.67 5.165 12.451l-3.505 3.505c-1.568 1.568-1.568 3.965 0 5.533l7.84 7.84c1.567 1.567 3.965 1.567 5.533 0l3.505-3.505a43.808 43.808 0 0 0 12.451 5.165v4.98c0 2.121 1.752 3.873 3.873 3.873h11.159c2.122 0 3.874-1.752 3.874-3.873v-4.888c4.427-1.015 8.669-2.767 12.451-5.165l3.504 3.505c1.568 1.568 3.966 1.568 5.534 0l7.839-7.839c1.568-1.568 1.568-3.966 0-5.534l-3.504-3.505a43.817 43.817 0 0 0 5.164-12.45h4.981c2.121 0 3.873-1.753 3.873-3.874v-11.16c.092-2.213-1.66-3.965-3.873-3.965Zm-45.468 29.42c-10.975 0-19.921-8.946-19.921-19.92 0-10.976 8.946-19.922 19.921-19.922s19.921 8.946 19.921 19.921c-.093 10.975-8.946 19.921-19.921 19.921Z" />
   <path fill="#0F3775"
      d="M40.762 258.42c-5.81 0-10.606-4.703-10.606-10.606V82.267c0-5.81 4.704-10.606 10.606-10.606h276.22c5.81 0 10.606 4.703 10.606 10.606v165.547c0 5.81-4.703 10.606-10.606 10.606H40.762Z" />
   <path fill="#284D89"
      d="M82.637 94.81H51.926v6.732h30.711V94.81ZM119.528 94.81H88.816v6.732h30.712V94.81ZM213.137 94.81h-30.711v6.732h30.711V94.81ZM306.747 94.81h-30.712v6.732h30.712V94.81Z" />
   <path fill="#FF4D6B" d="M178.551 94.81h-54.875v6.732h54.875V94.81Z" />
   <path fill="#2889DB" d="M271.609 94.81h-54.875v6.732h54.875V94.81ZM57.365 89.46h-5.35v3.32h5.35v-3.32Z" />
   <path fill="#fff" d="M108.09 107.076H52.016v3.32h56.074v-3.32ZM68.617 112.886H52.016v3.32h16.6v-3.32Z" />
   <path fill="#284D89"
      d="M111.412 234.718H59.396a7.006 7.006 0 0 1-7.01-7.009v-94.072a7.006 7.006 0 0 1 7.01-7.009h52.016a7.006 7.006 0 0 1 7.009 7.009v94.072a7.006 7.006 0 0 1-7.009 7.009Z" />
   <path fill="#fff"
      d="M82.822 142.399H60.687v3.412h22.135v-3.412ZM82.822 149.961H60.687v3.413h22.135v-3.413ZM82.822 157.432H60.687v3.413h22.135v-3.413ZM74.245 188.881H60.687v3.412h13.558v-3.412ZM74.245 196.444H60.687v3.412h13.558v-3.412ZM97.483 196.444H83.926v3.412h13.557v-3.412ZM69.172 180.304h-8.484v3.412h8.484v-3.412ZM101.636 180.304h-4.519v3.412h4.519v-3.412Z" />
   <path fill="#FF4D6B" d="M95.362 180.304h-23.24v3.412h23.24v-3.412Z" />
   <path fill="#2889DB" d="M63.915 167.577h-3.227v3.412h3.227v-3.412Z" />
   <path fill="#FF4D6B" d="M63.915 173.571h-3.227v3.413h3.227v-3.413Z" />
   <path fill="#fff" d="M78.761 200.502h-1.198l2.858-4.335h1.2l-2.86 4.335Z" />
   <path fill="#282E5C" d="M110.859 206.312H60.688v2.859h50.171v-2.859ZM110.859 212.86H60.688v2.859h50.171v-2.859Z" />
   <path fill="#289DF2"
      d="M352.305 171.266H214.334c-3.412 0-6.272-2.767-6.272-6.272V127.55c0-3.412 2.767-6.271 6.272-6.271h137.971c3.413 0 6.272 2.767 6.272 6.271v37.444c-.092 3.413-2.859 6.272-6.272 6.272Z" />
   <path stroke="#fff" stroke-miterlimit="10"
      d="M252.793 153.558s7.655-18.722 29.42-14.203c21.858 4.519 32.925 29.144 61.055 9.038" />
   <path fill="#289DF2" stroke="#fff" stroke-miterlimit="10" d="M323.534 154.573h-3.136v3.135h3.136v-3.135Z" />
   <path stroke="#fff" stroke-miterlimit="10" d="M256.574 138.525h39.566M302.137 157.063h39.565" />
   <path fill="#289DF2" stroke="#fff" stroke-miterlimit="10" d="M276.405 136.957h-3.135v3.136h3.135v-3.136Z" />
   <path fill="#284D89"
      d="M234.441 184.085h-29.789a4.526 4.526 0 0 1-4.519-4.519v-44.73a4.526 4.526 0 0 1 4.519-4.519h29.789a4.526 4.526 0 0 1 4.519 4.519v44.73c-.092 2.49-2.029 4.519-4.519 4.519Z" />
   <path fill="#fff"
      d="M228.263 137.972h-22.134v3.043h22.134v-3.043ZM228.263 144.796h-22.134v3.044h22.134v-3.044ZM214.429 151.529h-8.3v3.043h8.3v-3.043Z" />
   <path fill="#289DF2" d="M220.516 158.63h-14.387v3.044h14.387v-3.044ZM215.813 165.363h-9.684v3.043h9.684v-3.043Z" />
   <path fill="#fff" d="M215.813 172.188h-9.684v3.043h9.684v-3.043Z" />
   <path stroke="#284D89" stroke-miterlimit="10" d="M334.23 114.546h15.587" />
   <path stroke="#FF5C66" stroke-miterlimit="10"
      d="m299.185 202.623-5.349 4.242-7.747 1.292s-7.286-.462-7.932-.462c-.738 0-5.626-3.965-5.626-3.965l-9.13-3.32-6.364 2.305-7.47-1.66-11.252-.738-10.79 4.243-8.854 1.383-7.932 2.582-8.854.738-9.591-7.47-8.854-1.66-9.13 5.165-7.286 2.305-8.209-.276-10.421 6.363h-6.179l-10.422 3.689" />
   <path stroke="#F7F7F7" stroke-miterlimit="10" d="M131.789 217.656h167.669" />
   <path fill="#F7F7F7" d="M131.881 215.535h-1.752v4.243h1.752v-4.243ZM300.194 215.535h-1.753v4.243h1.753v-4.243Z" />
   <path stroke="#F7F7F7" stroke-miterlimit="10" d="M299.273 217.656v-14.111" />
   <path fill="#F7F7F7"
      d="M300.196 202.807c0 .738-.554 1.291-1.292 1.291a1.26 1.26 0 0 1-1.291-1.291 1.26 1.26 0 0 1 1.291-1.291c.738 0 1.292.553 1.292 1.291ZM132.766 228.038v-5.907h.681v2.18h.057c.05-.077.12-.175.208-.294.09-.121.219-.229.387-.323.169-.096.398-.144.686-.144.373 0 .702.093.986.28.285.186.507.45.667.793.159.342.239.746.239 1.211 0 .469-.08.876-.239 1.22a1.89 1.89 0 0 1-.664.796c-.282.187-.608.28-.977.28-.285 0-.513-.047-.684-.141a1.278 1.278 0 0 1-.395-.326 4.431 4.431 0 0 1-.214-.306h-.08v.681h-.658Zm.669-2.215c0 .334.049.629.147.885.098.254.242.453.43.597.188.142.419.213.692.213.285 0 .522-.075.713-.225.192-.151.336-.355.432-.611a2.4 2.4 0 0 0 .147-.859c0-.312-.048-.593-.144-.843a1.294 1.294 0 0 0-.43-.597c-.19-.148-.429-.222-.718-.222-.277 0-.509.07-.698.211-.188.138-.33.332-.427.582a2.401 2.401 0 0 0-.144.869Zm6.141 2.307c-.427 0-.795-.094-1.105-.283a1.886 1.886 0 0 1-.712-.796c-.166-.342-.248-.74-.248-1.194 0-.454.082-.854.248-1.2.167-.348.4-.619.698-.813.3-.196.65-.294 1.05-.294.23 0 .458.038.683.115.225.077.43.202.614.375.185.171.332.398.442.681.109.282.164.63.164 1.044v.288h-3.415v-.588h2.723c0-.25-.05-.473-.15-.669a1.14 1.14 0 0 0-.421-.465 1.183 1.183 0 0 0-.64-.17c-.272 0-.506.067-.704.202a1.336 1.336 0 0 0-.453.519 1.524 1.524 0 0 0-.159.687v.392c0 .335.058.618.173.851.118.231.28.406.488.528.207.119.449.178.724.178.179 0 .34-.025.484-.075.146-.051.272-.128.378-.23.106-.104.188-.233.245-.387l.658.185a1.458 1.458 0 0 1-.349.588 1.702 1.702 0 0 1-.606.392c-.24.093-.51.139-.81.139Zm4.796-4.523v.577h-2.296v-.577h2.296Zm-1.626-1.061h.68v4.223c0 .192.028.336.084.432a.44.44 0 0 0 .219.191c.09.03.186.046.286.046a1.152 1.152 0 0 0 .3-.035l.138.612a1.421 1.421 0 0 1-.193.051c-.083.02-.188.029-.315.029-.192 0-.38-.041-.565-.124a1.11 1.11 0 0 1-.456-.378c-.119-.169-.178-.382-.178-.64v-4.407Zm3.954 5.595a1.8 1.8 0 0 1-.765-.158 1.322 1.322 0 0 1-.545-.465 1.312 1.312 0 0 1-.202-.738c0-.254.05-.459.15-.617.1-.16.234-.285.401-.375.168-.09.352-.158.554-.202.204-.046.409-.083.614-.11.27-.034.488-.06.655-.077.169-.02.292-.051.369-.096.079-.044.119-.121.119-.23v-.023c0-.285-.078-.506-.234-.664-.154-.158-.387-.236-.701-.236-.325 0-.58.071-.764.213a1.255 1.255 0 0 0-.39.456l-.646-.231c.116-.269.27-.479.462-.629.194-.152.406-.257.634-.317.231-.062.458-.092.681-.092.142 0 .306.017.49.052.187.032.367.101.54.204a1.2 1.2 0 0 1 .435.471c.116.209.173.49.173.842v2.919h-.68v-.6h-.035a1.18 1.18 0 0 1-.231.308c-.107.11-.251.203-.429.28a1.659 1.659 0 0 1-.655.115Zm.104-.611c.269 0 .496-.053.68-.159a1.07 1.07 0 0 0 .421-.409c.097-.168.145-.343.145-.528v-.623c-.029.035-.093.066-.191.095a3.128 3.128 0 0 1-.334.072c-.125.019-.247.037-.367.052-.117.014-.212.025-.285.035-.177.023-.342.06-.496.112a.852.852 0 0 0-.369.228.579.579 0 0 0-.139.41c0 .236.088.415.263.536.177.119.401.179.672.179Zm-12.204 6.077v.577h-2.295v-.577h2.295Zm-1.626-1.061h.68v4.223c0 .192.028.336.084.432a.44.44 0 0 0 .219.191c.091.03.186.046.286.046a1.152 1.152 0 0 0 .3-.035l.138.612c-.046.017-.11.034-.193.051a1.38 1.38 0 0 1-.314.029c-.193 0-.381-.041-.566-.124a1.113 1.113 0 0 1-.455-.378c-.12-.169-.179-.382-.179-.64v-4.407Zm4.46 5.584c-.427 0-.795-.094-1.104-.283a1.888 1.888 0 0 1-.713-.796c-.165-.342-.248-.74-.248-1.194 0-.454.083-.854.248-1.2.167-.348.4-.619.698-.813.3-.196.65-.294 1.05-.294.231 0 .459.038.684.115.225.077.429.202.614.375.184.171.332.398.441.681.11.282.165.63.165 1.044v.288h-3.415v-.588h2.722c0-.25-.05-.473-.15-.669a1.133 1.133 0 0 0-1.061-.635 1.22 1.22 0 0 0-.704.202 1.336 1.336 0 0 0-.453.519 1.536 1.536 0 0 0-.158.687v.392c0 .335.057.618.173.851.117.231.28.406.487.528.208.119.449.178.724.178.179 0 .341-.025.485-.075.146-.051.272-.128.378-.23.105-.104.187-.233.245-.387l.657.185a1.447 1.447 0 0 1-.349.588 1.698 1.698 0 0 1-.605.392 2.236 2.236 0 0 1-.811.139Zm6.008-3.53-.611.173a1.15 1.15 0 0 0-.171-.297.832.832 0 0 0-.3-.243 1.091 1.091 0 0 0-.487-.095c-.271 0-.497.063-.678.188-.179.123-.268.279-.268.47 0 .169.062.303.185.401.123.098.315.179.576.245l.658.161c.396.096.691.244.886.442.194.196.291.449.291.758 0 .254-.073.481-.219.681-.145.2-.346.357-.606.473-.26.115-.562.173-.906.173-.452 0-.826-.098-1.122-.294-.296-.196-.483-.483-.562-.86l.646-.161a.896.896 0 0 0 .349.536c.173.119.399.179.678.179.317 0 .569-.067.755-.202.189-.136.283-.3.283-.49a.518.518 0 0 0-.161-.387c-.108-.105-.273-.184-.497-.236l-.738-.173c-.406-.096-.704-.245-.894-.447a1.086 1.086 0 0 1-.283-.765c0-.25.071-.471.211-.663.142-.192.335-.343.58-.453.246-.109.525-.164.836-.164.438 0 .783.096 1.033.288.251.192.43.446.536.762Zm3.032-.993v.577h-2.296v-.577h2.296Zm-1.627-1.061h.681v4.223c0 .192.028.336.084.432.057.094.13.158.219.191.09.03.185.046.285.046a1.166 1.166 0 0 0 .3-.035l.139.612a1.421 1.421 0 0 1-.193.051c-.083.02-.188.029-.315.029-.192 0-.38-.041-.565-.124a1.11 1.11 0 0 1-.456-.378c-.119-.169-.179-.382-.179-.64v-4.407Z" />
   <path fill="#28385E" d="M274.744 223.743H170.527v1.845h104.217v-1.845Z" />
   <path fill="#FF4D6B" d="M234.533 223.743h-64.006v1.845h64.006v-1.845Z" />
   <path fill="#28385E" d="M221.806 227.34h-51.279v1.844h51.279v-1.844Z" />
   <path fill="#FF4D6B" d="M138.063 232.873h6.272l.83-1.752h-12.727v2.951h4.426l1.199-1.199Z" />
   <path fill="#F7F7F7"
      d="M151.16 231.121h-.738v.738h.738v-.738ZM155.492 231.121h-.738v.738h.738v-.738ZM159.828 231.121h-.738v.738h.738v-.738ZM293.524 198.728c-.339 0-.643-.067-.915-.202a1.691 1.691 0 0 1-.651-.553 1.512 1.512 0 0 1-.269-.802h.693a.95.95 0 0 0 .363.663c.217.173.477.26.779.26a1.212 1.212 0 0 0 1.093-.638c.109-.2.164-.426.164-.678 0-.257-.056-.487-.17-.689a1.25 1.25 0 0 0-1.133-.66 1.863 1.863 0 0 0-.557.083c-.19.056-.347.128-.47.217l-.669-.081.357-2.907h3.069v.634h-2.469l-.207 1.742h.034c.121-.096.273-.176.456-.239.183-.064.373-.095.571-.095a1.812 1.812 0 0 1 1.635.963c.164.298.246.638.246 1.021 0 .377-.085.713-.254 1.009a1.85 1.85 0 0 1-.693.698c-.294.17-.628.254-1.003.254Zm5.022 0c-.435 0-.805-.118-1.11-.355-.306-.238-.54-.583-.701-1.035-.162-.454-.243-1.002-.243-1.644 0-.638.081-1.183.243-1.635.163-.454.398-.8.703-1.039.308-.24.677-.36 1.108-.36.431 0 .799.12 1.105.36.307.239.542.585.703 1.039.164.452.246.997.246 1.635 0 .642-.081 1.19-.243 1.644-.161.452-.395.797-.701 1.035-.305.237-.675.355-1.11.355Zm0-.634c.431 0 .765-.208 1.004-.623.238-.416.357-1.008.357-1.777 0-.511-.054-.947-.164-1.307-.108-.359-.264-.633-.467-.822a1.033 1.033 0 0 0-.73-.282c-.427 0-.761.21-1.001.631-.24.42-.36 1.013-.36 1.78 0 .511.053.946.161 1.304.108.357.263.629.464.816.204.186.449.28.736.28Zm-4.941 10.634c-.435 0-.805-.118-1.111-.355-.306-.238-.539-.583-.701-1.035-.161-.454-.242-1.002-.242-1.644 0-.638.081-1.183.242-1.635.164-.454.398-.8.704-1.039.308-.24.677-.36 1.108-.36.43 0 .798.12 1.104.36.308.239.542.585.704 1.039.163.452.245.997.245 1.635 0 .642-.081 1.19-.242 1.644-.162.452-.395.797-.701 1.035-.306.237-.676.355-1.11.355Zm0-.634c.43 0 .765-.208 1.003-.623.239-.416.358-1.008.358-1.777 0-.511-.055-.947-.165-1.307-.107-.359-.263-.633-.467-.822a1.032 1.032 0 0 0-.729-.282c-.427 0-.761.21-1.001.631-.241.42-.361 1.013-.361 1.78 0 .511.054.946.162 1.304.107.357.262.629.464.816.204.186.449.28.736.28Z" />
   <path fill="#28385E"
      d="M282.214 229.369h-1.475l-2.583-5.626h1.568l2.49 5.626ZM286.273 229.369h-1.568l-2.49-5.626h1.568l2.49 5.626ZM290.331 229.369h-1.567l-2.491-5.626h1.568l2.49 5.626ZM294.386 229.369h-1.568l-2.49-5.626h1.568l2.49 5.626ZM298.445 229.369h-1.568l-2.49-5.626h1.475l2.583 5.626Z" />
   <path fill="#A9CCEA"
      d="M291.62 35.969h-25.362v4.519h25.362v-4.52ZM304.532 44.085h-38.274v4.52h38.274v-4.52ZM313.478 52.2h-47.22v4.52h47.22V52.2ZM284.334 60.316h-18.076v4.52h18.076v-4.52Z" />
   <path fill="#2889DB" d="M25.362 90.66H0v4.518h25.362V90.66Z" />
   <path fill="#A9CCEA"
      d="M38.274 98.867H0v4.519h38.274v-4.519ZM47.22 106.983H0v4.52h47.22v-4.52ZM18.076 115.099H0v4.519h18.076v-4.519Z" />
   <path stroke="#289DF2" stroke-miterlimit="10"
      d="M171.542 250.304H63.359v14.019h108.183v-14.019ZM120.633 139.724h-5.164v31.911h5.164v-31.911Z" />
   <path fill="#FF4D6B"
      d="M329.59 229.403c9.755-1.573 16.388-10.756 14.815-20.511-1.573-9.755-10.757-16.388-20.512-14.815-9.755 1.574-16.387 10.757-14.814 20.512 1.573 9.755 10.756 16.388 20.511 14.814Z" />
   <path fill="#F9FBFC"
      d="m325.375 210.001-7.101 2.583 7.101 2.582v2.675l-10.145-3.874V211.2l10.145-3.873v2.674ZM327.773 207.419l10.145 3.873v2.767l-10.145 3.874v-2.675l7.102-2.582-7.102-2.582v-2.675Z" />
   <path stroke="#FF4D6B" stroke-miterlimit="10"
      d="M356.643 226.325a2.284 2.284 0 0 1-2.306 2.306 2.284 2.284 0 0 1-2.306-2.306 2.283 2.283 0 0 1 2.306-2.305c1.199 0 2.306 1.014 2.306 2.305Z" />
   <path stroke="#289DF2" stroke-miterlimit="10" d="M142.397 56.812H57.641v8.854h84.756v-8.854Z" />
   <path fill="#289DF2" d="M113.715 59.67H61.238v2.583h52.477v-2.582Z" />
   <path fill="#284D89" d="M191.741 125.798h-62.069v3.136h62.069v-3.136Z" />
   <path fill="#2889DB" d="M157.801 125.798h-28.129v3.136h28.129v-3.136Z" />
   <path fill="#284D89" d="M191.741 133.914h-62.069v3.135h62.069v-3.135Z" />
   <path fill="#FF4D6B" d="M172.834 133.914h-43.162v3.135h43.162v-3.135Z" />
   <path fill="#284D89" d="M191.741 141.938h-62.069v3.135h62.069v-3.135Z" />
   <path fill="#1AE5FF" d="M142.307 141.938h-12.635v3.135h12.635v-3.135Z" />
   <path fill="#284D89"
      d="M131.148 120.356h-1.199v1.199h1.199v-1.199ZM135.297 120.356h-1.199v1.199h1.199v-1.199ZM139.449 120.356h-1.199v1.199h1.199v-1.199Z" />
   <path fill="#fff"
      d="M247.443 162.873h-2.029v2.029h2.029v-2.029ZM254.361 162.873h-2.029v2.029h2.029v-2.029ZM261.369 162.873h-2.029v2.029h2.029v-2.029ZM278.434 82.543h-3.782v3.782h3.782v-3.782ZM291.438 82.543h-3.782v3.782h3.782v-3.782ZM304.441 82.543h-3.781v3.782h3.781v-3.782ZM224.664 239.237h-3.781v3.782h3.781v-3.782ZM237.668 239.237h-3.781v3.782h3.781v-3.782ZM250.672 239.237h-3.781v3.782h3.781v-3.782ZM63.822 134.19h-2.029v2.029h2.029v-2.029ZM70.83 134.19H68.8v2.029h2.03v-2.029ZM77.748 134.19h-2.03v2.029h2.03v-2.029ZM345.389 131.7h-33.662v3.32h33.662v-3.32Z" />
   <path fill="#287DD1" d="M321.687 137.511h-9.96v3.32h9.96v-3.32Z" />
   <path fill="#1AE5FF"
      d="M40.486 138.525h-7.285v-7.286h-6.825v7.286H19.09v6.733h7.286v7.286H33.2v-7.286h7.285v-6.733Z" />
   <path fill="#2889DB" d="M20.934 158.723h-4.427v-4.427h-4.15v4.427H7.93v4.15h4.427v4.427h4.15v-4.427h4.427v-4.15Z" />
   <path fill="#284D89"
      d="M142.488 154.85a11.335 11.335 0 0 0-11.343 11.344 11.335 11.335 0 0 0 11.343 11.343 11.335 11.335 0 0 0 11.344-11.343c0-6.18-5.072-11.344-11.344-11.344Zm0 17.338a5.884 5.884 0 0 1-5.902-5.902c0-3.228 2.675-5.903 5.902-5.903a5.885 5.885 0 0 1 5.903 5.903c0 3.228-2.675 5.902-5.903 5.902Z" />
   <path fill="#289DF2"
      d="M134.739 165.179c1.014 0 2.029-.645 2.49-1.568 1.014-1.937 2.951-3.228 5.257-3.228 2.306 0 4.335 1.291 5.257 3.228.461.923 1.383 1.568 2.49 1.568 2.029 0 3.32-2.121 2.49-3.873a11.338 11.338 0 0 0-10.237-6.364 11.338 11.338 0 0 0-10.237 6.364c-.923 1.752.461 3.873 2.49 3.873Z" />
   <path fill="#284D89"
      d="M161.582 166.286a11.336 11.336 0 0 0 11.344 11.343 11.336 11.336 0 0 0 11.344-11.343 11.336 11.336 0 0 0-11.344-11.344c-6.271-.093-11.344 5.072-11.344 11.344Zm17.339 0a5.884 5.884 0 0 1-5.903 5.902 5.884 5.884 0 0 1-5.902-5.902 5.884 5.884 0 0 1 5.902-5.903 5.885 5.885 0 0 1 5.903 5.903Z" />
   <path fill="#FF4D6B"
      d="M171.819 174.033c0-1.015-.645-2.029-1.568-2.49-1.936-1.015-3.228-2.952-3.228-5.257 0-2.306 1.292-4.335 3.228-5.257.923-.461 1.568-1.384 1.568-2.49 0-2.029-2.121-3.32-3.873-2.49a11.338 11.338 0 0 0-6.364 10.237 11.34 11.34 0 0 0 6.364 10.237c1.844.83 3.873-.553 3.873-2.49Z" />
   <path stroke="#289DF2" stroke-miterlimit="10" d="M110.027 121.279H89.184v49.895h20.843v-49.895Z" />
   <path fill="#1AE5FF"
      d="M98.224 130.962h-6.087v1.753h6.087v-1.753ZM98.224 134.928h-6.087v1.753h6.087v-1.753ZM98.224 138.986h-6.087v1.753h6.087v-1.753ZM98.224 159.737h-6.087v1.753h6.087v-1.753ZM100.991 144.796h-8.854v1.753h8.854v-1.753Z" />
   <path fill="#fff" d="M100.991 148.854h-8.854v1.753h8.854v-1.753ZM100.991 152.82h-8.854v1.753h8.854v-1.753Z" />
   <path fill="#289DF2" d="M41.041 183.716H14.664v26.377h26.377v-26.377Z" />
   <path stroke="#289DF2" stroke-miterlimit="10"
      d="M27.115 189.988H.738v26.377h26.377v-26.377ZM339.024 259.988h-11.067v11.068h11.067v-11.068Z" />
   <path stroke="#fff" stroke-miterlimit="10" d="M194.879 242.465h9.407l5.165 5.257h54.045l8.3-8.393h29.144" />
   <path stroke="#fff" stroke-miterlimit="10"
      d="M192.111 245.416a2.766 2.766 0 1 0 0-5.533 2.766 2.766 0 0 0 0 5.533ZM303.798 242.004a2.767 2.767 0 1 0 0-5.534 2.767 2.767 0 0 0 0 5.534Z" />
   <path fill="#289DF2"
      d="M340.501 95.64a3.502 3.502 0 0 1-3.504 3.504 3.503 3.503 0 0 1-3.505-3.504 3.503 3.503 0 0 1 3.505-3.505c1.937 0 3.504 1.66 3.504 3.505Z" />
   <path fill="#FF4D6B"
      d="M20.197 230.844a3.503 3.503 0 0 1-3.505 3.505 3.503 3.503 0 0 1-3.505-3.505 3.503 3.503 0 0 1 3.505-3.504c1.937.092 3.505 1.568 3.505 3.504ZM36.154 243.664c0 3.32-2.674 6.087-6.087 6.087-3.412 0-6.087-2.674-6.087-6.087 0-3.412 2.675-6.087 6.087-6.087 3.413 0 6.087 2.767 6.087 6.087Z" />
   <path stroke="#289DF2" stroke-miterlimit="10"
      d="M242.74 264.138h-24.256v5.534h24.256v-5.534ZM271.699 274.56h-53.215v5.534h53.215v-5.534ZM69.817 269.487l-5.903 5.811M75.442 269.487l-5.903 5.811M81.068 269.487l-5.81 5.811M86.785 269.487l-5.902 5.811M92.41 269.487l-5.902 5.811" />
</svg>