<svg xmlns="http://www.w3.org/2000/svg" xmlns:xlink="http://www.w3.org/1999/xlink" xml:space="preserve"
	style="enable-background:new 0 0 642 407.8" viewBox="0 0 642 407.8">
	<style>
		.st0 {
			fill: none;
			stroke: #ded8d5;
			strokeWidth: 1.9678;
			stroke-miterlimit: 10
		}

		.st1 {
			fill: #ffb1a5
		}

		.st4 {
			fill: #fff
		}

		.st6 {
			fill: none;
			stroke: #fff;
			strokeWidth: 1.6466;
			strokeLinecap: round;
			strokeLinejoin: round;
			stroke-miterlimit: 10
		}

		.st7 {
			fill: #ff684f
		}

		.st8 {
			fill: #7c7cd1
		}

		.st9 {
			fill: #ffab26
		}

		.st10 {
			fill: none;
			stroke: #fff;
			strokeWidth: 1.1803;
			stroke-miterlimit: 10
		}

		.st14 {
			fill: #f3978e
		}

		.st20 {
			fill: #282828
		}

		.st21,
		.st23 {
			fill: none;
			stroke-miterlimit: 10
		}

		.st21 {
			stroke: #282828;
			strokeWidth: .9928;
			strokeLinecap: round;
			strokeLinejoin: round
		}

		.st23 {
			stroke: #c98bd2;
			strokeWidth: 1.3423
		}

		.st25 {
			fill: #005683
		}

		.st26 {
			fill: none;
			stroke: #282828;
			strokeWidth: 1.3968;
			strokeLinecap: round;
			strokeLinejoin: round;
			stroke-miterlimit: 10
		}

		.st27 {
			fill: #b0afff
		}

		.st29 {
			fill: none;
			stroke: #fff;
			strokeWidth: 1.9514;
			stroke-miterlimit: 10
		}
	</style>
	<g id="OBJECTS">
		<path
			d="M69.9 123.4h499.3M562.7 399.6H76.4c-3.6 0-6.5-2.9-6.5-6.5V97.2c0-3.6 2.9-6.5 6.5-6.5h486.3c3.6 0 6.5 2.9 6.5 6.5v295.9c0 3.6-2.9 6.5-6.5 6.5z"
			class="st0" />
		<path d="M102.8 107.3c0 2.5-2 4.6-4.6 4.6-2.5 0-4.6-2-4.6-4.6s2-4.6 4.6-4.6c2.5.1 4.6 2.1 4.6 4.6z" class="st1" />
		<path d="M120.5 107.3c0 2.5-2 4.6-4.6 4.6-2.5 0-4.6-2-4.6-4.6s2-4.6 4.6-4.6c2.6.1 4.6 2.1 4.6 4.6z"
			style="fill:#ead254" />
		<path d="M138.3 107.3c0 2.5-2 4.6-4.6 4.6-2.5 0-4.6-2-4.6-4.6s2-4.6 4.6-4.6c2.5.1 4.6 2.1 4.6 4.6z"
			style="fill:#00857b" />
		<path d="M634.1 233.6H516.7c-3.3 0-6-2.7-6-6V119.1c0-3.3 2.7-6 6-6h117.4c3.3 0 6 2.7 6 6v108.5c0 3.3-2.7 6-6 6z"
			class="st4" />
		<path d="M634.1 233.6H516.7c-3.3 0-6-2.7-6-6V119.1c0-3.3 2.7-6 6-6h117.4c3.3 0 6 2.7 6 6v108.5c0 3.3-2.7 6-6 6z"
			class="st0" />
		<path d="M545.1 202.3h61c3.3 0 6-2.7 6-6v-50c0-3.3-2.7-6-6-6h-61c-3.3 0-6 2.7-6 6v50c0 3.3 2.7 6 6 6z"
			style="fill:#8e8eed" />
		<path d="M592.3 181.6h-33.7V159h33.7v5.6z" class="st6" />
		<path d="m558.6 159 16.8 13.3 16.9-13.3" class="st6" />
		<path
			d="M117.6 324.5H5.7c-3.2 0-5.7-2.6-5.7-5.7v-97.6c0-3.2 2.6-5.7 5.7-5.7h111.9c3.2 0 5.7 2.6 5.7 5.7v97.6c.1 3.2-2.5 5.7-5.7 5.7z"
			class="st4" />
		<path
			d="M117.6 324.5H5.7c-3.2 0-5.7-2.6-5.7-5.7v-97.6c0-3.2 2.6-5.7 5.7-5.7h111.9c3.2 0 5.7 2.6 5.7 5.7v97.6c.1 3.2-2.5 5.7-5.7 5.7z"
			class="st0" />
		<path
			d="M90.4 303.5h-58c-3.7 0-6.6-3-6.6-6.6v-56.1c0-3.7 3-6.6 6.6-6.6h58c3.7 0 6.6 3 6.6 6.6v56.1c0 3.6-2.9 6.6-6.6 6.6z"
			class="st7" />
		<path
			d="M47.6 255.2c-7.8 7.8-7.8 20.7 0 28.5 7.8 7.8 20.7 7.8 28.5 0 7.8-7.8 7.8-20.7 0-28.5-7.9-7.8-20.7-7.8-28.5 0zm28.4 2.9h-6.4c-.6-2-1.5-4-2.5-6.1 3.6 1.2 6.7 3.3 8.9 6.1zm-21.6 10.2c0-2.6.3-5.2 1-7.8h12.9c.6 2.6 1 5.2 1 7.8H54.4zm14.7 2.4c-.2 2.6-.6 5.2-1.4 7.8H55.9c-.7-2.6-1.2-5.2-1.4-7.8h14.6zm-7.3-19.4c1 0 1.9.1 2.8.2 1.2 2.2 2.2 4.4 2.9 6.6H56c.7-2.2 1.7-4.4 2.9-6.6 1-.1 2-.2 2.9-.2zm-5.3.8c-1 2-1.9 4-2.5 6.1h-6.4c2.3-2.9 5.4-5 8.9-6.1zM46 260.5h7.4c-.6 2.6-1 5.2-1 7.8h-8.7c.1-2.8 1-5.5 2.3-7.8zm0 18c-1.3-2.3-2.2-5-2.3-7.8h8.7c.1 2.6.5 5.2 1.2 7.8H46zm1.6 2.4h6.7c.7 2 1.5 4.1 2.5 6.1-3.7-1.1-6.9-3.2-9.2-6.1zm14.2 6.8c-.8 0-1.6-.1-2.4-.2-1.1-2.2-2.1-4.5-2.8-6.7H67c-.8 2.2-1.7 4.5-2.8 6.7-.8.1-1.6.2-2.4.2zm5.1-.7c1-2 1.8-4.1 2.5-6.1H76c-2.3 2.9-5.5 5-9.1 6.1zm10.7-8.5H70c.7-2.6 1.1-5.2 1.2-7.8H80c-.2 2.8-1 5.5-2.4 7.8zm2.4-10.2h-8.7c0-2.6-.4-5.2-1-7.8h7.4c1.3 2.3 2.1 5 2.3 7.8z"
			class="st4" />
		<path
			d="M638.2 309.8H589c-2.1 0-3.8-1.7-3.8-3.8 0-2.1 1.7-3.8 3.8-3.8h49.2c2.1 0 3.8 1.7 3.8 3.8 0 2.1-1.7 3.8-3.8 3.8z"
			class="st8" />
		<path
			d="M603.8 353.7h-6c-1.6 0-2.9-1.3-2.9-2.9v-5.6c0-1.6 1.3-2.9 2.9-2.9h6c1.6 0 2.9 1.3 2.9 2.9v5.6c-.1 1.6-1.3 2.9-2.9 2.9z"
			class="st9" />
		<path
			d="M33.7 380h-6c-1.6 0-2.9-1.3-2.9-2.9v-5.6c0-1.6 1.3-2.9 2.9-2.9h6c1.6 0 2.9 1.3 2.9 2.9v5.6c0 1.6-1.3 2.9-2.9 2.9zM494 58.2H393.9c-1.7 0-3-1.3-3-3V30.8c0-1.7 1.3-3 3-3H494c1.7 0 3 1.3 3 3v24.4c0 1.7-1.3 3-3 3z"
			class="st7" />
		<path d="M405.4 38.6h71.1M405.4 45.9h28.9" class="st10" />
		<path d="M402.5 54.8v11.8l14.9-11.8z" class="st7" />
		<path
			d="M248.1 60h-48.4c-4.7 0-8.5-3.8-8.5-8.5v-45c0-3.6 2.9-6.5 6.5-6.5h50.5c3.6 0 6.5 2.9 6.5 6.5v47.1c-.1 3.5-3 6.4-6.6 6.4z"
			class="st8" />
		<path
			d="m237.7 34.4-3.6-3.6c-.6-.7-1.5-1.1-2.3-1.1-.8 0-1.7.4-2.3 1l-2.1 2.1c-.1-.1-.3-.1-.4-.2-.3-.1-.5-.2-.6-.3-1.9-1.2-3.7-2.8-5.4-4.9-.8-1-1.4-1.9-1.7-2.6l1.4-1.4.6-.6c.7-.7 1.1-1.5 1.1-2.4 0-.8-.4-1.7-1.1-2.4l-1.8-1.8-.6-.6-1.2-1.2c-.6-.6-1.5-1-2.3-1-.8 0-1.6.3-2.3 1l-2.3 2.3c-.8.8-1.4 1.9-1.5 3.2-.1 1.9.4 3.7.8 4.9 1 3 2.6 5.6 5 8.4 2.9 3.4 6.3 6.1 10.3 8.1 1.5.7 3.5 1.5 5.8 1.7h.5c1.5 0 2.8-.6 3.9-1.7l.1-.1c.3-.4.7-.8 1.2-1.2l.8-.8c1.3-1.5 1.3-3.4 0-4.8zm-1.5 3.4-.8.8c-.5.4-.8.8-1.3 1.3-.6.6-1.4 1-2.3 1h-.3c-1.9-.1-3.7-.9-5-1.5-3.7-1.8-6.9-4.3-9.6-7.5-2.2-2.6-3.7-5.2-4.7-7.8-.6-1.5-.9-2.8-.8-4 .1-.7.3-1.4.9-1.9l2.2-2.2c.2-.2.5-.5.9-.5s.6.2.9.5l1.2 1.2c.2.2.4.5.6.6l1.8 1.8c.2.2.5.6.5.9 0 .4-.3.7-.5.9l-.6.6-1.6 1.6-.1.1c-.6.6-.5 1.2-.4 1.6v.1c.5 1.2 1.2 2.2 2.1 3.5 1.8 2.3 3.7 4 5.9 5.4.3.2.6.3.8.5.3.1.5.2.6.3l.1.1c.6.3 1.3.2 1.8-.3l2.3-2.3c.2-.2.5-.5.9-.5.3 0 .6.3.8.5l3.6 3.6c.6.3.6 1 .1 1.6z"
			class="st4" />
		<defs>
			<path id="SVGID_1_" d="M115.9 66.1h459.3v332.7H115.9z" />
		</defs>
		<clipPath id="SVGID_2_">
			<use xlink:href="#SVGID_1_" style="overflow:visible" />
		</clipPath>
		<g style="clipPath:url(#SVGID_2_)">
			<path
				d="m458.9 287.3-36.5-4.9.3 3.6-31.2 4.2s-20.1 50.5-2.4 161.5h25.4l9.1-112.5h3.2l8.8 112.5H461c17.8-111-2.1-164.4-2.1-164.4z"
				style="fill:#8e716c" />
			<path d="M412 339.1h26.4"
				style="fill:none;stroke:#282828;strokeWidth:1.2333;strokeLinecap:round;strokeLinejoin:round;stroke-miterlimit:10" />
			<path
				d="M480.2 234c-3.1-5-20.7-4.8-21.6-4.9-4.7-.6 3 37.2 12.9 70.2 1.9 6.3 8.8 9.6 14.9 7 .1 0 .1-.1.2-.1 4.8-2 7.5-7.1 6.6-12.3-4.7-24.8-9.4-54.1-13-59.9z"
				class="st1" />
			<path d="m484.4 247.7-22.4 8.7-2.1-10.7L483 240zM488.6 268.9s-10.6 14.2-10.1 13.6c.5-.7 8.3-23 8.3-23l1.8 9.4z"
				class="st14" />
			<path d="m503.7 249.8-30.4 39.4c-4 5.2-2.7 12.7 2.8 16.2 5.5 3.6 12.8 1.7 15.9-4.1l25.3-46.7-13.6-4.8z"
				class="st1" />
			<path
				d="M511.6 259.9c-6.6-2.1-10.2-9.2-8.1-15.8 2.1-6.6 9.2-10.2 15.8-8.1 6.6 2.1 10.2 9.2 8.1 15.8-2.1 6.6-9.2 10.2-15.8 8.1z"
				class="st1" />
			<path d="M524.6 240.4s3.4-3.6-2.7-6.1c-6.1-2.5-13.6-1.9-18.4 9.7l21.1-3.6z" class="st1" />
			<path
				d="m530.9 215.5 12.7 5.5c.7.3 1 1.1.6 1.9l-16.8 31.3c-.4.7-1.3 1.1-2 .8l-12.7-5.5c-.7-.3-1-1.1-.6-1.9l16.8-31.3c.4-.7 1.3-1.1 2-.8z"
				style="fill:#372f5f" />
			<path
				d="m529.7 215 12.7 5.5c.7.3 1 1.1.6 1.9l-16.8 31.3c-.4.7-1.3 1.1-2 .8l-12.7-5.5c-.7-.3-1-1.1-.6-1.9l16.8-31.3c.4-.8 1.3-1.1 2-.8z"
				style="fill:#261b43" />
			<path d="m528.3 218.2 11.2 4.8-13.7 25.5-11.2-4.8z" style="fill:#e6e6e6" />
			<path d="m539.5 223-24.9 20.7 13.7-25.5z" class="st4" />
			<path
				d="M518.3 233.3s2.8.6 5.4 2c1.1.6 1.7 1.9 1.4 3.2-.3 1.1-1.2 2-2.4 2.1l-6.6.8s-3.5 6-8 6.6l4.1-10.5 6.1-4.2z"
				class="st1" />
			<path d="M433.8 184.4c-.7 0 46.9 6.6 54.8 61l-24.7 3.8-5 41h-69l-13.7-75.8s15.3-21.9 43.7-30h13.9z"
				style="fill:#00363f" />
			<path d="m463.8 249.2 2.2-23.8"
				style="fill:#00363f;stroke:#282828;strokeWidth:1.2333;strokeLinecap:round;strokeLinejoin:round;stroke-miterlimit:10" />
			<path d="M438.3 185.2v-18.9h-22.1v19.1c-1.1.3-3 1-5.9 2.4l17.3 10.3 17.6-10.3c-.1 0-2.9-1.6-6.9-2.6z"
				class="st1" />
			<path d="M416 168.6s4 10.6 14.6 9.6c9.7-.8 8.2-15.5 8.2-15.5l-22.8 5.9z" class="st20" />
			<path d="M406.3 154.6c-3.5 3.1-11.2-8.8-7.9-12.1 3.4-3.3 5.9 1.9 5.9 1.9l1.5 3.6 1.1 4.8.3 1.3-.9.5z"
				class="st14" />
			<path d="M400.1 146.7s2.6-1.2 5 2.6" class="st21" />
			<path d="M447.3 154.2c3.2 3.4 11.9-7.8 8.9-11.4-3.1-3.6-6 1.4-6 1.4l-1.8 3.4-1.5 4.7-.4 1.2.8.7z"
				class="st14" />
			<path d="M454.2 146.9s-2.5-1.4-5.2 2.2" class="st21" />
			<path d="M400.2 131.1c0 15.8 12 23.3 26.9 23.3s26.9-7.5 26.9-23.3-12-26.5-26.9-26.5-26.9 10.7-26.9 26.5z"
				class="st20" />
			<path
				d="M403.9 132.2c0 9.7 1.4 18.1 2.7 24 1.3 5.8 5.1 9.9 10.4 13.1l1 .6c5.6 3.5 12.9 3.5 18.6.2 5.8-3.4 9.8-7.8 11.1-14 2.3-11.3 2.5-23.9 2.5-23.9s2.2-24.5-22.8-24c-25 .4-23.5 24-23.5 24z"
				class="st1" />
			<path d="M425.5 146.1v3.4c0 .2 0 .4.1.6.3.7 1.1 1 1.8.8l1.6-.4"
				style="fill:none;stroke:#282828;strokeWidth:1.2316;strokeLinecap:round;strokeLinejoin:round;stroke-miterlimit:10" />
			<path
				d="m421.6 133-12.4 2.9s.6-3.2 5.6-4.3c5.1-1.1 6.8 1.4 6.8 1.4zM432.6 133l12 2.9s-.5-3.2-5.4-4.3c-5-1.1-6.6 1.4-6.6 1.4z"
				class="st20" />
			<circle cx="416.8" cy="142.1" r="2.1" class="st20" />
			<path d="M438.8 142.1c0 1.2-.9 2.1-2.1 2.1-1.2 0-2.1-.9-2.1-2.1s.9-2.1 2.1-2.1c1.2 0 2.1 1 2.1 2.1z"
				class="st20" />
			<path d="M418.9 154.9H435c.1 0-7.1 8.7-16.1 0z" class="st4" />
			<circle cx="416" cy="142.9" r="8.9" class="st23" transform="rotate(-45.001 415.967 142.94)" />
			<circle cx="437.8" cy="142.9" r="8.9" class="st23" transform="rotate(-45.001 437.843 142.94)" />
			<path d="M424.9 142.9s2.1-2 4.1 0M407.1 142.9h-2.8M446.7 142.9h2.9" class="st23" />
			<path
				d="M449.9 140.3s-10-13.5-7.7-27.2c0 0 7.4 3.7 9.3 13.4 2 9.6-1.6 13.8-1.6 13.8zM403.9 141.2s11.6-15.3 9.3-29c0 0-8 4.6-10 14.3-1.9 9.6.7 14.7.7 14.7z"
				class="st20" />
			<path d="M449.1 118.5s-12.8 14-47.9 11.6c0 0 5.4-20.6 22.4-22.8-.1 0 19.6-2.3 25.5 11.2z" class="st20" />
			<circle cx="448.2" cy="102.1" r="16.8" class="st20" transform="rotate(-80.828 448.177 102.066)" />
			<path
				d="m243.6 287.2-31.2-4.2.3-3.6-36.5 4.9s-19.9 53.4-2.2 164.4h25.4l8.8-112.5h3.2l9.1 112.5H246c17.7-111-2.4-161.5-2.4-161.5zM241.1 135.4c-4.2-5-7.6-10.8-10.5-18.9-3.1-8.7-13.2-5.2-13.2-5.2s-8.4-10.8-21.1-7.1c-12.7 3.8-17.1 12.8-17.3 23.5-.3 10.7-8.7 12.4-15.2 24.8-11.5 21.9 7.8 40.3 43 35.2v-.3c3.5 1.1 7.7 1.5 12.9 1.2 42.2-2.5 38.2-33.5 21.4-53.2z"
				class="st20" />
			<path d="M227.3 151.6c3.5 3.1 11.2-8.8 7.9-12.1-3.4-3.3-5.9 1.9-5.9 1.9l-1.5 3.6-1.1 4.8-.3 1.3.9.5z"
				class="st14" />
			<path d="M233.6 143.7s-2.6-1.2-5 2.6" class="st21" />
			<path d="M186.3 151.3c-3.2 3.4-11.9-7.8-8.9-11.4 3.1-3.6 6 1.4 6 1.4l1.8 3.4 1.5 4.7.4 1.2-.8.7z"
				class="st14" />
			<path d="M179.4 143.9s2.5-1.4 5.2 2.2" class="st21" />
			<path
				d="M233.4 128.1c0 15.8-12 23.3-26.9 23.3-14.9 0-26.9-7.5-26.9-23.3s12-26.5 26.9-26.5c14.9 0 26.9 10.7 26.9 26.5z"
				class="st20" />
			<path d="M195.3 163.4h22.1v28.7h-22.1z" class="st1" />
			<path d="M192.1 161.6s6.2 12.3 13.7 14.2c2 .5 4.2.3 6.1-.4 2.9-1 6.5-5.3 7.1-10l.3-2.7c0 .1-13.4 7.4-27.2-1.1z"
				class="st20" />
			<path
				d="M229.7 129.2c0 9.7-1.4 18.1-2.7 24-1.3 5.8-5.1 9.9-10.4 13.1l-1 .6c-5.6 3.5-12.9 3.5-18.6.2-5.8-3.4-9.8-7.8-11.1-14-2.3-11.3-2.5-23.9-2.5-23.9s-2.2-24.5 22.8-24 23.5 24 23.5 24z"
				class="st1" />
			<path d="M204.8 144.5v2c0 .2 0 .4.1.6.3.7 1.1 1 1.8.8l1.6-.4"
				style="fill:none;stroke:#282828;strokeWidth:1.2298;strokeLinecap:round;strokeLinejoin:round;stroke-miterlimit:10" />
			<path
				d="m210 131.2 13.3 3.1s-.6-3.4-6-4.7c-5.5-1.1-7.3 1.6-7.3 1.6zM203.1 131.2l-13.5 3.1s.6-3.4 6.1-4.7c5.5-1.1 7.4 1.6 7.4 1.6zM198.2 139.5c0 1.1-.9 2.1-2.1 2.1-1.2 0-2.1-.9-2.1-2.1 0-1.1.9-2.1 2.1-2.1 1.2 0 2.1.9 2.1 2.1zM218.1 139.5c0 1.1-.9 2.1-2.1 2.1-1.2 0-2.1-.9-2.1-2.1 0-1.1.9-2.1 2.1-2.1 1.1 0 2.1.9 2.1 2.1z"
				class="st20" />
			<path d="M196.8 151.4h18.4s-1.3 5-9.6 5c-6.4 0-8.8-5-8.8-5z" class="st4" />
			<path
				d="M183.7 137.3s10-13.5 7.7-27.2c0 0-7.4 3.7-9.3 13.4-2 9.6 1.6 13.8 1.6 13.8zM229.8 136.9s-11.6-14-9.3-27.7c0 0 8 4.6 10 14.3 1.9 9.6-.7 13.4-.7 13.4z"
				class="st20" />
			<path d="M184.6 115.5s11.5 15.4 46.6 13c0 0-4-22-21-24.2-.1.1-19.7-2.3-25.6 11.2z" class="st20" />
			<path d="M152.6 355c-.5.8 29.2-129.3 20.4-127.3-.8.2-16.3 1.6-18.6 6.3-6.6 13.5-11.4 120-11.4 120l9.6 1z"
				class="st1" />
			<path
				d="M143 354s-4.8 22.2 13.3 24.7c1.2.2 2.3-.5 2.7-1.7l.1-.2c.4-1.3-.2-2.6-1.4-3.1-3-1.3-7.5-4.7-5.3-12.2 0 0 2.6-.3 4.1 4.6.4 1.3 1.8 1.9 3 1.3.8-.4 1.2-1.3 1.1-2.1-.4-3.4-2.2-11.7-8.8-13.9L143 354z"
				class="st1" />
			<path d="M149.1 265.2s17.1 24.1 17.2 23.6c.1-.5 6-33.9 6-33.9l-20.8-9-2.4 19.3z" class="st14" />
			<path d="M196.6 187.3c.7 0-42.3.8-50.2 55.1l24.7 3.8 5 41h69l13.7-75.8s-9.7-16.4-38.1-24.5l-24.1.4z"
				class="st9" />
			<path d="M175.6 193.9s6.1 8.1 31 8.1c24.7 0 31-8.5 31-8.5s-14.6-8.1-31.5-10.8c.1 0-15 2.7-30.5 11.2z"
				class="st1" />
			<path d="m260.3 366.1.1 108.4H314l4.1-108.4zM376.7 366.1v108.4h-53.6l-4.2-108.4z" class="st25" />
			<path d="M292 366.1h55.4v37.7H292z" class="st25" />
			<path d="M299.8 403.7H338" class="st26" />
			<path d="M410.6 271.5c3.3 36.7-.2 63.5.8 131.1l-32 1.3-4.8-126.5 36-5.9z" class="st1" />
			<path d="M378.6 300.1s19.8-1.8 33.4-10.8l-.4-7.9-33 4.5v14.2z" class="st14" />
			<path d="M346.8 186.9s63 15.8 74.4 95.7c0 0-30.8 13.4-61.7 7.6l6.9-26.7-19.6-76.6z" class="st27" />
			<path d="m158.7 220.1 46.9 55.4-14.3 40.4s-35.6-49.5-51.6-87.8l19-8z" class="st1" />
			<path
				d="M160.3 222.1s-16.5 9.3-20.6 5.9c-7.3-5.9-13.4-27.4-13.4-27.4s30.8-11.6 30.5-11.2c-.3.5 3.5 32.7 3.5 32.7z"
				class="st1" />
			<path d="M160.3 222.1c-.3-1.7 6.1-19.5 8.3-26.2.5-1.6-.6-3.4-2.3-3.7-1.1-.2-3-.1-3.8 1.6l-7.7 13.2 5.5 15.1z"
				class="st1" />
			<path
				d="m159.7 202.8-5.3-26.4c-.3-1.8-2.1-3-3.8-2.6-1.5.3-2.5 1.6-2.3 3.2l2.3 19.6 9.1 6.2zM149.2 193.1l-7.2-18.8c-.6-1.6-2.5-2.6-4.1-2-1.4.5-2.2 1.9-1.9 3.4l5.3 21.8 7.9-4.4zM141.4 198.6l-9.1-18.5c-.8-1.7-2.9-2.5-4.6-1.8-1.6.7-2.3 2.5-1.6 4.2l7.3 17.5 8-1.4z"
				class="st1" />
			<path d="m126.3 200.6-7.1-11.3c-.6-1.3 0-2.8 1.2-3.4 1.2-.6 2.8-.1 3.6 1l9.4 13-7.1.7z" class="st1" />
			<path d="M158.3 200.8s-10.7-1.1-11.8 13.2"
				style="fill:none;stroke:#282828;strokeWidth:1.5317;strokeLinecap:round;strokeLinejoin:round;stroke-miterlimit:10" />
			<path d="M181.7 297s8.8 30.5 26.4 26.5c17.6-4.1 45-41.6 45-41.6l-6.1-64.1-49.3 60.7-16 18.5z" class="st1" />
			<path d="M212.9 259.6s16.6 25.1 30.9 34l9.3-11.7-35.9-27.7-4.3 5.4z" class="st14" />
			<path d="M285.8 185.5s-48.9 11-74.9 67.8c0 0 15.7 23.7 41 34.3l16.9-20.7 17-81.4z" class="st27" />
			<path
				d="M285.8 185.3c-19.1 9.8-31.1 22.8-31.1 22.8l3.8 166.1h120.3l-.4-165.2s-15.2-14.8-31.6-22.1c-14-6.2-47.4-8.5-61-1.6z"
				class="st27" />
			<path
				d="M342.7 266.2c-9.2 0-16.7-7.5-16.7-16.7v-16.7h33.5v16.7c0 9.2-7.5 16.7-16.8 16.7zM378.6 290.9l1.5-54.4M256.5 281.8l-2.6-47.1"
				class="st26" />
			<path d="m287.2 124.7-5-24.8c-.3-2-1.1-5.1-.1-8.1 1.6-4.8 7.4-14.2 17.4-9.9l2.2 9.8s-10.4 2.1-14.5 15.6v17.4z"
				class="st20" />
			<path d="M298.7 87c-.2 3.3-3.1 17.5-13.2 22.7.1 0-8.8-19 13.2-22.7z" class="st20" />
			<path d="M334.2 180.8v-42.1h-38.8v42.1l-11.6 5.3s2.7 17.5 31.4 17.9c28.7.4 31.6-17 31.6-17l-12.6-6.2z"
				class="st1" />
			<path
				d="M299.5 81.9s7.1-18.8 29.1-8.8c13.3 6.1 17 14.2 18.6 19.9.5 1.9.7 4.9.6 6.7l-5.3 25-20.8-34.6-20.1 1.6-2.1-9.8z"
				class="st20" />
			<path d="M342.5 124.7s2.6-4.2 8-2.1c5.4 2 3 15.2-5.1 16.8 0 0-2.9.6-5.2-1.4 0 0 2-9.7 2.3-13.3z"
				class="st14" />
			<path d="M349.4 127.2s-4.5-1.5-7.7 5.2" class="st26" />
			<path d="M287.2 124.7s-2.6-4.2-8-2.1c-5.4 2-3 15.2 5.1 16.8 0 0 2.9.6 5.2-1.4 0 0-2-9.7-2.3-13.3z"
				class="st14" />
			<path d="M280.2 127.2s4.5-1.5 7.7 5.2" class="st26" />
			<path
				d="M343 112.2c0 7.9-.8 24.5-5.6 34.3-4.6 9.2-12.1 14.2-22 14.5-9.9.3-17.3-3.5-23.2-15.5-5.9-12-5.6-33.1-5.6-33.1s0-28.2 27.9-28.2c29.4-.1 28.5 28 28.5 28z"
				class="st1" />
			<path d="M295.7 151.4s3.3 16.5 17.6 18.4c16.5 2.2 20.9-18 20.9-18s-7.3 9.2-18.9 9.2c-12.8 0-19.6-9.6-19.6-9.6z"
				class="st20" />
			<path d="M312.8 124v6.5c0 .3.1.5.2.8.4 1 1.5 1.4 2.5 1.2l2.2-.6" class="st26" />
			<path
				d="M304.6 120.8c0 1.4-1.1 2.5-2.5 2.5s-2.5-1.1-2.5-2.5 1.1-2.5 2.5-2.5c1.3 0 2.5 1.1 2.5 2.5zM328.4 120.8c0 1.4-1.1 2.5-2.5 2.5s-2.5-1.1-2.5-2.5 1.1-2.5 2.5-2.5 2.5 1.1 2.5 2.5zM319.3 108.2l17.1 4.4s-.8-4.8-7.8-6.5c-6.9-1.8-9.3 2.1-9.3 2.1zM308.7 108.2l-17.1 4.4s.8-4.8 7.8-6.5c7-1.8 9.3 2.1 9.3 2.1z"
				class="st20" />
			<path d="M305.3 137.1s2.5 1.9 9.2 1.9c6 0 9.8-1.9 9.8-1.9" class="st26" />
			<circle cx="301.3" cy="121.6" r="10.8" class="st29" />
			<circle cx="327.9" cy="121.6" r="10.8" class="st29" />
			<path d="M312.1 121.6s2.6-2.4 4.9 0M290.5 121.6l-3.6-.1M338.7 121.6l4-.1" class="st29" />
			<path
				d="M295.7 87.7s5.2 14.7 28.6 14.3c15.9-.3 19.7 11.2 19.7 11.2s-2.8-25.7-3.5-25.5c-.7.2-24.2-6.3-24.2-6.3l-20.6 6.3z"
				class="st20" />
		</g>
	</g>
</svg>