<svg xmlns="http://www.w3.org/2000/svg" xml:space="preserve" style="enable-background:new 0 0 668.6 434.6"
	viewBox="0 0 668.6 434.6">
	<style>
		.st2 {
			fill: #b0afff
		}

		.st3 {
			fill: none;
			stroke: #fff;
			stroke-miterlimit: 10
		}

		.st4 {
			fill: #e3ddff
		}

		.st5 {
			fill: #b5c0ff
		}

		.st6 {
			fill: #fff
		}

		.st7 {
			fill: #96a6ea
		}

		.st8 {
			fill: #c5c5ff
		}

		.st9 {
			fill: #8e8eed
		}

		.st10 {
			fill: #c65a4b
		}

		.st12 {
			fill: #fff0cf
		}

		.st13 {
			fill: #ff684f
		}

		.st14 {
			fill: #e5cfa5
		}

		.st15 {
			fill: #ffab26
		}

		.st16 {
			fill: #ff9a8d
		}

		.st18 {
			fill: #dd9122
		}

		.st20 {
			fill: none;
			stroke: #bf7a00;
			strokeLinecap: round;
			strokeLinejoin: round;
			stroke-miterlimit: 10
		}

		.st23 {
			fill: #ff785d
		}

		.st25 {
			fill: #a3665b
		}

		.st26 {
			fill: #00363f
		}

		.st27 {
			fill: #005f78
		}

		.st28 {
			fill: #004e60
		}

		.st30 {
			fill: none;
			stroke: #014251;
			strokeLinecap: round;
			strokeLinejoin: round;
			stroke-miterlimit: 10
		}

		.st31 {
			fill: #ea961b
		}

		.st33 {
			fill: #c16252
		}

		.st35 {
			fill: none;
			stroke: #025256;
			stroke-miterlimit: 10
		}

		.st36 {
			fill: #ffcca4
		}
	</style>
	<g id="OBJECT">
		<path d="m0 397.4 668.6-4.6" style="fill:none;stroke:#e3ddff;strokeWidth:3;stroke-miterlimit:10" />
		<path
			d="M76.6 340.2c-15.6-10.1-20.4-.8-26.9-8.6-6.5-7.7-1.8-15.5-14.9-22.4C22.3 302.6 11 304 11 304s-1 12.4 4.6 25.4c5.9 13.6 13.1 7.9 20.3 15 7.2 7-2.4 11.1 6.5 27.5 8.8 16.3 47.2 16.6 47.2 16.6s2.6-38.3-13-48.3z"
			class="st2" />
		<path
			d="m11.1 304 78.6 84.4M48.1 378l27.3-5 6.2-28M38.7 361.1l20-6.2 5.9-19.6M34.8 343.3l10.6-2.7 3-10.9M19 335.1l16.9-4.8 4.2-17.6M13.4 323.1l12-4.1 3.3-12.5"
			class="st3" />
		<path
			d="M588.7 347c15.6-10.1 20.4-.8 26.9-8.6 6.5-7.7 1.8-15.5 14.9-22.4 12.5-6.6 23.8-5.2 23.8-5.2s1 12.4-4.6 25.4c-5.9 13.6-13.1 7.9-20.3 15-7.2 7 2.4 11.1-6.5 27.5-8.8 16.3-47.2 16.6-47.2 16.6s-2.6-38.2 13-48.3z"
			class="st2" />
		<path
			d="m654.2 310.8-78.6 84.4M617.3 384.8l-27.4-5-6.2-28M626.6 367.9l-20-6.2-5.9-19.6M630.5 350.1l-10.6-2.7-3-10.8M646.3 341.9l-16.9-4.7-4.2-17.6M651.9 329.9l-12-4-3.3-12.6"
			class="st3" />
		<path
			d="M552 390.4H122.4c-5.5 0-9.9-4.4-9.9-9.9V82.1c0-5.5 4.4-9.9 9.9-9.9H552c5.5 0 9.9 4.4 9.9 9.9v298.4c0 5.5-4.4 9.9-9.9 9.9z"
			class="st4" />
		<path d="M561.9 90.6H112.5V80.5c0-10.3 8.3-18.6 18.6-18.6h412.1c10.3 0 18.6 8.3 18.6 18.6v10.1z" class="st5" />
		<path
			d="M270.4 199.7H147.1c-4.5 0-8.1-3.6-8.1-8.1v-67.3c0-4.5 3.6-8.1 8.1-8.1h123.3c4.5 0 8.1 3.6 8.1 8.1v67.3c0 4.5-3.6 8.1-8.1 8.1zM273.8 218.8H146.7c-2.6 0-4.7-2.1-4.7-4.7s2.1-4.7 4.7-4.7h127.1c2.6 0 4.7 2.1 4.7 4.7s-2.1 4.7-4.7 4.7zM273.8 238.6H146.7c-2.6 0-4.7-2.1-4.7-4.7s2.1-4.7 4.7-4.7h127.1c2.6 0 4.7 2.1 4.7 4.7s-2.1 4.7-4.7 4.7zM532.3 328.9H427.8c-3.4 0-6.1-2.7-6.1-6.1V123.7c0-3.4 2.7-6.1 6.1-6.1h104.4c3.4 0 6.1 2.7 6.1 6.1v199.1c.1 3.4-2.7 6.1-6 6.1z"
			class="st6" />
		<circle cx="492.1" cy="76.7" r="6.9" class="st7" />
		<circle cx="513.1" cy="76.7" r="6.9" class="st7" />
		<circle cx="534.2" cy="76.7" r="6.9" class="st7" />
		<path
			d="M269 190.9H151.4l26.8-17.8 11.9 6.4c.3.2.7.1 1-.1l25.4-18 15 8.2c.3.2.7.2 1 0l30.8-20.8c.4-.3.5-.9.3-1.3-.3-.4-.9-.5-1.3-.3L232 167.6l-15-8.2c-.3-.2-.7-.1-1 .1l-25.4 18-11.9-6.4c-.3-.2-.7-.1-1 0l-27.3 18.1v-61.7c0-.5-.4-.9-.9-.9s-.9.4-.9.9v65.1H269c.5 0 .9-.4.9-.9 0-.4-.4-.8-.9-.8z"
			class="st4" />
		<path
			d="M151.6 126.7c0 1.2-1 2.2-2.2 2.2-1.2 0-2.2-1-2.2-2.2 0-1.2 1-2.2 2.2-2.2 1.2 0 2.2 1 2.2 2.2zM271.6 191.8c0 1.2-1 2.2-2.2 2.2s-2.2-1-2.2-2.2c0-1.2 1-2.2 2.2-2.2s2.2 1 2.2 2.2zM180.8 172.3c0 1.3-1 2.3-2.3 2.3-1.3 0-2.3-1-2.3-2.3s1-2.3 2.3-2.3c1.2 0 2.3 1 2.3 2.3zM218.8 160.8c0 1.3-1 2.3-2.3 2.3s-2.3-1-2.3-2.3c0-1.3 1-2.3 2.3-2.3s2.3 1 2.3 2.3zM192.8 178.7c0 1.3-1 2.3-2.3 2.3-1.3 0-2.3-1-2.3-2.3s1-2.3 2.3-2.3c1.3 0 2.3 1 2.3 2.3zM234.2 168.5c0 1.3-1 2.3-2.3 2.3-1.3 0-2.3-1-2.3-2.3 0-1.3 1-2.3 2.3-2.3 1.3 0 2.3 1 2.3 2.3zM265 148.1c0 1.3-1 2.3-2.3 2.3s-2.3-1-2.3-2.3 1-2.3 2.3-2.3 2.3 1 2.3 2.3z"
			class="st5" />
		<path
			d="M592.2 315.1c-.7-8.8-5.7-14.4-.3-21.4 5.4-6.9 7.6-17.8.7-26.1v-.1c-10.5 2.4-15.5 12.3-15.4 21.1.1 8.8-7.3 10.2-13.3 16.7-5.9 6.6-4.6 12.7-3.1 26.3 1.5 13.7-8.5 15.1-10.1 28.5-1.1 9.5 2.1 22.5 2.8 22.1.3.7 10.8-7.7 15.7-15.8 7-11.5-.1-18.8 9.4-28.7 9.5-9.8 14.3-13.8 13.6-22.6z"
			class="st8" />
		<path
			d="M608.1 334.4c.4-8.4-3.6-14.3 2.4-20.1 6-5.8 9.3-15.8 3.9-24.5-10.2.9-16.1 9.7-17.1 17.9-1 8.3-8.2 8.6-14.5 14.1-6.4 5.4-5.9 11.4-6.2 24.4-.3 13-9.9 13.2-13 25.5-2.2 8.8-.9 21.4-.2 21.1.2.7 11.1-5.9 16.7-12.9 8-9.9 2.2-17.7 12.4-25.8 10.1-8.1 15.1-11.4 15.6-19.7zM75.3 315.1c.7-8.8 5.7-14.4.3-21.4-5.4-6.9-7.6-17.8-.7-26.1v-.1c10.5 2.4 15.5 12.3 15.4 21.1-.1 8.8 7.3 10.2 13.3 16.7 5.9 6.6 4.6 12.7 3.1 26.3-1.5 13.7 8.5 15.1 10.1 28.5 1.1 9.5-2.1 22.5-2.8 22.1-.3.7-10.8-7.7-15.7-15.8-7-11.5.1-18.8-9.4-28.7-9.5-9.8-14.3-13.8-13.6-22.6z"
			class="st8" />
		<path
			d="M59.4 334.4C59 326 63 320.1 57 314.3c-6-5.8-9.3-15.8-3.9-24.5 10.2.9 16.1 9.7 17.1 17.9 1 8.3 8.2 8.6 14.5 14.1 6.4 5.4 5.9 11.4 6.2 24.4.3 13 9.9 13.2 13 25.5 2.2 8.8.9 21.4.2 21.1-.2.7-11.1-5.9-16.7-12.9-8-9.9-2.2-17.7-12.4-25.8-10.1-8.1-15.1-11.4-15.6-19.7z"
			class="st8" />
		<path
			d="M41.3 395h189.2s-2-14.8-25.1-21.9c-20.5-6.4-40.3 6.8-40.3 6.8s-17.9-29.5-55.5-29.5C55 350.3 41.3 395 41.3 395z"
			class="st9" />
		<path
			d="M63.6 371.4 91 395M93.3 359.2l8.9 35.8M124 362.8l-9.6 32.2M144.6 377.9 129.4 395M176.9 383.2 187 395M195.8 377.1V395M214.4 384.6l-8.8 10.4"
			class="st3" />
		<path
			d="M404.4 395h189.2s-2-14.8-25.1-21.9c-20.5-6.4-40.3 6.8-40.3 6.8s-17.9-29.5-55.5-29.5c-54.7-.1-68.3 44.6-68.3 44.6z"
			class="st9" />
		<path
			d="m426.7 371.4 27.4 23.6M456.3 359.2l8.9 35.8M487.1 362.8l-9.6 32.2M507.7 377.9 492.5 395M539.9 383.2l10.2 11.8M558.9 377.1V395M577.4 384.6l-8.7 10.4"
			class="st3" />
		<path
			d="M242.3 335.5c-15.1-22.5-26.9-12.9-31-27-4.2-14.1 6.5-21.8-7-38.5-13-16-28.8-20.7-28.8-20.7S167 265.4 167 286c0 21.5 13 18.2 18.6 31.7 5.6 13.6-9.6 13.5-7.2 40.5s53.7 49.4 53.7 49.4 25.2-49.6 10.2-72.1z"
			class="st2" />
		<path
			d="m175.4 249.3 56.5 158.3M182.2 369.7l39.5 9.1 24.4-33.9M179.4 341.6l30.3 3.3L229 322M184.4 315.5l15.8 2.6 10.3-12.8M168.1 295.5l25.3 3.4 15.7-21.2M167.5 276.2l18.4 1.5 11.6-14.9"
			class="st3" />
		<path d="m304.1 340.9 4.3 14h55l3.8-12.7z" class="st10" />
		<path d="M422.9 392.9H251.6v-10.4c0-4.1 3.3-7.4 7.4-7.4h156.4c4.1 0 7.4 3.3 7.4 7.4v10.4z" class="st9" />
		<path d="M451.5 410.1H230.1v-13.6c0-2 1.6-3.6 3.6-3.6h214.2c2 0 3.6 1.6 3.6 3.6v13.6z" style="fill:#7c7cd1" />
		<path
			d="M403.5 118.9c-.3-6.7-1.1-13-2.4-18.9-12.2-59-64.2-83.7-64.4-83.5-.1 0-.2.1-.3.1-3.9 1.7-53 27-64.3 84.4-1.1 5.6-1.9 11.6-2.2 17.9-1.5 31.5 2.8 74.8 8.5 114.9 8.2 57.8 19.1 109.1 19.1 109.1h78.2s10.9-51.2 19.1-109c5.8-40.1 10.2-83.4 8.7-115zm-26.8-15.5c-.5-4.1-1.2-8.1-2.1-12 5 1.2 9.7 2.5 13.9 3.9 5 28.4-7.3 44.8-11.8 8.1z"
			class="st12" />
		<path
			d="M401.1 100c-3.6-1.5-7.8-3.2-12.6-4.7-4.2-1.4-8.8-2.7-13.9-3.9-10.9-2.5-23.6-4.3-37.9-4.3-15.7 0-29.2 2.2-40.2 5.1-10.2 2.7-18.4 6-24.3 8.9 11.3-57.4 60.3-82.7 64.3-84.4.1 0 .2-.1.3-.1.1-.3 52.1 24.4 64.3 83.4z"
			class="st13" />
		<path
			d="M372.5 168.5c0 9.5-3.3 18.3-8.7 25.3-7.5 9.5-19.1 15.6-32.1 15.6-22.6 0-40.9-18.3-40.9-40.9 0-8.8 2.8-16.9 7.4-23.5 7.4-10.5 19.6-17.3 33.4-17.3 22.6-.1 40.9 18.2 40.9 40.8z"
			class="st14" />
		<path
			d="M394.9 234c-8.2 57.8-19.1 109-19.1 109h-61.6c-2.2-14.9-9-62.9-14.4-112.7 9.4-1 21.6-1.8 37-1.9 15 0 27.4.8 37.3 2l-7.8 76.9s7.7-2.4 11.3-16c2.3-8.8 6-36.7 8.2-59.2 3.6.7 6.6 1.3 9.1 1.9z"
			class="st2" />
		<path
			d="M375.7 165.3c0 9.1-3.1 17.5-8.3 24.1-7.1 9.1-18.2 14.9-30.6 14.9-21.5 0-39-17.4-39-39 0-8.4 2.6-16.1 7.1-22.4 7.1-10 18.7-16.5 31.9-16.5 21.5 0 38.9 17.4 38.9 38.9z"
			class="st15" />
		<path
			d="M364.4 165.3c0 8-3.4 15.2-8.8 20.3-6.4-2.6-13.8-6.5-22.1-12.3-10.4-7.1-17.3-13.8-21.9-19.7 4.4-9.5 14-16 25.1-16 15.3 0 27.7 12.4 27.7 27.7z"
			class="st6" />
		<path
			d="M273 335.1c-4 12.5 1.9 40 1.9 40h-11.7s-4.3-9.2-8.9-21.6c-7.9-21.3-16.7-52.2-6.4-62.8 16.4-16.8 34.5-30.7 34.5-30.7l1.5 8.7 3 17.3 6 34c.1-.1-15.9 2.6-19.9 15.1zM425.3 335.2c-5.9 20.6-15 39.9-15 39.9h-11.7s5.9-27.5 1.9-40-20-15.2-20-15.2l9.6-54.3 1-5.6s18.2 14 34.5 30.7c7.7 7.8 4.9 26.6-.3 44.5z"
			class="st13" />
		<path
			d="M299.7 230.3c-10.5 1.2-17.4 2.6-21.2 3.5-5.7-40.1-10-83.4-8.5-114.9.3-6.3 1.1-12.2 2.2-17.9 6-2.9 14.1-6.2 24.3-8.9-1.7 7.1-2.9 14.7-3.5 22.5-1.8 24.9 1.9 71 6.7 115.7z"
			class="st14" />
		<path d="M336.7 16.5s-29.5 29.9-40.2 75.6c-10.2 2.7-18.4 6-24.3 8.9 11.3-57.4 60.3-82.7 64.3-84.4 0 0 .1 0 .2-.1z"
			class="st10" />
		<path
			d="M388.5 95.3c-4.2-1.4-8.8-2.7-13.9-3.9-7.4-32.5-26.2-56.1-26.9-56.9 19.4 13.3 32.7 26.9 39.6 55.3.5 1.8.9 3.7 1.2 5.5z"
			class="st16" />
		<path
			d="M273 335.1c-4 12.5 1.9 40 1.9 40H268c-3.6-8.5-11.4-30.2-7.6-50.2 3.8-20.2 20-34 26.7-39l6 34c-.1 0-16.1 2.7-20.1 15.2zM400.5 335.1c4 12.5-1.9 40-1.9 40h6.9c3.6-8.5 11.4-30.2 7.6-50.2-3.8-20.2-20-34-26.7-39l-6 34c.1 0 16.1 2.7 20.1 15.2z"
			class="st10" />
		<path
			d="M304.7 272.8c-1.7-13.5-3.4-27.9-5-42.5-10.5 1.2-17.4 2.6-21.2 3.5 8.2 57.8 19.1 109.1 19.1 109.1h78.1l3.3-16.3c-.3.1-.7.1-1 .2-35.3 6.4-68.8-18.3-73.3-54z"
			class="st9" />
		<path
			d="M355.6 185.6c-4.9 4.6-11.6 7.5-18.9 7.5-15.3 0-27.7-12.4-27.7-27.7 0-4.2.9-8.1 2.6-11.7 4.6 5.8 11.6 12.5 21.9 19.7 8.3 5.7 15.7 9.6 22.1 12.2z"
			style="fill:#fff5df" />
		<path
			d="M367.4 189.4c-7.1 9.1-18.2 14.9-30.6 14.9-21.5 0-39-17.4-39-39 0-8.4 2.6-16.1 7.1-22.4 1.4 3 3.5 6.7 6.7 10.8-1.7 3.5-2.6 7.5-2.6 11.7 0 15.3 12.4 27.7 27.7 27.7 7.3 0 14-2.8 18.9-7.5 4.4 1.8 8.4 3 11.8 3.8z"
			class="st18" />
		<path d="M385.9 232.2c-2.2 22.5-5.9 50.4-8.2 59.2-3.6 13.6-11.3 16-11.3 16l7.8-76.9c4.3.5 8.2 1.1 11.7 1.7z"
			style="fill:#c7c7ff" />
		<path d="M385.9 232.2c-3.4-.6-7.4-1.2-11.8-1.7l1.6-16.4c1.9-22.1 11.9-24.5 12.1-9.8.1 5.2-.7 15.7-1.9 27.9z"
			class="st6" />
		<path
			d="m338.7 15.3-.5-3.8c.7-.4 1.3-1.2 1.3-2.1 0-1.3-1.1-2.4-2.4-2.4s-2.4 1.1-2.4 2.4c0 .9.5 1.7 1.2 2.1l-.5 3.7-6.4 5.6s1.2 2.5 7.3 2.8c6.1.3 9-2.4 9-2.4l-6.6-5.9z"
			class="st10" />
		<path
			d="m106.1 290.4-3.9 96.3M129.1 290.4l11.4 89.3M114.1 301.3l2-11.9s3.2-4.5 6.1-5.4M94 275.5s18.8 1.8 32.6-1.4"
			class="st20" />
		<path d="M376.7 103.4c-.5-4.1-1.2-8.1-2.1-12 5 1.2 9.7 2.5 13.9 3.9 5 28.4-7.3 44.8-11.8 8.1z" class="st6" />
		<path
			d="M90.7 134.9v-9.5l-7.2-1.4c-.3-.8-.6-1.5-.9-2.3l4.6-5.9-6.2-7.2-6.8 3.9c-1.1-.6-2.3-1.2-3.5-1.6L69 103h-9.5l-1.6 7.9c-1.2.4-2.3.9-3.4 1.5l-7.6-4.3-6.2 7.2 5.1 6.5c-.2.5-.4.9-.6 1.4l-8 1.6v9.5l7.6 1.5c.2.8.5 1.6.9 2.4l-5.3 6.8 6.2 7.2 7.9-4.5c.7.4 1.5.7 2.3 1l1.8 9.1h9.5l1.7-8.4c1.1-.3 2.1-.7 3-1.1l7.9 4.4 6.2-7.2-4.7-6.1c.6-1 1-2.1 1.4-3.3l7.1-1.2zm-26.5 5.6c-5.7 0-10.3-4.6-10.3-10.3 0-5.7 4.6-10.3 10.3-10.3 5.7 0 10.3 4.6 10.3 10.3 0 5.7-4.6 10.3-10.3 10.3z"
			class="st16" />
		<path
			d="M69.7 209.4v-4.9l-3.7-.7c-.1-.4-.3-.8-.5-1.2l2.3-3-3.2-3.7-3.5 2c-.6-.3-1.2-.6-1.8-.8l-.8-4.1h-4.9l-.8 4.1c-.6.2-1.2.4-1.7.8l-3.9-2.2-3.2 3.7 2.6 3.3c-.1.2-.2.5-.3.7l-4.1.8v4.9l3.9.8c.1.4.3.8.5 1.2l-2.7 3.5 3.2 3.7 4-2.3c.4.2.8.4 1.2.5l.9 4.6h4.9l.9-4.3c.5-.2 1.1-.3 1.6-.6l4 2.3 3.2-3.7-2.4-3.1c.3-.5.5-1.1.7-1.7l3.6-.6zm-13.5 2.8c-2.9 0-5.3-2.4-5.3-5.3s2.4-5.3 5.3-5.3 5.3 2.4 5.3 5.3c0 3-2.4 5.3-5.3 5.3zM618.1 129.6v-4.9l-3.7-.7c-.1-.4-.3-.8-.5-1.2l2.3-3-3.2-3.7-3.5 2c-.6-.3-1.2-.6-1.8-.8l-.8-4.1H602l-.8 4.1c-.6.2-1.2.4-1.7.8l-3.9-2.2-3.2 3.7 2.6 3.3c-.1.2-.2.5-.3.7l-4.1.8v4.9l3.9.8c.1.4.3.8.5 1.2l-2.7 3.5 3.2 3.7 4-2.3c.4.2.8.4 1.2.5l.9 4.6h4.9l.9-4.3c.5-.2 1.1-.3 1.6-.6l4 2.3 3.2-3.7-2.4-3.1c.3-.5.5-1.1.7-1.7l3.6-.6zm-13.5 2.9c-2.9 0-5.3-2.4-5.3-5.3s2.4-5.3 5.3-5.3 5.3 2.4 5.3 5.3c-.1 2.9-2.4 5.3-5.3 5.3z"
			class="st4" />
		<path
			d="M643.1 188.3v-7.8l-5.9-1.2c-.2-.6-.5-1.3-.7-1.9l3.7-4.8-5.1-5.9-5.6 3.1c-.9-.5-1.9-.9-2.9-1.3l-1.3-6.5h-7.8l-1.3 6.5c-1 .3-1.9.7-2.8 1.2l-6.2-3.5-5.1 5.9 4.2 5.3c-.2.4-.3.8-.5 1.2l-6.6 1.3v7.8l6.2 1.2c.2.7.4 1.3.7 2l-4.4 5.6 5.1 5.9 6.5-3.6 1.8.9 1.5 7.4h7.8l1.4-6.9c.9-.2 1.7-.6 2.5-.9l6.4 3.6 5.1-5.9-3.9-5c.5-.8.8-1.7 1.1-2.7l6.1-1zm-21.7 4.6c-4.7 0-8.4-3.8-8.4-8.4 0-4.7 3.8-8.4 8.4-8.4 4.7 0 8.4 3.8 8.4 8.4.1 4.6-3.7 8.4-8.4 8.4z"
			class="st16" />
		<circle cx="223.5" cy="76.7" r="36.9" class="st6" transform="rotate(-80.497 223.524 76.7)" />
		<circle cx="223.5" cy="76.7" r="36.9"
			style="fill:none;stroke:#ff684f;strokeLinecap:round;strokeLinejoin:round;stroke-dasharray:8.9171,8.9171"
			transform="rotate(-80.497 223.524 76.7)" />
		<circle cx="457.5" cy="149.9" r="26.8"
			style="fill:none;stroke:#ff684f;strokeLinecap:round;strokeLinejoin:round;stroke-dasharray:9.3452,9.3452" />
		<path d="M457.5 170.3c-2.5 0-4.6-2.1-4.6-4.6v-5.5h9.2v5.5c0 2.6-2.1 4.6-4.6 4.6z" class="st23" />
		<path
			d="M471.4 144.4c0 4.9-2.6 9.2-6.4 11.7v.7c0 .7-.1 1.5-.4 2.1-.8 1.9-2.7 3.3-5 3.3h-4.1c-3 0-5.4-2.4-5.4-5.4v-.7c-3.9-2.5-6.4-6.8-6.4-11.7 0-2.6.7-5 1.9-7.1 2.4-4.1 6.9-6.8 12-6.8 7.6 0 13.8 6.2 13.8 13.9z"
			class="st15" />
		<path d="M462.8 135s6.4 1.5 5.7 8.5c-.6 7.1-8.9-8.9-5.7-8.5z" class="st6" />
		<path d="m453.9 160.5 3.6-10.6 3.6 10.6" style="fill:none;stroke:#ff785d;stroke-miterlimit:10" />
		<path
			d="M208.4 99.5V54.4c0-2.5 2-4.5 4.5-4.5h22.4c2.5 0 4.5 2 4.5 4.5v45.1c0 2.5-2 4.5-4.5 4.5h-22.5c-2.4 0-4.4-2.1-4.4-4.5z"
			class="st15" />
		<path d="M236.9 55.6v42.5c0 1.1-.9 2-2 2h-21.6c-1.1 0-2-.9-2-2V55.6c0-1.1.9-2 2-2h21.6c1.1 0 2 .9 2 2z"
			class="st12" />
		<path d="M226.4 54.9h-5.3c-.7 0-1.3-.6-1.3-1.3 0-.7.6-1.3 1.3-1.3h5.3c.7 0 1.3.6 1.3 1.3 0 .7-.6 1.3-1.3 1.3z"
			class="st15" />
		<circle cx="225.3" cy="76" r="8.8" class="st6" transform="rotate(-76.768 225.273 76.032)" />
		<path d="m212.9 80.9 18.6-14.5-1.7 20.6-7.3-6.3z" class="st15" />
		<path d="m222.5 80.7 9-14.3-11.3 14.3zM220.2 80.7l2 5 2.2-3.3-1.9-1.7z" class="st18" />
		<path d="m99 393.6.4 8-3.8 11.2h13.1l-.7-11.4-.2-7.8zM134.6 392.2l1.5 7.4v10.3l17.7 2 1.7-4.8-11.1-6.7-1.1-7.7z"
			class="st25" />
		<path
			d="M98 405.7s1.5-1.3 4.5-1.3 5.2 1.9 5.7 1.3c0 0 1.9 8.1 1.3 10.1-.6 2-6.1 2-8.9 2.1-2.8.1-5.4-1.5-5.8-2.6-.5-1.2 2.9-8.7 3.2-9.6zM136.1 403.7s3.4 1.6 6.5 1.6 2.5-3.1 4.2-3.4c1.7-.4 11.6 5.9 13.2 8.6 1.6 2.7-1.4 3.6-6.6 3.1-5.2-.5-11.7-1.6-11.7-1.6s-6.2-1.1-7.1-1.7c-.9-.7 1.5-6.6 1.5-6.6z"
			class="st26" />
		<path
			d="m117.7 200.8-1.8.5-.2 2.7-.6 6.5-11.8-1.5.6-9.3-1-15.6c-.3-4 2.1-7.8 5.8-9.4.9-.4 2-.8 3.2-1.1.2-.1.4-.1.7-.1 5.3-1.1 10.3 2.8 11 8.1l1.2 9.1c.4 4.5-2.6 8.9-7.1 10.1z"
			class="st25" />
		<path
			d="m156.2 248.8-6.8 4.5-4 2.6s-5.2-4.1-9.5-10.5l-.6-.9c-1.7 9.1-4 17.3-5.5 22.4-1 3.3-1.7 5.3-1.7 5.3h-35s-5.4-11.3-9.3-24.8l-4.4 9.8-14.8-1.5c2.1-13.6 10.5-32.9 14.7-41.8 1.4-3.1 4.1-5.3 7.4-6.1l16.9-4.3 11.5 6.3.5-5.7 15.8 5.6c3.2 1.1 5.9 3.4 7.5 6.4l17.3 32.7z"
			class="st27" />
		<path
			d="M129.8 266.9c-1 3.3-1.7 5.3-1.7 5.3h-35s-5.4-11.3-9.3-24.8l5.6-15.2S91 249 104 258.5c9.1 6.6 20.2 8.1 25.8 8.4zM149.4 253.3l-4 2.6s-5.2-4.1-9.5-10.5l-.3-5.4-1.1-24.2c0 .3.3 3.2 1.2 7.5 1.7 8.1 5.4 20.9 13.7 30z"
			class="st28" />
		<path
			d="m109.1 237.6-3 26.4c-.1.5.3.9.8 1l17.1 1.9c.5.1.9-.3 1-.7l3.4-26.4c.1-.5-.3-.9-.8-1l-17.5-2c-.5 0-.9.3-1 .8z"
			style="fill:#ffe2b6" />
		<path
			d="m128.1 252-7.1.3-.2-.5s.8-.2 1.9-.5c1.2-.4 2.1-1 1.8-1.4-.3-.4-4.2.1-5.4 1.1-1.2.9-2.7 3.2-2.9 3.6-3.3-.4-29.8-3.6-38.1-2.4-8.8 1.3-13.6 3.6-13.6 3.6-.2 1.3 3.1 9.1 16.9 9.2 12.4.1 32.5-3.8 36.4-4.6.3 0 7-.4 7.9-1.1.9-.8.6-1.6.6-1.6 1-.8.4-1.7.4-1.7 1.3-.7.5-2 .5-2s.8-.2 1-.9c.2-.8-.1-1.1-.1-1.1zM185.8 226.2c-.6 0-2.4 1.9-3.1 2.8l-.2-.3c1.2-1.2 4.2-5.2 3.3-5.3-.9 0-3.8 3.4-4.2 3.9l-.3-.5c1.3-1.4 4.3-5.4 3.4-5.5-.9 0-3.7 3.2-4.3 4l-.2-.3c1.3-1.5 3.3-4.3 2.6-4.3-.9 0-3.1 2.6-3.4 3 0 0-1.7 1.5-2.9 2.9-.3-1.9-.7-3.9-1.1-3.9-.6 0-.7.1-.6 2.1 0 1.5.2 3.9.3 5-.8.4-15.9 8.8-21.3 14.3-5.5 5.6-8.3 11.8-8.3 11.8 13 8.5 31.3-19.3 33.1-22 1.6-.9 3.3-2.3 4.2-3.1 0 0 .1 0 .1-.1l.6-.6c1-1.2 2.9-3.8 2.3-3.9z"
			class="st25" />
		<path
			d="M146 394.2h-14.2l-17.7-92.9-3.8 94.2H94.9s-4.3-74.7-5.1-93.5c-.8-18.8 3-29.8 3-29.8l24.1-.6 11.3-.3v.1s0 .1.1.2c.4 1.4 2.2 8 6.5 25.6 5.6 22.9 11.2 97 11.2 97z"
			class="st15" />
		<path
			d="M121.8 177.3s-.8-1.3-3.1-.6c-2.3.7-2.3 1.5-3.9 1.1-1.7-.4-1.2 2.4-2.7 3.3-1.5.9-2.3.9-2.3.9s1.7 3.9.4 5.8c-1.3 1.8-1.4-1.7-3.2-2.2-1.8-.5-2.2 2.7-1.4 5.4.8 2.7 3.7 2.1 3.8 2.6.2.5-2.6 3.5-3.9 4.1-1.3.6-1.8.6-1.8.6s-1.7-4.3-2-7.9c-.3-3.6-1.6-2.6-2.6-3.7-1-1 .2-1.8-1.2-2.6s-1.2-3.3 0-3.6c1.2-.3-.1-2.4 1.5-3.6 1.5-1.2 2.6-1.6 2.8-2.5.1-.9.4-2.6 2.6-2.6 2.2-.1.3-1.1 3.7-2.2 3.4-1 2.6 1.7 5.6.4 3-1.4 5.3.3 5.9 1.5.6 1.2 1.6.1 3.2 1.4 1.6 1.4.1 2.7 1 3.2s1.9.7 1.9 2.5-1.3 1.9-.9 3-1.2 2.7-1.2 2.6c-.2-.1-1.2-6.2-2.2-6.9z"
			class="st26" />
		<path d="M84.2 246.4s6.8-17.4 7.3-24c.6-6.6-5.5-11-6.7-11.5M133.6 213.3c4 7.8 1.7 31.2 1.7 31.2" class="st30" />
		<path d="M138.9 394.2h-7l-17.7-92.9s1.1-8.8 1.5-10.8c.4-2.1 4.4-4.9 4.4-4.9s8.4 89.8 18.8 108.6z" class="st31" />
		<path
			d="m128.2 271.3.1.3c-3.8 1.2-22.5 2.3-29.3 24.6-7.7 25.6 6.5 99.3 6.5 99.3H94.9s-4.3-74.7-5.1-93.5c-.8-18.8 3-29.8 3-29.8l24.1-.6 11.3-.3z"
			class="st31" />
		<path d="m115.8 201.2-.2 2.7c-3.4-1-7.1-3.3-6-8.6 0 .1.3 3.9 6.2 5.9z" style="fill:#7f4f49" />
		<path
			d="M244.2 255.1s3.2 8.3 10.6 11.5c7.4 3.2 10.4-3.6 11.7-13.9 1.3-10.3 1.5-24.2 1.5-24.2h-6.5l-5.4 25.7-11.9.9z"
			class="st23" />
		<path d="M243.4 216.1c8.6 5.3 12.4 25.5 17 36.6 0 0-5.7 4.1-13.2 4.6-7.5.5-10.6-2.8-10.6-2.8s.4-42.3 6.8-38.4z"
			class="st18" />
		<path
			d="m208.6 264.4 1.4.1 26.9 1.4s.5.8 1.3 2.2c2.4 4.5 7.8 15.3 10 26.9 2.8 15.3-1.9 55.8-1.9 55.8h-42.8s-4.9-18.9-7.5-41.3c-2-16.9 6.2-33.9 10.4-41.3"
			class="st27" />
		<path
			d="m230.5 206.9.9-14.5c.2-3.8-1.9-7.3-5.4-8.7-.9-.4-1.9-.7-2.9-1-.2-.1-.4-.1-.6-.1-4.9-1-9.6 2.6-10.2 7.5l-1.1 8.4c-.6 4.4 2.2 8.5 6.5 9.5l1.7.4.8 8.5 11-1.4-.7-8.6z"
			class="st23" />
		<path d="M207.7 214.1s13.3-3.8 32.1 0c16 3.2-3.7 53.8-3.7 53.8l-27.5-2.4-.9-51.4z" class="st15" />
		<path
			d="M212.9 314c-2.8 8.7.8 27.8 7.3 36.7h-16.7s-4.9-18.9-7.5-41.3c-2-16.9 6.2-33.9 10.4-41.3 1.3-2 1.4-2.9 2.3-3.8l28.3 1.4s.5.8 1.3 2.2c-6.1 2.8-18.4 9.7-23.9 20.4-7 13.6 22.3 10.2 24.1 11.8 1.8 1.7-22.3 3.8-25.6 13.9z"
			class="st28" />
		<path d="M184.6 247.4s-4.1 3.7-.6 12.3c3.4 8.6 18.7 19 18.7 19l3.2-6c-.1 0-16.4-23.7-21.3-25.3z" class="st23" />
		<path
			d="M206.7 273.2s.6 1.6 0 3.4c-.6 1.8-2.9 5-2.9 5l-3.4 3.3s-.9-.3-1.1-1.1c-.1-.7.4-1.6.4-1.6s-.6-.8-.5-1.4c.2-.6.4-1.1.4-1.1s-.2-.4 0-1.3.6-1.8.6-1.8l4.5-5.4 2 2zM222.4 414h-9.6l-8.9-60.5-.4-2.8h15.8c.5 1.6.8 3.9 1.2 6.7 2.2 18.2 1.9 56.6 1.9 56.6zM251.6 412.2l-9.9-2-9.7-50.1-1.8-9.3h16.2c.4 2.1.9 6.9 1.5 13 1.6 18.5 3.7 48.4 3.7 48.4z"
			class="st23" />
		<path d="m213.4 410.6-11 8.6 20.4-.6-.4-9zM241.6 409.9s.1 7.8.7 9.2l13.9-2.4-5.9-9.4-8.7 2.6z" class="st23" />
		<path
			d="M209.4 413.3s-9.9 5.2-13.5 7.4c-2.3 1.4.7 3.2 7.6 2.7 6.9-.6 11.6-1.2 13.7-1.2s2.6 1.3 2.6 1.3l3.6-.7s.4-7.9-.8-10.5c0 0-3.1.5-7.2 2.1-4.1 1.5-6-1.1-6-1.1zM241.8 412.3s-.7 4.8 0 7.3c.7 2.4 2.2 4.5 2.2 4.5h4.4s.4-2.8 2.2-3.1c1.7-.2 1.8 1.5 4.8 1.7 3 .2 7.4.5 8.4.1 1.1-.4 2.5-1.4-2.8-4.2-5.3-2.8-6-3.5-6-3.5s-1.2 1.4-4.5 0c-3.3-1.5-4-3.4-8.7-2.8z"
			class="st27" />
		<path
			d="m184.6 247.4 3.6-5.8 8.3 5-7 11.5c-.1 0-4.9-6.2-4.9-10.7zM267.6 229.3l4.9-6.3-4.5-.5s-6.5 3.8-6.5 6.1 6.1.7 6.1.7z"
			class="st23" />
		<path
			d="M271.1 223.3s.4-3.4 2-4.3c1.6-.9-.2 1.6-.6 4 0 0-1.2.7-1.4.3zM269.3 223.3s.4-3.4 2-4.3c1.6-.9-.2 1.6-.6 4 0 0-1.1.7-1.4.3z"
			class="st23" />
		<path
			d="M267.7 223.1s.4-3.4 2-4.3c1.6-.9-.2 1.6-.6 4 0 0-1.2.8-1.4.3zM266.3 224s-.4-3.1.8-4.2c1.2-1.2.2 1.4.4 3.7 0-.1-.9.8-1.2.5z"
			class="st23" />
		<path
			d="M219.6 192.9s-4.1 11.5-4.3 20.3l7.4.9.6-3 .7 3s12.9.2 18.8-2c0 0-1.2-20.4-5.5-26.8-4.3-6.4-11.6-7.7-17-5.7s-8.5 7.1-8.5 7.1l3.9 3.3 1.8-1.9-.8 2.8 2.9 2z"
			class="st26" />
		<path d="M236.4 302.3s-8.7.8-19 4.9" class="st30" />
		<path
			d="m220.5 357.4-16.6-3.9-.4-2.8h15.8c.4 1.7.8 3.9 1.2 6.7zM247.8 363.8l-15.9-3.7-1.8-9.3h16.2c.4 2 .9 6.9 1.5 13z"
			class="st33" />
		<path d="M209.9 229.8s-.8 22.9 8.7 28c9.6 5.2 20.2 2.9 20.2 2.9l-1.9 5.4-28.3-1.4-.4-20.4 1.7-14.5z"
			class="st18" />
		<path d="m207.7 214.1-25.1 29.7s5.5 7.8 15.9 8.7c0 0 6.1 3.1 10.7-11.9 4.5-15.1-1.5-26.5-1.5-26.5z"
			class="st15" />
		<path d="M208.3 243.2s7.5-14.3 0-27.3" class="st20" />
		<path
			d="m541.1 381.3 1.7 19-9.8 9.9 6.2 3.4 13.1-3.5v-28.2zM580.2 377.2l4.5 23.6 3.8 12 11.2-1.7-6.4-13.1-2.2-20.8z"
			class="st23" />
		<path d="M539.3 217.2s-6.1 16.7-8.2 25.7l-21.4 1 .5 9.3s24 2.2 29 0 4.8-9.5 4.8-9.5l-4.7-26.5z" class="st33" />
		<path
			d="m565.5 207.6 1-14.8c.3-3.9-2-7.4-5.5-8.9-.9-.4-1.9-.7-3-1-.2-.1-.4-.1-.6-.1-5-1-9.8 2.6-10.5 7.7l-1.2 8.6c-.6 4.5 2.2 8.7 6.6 9.7l1.7.4.8 8.7 4.8 3 6.4-4.5-.5-8.8z"
			class="st23" />
		<path
			d="M557.4 261.3c0 5.7-1.8 10.9-4.9 15.2-4.7 6.6-12.5 10.9-21.2 10.9v14.4c0 1.3-1 2.3-2.3 2.3h-83.4c-1.3 0-2.3-1-2.3-2.3v-14.7c1.2.2 2.5.3 3.8.3 14.4 0 26.1-11.7 26.1-26.1s-11.7-26.1-26.1-26.1c-1.3 0-2.6.1-3.8.3v-17c0-1.3 1-2.3 2.3-2.3h18.2c-.1-1.1-.2-2.2-.2-3.4 0-14.4 11.7-26.1 26.1-26.1 14.4 0 26.1 11.7 26.1 26.1 0 1.2-.1 2.3-.2 3.4H529c1.3 0 2.3 1 2.3 2.3v16.7c4.5 0 8.7 1.1 12.4 3.1 1.5.8 2.9 1.8 4.2 2.8 5.8 4.9 9.5 12.1 9.5 20.2z"
			class="st2" />
		<path
			d="M552.5 276.6c-4.7 6.6-12.5 10.9-21.2 10.9v14.4c0 1.3-1 2.3-2.3 2.3h-83.4c-1.3 0-2.3-1-2.3-2.3v-10.1c13.7-1.8 53.6-8.3 79-27.1 12.6-9.3 18.7-18.6 21.6-26.3 1.5.8 2.9 1.8 4.2 2.8l4.4 35.4z"
			style="fill:#9595e5" />
		<path
			d="M581.5 238.3c-.8 7.1-2.3 14.8-3.6 20.5-1.2 5.3-2.1 8.9-2.1 8.9h-31.5s-3.5-15.1-5-28.7 0-21.8 0-21.8l2.6-.8 11.4-3.3 6.3 6.2 6.3-6.2 14 4.1c.1 0 3.1 7.5 1.6 21.1z"
			class="st27" />
		<path
			d="M551.1 247.4c-1-.8-1.9-1.7-2.8-2.6 11.4 2.9 25.2-2.3 23.8-2.8-1.2-.4-20.3-.4-26.3-.4-7.2-11.1-4-25.2-4-25.2l-2.6.8s-1.5 8.2 0 21.8c1.5 13.6 5 28.7 5 28.7h31.5s1-3.6 2.1-8.9c-4.8-.6-16.2-2.8-26.7-11.4z"
			class="st28" />
		<path
			d="M544.3 267.7s-7 7.8-10.2 35.3c-3.2 27.6 3.2 94.6 3.2 94.6l18.4-1.1L560 299l17.8 96.9 18.4-3.9s-7.9-106.9-20.3-124.4h-31.6z"
			class="st26" />
		<path
			d="m580 217.2-14.7 34.4-30.7-2.6c-.5-.7-2.4-3.3-3-3.6-.6-.3-.1 1.7.8 3l-3.2-1s-1.5-.5-3.1-.9c-1.7-.4-2.6-.3-2.5.2 0 .5 1.8.5 4.5 2v.3c-1.3-.4-5.3-1.6-5.6-.9-.3.7 3.8 1.9 5.4 2.4l-.1.5c-1.2-.4-5.3-1.7-5.6-1-.3.7 3.8 1.9 5.5 2.4l-.1.5c-1.6-.5-4.7-1.3-5-.7-.3.6 2.9 1.6 4.8 2.2 0 0 2.7 1.8 5.7 1.9l30.4 8.2c4.2.8 8.4-1.2 10.3-5.1 4.3-8.6 11.2-23.5 11.2-30.7.1-10.4-5-11.5-5-11.5z"
			class="st23" />
		<path
			d="M549.4 180.6s-2.6 1.5-3.8 5.5c-1.2 4 .3 4.9.3 4.9h3.5s.3-2.4 1.4-3.2l-.4 3.5 6.5.7.6-2.7.7 3.3 3.1.6s.3 2.3 1 3.3c0 0 .7-1.3 2-1.1 1.4.2 1.9 2.9.7 5.4-1.2 2.5-3.6 2-3.6 2s2.6 4.1 4 3.9c5.7-.6 7.8-8 8.2-13.7.4-5.7-2.7-7.6-2.7-7.6s-.3-4.3-6.4-6.6c-5.6-2.1-13.4.4-15.1 1.8z"
			class="st26" />
		<path
			d="M568.8 183.8s0-5.1 3.9-5.5c3.9-.4 8.6 7 6.9 11.2-2.2 5.4-7.1 2-7.1 2l-3.7-7.7zM533 409.5s-8.6 6-8 7.2c.6 1.2 6.4 2.9 10.4 2 4-.9 12.7-5.1 12.7-5.1l1.4 1.9 3.8-1.9-1-9.7s-7.1 3.6-11.7 4.4c-4.6.8-5.4-.3-5.4-.3l-2.2 1.5zM584.7 400.8s-.8 4.4-.5 8c.4 3.6 1.1 5.9 1.1 5.9l2.1.8.6-1.2s1.2 1.7 4.5 4 8.4 1.6 10 1.1c1.6-.5 3.1-1.8.8-4.8s-6.2-8.9-6.2-8.9 1.8 3.4-3.6 2-8-5.4-8.8-6.9zM559.7 219.3s1.6 2.5 4.8 2.4c3.2-.1 4.4-7.7 4.4-7.7l-3.1-2.4-6.1 7.7zM554.3 211.5l5.4 7.8s-2 3.4-4.3 2.4c-2.2-1-4.3-7.9-4.3-7.9l3.2-2.3z"
			class="st26" />
		<path
			d="m536.9 392.6 19-1.3M576.7 390.3l19.1-2.3M553.6 289.6s5.5 2.7 6.6 10.1M543 269.6h34M580.9 280.2s-8.9-1.2-11-10.6M538.2 281.6s8.8-3.4 9.2-12M542.2 292.3s-6.2 34.6.5 91.3M571.6 292.3l14.7 87.3"
			class="st35" />
		<path d="m431.5 408.1 11.1 2.2-.8 8-10.2-1.2z" class="st36" />
		<path d="M440 409.8s3.6-2.3 5.4-2.5c1.8-.2 6.7 7 6.7 7s7.6 4.2 7.2 7.4c-.6 4.2-17.5-3.4-17.5-3.4l-1.8-8.5z"
			class="st26" />
		<path
			d="m420.1 294.1.1-14.5c0-3.8-2.3-7.2-5.9-8.4-.9-.3-1.9-.6-3-.8-.2 0-.4-.1-.6-.1-4.9-.7-9.4 3.1-9.8 8.1l-.7 8.5c-.3 4.4 2.7 8.3 7 9.1l1.7.3 1.2 8.5 4.9 2.7 6-4.7-.9-8.7zM387.8 289.6s-1.5-7.6-2.1-7.6c-.5 0-.3 2.7-.3 2.7s-1-4.6-1.6-4.5c-.6.1-.1 4.3-.1 4.3s-1-5.8-1.9-5.6c-.9.1.2 5.9.2 5.9s-1.4-5.4-1.9-4.9.9 9.4.9 9.4-2.5-2.9-3.1-2.6c-.6.3 1.2 4.5 2.7 5.4 1 .7 2.9 1.5 3.9 1.9.5.6 12.2 13.9 15.4 15 3.3 1.1 7.5-5.1 7.5-5.1l-19.6-14.3z"
			class="st36" />
		<path
			d="M441 348.2c-.3 3.3-.6 5.4-.6 5.4l-28.3 3.8-1.3.2v-.1l-7.9-20.1v.2c-1.2 8-2.4 14.7-2.4 14.7l-11.8-2.4s3-33.9 5.8-39.7c2.8-5.8 7.6-7.4 7.6-7.4s11-2.3 19.4-3.5c4.7-.7 9.5 1.3 12.3 5.1 2.6 3.5 5.5 8.7 6.8 15.7 1.7 9.9 1 21.5.4 28.1z"
			class="st15" />
		<path
			d="M402 274.8s3.9 2.7 6.9 3.8c0 0-1 4.3.4 6 0 0 .5-2.1 2.1-1.8 1.6.2 2 4.7 1.2 6.6-.8 1.9-2.3 2.1-2.3 2.1l2.2 2.6 7.6-.6s4.3-11.2 4.4-14.2c.1-3-1.6-3.9-1.6-3.9s.8-3.1-3.4-5.3c-4.3-2.2-13.6-2.6-15.3-2.4s-1.2 2.4-1.2 2.4-2.1-.2-3 1.2c-.9 1.3 2 3.5 2 3.5z"
			class="st26" />
		<path
			d="m360.5 346.5 5.1 20.4h3.4l-3.8-20.5s1.5-1.6 1.7-4.1c.1-2.4-2.8-3.3-2.8-3.3l.4 3-1.8 2.1-2.2-1.3-1-2.7s-2 .9-1.7 3.6c.2 2.5 2.7 2.8 2.7 2.8z"
			class="st27" />
		<path
			d="M421 357.6s-20.6 24-23.8 38.1c-3.2 14.1 7.8 16.7 12.5 17.8 6.1 1.4 25.6 4 25.6 4l1.7-12-19.7-7.3s17.6-15.1 21.1-20.5c7.3-11.3 1.1-24 1.1-24l-18.5 3.9z"
			style="fill:#01292d" />
		<path
			d="m388.5 350-18.6 2.4v.1l-6.3-2.5s-3.5 1.6-4 2.4c-.5.8.3 1.8.3 1.8s-.3 1.1.6 1.9c0 0 0 .8.9 1.5 0 0 .6 1.3 2.1 1.8s2.3 0 2.3 0 3 .9 5.2.4c0 0 23.3 2.5 25.9 0 2.6-2.5 3.4-7.4 3.4-7.4l-11.8-2.4zM382.6 413.7l2.2 7.5h7.6l-1.2-6.4z"
			class="st36" />
		<path
			d="M384.7 420.8s-5.9 4-8.6 4.9c-2.7.9-2.8 2.8-.9 3.3s18.3-.1 19.5-.7c1.2-.6-1.2-8-2.3-8.3-1.1-.3-7.7.8-7.7.8zM410.7 357.6s-25.5 8.3-34.8 16.1 4.9 41.2 4.9 41.2h14l-3.2-22.4s30.4-11.9 38.9-15.7c12-5.5 9.7-23.1 9.7-23.1l-29.5 3.9z"
			class="st26" />
		<path
			d="M441 348.2c-.3 3.3-.6 5.4-.6 5.4l-28.3 3.8-1.3.1-7.9-20.1v.2l-.1-.2 2.8-15.5s5.3 20 14.5 26c7.8 5.2 18.2 1.4 20.9.3z"
			class="st18" />
		<path d="M402.8 336.9s6.9-17.1-.7-30.1" class="st20" />
		<path d="m379.2 413 1 4h16.1l-.4-4.2z" style="fill:#025256" />
		<path d="m434.5 404.4-2.3 13.9 4.3.7 1.8-13.3z" class="st26" />
		<path d="M385.5 412.9s-8.4-26.7-5.6-33.4c2.8-6.8 34.3-14.4 39.7-17.4 5.3-3.1 4.2-6.2 4.2-6.2" class="st35" />
		<path d="M408.3 301.6s2.4-2.9 7.7-4.3c5.3-1.4 6.9-.5 6.9-.5l.9 2.5-15.5 2.3z" style="fill:#bf7a00" />
	</g>
</svg>