<svg xmlns="http://www.w3.org/2000/svg" width="382" height="289" fill="none">
   <path fill="#7DC1FA"
      d="M381.792 263.323c0-6.885-83.057-12.467-185.513-12.467s-185.513 5.582-185.513 12.467c0 4.487 35.275 8.419 88.197 10.615-1.004.604-1.53 1.223-1.53 1.852 0 6.885 62.283 12.467 139.113 12.467s139.113-5.581 139.113-12.467c0-2.273-6.791-4.404-18.648-6.239 15.759-1.832 24.781-3.959 24.781-6.228Z"
      opacity=".41" />
   <path fill="#96CDEA"
      d="M302.897 229.525c-3.981-4.691-8.102-9.199-11.662-14.23-3.757-5.306-6.657-10.989-8.87-17.034-.163-.443.314-.924.712-.71 5.758 3.091 10.889 7.573 14.61 13.767 2.879 4.79 4.749 10.414 5.963 16.378a184.923 184.923 0 0 0 3.828-20.803c-9.634-4.574-16.959-12.719-22.867-22.1-.229-.366-.066-1.03.426-.95 2.208.357 4.374 1.466 6.4 2.515a30.642 30.642 0 0 1 6.358 4.369c3.774 3.339 7.944 7.852 9.999 13.439a187.399 187.399 0 0 0 1.116-18.916c-9.27-4.531-16.728-13.089-22.392-22.488-.24-.402.026-1.075.492-.921 4.924 1.643 9.906 3.908 14.175 7.691 3.326 2.947 5.819 7.052 7.722 11.571a187.826 187.826 0 0 0-.09-3.515 188.147 188.147 0 0 0-1.268-16.596c-9.731-7.574-19.289-17.215-24.788-29.449-.211-.473.194-.863.573-.751 6.179 1.825 11.875 6.202 16.711 11.75 2.82 3.227 5.029 6.861 6.441 10.968a186.184 186.184 0 0 0-2.567-12.911c-4.248-5.041-7.256-10.949-8.91-17.624-1.097-4.423-1.424-8.692-1.85-13.085-.051-.518.488-.683.864-.308 8.09 7.962 12.674 20.692 10.931 30.777l.002.022a189.173 189.173 0 0 1 2.686 13.653c.652-4.228 1.847-8.432 3.004-12.143 1.687-5.355 3.858-10.469 7.503-13.606.302-.259.88.277.908.815.719 13.368-3.464 24.643-10.38 31.895-.016.018-.034.028-.051.042a188.243 188.243 0 0 1 1.317 18.587c3.192-9.535 8.645-18.485 14.299-25.305.332-.399.919.236.884.84-.677 13.325-6.009 25.912-15.14 29.686a187.555 187.555 0 0 1-1.085 18.981c5.282-10.867 12.985-19.681 21.495-25.838.373-.269.919.323.761.959-3.564 14.388-12.396 24.631-22.644 28.126a185.655 185.655 0 0 1-3.598 19.862c8.044-11.104 17.474-21.02 28.639-24.854.503-.169.646.795.411 1.289-6.892 14.543-18.335 23.307-29.858 26.809" />
   <path fill="#7DADD1"
      d="M312.596 228.471c-2.222-5.738-4.636-11.348-6.348-17.268-1.808-6.245-2.683-12.565-2.791-19.001-.008-.472.599-.77.906-.437 4.424 4.809 7.802 10.726 9.285 17.798 1.148 5.469 1.07 11.396.259 17.427a185.041 185.041 0 0 0 10.442-18.396c-7.599-7.482-11.847-17.579-14.351-28.379-.096-.421.276-.994.714-.758 1.969 1.061 3.65 2.82 5.221 4.476a30.677 30.677 0 0 1 4.573 6.213c2.469 4.392 4.928 10.024 5.037 15.976a187.454 187.454 0 0 0 7.261-17.503c-7.271-7.322-11.508-17.852-13.775-28.589-.094-.458.377-1.007.767-.709 4.113 3.167 8.076 6.941 10.867 11.916 2.175 3.876 3.183 8.571 3.498 13.464.369-1.111.719-2.23 1.068-3.35a188.035 188.035 0 0 0 4.247-16.094c-6.708-10.347-12.573-22.591-13.754-35.952-.045-.516.466-.752.788-.522 5.238 3.752 9.183 9.755 11.931 16.583 1.606 3.973 2.5 8.131 2.486 12.474.751-4.292 1.358-8.64 1.812-13.039-2.359-6.156-3.262-12.723-2.634-19.571.415-4.538 1.506-8.678 2.546-12.968.122-.506.685-.485.917-.008 5.03 10.175 5.183 23.704.228 32.66l-.005.022a189.042 189.042 0 0 1-1.942 13.779c2.003-3.78 4.511-7.359 6.822-10.485 3.351-4.505 7.08-8.624 11.552-10.391.37-.146.74.55.59 1.068-3.707 12.864-11.357 22.143-20.27 26.724-.021.011-.041.016-.062.023a188.205 188.205 0 0 1-4.854 17.991c6.144-7.96 14.231-14.625 21.81-19.212.445-.268.791.524.56 1.084-5.011 12.366-14.178 22.507-24.042 23.076a187.47 187.47 0 0 1-7.252 17.574c8.556-8.533 18.723-14.332 28.783-17.356.441-.132.763.606.404 1.156-8.088 12.422-19.791 19.2-30.618 19.14a185.762 185.762 0 0 1-9.915 17.582c11.242-7.85 23.404-14.124 35.208-14.082.531.006.349.963-.034 1.353-11.282 11.477-24.967 16.002-37.001 15.529" />
   <path fill="#1F222D"
      d="M309.38 237.55c-2.947-3.522-5.999-6.91-8.63-10.677-2.777-3.973-4.913-8.213-6.535-12.711-.119-.33.239-.678.535-.515 4.28 2.364 8.086 5.747 10.832 10.375 2.124 3.58 3.492 7.762 4.369 12.186a134.652 134.652 0 0 0 2.956-15.323c-7.164-3.513-12.589-9.633-16.951-16.648-.169-.274-.044-.762.322-.697 1.646.294 3.255 1.144 4.762 1.947a23.263 23.263 0 0 1 4.721 3.316c2.799 2.519 5.888 5.912 7.394 10.07.544-4.616.853-9.275.924-13.965-6.893-3.476-12.415-9.903-16.595-16.927-.177-.3.024-.794.371-.674 3.665 1.281 7.371 3.024 10.537 5.879 2.467 2.224 4.306 5.292 5.704 8.658-.006-.866-.028-1.732-.05-2.599a138.218 138.218 0 0 0-.866-12.283c-7.222-5.731-14.306-12.988-18.348-22.105-.155-.352.149-.636.431-.548 4.6 1.434 8.828 4.747 12.409 8.914 2.088 2.423 3.718 5.14 4.752 8.194a138.442 138.442 0 0 0-1.852-9.578c-3.144-3.784-5.36-8.191-6.561-13.147-.797-3.284-1.021-6.443-1.317-9.696-.035-.383.368-.498.646-.216 5.996 5.995 9.354 15.467 8.005 22.897l.001.017c.779 3.38 1.42 6.757 1.938 10.128.507-3.115 1.419-6.206 2.3-8.933 1.284-3.935 2.928-7.685 5.662-9.953.226-.188.655.217.674.615.472 9.89-2.702 18.166-7.896 23.431-.012.013-.025.02-.038.03.531 4.604.824 9.193.893 13.755 2.427-7.003 6.538-13.543 10.789-18.505.25-.29.684.187.656.633-.569 9.839-4.607 19.069-11.437 21.732-.061 4.705-.363 9.38-.901 14.013 3.993-7.959 9.781-14.368 16.159-18.801.28-.194.684.251.563.72-2.728 10.585-9.365 18.034-17.026 20.477-.66 4.93-1.584 9.812-2.78 14.63 6.053-8.096 13.136-15.296 21.483-17.976.376-.118.478.597.301.958-5.211 10.654-13.789 16.974-22.401 19.404" />
   <path fill="#387EB2"
      d="M318.337 267.436h-9.714c-11.452 0-20.736-9.284-20.736-20.736v-20.059a3.186 3.186 0 0 1 3.186-3.186h44.813a3.185 3.185 0 0 1 3.186 3.186V246.7c0 11.453-9.283 20.736-20.735 20.736Z" />
   <path fill="#5196D4"
      d="M339.071 246.41v-22.954h-25.458v22.954c0 8.665 5.244 16.101 12.729 19.32 7.485-3.22 12.729-10.655 12.729-19.32Z" />
   <path stroke="#626E7F" d="M71.617 202.69V82.394M75.621 80.422h170.026" />
   <path fill="#F3D163"
      d="M95.916 231.033H44.848a3.387 3.387 0 0 1-3.387-3.387v-51.068a3.387 3.387 0 0 1 3.387-3.387h51.068a3.387 3.387 0 0 1 3.387 3.387v51.068a3.388 3.388 0 0 1-3.387 3.387Z" />
   <path stroke="#fff" stroke-miterlimit="10"
      d="M90.961 194.028a8.27 8.27 0 1 0-11.697-11.696 8.27 8.27 0 0 0 11.697 11.696ZM52.066 224.313h34.652c2.47 0 4.009-2.681 2.762-4.814l-7.036-12.04c-1.162-1.988-3.98-2.135-5.342-.278-1.44 1.964-4.46 1.663-5.483-.547l-6.242-13.473c-1.184-2.556-4.856-2.444-5.882.18l-10.408 26.607c-.822 2.098.726 4.365 2.979 4.365Z" />
   <path fill="#fff"
      d="M91.726 93.292h-38.14a3.402 3.402 0 0 1-3.402-3.402V67.336h44.943V89.89a3.4 3.4 0 0 1-3.401 3.402Z" />
   <path fill="#65B8EF" d="M50.188 67.337 70.18 78.884a4.953 4.953 0 0 0 4.956 0L95.13 67.337" opacity=".6" />
   <path fill="#D75947" d="M101.681 69.413a7.38 7.38 0 1 0-14.363-3.392 7.38 7.38 0 0 0 14.363 3.392Z" />
   <path fill="#fff"
      d="M92.762 68.847v-.792l3.495-5.53h.574v1.227h-.388l-2.64 4.179v.062h4.706v.854h-5.747Zm3.743 1.631v-7.953h.917v7.953h-.917Z" />
   <path fill="#65B8EF" d="M85.535 67.307v17.575a1.66 1.66 0 0 1-1.661 1.661h-33.69V68.307" opacity=".12" />
   <path fill="#fff"
      d="M80.513 83.823H41.629a3.402 3.402 0 0 1-3.402-3.402V57.867H83.17v23.298a2.656 2.656 0 0 1-2.657 2.658Z" />
   <path fill="#65B8EF" d="M38.227 57.867 58.22 69.414a4.957 4.957 0 0 0 4.956 0l19.993-11.547" opacity=".6" />
   <path fill="#65B8EF"
      d="M241.176 50.434h-39.118a6.28 6.28 0 0 0-6.281 6.281v10.782a17.825 17.825 0 0 0 7.105 14.241l6.706 5.048v-4.114a6.28 6.28 0 0 1 6.281-6.28h25.308a6.28 6.28 0 0 0 6.281-6.282V56.717a6.282 6.282 0 0 0-6.282-6.283Z" />
   <path fill="#fff"
      d="M210.428 66.788a3.498 3.498 0 1 0 0-6.996 3.498 3.498 0 0 0 0 6.996ZM225.117 63.29a3.498 3.498 0 1 1-6.996 0 3.498 3.498 0 0 1 6.996 0ZM232.81 66.788a3.499 3.499 0 1 0 0-6.998 3.499 3.499 0 0 0 0 6.998Z" />
   <path fill="#D75947"
      d="M226.118 72.277h39.118a6.28 6.28 0 0 1 6.281 6.28V89.34a17.825 17.825 0 0 1-7.105 14.241l-6.706 5.048v-4.114a6.281 6.281 0 0 0-6.281-6.281h-25.308a6.28 6.28 0 0 1-6.281-6.281V78.559a6.283 6.283 0 0 1 6.282-6.282Z" />
   <path fill="#fff"
      d="M238.164 85.297a3.498 3.498 0 1 1-6.996 0 3.498 3.498 0 0 1 6.996 0ZM249.355 85.297a3.498 3.498 0 1 1-6.996 0 3.498 3.498 0 0 1 6.996 0ZM260.547 85.297a3.498 3.498 0 1 1-6.996 0 3.498 3.498 0 0 1 6.996 0Z" />
   <path stroke="#626E7F" stroke-miterlimit="10" d="M41.46 142.339h30.158M147.539 36.33v43.074" />
   <path fill="#fff"
      d="m186.041 106.003-.689-2.155a2.155 2.155 0 0 0-2.709-1.396l-2.282.73a1.705 1.705 0 0 1-1.975-.739 18.592 18.592 0 0 0-3.458-4.16 1.704 1.704 0 0 1-.38-2.05l1.011-1.961a2.155 2.155 0 0 0-.928-2.903l-2.011-1.037a2.155 2.155 0 0 0-2.903.928l-.971 1.884a1.702 1.702 0 0 1-1.92.873 18.59 18.59 0 0 0-5.578-.491 1.703 1.703 0 0 1-1.729-1.18l-.595-1.862a2.155 2.155 0 0 0-2.709-1.396l-2.155.689a2.155 2.155 0 0 0-1.396 2.709l.595 1.861a1.708 1.708 0 0 1-.733 1.971 18.623 18.623 0 0 0-4.299 3.689 1.711 1.711 0 0 1-2.085.417l-1.66-.855a2.155 2.155 0 0 0-2.903.928l-1.037 2.011a2.155 2.155 0 0 0 .928 2.903l2.984 1.538a18.61 18.61 0 0 0-.683 6.875 1.701 1.701 0 0 1-1.177 1.773l-1.9.607a2.155 2.155 0 0 0-1.396 2.709l.689 2.155a2.154 2.154 0 0 0 2.709 1.396l2.129-.681a1.701 1.701 0 0 1 1.942.688 18.613 18.613 0 0 0 3.623 4.069c.614.514.794 1.38.428 2.092l-1.038 2.014a2.155 2.155 0 0 0 .928 2.903l2.011 1.037a2.155 2.155 0 0 0 2.903-.928l1.154-2.24a1.703 1.703 0 0 1 1.864-.886c1.702.353 3.465.471 5.244.33a1.706 1.706 0 0 1 1.765 1.178l.766 2.395a2.154 2.154 0 0 0 2.709 1.396l2.155-.689a2.155 2.155 0 0 0 1.396-2.709l-.815-2.55a1.704 1.704 0 0 1 .704-1.953 18.596 18.596 0 0 0 3.91-3.375 1.708 1.708 0 0 1 2.068-.399l2.314 1.193a2.155 2.155 0 0 0 2.903-.928l1.037-2.011a2.155 2.155 0 0 0-.928-2.903l-2.335-1.204a1.706 1.706 0 0 1-.877-1.905c.389-1.687.547-3.438.449-5.209a1.704 1.704 0 0 1 1.181-1.721l2.358-.754a2.159 2.159 0 0 0 1.397-2.711Zm-18.984 16.822c-6.761 2.924-14.442-1.034-15.983-8.237-1.141-5.33 1.702-10.846 6.705-13.01 6.761-2.924 14.442 1.034 15.983 8.237 1.141 5.331-1.701 10.846-6.705 13.01Z" />
   <path fill="#5196D4"
      d="m147.397 131.016-.948-2.965a2.965 2.965 0 0 0-3.727-1.921l-3.139 1.004a2.343 2.343 0 0 1-2.716-1.017 25.607 25.607 0 0 0-4.757-5.723 2.345 2.345 0 0 1-.523-2.821l1.39-2.698a2.965 2.965 0 0 0-1.277-3.993l-2.767-1.426a2.965 2.965 0 0 0-3.993 1.277l-1.335 2.591a2.343 2.343 0 0 1-2.642 1.201 25.606 25.606 0 0 0-7.674-.676 2.342 2.342 0 0 1-2.379-1.624l-.819-2.561a2.966 2.966 0 0 0-3.727-1.921l-2.965.948a2.966 2.966 0 0 0-1.921 3.727l.819 2.56a2.35 2.35 0 0 1-1.008 2.712 25.582 25.582 0 0 0-5.913 5.075 2.354 2.354 0 0 1-2.869.574l-2.282-1.177a2.965 2.965 0 0 0-3.993 1.277l-1.427 2.767a2.965 2.965 0 0 0 1.277 3.993l4.106 2.115a25.594 25.594 0 0 0-.94 9.457 2.343 2.343 0 0 1-1.62 2.44l-2.612.836a2.966 2.966 0 0 0-1.922 3.727l.949 2.965a2.965 2.965 0 0 0 3.726 1.921l2.93-.937a2.341 2.341 0 0 1 2.67.946 25.598 25.598 0 0 0 4.984 5.597 2.347 2.347 0 0 1 .589 2.878l-1.428 2.771a2.965 2.965 0 0 0 1.276 3.993l2.767 1.426a2.965 2.965 0 0 0 3.993-1.277l1.588-3.081a2.345 2.345 0 0 1 2.565-1.219c2.341.485 4.767.648 7.215.454a2.346 2.346 0 0 1 2.427 1.621l1.054 3.294a2.966 2.966 0 0 0 3.727 1.921l2.965-.948a2.965 2.965 0 0 0 1.921-3.727l-1.122-3.508a2.344 2.344 0 0 1 .968-2.686 25.586 25.586 0 0 0 5.379-4.643 2.349 2.349 0 0 1 2.844-.549l3.184 1.641a2.965 2.965 0 0 0 3.993-1.277l1.426-2.767a2.965 2.965 0 0 0-1.277-3.993l-3.213-1.656a2.348 2.348 0 0 1-1.207-2.621c.536-2.32.752-4.73.618-7.167a2.345 2.345 0 0 1 1.625-2.367l3.245-1.038a2.962 2.962 0 0 0 1.922-3.725Zm-26.114 23.142c-9.301 4.023-19.867-1.423-21.987-11.332-1.569-7.333 2.341-14.92 9.224-17.897 9.301-4.023 19.867 1.423 21.987 11.332 1.569 7.333-2.342 14.92-9.224 17.897Z" />
   <path fill="#2B3847"
      d="M277.48 246.228H114.07a3.242 3.242 0 0 1-3.242-3.241V133.828a3.242 3.242 0 0 1 3.242-3.242h163.41a3.242 3.242 0 0 1 3.242 3.242v109.159a3.242 3.242 0 0 1-3.242 3.241Z" />
   <path fill="#CAE9FC"
      d="M269.617 237.799H121.922a3.242 3.242 0 0 1-3.242-3.241v-94.021a3.242 3.242 0 0 1 3.242-3.242h147.695a3.242 3.242 0 0 1 3.242 3.242v94.021a3.242 3.242 0 0 1-3.242 3.241Z" />
   <path fill="#2B3847" d="M315.51 273.628H76.031l34.793-32.16h169.893l34.793 32.16Z" />
   <path fill="#171E24"
      d="M313.761 281.251H77.782a1.75 1.75 0 0 1-1.75-1.75v-5.873H315.51v5.873a1.749 1.749 0 0 1-1.749 1.75ZM129.632 249.211l-7.109.005c-.715 0-.687-.438.061-.98l3.894-2.818c.748-.541 1.886-.981 2.541-.982l6.521-.006c.656-.001.654.438-.004.98l-3.421 2.819c-.656.542-1.768.981-2.483.982ZM142.469 249.202l-7.11.005c-.714.001-.785-.438-.157-.98l3.268-2.819c.628-.542 1.668-.981 2.324-.982l6.522-.006c.656-.001.751.438.214.98l-2.795 2.82c-.538.541-1.552.981-2.266.982ZM155.302 249.193l-7.11.005c-.715 0-.883-.439-.375-.981l2.642-2.82c.508-.542 1.45-.982 2.106-.982l6.522-.007c.656-.001.849.439.432.981l-2.169 2.822c-.417.541-1.334.981-2.048.982ZM168.139 249.183l-7.111.005c-.715.001-.98-.439-.592-.981l2.016-2.822c.387-.542 1.232-.982 1.888-.983l6.522-.006c.656-.001.947.439.65.981l-1.543 2.823c-.296.543-1.115.983-1.83.983ZM180.975 249.174l-7.111.005c-.715 0-1.078-.439-.811-.982l1.39-2.823c.267-.543 1.015-.983 1.67-.983l6.523-.006c.656-.001 1.044.439.868.982l-.917 2.824c-.176.542-.898.983-1.612.983ZM193.815 249.165l-7.111.005c-.715 0-1.175-.439-1.028-.982l.764-2.825c.147-.543.797-.983 1.453-.984l6.523-.006c.656-.001 1.142.439 1.086.982l-.29 2.826c-.058.543-.682.983-1.397.984ZM206.649 249.156l-7.112.005c-.715.001-1.273-.439-1.247-.983l.137-2.826c.026-.543.579-.984 1.235-.984l6.523-.007c.656-.001 1.24.439 1.304.983l.336 2.827c.066.544-.461.984-1.176.985ZM219.492 249.147l-7.112.005c-.715 0-1.371-.44-1.465-.983l-.489-2.827c-.094-.543.361-.984 1.017-.985l6.523-.007c.656-.001 1.337.44 1.522.983l.962 2.829c.186.543-.244.984-.958.985ZM232.327 249.138l-7.112.005c-.715.001-1.468-.44-1.682-.983l-1.115-2.829c-.214-.544.143-.985.799-.985l6.524-.006c.656-.001 1.435.44 1.74.984l1.588 2.83c.305.542-.027.983-.742.984ZM245.166 249.128l-7.113.005c-.715.001-1.566-.44-1.9-.984l-1.741-2.83c-.335-.544-.074-.985.581-.986l6.525-.006c.656-.001 1.533.44 1.958.984l2.214 2.831c.425.544.19.986-.524.986ZM258.009 249.119l-7.113.005c-.715 0-1.663-.44-2.118-.984l-2.368-2.832c-.455-.544-.292-.986.363-.986l6.525-.006c.656-.001 1.63.44 2.176.985l2.84 2.833c.547.543.41.985-.305.985ZM270.851 249.11l-7.113.005c-.715 0-1.761-.441-2.337-.985l-2.993-2.833c-.575-.544-.51-.986.146-.987l6.525-.007c.656-.001 1.728.44 2.394.985l3.466 2.834c.666.546.627.987-.088.988ZM122.106 255.748l-7.914.003c-.796 0-.838-.439-.094-.98l3.87-2.818c.744-.541 1.943-.981 2.679-.981l7.326-.005c.736-.001.804.438.151.98l-3.397 2.819c-.653.542-1.826.982-2.621.982ZM136.393 255.742l-7.914.003c-.796 0-.935-.439-.311-.98l3.244-2.819c.623-.542 1.725-.981 2.461-.982l7.326-.005c.736 0 .902.439.369.981l-2.771 2.82c-.533.542-1.609.982-2.404.982ZM150.681 255.736l-7.915.003c-.796 0-1.033-.439-.529-.981l2.618-2.82c.503-.542 1.508-.982 2.244-.982l7.326-.005c.736 0 .999.439.587.981l-2.145 2.822c-.412.542-1.391.982-2.186.982ZM164.969 255.73l-7.915.003c-.796 0-1.13-.439-.747-.982l1.992-2.822c.383-.542 1.29-.982 2.026-.983l7.327-.005c.737 0 1.097.439.805.982l-1.519 2.823c-.292.544-1.173.984-1.969.984ZM179.258 255.724l-7.915.003c-.796 0-1.228-.439-.965-.982l1.366-2.823c.262-.542 1.072-.983 1.808-.983l7.327-.005c.736 0 1.194.439 1.023.982l-.892 2.825c-.172.543-.956.983-1.752.983ZM193.548 255.719l-7.916.003c-.796 0-1.325-.44-1.183-.982l.739-2.825c.142-.543.854-.983 1.59-.984l7.327-.004c.737-.001 1.292.439 1.241.983l-.266 2.826c-.05.542-.736.982-1.532.983ZM207.841 255.713l-7.916.003c-.796 0-1.423-.44-1.401-.983l.113-2.826c.022-.543.636-.984 1.373-.984l7.328-.004c.737-.001 1.39.44 1.459.983l.36 2.827c.068.543-.521.983-1.316.984ZM222.128 255.707l-7.917.003c-.796 0-1.521-.44-1.619-.983l-.513-2.828c-.099-.543.418-.984 1.155-.985l7.328-.004c.737-.001 1.488.44 1.677.984l.986 2.828c.189.544-.302.985-1.097.985ZM236.42 255.701l-7.916.003c-.796 0-1.619-.44-1.838-.984l-1.139-2.829c-.219-.544.201-.985.937-.985l7.328-.005c.737-.001 1.585.44 1.895.984l1.612 2.83c.31.544-.083.986-.879.986ZM250.712 255.695l-7.917.003c-.796 0-1.716-.44-2.055-.984l-1.765-2.83c-.339-.544-.017-.985.719-.986l7.329-.005c.737-.001 1.683.44 2.113.985l2.238 2.832c.429.544.133.985-.662.985ZM265.007 255.689l-7.917.003c-.796 0-1.814-.441-2.273-.985l-2.391-2.832c-.46-.544-.235-.986.501-.986l7.329-.004c.737 0 1.78.441 2.331.985l2.864 2.833c.551.544.352.986-.444.986ZM279.299 255.683l-7.918.003c-.796 0-1.911-.441-2.491-.985l-3.018-2.833c-.58-.545-.453-.986.284-.987l7.33-.005c.737 0 1.878.441 2.549.986l3.491 2.834c.67.545.568.987-.227.987ZM114.69 262.285l-8.719.001c-.876 0-.987-.439-.248-.98l3.846-2.818c.739-.541 2-.98 2.817-.981l8.13-.003c.817 0 .954.439.306.98l-3.373 2.819c-.647.543-1.882.982-2.759.982ZM130.432 262.283l-8.719.001c-.876 0-1.085-.439-.466-.981l3.22-2.819c.619-.542 1.783-.981 2.6-.981l8.13-.003c.817 0 1.052.438.524.98l-2.747 2.821c-.528.542-1.666.982-2.542.982ZM146.17 262.28l-8.719.001c-.876 0-1.183-.439-.684-.981l2.593-2.82c.498-.542 1.565-.982 2.382-.982l8.131-.003c.817 0 1.15.439.742.981l-2.121 2.822c-.407.543-1.447.982-2.324.982ZM161.911 262.278l-8.719.001c-.876 0-1.28-.439-.902-.982l1.967-2.822c.378-.542 1.347-.982 2.164-.982l8.132-.003c.817 0 1.247.439.96.982l-1.495 2.823c-.288.543-1.231.982-2.107.983ZM177.65 262.275l-8.72.001c-.877 0-1.378-.44-1.12-.982l1.341-2.823c.258-.543 1.129-.983 1.946-.983l8.132-.003c.817 0 1.345.44 1.178.983l-.869 2.824c-.166.543-1.011.983-1.888.983ZM193.398 262.272l-8.72.001c-.877 0-1.476-.44-1.338-.983l.715-2.825c.137-.543.911-.983 1.728-.983l8.132-.003c.817 0 1.442.44 1.396.983l-.242 2.826c-.047.544-.795.984-1.671.984ZM209.136 262.27l-8.72.001c-.877 0-1.573-.44-1.556-.983l.089-2.826c.017-.543.693-.983 1.511-.984l8.132-.003c.818 0 1.54.44 1.614.984l.384 2.827c.073.543-.577.984-1.454.984ZM224.88 262.267l-8.721.001c-.877 0-1.671-.44-1.774-.984l-.537-2.827c-.103-.543.476-.984 1.293-.984l8.133-.003c.818 0 1.638.44 1.832.984l1.01 2.829c.193.544-.36.984-1.236.984ZM240.626 262.265l-8.721.001c-.877 0-1.769-.441-1.992-.985l-1.163-2.829c-.224-.544.258-.984 1.075-.985l8.133-.003c.818 0 1.735.44 2.05.984l1.636 2.83c.314.546-.142.987-1.018.987ZM256.371 262.262l-8.722.001c-.877 0-1.866-.441-2.21-.985l-1.789-2.83c-.344-.544.04-.985.857-.985l8.133-.003c.817 0 1.833.441 2.268.985l2.263 2.832c.434.544.076.985-.8.985ZM272.116 262.259l-8.722.001c-.877 0-1.964-.441-2.428-.985l-2.416-2.832c-.464-.544-.178-.985.639-.986l8.134-.003c.818 0 1.93.441 2.486.985l2.889 2.833c.555.546.294.987-.582.987ZM287.859 262.257l-8.722.001c-.877 0-2.061-.441-2.646-.986l-3.042-2.833c-.585-.544-.396-.986.422-.986l8.134-.003c.818 0 2.028.441 2.704.986l3.515 2.834c.674.545.511.987-.365.987ZM231.234 270.169l-70.938-.006c-3.113 0-5.098-.914-4.434-2.042.664-1.128 3.595-2.042 6.546-2.042l67.265-.003c2.952 0 5.76.916 6.272 2.046.511 1.131-1.598 2.047-4.711 2.047Z" />
   <path fill="#626E7F"
      d="m129.635 248.292-7.109.005c-.715.001-.687-.438.061-.98l3.894-2.818c.748-.541 1.886-.981 2.541-.981l6.521-.006c.656-.001.654.438-.004.98l-3.421 2.819c-.657.541-1.769.981-2.483.981ZM142.469 248.283l-7.11.005c-.715 0-.785-.438-.157-.98l3.268-2.819c.628-.542 1.668-.981 2.324-.982l6.522-.006c.656-.001.751.438.214.98l-2.795 2.82c-.537.542-1.551.982-2.266.982ZM155.302 248.274l-7.11.005c-.715.001-.882-.439-.375-.981l2.642-2.82c.508-.542 1.45-.982 2.106-.982l6.522-.007c.656-.001.849.439.432.981l-2.169 2.822c-.417.542-1.334.981-2.048.982ZM168.139 248.265l-7.111.005c-.715 0-.98-.439-.592-.981l2.016-2.822c.387-.542 1.233-.982 1.888-.983l6.522-.006c.656-.001.947.439.65.981l-1.543 2.823c-.296.542-1.115.982-1.83.983ZM180.978 248.256l-7.111.005c-.715 0-1.078-.439-.811-.982l1.39-2.823c.267-.543 1.015-.983 1.67-.983l6.523-.006c.656-.001 1.044.439.868.982l-.917 2.824c-.176.542-.898.982-1.612.983ZM193.815 248.246l-7.111.005c-.715.001-1.175-.439-1.029-.982l.764-2.825c.147-.543.797-.983 1.452-.984l6.523-.006c.656-.001 1.142.439 1.086.982l-.29 2.826c-.056.543-.68.984-1.395.984ZM206.648 248.237l-7.112.005c-.715.001-1.273-.439-1.246-.983l.137-2.826c.026-.543.579-.984 1.235-.984l6.523-.007c.656-.001 1.24.439 1.304.983l.336 2.827c.065.544-.462.985-1.177.985ZM219.492 248.228l-7.112.005c-.715.001-1.371-.44-1.465-.983l-.489-2.827c-.094-.543.361-.984 1.017-.985l6.523-.007c.656-.001 1.337.44 1.522.983l.962 2.829c.186.544-.244.985-.958.985ZM232.33 248.219l-7.112.005c-.715 0-1.468-.44-1.682-.984l-1.115-2.829c-.214-.544.143-.985.799-.986l6.524-.006c.656-.001 1.435.44 1.74.984l1.588 2.83c.305.544-.027.986-.742.986ZM245.17 248.21l-7.113.005c-.715 0-1.566-.44-1.9-.984l-1.741-2.83c-.335-.544-.075-.985.581-.986l6.525-.006c.656-.001 1.533.44 1.958.984l2.214 2.831c.425.544.19.985-.524.986ZM258.006 248.201l-7.113.005c-.715 0-1.664-.44-2.119-.985l-2.368-2.832c-.455-.544-.292-.986.363-.987l6.525-.006c.656-.001 1.63.44 2.176.985l2.84 2.833c.548.545.411.986-.304.987ZM270.851 248.192l-7.113.005c-.715.001-1.761-.441-2.337-.985l-2.993-2.833c-.575-.544-.51-.986.146-.987l6.525-.007c.656-.001 1.728.44 2.394.985l3.467 2.834c.665.545.626.987-.089.988ZM122.106 254.829l-7.914.003c-.796 0-.838-.439-.094-.98l3.87-2.817c.744-.541 1.943-.981 2.679-.981l7.326-.005c.736 0 .804.439.151.98l-3.397 2.819c-.653.542-1.826.981-2.621.981ZM136.393 254.824l-7.914.003c-.796 0-.935-.439-.311-.981l3.244-2.819c.623-.542 1.725-.981 2.462-.982l7.326-.004c.736 0 .902.439.369.981l-2.771 2.82c-.534.542-1.61.981-2.405.982ZM150.681 254.818l-7.915.003c-.796 0-1.033-.439-.529-.981l2.618-2.82c.503-.542 1.508-.982 2.244-.982l7.326-.005c.736 0 .999.439.587.981l-2.145 2.822c-.412.542-1.391.981-2.186.982ZM164.969 254.812l-7.915.003c-.796 0-1.13-.439-.747-.982l1.992-2.822c.383-.542 1.29-.982 2.026-.983l7.327-.004c.737 0 1.097.439.805.982l-1.519 2.823c-.292.542-1.173.982-1.969.983ZM179.259 254.806l-7.916.003c-.796 0-1.228-.439-.965-.982l1.366-2.823c.262-.543 1.072-.983 1.808-.983l7.327-.005c.736-.001 1.195.439 1.023.982l-.892 2.824c-.172.544-.956.984-1.751.984ZM193.548 254.8l-7.916.003c-.796 0-1.325-.44-1.183-.982l.739-2.825c.142-.543.854-.983 1.59-.984l7.327-.005c.737 0 1.292.44 1.241.983l-.266 2.826c-.05.543-.736.984-1.532.984ZM207.837 254.794l-7.916.003c-.796 0-1.423-.44-1.401-.983l.113-2.826c.022-.543.636-.984 1.373-.984l7.328-.005c.737 0 1.39.44 1.459.983l.36 2.827c.068.544-.521.985-1.316.985ZM222.13 254.788l-7.916.003c-.796 0-1.521-.44-1.619-.983l-.513-2.828c-.099-.543.418-.984 1.155-.985l7.328-.005c.737 0 1.488.44 1.677.984l.986 2.828c.188.545-.303.986-1.098.986ZM236.42 254.782l-7.917.003c-.796 0-1.618-.44-1.837-.984l-1.139-2.829c-.219-.544.201-.985.937-.985l7.328-.005c.737 0 1.585.44 1.895.984l1.612 2.83c.311.545-.083.986-.879.986ZM250.716 254.777l-7.917.003c-.796 0-1.716-.441-2.055-.985l-1.765-2.83c-.339-.544-.017-.985.719-.986l7.329-.005c.737 0 1.683.44 2.113.985l2.238 2.831c.429.545.133.986-.662.987ZM265.008 254.771l-7.918.003c-.796 0-1.814-.441-2.273-.985l-2.391-2.832c-.46-.544-.235-.986.501-.986l7.329-.004c.737-.001 1.781.441 2.331.985l2.864 2.833c.552.544.353.986-.443.986ZM279.298 254.765l-7.918.003c-.796 0-1.911-.441-2.491-.986l-3.017-2.833c-.58-.544-.453-.986.284-.987l7.329-.004c.737 0 1.878.441 2.549.986l3.491 2.834c.671.545.569.987-.227.987ZM114.691 261.367l-8.719.001c-.876 0-.988-.439-.248-.98l3.846-2.818c.739-.541 2-.98 2.817-.981l8.13-.003c.817 0 .954.439.306.98l-3.373 2.819c-.647.543-1.882.982-2.759.982ZM130.432 261.364l-8.719.002c-.876 0-1.085-.439-.466-.981l3.22-2.819c.619-.542 1.783-.981 2.6-.981l8.13-.003c.817 0 1.052.439.524.981l-2.747 2.82c-.528.542-1.666.981-2.542.981ZM146.174 261.362l-8.719.001c-.876 0-1.183-.439-.684-.981l2.594-2.82c.498-.542 1.565-.982 2.382-.982l8.131-.003c.817 0 1.149.439.742.981l-2.121 2.822c-.408.542-1.448.982-2.325.982ZM161.911 261.359l-8.719.001c-.876 0-1.28-.439-.902-.982l1.967-2.822c.378-.542 1.347-.982 2.164-.982l8.132-.003c.817 0 1.247.44.96.982l-1.495 2.823c-.288.543-1.231.983-2.107.983ZM177.654 261.357l-8.72.001c-.876 0-1.378-.44-1.12-.982l1.341-2.823c.258-.543 1.129-.983 1.946-.983l8.132-.003c.817 0 1.345.44 1.178.983l-.869 2.824c-.167.542-1.012.982-1.888.983ZM193.398 261.354l-8.72.001c-.877 0-1.476-.44-1.338-.983l.715-2.824c.137-.543.911-.983 1.728-.983l8.132-.003c.817 0 1.442.44 1.396.983l-.242 2.826c-.047.543-.795.983-1.671.983ZM209.137 261.351l-8.721.002c-.877 0-1.573-.44-1.556-.984l.089-2.826c.017-.543.693-.983 1.511-.984l8.132-.003c.818 0 1.54.44 1.614.984l.384 2.827c.074.544-.576.984-1.453.984ZM224.884 261.349l-8.721.001c-.877 0-1.671-.44-1.774-.984l-.537-2.828c-.103-.543.476-.984 1.293-.984l8.133-.003c.818 0 1.638.44 1.832.984l1.01 2.829c.193.544-.36.985-1.236.985ZM240.626 261.346l-8.721.001c-.877 0-1.769-.441-1.992-.984l-1.163-2.829c-.224-.544.258-.984 1.075-.985l8.133-.003c.818 0 1.735.441 2.05.984l1.636 2.83c.314.545-.142.986-1.018.986ZM256.371 261.344l-8.722.001c-.877 0-1.866-.441-2.21-.985l-1.789-2.83c-.344-.544.04-.985.857-.985l8.133-.003c.818 0 1.833.441 2.268.985l2.263 2.832c.434.543.076.985-.8.985ZM272.116 261.341l-8.722.002c-.877 0-1.964-.441-2.428-.985l-2.416-2.832c-.464-.544-.178-.986.639-.986l8.134-.003c.818 0 1.931.441 2.486.985l2.889 2.833c.555.544.294.986-.582.986ZM287.859 261.339l-8.722.001c-.877 0-2.062-.441-2.646-.986l-3.042-2.833c-.585-.544-.396-.986.422-.986l8.134-.003c.818 0 2.028.441 2.704.986l3.515 2.834c.674.545.511.986-.365.987ZM231.234 269.25l-70.938-.006c-3.113 0-5.098-.914-4.434-2.042.664-1.128 3.595-2.042 6.546-2.042l67.265-.003c2.952 0 5.76.916 6.272 2.046.511 1.131-1.598 2.047-4.711 2.047Z" />
   <path fill="#4984C7" d="M196.861 133.857a1.087 1.087 0 1 1-2.173 0 1.087 1.087 0 0 1 2.173 0Z" />
   <path fill="#1F222D"
      d="M148.842 208.629c-3.401 0-6.33-.803-8.787-2.409-2.457-1.607-4.346-3.819-5.669-6.638-1.323-2.819-1.984-6.04-1.984-9.662 0-3.685.677-6.936 2.031-9.755 1.37-2.835 3.276-5.048 5.717-6.638 2.456-1.606 5.322-2.41 8.598-2.41 2.551 0 4.85.473 6.897 1.418 2.048.945 3.725 2.267 5.032 3.968s2.118 3.685 2.433 5.953h-5.575c-.425-1.654-1.37-3.118-2.834-4.394-1.449-1.291-3.402-1.937-5.859-1.937-2.173 0-4.078.567-5.716 1.701-1.622 1.118-2.89 2.701-3.803 4.748-.898 2.032-1.347 4.417-1.347 7.157 0 2.804.441 5.245 1.323 7.323.898 2.079 2.158 3.693 3.78 4.843 1.637 1.149 3.559 1.724 5.763 1.724 1.449 0 2.764-.252 3.945-.756a8.138 8.138 0 0 0 3-2.173c.819-.945 1.402-2.079 1.748-3.402h5.575c-.315 2.142-1.095 4.071-2.339 5.788-1.228 1.701-2.858 3.055-4.889 4.063-2.016.992-4.363 1.488-7.04 1.488Zm22.417-.756V171.59h5.386v5.669h.473c.756-1.937 1.976-3.441 3.661-4.512 1.685-1.086 3.709-1.63 6.071-1.63 2.394 0 4.386.544 5.976 1.63 1.606 1.071 2.858 2.575 3.756 4.512h.378c.929-1.874 2.323-3.362 4.181-4.464 1.858-1.118 4.087-1.678 6.685-1.678 3.244 0 5.898 1.016 7.961 3.048 2.063 2.015 3.094 5.157 3.094 9.425v24.283h-5.575V183.59c0-2.677-.732-4.591-2.196-5.74-1.465-1.15-3.189-1.725-5.174-1.725-2.551 0-4.527.772-5.929 2.315-1.401 1.528-2.102 3.465-2.102 5.811v23.622h-5.669v-24.85c0-2.063-.67-3.725-2.008-4.984-1.339-1.276-3.063-1.914-5.173-1.914a7.637 7.637 0 0 0-4.063 1.158c-1.244.771-2.252 1.842-3.024 3.212-.756 1.355-1.134 2.922-1.134 4.701v22.677h-5.575Zm83.515-28.157-5.007 1.417a9.297 9.297 0 0 0-1.394-2.433c-.598-.803-1.417-1.464-2.457-1.984-1.039-.52-2.37-.78-3.992-.78-2.22 0-4.071.512-5.551 1.536-1.464 1.008-2.197 2.291-2.197 3.85 0 1.386.504 2.48 1.512 3.284 1.008.803 2.583 1.472 4.724 2.007l5.386 1.323c3.244.788 5.662 1.992 7.252 3.614 1.591 1.607 2.386 3.677 2.386 6.213 0 2.079-.599 3.937-1.795 5.575-1.181 1.637-2.835 2.929-4.961 3.874-2.126.945-4.598 1.417-7.417 1.417-3.701 0-6.764-.803-9.189-2.409-2.425-1.607-3.961-3.953-4.606-7.04l5.291-1.323c.504 1.953 1.457 3.418 2.858 4.394 1.417.976 3.268 1.465 5.551 1.465 2.599 0 4.662-.552 6.189-1.654 1.544-1.118 2.315-2.457 2.315-4.016 0-1.259-.441-2.315-1.323-3.165-.882-.866-2.236-1.512-4.063-1.937l-6.047-1.417c-3.323-.788-5.764-2.008-7.323-3.662-1.543-1.669-2.315-3.756-2.315-6.259 0-2.048.575-3.859 1.725-5.433 1.165-1.575 2.748-2.811 4.748-3.709 2.016-.898 4.299-1.347 6.85-1.347 3.591 0 6.41.788 8.457 2.363 2.063 1.574 3.527 3.653 4.393 6.236Z" />
   <path fill="#D75947"
      d="M57.083 144.367c2.46-10.417-3.99-20.855-14.408-23.315-10.417-2.46-20.855 3.991-23.315 14.408-2.46 10.417 3.99 20.855 14.408 23.315 10.417 2.46 20.855-3.991 23.315-14.408Z" />
   <path fill="#fff"
      d="M26.152 140.978v-.935l7.528-3.834v1.496l-5.774 2.782.046-.093v.234l-.047-.094 5.775 2.782v1.496l-7.528-3.834Zm14.684-8.323-3.858 14.332h-1.263l3.858-14.332h1.263Zm9.56 8.323-7.528 3.834v-1.496l5.774-2.782-.046.094v-.234l.047.093-5.775-2.782v-1.496l7.528 3.834v.935ZM176.112 50.434h-58.648a2.566 2.566 0 0 1-2.566-2.566V10.994h63.781v36.874a2.566 2.566 0 0 1-2.567 2.566Z" />
   <path fill="#65B8EF" d="M178.678 10.993h-63.78v3.83h63.78v-3.83Z" />
   <path fill="#65B8EF"
      d="M151.614 45.655c7.015-2.935 10.323-11 7.388-18.016-2.934-7.015-11-10.322-18.015-7.388-7.015 2.934-10.323 11-7.388 18.015 2.934 7.015 11 10.323 18.015 7.389Z"
      opacity=".6" />
   <path fill="#fff"
      d="M141.805 28.51v8.888a1.536 1.536 0 0 0 2.306 1.33l8.264-4.782c1.061-.614 1.012-2.161-.086-2.706l-8.264-4.107a1.537 1.537 0 0 0-2.22 1.377ZM116.996 13.982a1.074 1.074 0 1 0 0-2.148 1.074 1.074 0 0 0 0 2.148ZM121.507 12.908a1.074 1.074 0 1 1-2.148 0 1.074 1.074 0 0 1 2.148 0ZM123.863 13.982a1.074 1.074 0 1 0 0-2.148 1.074 1.074 0 0 0 0 2.148Z" />
</svg>