<svg xmlns="http://www.w3.org/2000/svg" width="454" height="343" fill="none">
   <path fill="#CDF2FA"
      d="M239.733 334.449c-14.332-4.843-26.62-14.813-52.148-22.116-16.254-4.649-86.323 24.087-131.666-49.434-4.76-7.721-8.522-16.336-10.92-24.661C6.4 104.076 160.32-5.378 297.32 35.83c36.563 10.998 129.032 57.798 120.592 175.113-5.823 80.956-82.015 155.994-178.179 123.506Z" />
   <path fill="#fff"
      d="M126.648 143.567H66.383V257.42h60.265V143.567ZM126.648 24.93H66.383v113.853h60.265V24.93ZM191.696 143.567h-60.264V257.42h60.264V143.567ZM191.696 24.93h-60.264v113.853h60.264V24.93ZM256.745 143.567H196.48V257.42h60.265V143.567ZM256.745 24.93H196.48v113.853h60.265V24.93Z" />
   <path fill="#38A3C6"
      d="M172.696 287.366h-41.244c.003-.013.003-.026.006-.04 1.467-7.464 4.913-10.269 6.518-11.41 6.713-4.761 15.855-1.764 18.255-.979 7.979 2.614 13.379 8.295 16.465 12.429ZM310.735 287.365H177.819c-6.102-9.254-12.571-18.67-19.629-32.639-2.051-4.055-4.155-9.94-2.958-16.95 1.078-6.317 4.632-10.754 6.522-12.386 11.278-9.769 34.696-15.453 59.647-17.566 19.182-1.626 29.877-1.319 45.752 0 24.954 2.074 48.369 7.8 59.648 17.566 1.886 1.635 5.44 6.069 6.518 12.386 1.197 7.01-.91 12.898-2.957 16.95-7.059 13.969-13.524 23.385-19.627 32.639ZM315.859 287.366c3.086-4.131 8.487-9.812 16.462-12.426 2.4-.788 11.542-3.785 18.255.979 1.609 1.14 5.054 3.943 6.518 11.41.003.014.003.027.007.04h-41.242v-.003Z" />
   <path fill="#290708"
      d="M232.964 97.031c13.992-1.062 24.869 8.75 44.007 26.524 8.487 7.879 14.612 11.341 18.387 17.483 3.554 5.783 10.537 20.692 7.234 36.774-3.472 16.904-18.654 32.327-35.268 33.761-28.501 2.456-49.859-37.562-53.654-46.421-7.233-16.893-10.247-42.801 4.52-62.698 4.395-5.914 12.45-5.248 14.774-5.423Z" />
   <path fill="#CDF2FA"
      d="M225.572 135.374c0 4.336-1.902 12.941-3.514 14.183-1.955 1.51-4.873.861-5.351.676-2.845-1.094-4.988-6.653-4.988-14.859s2.004-14.249 4.988-14.859c.287-.059 4.213-1.058 5.793 1.045 2.575 3.432 3.072 8.981 3.072 13.814Z" />
   <path fill="#2B83A1"
      d="M220.677 150.24c2.755 0 4.988-6.653 4.988-14.86 0-8.206-2.233-14.859-4.988-14.859-2.755 0-4.989 6.653-4.989 14.859 0 8.207 2.234 14.86 4.989 14.86Z" />
   <path fill="#EC7D40"
      d="M205.89 171.7c-5.232-1.059-17.823 15.977-18.991 22.003-2.561 13.257-1.384 15.918-3.013 25.621-1.243 7.401-3.801 10.418-8.598 30.763-1.741 7.382-2.269 20.362.834 22.944 1.49 1.239 7.382 1.737 11.453.603 8.559-2.384 25.021-41.241 21.028-78.421-.666-6.195 4.675-22.02-2.713-23.513ZM292.701 265.141c-4.85-3.079-8.275-16.389-12.96-47.021-1.51-9.877-2.094-14.275-1.207-20.497.416-2.901 1.975-14.664 8.74-16.88 4.438-1.454 9.074.94 9.947 1.507 9.907 6.409 10.656 20.431 10.55 47.927-.082 21.668-.603 35.093-4.22 36.774-4.526 2.103-10.171-1.378-10.85-1.81Z" />
   <path fill="#00B8C7"
      d="M198.142 236.095c-5.763-.415-11.944-2.571-17.51-6.106 1.322-4.668 1.929-6.363 2.651-10.665 1.632-9.703.366-12.38 3.013-25.621 2.865-14.318 13.096-23.982 27.431-24.413 13.31-.403 22.491-7.676 39.675-4.059 6.726 1.418 18.268 8.615 30.642 11.787 7.24 1.856 12.076 2.406 15.07 5.535 3.198 3.343 6.92 8.476 6.61 12.934 1.899 7.965 2.107 19.089 2.048 34.39-.01 2.433-.023 4.764-.05 6.986-.234.139-.468.274-.705.399-6.604 3.502-15.76 2.727-24.253-1.183a486.315 486.315 0 0 1-1.378-7.896 391.515 391.515 0 0 0-.821 4.938c-1.566 13.917 3.868 22.795 8.335 32.732 5.391 11.991 10.679 16.91 6.037 20.84-9.828 8.318-21.17 4.929-52.266 2.565-21.236-1.612-38.212 1.546-32.986-9.545 9.314-19.774-4.517-31.495-11.543-43.618Z" />
   <path fill="#38A3C6"
      d="M200.615 240.424c-.616-2.265-1.335-4.474-1.899-6.679-.567-2.206-.982-4.399-1.078-6.578-.096-2.182.059-4.352.59-6.439.498-2.1 1.365-4.137 2.222-6.323.861-2.173 1.626-4.58 1.794-7.069a22.886 22.886 0 0 0-.059-3.679c-.129-1.21-.333-2.4-.633-3.564a29.535 29.535 0 0 0-2.582-6.634 30.787 30.787 0 0 0-1.83-3.013 27.246 27.246 0 0 0-2.153-2.759 45.865 45.865 0 0 1 1.593 3.082c.244.521.475 1.045.689 1.579.221.528.432 1.062.623 1.596a33.863 33.863 0 0 1 1.714 6.544c.165 1.105.274 2.213.294 3.311.01.55.003 1.097-.023 1.641a16.188 16.188 0 0 1-.178 1.609c-.159 1.062-.442 2.101-.778 3.136a45.667 45.667 0 0 1-1.207 3.112 84.199 84.199 0 0 0-1.332 3.254 26.845 26.845 0 0 0-1.058 3.505 20.954 20.954 0 0 0-.297 7.358c.33 2.434 1.091 4.755 2.077 6.908.996 2.149 2.186 4.167 3.511 6.102ZM291.775 195.936c-1.57.909-2.931 2.235-4.013 3.738-1.101 1.5-1.928 3.178-2.624 4.886-1.368 3.436-2.153 7.019-2.753 10.587-.587 3.574-.963 7.157-1.243 10.741-.27 3.587-.465 7.171-.478 10.798 1.009-3.482 1.721-7.02 2.361-10.557.633-3.538 1.17-7.079 1.74-10.59.584-3.508 1.187-6.999 2.16-10.362.491-1.678 1.062-3.333 1.846-4.89.376-.791.834-1.533 1.319-2.271.254-.359.511-.725.801-1.062.264-.366.587-.672.884-1.018Z" />
   <path fill="#EC7D40"
      d="M232.687 152.607c-.834 2.8 2.249 20.306 2.845 21.754 1.955 4.734 7.943 8.588 13.821 8.413 8.163-.24 11.391-6.294 11.177-12.215-.287-7.972-.587-15.205.708-31.027.35-4.243-26.939 7.675-28.551 13.075Z" />
   <path fill="#D66730"
      d="M243.537 143.699c3.033-1.108 3.102-2.634 7.098-1.15 2.826 1.051 4.992 3.784 6.558 7.309-1.009 4.655-3.745 9.877-6.772 13.451-2.011 2.377-5.13 6.063-10.435 6.69-1.605.188-3.412.095-5.15-.307-1.249-5.397-3.125-15.007-2.505-17.088 1.612-5.397 8.321-7.85 11.206-8.905Z" />
   <path fill="#F79556"
      d="M268.182 118.283c.148-7.31-3.432-12.812-4.731-14.754-6.205-9.264-12.881-11.674-15.361-12.248-8.611-1.998-15.983-1.843-22.827 3.34-12.496 9.465-10.518 30.305-9.604 36.747.88 6.205 4.8 24.895 15.172 32.851 1.79 1.371 4.026 2.904 7.748 2.782 5.216-.171 10.046-3.979 11.783-5.845 6.027-6.472 7.468-11.226 9.696-23.108 2.278-12.133 7.972-12.453 8.124-19.765ZM292.398 215.104c-1.579 10.369-2.717 10.511-4.22 22.304-1.032 8.087-.284 13.3 1.507 18.687 1.183 3.564 1.552 7.467 6.026 9.947.719.395 4.217 2.904 9.344.903.679-.264 7.233-5.124 9.343-18.99 1.151-7.56.683-27.16-3.316-43.708-4.992-20.668-4.178-17.338-6.03-23.51-1.81-6.03-2.41-16.577-9.044-18.087-2.222-.504-4.55 1.269-5.727 3.013-1.549 2.292.198 4.919.904 9.044 2.871 16.735 2.845 29.679 1.213 40.397Z" />
   <path fill="#38A3C6"
      d="M230.769 174.68c.435 2.496 1.427 4.886 2.776 7.095.675 1.108 1.51 2.12 2.403 3.086.478.452.933.933 1.464 1.335.257.208.511.425.778.623l.824.564c1.111.732 2.282 1.404 3.531 1.929a11.68 11.68 0 0 0 3.943.893c1.349.066 2.7-.066 3.99-.386 1.289-.323 2.535-.817 3.626-1.579l-.082-.29c-2.595-.142-4.929-.307-7.191-.752a75.466 75.466 0 0 1-3.34-.728c-1.111-.264-2.218-.637-3.247-1.174-2.061-1.065-3.927-2.575-5.473-4.415-1.573-1.823-2.822-3.972-3.709-6.28l-.293.079Z" />
   <path fill="#DC2947"
      d="M242.241 155.848a.348.348 0 0 0-.28-.527 44.717 44.717 0 0 0-6.953.135c-2.124.214-4.115.765-4.943 1.012a.35.35 0 0 0-.197.514c.587 1.019 2.489 3.666 6.27 3.248 3.406-.383 5.417-3.228 6.103-4.382Z" />
   <path fill="#290708"
      d="M226.093 129.011c-.303-.778-.794-1.421-1.361-1.978a7.755 7.755 0 0 0-1.939-1.398c-1.441-.761-3.168-.765-4.744-.603-.399.046-.795.079-1.18.171l-.581.119c-.201.053-.412.122-.616.185-.801.303-1.49.761-2.084 1.272-1.177 1.042 1.982.574 2.575.488l.442-.049.494-.013c.327-.024.656.009.98.026.323.016.642.092.959.148.313.096.623.162.926.28.61.195 1.204.396 1.837.541l1.948.501c.676.178 1.372.363 2.166.525l.178-.215ZM253.405 124.864c-1.296-.966-2.799-1.656-4.395-2.147a12.9 12.9 0 0 0-5.067-.438c-.435.036-.864.128-1.306.178-.432.082-.867.181-1.305.283a6.525 6.525 0 0 0-2.361 1.223c-1.368 1.135-2.423 2.658-2.664 4.465l.254.184c1.615-.735 2.862-1.431 4.128-2.024.626-.3 1.216-.62 1.813-.973.303-.161.61-.336.923-.494.323-.132.65-.284.989-.376.679-.191 1.385-.356 2.11-.412a11.748 11.748 0 0 1 2.216-.069c1.507.046 3.023.375 4.51.876l.155-.276Z" />
   <path fill="#E6E6E6"
      d="M247.866 132.961c-.016.415-1.315 1.605-5.047 1.447-1.659-.069-3.3-.557-3.264-1.385.033-.794 1.157-2.205 2.594-2.383 2.506-.31 5.754 1.49 5.717 2.321Z" />
   <path fill="#290708" d="M245.017 131.906c-.854-2.193-4.764-1.451-3.996 1.513.772 2.967 5.368 2.008 3.996-1.513Z" />
   <path fill="#290708"
      d="M239.156 133.633c.442-.428.864-.774 1.306-.975a3.303 3.303 0 0 1 1.318-.31c.9-.043 1.896.145 2.941.333 1.049.191 2.153.405 3.347.455.596.019 1.219.003 1.852-.159.314-.075.637-.207.914-.395.28-.195.497-.468.59-.759a1.81 1.81 0 0 1-.798.165 3.73 3.73 0 0 1-.745-.125c-.491-.125-.986-.303-1.497-.481-1.022-.356-2.094-.719-3.257-.93-1.158-.198-2.453-.3-3.759.168-.639.237-1.256.659-1.648 1.213a3.01 3.01 0 0 0-.564 1.8Z" />
   <path fill="#E6E6E6"
      d="M224.986 134.83c-.033.403-1.302 1.507-4.804 1.21-1.556-.132-2.255-.87-2.186-1.675.066-.768.36-1.889 1.715-2.004 2.37-.204 5.344 1.665 5.275 2.469Z" />
   <path fill="#290708" d="M222.183 133.854c-.692-2.027-4.279-1.503-3.693 1.224.584 2.733 4.804 2.034 3.693-1.224Z" />
   <path fill="#290708"
      d="M217.093 134.655c.468-.237.871-.474 1.273-.626a3.35 3.35 0 0 1 1.108-.247c.669-.027 1.328.181 2.12.471.781.287 1.641.656 2.657.861.508.092 1.065.151 1.632.029.564-.118 1.098-.461 1.325-.933a2.323 2.323 0 0 1-1.295-.138c-.363-.145-.713-.353-1.079-.571-.731-.435-1.523-.939-2.489-1.295-.484-.172-1.012-.317-1.589-.353-.57-.04-1.197.039-1.751.287a3.287 3.287 0 0 0-1.325 1.071 3.51 3.51 0 0 0-.587 1.444Z" />
   <path fill="#F79556"
      d="M257.833 144.203c.359.597 1.655 2.767 3.316 2.714 1.771-.056 2.898-2.598 4.824-6.934 1.826-4.118 1.727-5.641 1.506-6.63-.141-.63-.557-2.496-2.11-3.316-1.971-1.039-4.388.342-4.823.603-4.009 2.41-5.245 9.333-2.713 13.563Z" />
   <path fill="#D66730"
      d="M288.788 148.143c-.828-3.115-2.615-5.423-3.37-8.559-.049-.204-.171-.969-.811-1.457-1.546-1.174-4.797-1.526-8.361-3.356-.386-.198-2.69-1.705-3.294-1.345-.534.316-1.045 1.084-.916 1.783.076.409.02 1.916 1.872 3.076 3.08 1.929 6.667 2.806 7.119 3.241.705.673.168 3.037.178 3.973.085 7.461 4.124 8.773 3.775 12.024-.073.656-.373 1.698-1.154 2.041-1.052.461-1.942.145-5.282-1.256-.57-.241-7.606-3.142-9.007-1.088-.498.728.089 1.988.857 2.449.636.386 2.888 1.583 5.09 2.509 3.165 1.336 3.831 1.57 5.091 2.509 1.276.953.986.534 2.334 2.133 2.031 2.41 4.543 3.419 5.902 3.967 2.291.919 5.637.804 7.19-.571 1.49-1.319.623-3.04-.56-6.943-2.549-8.404-4.863-8.391-6.653-15.13Z" />
   <path fill="#290708"
      d="M283.898 138.414c-6.927-3.406-14.055-6.238-20.19-7.922-25.773-7.089-35.152-24.477-35.152-24.477s-24.378 27.335-17.345 48.755c2.528 7.702 5.69 11.048 5.819 12.891-.792-.006-1.609.3-2.457.205-.145-.017.419-.03.271-.043-2.499-3.772-6.884-13.053-6.884-13.053-3.073-8.855-1.856-16.514.583-31.835.986-6.182 2.262-15.809 8.892-25.604 5.424-8.008 12.66-8.592 15.453-8.315 1.124.327 1.022.508 1.223.426 15.103-6.06 29.633-1.57 39.247 20.408 6.04 13.81 18.884 21.865 23.747 31.291 5.932 11.503 5.783 19.188 5.48 20.394-.148.63-3.871-15.835-18.687-23.121Z" />
   <path fill="#290708"
      d="M236.39 89.263c4.646-1.028 9.426-1.17 13.949-.21 1.128.247 2.246.537 3.33.913 1.085.379 2.147.808 3.175 1.305 2.067.976 3.983 2.236 5.727 3.69 3.515 2.891 6.274 6.617 8.371 10.672.257.511.501 1.032.752 1.546.267.541.524 1.111.811 1.648.554 1.098 1.177 2.157 1.81 3.205 1.295 2.08 2.743 4.049 4.279 5.925 3.083 3.748 6.531 7.098 9.881 10.425 1.671 1.668 3.327 3.326 4.82 5.097 1.5 1.747 2.786 3.679 3.927 5.703a36.545 36.545 0 0 1 2.812 6.36 37.079 37.079 0 0 1 1.599 6.805c.636 4.645.442 9.416-.326 14.104 1.203-4.596 1.767-9.409 1.414-14.22a38.44 38.44 0 0 0-1.23-7.134 38.017 38.017 0 0 0-2.624-6.785 42.01 42.01 0 0 0-1.771-3.188 50.068 50.068 0 0 0-.989-1.543 42.829 42.829 0 0 0-1.068-1.49c-1.47-1.942-3.059-3.759-4.675-5.519-3.234-3.515-6.531-6.875-9.432-10.511a70.989 70.989 0 0 1-2.107-2.766 58.367 58.367 0 0 1-1.922-2.872c-.6-.979-1.19-1.965-1.711-2.987-.274-.508-.508-1.019-.772-1.543-.28-.547-.547-1.101-.834-1.645a36.743 36.743 0 0 0-4.095-6.152c-1.569-1.909-3.353-3.66-5.337-5.143-1.989-1.48-4.148-2.727-6.436-3.653-2.278-.953-4.692-1.527-7.108-1.853-1.213-.142-2.43-.23-3.647-.211-1.213.01-2.423.079-3.62.237a31.254 31.254 0 0 0-3.541.683l-.867.234c-.286.082-.57.181-.857.27-.577.172-1.131.4-1.688.603Z" />
   <path fill="#282444"
      d="M257.523 280.426h-107.47v-5.061h105.06c.735 0 3.297 3.392 3.297 3.392.567.656.082 1.655-.864 1.669h-.023Z" />
   <path fill="#FFED00"
      d="M186.566 280.877H98.439a8.3 8.3 0 0 1-7.991-6.053l-20.807-73.97c-.693-2.459 1.157-4.899 3.712-4.899h89.126a8.375 8.375 0 0 1 8.061 6.106l20.507 72.905c.83 2.967-1.398 5.911-4.481 5.911Z" />
   <path fill="#282444"
      d="M186.54 280.877H98.116a8.208 8.208 0 0 1-7.902-5.987l-20.679-73.515a2.722 2.722 0 0 1 2.621-3.458h88.424a8.209 8.209 0 0 1 7.903 5.987l20.678 73.515a2.722 2.722 0 0 1-2.621 3.458Z" />
   <path fill="#00B8C7"
      d="M30.549 292.878h387.395a6.165 6.165 0 1 0 0-12.331H30.549a6.165 6.165 0 0 0-6.165 6.166 6.165 6.165 0 0 0 6.165 6.165Z" />
   <path fill="#2B83A1"
      d="M259.937 136.034c0 13.425-7.992 25.492-17.665 25.492-.64 0-1.273-.053-1.899-.146 0-.023.006-.049.006-.072 0-1.335-1.76-2.42-3.933-2.42s-3.933 1.085-3.933 2.42 1.76 2.42 3.933 2.42c1.408 0 2.637-.458 3.333-1.141 1.016.267 2.153.369 3.459.369 11.005 0 20.322-11.348 20.322-26.349l-3.623-.573ZM223.222 91.443l.125-.112c.567-.505 3.732-3.185 11.012-3.251 18.149-.168 31.611 15.393 31.611 35.752l-3.878.774c0-18.218-13.781-34.964-29.286-35.161-5.687-.073-8.444 1.216-9.584 2.008v-.01Z" />
   <path fill="#CDF2FA"
      d="M271.317 135.374c0 4.336-1.902 12.941-3.514 14.183-1.956 1.51-4.873.861-5.351.676-2.846-1.094-4.989-6.653-4.989-14.859s2.005-14.249 4.989-14.859c.283-.059 4.213-1.058 5.792 1.045 2.575 3.432 3.073 8.981 3.073 13.814Z" />
   <path fill="#2B83A1"
      d="M266.421 150.24c2.755 0 4.988-6.653 4.988-14.86 0-8.206-2.233-14.859-4.988-14.859-2.755 0-4.988 6.653-4.988 14.859 0 8.207 2.233 14.86 4.988 14.86Z" />
   <path fill="#FFED00"
      d="M266.731 148.324c2.338 0 4.234-5.795 4.234-12.943 0-7.149-1.896-12.944-4.234-12.944s-4.233 5.795-4.233 12.944c0 7.148 1.895 12.943 4.233 12.943Z" />
   <path fill="#F79556"
      d="M274.298 151.463c-.406-.056-1.016-.145-1.804 0-.791.145-1.262.438-2.317 1.029-2.572 1.44-2.351 1.147-2.832 1.546-1.243 1.019-.98 1.54-2.318 2.575-.637.491-2.321 1.371-4.121.257-.647-.399-.3-1.358-.258-1.546.126-.564.416-.739 1.547-2.061.84-.982 1.134-1.414 1.028-1.546-.066-.083-1.546.257-1.546-1.029 0-.61.412-1.111 1.029-1.803 2.153-2.41 2.354-3.089 3.86-4.121.215-.145.851-.64 2.318-1.029 3.861-1.029 5.974-2.558 7.725-2.061 1.803.515 12.861 3.94 13.646 4.379 1.309.732 1.846 2.057 2.06 2.575 2.124 5.159 6.347 12.937 7.211 14.417.448.768 1.546 7.21-2.575 8.496-3.096.966-5.839-.794-6.179-1.028-1.275-.881-1.879-1.962-3.089-4.118-2.126-3.798-2.149-5.872-3.86-6.693a18.544 18.544 0 0 0-2.833-1.029c-.55-.155-.827-.23-1.028-.257-2.077-.267-5.071.653-5.407.772-.472.168-1.823 1.638-5.921 3.86-.531.29-2.832 1.547-3.861.515-.458-.459-.267-1.25-.257-1.286.224-.92 1.206-1.319 2.06-1.804 2.437-1.384 2.031-2.433 4.893-4.378.923-.626 1.695-1.091 2.832-1.546 3.861-1.546 6.436-.257 6.693-1.286.198-.788-2.628-1.253-6.696-1.8Z" />
   <path fill="#D66730"
      d="M283.568 147.86a77.62 77.62 0 0 0-5.294-1.764 73.845 73.845 0 0 0-2.687-.755 14.202 14.202 0 0 0-1.398-.31 4.68 4.68 0 0 0-1.53.016 3.162 3.162 0 0 0-.758.248c-.221.102-.436.207-.647.316-.418.218-.83.439-1.236.669-.808.468-1.612.93-2.403 1.411l-1.194.703c-.452.267-.791.613-1.111.962-.626.709-1.161 1.454-1.823 2.11.791-.501 1.447-1.196 2.136-1.796.34-.3.696-.584 1.068-.752.432-.191.844-.406 1.263-.61.838-.412 1.649-.857 2.473-1.279.409-.211.817-.429 1.226-.633.205-.102.409-.198.61-.287.211-.089.346-.139.564-.175a3.813 3.813 0 0 1 1.24-.03c.415.057.877.175 1.322.268l2.71.606c1.81.399 3.626.785 5.469 1.082Z" />
   <path fill="#00B8C7"
      d="M336.639 176.651v-7.18l11.117-7.395c3.281-2.186 5.506-4.138 6.61-5.793 1.082-1.622 1.629-3.109 1.629-4.425 0-1.585-.508-2.878-1.553-3.956-1.042-1.071-2.364-1.592-4.045-1.592-3.696 0-5.766 2.228-6.33 6.818l-.089.722-7.415-1.846.086-.577c.484-3.274 1.958-6.113 4.375-8.441 2.436-2.347 5.661-3.534 9.581-3.534 4.055 0 7.352 1.18 9.798 3.508 2.453 2.338 3.699 5.338 3.699 8.925 0 3.168-1.098 6.037-3.267 8.519-1.955 2.239-6.37 5.335-13.475 9.439h16.637v6.808h-27.358ZM381.54 176.741v-8.031h-15.7v-5.506l16.003-23.844h7.544v22.621h5.311v6.729h-5.311v8.031h-7.847Zm0-14.76v-9.123c0-1.058.053-2.028.161-2.878l.063-.693-7.975 12.694h7.751ZM390.9 188.188l23.036-60.275h6.429l-23.177 60.275H390.9ZM425.767 176.378l.036-.679c.584-11.071 4.712-20.893 12.271-29.221h-19.465l.673-6.755h26.336v5.37l-.135.175c-4.29 5.565-7.171 10.448-8.569 14.507-1.398 4.068-2.255 9.445-2.545 15.986l-.027.617h-8.575Z" />
   <path fill="#00B8C7"
      d="M439.849 180.308c-10.53 30.516-43.925 46.777-74.441 36.247-30.516-10.531-46.777-43.925-36.246-74.442 10.302-29.86 42.497-46.064 72.469-36.882l-4.2 12.168 36.316-8.413-23.386-29.056-4.14 12a72.114 72.114 0 0 0-26.61-3.178 72.363 72.363 0 0 0-26.886 7.178 72.377 72.377 0 0 0-22.232 16.738c-6.501 7.231-11.42 15.592-14.615 24.856-3.195 9.261-4.484 18.878-3.824 28.578a72.37 72.37 0 0 0 7.177 26.886 72.358 72.358 0 0 0 16.739 22.231c7.23 6.502 15.591 11.421 24.855 14.616 9.261 3.194 18.878 4.483 28.578 3.824a72.37 72.37 0 0 0 26.886-7.177 72.362 72.362 0 0 0 22.232-16.739c6.501-7.23 11.42-15.591 14.615-24.855l-13.287-4.58Z" />
   <path fill="#FFED00"
      d="M368.408 254.789c-.976-1.81-2.624-2.971-4.771-3.36-1.437-.26-2.641-.145-3.626.138a91.18 91.18 0 0 0 .019-3.808.353.353 0 0 0-.352-.346h-26.389a.355.355 0 0 0-.353.346c-.204 13.465 2.621 27.016 5.015 31.664a.692.692 0 0 0 .616.376h15.839c.26 0 .498-.145.616-.376.699-1.358 1.435-3.478 2.124-6.132 3.326-1.203 8.934-4.711 11.453-10.596.894-2.094 1.184-5.351-.191-7.906Zm-2.186 6.89c-1.797 4.197-5.568 7.075-8.354 8.496.952-4.503 1.727-10.019 2.031-15.802.771-.402 1.823-.666 3.277-.405 1.365.247 2.357.933 2.954 2.04.966 1.794.725 4.194.092 5.671Z" />
   <path fill="#00B8C7"
      d="M284.91 4.886h156.693c6.37 0 11.533 5.163 11.533 11.532v45.887c0 6.37-5.163 11.532-11.533 11.532H311.226l-13.151 12.018V73.837h-13.168c-6.37 0-11.533-5.163-11.533-11.532V16.418c.003-6.37 5.166-11.532 11.536-11.532Z" />
   <path fill="#fff"
      d="M349.114 54.989a2.539 2.539 0 1 0 0-5.078 2.539 2.539 0 0 0 0 5.078ZM359.642 54.989a2.538 2.538 0 1 0 0-5.077 2.538 2.538 0 0 0 0 5.077ZM370.172 54.989a2.539 2.539 0 1 0 0-5.078 2.539 2.539 0 0 0 0 5.078ZM372.585 30.565h-58.484a2.548 2.548 0 1 1 0-5.097h58.484a2.548 2.548 0 1 1 0 5.097ZM372.586 42.832h-85.078a2.548 2.548 0 0 1 0-5.097h85.078a2.548 2.548 0 0 1 2.548 2.549 2.544 2.544 0 0 1-2.548 2.548ZM339.072 55.015h-51.564a2.548 2.548 0 0 1 0-5.097h51.564a2.548 2.548 0 1 1 0 5.097ZM433.144 60.363c11.113-11.112 11.113-29.13 0-40.242-11.112-11.112-29.129-11.112-40.242 0-11.112 11.113-11.112 29.13 0 40.242 11.113 11.113 29.13 11.113 40.242 0Z" />
   <path fill="#1E1735"
      d="M416.15 17.166c7.58.65 15.575 9.475 17.642 17.767 1.53 6.139 2.222 17.312-6.475 23.22-8.232 5.592-20.451-1.454-25.828-9.953-.907-1.434-4.837-7.998-3.834-16.432.26-2.202 1.724-13.214 12.337-14.655.976-.132 2.611-.155 3.105.425.475.561.933-.553 3.053-.372Z" />
   <path fill="#FFED00"
      d="M439.545 69.28c-.695-3.432-1.919-6.129-2.941-8.05-3.583-6.736-10.243-7.755-12.683-7.824-6.742-.191-8.981-1.652-12.476-1.55-4.431.132-10.649.877-16.764 4.398-4.867 2.803-8.602 7.903-10.03 13.026h54.894Z" />
   <path fill="#fff" d="M403.085 42.094a1.09 1.09 0 1 1-2.183 0 1.09 1.09 0 1 1 2.183 0Z" />
   <path fill="#EC7D40"
      d="M405.343 45.744c-.231 1.272-.438 2.34-.432 5.489.017 8.697 5.068 8.443 7.53 8.061 2.364-.366 3.881-1.701 4.689-3.84.557-1.478 2.139-10.693-.445-13.413-2.928-3.09-10.175-2.786-11.342 3.703Z" />
   <path fill="#1E1735"
      d="M407.18 57.435c.184-.307.352-.62.478-.937.062-.158.115-.316.138-.468.027-.148.01-.287-.036-.346-.04-.053-.102-.082-.231-.109-.125-.023-.283-.026-.448-.023l-.534.023c-.195.004-.393.01-.66-.056a.986.986 0 0 1-.448-.25.8.8 0 0 1-.181-.274c-.02-.053-.037-.109-.053-.161a1.257 1.257 0 0 1-.013-.162c0-.208.059-.372.108-.485.053-.122.106-.21.155-.3.096-.168.178-.306.218-.418.043-.113.03-.169.013-.172 0-.01-.003.02.004.033.003.02.013.037.016.046.01.023.007.02-.023.007a2.145 2.145 0 0 0-.346-.096l-.518-.102c-.191-.043-.399-.086-.656-.201a1.619 1.619 0 0 1-.425-.27 1.275 1.275 0 0 1-.373-.594 1.428 1.428 0 0 1-.01-.695c.05-.198.119-.34.182-.459.118-.214.204-.376.174-.362-.016.01-.062.115-.043.257.004.033.01.066.02.095.01.03.017.06.03.086.036.056.049.092.086.122.023.017.016.023.029.03.007.006.02.016.023.02-.006.006.007.01-.006.01a5.559 5.559 0 0 1-.125-.02c-.122-.023-.291-.043-.518-.096a1.799 1.799 0 0 1-.195-.053c-.036-.013-.069-.02-.112-.036l-.142-.06-.072-.036c-.033-.016-.063-.036-.096-.056a.936.936 0 0 1-.092-.062l-.043-.033-.059-.053a1.415 1.415 0 0 1-.214-.25 1.328 1.328 0 0 1-.155-.37 1.255 1.255 0 0 1-.023-.405 1.46 1.46 0 0 1 .089-.34 1.8 1.8 0 0 1 .125-.227c.036-.05.076-.1.115-.146.139-.148.234-.217.317-.28l.178-.125c.026-.017.029-.023.049-.033.004 0 .02-.01.013.003.01.01-.019.07-.013.136 0 .062.02.148.063.204.039.056.066.053.039.01-.023-.04-.082-.112-.161-.211a1.835 1.835 0 0 1-.261-.406 1.33 1.33 0 0 1-.115-.573 1.358 1.358 0 0 1 .336-.835c.159-.187.327-.32.498-.438.346-.224.699-.38 1.075-.481l.115.155c-.197.326-.395.633-.544.93a1.765 1.765 0 0 0-.155.412.385.385 0 0 0-.006.148c.01.033.029.046.046.036.016-.01.026-.043.033-.06.006-.019.023-.012.072.014.05.03.126.076.228.161.102.086.244.221.356.442.115.221.158.492.135.732-.023.24-.115.475-.211.63-.049.092-.095.145-.148.218-.046.052-.099.118-.139.161a7.603 7.603 0 0 1-.224.23c-.056.054-.092.103-.072.09a.178.178 0 0 0 .033-.036.444.444 0 0 0 .059-.11.586.586 0 0 0 .056-.21.747.747 0 0 0-.013-.27.695.695 0 0 0-.102-.248.653.653 0 0 0-.122-.152c-.014-.01-.023-.02-.037-.03l-.016-.012a.153.153 0 0 0-.036-.027c-.014-.006-.027-.016-.04-.02-.013-.006-.007-.006-.013-.006-.007-.003-.01-.007-.017-.007 0 0 .01.004.017.004.006.003.039.01.066.016.118.03.31.066.534.129.112.033.241.075.386.141a1.72 1.72 0 0 1 .369.22c.046.038.082.06.135.113.185.182.353.445.402.762a1.35 1.35 0 0 1-.112.781c-.086.185-.165.28-.231.37-.066.085-.115.141-.151.184-.03.036-.043.053-.046.03a.36.36 0 0 0-.024-.165c-.023-.07-.075-.132-.098-.142-.024-.013-.014.007.016.027.063.046.205.102.356.155l.521.171c.191.07.402.142.65.297.121.079.26.188.382.353a1.137 1.137 0 0 1 .211.573c.026.356-.099.656-.218.86-.122.212-.253.363-.352.495a1.63 1.63 0 0 0-.119.162c-.033.046-.03.056-.04.026a.05.05 0 0 0-.01-.03.042.042 0 0 0-.013-.032.139.139 0 0 0-.043-.047c-.029-.02-.026 0 .014.017.075.043.24.076.402.095l.537.066c.191.03.393.06.61.142.109.043.224.1.333.188.109.09.201.218.247.353.093.28.033.518-.033.709a2.475 2.475 0 0 1-.267.524 6.486 6.486 0 0 1-.689.864l-.151-.1ZM430.232 30.69c.554.122 1.108.254 1.675.429.283.089.57.185.867.31.297.129.6.264.953.53.082.06.181.156.273.245.05.056.096.115.142.175a1.514 1.514 0 0 1 .3.801c.013.217-.026.425-.089.593a1.88 1.88 0 0 1-.442.67 3.36 3.36 0 0 1-.412.352c-.257.191-.491.34-.679.472-.092.062-.171.128-.208.158-.013.01-.023.02.004-.027a.557.557 0 0 0 .039-.323.575.575 0 0 0-.178-.336c-.053-.046-.082-.046-.066-.04a.8.8 0 0 0 .211.076c.208.053.472.096.749.149.283.056.573.099.949.244.099.043.198.085.317.165.112.072.25.184.362.356.06.085.102.188.135.293.027.105.04.218.04.326a1.731 1.731 0 0 1-.049.287 2.638 2.638 0 0 1-.089.215c-.132.234-.261.359-.373.478-.115.115-.214.2-.303.286a2.84 2.84 0 0 0-.188.195c-.004.007-.014.016-.014.016.004-.006 0-.01 0-.02a.133.133 0 0 0 .004-.062.15.15 0 0 0-.017-.086.238.238 0 0 0-.072-.108c-.017-.01-.01 0 .013.016.043.03.142.07.247.102.218.066.482.119.772.191.148.04.3.08.488.162.092.043.201.096.319.208.119.102.254.31.268.537a.838.838 0 0 1-.145.521 1.311 1.311 0 0 1-.218.247c-.139.125-.264.205-.386.287-.241.158-.465.29-.643.429-.089.069-.165.138-.207.19-.047.06-.047.073-.05.073.003 0-.003 0-.007.004.004.003.004.003.004.01.01.013.016.033.049.062.053.053.155.116.261.178.217.126.481.24.741.426.129.095.261.197.373.346.059.066.102.155.148.234.037.086.07.175.089.267.043.184.027.386-.026.56-.056.175-.142.31-.221.436-.168.244-.333.438-.442.646a1.167 1.167 0 0 0 .103 1.302c.151.204.342.412.504.643.162.234.29.485.386.758.085.287.056.584 0 .85-.119.541-.31 1.046-.472 1.567.116-.528.261-1.058.33-1.59.033-.263.03-.53-.063-.758a2.852 2.852 0 0 0-.408-.656c-.169-.2-.363-.375-.554-.593a1.535 1.535 0 0 1-.399-.821 1.62 1.62 0 0 1 .122-.92c.118-.287.287-.52.409-.738.056-.106.105-.211.121-.297a.49.49 0 0 0-.013-.244c-.049-.162-.181-.284-.372-.399-.195-.115-.439-.201-.703-.32-.135-.062-.276-.125-.431-.247a1.072 1.072 0 0 1-.228-.23 2.437 2.437 0 0 1-.095-.169 1.182 1.182 0 0 1-.053-.195c-.05-.27.053-.527.158-.692.109-.171.231-.293.346-.402.234-.214.465-.376.666-.538.099-.079.195-.158.251-.22a.216.216 0 0 0 .043-.06c0-.006-.037.043-.033.139a.29.29 0 0 0 .079.188c.02.02.006.01-.027 0a2.059 2.059 0 0 0-.293-.063c-.241-.04-.518-.066-.824-.132a2.26 2.26 0 0 1-.518-.165 1.209 1.209 0 0 1-.323-.21 1.044 1.044 0 0 1-.29-.446 1.327 1.327 0 0 1-.046-.287c0-.089.013-.178.029-.263.02-.073.047-.142.073-.208.026-.063.056-.109.086-.162.115-.19.227-.32.329-.435.099-.112.195-.21.264-.297a.756.756 0 0 0 .102-.141.15.15 0 0 0-.016.085c-.013.083.026.175.059.238.089.119.079.082.017.072a4.127 4.127 0 0 0-.64-.092c-.26-.026-.537-.04-.86-.092-.165-.03-.337-.06-.571-.152a1.372 1.372 0 0 1-.409-.254 1.141 1.141 0 0 1-.369-.686 1.221 1.221 0 0 1 .122-.712c.086-.168.165-.26.241-.352.148-.169.277-.28.399-.386.237-.201.448-.363.616-.511.083-.073.152-.145.191-.195.04-.05.037-.082.004-.006a.418.418 0 0 0-.033.194c0 .083.026.155.046.198.003.016.023.04.026.046 0 .007.007.013.01.02-.013 0-.01-.003-.039-.017a2.653 2.653 0 0 0-.495-.197 6.92 6.92 0 0 0-.686-.175 18.906 18.906 0 0 0-1.51-.244l.373-2.282Z" />
   <path fill="#F79556"
      d="M405.014 21.716a11.408 11.408 0 0 0-2.647 4.87c-.409 1.618.003 2.568-.436 5.452-1.605 10.616.792 14.56 3.564 17.537 1.919 2.06 3.69 2.16 4.425 2.057 4.22-.59 6.775-3.254 6.775-3.254 3.294-3.076 4.2-7.072 4.705-9.294.791-3.488.059-4.125 1.17-6.93 1.329-3.366 1.164-10.171-2.964-11.935-4.632-1.978-11.167-2.229-14.592 1.497Z" />
   <path fill="#1E1735"
      d="M408.257 34.422c-.6.126-1.19.004-1.717-.2a3.034 3.034 0 0 1-.722-.413c-.215-.165-.422-.336-.637-.471a4.658 4.658 0 0 0-.659-.37c-.112-.059-.228-.102-.346-.148a5.635 5.635 0 0 0-.356-.112c-.465-.125-.996-.06-1.497.125l-.05-.089c.439-.33.999-.557 1.609-.544.152.007.29.023.436.04.141.023.286.046.428.085.284.073.557.172.818.284l.768.323c.251.109.475.234.686.38.211.144.418.3.629.46.103.087.211.166.317.258.105.092.218.181.323.297l-.03.095ZM412.948 34.541c.149-.086.29-.145.432-.211.142-.07.28-.119.419-.178.277-.112.544-.214.817-.31.274-.099.554-.171.851-.224l.917-.149c.31-.052.633-.089.956-.092.161-.003.323.01.484.02.08.007.162.02.241.03.079.01.158.02.241.04.659.144 1.206.537 1.595 1.008l-.069.076c-.488-.343-1.045-.57-1.589-.574-.135-.003-.283.01-.422.017-.142.016-.28.03-.419.062-.277.047-.55.12-.824.211-.273.086-.544.211-.827.327a3.672 3.672 0 0 1-.894.247c-.626.082-1.292.066-1.905-.201l-.004-.099Z" />
   <path fill="#E6E6E6"
      d="M403.886 36.434c-.01.151.422.64 1.8.718.613.036 1.233-.082 1.25-.389.016-.293-.343-.854-.864-.972-.907-.205-2.166.336-2.186.643ZM416.951 37.818c-.02.162-.563.58-2.011.396-.643-.083-1.266-.327-1.223-.646.039-.307.524-.822 1.088-.841.982-.04 2.186.768 2.146 1.091Z" />
   <path fill="#1E1735"
      d="M407.47 37.116c-.432-.112-.781-.29-1.121-.445-.34-.145-.62-.386-.959-.478-.337-.096-.69-.086-1.072.007-.191.04-.389.098-.61.118a.952.952 0 0 1-.333-.023.836.836 0 0 1-.29-.148l.04-.063c.181.076.365.07.537.007.175-.06.346-.155.537-.24.188-.087.393-.166.614-.209.22-.043.451-.052.679-.03.227.024.448.067.666.13.214.065.409.17.583.303.086.066.165.138.244.21.073.08.149.156.215.241.131.172.247.353.326.564l-.056.056ZM413.117 37.676c.3-.418.722-.715 1.207-.906a2.07 2.07 0 0 1 .781-.129 3.286 3.286 0 0 1 1.49.462c.215.128.409.27.6.402.192.132.376.257.584.323a.996.996 0 0 0 .649-.01l.033.066a1.085 1.085 0 0 1-.728.165c-.261-.03-.495-.129-.719-.224-.438-.201-.844-.406-1.259-.468-.422-.07-.815.056-1.23.118-.422.073-.861.191-1.368.26l-.04-.059Z" />
   <path fill="#1E1735"
      d="M406.229 36.49a.844.844 0 0 1-.844.847.844.844 0 0 1-.847-.844.844.844 0 1 1 1.691-.004ZM416.12 37.551a.892.892 0 0 1-.887.9.892.892 0 0 1-.9-.887.892.892 0 0 1 .887-.9.892.892 0 0 1 .9.887Z" />
   <path fill="#D65B5B"
      d="M412.646 46.809a.174.174 0 0 0-.086-.284 22.328 22.328 0 0 0-3.402-.61c-1.055-.102-2.08-.026-2.509.013a.175.175 0 0 0-.148.231c.188.554.857 2.031 2.743 2.193 1.698.145 2.954-1.045 3.402-1.543Z" />
   <path fill="#D66730"
      d="M418.099 46.848a13.134 13.134 0 0 1-1.401 1.53s-2.555 2.66-6.775 3.254c-.581.083-1.797.037-3.225-.989 1.876 1.949 3.594 2.044 4.316 1.945 4.22-.59 6.775-3.254 6.775-3.254.106-.095.204-.194.307-.293.029-.735.036-1.477.003-2.193Z" />
   <path fill="#EC7D40"
      d="M413.585 19.866c.175 1.547-.653 3.577-2.034 5.641-1.923 2.869-8.052 3.211-9.862 7.247 1.982-2.634 6.054-3.126 8.579-4.606.564-.33 4.738-2.027 3.317-8.282Z" />
   <path fill="#1E1735"
      d="M411.864 25.448c1.649 4.009 4.105 2.908 6.535 5.99 5.539 7.03 1.82 12.06 2.572 12.555 1.193.788 4.523-1.681 6.442-5.137 2.571-4.632 1.892-13.873-2.592-17.833-3.105-2.743-8.42-4.708-11.298-2.657-2.45 1.747-2.311 5.493-1.659 7.082Z" />
   <path fill="#1E1735"
      d="M411.551 25.508c-2.117 3.161-9.344 3.254-10.27 8.605-.185 1.061-1.563-3.812-1.207-6.785.64-5.338 9.044-11.147 12.008-9.627 2.475 1.269 1.684 4.5-.531 7.807Z" />
   <path fill="#F79556"
      d="M420.367 37.11c.636-.568 1.728-1 2.275-.6.412.3.755.985.61 2.41-.172 1.7-.679 2.6-1.368 3.26-.152.145-1.046.963-1.721.69-1.174-.476-1.55-4.201.204-5.76Z" />
   <path fill="#1E1735"
      d="M420.384 29.899c-.264.277-.524.564-.778.877-.125.158-.251.32-.37.504a2.829 2.829 0 0 0-.333.66 1.943 1.943 0 0 0-.059.24c-.006.05-.01.103-.013.152-.003.05.003.115.007.175.013.122.056.264.128.392.076.129.175.23.277.3.198.139.363.178.501.208.139.026.254.036.366.043.218.01.406.003.561.006.076 0 .145.007.174.01.01 0 .02.003-.009-.013a.39.39 0 0 1-.172-.422c.013-.046.026-.056.023-.046a.612.612 0 0 1-.089.122 6.017 6.017 0 0 1-.366.366c-.138.138-.283.273-.442.498-.039.062-.079.122-.115.21a.85.85 0 0 0-.069.34.698.698 0 0 0 .138.412c.04.053.089.1.135.142.043.03.086.06.132.086.162.082.284.102.393.128.108.02.197.033.28.047.079.013.145.03.178.036.003.003.013.003.013.003-.003 0-.003-.003-.006-.01a.073.073 0 0 1-.027-.036.119.119 0 0 1-.023-.056c-.01-.04-.007-.076 0-.09.007-.012.007-.002 0 .014a.808.808 0 0 1-.099.152c-.096.122-.224.247-.359.399-.069.079-.139.158-.211.277a.782.782 0 0 0-.102.237.557.557 0 0 0 .052.402.576.576 0 0 0 .277.238c.086.033.155.05.218.056.125.016.227.016.326.016.195-.003.37-.013.524-.003a.652.652 0 0 1 .188.03c.047.016.053.023.056.023h.004c0 .003 0 .003.003.006 0 .013.003.026-.003.053a.96.96 0 0 1-.079.198c-.076.151-.178.32-.254.52a1.069 1.069 0 0 0-.076.337c-.01.06 0 .125.007.188a.749.749 0 0 0 .276.488c.096.079.198.122.291.161.184.073.352.119.494.195a.8.8 0 0 1 .333.313.757.757 0 0 1 .102.458c-.006.172-.036.363-.036.554 0 .195.02.383.073.57.062.195.191.35.323.479.273.257.57.471.86.699-.267-.254-.547-.495-.788-.765a1.075 1.075 0 0 1-.254-.449 1.993 1.993 0 0 1-.019-.524c.016-.175.059-.35.085-.544.03-.191.01-.422-.085-.613a1.136 1.136 0 0 0-.419-.472c-.175-.115-.359-.184-.511-.26a.697.697 0 0 1-.181-.122.311.311 0 0 1-.086-.142c-.033-.109-.007-.227.059-.366.066-.138.168-.28.274-.448.053-.086.105-.175.148-.303a.735.735 0 0 0 .04-.218c0-.043-.007-.089-.01-.132-.01-.043-.027-.086-.043-.128a.67.67 0 0 0-.353-.327 1.287 1.287 0 0 0-.346-.092c-.211-.033-.406-.036-.577-.05a1.61 1.61 0 0 1-.224-.03c-.03-.006-.05-.016-.046-.016-.004-.003.036.01.069.066.033.053.033.122.026.135-.003.02 0 .007.017-.01a1.27 1.27 0 0 1 .142-.148c.118-.115.263-.234.412-.386a1.48 1.48 0 0 0 .227-.29.832.832 0 0 0 .099-.24.699.699 0 0 0-.007-.36.83.83 0 0 0-.082-.178 1.166 1.166 0 0 0-.119-.138 1.404 1.404 0 0 0-.118-.09l-.109-.059c-.135-.062-.251-.092-.35-.118-.095-.027-.188-.047-.26-.066a.405.405 0 0 1-.129-.053c.007 0 .014.003.017.01.016.01.033.023.043.043.039.04.052.108.056.155-.007.102-.013.075.016.046a3.2 3.2 0 0 1 .323-.294c.136-.112.284-.227.449-.379.082-.079.168-.161.26-.303a.964.964 0 0 0 .135-.297.764.764 0 0 0-.052-.524.8.8 0 0 0-.34-.353c-.112-.063-.191-.082-.27-.109-.149-.04-.264-.052-.37-.066-.211-.023-.389-.032-.54-.052a1.246 1.246 0 0 1-.182-.037c-.039-.013-.052-.032-.003-.003.026.017.063.05.092.099a.328.328 0 0 1 .053.178c.007-.007.003-.007.017-.023.029-.063.108-.185.201-.3.092-.119.204-.24.316-.36.234-.24.491-.477.755-.712l-1.081-1.127Z" />
   <path fill="#fff" d="M422.329 42.652a1.09 1.09 0 1 1-2.183 0 1.09 1.09 0 1 1 2.183 0Z" />
   <path fill="#00B8C7"
      d="M165.38 95.007H11.533C5.163 95.007 0 100.17 0 106.539v45.887c0 6.37 5.163 11.532 11.533 11.532h127.531l13.152 12.018v-12.018h13.168c6.369 0 11.532-5.162 11.532-11.532v-45.887c-.003-6.369-5.166-11.532-11.536-11.532Z" />
   <path fill="#fff"
      d="M142.457 148.034a2.54 2.54 0 0 1-5.077 0 2.54 2.54 0 0 1 5.077 0ZM150.449 150.573a2.54 2.54 0 1 0 0-5.079 2.54 2.54 0 0 0 0 5.079ZM160.976 150.573a2.538 2.538 0 1 0 0-5.077 2.538 2.538 0 0 0 0 5.077ZM163.393 114.056h-58.485a2.548 2.548 0 0 1 0-5.097h58.485a2.548 2.548 0 0 1 0 5.097ZM163.393 126.235H78.316a2.548 2.548 0 1 1 0-5.097h85.077a2.548 2.548 0 1 1 0 5.097ZM163.393 138.417H78.316a2.548 2.548 0 1 1 0-5.097h85.077a2.548 2.548 0 1 1 0 5.097ZM129.88 150.599H78.316a2.548 2.548 0 1 1 0-5.097h51.564a2.548 2.548 0 0 1 0 5.097Z" />
   <path fill="#00B8C7"
      d="M195.646 45.127h-99.68c-5.564 0-10.078 4.514-10.078 10.08v8.4c0 5.565 4.514 10.078 10.079 10.078h76.68l11.493 10.501v-10.5h11.506c5.565 0 10.079-4.514 10.079-10.08v-8.4c.003-5.565-4.51-10.079-10.079-10.079Z" />
   <path fill="#fff"
      d="m184.499 50.224 2.064 6.35h6.673l-5.4 3.924 2.063 6.346-5.4-3.923-5.4 3.923 2.064-6.346-5.401-3.924h6.673l2.064-6.35ZM165.153 50.224l2.064 6.35h6.673l-5.397 3.924 2.06 6.346-5.4-3.923-5.4 3.923 2.063-6.346-5.4-3.924h6.676l2.061-6.35ZM145.809 50.224l2.061 6.35h6.676l-5.4 3.924 2.06 6.346-5.397-3.923-5.4 3.923 2.06-6.346-5.397-3.924h6.673l2.064-6.35ZM126.463 50.224l2.064 6.35h6.673l-5.4 3.924 2.064 6.346-5.401-3.923-5.4 3.923 2.064-6.346-5.4-3.924h6.673l2.063-6.35ZM107.117 50.224l2.064 6.35h6.673l-5.401 3.924 2.064 6.346-5.4-3.923-5.401 3.923 2.064-6.346-5.4-3.924h6.676l2.061-6.35ZM38.86 158.232c15.716 0 28.456-12.74 28.456-28.456s-12.74-28.456-28.455-28.456c-15.716 0-28.456 12.74-28.456 28.456s12.74 28.456 28.456 28.456Z" />
   <path fill="#1E1735"
      d="M46.377 110.525c.9.501 1.78 1.075 2.545 1.787a14.63 14.63 0 0 1 2.09 2.351c1.237 1.711 2.12 3.653 2.816 5.621.346.989.65 1.985.927 2.98.141.492.273 1.006.402 1.514.07.254.122.511.175.768l.164.771c.386 2.068.587 4.174.57 6.281a31.706 31.706 0 0 1-.18 3.159c-.06.524-.132 1.048-.225 1.572l-.069.392-.072.38-.152.765c-.419 2.04-.973 4.084-1.794 6.026-.81 1.945-1.879 3.792-3.224 5.411-1.345 1.612-2.954 2.996-4.764 3.999 1.599-1.303 3-2.803 4.118-4.484 1.127-1.672 2.004-3.492 2.66-5.387.333-.946.61-1.912.854-2.888a44.2 44.2 0 0 0 .613-2.968l.13-.751.065-.379.06-.37c.075-.491.135-.985.18-1.483.1-.996.15-1.998.152-3.001.01-.501-.003-1.002-.016-1.503-.01-.25-.026-.501-.04-.752-.01-.25-.03-.501-.052-.751-.063-1.003-.208-1.998-.353-2.991l-.132-.741a11.214 11.214 0 0 0-.145-.739c-.109-.491-.208-.979-.33-1.48a70.094 70.094 0 0 0-.755-2.954c-.557-1.939-1.256-3.838-2.265-5.579-.481-.883-1.088-1.694-1.74-2.469l-.508-.567c-.178-.182-.366-.353-.55-.531l-.278-.267c-.095-.082-.198-.162-.297-.244l-.58-.498ZM19.959 154.065a15.189 15.189 0 0 1-2.7-2.245 15.348 15.348 0 0 1-2.146-2.832 15.044 15.044 0 0 1-1.438-3.288 18.454 18.454 0 0 1-.719-3.524 18.864 18.864 0 0 1-.016-3.61c.112-1.2.34-2.387.643-3.548.079-.29.158-.58.247-.863l.135-.429c.046-.142.102-.29.155-.438.208-.587.475-1.148.755-1.692.58-1.078 1.263-2.057 1.909-3.016.653-.957 1.28-1.903 1.843-2.885.145-.244.28-.492.415-.739l.201-.372.192-.379c.128-.251.254-.505.369-.762l.178-.386.09-.191c.025-.063.049-.122.072-.185.405-.972.626-2.09.893-3.227.132-.571.27-1.151.435-1.725.076-.29.182-.573.274-.86.089-.287.21-.571.32-.851a13.409 13.409 0 0 1 1.83-3.148c.405-.452.78-.927 1.232-1.326l.327-.31c.109-.102.218-.207.336-.296l.703-.554c.227-.191.48-.35.728-.511l.742-.488c.508-.307 1.025-.6 1.576-.831.55-.231 1.134-.409 1.73-.465.597-.062 1.174.033 1.751-.079a3.787 3.787 0 0 1-.857.188c-.29.036-.577.072-.854.138-.554.122-1.075.35-1.57.63-.49.284-.962.603-1.417.95l-.666.54c-.22.178-.448.353-.65.558l-.62.583a3.204 3.204 0 0 0-.293.303l-.283.314c-.396.402-.709.867-1.052 1.305a12.953 12.953 0 0 0-1.487 2.964c-.369 1.049-.603 2.143-.82 3.277-.218 1.131-.416 2.318-.868 3.511-.026.073-.052.152-.082.221l-.09.205-.18.409c-.116.273-.248.544-.376.811l-.195.402-.208.399c-.138.264-.276.531-.425.788-.587 1.042-1.236 2.037-1.892 3.003-.663.966-1.31 1.899-1.843 2.865-.26.485-.505.97-.693 1.477-.046.129-.098.248-.141.383l-.136.402c-.085.267-.171.537-.25.808a22.56 22.56 0 0 0-.706 3.29 18.981 18.981 0 0 0-.135 3.353c.053 1.121.215 2.239.472 3.34.253 1.101.62 2.166 1.107 3.191a15.996 15.996 0 0 0 1.784 2.915c.343.461.719.896 1.114 1.322.4.419.818.821 1.25 1.21Z" />
   <path fill="#1E1735"
      d="M32.943 108.039c.692-.214.91-.616 1.407-.781 3.752-1.25 9.206 1.098 11.414 2.502 5.203 3.314 6.762 9.35 7.817 13.445 1.77 6.858.838 12.433.627 13.603-.702 3.901-2.15 11.935-9.225 16.729-5.875 3.983-12.264 3.449-14.226 3.284-2.36-.198-5.783-.528-9.225-2.971-1.128-.801-4.296-3.274-5.786-7.662-1.59-4.685-.966-8.829 0-12.037 1.052-3.495 3.574-5.539 5.628-10.788 1.408-3.596.155-8.756 6.88-13.603 2.697-1.945 3.528-1.358 4.689-1.721Z" />
   <path fill="#FFED00"
      d="M10.894 170.714H60.32c.29-1.078.521-2.216.683-3.422.999-7.471-2.13-13.247-3.798-16.386-3.255-6.112-9.298-6.515-11.517-6.501-6.396.039-8.605-1.425-11.944-1.046-4 .455-9.67.795-15.222 3.993-7.098 4.088-11.546 13.554-8.915 19.864a43.075 43.075 0 0 1 1.286 3.498Z" />
   <path fill="#fff" d="M49.286 132.97a1.312 1.312 0 1 1-2.623.003 1.312 1.312 0 0 1 2.623-.003Z" />
   <path fill="#EC7D40"
      d="M27.506 120.215c1.303 7.596 1.626 9.169 1.886 14.292.363 7.154-.504 9.04.327 11.497.979 2.898 3.389 4.338 7.438 4.338 2.795 0 5.743-2.334 5.281-4.671-1.035-5.266.373-8.434 1.246-13.027.97-5.097 1.29-8.42-.313-10.876-3.043-4.652-16.435-4.876-15.865-1.553Z" />
   <path fill="#F79556"
      d="M48.217 116.776c1.266 3.043.993 4.843.729 6.113-.122.59-.386 1.48-.29 2.766.056.742.204 1.246.29 1.602.442 1.78.366 3.409.145 4.51-.435 2.183-3.201 8.879-5.384 10.188-.897.537-1.767.676-2.473.728-1.622.119-2.96-.27-3.784-.583-5.15-1.955-7.442-7.471-7.715-8.15-.488-1.223-.693-2.183-.874-3.056-.817-3.95-3.712-8.414-.729-14.091.87-1.656 5.823-8.032 15.117-4.86 2.186.745 3.983 2.466 4.968 4.833Z" />
   <path fill="#D65B5B"
      d="M38.893 137.184a.173.173 0 0 1 .112-.274c.554-.092 1.9-.28 3.45-.283 1.06 0 2.076.171 2.498.254a.175.175 0 0 1 .125.244c-.237.534-1.048 1.942-2.944 1.922-1.701-.017-2.842-1.325-3.24-1.863Z" />
   <path fill="#1E1735"
      d="M45.042 124.626c.099-.323.277-.6.488-.841.21-.247.462-.455.738-.626.558-.353 1.257-.409 1.9-.392.161.006.323.006.48.033l.238.029c.083.017.172.037.254.056.333.096.627.261.88.449.508.386.874.873 1.243 1.309l-.066.089c-.263-.159-.488-.346-.728-.508a4.198 4.198 0 0 0-.732-.412 2.16 2.16 0 0 0-.742-.201l-.181-.007-.202.01c-.131 0-.263.026-.395.043-.129.016-.257.059-.383.089-.122.049-.247.086-.366.142-.24.099-.474.197-.725.277l-.771.263c-.267.093-.544.192-.86.281l-.07-.083ZM32.663 123.664c.56-.488 1.223-.858 1.935-1.141a5.905 5.905 0 0 1 2.304-.379c.202 0 .4.026.604.033.2.023.402.052.606.082.403.079.788.241 1.125.478.666.472 1.203 1.131 1.378 1.952l-.109.092c-.765-.28-1.362-.554-1.965-.781-.297-.116-.58-.241-.864-.379-.145-.063-.29-.132-.442-.195-.151-.049-.306-.105-.468-.138a5.068 5.068 0 0 0-.982-.112c-.336-.017-.676 0-1.016.046-.689.076-1.371.28-2.034.56l-.072-.118Z" />
   <path fill="#E6E6E6"
      d="M35.484 127.178c.023.188.66.689 2.364.484.758-.092 1.494-.372 1.448-.751-.043-.363-.61-.97-1.273-.999-1.16-.053-2.582.887-2.539 1.266Z" />
   <path fill="#1E1735" d="M36.754 126.591c.313-1.035 2.13-.834 1.882.551-.247 1.391-2.387 1.111-1.883-.551Z" />
   <path fill="#1E1735"
      d="M39.5 127.178c-.217-.181-.422-.323-.633-.402a1.56 1.56 0 0 0-.616-.096c-.416.013-.864.135-1.335.257-.475.126-.973.261-1.517.327a2.985 2.985 0 0 1-.854-.007 1.287 1.287 0 0 1-.432-.148.69.69 0 0 1-.297-.327c.136.046.258.06.373.046.119-.019.224-.042.336-.082.221-.076.442-.175.67-.274.455-.197.932-.405 1.46-.54.524-.132 1.114-.224 1.728-.056.303.085.596.257.797.497a1.4 1.4 0 0 1 .32.805Z" />
   <path fill="#E6E6E6"
      d="M45.546 127.267c.02.172.567.623 2.025.452.646-.076.926-.399.883-.739-.04-.326-.181-.797-.748-.827-.99-.059-2.2.775-2.16 1.114Z" />
   <path fill="#1E1735" d="M46.596 126.815c.263-.874 1.796-.702 1.585.465-.204 1.17-2.008.936-1.585-.465Z" />
   <path fill="#1E1735"
      d="M49.028 127.072c-.201-.092-.376-.188-.55-.247a1.47 1.47 0 0 0-.475-.089c-.287 0-.56.096-.894.231-.33.132-.689.303-1.117.405-.215.047-.452.08-.693.037-.24-.043-.471-.178-.577-.376a.964.964 0 0 0 .547-.079c.152-.066.297-.162.449-.257.303-.195.633-.422 1.038-.587.202-.079.426-.149.67-.175.244-.026.51 0 .748.096.24.095.439.253.58.435a1.5 1.5 0 0 1 .274.606Z" />
   <path fill="#EC7D40"
      d="M40.545 117.238c-3.03-.828-4.131-2.839-4.378-3.083-.623-.613-1.438-1.694-1.586-2.67-.195.148-.36.326-.465.567-.504 1.157.798 2.759 1.698 3.531.26.224 1.493 2.156 4.573 2.782 5.839 1.184 8.067 3.277 8.928 4.956-.538-1.781-2.407-4.342-8.77-6.083Z" />
   <path fill="#1E1735"
      d="M35.712 109.645c.88-.392 6.367-2.407 12.08 3.492 3.195 3.296 2.862 8.084 2.767 9.897-.076 1.414-1.006 2.318-1.17 2.327-.3.024 1.664-5.205-9.008-8.123-3.03-.828-4.131-2.839-4.378-3.083-.844-.831-2.035-2.519-1.454-3.64.237-.455.689-.659 1.163-.87Z" />
   <path fill="#1E1735"
      d="M34.13 110.08s.141.03.28.086c.883.356 1.813 1.876 2.195 3.844a8.84 8.84 0 0 1 .145 2.621c-.35 4.408-5.683 4.998-6.986 9.314-1.098 3.643-2.535 1.83-3.056.435-2.255-6.004-3.211-10.771 5.084-15.865.52-.319 1.708-.57 2.337-.435Z" />
   <path fill="#F79556"
      d="M29.56 125.8c-.244-.218-1.365-1.227-2.354-.864-.946.346-1.53 1.395-1.681 2.242-.313 1.77.306 4.54 1.85 5.865.31.267.922.778 1.68.689.713-.082 1.174-.653 1.346-.864 1.368-1.681 1.117-5.311-.84-7.068Z" />
   <path fill="#D66730"
      d="M42.198 144.16a18.219 18.219 0 0 1-.12-1.589c-.3.06-.586.089-.846.109-1.623.119-2.961-.27-3.785-.583-2.526-.96-4.365-2.776-5.615-4.458 1.174 1.968 3.3 4.682 6.597 5.935.824.313 2.156.702 3.769.586Z" />
   <path fill="#fff" d="M29.593 132.97a1.312 1.312 0 1 1-2.623.003 1.312 1.312 0 0 1 2.623-.003Z" />
</svg>