<svg xmlns="http://www.w3.org/2000/svg" width="414" height="285" fill="none">
   <path fill="#005687"
      d="M101.633 234.605c-43.218-.032-122.863.588-113.03-2.552 9.832-3.14 61.71-.065 104.237-1.116 42.526-1.051 81.024-2.259 124.516-.707 43.493 1.551 31.667 3.338 12.581 3.843-35.083.927-41.303 1.327-61.643.818-59.529-1.49-49.838-.274-66.661-.286ZM253.78 246.999c-34.569-.038-98.276.705-90.411-3.06 7.865-3.764 49.362-.078 83.377-1.338 34.016-1.259 64.809-2.707 99.597-.848 34.788 1.86 25.329 4.003 10.063 4.607-28.061 1.111-33.037 1.591-49.306.981-47.616-1.786-39.864-.327-53.32-.342ZM176.507 258.399c-6.556-.025-18.638.467-17.146-2.022 1.491-2.489 9.361-.052 15.812-.885 6.45-.833 12.29-1.79 18.888-.561 6.597 1.23 4.803 2.647 1.908 3.046-5.321.735-6.265 1.053-9.351.649-9.03-1.181-7.56-.217-10.111-.227ZM390.785 258.399c-6.79-.025-19.301.467-17.756-2.022 1.545-2.489 9.694-.052 16.374-.885 6.68-.833 12.728-1.79 19.56-.561 6.832 1.23 4.975 2.647 1.976 3.046-5.51.735-6.487 1.053-9.683.649-9.351-1.181-7.829-.217-10.471-.227Z"
      opacity=".1" />
   <g fill="#4195C9" opacity=".4">
      <path
         d="M275.638 191.881s-8.555-5.897-9.425-8.418c-1.202-3.481 1.488-6.243 4.069-3.704 2.582 2.538 3.062 4.154 5.356 12.122Z" />
      <path
         d="M268.32 180.732s3.031 3.496 7.285 11.032c0 0-6.849-9.711-7.285-11.032ZM307.994 115.507s-5.807-8.616-5.696-11.281c.153-3.679 3.667-5.267 5.142-1.961 1.476 3.307 1.331 4.986.554 13.242Z" />
      <path
         d="M305.255 102.454s1.544 4.362 2.75 12.931c0 0-2.826-11.542-2.75-12.931ZM298.919 131.567s-8.554-5.899-9.425-8.42c-1.201-3.479 1.488-6.242 4.07-3.703 2.582 2.539 3.061 4.155 5.355 12.123Z" />
      <path
         d="M291.602 120.417s3.03 3.497 7.285 11.032c0 .001-6.85-9.71-7.285-11.032ZM300.035 128.814s10.386-.302 12.487-1.944c2.9-2.269 2.144-6.049-1.403-5.321-3.547.728-4.827 1.823-11.084 7.265Z" />
      <path
         d="M312.24 123.433s-4.445 1.287-12.111 5.301c0 0 11.027-4.429 12.111-5.301ZM291.887 145.33s10.386-.303 12.486-1.946c2.901-2.268 2.145-6.049-1.403-5.321-3.546.729-4.827 1.825-11.083 7.267Z" />
      <path
         d="M304.092 139.948s-4.444 1.288-12.112 5.302c0-.001 11.027-4.431 12.112-5.302ZM283.543 165.702s10.357.836 12.624-.567c3.132-1.938 2.793-5.778-.813-5.442-3.604.335-4.997 1.285-11.811 6.009Z" />
      <path
         d="M296.259 161.688s-4.558.794-12.618 3.945c0 0 11.446-3.197 12.618-3.945ZM276.738 186.45s10.357.836 12.625-.567c3.131-1.938 2.793-5.778-.813-5.442-3.605.335-4.998 1.284-11.812 6.009Z" />
      <path
         d="M289.455 182.436s-4.559.794-12.619 3.945c0 0 11.445-3.197 12.619-3.945ZM309.477 112.765s10.385-.303 12.486-1.945c2.901-2.268 2.145-6.049-1.403-5.321-3.546.728-4.827 1.824-11.083 7.266Z" />
      <path
         d="M321.678 107.384s-4.444 1.287-12.112 5.301c.001-.001 11.028-4.429 12.112-5.301ZM319.992 97.835s10.386-.303 12.487-1.945c2.9-2.269 2.143-6.05-1.403-5.321-3.547.728-4.828 1.824-11.084 7.266Z" />
      <path
         d="M332.193 92.454s-4.444 1.287-12.111 5.301c0 0 11.027-4.43 12.111-5.3ZM332.363 81.731s10.386-.302 12.487-1.945c2.901-2.268 2.144-6.05-1.403-5.32-3.547.727-4.827 1.823-11.084 7.265Z" />
      <path
         d="M344.568 76.35s-4.444 1.287-12.111 5.301c0 0 11.027-4.43 12.111-5.3ZM344.793 69.038s8.766 2.064 10.892 1.157c2.935-1.253 3.145-4.587.012-4.769-3.133-.182-4.45.45-10.904 3.612Z" />
      <path
         d="M356.216 67.253s-4.009.087-11.325 1.738c0 0 10.223-1.25 11.325-1.738ZM353.801 61.25s8.92-1.235 10.576-2.848c2.286-2.226 1.28-5.413-1.708-4.453-2.987.96-3.988 2.024-8.868 7.3Z" />
      <path
         d="M363.813 55.468s-3.709 1.526-9.938 5.704c0 0 9.085-4.85 9.938-5.704ZM289.888 150.638s-8.553-5.899-9.425-8.42c-1.202-3.48 1.488-6.242 4.07-3.703 2.582 2.539 3.061 4.154 5.355 12.123Z" />
      <path
         d="M282.57 139.488s3.031 3.497 7.285 11.032c0 .001-6.849-9.71-7.285-11.032ZM282.482 168.711s-8.554-5.899-9.425-8.42c-1.202-3.48 1.487-6.242 4.069-3.704 2.583 2.539 3.062 4.155 5.356 12.124Z" />
      <path
         d="M275.164 157.561s3.031 3.496 7.285 11.032c0 0-6.848-9.712-7.285-11.032ZM318.518 99.617s-5.807-8.617-5.696-11.282c.153-3.68 3.666-5.267 5.141-1.96 1.475 3.307 1.332 4.986.555 13.242Z" />
      <path
         d="M315.779 86.564s1.543 4.362 2.749 12.932c0-.001-2.826-11.544-2.749-12.932ZM331.444 84.374s-5.807-8.617-5.696-11.282c.152-3.68 3.666-5.268 5.141-1.96 1.475 3.306 1.331 4.986.555 13.242Z" />
      <path
         d="M328.705 71.32s1.543 4.362 2.749 12.931c0 0-2.827-11.542-2.749-12.931ZM342.936 71.063s-4.872-7.229-4.778-9.465c.128-3.086 3.075-4.418 4.313-1.645 1.237 2.775 1.116 4.184.465 11.11Z" />
      <path d="M340.638 60.112s1.295 3.659 2.307 10.848c0 0-2.371-9.683-2.307-10.848Z" />
      <path
         d="M266.735 240.107c.019-.283 2.044-28.573 13.815-64.618 10.865-33.26 32.488-80.113 73.811-114.435l-.187-.224c-18.272 15.175-34.256 34.043-47.504 56.077-10.598 17.629-19.48 37.308-26.401 58.499-11.783 36.077-13.808 64.398-13.828 64.68l.294.021Z" />
      <path
         d="M280.217 212.539s-4.89-3.372-5.388-4.812c-.687-1.99.85-3.569 2.326-2.118 1.476 1.452 1.75 2.376 3.062 6.93Z" />
      <path
         d="M276.031 206.166s1.733 1.998 4.164 6.306c0 0-3.915-5.551-4.164-6.306ZM298.714 168.879s-3.32-4.925-3.256-6.448c.088-2.104 2.096-3.011 2.939-1.121.843 1.89.761 2.851.317 7.569Z" />
      <path
         d="M297.149 161.418s.883 2.494 1.572 7.392c0 0-1.616-6.598-1.572-7.392ZM293.525 178.061s-4.889-3.371-5.388-4.813c-.686-1.989.851-3.569 2.327-2.117 1.475 1.451 1.749 2.375 3.061 6.93Z" />
      <path
         d="M289.34 171.688s1.733 1.999 4.164 6.306c0 0-3.915-5.552-4.164-6.306ZM294.164 176.488s5.937-.173 7.138-1.112c1.658-1.297 1.226-3.458-.802-3.041-2.027.415-2.759 1.041-6.336 4.153Z" />
      <path
         d="M301.142 173.412s-2.541.736-6.923 3.03c-.001 0 6.302-2.532 6.923-3.03ZM289.504 185.928s5.938-.173 7.138-1.112c1.659-1.297 1.226-3.458-.802-3.041-2.028.416-2.76 1.042-6.336 4.153Z" />
      <path
         d="M296.478 182.853s-2.54.736-6.923 3.03c.001-.001 6.304-2.532 6.923-3.03ZM284.734 197.574s5.921.478 7.217-.324c1.79-1.108 1.597-3.303-.465-3.111-2.06.192-2.856.734-6.752 3.435Z" />
      <path
         d="M292.006 195.28s-2.606.453-7.213 2.255c0-.001 6.543-1.828 7.213-2.255ZM280.848 209.435s5.92.477 7.216-.325c1.791-1.108 1.597-3.303-.464-3.111-2.061.192-2.857.735-6.752 3.436Z" />
      <path
         d="M288.12 207.139s-2.606.454-7.214 2.255c0 0 6.543-1.827 7.214-2.255ZM299.562 167.313s5.938-.173 7.139-1.113c1.657-1.296 1.225-3.457-.802-3.041-2.028.416-2.761 1.043-6.337 4.154Z" />
      <path
         d="M306.536 164.236s-2.54.737-6.923 3.03c0 .001 6.304-2.531 6.923-3.03ZM305.57 158.778s5.937-.173 7.138-1.112c1.658-1.296 1.226-3.458-.802-3.041-2.027.415-2.759 1.042-6.336 4.153Z" />
      <path
         d="M312.545 155.702s-2.541.736-6.924 3.03c0 0 6.304-2.532 6.924-3.03ZM312.645 149.573s5.937-.173 7.138-1.112c1.658-1.296 1.225-3.458-.802-3.041-2.028.415-2.76 1.041-6.336 4.153Z" />
      <path
         d="M319.618 146.497s-2.541.736-6.923 3.03c0 0 6.304-2.532 6.923-3.03ZM319.75 142.317s5.011 1.179 6.226.661c1.678-.716 1.798-2.623.007-2.726-1.792-.105-2.545.257-6.233 2.065Z" />
      <path
         d="M326.278 141.297s-2.291.049-6.473.993c0 0 5.843-.714 6.473-.993ZM324.898 137.864s5.1-.706 6.046-1.628c1.307-1.273.732-3.094-.976-2.545-1.708.549-2.28 1.157-5.07 4.173Z" />
      <path
         d="M330.618 134.56s-2.12.872-5.68 3.26c0 0 5.193-2.773 5.68-3.26ZM288.365 188.963s-4.889-3.373-5.388-4.813c-.687-1.99.851-3.569 2.327-2.118 1.475 1.452 1.749 2.375 3.061 6.931Z" />
      <path
         d="M284.18 182.589s1.732 1.998 4.164 6.307c0 0-3.916-5.552-4.164-6.307ZM284.131 199.294s-4.891-3.372-5.388-4.813c-.687-1.99.85-3.569 2.326-2.118 1.476 1.452 1.751 2.376 3.062 6.931Z" />
      <path
         d="M279.945 192.92s1.733 1.999 4.165 6.307c0 0-3.915-5.552-4.165-6.307ZM304.73 159.797s-3.32-4.926-3.256-6.449c.087-2.103 2.095-3.011 2.938-1.121.844 1.891.762 2.851.318 7.57Z" />
      <path
         d="M303.165 152.334s.882 2.494 1.572 7.392c0 0-1.616-6.598-1.572-7.392ZM312.116 151.083s-3.319-4.925-3.256-6.449c.088-2.104 2.096-3.011 2.939-1.121.844 1.89.761 2.85.317 7.57Z" />
      <path
         d="M310.552 143.622s.882 2.493 1.571 7.392c0 0-1.616-6.599-1.571-7.392ZM318.686 143.474s-2.785-4.132-2.732-5.41c.073-1.765 1.759-2.527 2.465-.94.708 1.585.639 2.391.267 6.35Z" />
      <path d="M317.372 137.214s.74 2.092 1.319 6.202c-.001-.001-1.357-5.536-1.319-6.202Z" />
      <path
         d="M275.129 240.107c.01-.162 1.167-16.333 7.897-36.938 6.21-19.013 18.571-45.797 42.193-65.416l-.106-.129c-10.446 8.675-19.582 19.461-27.155 32.057-6.058 10.077-11.136 21.326-15.093 33.44-6.736 20.624-7.893 36.814-7.904 36.974l.168.012Z" />
      <path
         d="M295.228 202.448s-3.827-7.022-3.549-9.056c.383-2.808 3.19-3.771 4.081-1.13.891 2.641.659 3.917-.532 10.186Z" />
      <path
         d="M294.072 192.249s.867 3.453 1.172 10.107c0 0-1.332-9.048-1.172-10.107ZM343.976 161.227s-.996-7.935.006-9.727c1.383-2.474 4.348-2.345 4.212.439-.136 2.785-.818 3.888-4.218 9.288Z" />
      <path
         d="M346.63 151.311s-.455 3.532-2.603 9.836c0 .001 2.068-8.909 2.603-9.836ZM332.165 169.108s-3.826-7.022-3.549-9.056c.383-2.808 3.19-3.771 4.082-1.131.89 2.641.659 3.917-.533 10.187Z" />
      <path
         d="M331.009 158.907s.868 3.454 1.172 10.108c0 0-1.331-9.049-1.172-10.108ZM333.891 167.605s7.238 3.4 9.252 3.001c2.78-.551 3.573-3.411.885-4.142-2.69-.731-3.95-.424-10.137 1.141Z" />
      <path
         d="M344.14 168.148s-3.5-.66-10.16-.566c0 0 9.113.788 10.16.566ZM322.555 176.118s7.239 3.4 9.252 3.001c2.78-.551 3.574-3.411.885-4.142-2.689-.732-3.95-.424-10.137 1.141Z" />
      <path
         d="M332.804 176.66s-3.5-.659-10.159-.565c0 0 9.112.787 10.159.565ZM309.75 187.212s6.823 4.171 8.868 3.995c2.824-.243 3.926-2.998 1.333-4.02-2.594-1.021-3.88-.854-10.201.025Z" />
      <path
         d="M319.881 188.873s-3.407-1.039-10.037-1.674c0 0 8.972 1.781 10.037 1.674ZM297.867 199.099s6.824 4.171 8.869 3.995c2.823-.243 3.925-2.999 1.332-4.02-2.593-1.022-3.879-.853-10.201.025Z" />
      <path
         d="M307.998 200.76s-3.406-1.038-10.037-1.674c0 0 8.971 1.78 10.037 1.674ZM345.949 159.86s7.239 3.4 9.253 3.001c2.78-.55 3.573-3.411.884-4.142-2.689-.732-3.949-.424-10.137 1.141Z" />
      <path
         d="M356.199 160.403s-3.499-.659-10.16-.565c.001-.001 9.113.787 10.16.565ZM358.355 153.258s7.24 3.399 9.253 3c2.78-.551 3.573-3.41.885-4.141-2.689-.732-3.95-.424-10.138 1.141Z" />
      <path
         d="M368.605 153.8s-3.5-.659-10.16-.565c0-.001 9.112.787 10.16.565ZM372.449 146.493s7.239 3.4 9.253 3.001c2.78-.55 3.573-3.41.884-4.142-2.689-.731-3.949-.423-10.137 1.141Z" />
      <path
         d="M382.699 147.036s-3.5-.66-10.16-.565c0 0 9.112.788 10.16.565ZM385.395 142.093s5.303 4.462 7.078 4.578c2.452.159 3.754-2.059 1.665-3.271-2.089-1.213-3.213-1.237-8.743-1.307Z" />
      <path
         d="M393.859 144.834s-2.783-1.332-8.382-2.739c0-.001 7.456 2.692 8.382 2.739ZM394.289 139.872s6.556 2.251 8.253 1.718c2.344-.735 2.76-3.273.374-3.652-2.386-.377-3.443.006-8.627 1.934Z" />
      <path
         d="M403.174 139.378s-3.078-.239-8.807.466c.001 0 7.925-.175 8.807-.466ZM319.341 179.069s-3.826-7.022-3.549-9.056c.383-2.808 3.19-3.771 4.081-1.131.892 2.641.66 3.917-.532 10.187Z" />
      <path
         d="M318.185 168.869s.867 3.454 1.172 10.108c0 0-1.331-9.05-1.172-10.108ZM307.974 188.911s-3.827-7.023-3.549-9.057c.383-2.808 3.19-3.771 4.081-1.131.892 2.641.66 3.917-.532 10.188Z" />
      <path
         d="M306.818 178.71s.867 3.454 1.172 10.108c0 0-1.331-9.049-1.172-10.108ZM356.726 153.969s-.996-7.936.006-9.728c1.383-2.474 4.348-2.344 4.212.439-.135 2.785-.817 3.888-4.218 9.289Z" />
      <path
         d="M359.381 144.052s-.455 3.532-2.604 9.836c0 .001 2.068-8.909 2.604-9.836ZM370.898 147.989s-.996-7.936.006-9.727c1.383-2.474 4.348-2.344 4.212.439-.135 2.784-.818 3.887-4.218 9.288Z" />
      <path
         d="M373.553 138.072s-.455 3.532-2.604 9.836c0 0 2.068-8.909 2.604-9.836ZM383.413 142.838s-.836-6.657.005-8.16c1.16-2.075 3.647-1.966 3.534.368-.114 2.336-.686 3.261-3.539 7.792Z" />
      <path d="M385.637 134.519s-.382 2.963-2.184 8.252c0 0 1.735-7.475 2.184-8.252Z" />
      <path
         d="M272.362 232.48c.111-.188 11.327-18.917 31.933-39.585 19.014-19.071 50.14-43.741 90.444-52.963l-.05-.219c-17.822 4.076-35.352 11.485-52.106 22.018-13.402 8.427-26.338 18.859-38.452 31.009-20.624 20.687-31.852 39.437-31.963 39.623l.194.117Z" />
      <path
         d="M291.197 218.227s-2.187-4.014-2.029-5.177c.219-1.605 1.824-2.155 2.333-.646.51 1.51.378 2.239-.304 5.823Z" />
      <path
         d="M290.539 212.397s.496 1.975.67 5.778c-.001 0-.762-5.173-.67-5.778ZM319.065 194.664s-.57-4.536.003-5.561c.79-1.414 2.485-1.34 2.408.252-.077 1.591-.468 2.222-2.411 5.309Z" />
      <path
         d="M320.582 188.996s-.26 2.019-1.488 5.623c.001 0 1.182-5.093 1.488-5.623ZM312.315 199.168s-2.188-4.014-2.029-5.177c.218-1.605 1.823-2.156 2.333-.646.51 1.51.378 2.239-.304 5.823Z" />
      <path
         d="M311.656 193.337s.496 1.975.67 5.779c-.001 0-.761-5.173-.67-5.779ZM313.301 198.309s4.138 1.943 5.289 1.716c1.589-.315 2.043-1.949.506-2.368-1.538-.418-2.259-.242-5.795.652Z" />
      <path
         d="M319.159 198.62s-2-.377-5.807-.323c0 0 5.209.45 5.807.323ZM306.82 203.176s4.139 1.944 5.29 1.715c1.589-.315 2.043-1.95.505-2.368-1.537-.417-2.257-.241-5.795.653Z" />
      <path
         d="M312.679 203.486s-2.001-.376-5.808-.323c0 0 5.209.45 5.808.323ZM299.5 209.518s3.9 2.385 5.07 2.284c1.614-.14 2.243-1.715.761-2.298-1.482-.584-2.218-.488-5.831.014Z" />
      <path
         d="M305.292 210.467s-1.947-.593-5.737-.956c0 0 5.128 1.017 5.737.956ZM292.707 216.313s3.9 2.385 5.07 2.284c1.614-.139 2.243-1.714.761-2.298-1.482-.584-2.218-.488-5.831.014Z" />
      <path
         d="M298.499 217.262s-1.947-.593-5.737-.956c0 0 5.128 1.017 5.737.956ZM320.191 193.882s4.138 1.944 5.29 1.716c1.589-.315 2.042-1.95.505-2.368-1.537-.418-2.258-.242-5.795.652Z" />
      <path
         d="M326.05 194.192s-2.001-.378-5.808-.323c0 0 5.209.45 5.808.323ZM327.285 190.108s4.138 1.943 5.289 1.715c1.59-.314 2.043-1.949.506-2.368-1.538-.418-2.258-.242-5.795.653Z" />
      <path
         d="M333.144 190.418s-2.001-.377-5.808-.323c0 0 5.209.45 5.808.323ZM335.344 186.241s4.138 1.943 5.289 1.716c1.589-.315 2.043-1.949.506-2.368-1.538-.419-2.258-.242-5.795.652Z" />
      <path
         d="M341.202 186.551s-2.001-.377-5.807-.323c0 0 5.209.451 5.807.323ZM342.742 183.726s3.032 2.551 4.047 2.617c1.401.091 2.145-1.177.951-1.87-1.193-.694-1.836-.707-4.998-.747Z" />
      <path
         d="M347.581 185.293s-1.591-.761-4.792-1.566c0 0 4.262 1.539 4.792 1.566ZM347.828 182.456s3.748 1.286 4.718.982c1.339-.42 1.577-1.871.213-2.088-1.363-.215-1.968.004-4.931 1.106Z" />
      <path
         d="M352.905 182.174s-1.759-.137-5.034.267c-.001-.001 4.53-.101 5.034-.267ZM304.983 204.863s-2.188-4.014-2.029-5.177c.219-1.605 1.823-2.156 2.333-.646.509 1.508.377 2.239-.304 5.823Z" />
      <path
         d="M304.324 199.032s.496 1.974.67 5.778c0-.001-.761-5.173-.67-5.778ZM298.487 210.489s-2.188-4.015-2.03-5.177c.22-1.605 1.824-2.156 2.334-.647.509 1.509.377 2.239-.304 5.824Z" />
      <path
         d="M297.828 204.657s.496 1.975.67 5.779c-.001-.001-.762-5.174-.67-5.779ZM326.354 190.515s-.57-4.537.003-5.561c.79-1.414 2.486-1.34 2.408.251-.078 1.592-.467 2.223-2.411 5.31Z" />
      <path
         d="M327.871 184.846s-.26 2.019-1.488 5.623c0 0 1.182-5.093 1.488-5.623ZM334.455 187.095s-.569-4.536.003-5.56c.791-1.414 2.485-1.34 2.409.251-.077 1.592-.468 2.223-2.412 5.309Z" />
      <path
         d="M335.973 181.427s-.261 2.019-1.489 5.623c.001 0 1.183-5.093 1.489-5.623ZM341.61 184.152s-.478-3.805.003-4.665c.663-1.186 2.085-1.124 2.02.21-.064 1.336-.392 1.865-2.023 4.455Z" />
      <path d="M342.885 179.396s-.218 1.694-1.248 4.718c-.001 0 .99-4.273 1.248-4.718Z" />
      <path
         d="M278.127 235.395c.064-.107 6.476-10.813 18.255-22.628 10.87-10.902 28.663-25.005 51.701-30.276l-.028-.125c-10.187 2.33-20.209 6.565-29.786 12.586-7.662 4.817-15.056 10.78-21.981 17.726-11.79 11.826-18.208 22.544-18.272 22.651l.111.066Z" />
   </g>
   <g fill="#4195C9" opacity=".3">
      <path
         d="M75.79 200.395s6.083-4.195 6.702-5.987c.855-2.475-1.057-4.439-2.894-2.634-1.837 1.805-2.177 2.955-3.809 8.621Z" />
      <path
         d="M80.994 192.466s-2.155 2.486-5.181 7.846c0 0 4.87-6.907 5.181-7.846ZM52.78 146.077s4.13-6.129 4.051-8.024c-.108-2.617-2.607-3.746-3.657-1.395-1.05 2.352-.947 3.547-.394 9.419Z" />
      <path
         d="M54.73 136.792s-1.098 3.103-1.957 9.197c0 .001 2.011-8.208 1.956-9.197ZM59.234 157.5s6.084-4.196 6.704-5.988c.854-2.475-1.059-4.44-2.895-2.635-1.835 1.806-2.177 2.955-3.809 8.623Z" />
      <path
         d="M64.44 149.569s-2.157 2.487-5.182 7.846c0 .001 4.871-6.906 5.181-7.846ZM58.439 155.542s-7.387-.216-8.881-1.383c-2.063-1.614-1.525-4.302.997-3.785 2.523.518 3.434 1.297 7.884 5.168Z" />
      <path
         d="M49.758 151.715s3.16.915 8.614 3.77c0 0-7.843-3.151-8.614-3.77ZM64.232 167.287s-7.387-.216-8.881-1.383c-2.063-1.614-1.525-4.302.997-3.785 2.523.519 3.434 1.297 7.884 5.168Z" />
      <path
         d="M55.55 163.46s3.162.916 8.615 3.77c0 0-7.844-3.151-8.614-3.77ZM70.168 181.776s-7.367.594-8.98-.404c-2.226-1.378-1.986-4.109.578-3.87 2.565.239 3.555.913 8.402 4.274Z" />
      <path
         d="M61.121 178.921s3.242.565 8.974 2.806c0 0-8.14-2.274-8.974-2.806ZM75.007 196.533s-7.366.594-8.978-.404c-2.227-1.378-1.987-4.109.577-3.871 2.565.239 3.555.913 8.401 4.275Z" />
      <path
         d="M65.96 193.677s3.243.564 8.975 2.806c0 0-8.14-2.274-8.974-2.806ZM51.724 144.127s-7.387-.215-8.881-1.384c-2.063-1.613-1.525-4.302.997-3.784 2.523.518 3.434 1.297 7.884 5.168Z" />
      <path
         d="M43.043 140.299s3.16.916 8.614 3.771c-.001 0-7.844-3.151-8.614-3.771ZM44.247 133.508s-7.387-.215-8.881-1.384c-2.063-1.613-1.525-4.302.998-3.784 2.523.518 3.433 1.297 7.883 5.168Z" />
      <path
         d="M35.566 129.681s3.161.916 8.614 3.77c0 0-7.842-3.151-8.614-3.77ZM35.446 122.055s-7.387-.215-8.88-1.383c-2.063-1.614-1.526-4.302.997-3.785 2.523.518 3.434 1.297 7.883 5.168Z" />
      <path
         d="M26.766 118.228s3.16.916 8.614 3.77c0 0-7.843-3.15-8.614-3.77ZM26.607 113.027s-6.234 1.469-7.745.822c-2.088-.89-2.237-3.262-.009-3.391 2.227-.129 3.164.321 7.754 2.569Z" />
      <path
         d="M18.484 111.758s2.852.062 8.055 1.236c0 0-7.27-.889-8.055-1.236ZM20.198 107.488s-6.345-.878-7.522-2.025c-1.626-1.583-.91-3.849 1.214-3.167 2.125.683 2.837 1.439 6.308 5.192Z" />
      <path
         d="M13.078 103.376s2.638 1.086 7.068 4.057c0-.001-6.462-3.45-7.068-4.057ZM65.656 171.062s6.084-4.195 6.703-5.988c.855-2.475-1.058-4.439-2.894-2.634-1.836 1.806-2.177 2.956-3.809 8.622Z" />
      <path
         d="M70.861 163.133s-2.155 2.486-5.181 7.846c0 0 4.87-6.906 5.181-7.846ZM70.922 183.916s6.084-4.195 6.703-5.988c.856-2.475-1.058-4.44-2.894-2.634-1.836 1.805-2.177 2.955-3.81 8.622Z" />
      <path
         d="M76.126 175.986s-2.155 2.487-5.18 7.846c-.001 0 4.87-6.907 5.18-7.846ZM45.295 134.775s4.13-6.128 4.051-8.023c-.108-2.616-2.607-3.747-3.657-1.394-1.049 2.352-.946 3.546-.394 9.417Z" />
      <path
         d="M47.245 125.492s-1.098 3.102-1.956 9.196c0 0 2.01-8.209 1.956-9.196ZM36.1 123.935s4.13-6.128 4.05-8.024c-.108-2.617-2.607-3.746-3.656-1.394-1.05 2.351-.946 3.546-.394 9.418Z" />
      <path
         d="M38.05 114.651s-1.098 3.102-1.956 9.197c0 0 2.01-8.209 1.955-9.197ZM27.928 114.468s3.465-5.141 3.4-6.731c-.093-2.195-2.188-3.143-3.069-1.17-.88 1.973-.794 2.975-.33 7.901Z" />
      <path d="M29.563 106.679s-.922 2.603-1.641 7.716c0 0 1.687-6.887 1.64-7.716Z" />
      <path
         d="M82.121 234.695c-.013-.202-1.453-20.321-9.825-45.957-7.727-23.656-23.106-56.978-52.495-81.388l.133-.159c12.995 10.792 24.362 24.212 33.785 39.883 7.538 12.538 13.854 26.534 18.777 41.605 8.38 25.659 9.82 45.801 9.835 46.001l-.21.015Z" />
      <path
         d="M72.535 215.087s3.478-2.398 3.832-3.423c.49-1.415-.605-2.538-1.654-1.506-1.05 1.033-1.245 1.69-2.178 4.929Z" />
      <path
         d="M75.513 210.555s-1.233 1.421-2.962 4.485c0-.001 2.784-3.949 2.962-4.485ZM59.382 184.037s2.361-3.503 2.317-4.587c-.063-1.496-1.491-2.142-2.09-.797-.602 1.345-.543 2.028-.227 5.384Z" />
      <path
         d="M60.493 178.73s-.628 1.774-1.118 5.258c0 0 1.15-4.694 1.118-5.258ZM63.07 190.566s3.478-2.398 3.832-3.423c.489-1.415-.605-2.538-1.654-1.506-1.05 1.033-1.245 1.69-2.178 4.929Z" />
      <path
         d="M66.047 186.033s-1.232 1.422-2.961 4.486c0 0 2.784-3.949 2.961-4.486ZM62.618 189.446s-4.223-.122-5.077-.79c-1.179-.922-.87-2.46.571-2.164 1.442.297 1.963.742 4.506 2.954Z" />
      <path
         d="M57.656 187.259s1.807.523 4.924 2.155c0 0-4.483-1.801-4.924-2.155ZM65.93 196.161s-4.222-.123-5.076-.791c-1.18-.922-.872-2.46.57-2.163 1.443.296 1.963.742 4.507 2.954Z" />
      <path
         d="M60.969 193.973s1.807.523 4.923 2.155c0 0-4.482-1.8-4.923-2.155ZM69.322 204.444s-4.211.34-5.133-.231c-1.272-.787-1.135-2.349.331-2.213 1.465.137 2.032.523 4.802 2.444Z" />
      <path
         d="M64.148 202.812s1.853.323 5.13 1.603c.001 0-4.652-1.299-5.13-1.603ZM72.092 212.88s-4.211.339-5.133-.232c-1.273-.787-1.136-2.348.33-2.212 1.466.136 2.032.523 4.803 2.444Z" />
      <path
         d="M66.918 211.248s1.854.323 5.13 1.603c0 0-4.653-1.3-5.13-1.603ZM58.778 182.922s-4.222-.123-5.076-.791c-1.18-.923-.872-2.459.57-2.163 1.442.295 1.963.741 4.506 2.954Z" />
      <path
         d="M53.816 180.733s1.807.524 4.924 2.156c0 0-4.484-1.801-4.924-2.156ZM54.506 176.852s-4.223-.123-5.078-.791c-1.18-.922-.871-2.459.571-2.164 1.442.297 1.962.743 4.507 2.955Z" />
      <path
         d="M49.543 174.664s1.807.523 4.924 2.155c0 0-4.483-1.801-4.924-2.155ZM49.474 170.304s-4.223-.122-5.077-.791c-1.18-.922-.871-2.459.57-2.163 1.442.297 1.963.743 4.507 2.954Z" />
      <path
         d="M44.512 168.117s1.807.523 4.923 2.155c0 0-4.483-1.801-4.923-2.155ZM44.419 165.145s-3.564.838-4.428.469c-1.194-.509-1.28-1.865-.005-1.939 1.273-.073 1.808.184 4.433 1.47Z" />
      <path
         d="M39.773 164.419s1.63.035 4.604.707c.001 0-4.155-.508-4.604-.707ZM40.759 161.978s-3.627-.503-4.3-1.158c-.93-.905-.521-2.201.694-1.811 1.215.391 1.62.823 3.606 2.969Z" />
      <path
         d="M36.688 159.627s1.507.62 4.04 2.319c0 0-3.694-1.973-4.04-2.319ZM66.742 198.319s3.477-2.398 3.832-3.423c.49-1.415-.605-2.538-1.654-1.506-1.05 1.033-1.245 1.69-2.178 4.929Z" />
      <path
         d="M69.716 193.786s-1.232 1.422-2.962 4.486c0 0 2.785-3.948 2.962-4.486ZM69.754 205.667s3.478-2.398 3.832-3.423c.489-1.415-.605-2.538-1.654-1.506-1.05 1.033-1.245 1.69-2.178 4.929Z" />
      <path
         d="M72.731 201.134s-1.232 1.422-2.962 4.486c0 0 2.785-3.948 2.962-4.486ZM55.104 177.576s2.36-3.503 2.316-4.586c-.062-1.496-1.491-2.142-2.09-.797-.6 1.344-.541 2.027-.226 5.383Z" />
      <path
         d="M56.22 172.27s-.628 1.773-1.118 5.257c0 0 1.148-4.692 1.117-5.257ZM49.846 171.379s2.362-3.503 2.316-4.586c-.062-1.496-1.49-2.141-2.09-.798-.6 1.344-.541 2.027-.226 5.384Z" />
      <path
         d="M50.961 166.072s-.627 1.773-1.117 5.258c0-.001 1.15-4.693 1.117-5.258ZM45.177 165.967s1.98-2.939 1.943-3.848c-.053-1.254-1.25-1.796-1.754-.668-.504 1.127-.455 1.701-.19 4.516Z" />
      <path d="M46.11 161.515s-.527 1.488-.938 4.411c0 0 .964-3.937.938-4.411Z" />
      <path
         d="M76.156 234.695c-.007-.116-.83-11.618-5.616-26.272-4.418-13.523-13.21-32.571-30.009-46.525l.076-.091c7.429 6.17 13.927 13.841 19.313 22.799 4.309 7.168 7.92 15.168 10.734 23.784 4.79 14.667 5.614 26.182 5.621 26.296l-.119.009Z" />
      <path
         d="M61.857 207.911s2.722-4.995 2.525-6.441c-.273-1.998-2.27-2.682-2.904-.804-.633 1.878-.469 2.786.38 7.245Z" />
      <path
         d="M62.677 200.656s-.617 2.456-.833 7.189c-.001 0 .946-6.436.833-7.189ZM27.187 178.593s.707-5.643-.005-6.918c-.983-1.759-3.091-1.667-2.995.312.096 1.981.58 2.766 3 6.606Z" />
      <path
         d="M25.297 171.541s.324 2.512 1.851 6.996c0 0-1.47-6.337-1.851-6.996ZM35.588 184.198s2.72-4.994 2.524-6.441c-.273-1.997-2.269-2.682-2.903-.804-.634 1.878-.469 2.786.379 7.245Z" />
      <path
         d="M36.408 176.943s-.617 2.457-.834 7.189c0 0 .948-6.436.834-7.189ZM34.36 183.13s-5.148 2.418-6.58 2.134c-1.978-.391-2.542-2.426-.63-2.946 1.914-.52 2.81-.302 7.21.812Z" />
      <path
         d="M27.07 183.515s2.49-.469 7.226-.402c0 0-6.481.56-7.226.402ZM42.419 189.183s-5.148 2.418-6.58 2.135c-1.978-.392-2.542-2.426-.63-2.946 1.913-.52 2.81-.301 7.21.811Z" />
      <path
         d="M35.129 189.569s2.489-.468 7.226-.402c0 0-6.48.56-7.226.402ZM51.528 197.075s-4.853 2.966-6.308 2.841c-2.008-.173-2.792-2.133-.947-2.859 1.844-.727 2.76-.607 7.255.018Z" />
      <path
         d="M44.324 198.255s2.423-.738 7.138-1.191c0 .001-6.38 1.267-7.138 1.191ZM59.98 205.528s-4.852 2.967-6.307 2.841c-2.009-.172-2.791-2.132-.948-2.859 1.845-.726 2.76-.606 7.255.018Z" />
      <path
         d="M52.777 206.709s2.423-.738 7.139-1.19c0 0-6.38 1.266-7.139 1.19ZM25.782 177.621s-5.148 2.418-6.58 2.134c-1.978-.391-2.542-2.425-.63-2.945 1.914-.52 2.81-.302 7.21.811Z" />
      <path
         d="M18.492 178.006s2.49-.469 7.226-.402c0 .001-6.481.561-7.226.402ZM16.958 172.926s-5.148 2.418-6.58 2.134c-1.978-.391-2.542-2.426-.63-2.946 1.913-.52 2.81-.302 7.21.812Z" />
      <path
         d="M9.668 173.311s2.489-.469 7.226-.402c0 0-6.48.56-7.226.402ZM6.939 168.115s-5.149 2.418-6.581 2.134c-1.977-.391-2.542-2.425-.63-2.945 1.914-.52 2.81-.302 7.21.811Z" />
      <path
         d="M-.352 168.501s2.49-.469 7.226-.403c0 .001-6.481.561-7.226.403ZM44.709 191.283s2.721-4.995 2.524-6.441c-.273-1.998-2.269-2.683-2.903-.805-.633 1.879-.47 2.786.379 7.246Z" />
      <path
         d="M45.53 184.028s-.618 2.456-.835 7.189c0 0 .947-6.436.834-7.189ZM52.79 198.283s2.723-4.995 2.525-6.442c-.273-1.997-2.269-2.682-2.903-.804-.634 1.878-.468 2.786.379 7.246Z" />
      <path
         d="M53.611 191.027s-.617 2.457-.834 7.189c.001 0 .948-6.436.834-7.189ZM18.12 173.432s.708-5.644-.004-6.918c-.983-1.76-3.092-1.668-2.996.312.096 1.98.581 2.765 3 6.606Z" />
      <path
         d="M16.234 166.379s.324 2.512 1.852 6.996c-.001 0-1.472-6.337-1.852-6.996ZM8.042 169.178s.708-5.643-.004-6.917c-.983-1.76-3.092-1.668-2.996.312.095 1.98.581 2.764 3 6.605Z" />
      <path d="M6.152 162.125s.324 2.513 1.852 6.997c0 0-1.471-6.337-1.852-6.997Z" />
      <path
         d="M78.118 229.269c-.078-.133-8.056-13.453-22.71-28.153-13.524-13.563-35.661-31.109-64.326-37.668l.036-.156c12.675 2.9 25.143 8.168 37.058 15.659 9.532 5.993 18.732 13.413 27.347 22.054 14.668 14.713 22.654 28.048 22.733 28.181l-.138.083Z" />
      <path
         d="M64.725 219.133s1.556-2.855 1.444-3.681c-.156-1.142-1.297-1.534-1.66-.46-.362 1.074-.269 1.592.216 4.141Z" />
      <path
         d="M65.195 214.987s-.352 1.404-.476 4.109c0 0 .541-3.679.476-4.109ZM44.905 202.374s.404-3.226-.003-3.954c-.563-1.006-1.768-.953-1.713.178.055 1.132.333 1.58 1.716 3.776Z" />
      <path
         d="M43.828 198.343s.185 1.435 1.058 4c0-.001-.84-3.624-1.058-4ZM49.706 205.578s1.556-2.856 1.443-3.682c-.156-1.142-1.297-1.533-1.659-.46-.363 1.074-.269 1.593.216 4.142Z" />
      <path
         d="M50.176 201.431s-.353 1.404-.477 4.109c0 0 .541-3.678.477-4.109ZM49.006 204.968s-2.943 1.382-3.762 1.22c-1.13-.224-1.453-1.386-.36-1.684 1.094-.298 1.606-.173 4.122.464Z" />
      <path
         d="M44.836 205.188s1.422-.268 4.13-.23c0 0-3.704.32-4.13.23ZM53.615 208.428s-2.943 1.382-3.762 1.22c-1.13-.223-1.453-1.386-.36-1.683 1.095-.298 1.607-.173 4.122.463Z" />
      <path
         d="M49.45 208.648s1.422-.268 4.13-.229c0 0-3.705.319-4.13.229ZM58.821 212.939s-2.774 1.696-3.606 1.624c-1.147-.099-1.596-1.22-.541-1.634 1.054-.416 1.577-.348 4.147.01Z" />
      <path
         d="M54.703 213.614s1.385-.422 4.08-.68c0 0-3.647.722-4.08.68ZM63.65 217.772s-2.775 1.696-3.606 1.624c-1.148-.099-1.596-1.219-.542-1.634 1.054-.416 1.577-.348 4.147.01Z" />
      <path
         d="M59.531 218.447s1.385-.422 4.081-.68c0 0-3.648.723-4.08.68ZM44.103 201.818s-2.943 1.383-3.762 1.221c-1.13-.224-1.452-1.387-.359-1.685 1.094-.297 1.605-.172 4.121.464Z" />
      <path
         d="M39.938 202.039s1.423-.268 4.13-.23c0 0-3.705.32-4.13.23ZM39.06 199.134s-2.943 1.382-3.761 1.22c-1.13-.224-1.453-1.386-.36-1.684 1.093-.297 1.606-.172 4.122.464Z" />
      <path
         d="M34.89 199.354s1.424-.268 4.131-.229c0 0-3.704.32-4.13.229ZM33.33 196.384s-2.943 1.382-3.762 1.22c-1.13-.223-1.452-1.386-.36-1.683 1.094-.298 1.606-.173 4.122.463Z" />
      <path
         d="M29.164 196.604s1.422-.268 4.13-.229c0 0-3.704.32-4.13.229ZM28.069 194.595s-2.156 1.813-2.878 1.86c-.997.064-1.526-.837-.677-1.329.849-.494 1.306-.503 3.555-.531Z" />
      <path
         d="M24.629 195.709s1.132-.542 3.408-1.113c0-.001-3.032 1.094-3.408 1.113ZM24.45 193.692s-2.665.914-3.355.698c-.953-.299-1.122-1.33-.152-1.485.97-.154 1.4.003 3.508.787Z" />
      <path
         d="M20.84 193.491s1.251-.098 3.58.19c0-.001-3.221-.072-3.58-.19ZM54.92 209.627s1.556-2.855 1.444-3.681c-.156-1.142-1.297-1.534-1.66-.46-.362 1.074-.268 1.593.216 4.141Z" />
      <path
         d="M55.39 205.48s-.352 1.404-.476 4.11c0 0 .54-3.679.477-4.11ZM59.542 213.629s1.555-2.855 1.443-3.682c-.156-1.142-1.297-1.533-1.66-.46-.362 1.074-.268 1.593.217 4.142Z" />
      <path
         d="M60.012 209.482s-.352 1.404-.477 4.109c0 0 .542-3.679.477-4.109ZM39.721 199.424s.405-3.226-.002-3.955c-.562-1.006-1.768-.953-1.713.179.056 1.131.333 1.58 1.715 3.776Z" />
      <path
         d="M38.645 195.392s.184 1.436 1.058 3.999c0 0-.84-3.622-1.059-3.999ZM33.96 196.991s.404-3.226-.003-3.955c-.563-1.005-1.768-.953-1.713.179.055 1.132.333 1.581 1.715 3.776Z" />
      <path
         d="M32.883 192.959s.185 1.436 1.058 3.999c0 .001-.84-3.621-1.058-3.999ZM28.87 194.898s.34-2.707-.002-3.318c-.472-.844-1.483-.8-1.437.15.046.949.279 1.326 1.44 3.168Z" />
      <path d="M27.965 191.515s.155 1.204.888 3.355c0 0-.705-3.039-.888-3.355Z" />
      <path
         d="M74.02 231.343c-.046-.076-4.606-7.691-12.983-16.094-7.731-7.753-20.386-17.783-36.771-21.533l.02-.089c7.245 1.658 14.373 4.669 21.184 8.952 5.449 3.425 10.708 7.667 15.633 12.607 8.385 8.411 12.95 16.033 12.995 16.109l-.079.048Z" />
   </g>
   <path fill="#76BEEA"
      d="M374.755 107.756a4.112 4.112 0 0 1-.857-.167l.231-.756c.224.069.457.114.694.135l-.068.788Zm.871-.014-.095-.786c.236-.028.468-.08.691-.156l.254.749a4.188 4.188 0 0 1-.85.193Zm-2.53-.491a4.263 4.263 0 0 1-.716-.498l.517-.599c.18.154.376.29.581.404l-.382.693Zm4.172-.066-.403-.68c.203-.12.394-.262.569-.422l.535.583a4.209 4.209 0 0 1-.701.519Zm-5.486-1.065a4.169 4.169 0 0 1-.456-.744l.714-.341c.102.213.226.416.369.604l-.627.481Zm6.765-.105-.643-.461c.138-.192.256-.398.352-.615l.723.319a4.23 4.23 0 0 1-.432.757Zm-7.513-1.46a4.215 4.215 0 0 1-.116-.865l.791-.023c.007.236.039.471.095.701l-.77.187Zm8.212-.128-.774-.161a3.543 3.543 0 0 0 .065-.917l.789-.046a4.273 4.273 0 0 1-.08 1.124Zm-7.487-1.467-.778-.137c.05-.288.131-.57.24-.84l.733.298a3.364 3.364 0 0 0-.195.679Zm6.664-.308a3.635 3.635 0 0 0-.258-.659l.703-.362c.133.257.24.53.317.811l-.762.21Zm-6.136-.997-.657-.442c.163-.241.35-.466.558-.669l.552.567a3.564 3.564 0 0 0-.453.544Zm5.489-.253a3.555 3.555 0 0 0-.503-.501l.499-.614c.226.183.433.39.617.614l-.613.501Zm-4.479-.73-.425-.667c.246-.156.508-.287.781-.39l.277.742a3.397 3.397 0 0 0-.633.315Zm3.383-.157a3.325 3.325 0 0 0-.66-.255l.207-.764c.282.076.555.182.814.315l-.361.704Zm-2.066-.335-.118-.783c.285-.043.58-.056.871-.04l-.047.79a3.385 3.385 0 0 0-.706.033ZM375.126 105.413a1.852 1.852 0 1 0 0-3.705 1.852 1.852 0 0 0 0 3.705ZM37.9 59.23v3.678h3.525v1.585H37.9v3.713h-1.655v-3.713H32.72v-1.585h3.526V59.23H37.9ZM300.087 49.893v3.428h3.297v.876h-3.297v3.457h-.934v-3.457h-3.298v-.876h3.298v-3.428h.934Z" />
   <path fill="#00233F" d="M70.019 228.856H64.55v4.018h5.468v-4.018ZM130.801 228.856h-5.469v4.018h5.469v-4.018Z" />
   <path fill="#26354D"
      d="M142.671 229.82H58.552a2.962 2.962 0 0 1-2.962-2.962V69.686a2.962 2.962 0 0 1 2.962-2.962h84.119a2.962 2.962 0 0 1 2.962 2.962v157.171a2.963 2.963 0 0 1-2.962 2.963Z" />
   <path fill="#5B6B85"
      d="M142.67 66.724H58.55a2.96 2.96 0 0 0-2.882 2.302c.288-.093.59-.157.909-.157h84.118a2.962 2.962 0 0 1 2.962 2.963v157.171c0 .228-.031.446-.08.659a2.951 2.951 0 0 0 2.054-2.805V69.687a2.961 2.961 0 0 0-2.961-2.963Z"
      opacity=".4" />
   <path fill="#5B6B85" d="M145.632 101.133H55.59v2.56h90.042v-2.56Z" opacity=".2" />
   <path fill="#1C283A"
      d="M145.632 98.573H55.59v2.56h90.042v-2.56ZM145.632 165.849H55.59v2.559h90.042v-2.559ZM145.632 197.972H55.59v2.56h90.042v-2.56Z" />
   <path fill="#5B6B85" d="M145.632 168.483H55.59v2.56h90.042v-2.56Z" opacity=".2" />
   <path fill="#1C283A" d="M145.632 133.688H55.59v2.56h90.042v-2.56Z" />
   <path fill="#5B6B85" d="M145.632 136.323H55.59v2.56h90.042v-2.56ZM145.632 200.68H55.59v2.56h90.042v-2.56Z"
      opacity=".2" />
   <path fill="#FECE71" d="M119.802 81.311h-3.65v4.303h3.65V81.31Z" />
   <path fill="#85D2DA" d="M127.592 81.311h-3.651v4.303h3.651V81.31Z" />
   <path fill="#F47954" d="M135.666 81.311h-3.65v4.303h3.65V81.31Z" />
   <path fill="#FECE71" d="M119.802 116.54h-3.65v4.302h3.65v-4.302Z" />
   <path fill="#85D2DA" d="M127.592 116.54h-3.651v4.302h3.651v-4.302Z" />
   <path fill="#F47954" d="M135.666 116.54h-3.65v4.302h3.65v-4.302Z" />
   <path fill="#FECE71" d="M119.802 150.686h-3.65v4.303h3.65v-4.303Z" />
   <path fill="#85D2DA" d="M127.592 150.686h-3.651v4.303h3.651v-4.303Z" />
   <path fill="#F47954" d="M135.666 150.686h-3.65v4.303h3.65v-4.303Z" />
   <path fill="#FECE71" d="M119.802 182.468h-3.65v4.303h3.65v-4.303Z" />
   <path fill="#85D2DA" d="M127.592 182.468h-3.651v4.303h3.651v-4.303Z" />
   <path fill="#F47954" d="M135.666 182.468h-3.65v4.303h3.65v-4.303Z" />
   <path fill="#FECE71" d="M119.802 213.833h-3.65v4.303h3.65v-4.303Z" />
   <path fill="#85D2DA" d="M127.592 213.833h-3.651v4.303h3.651v-4.303Z" />
   <path fill="#F47954" d="M135.666 213.833h-3.65v4.303h3.65v-4.303Z" />
   <path fill="#5B6B85"
      d="M107.761 78.395h-43.21v10.322h43.21V78.395ZM107.761 148.093h-43.21v10.323h43.21v-10.323ZM107.761 113.53h-43.21v10.322h43.21V113.53ZM107.761 179.459h-43.21v10.322h43.21v-10.322ZM107.761 210.824h-43.21v10.322h43.21v-10.322Z"
      opacity=".3" />
   <path fill="#00233F" d="M160.835 228.856h-5.468v4.019h5.468v-4.019ZM221.617 228.856h-5.469v4.019h5.469v-4.019Z" />
   <path fill="#26354D"
      d="M233.487 229.82h-84.118a2.963 2.963 0 0 1-2.963-2.962V69.686a2.963 2.963 0 0 1 2.963-2.962h84.118a2.963 2.963 0 0 1 2.963 2.962v157.171a2.963 2.963 0 0 1-2.963 2.963Z" />
   <path fill="#5B6B85"
      d="M233.485 66.724h-84.118a2.961 2.961 0 0 0-2.883 2.302 2.93 2.93 0 0 1 .909-.157h84.118a2.963 2.963 0 0 1 2.963 2.963v157.171c0 .228-.031.446-.081.659a2.952 2.952 0 0 0 2.055-2.805V69.687a2.963 2.963 0 0 0-2.963-2.963Z"
      opacity=".4" />
   <path fill="#5B6B85" d="M236.449 101.133h-90.043v2.56h90.043v-2.56Z" opacity=".2" />
   <path fill="#1C283A"
      d="M236.449 98.573h-90.043v2.56h90.043v-2.56ZM236.449 165.849h-90.043v2.559h90.043v-2.559ZM236.449 197.971h-90.043v2.56h90.043v-2.56Z" />
   <path fill="#5B6B85" d="M236.449 168.483h-90.043v2.56h90.043v-2.56Z" opacity=".2" />
   <path fill="#1C283A" d="M236.449 133.688h-90.043v2.56h90.043v-2.56Z" />
   <path fill="#5B6B85" d="M236.449 136.323h-90.043v2.56h90.043v-2.56ZM236.449 200.68h-90.043v2.56h90.043v-2.56Z"
      opacity=".2" />
   <path fill="#FECE71" d="M210.619 81.311h-3.65v4.303h3.65V81.31Z" />
   <path fill="#85D2DA" d="M218.409 81.311h-3.651v4.303h3.651V81.31Z" />
   <path fill="#F47954" d="M226.482 81.311h-3.65v4.303h3.65V81.31Z" />
   <path fill="#FECE71" d="M210.619 116.539h-3.65v4.303h3.65v-4.303Z" />
   <path fill="#85D2DA" d="M218.409 116.539h-3.651v4.303h3.651v-4.303Z" />
   <path fill="#F47954" d="M226.482 116.539h-3.65v4.303h3.65v-4.303Z" />
   <path fill="#FECE71" d="M210.619 150.686h-3.65v4.303h3.65v-4.303Z" />
   <path fill="#85D2DA" d="M218.409 150.686h-3.651v4.303h3.651v-4.303Z" />
   <path fill="#F47954" d="M226.482 150.686h-3.65v4.303h3.65v-4.303Z" />
   <path fill="#FECE71" d="M210.619 182.468h-3.65v4.303h3.65v-4.303Z" />
   <path fill="#85D2DA" d="M218.409 182.468h-3.651v4.303h3.651v-4.303Z" />
   <path fill="#F47954" d="M226.482 182.468h-3.65v4.303h3.65v-4.303Z" />
   <path fill="#FECE71" d="M210.619 213.833h-3.65v4.303h3.65v-4.303Z" />
   <path fill="#85D2DA" d="M218.409 213.833h-3.651v4.303h3.651v-4.303Z" />
   <path fill="#F47954" d="M226.482 213.833h-3.65v4.303h3.65v-4.303Z" />
   <path fill="#5B6B85"
      d="M198.578 78.395h-43.211v10.322h43.211V78.395ZM198.578 148.093h-43.211v10.323h43.211v-10.323ZM198.578 113.53h-43.211v10.322h43.211V113.53ZM198.578 179.459h-43.211v10.322h43.211v-10.322ZM198.578 210.824h-43.211v10.322h43.211v-10.322Z"
      opacity=".3" />
   <path fill="#324666"
      d="M354.404 244.237H179.22a3.204 3.204 0 0 1-3.204-3.204v-4.848c0-.897.727-1.625 1.625-1.625h178.342c.897 0 1.625.728 1.625 1.625v4.848a3.205 3.205 0 0 1-3.204 3.204Z" />
   <path fill="#435D88"
      d="M347.055 234.56H186.57v-94.89a3.205 3.205 0 0 1 3.205-3.204H343.85a3.205 3.205 0 0 1 3.205 3.204v94.89Z" />
   <path fill="#697DA0"
      d="M347.055 234.56H186.57v-94.89a3.205 3.205 0 0 1 3.205-3.204H343.85a3.205 3.205 0 0 1 3.205 3.204v94.89Z"
      opacity=".1" />
   <path fill="#fff" d="M338.826 143.951H194.801v78.73h144.025v-78.73Z" />
   <path fill="#26354D"
      d="M294.264 239.459h-54.907a2.462 2.462 0 0 1-2.462-2.462v-2.437h59.832v2.437a2.461 2.461 0 0 1-2.463 2.462Z" />
   <path fill="#85D2DA" d="M338.826 143.951H194.801v6.54h144.025v-6.54Z" />
   <path fill="#CEEDF0"
      d="M212.226 145.968h-13.777v2.505h13.777v-2.505ZM328.067 145.968h-2.505v2.505h2.505v-2.505ZM331.536 145.968h-2.505v2.505h2.505v-2.505ZM335.001 145.968h-2.505v2.505h2.505v-2.505Z" />
   <path fill="#E7F6F8" d="M334.552 155.097h-39.829v29.55h39.829v-29.55Z" />
   <path fill="#4195C9" d="M323.322 161.876h-2.834v2.834h2.834v-2.834Z" />
   <path fill="#B3D5E9" d="M331.078 161.876h-6.492v.644h6.492v-.644ZM328.431 162.97h-3.845v.645h3.845v-.645Z" />
   <path fill="#85D2DA" d="M323.322 166.371h-2.834v2.834h2.834v-2.834Z" />
   <path fill="#B3D5E9" d="M331.078 166.371h-6.492v.644h6.492v-.644ZM328.431 167.465h-3.845v.645h3.845v-.645Z" />
   <path fill="#F47954" d="M323.322 170.866h-2.834v2.833h2.834v-2.833Z" />
   <path fill="#B3D5E9" d="M331.078 170.866h-6.492v.644h6.492v-.644ZM328.431 171.961h-3.845v.644h3.845v-.644Z" />
   <path fill="#FECE71" d="M323.322 175.36h-2.834v2.834h2.834v-2.834Z" />
   <path fill="#B3D5E9" d="M331.078 175.36h-6.492v.645h6.492v-.645ZM328.431 176.455h-3.845v.644h3.845v-.644Z" />
   <path fill="#85D2DA" d="M307.223 162.122v7.739l2.576-7.29a8.592 8.592 0 0 0-2.576-.449Z" />
   <path fill="#F47954" d="m310.089 162.674-2.765 7.821 7.754-2.949a8.617 8.617 0 0 0-4.989-4.872Z" />
   <path fill="#FECE71" d="m308 170.569 7.685-.287a8.621 8.621 0 0 0-.494-2.448L308 170.569Z" />
   <path fill="#4195C9"
      d="M306.855 162.122c-4.672.116-8.425 3.933-8.425 8.632a8.645 8.645 0 0 0 17.288 0c0-.028-.005-.054-.005-.082l-8.858.276v-8.826Z" />
   <path fill="#fff" d="M312.448 170.742a5.389 5.389 0 1 1-10.778-.002 5.389 5.389 0 0 1 10.778.002Z" />
   <path fill="#E7F6F8" d="M238.789 189.121h-39.867V218.7h39.867v-29.579Z" />
   <path fill="#4195C9" d="M227.557 196.059h-2.127v2.128h2.127v-2.128Z" />
   <path fill="#B3D5E9" d="M233.378 196.059h-4.874v.483h4.874v-.483ZM231.39 196.881h-2.886v.484h2.886v-.484Z" />
   <path fill="#85D2DA" d="M227.557 199.603h-2.127v2.127h2.127v-2.127Z" />
   <path fill="#B3D5E9" d="M233.378 199.603h-4.874v.483h4.874v-.483ZM231.39 200.425h-2.886v.483h2.886v-.483Z" />
   <path fill="#435D88" d="M227.557 203.146h-2.127v2.128h2.127v-2.128Z" />
   <path fill="#B3D5E9" d="M233.378 203.146h-4.874v.484h4.874v-.484ZM231.39 203.969h-2.886v.483h2.886v-.483Z" />
   <path fill="#FECE71" d="M227.557 206.69h-2.127v2.128h2.127v-2.128Z" />
   <path fill="#B3D5E9" d="M233.378 206.69h-4.874v.483h4.874v-.483ZM231.39 207.512h-2.886v.483h2.886v-.483Z" />
   <path fill="#F47954" d="M227.557 210.233h-2.127v2.128h2.127v-2.128Z" />
   <path fill="#B3D5E9" d="M233.378 210.233h-4.874v.483h4.874v-.483ZM231.39 211.055h-2.886v.483h2.886v-.483Z" />
   <path fill="#85D2DA"
      d="M220.058 208.442a8.759 8.759 0 0 0 .847-3.75c0-.84-.126-1.65-.344-2.419l-8.467 2.419 7.964 3.75Z" />
   <path fill="#4195C9"
      d="M203.359 205.817c.554 4.334 4.248 7.686 8.732 7.686 3.523 0 6.555-2.072 7.964-5.061l-7.964-3.751-8.732 1.126Z" />
   <path fill="#F47954"
      d="M210.875 195.974c-4.288.594-7.594 4.265-7.594 8.717 0 .383.033.757.08 1.126l8.732-1.126-1.218-8.717Z" />
   <path fill="#FECE71"
      d="M217.067 197.421a8.77 8.77 0 0 0-4.975-1.541 8.88 8.88 0 0 0-1.217.094l1.217 8.717 4.975-7.27Z" />
   <path fill="#435D88" d="m217.068 197.421-4.974 7.27 8.467-2.418a8.823 8.823 0 0 0-3.493-4.852Z" />
   <path fill="#E7F6F8" d="M334.552 189.122h-39.829V218.7h39.829v-29.578Z" />
   <path fill="#CEEDF0"
      d="M331.61 212.052h-34.731v3.255h34.731v-3.255ZM331.61 205.91h-34.731v3.254h34.731v-3.254ZM331.61 199.299h-34.731v3.255h34.731v-3.255ZM331.61 192.822h-34.731v3.254h34.731v-3.254Z" />
   <path fill="#FECE71"
      d="m298.684 215.222 1.46-3.514 2.352-2.046 2.494-5.44 2.208-2.4 2.351 2.066 2.351 5.339 2.388-2.654 2.314-7.005 2.489-2.463 2.103 2.665 2.461 4.118 2.352 4.522 2.351-1.009 1.563 7.905-31.237-.084Z" />
   <path fill="#4195C9"
      d="m298.684 215.253 1.46-2.2 2.352-1.281 2.494-3.406 2.208-1.502 2.351 1.293 2.351 3.343 2.388-1.662 2.314-4.385 2.489-1.543 2.103 1.669 2.461 2.578 2.352 2.831 2.351-.632 1.563 4.95-31.237-.053Z" />
   <path fill="#E7F6F8" d="M290.871 189.121h-46.984V218.7h46.984v-29.579Z" />
   <path fill="#CEEDF0"
      d="M287.602 213.005H247.41v2.641h40.192v-2.641ZM287.602 207.723H247.41v2.641h40.192v-2.641ZM287.602 202.44H247.41v2.641h40.192v-2.641ZM287.602 197.158H247.41v2.641h40.192v-2.641ZM287.602 191.875H247.41v2.641h40.192v-2.641Z" />
   <path fill="#F47954"
      d="M250.3 209.827h-2.12v4.026h2.12v-4.026ZM268.604 205.085h-2.12v8.768h2.12v-8.768ZM274.706 192.52h-2.12v21.333h2.12V192.52ZM280.808 201.806h-2.12v12.047h2.12v-12.047ZM286.909 206.096h-2.12v7.757h2.12v-7.757ZM256.401 202.212h-2.12v11.641h2.12v-11.641ZM262.503 201.806h-2.12v12.047h2.12v-12.047Z" />
   <path fill="#4195C9"
      d="M250.3 211.627h-2.12v4.019h2.12v-4.019ZM268.604 206.895h-2.12v8.752h2.12v-8.752ZM274.706 195.354h-2.12v20.293h2.12v-20.293ZM280.808 203.622h-2.12v12.025h2.12v-12.025ZM286.909 207.903h-2.12v7.743h2.12v-7.743ZM256.401 204.027h-2.12v11.619h2.12v-11.619ZM262.503 203.622h-2.12v12.025h2.12v-12.025Z" />
   <path fill="#F47954" d="m273.646 190.984-1.783 1.783h3.565l-1.782-1.783Z" />
   <path fill="#E7F6F8" d="M290.871 155.096h-91.949v30.438h91.949v-30.438Z" />
   <path fill="#4195C9"
      d="M235.646 166.849c-1.037-4.899-5.385-8.576-10.594-8.576-4.698 0-8.696 2.993-10.196 7.176a4.057 4.057 0 0 0-5.333 3.849c0 .234.025.462.062.685a5.386 5.386 0 1 0-.775 10.651c.066.005.132.01.2.01h26.322c.011 0 .021-.003.033-.003.043 0 .085.003.128.003a6.9 6.9 0 0 0 .153-13.795Z" />
   <path fill="#64AADA"
      d="M206.926 175.702c0-2.451 1.523-4.299 3.877-4.299.054 0 .107.006.16.008a4.42 4.42 0 0 0-.777-.073 4.39 4.39 0 0 0-.681 8.728c-1.72-.572-2.579-2.385-2.579-4.364ZM239.076 173.186c0-3.066-1.285-5.586-6.216-5.549-.485-4.63-3.918-8.094-8.165-8.094-2.903 0-5.547 2.195-7.156 4.357a8.776 8.776 0 0 1 6.499-2.869c4.232 0 7.767 2.988 8.61 6.97a5.607 5.607 0 0 1 4.162 9.217c1.198-1.032 2.266-2.326 2.266-4.032Z" />
   <path fill="#64AADA"
      d="M214.99 166.129a3.783 3.783 0 0 0-.491-.035c-1.032-.002-2.163.5-2.735 1.44-.744 1.224-.621 2.428-.452 3.172.013.003.109.153.121.155a6.862 6.862 0 0 1-.091-.854c.001-2.116 1.627-3.832 3.648-3.878Z"
      opacity=".5" />
   <path fill="#64AADA"
      d="M221.29 177.274s-2.516-3.156-.82-6.524c1.696-3.369 5.427-4.539 9.441-2.004 0 0-5.955-2.294-8.16 1.918-2.206 4.211-.461 6.61-.461 6.61Z" />
   <path fill="#C8E5F7"
      d="m223.846 170.887-5.252 5.252h10.503l-5.251-5.252ZM226.187 176.723h-4.683v.73h4.683v-.73ZM226.187 177.829h-4.683v.73h4.683v-.73ZM226.187 179.031h-4.683v.538h4.683v-.538ZM226.187 180.185h-4.683v.442h4.683v-.442ZM226.187 181.348h-4.683v.33h4.683v-.33ZM226.187 182.507h-4.683v.225h4.683v-.225ZM226.187 183.639h-4.683v.173h4.683v-.173Z" />
   <path fill="#CEEDF0" d="M285.851 165.862h-24.906v3.34h24.906v-3.34Z" />
   <path fill="#F47954" d="M275.087 169.201h-14.146v-3.339h14.146l1.37 1.67-1.37 1.669Z" />
   <path fill="#3D95D1"
      d="M250.74 165.754c-.101 0-.213 0-.353.016-.759.089-1.129.56-1.219 1.063h.018c.179-.207.452-.352.816-.352.626 0 1.113.447 1.113 1.185 0 .693-.508 1.297-1.28 1.297-.884 0-1.37-.671-1.37-1.565 0-.7.251-1.27.632-1.633.334-.313.771-.492 1.291-.537a1.89 1.89 0 0 1 .347-.011l.005.537Zm-.324 1.951c0-.419-.229-.721-.632-.721a.67.67 0 0 0-.593.375.464.464 0 0 0-.044.218c.011.48.24.872.681.872.358 0 .588-.308.588-.744ZM254.082 167.061c0 1.169-.459 1.901-1.326 1.901-.838 0-1.285-.76-1.291-1.867 0-1.13.481-1.89 1.331-1.89.877.001 1.286.783 1.286 1.856Zm-1.924.034c-.005.884.24 1.342.621 1.342.402 0 .614-.493.614-1.365 0-.844-.2-1.341-.614-1.341-.369.001-.626.453-.621 1.364ZM256.295 166.285c0 .767-.448 1.152-.946 1.152-.508 0-.921-.391-.927-1.091 0-.687.397-1.14.956-1.14.576 0 .917.424.917 1.079Zm-1.347.04c-.006.419.145.727.419.727.273 0 .408-.292.408-.733 0-.403-.112-.727-.408-.727-.28 0-.419.324-.419.733Zm.413 2.638 2.107-3.757h.392l-2.108 3.757h-.391Zm3.439-1.169c0 .761-.442 1.152-.946 1.152-.502 0-.921-.391-.921-1.097 0-.681.397-1.14.95-1.14.575 0 .917.431.917 1.085Zm-1.347.04c-.006.413.145.727.419.727.279 0 .408-.292.408-.733 0-.408-.112-.727-.408-.727-.28 0-.419.324-.419.733Z" />
   <path fill="#CEEDF0" d="M285.851 173.457h-24.906v3.339h24.906v-3.339Z" />
   <path fill="#4195C9" d="M280.01 176.795h-19.065v-3.338h19.065l1.372 1.669-1.372 1.669Z" />
   <path fill="#3D95D1"
      d="M248.477 176.154c0-.453.262-.76.681-.945v-.017c-.379-.185-.553-.487-.553-.805 0-.593.526-.995 1.214-.995.783 0 1.14.47 1.14.917 0 .307-.162.626-.559.821v.018c.397.151.693.464.693.917 0 .648-.548 1.084-1.325 1.084-.849-.001-1.291-.486-1.291-.995Zm1.918-.034c0-.368-.274-.57-.677-.682-.341.101-.536.336-.536.638-.012.308.223.588.608.588.364-.001.605-.231.605-.544Zm-1.135-1.76c0 .295.247.475.593.57.246-.073.452-.274.452-.548 0-.252-.151-.514-.519-.514-.347-.001-.526.228-.526.492ZM254.082 175.248c0 1.168-.459 1.9-1.326 1.9-.838 0-1.285-.759-1.291-1.867 0-1.128.481-1.889 1.331-1.889.877 0 1.286.783 1.286 1.856Zm-1.924.033c-.005.884.24 1.342.621 1.342.402 0 .614-.492.614-1.364 0-.845-.2-1.342-.614-1.342-.369 0-.626.453-.621 1.364ZM256.299 174.471c0 .766-.448 1.152-.946 1.152-.508 0-.921-.392-.927-1.091 0-.687.397-1.14.956-1.14.575 0 .917.424.917 1.079Zm-1.347.039c-.006.419.145.727.419.727.273 0 .408-.291.408-.733 0-.402-.112-.727-.408-.727-.28 0-.419.325-.419.733Zm.413 2.638 2.107-3.756h.392l-2.108 3.756h-.391Zm3.439-1.167c0 .76-.442 1.152-.946 1.152-.503 0-.922-.392-.922-1.097 0-.681.398-1.14.951-1.14.575 0 .917.43.917 1.085Zm-1.348.039c-.005.413.146.727.419.727.28 0 .409-.291.409-.733 0-.408-.112-.727-.409-.727-.279 0-.419.325-.419.733Z" />
   <path fill="#F8AF98"
      d="m172.822 174.783 4.663-.568.651-.507.265-1.696.023-.887-.457-1.587-.131-1.289a2.284 2.284 0 0 0-1.485-1.913l-1.427-.524-2.145.666-1.513 1.006.099 3.427 1.143 2.171.314 1.701Z" />
   <path fill="#F8AF98"
      d="m173.959 177.349 1.687-.125a.868.868 0 0 0 .802-.931l-.41-3.437-3.421.253.411 3.437a.87.87 0 0 0 .931.803Z" />
   <path fill="#B75B3F"
      d="m177.189 166.835-1.103.489.438.686-.041 1.456.078 1.172-.263.085-.368-.593-.355.191-.007.832.371.897-.884 1.073-2.549.368-1.347-2.845-.35-2.589 1.275-1.692 2.755-1.09 1.571.156 1.401.7-.622.704Z" />
   <path fill="#FECE71"
      d="M169.204 203.971h13.447l-.001-.646.581-.982-.541-1.42s-.052-1.757-.107-4.983c-.039-2.276.459-6.355.312-9.334-.241-4.886-.829-6.755-1.487-9.276-.456-1.742-2.75-1.299-2.75-1.299l-7.312.393c-4.265.688-5.162 3.226-4.316 9.508l1.507 10.347.169 1.361-.631 4.722.888.882.241.727Z" />
   <path fill="#26354D"
      d="M185.36 256.425h-.088l-.019.437h-2.093l.057-.578.068-.001-.001-.006.478-2.127h2.172l.046.28.531.735 3.172.909s.251.108.246.246l-.01.25-.005.151s-.039.067-.298.142h-3.639l-.219-.293-.215-.134-.183-.011ZM168.121 256.425h-.087l-.02.437h-2.092l.057-.578.068-.001-.002-.006.478-2.127h2.172l.046.28.53.735 3.173.909s.25.108.245.246l-.009.25-.006.151s-.038.067-.297.142h-3.639l-.219-.293-.215-.134-.183-.011Z" />
   <path fill="#2A2A3B" d="m184.664 257.832.102.004v-.004h-.102Z" />
   <path fill="#4195C9"
      d="m168.982 254.4-3.228-.25 1.69-24.891.722-19.868-.124-2.493.849-2.158-.03-1.199h7.988l-.206 2.241-3.995 24.436-3.666 24.182Z" />
   <path fill="#4195C9"
      d="m186.206 254.412-3.284.17-3.515-24.474-4.384-24.954v-1.613h7.798l.335 2.657 1.511 23.352 1.539 24.862Z" />
   <path fill="#F8AF98"
      d="m199.774 166.74-.661.14-.307.578-.318.975 1.026-1.114.03-.14.247-.13.232-.224-.249-.085ZM201.656 167.977l-.355-.42.46-.641a.227.227 0 0 1 .324-.006.228.228 0 0 1 .008.324l-.437.743ZM202.287 167.382c.185.139.082.354.051.432-.11.285-.24.63-.24.63l-.081.107-.279-.557s.165-.365.307-.524c.048-.054.125-.177.242-.088ZM201.293 167.462l-.43-.404.609-.59a.23.23 0 0 1 .342.307l-.521.687ZM200.803 167.012l1.436-1.876a.231.231 0 0 0-.348-.304l-1.625 1.759.537.421Z" />
   <path fill="#F8AF98"
      d="m200.309 166.551-.577.555-.23.192-.875.731-.31.916-2.251 3.47 1.889 1.063 2.113-2.914 1.231-1.059.792-1.052c-.129-.719-.847-1.389-.847-1.389-.522-.496-.879-.513-.935-.513Z" />
   <path fill="#B97373" d="m199.426 167.383.083-.225.423-.237-.506.462Z" />
   <path fill="#FECE71"
      d="m199.676 171.875-2.539-1.667-5.408 6.94L179.623 176c-.781.225-1.149.787-1.519 1.275a2.455 2.455 0 0 0-.407 2.148l.059.211c.176.621.488.873 1.057 1.176l.108.27c.509.271.975-.061 1.551-.048 4.449.102 12.318-.071 12.318-.071l.927-.591 5.959-8.495Z" />
   <path fill="#F8AF98"
      d="m164.401 207.205.532 1.519.156.924-.001.001c0 .002.003.001.003.003 0 0-.005.418-.022.556a.238.238 0 0 1-.066.142v.002l-.001.001c-.003.002-.007.003-.01.006a.167.167 0 0 1-.151.038c-.137-.028-.212-.216-.234-.58l-.037-.176-.007-.04-.001-.003-.139-.304-.004.003-.093-.14-.072.795c-.042.033-.315.226-.987.16 0 0-.916-.081-1.427-.536l.119-1.892.31-.915.396-3.915 2.185.281-.449 4.07Z" />
   <path fill="#F8AF98"
      d="m162.644 211.967-.008.059a.217.217 0 0 1-.245.182.217.217 0 0 1-.182-.245l.011-.077.233-2.163.499.127-.308 2.117ZM162.054 211.308a.215.215 0 1 1-.426-.067l.021-.132.201-1.644.514.236-.294 1.508-.016.099ZM163.317 212.404a.217.217 0 0 1-.236.193.216.216 0 0 1-.193-.237l.001-.018.173-2.481.549.068-.292 2.447-.002.028ZM164.109 212.071l-.008.149a.217.217 0 0 1-.228.204.216.216 0 0 1-.205-.227l.004-.072.046-2.201.54-.047-.149 2.194Z" />
   <path fill="#1A2C3D" d="m164.326 209.159-.557-.451-.242-.833.203.908.596.497v-.121Z" opacity=".1" />
   <path fill="#FECE71"
      d="M171.362 180.438c-.113.906-.514 2.138-.514 2.138l-4.34 12.679-1.566 10.914-3.079-.261.715-11.052.164-1.064s2.983-12.458 4.7-15.062c.317-.48 1.271-1.067 2.037-.82.988.318 2.088.884 1.883 2.528ZM172.787 175.762l3.631-.189.264.597-4.088.219.193-.627Z" />
   <path fill="#fff"
      d="M178.522-.427c-2.577-12.172-13.378-21.306-26.317-21.306-11.673 0-21.606 7.434-25.331 17.826a10.05 10.05 0 0 0-3.169-.516c-5.566 0-10.078 4.512-10.078 10.079 0 .58.06 1.146.154 1.7a13.417 13.417 0 0 0-2.717-.276c-7.39 0-13.38 5.991-13.38 13.381 0 7.39 5.99 13.382 13.38 13.382.266 0 .529-.01.79-.025.164.012.329.025.497.025h65.392c.028 0 .053-.007.08-.009.106.002.212.009.318.009 9.467 0 17.14-7.674 17.14-17.14 0-9.339-7.47-16.927-16.759-17.13Z" />
   <path fill="#E9F5FC"
      d="M107.179 21.566c0-6.088 3.782-10.68 9.628-10.68.135 0 .266.015.399.02a10.883 10.883 0 0 0-1.929-.18c-6.028 0-10.914 4.885-10.914 10.912 0 5.45 3.999 9.954 9.221 10.77-4.27-1.422-6.405-5.926-6.405-10.842ZM187.052 15.315c0-7.615-3.192-13.879-15.444-13.785-1.203-11.504-9.731-20.109-20.283-20.109-7.212 0-13.779 5.452-17.778 10.823 3.997-4.378 9.748-7.127 16.144-7.127 10.516 0 19.295 7.424 21.39 17.316 7.549.165 13.62 6.332 13.62 13.922 0 3.42-1.235 6.55-3.28 8.975 2.976-2.563 5.631-5.779 5.631-10.015Z" />
   <path fill="#EBF8F9"
      d="M127.212-2.219a9.454 9.454 0 0 0-1.218-.087c-2.562-.004-5.374 1.243-6.795 3.58-1.848 3.04-1.543 6.032-1.122 7.879.03.006.27.379.3.385-.087-.53-.225-1.568-.225-2.123.001-5.255 4.04-9.52 9.06-9.634Z"
      opacity=".5" />
   <path fill="#E9F5FC"
      d="M142.867 25.472s-6.249-7.84-2.037-16.209c4.214-8.368 13.483-11.276 23.454-4.977 0 0-14.797-5.7-20.274 4.763-5.476 10.465-1.143 16.423-1.143 16.423Z" />
   <path fill="#4195C9"
      d="m146.485 13.822-15.102 15.103h30.205l-15.103-15.103ZM153.218 30.604H139.75v2.1h13.468v-2.1ZM153.218 33.785H139.75v2.102h13.468v-2.102ZM153.218 37.243H139.75v1.548h13.468v-1.548ZM153.218 40.562H139.75v1.274h13.468v-1.274ZM153.218 43.907H139.75v.948h13.468v-.948ZM153.218 47.238H139.75v.648h13.468v-.648ZM153.218 50.494H139.75v.498h13.468v-.498Z" />
   <path fill="#FBCDA6"
      d="m408.018 194.662-.216 1.701-.478.51-.556.781-.327 2.007.434.211.383-1.148.163.087-.634 2.172 1.574-.333 1.032-1.77.147-.884-.076-1.503.34-1.557-1.786-.274Z" />
   <path fill="#85D2DA"
      d="m410.588 189.613-.139.093c-.886.535-1.662.09-2.602-.918-2.173-2.329-5.066-4.728-7.206-7.537-1.114-1.461-.493-2.389.15-3.148l.126-.141c.973-.887 2.143-.167 2.891.677 2.586 2.923 7.143 8.386 7.143 8.386.608.947.522 2.054-.363 2.588Z" />
   <path fill="#85D2DA"
      d="m409.937 195.889-2.222-.447s.491-3.338.417-6.639c-.032-1.449.367-2.4 1.399-2.353 1.032.049 2.056.721 1.792 2.432-.403 2.603-1.386 7.007-1.386 7.007Z" />
   <path fill="#26354D"
      d="m399.041 196.761-41.381-20.829 2.805-5.631 41.382 20.83a.189.189 0 0 1 .085.254l-2.634 5.29a.191.191 0 0 1-.257.086Z" />
   <path fill="#F47954"
      d="m407.078 202.19-38.701-19.382a1.8 1.8 0 0 1-.809-2.413l2.428-4.877a1.8 1.8 0 0 1 2.414-.808l38.7 19.382c1.011.581 1.618.842 1.175 1.732l-3.142 6.353c-.442.89-1.175.457-2.065.013Z" />
   <path fill="#26354D"
      d="M333.035 136.908c-.711.175-1.419.379-2.122.616-14.001 4.692-21.574 19.9-16.882 33.9 4.692 14.002 19.906 21.568 33.9 16.881 14-4.692 21.574-19.899 16.881-33.9-4.454-13.296-18.395-20.795-31.777-17.497Zm13.345 46.769c-11.443 3.832-23.885-2.355-27.722-13.804-3.837-11.448 2.356-23.884 13.805-27.722a21.61 21.61 0 0 1 1.735-.504c10.943-2.696 22.343 3.436 25.986 14.309 3.838 11.448-2.355 23.884-13.804 27.721Z" />
   <path fill="#fff"
      d="M362.014 157.348c3.074 12.477-4.548 25.084-17.026 28.158-12.477 3.074-25.084-4.548-28.159-17.025-3.074-12.477 4.549-25.085 17.026-28.159 12.477-3.073 25.085 4.549 28.159 17.026Z"
      opacity=".3" />
   <path fill="#4195C9"
      d="M360.63 157.689c2.885 11.713-4.27 23.547-15.983 26.433-11.713 2.886-23.547-4.269-26.433-15.982-2.887-11.712 4.269-23.547 15.982-26.433 11.713-2.886 23.548 4.269 26.434 15.982Z"
      opacity=".3" />
   <path fill="#fff"
      d="M358.374 158.245c2.579 10.467-3.816 21.043-14.283 23.622-10.467 2.579-21.043-3.815-23.621-14.283-2.579-10.467 3.815-21.043 14.282-23.621 10.468-2.58 21.043 3.815 23.622 14.282Z"
      opacity=".2" />
   <path fill="#fff"
      d="M341.079 153.113c7.007.135 13.251 2.276 17.478 5.556-.034-.149-.062-.297-.098-.445-2.591-10.514-13.213-16.937-23.726-14.347-8.402 2.07-14.186 9.272-14.85 17.446 3.897-5.026 11.953-8.387 21.196-8.21Z"
      opacity=".5" />
   <path fill="#F8AF98"
      d="M411.167 199.186c-1.043 2.135-2.235 3.696-2.662 3.488-.428-.21.071-2.109 1.114-4.245 1.043-2.135 2.235-3.696 2.662-3.487.428.208-.07 2.109-1.114 4.244ZM397.566 174.741l-2.855.167.267 4.567 2.855-.167-.267-4.567Z" />
   <path fill="#FBCDA6" d="m400.274 177.61-8.231.481.274 4.686 8.231-.482-.274-4.685Z" />
   <path fill="#F8AF98"
      d="M392.327 172.219c-.186 2.03 1.066 3.804 2.798 3.963 1.731.158 3.285-1.358 3.472-3.388.027-.287.521-3.968.492-4.241l-1.232-1.212-2.513-.94-2.121.4c-.022.075-.829.691-.901 1.98-.067 1.198.024 3.232.005 3.438Z" />
   <path fill="#00466E"
      d="M392.227 167.177c-.586-1.119-.204-1.857.191-2.18.198-.162.838-.448 2.342.017 1.504.467 1.497-.278 2.411.083 1.445.571 2.786 2.475 2.775 4.062-.008 1.201-.653 2.638-.967 3.269l-.405 1.303a1.18 1.18 0 0 1-1.059.827l-.897.051c-.437.025-.631.142-1.073-.036l-.243-.137c-.431-.323-.66-.805-.803-1.385l-.169-1.245s.206-.825.186-.996c-.021-.173-.323-.565-.485-.502-.241.092-.191.842-.431.933-.097.037-.339-.07-.378-.165-.102-.25-.137-.836-.066-1.405.012-.094-.225-.242-.214-.336.06-.482.346-1.003.186-1.275-.172-.298-.611-.328-.901-.883Z" />
   <path fill="#F8AF98"
      d="m375.394 184.519-1.644-.384-.357-.602-.597-.75-1.836-.871-.323.358.997.687-.13.131-1.91-1.212-.117 1.606 1.413 1.482.808.386 1.465.345 1.579.488.652-1.664Z" />
   <path fill="#85D2DA"
      d="m379.683 187.362-.081-.146c-.458-.927.051-1.664 1.134-2.515 2.505-1.969 5.139-4.649 8.119-6.544 1.55-.986 2.68-.365 3.125.416l.063.11c.7 1.377.052 2.178-.853 2.851-3.13 2.33-8.959 6.409-8.959 6.409-.994.525-2.09.346-2.548-.581Z" />
   <path fill="#85D2DA"
      d="m373.484 186.182.633-2.177s3.285.771 6.58.976c1.447.091 2.361.569 2.226 1.593-.135 1.024-.892 1.988-2.573 1.58-2.56-.621-6.866-1.972-6.866-1.972ZM394.485 177.504l-.359.021s-2.671-.028-3.54.061c-2.128.219-3.003 2.196-2.902 3.911l1.959 10.843.171 2.932.155 5.655-.311 1.869.578 1.18.044 1.288h14.218l.014-.817.378-1.002-.686-9.562-.245-6.882.439-5.773c-.072-1.23-.482-3.283-2.271-3.724-.952-.235-3.913-.239-3.913-.239s-1.383.339-1.848.367c-.533.031-1.881-.128-1.881-.128Z" />
   <path fill="#222F44"
      d="M381.514 256.112h.084l.018.418h2.003l-.054-.554-.065-.001.002-.006-.006-2.035h-2.079l-.044.268-.96.704-3.038.869s-.239.104-.234.235l.008.241.005.144s.037.064.285.136h3.483l.21-.28.205-.129.177-.01ZM400.867 256.112h.083l.019.418h2.003l-.054-.554-.066-.001.001-.006-.457-2.035h-2.079l-.044.268-.509.704-3.037.869s-.24.104-.235.235l.009.241.005.144s.036.064.284.136h3.483l.211-.28.205-.129.178-.01Z" />
   <path fill="#435D88"
      d="m404.606 204.787-14.509-.339.016 1.451-.776 4.248-4.639 22.843-3.85 20.944 3.335.553 5.515-20.386 6.199-19.894.267-.441 1.861 20.029 1.706 20.206 3.24.18.174-20.824 1.746-20.987.59-3.538-.873-2.275-.002-1.77Z" />
   <path fill="#26354D"
      d="M261.944 80.873s-.871-.15-1.902.156c-1.283.381-2.275 1.147-2.611 2.368-.546 1.988.484 2.11 1.193 2.536.71.426-1.263 2.827.464 3.528 1.727.701-.496.84.224 2.044.719 1.203 1.773 1.621 3.556 1.15 1.784-.473 2.785-1.394 3.968-1.422 1.182-.027 2.992.866 4.01-.626.519-.758.561-2.44-.334-3.227-1.656-1.455-3.092.381-4.042-3.276-.493-1.899-2.189-1.924-2.668-2.267-.479-.343.095-.7-1.858-.964Z" />
   <path fill="#F8AF98"
      d="m248.888 103.777.639-.047.669.139 3.302 1.977 1.287-1.615-3.297-2.024-1.25-.772-1.121-.738-1.551.199-.69.649s-.747.415-.765.5c-.021.097.218.216.218.216l1.058-.311.546.475.112.177.061.096.782 1.079Z" />
   <path fill="#00466E"
      d="m245.877 103.19 6.105-1.631s.079-.087.083-.105c.042-.172-.062-.486-.192-.606a.606.606 0 0 0-.102-.036l-6.095 1.627.201.751ZM244.833 103.099a.302.302 0 0 0-.043-.167s-.294.069-.278.145c.017.079.321.022.321.022Z" />
   <path fill="#FCCA85" d="m244.809 103.117 1.068.071-.2-.75-.919.482a.356.356 0 0 1 .051.197Z" />
   <path fill="#FCCA85"
      d="M245.679 102.438c.065-.018.163.135.219.343.055.207.048.389-.018.406-.065.018-.162-.136-.218-.343-.055-.207-.048-.389.017-.406Z" />
   <path fill="#F8AF98"
      d="M247.536 102.776s-.27-.2-.371-.249a.83.83 0 0 0-.214-.054c-.079-.007-.291.024-.301.104-.037.304.791.887.791.887l.997.346.449-.032-.566-1.028-.785.026Z" />
   <path fill="#4195C9"
      d="m258.256 109.691-.164-.044c-.997-.319-1.373-1.171-1.231-2.557.328-3.206.941-9.313 1.657-12.812.372-1.82 1.416-2 2.423-2.016l.191.002c1.324.151 2.032 1.96 1.599 4.153a1976.327 1976.327 0 0 0-2.263 11.827c-.315 1.095-1.216 1.766-2.212 1.447Z" />
   <path fill="#4195C9"
      d="m251.207 104.68 1.144-2.325s3.928 2.512 6.54 3.995c1.275.723 1.693 1.588 1.179 2.499-.513.91-1.432 1.379-2.892.285-2.34-1.752-5.971-4.454-5.971-4.454Z" />
   <path fill="#FCCA85"
      d="m247.771 128.603 2.087 5.587-.767.318-2.392 1.073v.565l5.119.024.395-.522.064-.845-1.792-6.539-2.714.339Z" />
   <path fill="#3D95D1"
      d="m248.599 134.503.481-.223-.047 1.005 2.594-.561.859-.385-.059.534.198 1.005-.277.47-1.472-.057h-5.638l-.164-.396 3.525-1.392Z" />
   <path fill="#FCCA85"
      d="m272.742 136.062 6.393-.345 2.372-.093 2.536-.057 2.171.237.062-.349-4.933-2.439-1.759-1.049-.542.245-.257 1.437-5.568-.383-.475 2.796Z" />
   <path fill="#3D95D1"
      d="m282.119 135.712-.529.016.438-.906-2.607-1.254-.741.014.147-.501.129-.965.492-.364 1.261.706 2.112 1.184 3.64 1.811-.005.428-2.434-.236-1.903.067Z" />
   <path fill="#F8AF98" d="m262.741 87.762-2.186.923 2.578 6.13 2.186-.922-2.578-6.13Z" />
   <path fill="#F8AF98"
      d="M258.342 87.36c.287 1.668 1.673 2.821 3.094 2.576 1.422-.245 2.342-1.795 2.055-3.463-.025-.145-.33-2.775-.468-3.735a1.247 1.247 0 0 0-1.373-1.062l-2.386.263c-.785.47-1.37 1.197-1.306 2.045.081 1.09.356 3.216.384 3.377Z" />
   <path fill="#F47954"
      d="M279.371 122.855c.243-.395.417-.828.515-1.282l.051-.238c.089-.417.114-.844.071-1.268l-.023-.238a4.128 4.128 0 0 0-.159-.793l-.718-2.343-.499-1.938-7.063 1.022-5.442.616.098 4.663-13.607 9.941c-1.267.742-2.192 2.282-1.55 3.602l.09.175c.675 1.387 2.039 1.552 3.433.89l21.525-10.19c.276-.13.54-.285.79-.461l1.362-.961a4.069 4.069 0 0 0 1.126-1.197Z" />
   <path fill="#F47954"
      d="m274.385 132.983-20.807-1.698a2.536 2.536 0 1 0-.2 5.063l20.878-.053.129-3.312ZM278.051 124.03l.463-.389a3.97 3.97 0 0 0 .643-.69l.01-.014a3.906 3.906 0 0 0 .661-3.109l-.547-2.567-.726-2.37-2.266.112-10.801.404v1.11l-19.212-4.003c-1.444-.265-3.15.298-3.526 1.717l-.045.191c-.395 1.492.53 2.508 2.019 2.916l24.384 7.312 6.247.293a3.908 3.908 0 0 0 2.696-.913Z" />
   <path fill="#F47954" d="m251.622 131.903-3.997-17.441a2.536 2.536 0 1 0-4.895 1.31l5.77 16.131h3.122Z" />
   <path fill="#4195C9"
      d="M262.151 106.956s-2.641-4.043-3.007-6.038c-.373-2.033-1.187-6.874 0-8.025.597-.578 1.356-.754 1.356-.754l1.337-.412.309.594c.272.525.681.694 1.224.525l.146-.043c.585-.181.881-.67.786-1.273l-.172-.463s2.761-.63 3.753-.627c2.218.006 3.094 1.673 3.408 3.148l1.375 5.04s1.336 5.089 1.919 6.784c.567 1.653 1.529 3.844 1.529 3.844l3.395 4.728-.707 1.523-13.369.825-.673-.492s.025-3.424-.3-4.473c-.366-1.19-2.309-4.411-2.309-4.411Z" />
   <path fill="#85D2DA" d="M256.006 114.091H245.55l-6.999-10.538h10.457l6.998 10.538Z" />
   <path fill="#F8AF98"
      d="m252.016 108.066.343-.03-.144.158-.941.271-1.626.262.261.305.249.059 1.062 1.307 1.574-.039 1.667-.452 7.08-.988.44-2.445-7.244 1.439-.909-.192-1.037-.351-1.118.179.343.517Z" />
   <path fill="#4195C9"
      d="m265.896 108.238-.163-.045c-.994-.328-1.364-1.182-1.212-2.568.353-3.203 1.015-9.305 1.757-12.798.387-1.817 1.433-1.99 2.439-1.997l.191.004c1.323.16 2.018 1.976 1.567 4.165-.772 3.75-2.355 11.81-2.355 11.81-.325 1.091-1.23 1.756-2.224 1.429Z" />
   <path fill="#4195C9"
      d="m258.651 109.547-.839-2.45s4.553-1.01 7.447-1.812c1.414-.393 2.32-.077 2.603.929.282 1.005-.035 1.988-1.84 2.25-2.893.42-7.371 1.083-7.371 1.083Z" />
   <path fill="#26354D"
      d="M260.96 84.362s-2.592-.685-2.177-2.177c.482-1.731 4.451-2.335 5.461-.674.675 1.111 2.469-.168 3.201 3.302.533 2.528 1.544.725 3.469 2.329 1.929 1.608 1.403 6.174-.92 6.136-1.521-.025-1.36-1.05-2.965-2.082-1.605-1.033-3.9 1.06-3.874-2.439.014-1.767-.736-1.802-.604-2.436.441-2.116-.367-2.16-.626-1.297-.214.718-.965-.662-.965-.662Z" />
   <path fill="#317097"
      d="M267.747 107.575a1.473 1.473 0 0 1-.412.419 1.788 1.788 0 0 1-.295.178 1.63 1.63 0 0 1-.175.069 3.748 3.748 0 0 1-.842.223c-.835.121-1.803.263-2.757.403l.504.966s1.733-.299 3.039-.675c1.305-.374 2.199-1.651 2.299-2.354.099-.703 1.368-11.803 1.368-11.803-.772 3.75-2.355 11.809-2.355 11.809a2.525 2.525 0 0 1-.374.765Z" />
   <path fill="#4195C9"
      d="M27.707 233.165H-.113A3.566 3.566 0 0 1-3.68 229.6v-20.843a3.567 3.567 0 0 1 3.567-3.567h27.82a3.567 3.567 0 0 1 3.566 3.567V229.6a3.565 3.565 0 0 1-3.566 3.565Z" />
   <path fill="#317097"
      d="M27.708 205.19H13.797a3.567 3.567 0 0 1 3.566 3.567V229.6a3.566 3.566 0 0 1-3.566 3.565h13.91a3.566 3.566 0 0 0 3.566-3.565v-20.843a3.566 3.566 0 0 0-3.565-3.567Z"
      opacity=".4" />
   <path fill="#26354D"
      d="M48.129 231.818h-.092l-.024.46-2.2-.02.065-.608.071-.001-.001-.006.106-2.237 2.205.02.046.295 1.047.783 3.33.984s.261.117.255.26l-.012.264-.007.159s-.04.07-.314.146l-3.827-.034-.228-.31-.224-.144-.196-.011Z" />
   <path fill="#324666"
      d="m42.706 200.09-21.32-1.687-.491 6.782 21.078 1.335 3.538 23.37 3.078-.303-1.332-22.544c-.05-1.042-.251-6.58-4.551-6.953Z" />
   <path fill="#26354D"
      d="m40.715 232.665-.092-.001-.024.46-2.2-.019.065-.609.071-.001-.002-.006.106-2.237 2.205.02.046.295 1.047.783 3.328.984s.262.117.256.261l-.012.264-.007.159s-.04.07-.314.146l-3.827-.034-.228-.31-.224-.144-.194-.011Z" />
   <path fill="#435D88"
      d="m41.296 230.323-3.014.181-4.426-23.91-21.522-1.404-1.783-2.392.994-3.675.315-2.138h11.592l-.233 1.676 13.302 2.102c2.493.618 3.682 3.373 3.6 7.059l1.175 22.501Z" />
   <path fill="#FBCDA6"
      d="m36.968 194.396 2.209 1.165 2.615.055 2.024 1.362.436 1.773-.809.067-.837-.951-1.979.233-1.496-.546-2.97-1.134.807-2.024Z" />
   <path fill="#F47954"
      d="m30.396 194.769.183-.021c1.119-.192 1.4-1.424 1.46-2.935.136-3.494.415-9.852.291-13.725-.076-2.373-1.493-2.527-2.07-2.479l-.293.004c-1.445-.04-2.025 2.227-1.894 4.647.224 4.148.168 12.62.168 12.62.172 1.222 1.036 2.08 2.155 1.889Z" />
   <path fill="#F47954"
      d="m37.132 197.067 1.426-1.998s-2.933-1.424-6.743-3.175c-1.446-.664-2.835-.78-3.247.277-.413 1.056-.196 2.382 1.636 2.881 2.79.76 6.928 2.015 6.928 2.015Z" />
   <path fill="#F8AF98" d="m26.992 171.2-1.762 5.547 2.995.951 1.761-5.547-2.994-.951Z" />
   <path fill="#F8AF98"
      d="M33.294 169.318c-.033 2.239-1.609 4.031-3.519 4.002-1.91-.028-3.43-1.867-3.397-4.107.005-.316-.105-4.395-.042-4.69l1.487-1.18 2.855-.733 2.27.685c.016.084.825.852.754 2.268-.066 1.317-.404 3.529-.408 3.755Z" />
   <path fill="#004E72"
      d="M33.365 169.088c-.318.152-2.085.553-2.431.521a15.253 15.253 0 0 1-2.195-.353.985.985 0 0 1-.736-.827l-.197-1.44-.376.04-.474 2.149-.386 1.361s.181.699.532 1.257c.421.669.959 1.162 1.633 1.355.358.104 1.127.208 1.48.179.53-.044 1.074-.313 1.384-.486 1.691-.942 1.765-2.682 1.766-3.756Z" />
   <path fill="#004E72"
      d="m26.153 169.145.228.25s.05-.348.166-.84c.07-.299-.225-2.395.49-2.349.292.019.375.906.375.906l.425.11s-.149-1.121-.02-1.599c.207-.772.47-1.096.836-.723.57.583 1.935.308 2.957.007 1.022-.302 1.616.069 2.387-1.084.771-1.153.439-2.005.047-2.404-.197-.2-.864-.588-2.561-.254-1.698.334-1.602-.479-2.644-.191-1.645.454-3.332 2.378-3.506 4.113-.174 1.737.82 4.058.82 4.058Z" />
   <path fill="#F8AF98"
      d="M32.282 170.91c.011.249-.439.472-1.005.499-.566.027-1.035-.153-1.046-.402-.012-.249.438-.473 1.004-.499.567-.028 1.035.152 1.047.402Z" />
   <path fill="#F47954"
      d="m24.732 196.886-1.303 1.194-11.94.322-.622-2.536 1.322-2.439 2.199-6.604 2.825-7.303 2.26-4.539c.909-1.853 2.096-1.705 3.817-1.707 1.32-.001 2.783.566 2.783.566s-.03 1.218.167 1.515c.563.851 1.627 1.359 2.386.701.265-.229.46-1.148.46-1.148l.258.173s1.122.34 1.846.591c1.11.385 1.36 2.195.63 3.937-1.373 3.266-1.71 3.368-3.425 6.563-1.215 2.262-3.227 8.624-3.227 8.624l-.436 2.09Z" />
   <path fill="#F8AF98"
      d="m29.66 194.396 2.208 1.165 2.615.055 2.024 1.362.437 1.772-.809.068-.837-.952-1.98.234-1.495-.547-2.971-1.133.808-2.024Z" />
   <path fill="#F47954"
      d="m20.48 192.944.183-.001c1.133-.068 1.759-.862 1.982-2.357.518-3.458 1.28-10.148 1.579-14.011.183-2.367-1.498-2.807-2.077-2.823l-.292-.028c-1.431-.198-2.374 1.646-2.508 4.066-.23 4.148-.804 13.041-.804 13.041.038 1.233.804 2.181 1.936 2.113Z" />
   <path fill="#F47954"
      d="m29.09 196.886 1.475-2.137s-5.25-3.531-8.648-4.991c-1.463-.628-2.446-.601-2.97.403-.526 1.005-.456 2.346 1.311 3.043 2.69 1.06 8.831 3.682 8.831 3.682Z" />
   <path fill="#F69476"
      d="M22.71 190.123c.513-3.563 1.224-9.848 1.51-13.548.184-2.367-1.497-2.807-2.077-2.823l-.292-.028c-1.431-.198-2.374 1.645-2.508 4.067-.23 4.147-.804 13.041-.804 13.041.01.338.08.651.193.933.163.561.62 1.086 1.522 1.442 2.69 1.06 8.831 3.682 8.831 3.682l1.476-2.138c0-.002-4.488-3.02-7.852-4.628Z"
      opacity=".5" />
   <path fill="#F2F2F2"
      d="M48.84 199.634H33.332l3.658-9.845c.151-.408.541-.68.977-.68h13.708c.52 0 .881.52.7 1.008l-3.535 9.517Z" />
   <path fill="#E6E6E6" d="M48.33 200.647H25.839a.639.639 0 0 1-.639-.639v-.476h23.64v.607a.507.507 0 0 1-.508.508Z" />
</svg>