<svg xmlns="http://www.w3.org/2000/svg" width="393" height="287" fill="none">
   <path fill="#ECF4FF"
      d="M184.894 24.943c-19.584 7.39-38.201 23.21-52.864 37.962-30.536 30.718-35.093 37.176-72.764 62.966-21.955 15.03-39.265 27.742-47.794 44.744-23.957 47.757 4.579 99.339 64.374 99.339h243.075s28.593.655 49.458-24.87c70.718-86.516-46.575-271.803-183.485-220.141Z" />
   <path fill="#CCE1F9"
      d="M306.571 66.94h-21.119c-1.385 0-2.518 1.446-2.518 3.212v8.824c0 1.766 1.133 3.211 2.518 3.211h3.077v5.821c0 1.255.717 1.628 1.462.943l7.215-6.626c.051-.047.102-.094.154-.138h9.211c1.385 0 2.518-1.445 2.518-3.211v-8.824c0-1.766-1.133-3.211-2.518-3.211Z" />
   <path fill="#1F3E7A"
      d="M95.347 47.679h129.758c.015 0 .027.012.027.027v79.435a.028.028 0 0 1-.027.028H95.348a.028.028 0 0 1-.028-.028V47.706c0-.015.013-.027.028-.027Z" />
   <path fill="#EB6502"
      d="M148.641 121.445h37.819a.776.776 0 0 0 .773-.774.776.776 0 0 0-.773-.774h-37.819a.777.777 0 0 0-.774.774c0 .426.349.774.774.774Z" />
   <path fill="#fff"
      d="M190.649 121.445h9.284a.776.776 0 0 0 .773-.774.776.776 0 0 0-.773-.774h-9.284a.777.777 0 0 0-.774.774c0 .426.348.774.774.774ZM144.547 118.078h9.284a.777.777 0 0 0 .774-.774.776.776 0 0 0-.774-.774h-9.284a.777.777 0 0 0-.774.774c0 .425.349.774.774.774ZM148.641 114.71h13.926a.777.777 0 0 0 .774-.774.777.777 0 0 0-.774-.774h-13.926a.776.776 0 0 0-.774.774c0 .425.348.774.774.774ZM148.688 111.342h11.423a.776.776 0 0 0 .773-.774.776.776 0 0 0-.773-.774h-11.423a.777.777 0 0 0-.774.774c0 .426.348.774.774.774ZM148.688 107.974h34.678a.776.776 0 0 0 .774-.774.776.776 0 0 0-.774-.773h-34.678a.776.776 0 0 0-.774.773c0 .426.348.774.774.774ZM166.891 114.71h9.102a.776.776 0 0 0 .773-.774.776.776 0 0 0-.773-.774h-9.102a.776.776 0 0 0-.774.774c0 .425.348.774.774.774Z" />
   <path fill="#EB6502"
      d="M163.453 111.342h27.056a.777.777 0 0 0 .774-.774.777.777 0 0 0-.774-.774h-27.056a.776.776 0 0 0-.773.774c0 .426.348.774.773.774Z" />
   <path fill="#6CD6FF"
      d="M194.586 111.342h7.259a.776.776 0 0 0 .773-.774.776.776 0 0 0-.773-.774h-7.259a.777.777 0 0 0-.774.774c0 .426.349.774.774.774Z" />
   <path fill="#FCCF00"
      d="M205.641 111.342h7.259a.776.776 0 0 0 .773-.774.776.776 0 0 0-.773-.774h-7.259a.777.777 0 0 0-.774.774c0 .426.348.774.774.774Z" />
   <path fill="#fff"
      d="M144.547 104.583h9.284a.776.776 0 0 0 .774-.773.776.776 0 0 0-.774-.774h-9.284a.777.777 0 0 0-.774.774c0 .425.349.773.774.773ZM148.641 74.983h13.926a.777.777 0 0 0 .774-.774.777.777 0 0 0-.774-.773h-13.926a.776.776 0 0 0-.774.773c0 .426.348.774.774.774ZM148.688 71.616h11.423a.776.776 0 0 0 .773-.774.776.776 0 0 0-.773-.774h-11.423a.776.776 0 0 0-.774.774c0 .426.348.774.774.774Z" />
   <path fill="#6CD6FF"
      d="M148.688 68.248h34.678a.776.776 0 0 0 .774-.774.776.776 0 0 0-.774-.773h-34.678a.776.776 0 0 0-.774.773c0 .426.348.774.774.774Z" />
   <path fill="#fff"
      d="M166.891 74.983h9.102a.776.776 0 0 0 .773-.774.776.776 0 0 0-.773-.773h-9.102a.776.776 0 0 0-.774.773c0 .426.348.774.774.774Z" />
   <path fill="#C84E96"
      d="M163.453 71.616h27.056a.777.777 0 0 0 .774-.774.777.777 0 0 0-.774-.774h-27.056a.776.776 0 0 0-.773.774c0 .426.348.774.773.774Z" />
   <path fill="#FCCF00"
      d="M194.586 71.616h7.259a.776.776 0 0 0 .773-.774.776.776 0 0 0-.773-.774h-7.259a.776.776 0 0 0-.773.774.775.775 0 0 0 .773.774Z" />
   <path fill="#fff"
      d="M205.641 71.616h7.259a.776.776 0 0 0 .773-.774.776.776 0 0 0-.773-.774h-7.259a.776.776 0 0 0-.774.774c0 .426.348.774.774.774ZM148.867 100.084h9.284a.776.776 0 0 0 .774-.774.776.776 0 0 0-.774-.774h-9.284a.776.776 0 0 0-.773.774c0 .425.348.774.773.774ZM148.641 96.716h13.926a.777.777 0 0 0 .774-.774.777.777 0 0 0-.774-.773h-13.926a.776.776 0 0 0-.774.773c0 .426.348.774.774.774ZM148.688 93.348h11.423a.776.776 0 0 0 .773-.773.776.776 0 0 0-.773-.774h-11.423a.776.776 0 0 0-.774.773c0 .426.348.774.774.774Z" />
   <path fill="#FCCF00"
      d="M148.688 89.98h14.986a.776.776 0 0 0 .773-.773.776.776 0 0 0-.773-.774h-14.986a.776.776 0 0 0-.774.774c0 .425.348.774.774.774Z" />
   <path fill="#fff"
      d="M166.891 96.716h9.102a.776.776 0 0 0 .773-.774.776.776 0 0 0-.773-.773h-9.102a.776.776 0 0 0-.774.773c0 .426.348.774.774.774Z" />
   <path fill="#EF8200"
      d="M163.453 93.348h27.056a.777.777 0 0 0 .774-.773.777.777 0 0 0-.774-.774h-27.056a.776.776 0 0 0-.773.773c0 .426.348.774.773.774Z" />
   <path fill="#fff"
      d="M194.586 93.348h7.259a.776.776 0 0 0 .773-.773.776.776 0 0 0-.773-.774h-7.259a.776.776 0 0 0-.773.773.775.775 0 0 0 .773.774ZM205.641 93.348h7.259a.776.776 0 0 0 .773-.773.776.776 0 0 0-.773-.774h-7.259a.776.776 0 0 0-.774.773c0 .426.348.774.774.774ZM159.727 64.763h27.055a.776.776 0 0 0 .774-.774.776.776 0 0 0-.774-.773h-27.055a.776.776 0 0 0-.774.773c0 .426.348.774.774.774ZM190.852 64.763h7.259a.776.776 0 0 0 .773-.774.776.776 0 0 0-.773-.773h-7.259a.776.776 0 0 0-.774.773c0 .426.348.774.774.774ZM201.91 64.763h7.259a.776.776 0 0 0 .774-.774.776.776 0 0 0-.774-.773h-7.259a.776.776 0 0 0-.773.773c0 .426.348.774.773.774Z" />
   <path fill="#C84E96"
      d="M159.727 61.578h11.832a.777.777 0 0 0 .774-.774.777.777 0 0 0-.774-.774h-11.832a.776.776 0 0 0-.774.774c0 .425.348.774.774.774Z" />
   <path fill="#EB6502"
      d="M175.696 61.578h18.567a.776.776 0 0 0 .774-.774.776.776 0 0 0-.774-.774h-18.567a.776.776 0 0 0-.774.774c0 .425.348.774.774.774Z" />
   <path fill="#fff"
      d="M199.008 61.578h15.644a.776.776 0 0 0 .774-.774.776.776 0 0 0-.774-.774h-15.644a.777.777 0 0 0-.774.774c0 .425.349.774.774.774ZM159.727 86.62h27.055a.776.776 0 0 0 .774-.773.776.776 0 0 0-.774-.774h-27.055a.776.776 0 0 0-.774.774c0 .425.348.774.774.774ZM190.852 86.62h7.259a.776.776 0 0 0 .773-.773.776.776 0 0 0-.773-.774h-7.259a.776.776 0 0 0-.774.774c0 .425.348.774.774.774ZM201.91 86.62h7.259a.776.776 0 0 0 .774-.773.776.776 0 0 0-.774-.774h-7.259a.776.776 0 0 0-.773.774c0 .425.348.774.773.774ZM159.727 83.048h11.832a.777.777 0 0 0 .774-.774.777.777 0 0 0-.774-.773h-11.832a.776.776 0 0 0-.774.773c0 .426.348.774.774.774ZM175.696 83.048h18.567a.776.776 0 0 0 .774-.774.776.776 0 0 0-.774-.773h-18.567a.776.776 0 0 0-.774.773c0 .426.348.774.774.774ZM199.008 83.048h15.644a.776.776 0 0 0 .774-.774.776.776 0 0 0-.774-.773h-15.644a.777.777 0 0 0-.774.773c0 .426.349.774.774.774Z" />
   <path fill="#031542" d="M124 53.186h-22.996v71.228H124V53.186Z" />
   <path fill="#EF8200"
      d="M166.899 89.98h8.066a.776.776 0 0 0 .774-.773.776.776 0 0 0-.774-.774h-8.066a.776.776 0 0 0-.774.774c0 .425.348.774.774.774ZM177.789 89.98h8.067a.777.777 0 0 0 .774-.773.777.777 0 0 0-.774-.774h-8.067a.776.776 0 0 0-.773.774c0 .425.348.774.773.774Z" />
   <path fill="#fff"
      d="M144.547 79.211h11.954a.776.776 0 0 0 .773-.773.776.776 0 0 0-.773-.774h-11.954a.777.777 0 0 0-.774.774c0 .425.349.773.774.773ZM159.727 79.211h8.066a.776.776 0 0 0 .774-.773.776.776 0 0 0-.774-.774h-8.066a.776.776 0 0 0-.774.774c0 .425.348.773.774.773ZM171.43 79.211h8.067a.776.776 0 0 0 .773-.773.776.776 0 0 0-.773-.774h-8.067a.776.776 0 0 0-.774.774c0 .425.348.773.774.773Z" />
   <path fill="#F0F8FD"
      d="M107.762 103.397h5.123a.75.75 0 0 0 .747-.747.749.749 0 0 0-.747-.747h-5.123a.749.749 0 0 0-.746.747.749.749 0 0 0 .746.747ZM104.669 99.698h13.546c.41 0 .746-.336.746-.747a.749.749 0 0 0-.746-.747h-13.546a.749.749 0 0 0-.747.747c0 .41.336.747.747.747ZM104.669 95.782h10.323a.75.75 0 0 0 .747-.746.749.749 0 0 0-.747-.747h-10.323a.749.749 0 0 0-.747.746c0 .411.336.748.747.748ZM107.762 91.867h10.303a.749.749 0 0 0 .747-.747.749.749 0 0 0-.747-.747h-10.303a.749.749 0 0 0-.746.747c0 .41.336.747.746.747ZM107.763 87.952h3.281a.75.75 0 0 0 .747-.747.749.749 0 0 0-.747-.747h-3.281a.749.749 0 0 0-.747.747c0 .41.336.747.747.747ZM104.669 84.036h9.796a.75.75 0 0 0 .747-.747.749.749 0 0 0-.747-.747h-9.796a.749.749 0 0 0-.747.747c0 .41.336.747.747.747ZM107.708 80.12h2.682c.41 0 .746-.335.746-.746a.749.749 0 0 0-.746-.747h-2.682a.749.749 0 0 0-.747.747c0 .41.336.747.747.747ZM107.349 76.205h10.867a.749.749 0 0 0 .747-.747.75.75 0 0 0-.747-.747h-10.868a.749.749 0 0 0-.746.747c0 .411.336.747.747.747ZM104.669 72.29h8.645a.749.749 0 0 0 .747-.747.749.749 0 0 0-.747-.747h-8.645a.749.749 0 0 0-.747.747c0 .411.336.747.747.747ZM107.349 68.374h10.867a.749.749 0 0 0 .747-.746.749.749 0 0 0-.747-.748h-10.868a.749.749 0 0 0-.746.747c0 .411.336.747.747.747ZM107.349 64.46h6.624a.75.75 0 0 0 .747-.748.75.75 0 0 0-.747-.747h-6.624a.75.75 0 0 0-.747.747c0 .411.336.747.747.747ZM104.669 60.544h4.764a.75.75 0 0 0 .747-.747.75.75 0 0 0-.747-.747h-4.764a.749.749 0 0 0-.747.747c0 .41.336.747.747.747ZM107.762 106.856h5.123a.749.749 0 0 0 .747-.747.749.749 0 0 0-.747-.747h-5.123a.748.748 0 0 0 0 1.494ZM104.669 110.316h13.089a.749.749 0 0 0 .747-.747.749.749 0 0 0-.747-.747h-13.089a.749.749 0 0 0-.747.747c0 .411.336.747.747.747ZM107.762 113.775h5.123a.749.749 0 0 0 .747-.747.749.749 0 0 0-.747-.747h-5.123a.748.748 0 0 0 0 1.494Z" />
   <path fill="#fff"
      d="M148.688 64.763h7.599a.776.776 0 0 0 .774-.774.776.776 0 0 0-.774-.773h-7.599a.776.776 0 0 0-.774.773c0 .426.348.774.774.774ZM140.965 61.578h15.093a.776.776 0 0 0 .773-.774.776.776 0 0 0-.773-.774h-15.093a.777.777 0 0 0-.774.774.777.777 0 0 0 .774.774ZM140.965 57.635h19.876a.776.776 0 0 0 .774-.774.776.776 0 0 0-.774-.773h-19.876a.777.777 0 0 0-.774.773.777.777 0 0 0 .774.774Z" />
   <path fill="#B1CBEF"
      d="M132.754 57.635h.728a.776.776 0 0 0 .773-.774.776.776 0 0 0-.773-.773h-.728a.777.777 0 0 0-.774.773c0 .426.348.774.774.774ZM132.754 61.578h.728a.776.776 0 0 0 .773-.774.776.776 0 0 0-.773-.774h-.728a.777.777 0 0 0-.774.774c0 .425.348.774.774.774ZM132.614 74.983h.63a.776.776 0 0 0 .774-.774.776.776 0 0 0-.774-.773h-.63a.776.776 0 0 0-.774.773c0 .426.348.774.774.774ZM132.66 71.616h.586a.777.777 0 0 0 .774-.774.777.777 0 0 0-.774-.774h-.586a.776.776 0 0 0-.773.774c0 .426.348.774.773.774ZM132.66 68.248h.586a.777.777 0 0 0 .774-.774.777.777 0 0 0-.774-.773h-.586a.776.776 0 0 0-.773.773c0 .426.348.774.773.774ZM132.66 64.763h.586a.777.777 0 0 0 .774-.774.777.777 0 0 0-.774-.773h-.586a.776.776 0 0 0-.773.773c0 .426.348.774.773.774ZM132.703 86.62h.542a.777.777 0 0 0 .774-.773.777.777 0 0 0-.774-.774h-.542a.776.776 0 0 0-.773.774c0 .425.348.774.773.774ZM132.703 83.048h.542a.777.777 0 0 0 .774-.774.777.777 0 0 0-.774-.773h-.542a.776.776 0 0 0-.773.773c0 .426.348.774.773.774ZM132.711 79.211h.538a.776.776 0 0 0 .773-.773.776.776 0 0 0-.773-.774h-.538a.776.776 0 0 0-.773.774c0 .425.348.773.773.773ZM132.938 100.084h.307a.776.776 0 0 0 .774-.774.776.776 0 0 0-.774-.774h-.307a.776.776 0 0 0-.774.774c0 .425.348.774.774.774ZM132.703 96.716h.542a.777.777 0 0 0 .774-.774.777.777 0 0 0-.774-.773h-.542a.776.776 0 0 0-.773.773c0 .426.348.774.773.774ZM132.75 93.348h.495a.776.776 0 0 0 .773-.773.776.776 0 0 0-.773-.774h-.495a.776.776 0 0 0-.773.773c0 .426.348.774.773.774ZM132.75 89.98h.495a.777.777 0 0 0 .774-.773.777.777 0 0 0-.774-.774h-.495a.776.776 0 0 0-.773.774c0 .425.348.774.773.774ZM133.02 118.078h.226a.777.777 0 0 0 .774-.774.776.776 0 0 0-.774-.774h-.226a.776.776 0 0 0-.774.774c0 .425.348.774.774.774ZM133.02 114.71h.226a.777.777 0 0 0 .774-.774.776.776 0 0 0-.774-.774h-.226a.776.776 0 0 0-.774.774c0 .425.348.774.774.774ZM132.992 111.342h.256a.776.776 0 0 0 .773-.774.776.776 0 0 0-.773-.774h-.256a.776.776 0 0 0-.773.774c0 .426.348.774.773.774ZM132.938 107.974h.307a.776.776 0 0 0 .774-.774.776.776 0 0 0-.774-.773h-.307a.776.776 0 0 0-.774.773c0 .426.348.774.774.774ZM132.938 104.583h.307a.776.776 0 0 0 .774-.773.776.776 0 0 0-.774-.774h-.307a.776.776 0 0 0-.774.774c0 .425.348.773.774.773Z" />
   <path fill="#96ADD9" d="M225.132 43.216H95.32v4.479h129.812v-4.479Z" />
   <path fill="#fff"
      d="M217.307 44.482h-1.362v1.362h1.362v-1.362ZM219.714 44.482h-1.362v1.362h1.362v-1.362ZM222.12 44.482h-1.362v1.362h1.362v-1.362Z" />
   <path fill="#B2D2FF"
      d="m298.532 211.659-2.262.296 7.06 57.409a1.134 1.134 0 0 0 1.27.985l.129-.017c.551-.072.947-.583.879-1.134l-7.076-57.539ZM257.796 211.572h-2.28v57.87c0 .627.513 1.14 1.14 1.14h.13c.556 0 1.01-.454 1.01-1.01v-58ZM224.163 211.572h-2.28v57.87c0 .627.513 1.14 1.14 1.14h.13c.556 0 1.01-.454 1.01-1.01v-58ZM272.883 211.659l-2.262.296 7.061 57.409a1.134 1.134 0 0 0 1.27.985l.129-.017c.551-.072.947-.583.879-1.134l-7.077-57.539Z" />
   <path fill="#FBB44A"
      d="M244.408 138.775c-2.984 9.491-7.327 18.704-17.074 24.344-8.565 2.201-26.114 3.321-25.6 1.213.474-1.946.013-2.329 3.002-3.342 1.768 1.096 20.812-12.945 21.023-12.994 1.467-.348 5.816-21.343 14.47-24.998.974-.803 6.612 11.02 4.179 15.777Z" />
   <path fill="#EF8200"
      d="M239.781 150.431c-.492.875-2.37 4.127-5.636 7.057 1.884-3.907 5.844-20.91 5.844-20.91l-.208 13.853Z" />
   <path fill="#B2D2FF"
      d="M257.879 204.589h-39.09a4.27 4.27 0 0 0-4.258 4.258 4.27 4.27 0 0 0 4.258 4.257h39.09a4.27 4.27 0 0 0 4.257-4.257 4.27 4.27 0 0 0-4.257-4.258ZM271.036 138.413h39.814l-10.013 66.335-39.815.036c-.154 0-.309-.011-.466-.036h-.001c-1.639 0-2.735-1.79-2.479-3.41l9.55-60.445c.255-1.62 1.77-2.48 3.409-2.48h.001Z" />
   <path fill="#9CC1F4"
      d="m307.91 140.892-10.117 63.697h-44.176a4.27 4.27 0 0 0-4.258 4.258 4.27 4.27 0 0 0 4.258 4.257h44.508c4.248 0 4.985-3.978 5.367-6.389l10.307-64.892c.257-1.62-.84-3.41-2.479-3.41h-.001c-1.639 0-3.152.861-3.409 2.479Z" />
   <path fill="#F4AF8F" d="m199.598 262.25.049-8.288 7.152.207-.15 8.484-7.051-.403Z" />
   <path fill="#1F3E7A"
      d="m262.332 181.864-15.923-3.019s-36.926 4.036-43.761 16.084c-6.834 12.047-4.14 60.647-4.14 60.647l9.927.13c-.644-4.003 10.29-50.439 10.326-50.447l41.618-14.812 1.953-8.583Z" />
   <path fill="#000446"
      d="m262.33 181.864-5.595 2.511c-4.6.084-24.524 3.196-27.865 3.916-11.319 2.438-9.927 8.188-10.112 16.968l8.222-1.116 33.396-13.696 1.954-8.583Z" />
   <path fill="#F4AF8F" d="m236.479 260.87-.682-7.209 7.233.174-.07 8.254-6.481-1.219Z" />
   <path fill="#031542"
      d="M236.125 259.649c-2.043 3.673-5.375 7.186-2.774 10.305h13.24a2.73 2.73 0 0 0 .064-.193c.129-.428.747-.606.333-2.17-.767-2.905-3.023-7.369-3.797-7.598-1.537-.456-3.719.828-7.066-.344Z" />
   <path fill="#0F4884"
      d="M232.364 267.525v.006c-.03.977.071 1.837.987 2.424h13.241c.683-.397.862-.67.397-2.364l-14.625-.066ZM241.384 259.29h-3.067a.769.769 0 0 0-.766.766v3.943c0 .422.345.767.766.767h3.067a.769.769 0 0 0 .766-.767v-3.943a.769.769 0 0 0-.766-.766Z" />
   <path fill="#1F3E7A"
      d="M280.552 180.118s4.628 18.676-3.777 22.701c-8.406 4.025-34.633 4.451-34.633 4.451 5.288 19.85 1.428 32.417 1.628 49.325l-8.759.045s-8.829-31.571-11.423-49.47c-1.308-9.031-1.582-16.212 9.857-18.676 3.847-.829 28.886-6.63 28.886-6.63l18.221-1.746Z" />
   <path fill="#FBB44A"
      d="M276.254 122.807c6.271 14.388-1.136 28.566 5.086 58.281-10.781 3.438-42.642 3.544-44.016-1.38-.664-18.794.417-36.809 1.179-55.592 9.535-6.608 23.481-8.771 34.405-3.706.578.268 1.501.665 2.049 1.102.56.447.746.935 1.297 1.295Z" />
   <path fill="#EF8200"
      d="m248.688 159.769 23.248-7.779.156-9.457 2.579-3.458s5.259 8.044 5.279 8.588c.021.545-2.323 8.72-2.112 8.73.212.01-13.877 4.693-15.035 4.966-1.159.272-14.115-1.59-14.115-1.59Z" />
   <path fill="#FBB44A"
      d="M273.973 120.932c9.092 4.466 14.331 31.681 12.25 38.872-.359 5.169-21.477 4.498-36.516 6.479-2.064-1.519-3.748-3.52-1.82-6.325 9.236-3.396 25.502-6.427 25.474-6.919-1.282-9.85-3.231-23.374-2.525-29.92.084-.776 2.346-2.576 3.137-2.187Z" />
   <path fill="#7BABEA" d="M177.833 172.292h-6.028v97.662h6.028v-97.662Z" />
   <path fill="#9CC1F4"
      d="M144.613 164.882h114.551v8.062H144.613a4.043 4.043 0 0 1-4.031-4.031 4.043 4.043 0 0 1 4.031-4.031Z" />
   <path fill="#7BABEA"
      d="M255.16 164.882h57.263a4.043 4.043 0 0 1 4.031 4.031 4.043 4.043 0 0 1-4.031 4.031h-25.544v97.011H280.553v-97.011H255.16a4.043 4.043 0 0 1-4.031-4.031 4.043 4.043 0 0 1 4.031-4.031Z" />
   <path fill="#031542"
      d="M198.684 259.429s-9.536 3.917-12.715 5.474c-2.469 1.209-3.868 3.754-1.84 5.051h24.701a3.12 3.12 0 0 0 .064-.193c.366-1.221 1.327-9.941-1.243-9.747-1.594.121-5.398 1.253-8.967-.585Z" />
   <path fill="#0F4884"
      d="m183.142 267.53-.001.006.022.985c.037.774.31 1.015.968 1.433h24.814c.022-.059.043-.124.064-.193.072-.238.247-1.478.334-2.165l-26.201-.066ZM197.632 259.874c-3.436 1.428-9.194 3.846-11.558 4.977 1.237.953 2.416.764 2.416.764s6.707-2.092 8.614-3.446c1.127-.8.901-1.696.528-2.295Z" />
   <path fill="#F4B1B1"
      d="M241.806 112.485c1.882 2.246 3.7 3.781 5.926 4.267l.948 3.95c-.669 2.796-.039 5.13 3.546 4.918 9.559-1.766 6.849-8.068 6.693-8.356l-2.213-5.284c.31-.092 2.617-2.089 3.247-2.458.629-.369 1.318-1.913 1.058-3.311s-2.289-.446-2.289-.446c1.751-4.151 3.997-7.734-.554-10.024-4.55-2.291-13.714-2.09-13.714-2.09l-5.681-.58c1.096 1.653 1.63 7.908 1.173 12.001-.409 3.671-.666 4.397 1.86 7.413Z" />
   <path fill="#FFF1D8"
      d="M252.867 125.491c1.537.974 3.852 2.289 5.389 3.264 1.964-3.371 2.837-5.748 3.263-9.464-.565-.777-2.341-2.749-3.042-3.081-.635 2.669-1.873 6.47-5.61 9.281Z" />
   <path fill="#FFF1D8"
      d="M252.87 125.491c-.928 1.536-2.724 3.058-3.651 4.595-1.143-2.219-2.426-7.273-2.578-10.154.529-.519.824-.676 1.497-1.494.837 1.901 3.114 5.916 4.732 7.053Z" />
   <path fill="#E06B6C"
      d="M254.737 113.131c-.406 3.424-1.872 6.67-5.497 7.482l-1.101-2.175-.405-1.686c1.745-.127 3.359-.648 7.003-3.621Z" />
   <path fill="#F6C0C5"
      d="M206.54 164.879c-3.699-.019-7.832.03-8.927-.017 1.083-3.227 4.726-4.026 7.767-3.85.73.499 1.418 2.989 1.16 3.867Z" />
   <path fill="#7BABEA"
      d="m185.756 118.449 49.15-.014c1.814-.001 2.267 1.712 2.606 3.514l5.955 31.615c.245 1.532.91 4.123-3.142 4.135l-47.936.034-8.414-36.291c-.299-1.552.219-2.992 1.781-2.993Z" />
   <path fill="#B2D2FF"
      d="M185.598 118.612h47.923c1.814 0 2.158 1.535 2.498 3.337l5.955 31.615h-.005l.328 1.879c.216 1.24-1.031 2.29-2.29 2.29h-47.535c-1.259 0-2.107-1.044-2.291-2.29l-.277-1.879h-.061l-5.955-32.078c-.289-1.554.149-2.874 1.71-2.874Z" />
   <path fill="#7BABEA"
      d="M241.929 156.814a2.504 2.504 0 0 1-1.918.919h-47.535a2.067 2.067 0 0 1-1.46-.59l6.975-5.075 31.116.369 12.822 4.377Z" />
   <path fill="#C3DCFF"
      d="M191.011 157.143c-.441-.422-.731-1.032-.829-1.701l-.278-1.879h-.061l-5.955-32.078c-.204-1.098-.045-2.079.617-2.56l9.242 9.001 4.239 24.142-6.975 5.075ZM234.209 118.702c1.223.353 1.518 1.701 1.809 3.248l5.955 31.614h-.005l.328 1.879c.089.509-.069.986-.373 1.371l-12.822-4.377-4.117-24.511 9.225-9.224Z" />
   <path fill="#D5E6FF"
      d="M185.602 118.612h47.923c.258 0 .486.031.689.09l-9.224 9.224h-31.239l-9.47-8.794c.291-.326.723-.52 1.321-.52Z" />
   <path fill="#7BABEA"
      d="M202.475 135.32h14.366c.544 0 .647.46.749 1.001l1.785 9.477h-.002l.099.563c.065.372-.309.687-.687.687h-14.249c-.378 0-.632-.314-.687-.687l-.083-.563h-.018l-1.786-9.616c-.086-.466.045-.862.513-.862Z" />
   <path fill="#7BABEA" d="M208.144 137.688h5.512l-1.988 27.174h-5.512l1.988-27.174Z" />
   <path fill="#7BABEA" d="M237.63 163.75h-31.036v1.132h31.036v-1.132Z" />
   <path fill="#0F4884"
      d="M36.873 269.954h320.986c.338 0 .615.277.615.615a.616.616 0 0 1-.615.614H36.873a.616.616 0 0 1-.615-.614c0-.338.276-.615.615-.615Z" />
   <path fill="#1F3E7A"
      d="M261.345 97.114c.297-2.975-1.969-5.284-5.166-6.887-6.625-3.322-11.045.14-13.064 1.087-1.395.655-2.395.816-3.777 1.408-3.458 1.48-2.256 9.049.842 10.992.308.193.017-3.326.351-3.164a6.5 6.5 0 0 0 1.16.522c4.677 1.32 7.916-1.712 10.97.699 1.513 1.195 1.807 3.296 1.082 6.778-.213 1.026-.612 1.83.835.77.665-.487 2.901-1.73 3.379-1.48 1.066.557.917 2.208.286 2.857-.281.289-.833.748-.833.748 6.483-2.633 6.918-12.85 3.935-14.33Z" />
   <path fill="#CCE1F9"
      d="M322.897 100.42h-33.375a3.991 3.991 0 0 0-3.979 3.98v10.933a3.991 3.991 0 0 0 3.979 3.979h4.864v7.212c0 1.555 1.132 2.017 2.31 1.169l11.402-8.21c.081-.058.161-.118.243-.171h14.556a3.991 3.991 0 0 0 3.979-3.979V104.4a3.991 3.991 0 0 0-3.979-3.98Z" />
   <path fill="#718BC6"
      d="M320.305 109.688v.827a.259.259 0 0 1-.047.143.354.354 0 0 1-.113.106l-3.147 1.485c-.044.02-.082.02-.114 0-.031-.019-.047-.054-.047-.102v-1.186c0-.049.016-.096.047-.142a.34.34 0 0 1 .114-.107l1.258-.541c.044-.02.066-.042.066-.066s-.022-.049-.066-.073l-1.258-.549a.267.267 0 0 1-.114-.099.253.253 0 0 1-.047-.142v-1.179c0-.048.016-.084.047-.106.032-.022.07-.02.114.004l3.147 1.478c.043.02.081.054.113.103a.26.26 0 0 1 .047.146Zm-10.128 1.237c.264.17.525.305.783.402.259.098.5.146.725.146.214 0 .378-.03.49-.091a.294.294 0 0 0 .168-.274.175.175 0 0 0-.073-.15.604.604 0 0 0-.194-.092 1.785 1.785 0 0 0-.282-.058 4.67 4.67 0 0 1-.329-.059l-.377-.07a3.033 3.033 0 0 1-.443-.117 3.024 3.024 0 0 1-.45-.194 1.55 1.55 0 0 1-.398-.3 1.401 1.401 0 0 1-.282-.435 1.526 1.526 0 0 1-.106-.596c0-.337.066-.615.197-.835.132-.219.299-.394.502-.523.202-.129.428-.219.676-.271.249-.051.491-.077.725-.077.41 0 .777.06 1.101.18.325.119.636.293.933.523a.187.187 0 0 1 .03.256l-.571.812a.19.19 0 0 1-.117.074.16.16 0 0 1-.132-.03 2.996 2.996 0 0 0-.695-.333 2.035 2.035 0 0 0-.593-.099c-.054 0-.116.002-.187.004a.928.928 0 0 0-.201.029.361.361 0 0 0-.157.085.208.208 0 0 0-.063.161c0 .068.052.129.154.183.103.053.219.099.351.139a3.6 3.6 0 0 0 .381.091c.122.022.2.035.234.04.176.034.368.084.578.15.21.066.406.164.589.293.183.129.337.298.461.505.125.207.187.467.187.779 0 .293-.051.546-.154.758a1.394 1.394 0 0 1-.428.523 1.857 1.857 0 0 1-.658.304 3.426 3.426 0 0 1-.853.099 3.64 3.64 0 0 1-1.325-.234 3.303 3.303 0 0 1-.53-.26 3.906 3.906 0 0 1-.45-.319.162.162 0 0 1-.066-.12.185.185 0 0 1 .037-.136l.563-.812a.183.183 0 0 1 .117-.073.172.172 0 0 1 .132.022Zm-4.976 0c.264.17.525.305.783.402.259.098.5.146.725.146.214 0 .378-.03.49-.091a.294.294 0 0 0 .168-.274.175.175 0 0 0-.073-.15.604.604 0 0 0-.194-.092 1.785 1.785 0 0 0-.282-.058 4.67 4.67 0 0 1-.329-.059l-.377-.07a3.033 3.033 0 0 1-.443-.117 3.024 3.024 0 0 1-.45-.194 1.55 1.55 0 0 1-.398-.3 1.42 1.42 0 0 1-.282-.435 1.526 1.526 0 0 1-.106-.596c0-.337.066-.615.197-.835.132-.219.299-.394.502-.523.202-.129.428-.219.677-.271.248-.051.49-.077.724-.077.41 0 .777.06 1.101.18.325.119.636.293.933.523a.187.187 0 0 1 .03.256l-.571.812a.188.188 0 0 1-.117.074.16.16 0 0 1-.132-.03 2.977 2.977 0 0 0-.695-.333 2.03 2.03 0 0 0-.593-.099c-.054 0-.116.002-.187.004a.937.937 0 0 0-.201.029.361.361 0 0 0-.157.085.207.207 0 0 0-.062.161c0 .068.051.129.153.183a2.1 2.1 0 0 0 .352.139c.132.039.258.069.38.091.122.022.2.035.234.04.176.034.369.084.579.15.209.066.406.164.589.293.183.129.337.298.461.505.124.207.187.467.187.779 0 .293-.052.546-.154.758a1.404 1.404 0 0 1-.428.523 1.862 1.862 0 0 1-.659.304c-.256.066-.54.099-.853.099a3.588 3.588 0 0 1-1.324-.234 3.356 3.356 0 0 1-.531-.26 4.088 4.088 0 0 1-.45-.319.158.158 0 0 1-.065-.12.189.189 0 0 1 .036-.136l.564-.812a.183.183 0 0 1 .117-.073.17.17 0 0 1 .131.022Zm-1.156.417a4.313 4.313 0 0 1-.468.623 2.729 2.729 0 0 1-.575.477 2.77 2.77 0 0 1-.706.305c-.259.073-.544.11-.856.11a2.76 2.76 0 0 1-1.098-.22 2.927 2.927 0 0 1-.897-.593 2.718 2.718 0 0 1-.823-1.954 2.707 2.707 0 0 1 .823-1.953c.257-.249.555-.447.897-.593.341-.147.707-.22 1.098-.22.322 0 .612.037.871.11.258.073.492.176.702.307.21.132.399.292.567.48.169.188.324.394.465.618a.14.14 0 0 1 .014.124.153.153 0 0 1-.087.096l-1.04.409a.185.185 0 0 1-.146 0 .225.225 0 0 1-.11-.087 1.544 1.544 0 0 0-.512-.517 1.394 1.394 0 0 0-.725-.179c-.185 0-.359.039-.523.117a1.429 1.429 0 0 0-.816 1.292c0 .185.034.364.103.532.068.168.163.317.285.444.122.127.265.23.428.308.163.078.338.117.523.117.269 0 .511-.064.729-.194.217-.129.389-.296.515-.501a.229.229 0 0 1 .107-.088.184.184 0 0 1 .142 0l1.039.41a.15.15 0 0 1 .074.22Zm-8.467-3.279v1.178a.248.248 0 0 1-.048.143.272.272 0 0 1-.113.099l-1.266.549c-.049.024-.073.048-.073.073 0 .024.024.046.073.066l1.259.541c.048.025.089.06.121.106a.256.256 0 0 1 .047.143v1.186c0 .048-.016.083-.047.102-.032.019-.07.019-.114 0l-3.154-1.486a.3.3 0 0 1-.11-.106.265.265 0 0 1-.044-.142v-.827c0-.049.015-.098.044-.147a.249.249 0 0 1 .11-.102l3.154-1.478c.044-.025.082-.026.114-.004.031.022.047.058.047.106Z" />
   <path fill="#CCE1F9"
      d="M281.474 34.11h-35.198a4.83 4.83 0 0 0-4.815 4.814v13.23a4.83 4.83 0 0 0 4.815 4.815h2.942v8.727c0 1.882 1.37 2.44 2.795 1.414l13.797-9.935c.098-.07.194-.142.294-.206h15.37a4.83 4.83 0 0 0 4.815-4.815v-13.23a4.83 4.83 0 0 0-4.815-4.815Z" />
   <path fill="#718BC6"
      d="M280.253 45.186v.793a.236.236 0 0 1-.046.137.315.315 0 0 1-.108.102l-3.017 1.424c-.042.018-.078.018-.109 0-.03-.019-.045-.052-.045-.099v-1.136c0-.047.015-.092.045-.137a.328.328 0 0 1 .109-.101l1.207-.52c.042-.018.063-.04.063-.063s-.021-.046-.063-.07l-1.207-.526a.266.266 0 0 1-.109-.095.242.242 0 0 1-.045-.136v-1.13c0-.046.015-.08.045-.101.031-.021.067-.02.109.003l3.017 1.417a.25.25 0 0 1 .108.098.25.25 0 0 1 .046.14Zm-6.005 1.824v.954a.162.162 0 0 1-.049.12.162.162 0 0 1-.119.049h-3.501a.158.158 0 0 1-.122-.05.167.167 0 0 1-.046-.119v-4.798c0-.047.015-.087.046-.12a.158.158 0 0 1 .122-.048h1.053c.046 0 .086.016.119.049a.161.161 0 0 1 .049.119v3.508c0 .047.015.086.046.119.03.033.071.05.122.05h2.112c.047 0 .086.015.119.048a.16.16 0 0 1 .049.12Zm-4.946-3.837v4.791a.162.162 0 0 1-.049.12.16.16 0 0 1-.118.049h-1.054a.158.158 0 0 1-.118-.05.162.162 0 0 1-.05-.119v-2.258c0-.047-.021-.073-.063-.078-.042-.004-.077.012-.105.05l-1.182 1.9c-.023.038-.061.057-.112.057a.139.139 0 0 1-.119-.056l-1.182-1.901a.098.098 0 0 0-.099-.05c-.042.005-.063.03-.063.078v2.258a.162.162 0 0 1-.049.12.16.16 0 0 1-.118.049h-1.055a.161.161 0 0 1-.118-.05.165.165 0 0 1-.049-.119v-4.79c0-.048.017-.087.049-.12a.163.163 0 0 1 .118-.05h.978c.047 0 .096.015.147.043.05.028.088.06.111.098l1.351 1.978c.028.038.06.056.098.056.037 0 .068-.018.091-.056l1.35-1.978a.37.37 0 0 1 .266-.14h.977c.047 0 .086.016.118.049a.161.161 0 0 1 .049.12Zm-6.432 1.115h-.982a.164.164 0 0 0-.12.05.161.161 0 0 0-.049.119v3.508a.167.167 0 0 1-.046.119.158.158 0 0 1-.122.049h-1.053a.163.163 0 0 1-.119-.05.161.161 0 0 1-.049-.118v-3.508a.167.167 0 0 0-.046-.12.159.159 0 0 0-.123-.049h-.996a.164.164 0 0 1-.119-.048.162.162 0 0 1-.049-.12v-.954c0-.047.016-.086.049-.12a.163.163 0 0 1 .119-.048h3.704c.052 0 .093.016.123.049a.166.166 0 0 1 .046.12v.953a.171.171 0 0 1-.046.12.158.158 0 0 1-.122.048Zm-4.525-1.122v4.798a.165.165 0 0 1-.049.12.164.164 0 0 1-.119.049h-1.053a.161.161 0 0 1-.123-.05.17.17 0 0 1-.045-.119v-1.5a.165.165 0 0 0-.049-.12.163.163 0 0 0-.118-.05h-1.441a.157.157 0 0 0-.121.05.166.166 0 0 0-.046.12v1.5a.167.167 0 0 1-.17.169h-1.05a.16.16 0 0 1-.123-.05.167.167 0 0 1-.046-.119v-4.798c0-.047.015-.087.046-.12a.16.16 0 0 1 .123-.048h1.05a.166.166 0 0 1 .17.168v1.656c0 .046.015.086.046.119.03.033.071.049.121.049h1.441a.163.163 0 0 0 .118-.05.165.165 0 0 0 .049-.118v-1.656a.17.17 0 0 1 .045-.12.162.162 0 0 1 .123-.048h1.053c.046 0 .086.016.119.049a.162.162 0 0 1 .049.119Zm-7.731.463v1.13a.241.241 0 0 1-.045.136.266.266 0 0 1-.109.095l-1.214.526c-.047.023-.07.047-.07.07 0 .024.023.045.07.063l1.207.52a.306.306 0 0 1 .116.101c.03.045.045.09.045.137v1.136c0 .047-.015.08-.045.099-.031.018-.067.018-.109 0l-3.024-1.425a.29.29 0 0 1-.147-.238v-.793a.27.27 0 0 1 .042-.14.234.234 0 0 1 .105-.098l3.024-1.417c.042-.024.078-.025.109-.004.03.021.045.055.045.102ZM294.205 78.765l3.684-8.033a.376.376 0 0 1 .129-.133.32.32 0 0 1 .173-.053h1.313c.06 0 .102.018.129.053.027.035.025.08-.005.133l-3.683 8.033a.324.324 0 0 1-.124.137.322.322 0 0 1-.178.058h-1.313c-.059 0-.101-.02-.125-.058-.023-.038-.023-.084 0-.137Zm9.693-4.633v1.003c0 .059-.02.116-.058.173a.401.401 0 0 1-.137.128l-3.817 1.802c-.053.024-.099.024-.137 0-.039-.024-.058-.065-.058-.124v-1.438a.3.3 0 0 1 .058-.173.402.402 0 0 1 .137-.129l1.527-.657c.053-.023.08-.05.08-.08s-.027-.059-.08-.088l-1.527-.666a.327.327 0 0 1-.137-.12.3.3 0 0 1-.058-.173v-1.429c0-.059.019-.102.058-.129.038-.026.084-.025.137.005l3.817 1.793a.32.32 0 0 1 .137.124.32.32 0 0 1 .058.178Zm-9.941-1.97v1.428a.3.3 0 0 1-.058.173.327.327 0 0 1-.137.12l-1.536.666c-.059.03-.089.059-.089.088 0 .03.03.057.089.08l1.527.657a.38.38 0 0 1 .146.129.3.3 0 0 1 .058.173v1.438c0 .06-.019.1-.058.124-.038.024-.084.024-.137 0l-3.826-1.802a.374.374 0 0 1-.186-.301v-1.003c0-.06.018-.119.053-.178a.3.3 0 0 1 .133-.124l3.826-1.793c.053-.03.099-.031.137-.005.039.027.058.07.058.13Z" />
   <path fill="#3DB390"
      d="M338 244.462c2.519-16.898 18.108-38.185 21.407-41.968-20.509-2.506-25.551 29.246-24.623 44.617l3.216-2.649Z" />
   <path fill="#3DB390"
      d="M332.506 244.725c-4.314-16.106-19.238-26.258-22.209-29.666 20.168-5.833 25.941 18.21 25.106 32.052l-2.897-2.386Z" />
   <path fill="#84CDB3"
      d="M334.296 245.918c-1.172-16.381-9.605-41.829-12.327-45.098 19.027-.293 15.737 31.8 14.744 44.826l-2.417.272ZM340.217 249.586c3.352-13.424 17.982-27.668 26.842-32.794-21.395-5.548-29.626 19.718-30.004 34.815l3.162-2.021Z" />
   <path fill="#C4DAFB"
      d="M350.603 247.111h-26.978v11.422c0 6.282 5.14 11.421 11.422 11.421h4.135c6.282 0 11.421-5.139 11.421-11.421v-11.422Z" />
   <path fill="#9DC1EF" d="M350.603 247.111h-26.978v1.936h26.978v-1.936Z" />
   <path fill="#C4DAFB"
      d="M350.21 244.157h-26.191c-.938 0-1.707.768-1.707 1.707 0 .939.769 1.707 1.707 1.707h26.191c.938 0 1.706-.768 1.706-1.707a1.71 1.71 0 0 0-1.706-1.707Z" />
   <path fill="#6299DD"
      d="M164.672 162.719h38.782v1.081c0 .595-.486 1.081-1.081 1.081h-36.62a1.084 1.084 0 0 1-1.081-1.081v-1.081Z" />
   <path fill="#6299DD"
      d="M150.871 140.262h28.945c1.141 0 1.862.966 2.075 2.1l4.119 21.937h-32.807l-4.119-22.228c-.181-.978.804-1.809 1.787-1.809Z" />
   <path fill="#B2D2FF"
      d="M149.879 140.262h28.945c1.141 0 1.861.966 2.075 2.1l3.699 19.637h.049l.238 1.441c.128.782-.65 1.442-1.442 1.442h-29.985c-.791 0-1.323-.657-1.441-1.442l-.177-1.183-3.748-20.186c-.181-.978.804-1.809 1.787-1.809Z" />
   <path fill="#F4FAFD"
      d="M165.13 151.314c.69-.165 1.407.359 1.601 1.171.194.812-.208 1.604-.898 1.769-.69.165-1.406-.359-1.601-1.171-.194-.812.208-1.604.898-1.769Z" />
   <path fill="#F6C0C5"
      d="M237.664 165.01c.458-1.588 1.319-3.876 3.53-4.578 1.568-.497 4.644.115 10.882.471.767 1.983.78 3.017.572 3.945l-14.984.162Z" />
   <path fill="#7BA9E3"
      d="M124.083 138.729H70.039c-4.955 0-9.008 4.096-9.008 9.102v113.021c0 5.006 4.053 9.102 9.008 9.102h54.045c4.954 0 9.007-4.096 9.007-9.102V147.831c0-5.006-4.053-9.102-9.008-9.102Z" />
   <path fill="#B1D2FC"
      d="M128.009 138.729H73.964c-4.954 0-9.007 4.096-9.007 9.102v113.021c0 5.006 4.053 9.102 9.007 9.102h54.045c4.955 0 9.008-4.096 9.008-9.102V147.831c0-5.006-4.054-9.102-9.008-9.102Z" />
   <path fill="#355298"
      d="M128.431 142.288c2.624 0 4.786 2.163 4.786 4.786v113.435c0 2.624-2.162 4.786-4.786 4.786H73.536c-2.624 0-4.786-2.162-4.786-4.786V147.074c0-2.624 2.162-4.786 4.786-4.786H85.5c0 1.166.954 2.119 2.119 2.119h29.534a2.125 2.125 0 0 0 2.119-2.119h9.16Z" />
   <path fill="#89CCFB"
      d="M73.227 145.521h3.718c.161 0 .293.131.293.292v.001a.294.294 0 0 1-.293.293h-3.718a.294.294 0 0 1-.293-.293v-.001c0-.161.131-.292.293-.292ZM73.227 146.918h3.718c.161 0 .293.132.293.293a.294.294 0 0 1-.293.293h-3.718a.294.294 0 0 1-.293-.293c0-.161.131-.293.293-.293ZM73.227 148.219h3.718c.161 0 .293.132.293.293a.294.294 0 0 1-.293.293h-3.718a.294.294 0 0 1-.293-.293c0-.161.131-.293.293-.293Z" />
   <path fill="#1F3E7A"
      d="M71.445 163.118h59.085c.015 0 .027.012.027.027v88.068a.027.027 0 0 1-.027.028H71.445a.027.027 0 0 1-.027-.028v-88.068c0-.015.012-.027.027-.027Z" />
   <path fill="#EB6502"
      d="M96.213 244.895h16.219a.86.86 0 0 0 .858-.857v-.001a.86.86 0 0 0-.858-.857H96.213a.86.86 0 0 0-.857.857v.001a.86.86 0 0 0 .857.857Z" />
   <path fill="#fff"
      d="M115.35 244.895h3.219a.86.86 0 0 0 .858-.857v-.001a.86.86 0 0 0-.858-.857h-3.219a.86.86 0 0 0-.858.857v.001a.86.86 0 0 0 .858.857ZM94.35 241.162h3.219a.86.86 0 0 0 .858-.858.86.86 0 0 0-.858-.858h-3.22a.86.86 0 0 0-.857.858.86.86 0 0 0 .858.858ZM96.213 237.428h5.334a.86.86 0 0 0 .858-.857.86.86 0 0 0-.858-.858h-5.334a.86.86 0 0 0-.857.858.86.86 0 0 0 .857.857ZM96.233 233.694h4.193a.86.86 0 0 0 .858-.857.86.86 0 0 0-.858-.858h-4.193a.86.86 0 0 0-.858.858.86.86 0 0 0 .858.857ZM96.233 229.961h14.788a.86.86 0 0 0 .858-.857.86.86 0 0 0-.858-.858H96.233a.86.86 0 0 0-.858.858.86.86 0 0 0 .858.857ZM104.53 237.428h3.136a.86.86 0 0 0 .857-.857.86.86 0 0 0-.857-.858h-3.136a.86.86 0 0 0-.858.858.86.86 0 0 0 .858.857Z" />
   <path fill="#EB6502"
      d="M102.959 233.694h11.316a.86.86 0 0 0 .858-.857.86.86 0 0 0-.858-.858h-11.316a.86.86 0 0 0-.857.858.86.86 0 0 0 .857.857Z" />
   <path fill="#6CD6FF"
      d="M117.143 233.694h2.296a.86.86 0 0 0 .858-.857.86.86 0 0 0-.858-.858h-2.296a.86.86 0 0 0-.858.858.86.86 0 0 0 .858.857Z" />
   <path fill="#FCCF00"
      d="M122.182 233.694h2.296a.86.86 0 0 0 .858-.857.86.86 0 0 0-.858-.858h-2.296a.86.86 0 0 0-.858.858.86.86 0 0 0 .858.857Z" />
   <path fill="#fff"
      d="M94.35 226.203h3.219a.86.86 0 0 0 .858-.858.86.86 0 0 0-.858-.858h-3.22a.86.86 0 0 0-.857.858.86.86 0 0 0 .858.858ZM96.213 193.388h5.334a.86.86 0 0 0 .858-.858.86.86 0 0 0-.858-.858h-5.334a.86.86 0 0 0-.857.858.86.86 0 0 0 .857.858ZM96.233 189.654h4.193a.86.86 0 0 0 .858-.857.86.86 0 0 0-.858-.858h-4.193a.86.86 0 0 0-.858.858.86.86 0 0 0 .858.857Z" />
   <path fill="#6CD6FF"
      d="M96.233 185.92h14.788a.86.86 0 0 0 .858-.857.86.86 0 0 0-.858-.858H96.233a.86.86 0 0 0-.858.858.86.86 0 0 0 .858.857Z" />
   <path fill="#fff"
      d="M104.53 193.388h3.136a.86.86 0 0 0 .857-.858.86.86 0 0 0-.857-.858h-3.136a.86.86 0 0 0-.858.858.86.86 0 0 0 .858.858Z" />
   <path fill="#C84E96"
      d="M102.959 189.654h11.316a.86.86 0 0 0 .858-.857.86.86 0 0 0-.858-.858h-11.316a.86.86 0 0 0-.857.858.86.86 0 0 0 .857.857Z" />
   <path fill="#FCCF00"
      d="M117.143 189.654h2.296a.86.86 0 0 0 .858-.857.86.86 0 0 0-.858-.858h-2.296a.86.86 0 0 0-.858.858.86.86 0 0 0 .858.857Z" />
   <path fill="#fff"
      d="M122.182 189.654h2.296a.86.86 0 0 0 .858-.857.86.86 0 0 0-.858-.858h-2.296a.86.86 0 0 0-.858.858.86.86 0 0 0 .858.857ZM96.319 221.214h3.219a.86.86 0 0 0 .858-.858.86.86 0 0 0-.858-.857h-3.22a.86.86 0 0 0-.857.857.86.86 0 0 0 .858.858ZM96.213 217.481h5.334a.86.86 0 0 0 .858-.858.86.86 0 0 0-.858-.858h-5.334a.86.86 0 0 0-.857.858.86.86 0 0 0 .857.858ZM96.233 213.747h4.193a.86.86 0 0 0 .858-.858.86.86 0 0 0-.858-.858h-4.193a.86.86 0 0 0-.858.858.86.86 0 0 0 .858.858Z" />
   <path fill="#FCCF00"
      d="M96.233 210.013h5.816a.86.86 0 0 0 .858-.857.86.86 0 0 0-.858-.858h-5.816a.86.86 0 0 0-.858.858.86.86 0 0 0 .858.857Z" />
   <path fill="#fff"
      d="M104.53 217.481h3.136a.86.86 0 0 0 .857-.858.86.86 0 0 0-.857-.858h-3.136a.86.86 0 0 0-.858.858.86.86 0 0 0 .858.858Z" />
   <path fill="#EF8200"
      d="M102.959 213.747h11.316a.86.86 0 0 0 .858-.858.86.86 0 0 0-.858-.858h-11.316a.86.86 0 0 0-.857.858.86.86 0 0 0 .857.858Z" />
   <path fill="#fff"
      d="M117.143 213.747h2.296a.86.86 0 0 0 .858-.858.86.86 0 0 0-.858-.858h-2.296a.86.86 0 0 0-.858.858.86.86 0 0 0 .858.858ZM122.182 213.747h2.296a.86.86 0 0 0 .858-.858.86.86 0 0 0-.858-.858h-2.296a.86.86 0 0 0-.858.858.86.86 0 0 0 .858.858ZM101.264 182.058h11.316a.86.86 0 0 0 .857-.858.86.86 0 0 0-.857-.858h-11.316a.86.86 0 0 0-.858.858.86.86 0 0 0 .858.858ZM115.444 182.058h2.296a.86.86 0 0 0 .858-.858.86.86 0 0 0-.858-.858h-2.296a.86.86 0 0 0-.858.858.86.86 0 0 0 .858.858ZM120.483 182.058h2.296a.86.86 0 0 0 .858-.858.86.86 0 0 0-.858-.858h-2.296a.86.86 0 0 0-.858.858.86.86 0 0 0 .858.858Z" />
   <path fill="#C84E96"
      d="M101.264 178.526h4.38a.86.86 0 0 0 .858-.858.86.86 0 0 0-.858-.857h-4.38a.86.86 0 0 0-.858.857.86.86 0 0 0 .858.858Z" />
   <path fill="#EB6502"
      d="M108.537 178.526h7.449a.86.86 0 0 0 .858-.858.86.86 0 0 0-.858-.857h-7.449a.86.86 0 0 0-.857.857.86.86 0 0 0 .857.858Z" />
   <path fill="#fff"
      d="M119.158 178.526h6.117a.86.86 0 0 0 .858-.858.86.86 0 0 0-.858-.857h-6.117a.86.86 0 0 0-.857.857.86.86 0 0 0 .857.858ZM101.264 206.289h11.316a.86.86 0 0 0 .857-.858.86.86 0 0 0-.857-.858h-11.316a.86.86 0 0 0-.858.858.86.86 0 0 0 .858.858ZM115.444 206.289h2.296a.86.86 0 0 0 .858-.858.86.86 0 0 0-.858-.858h-2.296a.86.86 0 0 0-.858.858.86.86 0 0 0 .858.858ZM120.483 206.289h2.296a.86.86 0 0 0 .858-.858.86.86 0 0 0-.858-.858h-2.296a.86.86 0 0 0-.858.858.86.86 0 0 0 .858.858ZM101.264 202.328h4.38a.86.86 0 0 0 .858-.858.86.86 0 0 0-.858-.858h-4.38a.86.86 0 0 0-.858.858.86.86 0 0 0 .858.858ZM108.537 202.328h7.449a.86.86 0 0 0 .858-.858.86.86 0 0 0-.858-.858h-7.449a.86.86 0 0 0-.857.858.86.86 0 0 0 .857.858ZM119.158 202.328h6.117a.86.86 0 0 0 .858-.858.86.86 0 0 0-.858-.858h-6.117a.86.86 0 0 0-.857.858.86.86 0 0 0 .857.858Z" />
   <path fill="#031542" d="M84.484 169.224H74.008v78.962h10.476v-78.962Z" />
   <path fill="#EF8200"
      d="M104.53 210.013h2.664a.86.86 0 0 0 .858-.857.86.86 0 0 0-.858-.858h-2.664a.86.86 0 0 0-.858.858.86.86 0 0 0 .858.857ZM109.49 210.013h2.665a.86.86 0 0 0 .858-.857.86.86 0 0 0-.858-.858h-2.665a.86.86 0 0 0-.857.858.86.86 0 0 0 .857.857Z" />
   <path fill="#fff"
      d="M94.35 198.075h4.435a.86.86 0 0 0 .858-.857.86.86 0 0 0-.858-.858H94.35a.86.86 0 0 0-.858.858.86.86 0 0 0 .858.857ZM101.264 198.075h2.665a.86.86 0 0 0 .857-.857.86.86 0 0 0-.857-.858h-2.665a.86.86 0 0 0-.858.858.86.86 0 0 0 .858.857ZM106.592 198.075h2.665a.86.86 0 0 0 .857-.857.86.86 0 0 0-.857-.858h-2.665a.86.86 0 0 0-.858.858.86.86 0 0 0 .858.857Z" />
   <path fill="#F0F8FD"
      d="M77.57 224.887h1.359a.83.83 0 0 0 .828-.828v-.001a.83.83 0 0 0-.828-.828H77.57a.83.83 0 0 0-.828.828v.001a.83.83 0 0 0 .828.828ZM76.164 220.787h5.196a.83.83 0 0 0 .828-.828v-.001a.83.83 0 0 0-.828-.828h-5.196a.83.83 0 0 0-.828.828v.001a.83.83 0 0 0 .828.828ZM76.164 216.446h3.727a.83.83 0 0 0 .828-.828.83.83 0 0 0-.828-.828h-3.727a.83.83 0 0 0-.828.828.83.83 0 0 0 .828.828ZM77.57 212.105h3.719a.83.83 0 0 0 .828-.828.83.83 0 0 0-.828-.828H77.57a.83.83 0 0 0-.828.828.83.83 0 0 0 .828.828ZM77.57 207.765h.52a.83.83 0 0 0 .828-.828v-.001a.83.83 0 0 0-.828-.828h-.52a.83.83 0 0 0-.828.828v.001a.83.83 0 0 0 .828.828ZM76.164 203.424h3.487a.83.83 0 0 0 .828-.828.83.83 0 0 0-.828-.828h-3.487a.83.83 0 0 0-.828.828.83.83 0 0 0 .828.828ZM77.547 199.083h.246a.83.83 0 0 0 .828-.828.83.83 0 0 0-.828-.828h-.246a.83.83 0 0 0-.828.828.83.83 0 0 0 .828.828ZM77.383 194.743h3.975a.83.83 0 0 0 .828-.828v-.001a.83.83 0 0 0-.828-.828h-3.975a.83.83 0 0 0-.828.828v.001a.83.83 0 0 0 .828.828ZM76.164 190.402h2.963a.83.83 0 0 0 .828-.828.83.83 0 0 0-.828-.828h-2.963a.83.83 0 0 0-.828.828.83.83 0 0 0 .828.828ZM77.383 186.061h3.975a.83.83 0 0 0 .828-.828.83.83 0 0 0-.828-.828h-3.975a.83.83 0 0 0-.828.828.83.83 0 0 0 .828.828ZM77.383 181.72h2.042a.83.83 0 0 0 .828-.828.83.83 0 0 0-.828-.828h-2.042a.83.83 0 0 0-.828.828.83.83 0 0 0 .828.828ZM76.164 177.38h1.195a.83.83 0 0 0 .828-.828.83.83 0 0 0-.828-.828h-1.195a.83.83 0 0 0-.828.828.83.83 0 0 0 .828.828ZM77.57 228.722h1.359a.83.83 0 0 0 .828-.828v-.001a.83.83 0 0 0-.828-.828H77.57a.83.83 0 0 0-.828.828v.001a.83.83 0 0 0 .828.828ZM76.164 232.557h4.988a.83.83 0 0 0 .828-.827v-.001a.83.83 0 0 0-.828-.828h-4.988a.83.83 0 0 0-.828.828v.001a.83.83 0 0 0 .828.827ZM77.57 236.392h1.359a.83.83 0 0 0 .828-.828.83.83 0 0 0-.828-.828H77.57a.83.83 0 0 0-.828.828.83.83 0 0 0 .828.828Z" />
   <path fill="#fff"
      d="M96.233 182.058h2.451a.86.86 0 0 0 .858-.858.86.86 0 0 0-.858-.858h-2.451a.86.86 0 0 0-.858.858.86.86 0 0 0 .858.858ZM92.717 178.526h5.866a.86.86 0 0 0 .857-.858.86.86 0 0 0-.857-.857h-5.866a.86.86 0 0 0-.858.857.86.86 0 0 0 .858.858ZM92.717 174.156h8.045a.86.86 0 0 0 .858-.858.86.86 0 0 0-.858-.858h-8.045a.86.86 0 0 0-.858.858.86.86 0 0 0 .858.858Z" />
   <path fill="#B1CBEF"
      d="M88.635 174.156a.52.52 0 0 0 .518-.518v-.679a.52.52 0 0 0-.518-.519.52.52 0 0 0-.518.519v.679a.52.52 0 0 0 .518.518ZM88.635 178.526a.52.52 0 0 0 .518-.518v-.679a.52.52 0 0 0-.518-.518.52.52 0 0 0-.518.518v.679a.52.52 0 0 0 .518.518ZM88.55 193.388a.498.498 0 0 0 .497-.496v-.723a.498.498 0 0 0-.496-.497.498.498 0 0 0-.496.497v.723c0 .273.223.496.496.496ZM88.56 189.654a.487.487 0 0 0 .486-.486v-.743a.488.488 0 0 0-.486-.486.488.488 0 0 0-.486.486v.743c0 .268.219.486.486.486ZM88.56 185.92a.487.487 0 0 0 .486-.485v-.744a.488.488 0 0 0-.486-.486.488.488 0 0 0-.486.486v.744c0 .267.219.485.486.485ZM88.56 182.057a.487.487 0 0 0 .486-.486v-.743a.487.487 0 0 0-.972 0v.743c0 .268.219.486.486.486ZM88.57 206.289a.477.477 0 0 0 .475-.476v-.764a.477.477 0 0 0-.475-.476.477.477 0 0 0-.476.476v.764c0 .262.214.476.476.476ZM88.57 202.328a.477.477 0 0 0 .475-.476v-.764a.477.477 0 0 0-.475-.476.477.477 0 0 0-.476.476v.764c0 .262.214.476.476.476ZM88.569 198.075a.476.476 0 0 0 .474-.475v-.765a.476.476 0 0 0-.95 0v.765c0 .261.215.475.476.475ZM88.626 221.214c.232 0 .422-.19.422-.423v-.87a.424.424 0 0 0-.422-.422.424.424 0 0 0-.423.422v.87c0 .233.19.423.423.423ZM88.57 217.481a.478.478 0 0 0 .475-.476v-.764a.477.477 0 0 0-.475-.476.477.477 0 0 0-.476.476v.764c0 .261.214.476.476.476ZM88.582 213.747c.256 0 .466-.21.466-.465v-.786a.466.466 0 0 0-.466-.465.467.467 0 0 0-.465.465v.786c0 .255.21.465.465.465ZM88.582 210.013a.466.466 0 0 0 .465-.465v-.785a.466.466 0 0 0-.93 0v.785c0 .256.21.465.465.465ZM88.642 241.162a.405.405 0 0 0 .404-.404v-.908a.405.405 0 0 0-.404-.404.405.405 0 0 0-.404.404v.908c0 .222.182.404.404.404ZM88.642 237.428a.405.405 0 0 0 .404-.404v-.907a.405.405 0 0 0-.404-.404.405.405 0 0 0-.404.404v.907c0 .223.182.404.404.404ZM88.637 233.695c.226 0 .41-.185.41-.411v-.894a.412.412 0 0 0-.41-.411.412.412 0 0 0-.41.411v.894c0 .226.184.411.41.411ZM88.626 229.961c.232 0 .422-.19.422-.422v-.87a.424.424 0 0 0-.422-.423.424.424 0 0 0-.423.423v.87c0 .232.19.422.423.422ZM88.626 226.203c.232 0 .422-.19.422-.423v-.87a.424.424 0 0 0-.422-.423.424.424 0 0 0-.423.423v.87c0 .233.19.423.423.423Z" />
   <path fill="#B1D2FC" d="M130.558 158.171h-59.14v4.965h59.14v-4.965Z" />
   <path fill="#fff"
      d="M126.992 159.574h-.621v1.51h.621v-1.51ZM128.089 159.574h-.62v1.51h.62v-1.51ZM129.183 159.574h-.621v1.51h.621v-1.51Z" />
</svg>