<svg xmlns="http://www.w3.org/2000/svg" width="130" height="24" fill="none" viewBox="2 0 22.06 24">
   <path fill="#000"
      d="M23.857.006 2.12 6.808c-.09.022-.136.124-.113.215l1.672 5.513c.023.09.124.147.203.113l15.943-4.994a3.008 3.008 0 0 0 1.774-1.491A35.343 35.343 0 0 0 24.038.22c.068-.136-.056-.249-.18-.215ZM18.638 9.542 5.136 13.768c-.068.022-.124.101-.09.18l1.423 4.655c.023.068.102.125.18.102l8.61-2.7a2.583 2.583 0 0 0 1.503-1.254 28.642 28.642 0 0 0 2.056-5.028c.034-.102-.067-.215-.18-.181ZM13.507 18.061l-5.626 1.762c-.068.012-.09.09-.08.147L9 23.914c.012.067.09.101.147.079l1.492-.463c.542-.17.994-.554 1.265-1.063a24.852 24.852 0 0 0 1.74-4.248c.045-.102-.045-.192-.136-.158Z" />
</svg>