<svg xmlns="http://www.w3.org/2000/svg" viewBox="0 0 21 24">
	<path
		d="M12.6 3.3 17.2 6c.4-.4.9-.6 1.5-.6 1.1 0 2 .9 2 2 0 .9-.6 1.7-1.5 1.9v5.3c.9.2 1.5 1 1.5 1.9 0 1.1-.9 2-2 2-.6 0-1.1-.3-1.5-.7l-4.6 2.7c.1.2.1.4.1.6 0 1.1-.9 2-2 2s-2-.9-2-2c0-.2 0-.4.1-.6L4.1 18c-.4.4-.9.6-1.4.6-1.1 0-2-.9-2-2 0-.9.6-1.7 1.5-1.9V9.3c-.9-.2-1.5-1-1.5-2 0-1.1.9-2 2-2 .4 0 .7.1 1 .3.2.1.3.3.4.4l4.6-2.7v-.5c0-1.1.9-2 2-2s2 .9 2 2c0 .2 0 .4-.1.5zm-.5.9 6 10.5h.1V9.3c-.9-.2-1.5-1-1.5-1.9 0-.2 0-.3.1-.5v-.1l-4.7-2.6zm-2.8 0L4.6 6.8c0 .2.1.4.1.6 0 .9-.6 1.7-1.4 1.9h-.1v5.3h.1l6-10.4zm1.9.5c-.2 0-.4.1-.6.1-.2 0-.4 0-.6-.1L4.1 15.2c.3.3.5.6.6 1h12.1c.1-.4.3-.7.6-1L11.2 4.7zm1 15.2 4.6-2.7v-.1H4.6v.1l4.6 2.7c.4-.4.9-.6 1.4-.6.7-.1 1.2.2 1.6.6z" />
</svg>