<svg xmlns="http://www.w3.org/2000/svg" stroke-miterlimit="2" viewBox="0 0 24 24">
   <path
      d="M13.25 1.25H6c-.729 0-1.429.29-1.945.805A2.755 2.755 0 0 0 3.25 4v16c0 .729.29 1.429.805 1.945A2.755 2.755 0 0 0 6 22.75h12A2.75 2.75 0 0 0 20.75 20V8.75H16A2.75 2.75 0 0 1 13.25 6V1.25ZM16.75 17v-4.571a.75.75 0 0 0-1.5 0v1.25h-.466a2.034 2.034 0 0 0-2.034 2.034v.002c0 1.109.893 2.011 2.001 2.022l1.241.013h.023a.79.79 0 0 0 .163-.021l.043-.012.025-.008a.749.749 0 0 0 .259-.155l.029-.028.015-.015a.765.765 0 0 0 .157-.258l.014-.041.007-.026a.8.8 0 0 0 .023-.164V17Zm-5.79-2.5 1.626-2.031a.752.752 0 0 0-.117-1.055.752.752 0 0 0-1.055.117L10 13.299l-1.414-1.768a.752.752 0 0 0-1.055-.117.752.752 0 0 0-.117 1.055L9.04 14.5l-1.626 2.031a.752.752 0 0 0 .117 1.055.752.752 0 0 0 1.055-.117L10 15.701l1.414 1.768a.752.752 0 0 0 1.055.117.752.752 0 0 0 .117-1.055L10.96 14.5Zm4.29.679h-.466a.534.534 0 0 0-.534.534v.002c0 .286.23.519.517.522l.483.005v-1.063Zm-.5-13.486V6c0 .69.56 1.25 1.25 1.25h4.307a2.412 2.412 0 0 0-.07-.073l-5.414-5.414a2.412 2.412 0 0 0-.073-.07Z" />
</svg>