<svg xmlns="http://www.w3.org/2000/svg" fill="none" viewBox="0 0 25 24">
   <path fill="#000"
      d="M1.464 7.5a2 2 0 0 1 2-2h18a2 2 0 0 1 2 2v7a2 2 0 0 1-2 2h-5.762l1.248 3.12-5.616-3.12h-7.87a2 2 0 0 1-2-2v-7Zm10.297.177a.75.75 0 1 0-1.347-.661 13.342 13.342 0 0 0-1.328 5.022c-.403-.892-.641-1.86-.737-2.911a.75.75 0 0 0-1.408-.286l-1.996 3.722a45.384 45.384 0 0 1-.84-5.035.75.75 0 1 0-1.49.169c.258 2.278.6 4.05.88 5.258.14.604.265 1.066.355 1.381.045.157.082.278.108.36l.041.128a.75.75 0 0 0 1.373.117L7.26 11.42a9.436 9.436 0 0 0 2.051 3.669.75.75 0 0 0 1.306-.569c-.22-2.42.095-4.705 1.144-6.842Zm2.004 1.691c-.294.278-.556.73-.672 1.302-.116.572-.05 1.091.112 1.461.163.372.388.531.579.57.19.039.46-.02.755-.3.293-.277.555-.73.671-1.302.116-.572.05-1.09-.112-1.46-.163-.373-.388-.532-.579-.57-.19-.04-.46.02-.755.3ZM12.732 8.28c.541-.512 1.285-.843 2.084-.68.8.161 1.356.755 1.655 1.437.3.686.378 1.523.208 2.36-.17.838-.567 1.58-1.11 2.094-.54.513-1.284.843-2.084.681-.8-.162-1.356-.755-1.655-1.438-.3-.685-.378-1.523-.208-2.36.17-.838.567-1.58 1.11-2.094Zm6.1 2.487c.12-.593.385-1.064.677-1.354.297-.293.55-.343.71-.311.16.032.373.175.53.559.155.378.215.914.094 1.507-.12.592-.386 1.063-.678 1.353-.296.294-.55.344-.71.311-.16-.032-.372-.175-.53-.558-.155-.379-.214-.915-.093-1.507Zm1.683-3.136c-.801-.16-1.536.196-2.062.717-.53.525-.92 1.276-1.091 2.119-.172.844-.107 1.686.176 2.376.28.684.819 1.298 1.621 1.46.802.161 1.537-.196 2.062-.717.53-.525.92-1.275 1.092-2.119.172-.843.107-1.686-.176-2.376-.281-.684-.82-1.298-1.622-1.46Z" />
</svg>