<svg xmlns="http://www.w3.org/2000/svg" xml:space="preserve" style="enable-background:new 0 0 45.2 49.4"
	viewBox="0 0 45.2 49.4">
	<path
		d="M39.5 10.3c.2 0 .4.1.4.4 0 .2 1.9 12.8 3.4 23 1 6.8 1.8 12.4 1.8 12.4l-14.8 3.2L3 44.2S6.5 17 6.6 16.1c.2-1.3.2-1.3 1.6-1.7.1 0 .7-.2 1.5-.5.7-.2 1.7-.5 2.8-.9.9-3.9 3.9-11.7 10.1-11.7.8 0 1.7.5 2.5 1.4h.2c2.7 0 4.2 2.3 5 4.7.9-.3 1.4-.5 1.4-.5.2 0 .5-.1.8 0 .1 0 .2.1.3.2.2.3 2.7 2.7 2.8 2.8h.6c1.1.3 3.2.4 3.3.4zM27.1 8.5c.6-.2 1.2-.3 1.7-.5-.6-1.8-1.5-3.3-2.9-3.5.3 1 .6 2.2.6 3.7v.5c.2-.1.4-.1.6-.2zm-2.8-3.7c.4 1 .6 2.3.6 4.2v.3c-1.5.5-3.1 1-4.8 1.5.9-3.6 2.7-5.4 4.2-6zm-1.1-1.5c-.3-.2-.5-.3-.8-.3-4.4 0-6.9 5.8-8 9.4 1.2-.4 2.5-.8 3.8-1.2.9-4.6 3-7 5-7.9zm.3 20.7 1.8-5.4s-1.2-.7-3.8-.7c-6.5 0-9.7 4.4-9.7 8.8 0 3 1.7 4.3 3.1 5.5 1.1.9 2.2 1.8 2.2 3.2 0 .8-.6 1.9-1.9 1.9-2.1 0-4.6-2.1-4.6-2.1l-1.2 4.2s2.4 2.9 7.1 2.9c3.9 0 6.8-2.9 6.8-7.5 0-3.5-2.4-5.3-4.2-6.6-1.2-.9-2.2-1.6-2.2-2.6 0-.5.1-2.3 3-2.3 2-.2 3.6.7 3.6.7z"
		style="fillRule:evenodd;clipRule:evenodd" />
	<path d="M43.2 3.7h-2.8v2.8h-1V3.7h-2.8v-1h2.8V-.1h1v2.8h2.8v1z" />
</svg>