<svg xmlns="http://www.w3.org/2000/svg" viewBox="0 0 16 16">
   <path d="M6 3H4v4h2c1.103 0 2-.897 2-2s-.897-2-2-2z" />
   <path
      d="M15 0H1C.449 0 0 .449 0 1v14c0 .552.449 1 1 1h14a1 1 0 0 0 1-1V1c0-.551-.448-1-1-1zM6 8H4v5.5a.5.5 0 0 1-1 0v-11a.5.5 0 0 1 .5-.5H6c1.654 0 3 1.346 3 3S7.654 8 6 8zm5 5a1.987 1.987 0 0 1-1.412-.584.5.5 0 0 1 .705-.709A1 1 0 1 0 11 10c-1.103 0-2-.897-2-2a2.002 2.002 0 0 1 3.413-1.416.5.5 0 0 1-.707.708A1.001 1.001 0 1 0 11 9c1.103 0 2 .897 2 2s-.897 2-2 2z" />
</svg>