<svg xmlns="http://www.w3.org/2000/svg" viewBox="0 0 24 24">
   <path
      d="M22 0H2a2 2 0 0 0-2 2v20a2 2 0 0 0 2 2h20a2 2 0 0 0 2-2V2a2 2 0 0 0-2-2zm-7.848 16.35h-1.65c-.083 0-.132-.02-.148-.086l-.825-3.015H8.322l.003.001-.792 2.998c-.017.083-.05.102-.148.102H5.917c-.1 0-.115-.033-.1-.148l2.84-9.945c.05-.18.082-.338.098-.833 0-.066.033-.1.083-.1h2.096c.066 0 .1.018.116.1l3.185 10.794c.017.083 0 .132-.083.132zm3.379-.108c0 .083-.016.116-.115.116h-1.55c-.1 0-.133-.05-.133-.13V8.34l-.008.001c0-.08.033-.11.116-.11h1.57c.088 0 .12.033.12.116v7.895zm-.912-9.152c-.6 0-1.01-.363-1.01-1.023h.004c0-.643.445-1.023 1.023-1.023.61 0 1.023.412 1.023 1.023 0 .66-.43 1.023-1.04 1.023z" />
   <path d="M9.908 6.925c-.214 1.17-.742 3.15-1.155 4.7h2.36c-.28-1.106-.94-3.528-1.188-4.7h-.017z" />
</svg>