<svg xmlns="http://www.w3.org/2000/svg" xml:space="preserve" id="Laag_1" x="0" y="0"
	style="enable-background:new 0 0 2489.2 2487.6" version="1.1" viewBox="0 0 2489.2 2487.6">
	<style>
		.st0 {
			fill: #000
		}
	</style>
	<path
		d="M1311.5 1416.2h314c89.3 0 145.8-49.1 145.8-128 0-74.4-56.5-128-145.8-128h-314c-10.4 0-19.3 8.9-19.3 17.9v220.2c1.4 10.4 8.8 17.9 19.3 17.9zm0 507.4h324.4c99.7 0 159.2-50.6 159.2-139.9 0-77.4-56.5-139.9-159.2-139.9h-324.4c-10.4 0-19.3 8.9-19.3 17.9v242.6c1.4 11.9 8.8 19.3 19.3 19.3z"
		class="st0" />
	<path
		d="m2460.3 5.5-928.6 925.6h151.8c236.6 0 376.5 148.8 376.5 311 0 128-86.3 221.7-178.6 263.4-14.9 6-14.9 26.8 1.5 32.7 107.1 41.7 183 153.3 183 284.2 0 184.5-123.5 331.8-363.1 331.8h-657.7c-10.4 0-19.3-8.9-19.3-17.9v-700.9L6.4 2450.4c-13.4 13.4-4.5 37.2 14.9 37.2h2450.9c8.9 0 16.4-7.4 16.4-16.4V18.9c4.4-16.4-16.4-25.3-28.3-13.4z"
		class="st0" />
</svg>