<svg xmlns="http://www.w3.org/2000/svg" viewBox="0 0 24 24">
   <g fill="none" stroke="#010101" stroke-miterlimit="10">
      <path
         d="M18.671 5.137a7.79 4.558-45 0 1-2.285 8.731 7.79 4.558-45 0 1-8.731 2.285A7.79 4.558-45 0 1 18.67 5.137z" />
      <path
         d="M13.82 4.576c-1.091-2.05-2.075-3.104-2.777-2.877-1.18.38-.85 4.671.735 9.583s3.829 8.584 5.01 8.203c.818-.265.86-2.404.36-5.345-.07-.405-.189-.882-.189-.882" />
      <path
         d="M19.159 10.062c2.095 1.172 3.224 2.255 2.973 2.966-.413 1.17-4.697.725-9.568-.993S4.08 7.975 4.492 6.804c.286-.81 2.422-.847 5.323-.225.62.133.703.146.703.146M6.78 12.782l.113-.1-4.192 3.732 3.079 1.512 1.489 3.22 3.94-4.247-.12.129" />
   </g>
</svg>