<svg xmlns="http://www.w3.org/2000/svg" id="Layer_1" data-name="Layer 1" viewBox="3 3.42 144.36 60.34">
   <defs>
      <style>
         .cls-1 {
            fill: #000
         }
      </style>
   </defs>
   <path
      d="M23.52 3.42c-6.441 0-11.659 4.638-11.659 10.353S17.08 24.12 23.52 24.12c6.437 0 11.659-4.634 11.659-10.348S29.957 3.42 23.52 3.42"
      style="fill:#000" />
   <path
      d="M93.875 33.767a10.525 10.525 0 0 0 3.126-7.637 11.11 11.11 0 0 0-4.38-8.9q-4.38-3.593-12.556-3.596H47.378v50.078h30.134c-.008 0 6.764.028 6.761.015L94.42 39.652a20.017 20.017 0 0 0-6.634-2.526 14.308 14.308 0 0 0 6.089-3.359m-28.89-10.009h7.72q3.978 0 5.581 1.24a4.118 4.118 0 0 1 1.606 3.449 4.356 4.356 0 0 1-1.606 3.639c-1.07.84-2.964 1.26-5.696 1.26h-7.605ZM80.24 51.555q-1.846 1.416-6.35 1.414h-8.904v-10.12h8.856q4.59 0 6.414 1.345a4.214 4.214 0 0 1 1.839 3.56 4.56 4.56 0 0 1-1.855 3.801ZM126.255 13.674h-19.138L85.931 63.76h17.816l2.838-8.261h19.714l2.802 8.26h18.258l-21.104-50.085m-15.953 30.773 6.189-18.009 6.121 18.009ZM38.577 13.76c-.008 6.868-5.83 12.516-13.317 13.286v36.717H43.9V13.76h-5.323M8.317 13.76H3v50.003h18.63V27.042C14.14 26.276 8.328 20.624 8.316 13.76"
      class="cls-1" />
</svg>