<svg xmlns="http://www.w3.org/2000/svg" width="300" height="311" fill="none">
   <path fill="#A9CEEA"
      d="M74.876 26.733a19.79 19.79 0 0 0-1.109-6.977l5.108-4.52-3.347-5.39-6.303 2.543a19.538 19.538 0 0 0-5.782-4.152l.413-6.78L57.684 0l-2.652 6.303a19.686 19.686 0 0 0-6.955 1.195l-4.564-5.15-5.39 3.346 2.608 6.455c-1.674 1.652-3 3.587-3.977 5.651l-7.02-.413-1.457 6.173 6.564 2.782c0 2.239.37 4.499 1.13 6.672l-5.368 4.76 3.347 5.39 6.672-2.695a20.193 20.193 0 0 0 5.434 3.912l-.435 7.194 6.173 1.456 2.782-6.607c2.238.022 4.499-.304 6.672-1.043l4.717 5.325 5.39-3.347-2.652-6.52a20.093 20.093 0 0 0 4.086-5.586l6.955.413 1.456-6.173-6.324-2.76ZM60.14 34.84c-4.695 2.912-10.89 1.478-13.801-3.238-2.913-4.717-1.478-10.89 3.238-13.802 4.695-2.912 10.889-1.478 13.801 3.239 2.912 4.694 1.456 10.889-3.238 13.801Z" />
   <path fill="#C9E2F4"
      d="M72.462 27.994a19.79 19.79 0 0 0-1.109-6.977l5.108-4.52-3.347-5.39-6.303 2.564a19.54 19.54 0 0 0-5.782-4.151l.413-6.782-6.172-1.456-2.652 6.303a19.685 19.685 0 0 0-6.955 1.196L41.1 3.63l-5.39 3.347 2.608 6.455c-1.673 1.652-3 3.586-3.977 5.65l-7.02-.412-1.457 6.172 6.564 2.782c0 2.239.37 4.5 1.13 6.673l-5.368 4.76 3.347 5.39 6.672-2.696a20.197 20.197 0 0 0 5.434 3.913l-.435 7.194 6.173 1.456 2.782-6.607c2.238.021 4.499-.305 6.672-1.044l4.716 5.325 5.39-3.347-2.651-6.52a20.098 20.098 0 0 0 4.086-5.586l6.955.413 1.456-6.172-6.325-2.782ZM57.725 36.1c-4.695 2.913-10.89 1.478-13.802-3.238-2.912-4.716-1.477-10.889 3.239-13.801 4.694-2.913 10.889-1.478 13.801 3.238 2.913 4.695 1.456 10.867-3.238 13.801Z" />
   <path fill="#A9CEEA"
      d="m27.297 18.604 2.086.13.326-1.39-2.412 1.26ZM55.27 1.239 57.681 0l-.696 1.652-1.716-.413ZM41.078 3.565l2.413-1.24-2.282 1.413-.13-.173ZM49.379 54.206l2.412-1.261-1.717-.391-.695 1.651ZM77.352 36.84l2.412-1.24-2.086-.13-.326 1.37ZM63.57 51.88l2.413-1.261-.152-.152-2.26 1.413Z" />
   <path fill="#75BDFB"
      d="M267.676 112.909c15.965 0 28.907-12.942 28.907-28.907 0-15.964-12.942-28.906-28.907-28.906S238.77 68.038 238.77 84.002c0 15.965 12.941 28.907 28.906 28.907Z" />
   <path fill="#fff"
      d="M280.279 84.003h-.065c.043-.391.065-.782.065-1.195a10.537 10.537 0 0 0-10.541-10.541c-4.912 0-9.02 3.368-10.193 7.91h-2.565a7.773 7.773 0 0 0-7.781 7.782 7.773 7.773 0 0 0 7.781 7.78H264.696v-6.954h-3.26c-.196 0-.305-.153-.218-.261l6.933-8.15c.087-.11.327-.11.413 0l6.934 8.15c.108.108-.022.26-.218.26h-3.26v6.956h8.237a5.872 5.872 0 0 0 5.869-5.869c0-3.238-2.608-5.868-5.847-5.868Z" />
   <path fill="#F6AAAD"
      d="M39.556 63.812H2.478A2.477 2.477 0 0 0 0 66.288v25.907a2.477 2.477 0 0 0 2.478 2.478h37.078a2.477 2.477 0 0 0 2.478-2.478V66.29a2.477 2.477 0 0 0-2.478-2.477Z" />
   <path fill="#fff"
      d="M12.428 78.482c1.608-.022 1.782-.891 1.782-1.63 0-.587-.065-1.218-.13-1.826-.087-.652-.152-1.26-.152-1.87 0-2.15 1.369-3.064 3.412-3.064h.674v1.652h-.435c-1.195 0-1.608.674-1.608 1.782 0 .457.065.935.152 1.457.043.5.13 1.064.13 1.651.022 1.609-.674 2.304-1.825 2.565v.043c1.173.283 1.869.978 1.825 2.587 0 .608-.087 1.173-.13 1.673-.087.5-.152.978-.152 1.457 0 1.151.456 1.803 1.608 1.803h.413v1.63h-.674c-2 0-3.412-.825-3.412-3.15 0-.566.065-1.218.152-1.827.065-.63.13-1.217.13-1.804 0-.673-.173-1.608-1.782-1.63v-1.5h.022ZM29.619 79.981c-1.587.022-1.782.957-1.782 1.63 0 .587.086 1.196.152 1.804.065.63.152 1.261.152 1.826 0 2.326-1.413 3.151-3.412 3.151h-.674v-1.63h.413c1.152-.021 1.586-.673 1.586-1.803 0-.457-.065-.935-.13-1.457-.065-.5-.13-1.065-.13-1.673-.022-1.609.673-2.326 1.803-2.587V79.2c-1.152-.283-1.825-.956-1.804-2.565 0-.587.066-1.152.13-1.651.066-.5.131-.979.131-1.457 0-1.13-.413-1.76-1.586-1.782h-.413v-1.652h.674c2.043 0 3.412.913 3.412 3.065 0 .587-.087 1.217-.152 1.869-.066.63-.152 1.239-.152 1.826 0 .739.217 1.608 1.782 1.63v1.5Z" />
   <path fill="#7AA9E4" d="M285.671 156.464H249.18v26.494h36.491v-26.494Z" />
   <path fill="#fff"
      d="m255.09 170.091 8.324-4.043v1.587l-6.585 3.064v.044l6.585 3.086v1.565l-8.324-4.042v-1.261ZM264.609 176.09l4.282-12.715h1.5l-4.282 12.715h-1.5ZM279.758 171.395l-8.324 3.999v-1.565l6.694-3.086v-.044l-6.694-3.086v-1.565l8.324 3.999v1.348Z" />
   <path fill="#5283A8"
      d="m71.356 310.994 138.36-.131c7.194 0 13.019-5.607 13.019-12.518l-.261-258.899c0-7.085-5.999-12.823-13.367-12.823l-137.665.13c-7.39 0-13.366 5.76-13.344 12.845l.26 258.899c-.043 6.911 5.804 12.497 12.998 12.497Z" />
   <path fill="#92BFF7"
      d="m76.181 308.451 131.927-.13c6.868 0 12.432-5.456 12.432-12.172l-.239-252.312c0-6.89-5.738-12.476-12.78-12.454l-131.275.13c-7.063 0-12.78 5.608-12.758 12.497l.24 252.313c0 6.694 5.585 12.128 12.453 12.128Z" />
   <path fill="#1D3B77" d="m212.605 40.417-141.468.145.263 256.139 141.469-.146-.264-256.138Z" />
   <path fill="#5F9BDD"
      d="M164.314 34.209h-44.337v3.173h44.337v-3.173ZM126.517 305.496l31.254-.022c1.304 0 2.369-.717 2.369-1.608v-2.695c0-.891-1.065-1.609-2.369-1.609l-31.254.022c-1.304 0-2.369.717-2.369 1.609v2.695c0 .891 1.065 1.608 2.369 1.608Z" />
   <path fill="#fff"
      d="M71.16 57.53c6.999 28.645 21.843 74.026 55.336 121.059a352.686 352.686 0 0 0 86.328 85.242c0 10.91.022 21.799.022 32.71l-141.469.152-.217-239.164Z"
      opacity=".06" />
   <path fill="#75BDFB"
      d="M198.088 126.58h-47.446a2.867 2.867 0 0 1-2.869-2.869V89.61a2.867 2.867 0 0 1 2.869-2.87h47.446a2.866 2.866 0 0 1 2.869 2.87v34.101a2.866 2.866 0 0 1-2.869 2.869Z" />
   <path fill="#fff" d="M169.465 99.737v13.845l12.91-6.933-12.91-6.912Z" />
   <path fill="#75BDFB"
      d="M146.381 246.118H81.7a4.782 4.782 0 0 0-4.782 4.782v29.406c0 2.63 2.13 4.782 4.781 4.782h64.682a4.782 4.782 0 0 0 4.781-4.782V250.9c-.022-2.63-2.152-4.782-4.781-4.782Z" />
   <path fill="#fff"
      d="m124.494 250.878-17.105 4.673c-.282.087-.499.326-.499.63l-.261 7.39-.239 7.128a6.186 6.186 0 0 0-2.326-.5c-2.847-.108-5.194 1.544-5.281 3.695-.066 2.13 2.173 3.956 4.999 4.043 2.847.109 5.194-1.543 5.281-3.695l.391-11.454 12.823-3.499-.239 7.194a6.18 6.18 0 0 0-2.325-.5c-2.847-.109-5.195 1.543-5.282 3.695-.065 2.13 2.174 3.955 4.999 4.042 2.847.109 5.195-1.543 5.282-3.694l.391-11.498.239-6.955a.656.656 0 0 0-.848-.695Z" />
   <path fill="#99D6F5"
      d="M139.208 233.36h-59.29c-1.653 0-3-1.348-3-2.999v-90.763a3.006 3.006 0 0 1 3-2.999h59.29c1.652 0 3 1.348 3 2.999v90.763a3.006 3.006 0 0 1-3 2.999Z" />
   <path fill="#D2EEF9"
      d="M116.278 182.632h-32.34v6.129h32.34v-6.129ZM130.753 194.803H83.938v6.129h46.815v-6.129ZM130.753 205.931H83.938v6.129h46.815v-6.129Z" />
   <path fill="#fff"
      d="M121.822 174.525h-28.95a2.133 2.133 0 0 1-2.13-2.13v-25.429c0-1.173.956-2.13 2.13-2.13h28.95c1.174 0 2.13.957 2.13 2.13v25.429c0 1.174-.956 2.13-2.13 2.13Z" />
   <path fill="#3885C6"
      d="m116.497 162.202-5.847 5.651-7.824-11.389-12.04 16.322c.108 1.087.977 1.935 2.086 1.935H121.8c1.174 0 2.13-.957 2.13-2.13v-2.978l-7.433-7.411ZM119.087 156.703a2.579 2.579 0 0 1-2.587 2.586 2.579 2.579 0 0 1-2.586-2.586 2.579 2.579 0 0 1 2.586-2.587c1.435.022 2.587 1.174 2.587 2.587Z" />
   <path fill="#99D6F5"
      d="M123.521 127.124H78.553a4.61 4.61 0 0 1-4.608-4.608V91.327a4.61 4.61 0 0 1 4.608-4.607h44.946a4.61 4.61 0 0 1 4.608 4.607v31.189c0 2.543-2.065 4.608-4.586 4.608Z" />
   <path fill="#F3B344" d="M116.411 119.886H86.266V93.957h5.998L95.046 96h21.365v23.886Z" />
   <path fill="#F1F2F2" d="M115.437 98.238H87.313v1.413h28.124v-1.413Z" />
   <path fill="#D89030"
      d="M117.023 119.886H85.03a.918.918 0 0 1-.913-.913v-18.409c0-.5.413-.913.913-.913h31.993c.5 0 .913.413.913.913v18.409a.892.892 0 0 1-.913.913Z" />
   <path fill="#F3B344"
      d="M116.001 118.712H84.987a.872.872 0 0 1-.87-.869v-17.301c0-.478.391-.87.87-.87H116c.478 0 .87.392.87.87v17.301a.872.872 0 0 1-.87.869Z" />
   <path fill="#F9BE69"
      d="M96.895 105.65c1.978-1.739 2.803-4.065 4.064-5.977H85.006a.872.872 0 0 0-.87.869v12.476c2.587-1.217 8.216-3.413 12.759-7.368Z" />
   <path fill="#FBFDFF" d="M204 59.42H76.79v14.845H204V59.42Z" />
   <path fill="#99D6F5" d="M203.998 59.42H186.48v14.845h17.518V59.42Z" />
   <path fill="#fff"
      d="M199.352 69.419c1.826-1.522 2.065-4.26.521-6.086-1.521-1.825-4.259-2.065-6.085-.521a4.318 4.318 0 0 0-1.022 5.346l-2.303 1.934a.888.888 0 0 0-.109 1.24.889.889 0 0 0 1.239.108l2.304-1.934a4.322 4.322 0 0 0 5.455-.087Zm-4.738-1.674a2.573 2.573 0 0 1 .304-3.608 2.573 2.573 0 0 1 3.608.305 2.573 2.573 0 0 1-.304 3.608 2.533 2.533 0 0 1-3.608-.305Z" />
   <path fill="#94BBEA"
      d="M179.157 145.923h-10.411a.505.505 0 0 1-.5-.5v-2.39c0-.261.217-.5.5-.5h10.411c.261 0 .5.217.5.5v2.39c0 .261-.218.5-.5.5ZM205.37 145.923h-23.886a.505.505 0 0 1-.5-.5v-2.39c0-.261.218-.5.5-.5h23.886c.261 0 .5.217.5.5v2.39c-.022.261-.239.5-.5.5ZM173.093 160.507h-4.347a.506.506 0 0 1-.5-.5v-2.391c0-.261.217-.5.5-.5h4.347c.261 0 .5.218.5.5v2.391c0 .282-.239.5-.5.5ZM197.435 160.507h-19.822a.506.506 0 0 1-.5-.5v-2.391c0-.261.218-.5.5-.5h19.822c.261 0 .5.218.5.5v2.391c-.022.282-.239.5-.5.5ZM186.59 153.204h-17.844a.505.505 0 0 1-.5-.5v-2.391c0-.26.217-.5.5-.5h17.844c.261 0 .5.218.5.5v2.391c0 .283-.218.5-.5.5ZM201.369 153.204h-11.193a.505.505 0 0 1-.5-.5v-2.391c0-.26.217-.5.5-.5h11.193c.261 0 .5.218.5.5v2.391c0 .283-.239.5-.5.5Z" />
   <path fill="#6DA8E2"
      d="M163.878 156.899h-13.019a.505.505 0 0 1-.5-.5v-13.388c0-.261.218-.5.5-.5h13.019c.261 0 .5.218.5.5v13.388c0 .283-.217.5-.5.5Z" />
   <path fill="#94BBEA"
      d="M179.157 180.523h-10.411a.505.505 0 0 1-.5-.5v-2.39c0-.261.217-.5.5-.5h10.411c.261 0 .5.217.5.5v2.39c0 .283-.218.5-.5.5ZM205.37 180.523h-23.886a.505.505 0 0 1-.5-.5v-2.39c0-.261.218-.5.5-.5h23.886c.261 0 .5.217.5.5v2.39c-.022.283-.239.5-.5.5ZM173.093 195.107h-4.347a.505.505 0 0 1-.5-.5v-2.391c0-.261.217-.5.5-.5h4.347c.261 0 .5.218.5.5v2.391c0 .283-.239.5-.5.5ZM197.435 195.107h-19.822a.505.505 0 0 1-.5-.5v-2.391c0-.261.218-.5.5-.5h19.822c.261 0 .5.218.5.5v2.391c-.022.283-.239.5-.5.5ZM186.59 187.804h-17.844a.505.505 0 0 1-.5-.5v-2.391c0-.26.217-.499.5-.499h17.844c.261 0 .5.217.5.499v2.391c0 .283-.218.5-.5.5ZM201.369 187.804h-11.193a.505.505 0 0 1-.5-.5v-2.391c0-.26.217-.499.5-.499h11.193c.261 0 .5.217.5.499v2.391c0 .283-.239.5-.5.5Z" />
   <path fill="#6DA8E2"
      d="M163.878 191.499h-13.019a.505.505 0 0 1-.5-.499v-13.389c0-.261.218-.5.5-.5h13.019c.261 0 .5.218.5.5V191a.491.491 0 0 1-.5.499Z" />
   <path fill="#D2EEF9"
      d="M189.679 218.624h-.087c.043-.435.087-.891.087-1.347 0-6.608-5.347-11.954-11.954-11.954-5.564 0-10.237 3.803-11.563 8.976h-2.912c-4.869 0-8.824 3.956-8.824 8.824 0 4.869 3.955 8.824 8.824 8.824h8.737v-7.868h-3.695c-.217 0-.348-.173-.239-.304l7.868-9.237c.109-.13.369-.13.478 0l7.868 9.237c.109.131-.022.304-.239.304h-3.695v7.868h9.346a6.65 6.65 0 0 0 6.65-6.65c0-3.674-2.977-6.673-6.65-6.673Z" />
   <path fill="#96B0D6"
      d="m50.888 232.638-14.49 77.933 2.308.429 14.49-77.933-2.308-.429ZM26.388 232.631l-14.49 77.933 2.308.429 14.49-77.933-2.308-.429Z" />
   <path fill="#96B0D6" d="M48.078 250.117H23.3v2.347h24.777v-2.347Z" />
   <path fill="#85A5CC"
      d="m44.664 232.624-2.312.404 13.63 77.926 2.313-.404-13.631-77.926ZM70.062 232.653l-2.312.404 13.631 77.934 2.312-.404-13.63-77.934Z" />
   <path fill="#85A5CC"
      d="M71.225 250.117h-25.19v2.347h25.19v-2.347ZM75.117 271.786H50.535v2.347h24.582v-2.347ZM79.156 293.542h-24.82v2.347h24.82v-2.347Z" />
   <path fill="#96B0D6" d="M44.581 271.786H19.152v2.347h25.43v-2.347ZM40.515 293.542H15.629v2.347h24.886v-2.347Z" />
   <path fill="#85A5CC" d="M25.93 234.99h44.12v-2.347H26.386l-.456 2.347Z" />
   <path fill="#252933"
      d="M37.757 223.732s-1.174 7.846.108 8.542c1.304.695 15.127-.283 15.127-.283s1.37-1.934-.587-2.652c-1.956-.695-8.41-2.847-9.041-5.477l-5.607-.13Z" />
   <path fill="#2D313D"
      d="M49.448 224.015s-1.174 7.846.109 8.541c1.304.696 15.127-.282 15.127-.282s1.369-1.935-.587-2.652c-1.956-.695-8.411-2.847-9.042-5.477l-5.607-.13Z" />
   <path fill="#FBDDB8"
      d="M42.06 161.333s.783 1.369 1.826 2.455c1.065 1.087 3.586 1.522 1.13 3.369-2.477 1.869-3.086-.087-3.39-.891-.456-1.195.326-.63-.478-1.456-.783-.826-1.304-2.456-1.304-2.456l2.217-1.021Z" />
   <path fill="#FEB48C"
      d="M53.011 120.581s1.283 4.325 1.217 6.955c-.065 2.63-4.064 4.499-4.064 4.499l-.065 2.304-7.76-.196s.153-1.239.044-1.782c-.087-.522 5.956-11.584 10.628-11.78Z" />
   <path fill="#3F4752"
      d="m43.904 224.536-6.564-.174s1.087-17.062 3.934-25.538c0 0-2.043-10.237-2.543-16.822 0 0-1.891-3.326-1.022-11.845l18.41-.196s4.063 21.778 4.607 25.733c.565 3.956-4.543 24.19-4.673 29.45l-7.216-.174s1.152-19.691 3.934-25.537c0 0-3.151-5.347-5.042-8.672 0 0 1.043 10.541.348 12.497-.718 1.978-3.673 14.388-4.173 21.278Z" />
   <path fill="#4484E0"
      d="M54.512 155.465c.76-3.934 1.565-8.911 1.565-8.911s0-.087.022-.218c.087-.891.108-1.804.065-2.695v-.152c.043-7.172-4.456-7.824-4.456-7.824l-1.282-1.348-9.194-.239s-4.629 1.196-5.433 7.085c-.804 5.89 2.89 15.845 2.13 19.779-.76 3.934-2.434 10.128-.37 10.997 2.043.87 15.866.565 18.561-1.999 2.695-2.543-2.369-10.541-1.608-14.475Z" />
   <path fill="#2F3740"
      d="M48.057 203.28c.696-1.956-.347-12.497-.347-12.497.195.326.39.695.608 1.043.435-5.194-3.325-10.65-3.325-10.65 2.347 11.237.847 18.431-.587 23.647-1.434 5.216-2.695 19.648-2.695 19.648l2.217.065c.478-6.89 3.434-19.3 4.13-21.256Z" />
   <path fill="#221E52"
      d="M55.839 115.735c-1 .956-3.63.891-3.63.891 1.326-.631 1.37-1.935 1.37-1.935-2 1.261-5.564-.478-9.52-.565-3.934-.108-5.347 3.804-5.347 3.804-.63-.674-.63-1.326-.63-1.326-.695 1.304-.065 2.63-.065 2.63-.63-.674-1.978.608-1.978.608.652.022 1.304.696 1.304.696-.76 3.934 2.108 7.607 3.412 8.302 1.304.696.587 2.652 1.24 3.326.63.673 6.237.478 7.585-.805 1.347-1.282.869-8.519.869-8.519 1.304.043 1.913 2.673 1.913 2.673.695-1.956-.522-3.695-.544-3.695 2.913-2.564 4.021-6.085 4.021-6.085Z" />
   <path fill="#FEB48C"
      d="M69.246 121.342s1.087-1.196.935-1.978c-.13-.717-.087-.478-.152-.782-.022-.109-.065-.305-.065-.305s-.392-1.956.108-2.347c.5-.37.935-.044.957 1.021.021 1.065 1.63 1.283 2.02-.391.392-1.673 1.392-3.456 1.848-2.912.457.521-.108 1.869-.108 1.869s.065.043.195-.326c.13-.348.087-1.326.305-1.174.217.152 1.716.957 1.412 3.26-.304 2.304-1.651 3.13-2.151 3.543-.5.413-1.913 2.239-2 2.999-.022 0-3.586-1.195-3.304-2.477Z" />
   <path fill="#4484E0"
      d="M45.34 139.121s1.152-3.543 5.998-4.652a568.804 568.804 0 0 1 9.237-1.999l8.846-11.563 4.478 2.391s-6.586 12.867-10.302 14.475c-1.413 1.195-10.39 6.629-18.257 1.348Z" />
   <path fill="#2D4F9F"
      d="M57.816 137.447c5.781-1.717 13.019-10.497 15.236-14.583l.847.456s-6.585 12.867-10.302 14.475c-.348.283-1.13.826-2.239 1.413-1.89.956-4.65 1.999-7.737 2.108 1.282-2.912 4.195-3.869 4.195-3.869Z" />
   <path fill="#2D4F9F"
      d="M56.166 143.641c.043.891.022 1.804-.066 2.695-.021.131-.021.218-.021.218s-.044.239-.109.63a7.36 7.36 0 0 0-.065.391l-.065.326v.022c-.044.217-.066.456-.109.696-.022.152-.065.326-.087.499-.022.109-.043.239-.065.348-.044.261-.087.543-.152.826l-.065.326c-.066.326-.11.674-.174 1.022v.043c0 .022 0 .065-.022.087-.065.326-.109.652-.174 1 0 .021-.022.065-.022.087-.021.065-.021.13-.043.195-.065.326-.13.652-.174 1-.022.109-.044.196-.065.304-.065.37-.13.739-.218 1.109-.065.326-.065.695-.065 1.065 0 .087 0 .195.022.282.087 1.326.522 2.869 1 4.478.087.304.174.586.282.891.066.217.13.413.196.63.087.282.174.587.26.869.044.131.088.261.11.413.217.804.39 1.565.521 2.282.022.109.022.218.044.326l.065.718v.347c0 .218-.022.435-.044.631-.021.087-.021.195-.043.282a2.624 2.624 0 0 1-.283.761c-.108.195-.239.391-.413.543-.065.065-.174.131-.26.196-.11.065-.196.152-.305.217-.043.022-.087.065-.13.087l-.13.065c-.174.087-.37.174-.566.261-.087.022-.152.065-.239.087-.108.044-.217.065-.326.109-.13.043-.239.087-.37.13l-.456.131c-.217.065-.434.108-.652.173a4.395 4.395 0 0 1-.521.109c-.044 0-.109.022-.153.022-.217.043-.434.087-.673.13h-.022a60.831 60.831 0 0 1-5.151.522c3.39-1.13 7.064-3.108 7.15-6.347.153-5.976-2.195-6.042-2.108-9.367.087-3.325-.195-5.673.435-11.454.174-1.543 1.195-3.325 1.195-3.325s.457-1.065 3.13-.957c.065.37.13.761.174 1.174 0 .044 0 .065.022.109.043.434.065.913.065 1.434-.065.022-.065.065-.065.152Z" />
   <path fill="#A5C0D7" d="M252.309 309.165v-32.101h-2.065v32.101h2.065Z" />
   <path fill="#8394B4" d="M251.004 309.167v-32.101h-.761v32.101h.761Z" />
   <path fill="#8394B4" d="m252.402 285.282 1.63-7.737h-5.52l1.63 7.737h2.26Z" />
   <path fill="#A5C0D7" d="M239.688 310.995h23.168v-.63l-9.302-1.565h-4.564l-9.302 1.565v.63Z" />
   <path fill="#A5C0D7" d="M248.445 308.974h5.651l-1.065-6.586h-3.542l-1.044 6.586Z" />
   <path fill="#8394B4"
      d="M253.032 302.388h-3.542l-1.044 6.586-8.758 1.391h15.453l-2.739-1.196-.739-6.194 1.369-.587ZM256.231 273.052h3.999v-6.02h-3.999v6.02Z" />
   <path fill="#3D4359"
      d="M236.383 275.698h29.776a2.913 2.913 0 0 0-2.913-2.912h-23.951a2.912 2.912 0 0 0-2.912 2.912Z" />
   <path fill="#323749"
      d="M239.295 272.786h12.519a2.912 2.912 0 0 0-2.912 2.912h-12.519a2.912 2.912 0 0 1 2.912-2.912Z" />
   <path fill="#323749" d="M266.115 275.199c.022.174.044.326.044.5h-29.776c0-.174.022-.348.043-.5h29.689Z" />
   <path fill="#3D4359" d="M235.227 279.518h32.101v-3.934h-32.101v3.934Z" />
   <path fill="#323749" d="M235.216 279.518h20.757v-3.934h-20.757v3.934Z" />
   <path fill="#323749"
      d="M235.227 276.058h32.101v-.478h-32.101v.478ZM246.16 251.943c0 12.475 5.695 17.387 12.693 17.387 6.998 0 12.693-4.912 12.693-17.387 0-12.476-5.695-27.776-12.693-27.776-6.998 0-12.693 15.3-12.693 27.776Z" />
   <path fill="#3D4359"
      d="M244.879 251.769c0 12.063 5.499 16.823 12.28 16.823s12.28-4.76 12.28-16.823c0-12.062-5.499-26.863-12.28-26.863s-12.28 14.801-12.28 26.863Z" />
   <path fill="#323749"
      d="M255.773 283.784c1.456 0 4.346-1 4.716-1.13.087-.022.13-.131.109-.218-.022-.087-.131-.13-.218-.108-1.13.391-4.216 1.347-5.042 1.043-.674-.239-.761-2.608-.652-4.021 0-.087-.065-.174-.152-.174-.109 0-.174.065-.174.152-.022.413-.261 3.956.869 4.369.131.065.305.087.544.087Z" />
   <path fill="#323749"
      d="M261.335 281.154c-.761.195-1.87 1-1.696 1.586.152.587 1.522.739 2.261.522.76-.195 1.239-.826 1.086-1.413-.152-.586-.891-.891-1.651-.695Z" />
   <path fill="#FBCEBF" d="m229.254 303.018.456 2.869 3.717.174-.087-3.282-4.086.239Z" />
   <path fill="#19232D"
      d="m234.449 310.342-11.932.152s-.413-2.456 1.282-2.325c1.696.13 3.804-1.109 4.977-2.348 1.174-1.239 4.804-.739 5.26-.065.457.652.413 4.586.413 4.586Z" />
   <path fill="#FBCEBF" d="m208.612 302.736-.37 2.913 3.717.173.456-3.281-3.803.195Z" />
   <path fill="#19232D"
      d="m212.98 310.104-11.932.152s-.413-2.456 1.283-2.326c1.695.131 3.803-1.108 4.977-2.347 1.173-1.239 4.803-.739 5.259-.065.457.652.413 4.586.413 4.586Z" />
   <path fill="#F7BB8D"
      d="m222.129 245.162 14.019-2.195c.674 0 1.13-1.978 1.565-4.608l5.607 2.238c-1.108 5.108-3.325 9.455-6.716 8.998-4.825-.652-14.866-1.282-14.866-1.282l.391-3.151Z" />
   <path fill="#1C3033"
      d="M233.347 259.245c7.955-2.564 12.737.022 12.802 11.15l-31.797.087s.239-5.651 2.803-7.542c1.283-.934 10.498-2.76 16.192-3.695Z" />
   <path fill="#121E21"
      d="M236.412 264.679s-3.239 1.217-8.173 2c-4.933.782-7.15.847-7.65 1.695-.522.869.13 9.15-.652 12.867-.674 3.216-7.542 19.213-9.128 23.842h1.608s9.759-19.126 10.563-25.059c.413-3.891.587-7.238.587-7.238h10.454c1.999-.522 2.391-8.107 2.391-8.107Z" />
   <path fill="#223A3F"
      d="M259.362 258.985s-.326 8.085-2.869 11.497l-29.972.022s-1.217-5.39 1.109-7.542c2.782-2.543 22.604-3.76 31.732-3.977Z" />
   <path fill="#121E21"
      d="M237.193 278.937c-.087-3.217-.195-4.021-.869-6.173h18.191c2.522-2.021 3.739-5.216 4.217-6.955l-7.325-3.325s-.717 3.456-2.108 4.238c-1.391.782-16.779.782-17.387 1.413-.609.63 1.999 6.759 2.478 11.171.456 4.434-2.239 25.755-2.239 25.755h1.695c0 .022 3.521-20.191 3.347-26.124Z" />
   <path fill="#121E21" d="M243.453 259.919s7.933 1.347 15.279 5.912l-.369 1.217s-7.238-4.803-14.91-7.129Z" />
   <path fill="#1C3033"
      d="M214.438 270.004s-4.152 21.451-6.629 35.079h4.651s9.737-19.126 10.563-25.06c.804-5.933-.022-12.454-.022-12.454l-8.563 2.435Z" />
   <path fill="#223A3F"
      d="M226.523 270.503s1.435 20.952 2.391 34.579h4.934s3.499-20.212 3.347-26.146c-.152-5.933-2.543-11.389-2.543-11.389l-8.129 2.956Z" />
   <path fill="#121E21"
      d="M237.193 278.936c-.153-5.303-2.065-10.215-2.478-11.193-.261.022-.522.044-.761.044l-2.13.782c.044 1.587 2.152 6.825 2.565 10.737.456 4.434-2.239 25.755-2.239 25.755h1.696s.217-1.261.543-3.26c.978-5.934 2.934-18.409 2.804-22.865ZM222.981 267.547c-.912.066-1.738.196-2.238.674-.522.869 0 9.302-.783 13.019-.673 3.217-7.541 19.213-9.128 23.842h1.608c2.065-4.846 9.846-19.93 10.563-25.059.522-3.76.804-9.476-.022-12.476Z" />
   <path fill="#FB9F0D"
      d="M241.254 243.966a15.073 15.073 0 0 1-2.39-.912c-1.283-.631-.761-.24-2.239-1.174 0 0 .261-6.781 2.26-10.65 2.022-3.89 13.128-8.889 13.128-8.889s.5.022 1.282.13v.065s.283 0 .761.044c.456.065.978.152 1.521.261 3.065.76 8.216 3.434 8.998 12.671-.543 9.498-3.282 25.081-5.868 30.145 0 0-18.539-5.759-20.387-7.346.674-1.913 1.869-4.803 2.348-7.52.434-2.543.586-4.869.586-6.825Z" />
   <path fill="#FDC596"
      d="m234.775 250.356 16.714-2.217c1.086 0 1.695-3.651 2.456-7.607l6.846 1.152c-.783 6.607-3.673 13.671-8.781 13.084-5.738-.652-17.713-1.26-17.713-1.26l.478-3.152Z" />
   <path fill="#FF7200"
      d="M252.903 239.424s7.564.695 8.781-2.543c1.217-3.239.717-9.52-5.629-13.888.022 0 .043 0 .043.021.044.022.087.022.131.044 3.086.978 7.542 3.869 8.324 12.345a51.595 51.595 0 0 1-.652 2.239 64.493 64.493 0 0 1-2 5.477c-3.151-.5-6.303-1.022-9.432-1.522l.434-2.173ZM242.471 238.337c-.065.479-.173.957-.26 1.413-.109.478-.196.935-.305 1.413-.217.913-.434 1.826-.673 2.738a22.516 22.516 0 0 1-1.717-.586 15.24 15.24 0 0 1-1.696-.805 13.44 13.44 0 0 1-1.195-.739v.153c.369.239.739.478 1.13.695.565.304 1.13.565 1.717.804.587.239 1.174.457 1.782.631l.087.021v-.065c.218-.935.435-1.869.631-2.825.108-.479.195-.935.282-1.413.065-.478.152-.956.217-1.435Z" />
   <path fill="#F4B17F" d="m253.293 222.537-1.565-2.348-6.564 2.5.891 3.934s4.76 3.108 7.238-4.086Z" />
   <path fill="#FF7200"
      d="M261.903 243.118c-1.587-.217-3.173-.456-4.76-.695-.782-.131-1.586-.239-2.369-.37-.782-.13-1.587-.26-2.369-.434l-.065-.022.022-.065a187.01 187.01 0 0 1 1.108-5.064c.196-.848.413-1.674.652-2.522.239-.825.478-1.651.761-2.477h.021a32.62 32.62 0 0 0-.738 2.477 46.818 46.818 0 0 0-.609 2.522 123.872 123.872 0 0 0-1.065 5.085l-.043-.065c.782.174 1.564.305 2.369.457.782.13 1.586.282 2.369.391 1.564.282 3.129.543 4.716.782Z" />
   <path fill="#FDC596"
      d="M235.562 250.726c-1.456-.804-3.13-2.086-3.63-1.565-1.086 1.152.131 3.695 1.217 4.238 1.087.457 2.739-.304 2.739-.304s1.13-1.586-.326-2.369Z" />
   <path fill="#FDC596"
      d="M228.436 248.792c-.066-.283 1.499-.848 1.869-.804.304.021.63 0 2.825 1.326l-1.413.565s-1.238-1.022-1.456-1.109c-.217-.065-1.217.63-1.825.022ZM228.238 252.683c-.239-.283.978-1.435 1.326-1.609.413-.239.5-.478 2.825-1.325l-.695 1.586s-1.674.413-1.869.522c-.196.13-1.044 1-1.587.826ZM228.997 253.791c-.239-.283.934-1.37 1.26-1.544.413-.217.478-.456 2.717-1.26l-.652 1.521s-1.608.391-1.782.5c-.217.109-1.022.935-1.543.783Z" />
   <path fill="#E0BC9B"
      d="M230.498 254.356c-.196-.239.804-1.152 1.065-1.304.348-.196.391-.391 2.282-1.065l-.565 1.282s-1.348.326-1.522.435c-.13.087-.825.804-1.26.652ZM222.699 245.575c-1.457-.804-3.13-2.087-3.63-1.565-1.087 1.152.13 3.695 1.217 4.238 1.087.456 2.739-.304 2.739-.304s1.13-1.587-.326-2.369Z" />
   <path fill="#E0BC9B"
      d="M215.568 243.64c-.065-.283 1.5-.848 1.87-.804.304.022.63 0 2.825 1.326l-1.413.565s-1.239-1.022-1.456-1.109c-.217-.087-1.239.631-1.826.022ZM215.351 247.531c-.239-.282.978-1.434 1.326-1.608.413-.239.5-.478 2.825-1.326l-.695 1.587s-1.674.413-1.869.521c-.196.131-1.043 1-1.587.826ZM216.11 248.617c-.239-.282.935-1.369 1.261-1.543.413-.217.478-.456 2.716-1.261l-.652 1.522s-1.608.391-1.782.5c-.217.13-1.021.956-1.543.782ZM217.611 249.204c-.195-.239.804-1.152 1.065-1.304.348-.196.391-.391 2.282-1.065l-.565 1.282s-1.347.326-1.521.435c-.131.087-.804.782-1.261.652Z" />
   <path fill="#D0D1E9" d="M216.828 310.995h3.195l-8.955-53.662h-3.216l8.976 53.662Z" />
   <path fill="#A7A7D3" d="M215.781 310.995h3.195l-8.955-53.662h-3.216l8.976 53.662Z" />
   <path fill="#D0D1E9" d="M185.287 310.995h-3.217l8.977-53.662h3.194l-8.954 53.662Z" />
   <path fill="#A7A7D3" d="M184.463 310.995h-3.217l8.976-53.662h3.195l-8.954 53.662Z" />
   <path fill="#D0D1E9" d="M295.853 310.995h3.195l-8.955-53.662h-3.195l8.955 53.662Z" />
   <path fill="#A7A7D3" d="M296.677 310.995h3.217l-8.976-53.662h-3.195l8.954 53.662Z" />
   <path fill="#D0D1E9" d="M268.121 310.995h-3.195l8.954-53.662h3.195l-8.954 53.662Z" />
   <path fill="#A7A7D3" d="M267.316 310.995h-3.195l8.955-53.662h3.216l-8.976 53.662Z" />
   <path fill="#A7A7D1"
      d="M297.413 258.42H183.396c-1.174 0-2.13-1.173-2.13-2.63 0-1.456.956-2.629 2.13-2.629h114.017c1.174 0 2.13 1.173 2.13 2.629 0 1.457-.956 2.63-2.13 2.63Z" />
   <path fill="#D0D1E9"
      d="M297.413 253.161H183.396c-1.174 0-2.13 1.173-2.13 2.629 0 .24.021.479.087.696h118.125c.044-.217.087-.456.087-.696-.022-1.434-.978-2.629-2.152-2.629Z" />
   <path fill="#8394B4" d="M204.917 251.269h25.712l-5.39-19.952h-25.712l5.39 19.952Z" />
   <path fill="#A5C0D7"
      d="m205.049 251.555-.002 1.543 37.839.045.002-1.543-37.839-.045ZM204.895 251.248l25.124.022-5.281-19.561-25.125-.022 5.282 19.561Z" />
   <path fill="#8394B4"
      d="M212.416 241.249c.326.957 1.435 1.717 2.478 1.717 1.043 0 1.652-.76 1.326-1.717-.326-.956-1.435-1.717-2.478-1.717-1.043 0-1.652.783-1.326 1.717Z" />
   <path fill="#A5C0D7" d="m230.019 251.27-5.281-19.561-25.125-.022 30.406 19.583Z" opacity=".2" />
   <path fill="#8394B4"
      d="m230.701 251.567-.002 1.543 12.193.013.002-1.543-12.193-.013ZM222.759 251.269l-.001.673 4.716.006.001-.673-4.716-.006ZM206.63 251.249l-.001.673 4.042.005.001-.673-4.042-.005Z" />
   <path fill="#BAD6F2" d="m224.564 231.948-24.886-.022-.065-.239 25.125.022 5.281 19.561h-.239l-5.216-19.322Z" />
   <path fill="#E75669"
      d="M290.089 248.66v-.826h-19.213c-.978 0-1.782 1.174-1.782 2.652v.022c0 1.456.804 2.651 1.782 2.651h19.213v-.826c-.587-1.89 0-3.673 0-3.673Z" />
   <path fill="#C94F64"
      d="M275.071 247.834h1.391c-.565.5-.956 1.5-.956 2.63v.022c0 1.152.391 2.152.956 2.63h-1.391c-.978 0-1.782-1.174-1.782-2.652v-.021c0-1.435.804-2.609 1.782-2.609Z"
      opacity=".46" />
   <path fill="#BC3D5C"
      d="M290.09 247.834h-9.433c-.782 0-1.434.957-1.434 2.109v1.065c0 1.173.63 2.108 1.434 2.108h9.433v-.826c-.609-1.869 0-3.651 0-3.651v-.805Z" />
   <path fill="#EDF0EE"
      d="M280.763 248.66c-.543 0-.978.652-.978 1.456v.739c0 .805.435 1.457.978 1.457h9.324c-.521-1.826 0-3.652 0-3.652h-9.324Z" />
   <path fill="#DDE0DD" d="M290.087 248.66h-9.324c-.543 0-.978.652-.978 1.456v.37h10.085c0-1.043.217-1.826.217-1.826Z"
      opacity=".83" />
   <path fill="#F89E1B"
      d="M269.551 244.401v-.63h20.126c1.043 0 1.869.913 1.869 2.021v.022c0 1.108-.848 2.021-1.869 2.021h-20.126v-.63c.608-1.434 0-2.804 0-2.804Z" />
   <path fill="#CF7A28"
      d="M269.551 243.771h9.867c.826 0 1.5.717 1.5 1.608v.826c0 .891-.674 1.609-1.5 1.609h-9.867v-.631c.63-1.434 0-2.803 0-2.803v-.609Z" />
   <path fill="#EDF0EE"
      d="M279.309 244.401c.566 0 1.022.5 1.022 1.109v.565c0 .608-.456 1.108-1.022 1.108h-9.758c.543-1.391 0-2.804 0-2.804h9.758v.022Z" />
   <path fill="#DDE0DD"
      d="M269.551 244.401h9.758c.566 0 1.022.5 1.022 1.108v.283H269.79c-.022-.783-.239-1.391-.239-1.391Z"
      opacity=".83" />
   <path fill="#A01D3B"
      d="M278.985 245.379s-.108.131-.108.435a3.14 3.14 0 0 1-.152.674l-.326-.348-.348.348s.108-.435.108-.652c0-.218.174-.457.174-.457h.652Z" />
   <path fill="#0EA954"
      d="M270.484 240.902v-.544h16.975c.869 0 1.586.761 1.586 1.717 0 .935-.717 1.717-1.586 1.717h-16.975v-.543c.544-1.195 0-2.347 0-2.347Z" />
   <path fill="#009748"
      d="M270.484 240.358h8.325c.695 0 1.26.609 1.26 1.37v.695c0 .761-.565 1.369-1.26 1.369h-8.325v-.543c.522-1.195 0-2.369 0-2.369v-.522Z" />
   <path fill="#EDF0EE"
      d="M278.741 240.901c.478 0 .87.413.87.935v.478c0 .521-.392.934-.87.934h-8.237c.456-1.173 0-2.369 0-2.369h8.237v.022Z" />
   <path fill="#DDE0DD" d="M270.484 240.901h8.238c.478 0 .869.413.869.935v.239h-8.911c0-.674-.196-1.174-.196-1.174Z"
      opacity=".83" />
   <path fill="#253D95"
      d="M278.462 241.728s-.087.108-.087.369-.13.565-.13.565l-.283-.304-.282.304s.087-.369.087-.543c0-.196.152-.391.152-.391h.543Z" />
   <path fill="#F7C39F"
      d="M238.207 214.212s.935 3.608 1.543 5.499c.609 1.891 1.935 6.259 5.934 5.694 3.999-.565 5.585-3.129 6.716-4.39 0 0 3.303-5.434 2.26-6.499-1.043-1.065-2.869-4.672-6.673-3.455-3.803 1.217-9.78 3.151-9.78 3.151Z" />
   <path fill="#221E52"
      d="M241.575 206.974c.761-.63 1.521-1.26 2.217-1.869 1.195-1.043 2.738-1.608 4.303-1.499 3.26.239 4.999 2.716 4.999 2.716l1.674.87c1.673.869 2.13 4.89 1.152 7.346-1.826 4.629-3.652 6.694-3.652 6.694-.152.043-.195-.065-.152-.304-.043-.957-.391-1.5-.391-1.5 2.652-1.587 2.13-4.303.848-4.369-1.283-.065-1.609 2.435-1.609 2.435l-.391-.739c-.891-1.978-.456-4.586-.456-4.586s-.066.065-.174.152v.022s-.674 1.478-2.304 1.934c0 0 .196-.282.413-.674-1.196.652-2.847 1.283-4.803 1.304 0 0 1.217-.5 2.064-1.152-1.239.283-2.673.5-4.26.609-5.477.348-7.194-2.869-7.194-2.869 2.63-1.087 4.847-2.217 7.716-4.521Z" />
</svg>