<svg xmlns="http://www.w3.org/2000/svg" width="46" height="42" fill="none">
   <path fill="#000"
      d="M23 16.9a4.1 4.1 0 1 0 0 8.2 4.1 4.1 0 0 0 0-8.2ZM11.515 29.155l-.904-.23C3.868 27.221 0 24.33 0 20.992c0-3.337 3.868-6.229 10.61-7.933l.905-.228.255.897a45.1 45.1 0 0 0 2.613 6.858l.193.408-.193.409a44.678 44.678 0 0 0-2.613 6.857l-.255.895Zm-1.324-14c-5.125 1.439-8.27 3.64-8.27 5.837 0 2.195 3.145 4.397 8.27 5.838a47.824 47.824 0 0 1 2.265-5.838 47.45 47.45 0 0 1-2.265-5.838Zm24.294 14-.255-.899a44.755 44.755 0 0 0-2.615-6.855l-.193-.409.193-.408a44.877 44.877 0 0 0 2.615-6.858l.255-.897.906.228C42.132 14.761 46 17.654 46 20.992c0 3.34-3.868 6.23-10.609 7.933l-.906.23Zm-.941-8.163a47.396 47.396 0 0 1 2.265 5.838c5.127-1.44 8.27-3.643 8.27-5.838 0-2.196-3.145-4.396-8.27-5.838a47.526 47.526 0 0 1-2.265 5.838Zm-23.366-5.847-.255-.896C8.027 7.568 8.602 2.78 11.5 1.11c2.842-1.64 7.406.297 12.188 5.205l.652.67-.652.668a45.146 45.146 0 0 0-4.642 5.687l-.259.37-.45.038a45.333 45.333 0 0 0-7.255 1.17l-.905.228ZM13.81 2.437c-.513 0-.967.111-1.35.332-1.906 1.098-2.243 4.916-.93 10.068a48.146 48.146 0 0 1 6.196-.96A47.64 47.64 0 0 1 21.66 7c-2.99-2.912-5.82-4.564-7.848-4.564Zm18.38 39.027c-.003 0-.003 0 0 0-2.732 0-6.24-2.056-9.88-5.794l-.65-.669.65-.669a45.104 45.104 0 0 0 4.641-5.688l.259-.37.448-.039a45.288 45.288 0 0 0 7.259-1.167l.904-.228.257.897c1.892 6.678 1.319 11.468-1.579 13.137a4.56 4.56 0 0 1-2.31.59Zm-7.851-6.48c2.99 2.911 5.82 4.564 7.848 4.564h.002c.512 0 .968-.112 1.35-.332 1.905-1.098 2.244-4.918.93-10.07a47.962 47.962 0 0 1-6.2.96 47.303 47.303 0 0 1-3.93 4.878Zm11.482-19.84-.904-.228a45.005 45.005 0 0 0-7.259-1.169l-.448-.038-.259-.37a44.882 44.882 0 0 0-4.64-5.687l-.652-.669.652-.669C27.092 1.408 31.654-.53 34.5 1.11c2.898 1.671 3.473 6.459 1.58 13.139l-.258.897Zm-7.551-3.267c2.189.199 4.268.523 6.198.96 1.315-5.152.976-8.97-.93-10.068-1.893-1.095-5.452.582-9.2 4.232a47.615 47.615 0 0 1 3.932 4.876ZM13.81 41.464a4.562 4.562 0 0 1-2.311-.59c-2.898-1.67-3.473-6.457-1.577-13.137l.253-.897.904.228c2.214.558 4.656.95 7.255 1.167l.45.039.257.37a45.216 45.216 0 0 0 4.642 5.688l.652.67-.652.668c-3.638 3.738-7.145 5.794-9.873 5.794Zm-2.28-12.318c-1.315 5.152-.976 8.972.93 10.07 1.891 1.08 5.448-.585 9.2-4.232a47.926 47.926 0 0 1-3.934-4.878 47.863 47.863 0 0 1-6.196-.96ZM23 30.349c-1.577 0-3.199-.069-4.822-.203l-.45-.038-.26-.37a58.23 58.23 0 0 1-2.587-4.067 58.176 58.176 0 0 1-2.235-4.27l-.192-.409.192-.408a58.06 58.06 0 0 1 2.235-4.27 58.25 58.25 0 0 1 2.587-4.067l.26-.37.45-.039a57.1 57.1 0 0 1 9.646 0l.449.039.257.37a57.507 57.507 0 0 1 4.824 8.337l.193.408-.193.409a56.736 56.736 0 0 1-4.824 8.337l-.257.37-.449.038A58.83 58.83 0 0 1 23 30.35Zm-4.21-2.077c2.836.213 5.584.213 8.423 0a55.582 55.582 0 0 0 4.209-7.28 54.782 54.782 0 0 0-4.211-7.28 55.656 55.656 0 0 0-8.422 0 54.572 54.572 0 0 0-4.21 7.28 55.787 55.787 0 0 0 4.21 7.28Z" />
</svg>