<svg xmlns="http://www.w3.org/2000/svg" width="46" height="46" fill="none">
   <path fill="#000"
      d="M23 0c12.702 0 23 10.298 23 23S35.702 46 23 46 0 35.702 0 23 10.298 0 23 0Zm-4.571 30.663c.335 1.236.299 2.392-.046 3.434l-.125.346c-.046.116-.1.23-.15.337a6.448 6.448 0 0 1-1.063 1.552c-1.338 1.455-3.205 2.007-4.006 1.543-.862-.502-.433-2.559 1.12-4.197 1.669-1.76 4.063-2.892 4.063-2.892v-.006l.207-.117ZM37.425 9.846c-1.039-4.088-7.814-5.432-14.226-3.153-3.812 1.355-7.942 3.485-10.911 6.262-3.533 3.298-4.094 6.173-3.862 7.375.818 4.238 6.626 7.01 9.014 9.066v.011c-.704.345-5.858 2.931-7.065 5.607-1.294 2.817.201 4.832 1.179 5.088 3.018.836 6.123-.69 7.79-3.16 1.61-2.417 1.47-5.522.775-7.046.95-.259 2.07-.374 3.508-.2 4.027.46 4.832 2.99 4.657 4.026-.172 1.033-1.002 1.637-1.292 1.81-.287.174-.373.23-.347.346.03.173.175.173.403.144.316-.058 2.1-.863 2.187-2.82.086-2.472-2.273-5.23-6.469-5.175-1.725.031-2.82.175-3.594.491a.694.694 0 0 0-.2-.201c-2.588-2.789-7.39-4.744-7.188-8.453.057-1.35.546-4.914 9.2-9.227 7.1-3.538 12.767-2.558 13.744-.402 1.405 3.074-3.02 8.797-10.41 9.63-2.817.316-4.283-.775-4.659-1.18-.4-.43-.458-.46-.602-.371-.23.115-.086.488 0 .718.23.576 1.122 1.582 2.676 2.1 1.35.43 4.658.687 8.625-.863 4.454-1.723 7.933-6.526 6.927-10.551l.14.128Z" />
</svg>