<svg viewBox="0 0 200 32" fill="none" xmlns="http://www.w3.org/2000/svg">
   <path
      d="M117.923 31.189H116.694L119.399 17.2375C119.699 15.6754 119.918 14.221 120.109 12.9282H121.284L120.847 15.7023H120.902C122.158 13.79 123.989 12.6319 125.929 12.6319C128.77 12.6319 129.863 14.9482 129.863 17.1567C129.863 21.7354 126.366 26.1524 122.131 26.1524C120.519 26.1524 119.59 25.8292 119.044 25.533H118.989L117.923 31.189ZM120.027 20.2271L119.262 24.321C119.918 24.8327 120.956 25.102 122.213 25.102C125.656 25.102 128.579 21.1428 128.579 17.2375C128.579 15.6754 127.869 13.6823 125.546 13.6823C123.579 13.6823 120.847 15.9178 120.027 20.2271ZM141.148 25.8562H139.945C139.918 25.0482 140.082 23.6207 140.328 22.0047H140.273C138.716 25.0482 136.803 26.1524 134.754 26.1524C132.432 26.1524 131.093 24.321 131.093 22.0316C131.093 17.426 134.727 12.6319 139.973 12.6319C141.066 12.6319 142.24 12.7935 143.033 13.009L141.721 19.7423C141.202 22.3548 141.066 24.5364 141.148 25.8562ZM140.765 18.3956L141.639 13.8978C141.311 13.79 140.738 13.6823 139.754 13.6823C135.765 13.6823 132.404 17.453 132.377 21.8162C132.35 23.3514 132.869 25.102 135.027 25.102C137.377 25.102 140.082 22.0047 140.765 18.3956ZM145.601 25.8562H144.372L146.066 17.1298C146.339 15.6215 146.557 14.194 146.721 12.9282H147.842C147.705 13.8439 147.596 14.7596 147.404 15.837H147.486C148.306 14.0324 149.672 12.6319 151.393 12.6319C151.585 12.6319 151.858 12.6588 151.995 12.6858L151.749 13.9247C151.612 13.8978 151.421 13.8708 151.148 13.8708C149.508 13.8708 147.404 16.2948 146.803 19.5807L145.601 25.8562ZM155.847 10.558L157.186 10.0732L156.639 12.9282H159.973L159.781 13.9247H156.421L155 21.3852C154.836 22.2471 154.727 22.9204 154.727 23.7284C154.727 24.5903 155.164 25.0751 156.038 25.0751C156.475 25.0751 156.831 25.0482 157.104 24.9404L157.213 25.91C156.858 26.0447 156.339 26.1255 155.792 26.1255C154.016 26.1255 153.443 24.9135 153.443 23.7823C153.443 23.0012 153.552 22.2471 153.743 21.3314L155.191 13.9247H153.197L153.388 12.9282H155.41L155.847 10.558ZM161.066 25.8562H159.836L161.639 16.4026C161.913 15.1098 162.076 13.9516 162.213 12.9282H163.361L162.951 15.7023H163.005C164.153 13.817 166.011 12.6319 168.06 12.6319C169.235 12.6319 171.339 13.2514 171.339 16.241C171.339 16.8335 171.229 17.5607 171.093 18.2879L169.645 25.8562H168.415L169.891 18.1802C169.973 17.6415 170.082 16.9951 170.082 16.4026C170.082 14.8674 169.454 13.7092 167.568 13.7092C165.71 13.7092 162.923 15.81 162.295 19.2306L161.066 25.8562ZM181.53 24.1324L181.913 25.102C181.229 25.533 179.863 26.1255 177.923 26.1255C174.59 26.1255 173.333 23.6207 173.333 21.089C173.333 17.2375 176.311 12.6319 180.219 12.6319C182.596 12.6319 183.607 14.0863 183.607 15.5946C183.607 19.042 179.344 19.7423 174.727 19.6884C174.535 20.3618 174.59 21.9778 174.891 22.8666C175.437 24.3479 176.585 25.0751 178.087 25.0751C179.727 25.0751 180.874 24.5364 181.53 24.1324ZM182.35 15.6754V15.6484C182.35 14.3556 181.366 13.6823 180 13.6823C177.623 13.6823 175.628 16.1063 174.918 18.665C178.798 18.7188 182.35 18.2071 182.35 15.6754ZM185.628 25.8562H184.399L186.093 17.1298C186.366 15.6215 186.585 14.194 186.749 12.9282H187.869C187.732 13.8439 187.623 14.7596 187.432 15.837H187.514C188.333 14.0324 189.699 12.6319 191.421 12.6319C191.612 12.6319 191.885 12.6588 192.022 12.6858L191.776 13.9247C191.639 13.8978 191.448 13.8708 191.175 13.8708C189.536 13.8708 187.432 16.2948 186.831 19.5807L185.628 25.8562ZM191.12 25.3175L191.557 24.321C192.104 24.698 193.06 25.0751 194.016 25.0751C195.792 25.0751 197.022 23.8362 197.022 22.3818C197.022 21.1428 196.53 20.3887 195.082 19.5268C193.579 18.638 192.978 17.4799 192.978 16.3218C192.978 14.3287 194.727 12.6319 197.076 12.6319C198.06 12.6319 199.016 12.9551 199.426 13.2514L198.962 14.2748C198.579 14.0324 197.814 13.6823 196.94 13.6823C195.355 13.6823 194.208 14.7866 194.208 16.1332C194.208 17.3452 194.891 17.9916 196.12 18.7458C197.596 19.6346 198.279 20.8196 198.279 22.0586C198.279 24.6172 196.229 26.1255 193.907 26.1255C192.65 26.1255 191.585 25.6946 191.12 25.3175Z"
      fill="#1F2124"></path>
   <path
      d="M24.346 6.07805C24.3234 5.92163 24.1874 5.83224 24.074 5.83224C23.9607 5.83224 21.5351 5.65348 21.5351 5.65348C21.5351 5.65348 19.8577 3.99989 19.6536 3.82113C19.4723 3.64236 19.1096 3.68705 18.9736 3.73174C18.9509 3.73174 18.6109 3.84347 18.0215 4.02224C17.4548 2.391 16.4574 0.916176 14.7119 0.916176C14.6666 0.916176 14.6212 0.916176 14.5532 0.916176C14.0772 0.290495 13.4425 0 12.9211 0C8.84074 0 6.89124 5.0278 6.27919 7.57521C4.69239 8.06682 3.55896 8.40201 3.42295 8.4467C2.53888 8.71485 2.51621 8.73719 2.40287 9.56399C2.31219 10.1897 0 27.8428 0 27.8428L18.0215 31.1723L27.7917 29.0942C27.7917 29.0718 24.3687 6.23447 24.346 6.07805ZM17.0241 4.29039C16.5707 4.42446 16.0493 4.58088 15.5053 4.75965C15.5053 4.64792 15.5053 4.55854 15.5053 4.42446C15.5053 3.44125 15.3693 2.6368 15.1426 1.98877C16.0493 2.12285 16.6387 3.12841 17.0241 4.29039ZM14.0092 2.21223C14.2585 2.83791 14.4172 3.7094 14.4172 4.91607C14.4172 4.98311 14.4172 5.0278 14.4172 5.09483C13.4198 5.40767 12.3544 5.72052 11.2663 6.0557C11.8783 3.75409 13.0344 2.6368 14.0092 2.21223ZM12.8077 1.0726C12.9891 1.0726 13.1704 1.13963 13.3291 1.25136C12.0143 1.8547 10.6316 3.37421 10.0422 6.43558C9.18077 6.70373 8.34203 6.94953 7.54863 7.19534C8.22869 4.87138 9.88349 1.0726 12.8077 1.0726Z"
      fill="#95BF47"></path>
   <path
      d="M24.074 5.80986C23.9607 5.80986 21.5351 5.63109 21.5351 5.63109C21.5351 5.63109 19.8577 3.97751 19.6537 3.79874C19.5857 3.7317 19.495 3.68701 19.4043 3.68701L18.0442 31.1723L27.8143 29.0941C27.8143 29.0941 24.3914 6.23443 24.3687 6.07801C24.3234 5.92159 24.1874 5.83221 24.074 5.80986Z"
      fill="#5E8E3E"></path>
   <path
      d="M14.7119 11.1284L13.5105 14.659C13.5105 14.659 12.445 14.1003 11.1529 14.1003C9.24877 14.1003 9.1581 15.2847 9.1581 15.5752C9.1581 17.1841 13.4198 17.8097 13.4198 21.5862C13.4198 24.5582 11.5156 26.4799 8.93141 26.4799C5.82582 26.4799 4.26169 24.5805 4.26169 24.5805L5.10042 21.8767C5.10042 21.8767 6.73256 23.2621 8.09268 23.2621C8.99942 23.2621 9.36211 22.5694 9.36211 22.0554C9.36211 19.9549 5.87116 19.8655 5.87116 16.402C5.87116 13.497 7.97933 10.6814 12.2637 10.6814C13.8958 10.6591 14.7119 11.1284 14.7119 11.1284Z"
      fill="white"></path>
   <path
      d="M39.194 17.765C38.2192 17.2511 37.7205 16.8042 37.7205 16.2008C37.7205 15.4411 38.4232 14.9495 39.5113 14.9495C40.7808 14.9495 41.9142 15.4634 41.9142 15.4634L42.7983 12.7819C42.7983 12.7819 41.9822 12.1562 39.5793 12.1562C36.2244 12.1562 33.8895 14.0556 33.8895 16.7148C33.8895 18.2343 34.9776 19.3739 36.4284 20.2007C37.6072 20.8488 38.0152 21.318 38.0152 22.0107C38.0152 22.7258 37.4258 23.3068 36.3377 23.3068C34.7283 23.3068 33.1868 22.48 33.1868 22.48L32.2347 25.1615C32.2347 25.1615 33.6402 26.1 36.0204 26.1C39.466 26.1 41.9595 24.4241 41.9595 21.4074C41.9369 19.7538 40.6901 18.6142 39.194 17.765Z"
      fill="#1F2124"></path>
   <path
      d="M52.9311 12.1112C51.2309 12.1112 49.8935 12.9157 48.8734 14.1223L48.8281 14.1L50.3015 6.50244H46.4705L42.7302 25.8539H46.5612L47.8307 19.2395C48.3294 16.7368 49.6441 15.1949 50.8682 15.1949C51.7296 15.1949 52.0697 15.7759 52.0697 16.6027C52.0697 17.1167 52.0243 17.7647 51.911 18.2787L50.4602 25.8539H54.2912L55.7873 18.0329C55.946 17.2061 56.0593 16.2228 56.0593 15.5525C56.082 13.3849 54.9486 12.1112 52.9311 12.1112Z"
      fill="#1F2124"></path>
   <path
      d="M64.7641 12.1113C60.1397 12.1113 57.0795 16.2229 57.0795 20.8038C57.0795 23.7311 58.9156 26.0998 62.3612 26.0998C66.895 26.0998 69.9552 22.0999 69.9552 17.4073C69.9779 14.6811 68.3684 12.1113 64.7641 12.1113ZM62.8826 23.1948C61.5678 23.1948 61.0238 22.0999 61.0238 20.7144C61.0238 18.5469 62.1572 15.0163 64.2427 15.0163C65.6028 15.0163 66.0562 16.1783 66.0562 17.2955C66.0562 19.6195 64.9001 23.1948 62.8826 23.1948Z"
      fill="#1F2124"></path>
   <path
      d="M79.7933 12.1113C77.2091 12.1113 75.7357 14.3683 75.7357 14.3683H75.6903L75.917 12.3348H72.5167C72.358 13.6979 72.0407 15.7984 71.746 17.3626L69.0711 31.217H72.9021L73.9675 25.6082H74.0582C74.0582 25.6082 74.8516 26.0998 76.3024 26.0998C80.8134 26.0998 83.7603 21.5412 83.7603 16.938C83.7603 14.3906 82.6042 12.1113 79.7933 12.1113ZM76.121 23.2395C75.1236 23.2395 74.5342 22.6809 74.5342 22.6809L75.1689 19.1502C75.6223 16.7816 76.8691 15.2174 78.2065 15.2174C79.3853 15.2174 79.748 16.29 79.748 17.2955C79.748 19.7536 78.2745 23.2395 76.121 23.2395Z"
      fill="#1F2124"></path>
   <path
      d="M89.2462 6.68115C88.022 6.68115 87.0473 7.64202 87.0473 8.87104C87.0473 9.98832 87.7727 10.7704 88.8608 10.7704H88.9061C90.1076 10.7704 91.1276 9.96598 91.1503 8.58054C91.1503 7.46325 90.4022 6.68115 89.2462 6.68115Z"
      fill="#1F2124"></path>
   <path d="M83.8737 25.8317H87.7046L90.3115 12.4019H86.4579L83.8737 25.8317Z" fill="#1F2124"></path>
   <path
      d="M100.082 12.3793H97.4068L97.5428 11.7537C97.7695 10.4576 98.5402 9.31798 99.8324 9.31798C100.512 9.31798 101.056 9.51909 101.056 9.51909L101.805 6.5471C101.805 6.5471 101.147 6.21191 99.719 6.21191C98.3589 6.21191 96.9988 6.59179 95.956 7.46328C94.6413 8.55822 94.0292 10.1448 93.7345 11.7537L93.6212 12.3793H91.8304L91.2636 15.2396H93.0545L91.0143 25.8315H94.8453L96.8854 15.2396H99.5377L100.082 12.3793Z"
      fill="#1F2124"></path>
   <path
      d="M109.33 12.4019C109.33 12.4019 106.928 18.3682 105.862 21.6307H105.817C105.749 20.5804 104.865 12.4019 104.865 12.4019H100.83L103.142 24.7144C103.187 24.9825 103.165 25.1613 103.051 25.3401C102.598 26.1892 101.85 27.016 100.966 27.6193C100.24 28.1333 99.4243 28.4685 98.7896 28.6919L99.855 31.9097C100.626 31.7533 102.258 31.1053 103.618 29.8539C105.363 28.245 106.996 25.7423 108.65 22.3457L113.343 12.4019H109.33Z"
      fill="#1F2124"></path>
</svg>