<svg xmlns="http://www.w3.org/2000/svg" width="193" height="185" fill="none">
   <path fill="#fff"
      d="M157.9 29.92c5.974-4.836 14.439-6.855 21.683-4.178 7.196 2.676 12.463 10.47 11.24 18.078-1.128 6.95-6.913 12.255-9.453 18.829-2.681 6.902-1.552 14.65-.188 21.881s3.057 14.791 1.364 21.975c-1.694 7.232-7.855 13.993-15.239 13.665-4.844-.235-9.077-3.428-12.37-6.997-8.842-9.579-13.31-23.102-11.805-36.062 1.035-9.203 3.857-17.702 4.045-27 .188-7.465 4.891-15.448 10.723-20.19Z"
      opacity=".25" />
   <path fill="#0EB096"
      d="M99.72 100.824c.047-.094.047-.188 0-.329-1.74-7.09 9.83-11.222 6.585-18.454-.8-1.737-3.01-3.521-5.033-2.77-.799.282-1.458.845-2.116 1.315-.847.61-1.693 1.22-2.681 1.596-1.035.376-2.493.564-3.433-.047-1.176-.75-.706-2.77-.47-3.897.281-1.174.893-2.3 1.363-3.428.612-1.314 1.27-2.676 1.552-4.132.518-2.582-.14-5.353-1.74-7.466-3.245-4.414-10.535-4.554-13.593.188-.188.329-.376.658-.564 1.033-.282.704-.564 1.456-1.223 1.831-.564.282-1.27.141-1.834-.187-.564-.33-.988-.799-1.458-1.221-3.48-3.24-10.394-4.32-12.887.704-.894 1.831-.565 3.944.893 5.4 1.082 1.08 2.54 1.409 3.857 2.066.753.376 2.634 1.127 3.01 1.972 1.411 3.334-1.176 3.334-2.775 3.616-1.552.234-3.339.375-4.28 1.878-.94 1.55-.329 3.475.894 4.649 1.975 1.878 4.938 1.267 7.337 1.126 1.411-.093 8.513-.469 5.033 4.508-.47.658-1.411 1.08-2.023 1.644-.705.751-1.317 1.455-1.41 2.535-.142 2.583 2.633 3.616 4.75 3.71 4.091.235 8.09-1.456 12.228-.423 3.716.892 5.973 5.118 10.112 3.898 1.035-.235.659-1.409-.094-1.315Z" />
   <path fill="#fff"
      d="M98.544 100.824c-1.222-3.71-2.916-7.185-4.938-10.425l.141-.281c.564-3.1 3.245-5.917 5.597-7.889.658-.563-.094-1.737-.752-1.127-2.4 2.02-4.986 4.743-5.927 7.842-2.116-3.1-4.562-5.964-7.384-8.5 1.411-3.333 2.305-6.76 2.587-10.423.047-.892-1.27-1.127-1.364-.235-.282 3.38-1.035 6.574-2.305 9.673a48.773 48.773 0 0 0-9.736-6.48c-.799-.376-1.41.845-.61 1.22a55.84 55.84 0 0 1 6.066 3.616c-2.54 1.644-5.55 2.113-8.513 2.536-.893.14-.752 1.502.094 1.362 3.387-.47 6.773-1.08 9.595-3.052 3.387 2.535 6.35 5.54 8.89 8.874-3.904-.047-7.62 1.409-10.348 4.273-.611.657.423 1.55 1.035.892 2.634-2.723 6.302-4.085 10.112-3.803.094 0 .188 0 .282-.047a45.596 45.596 0 0 1 6.256 12.349c.235.892 1.505.47 1.222-.375Z"
      opacity=".3" />
   <path fill="#0EB096"
      d="M138.146 136.979c-.611-3.192-.988-6.667.329-9.625 1.317-3.006 4.939-5.213 7.949-3.945 1.599.658 2.728 2.113 3.762 3.522 1.035 1.409 2.117 2.864 3.716 3.569 1.599.704 3.81.328 4.515-1.268.518-1.221.047-2.583-.423-3.804-1.27-3.052-2.681-6.104-3.057-9.391-.376-3.287.47-6.902 3.01-9.015 2.587-2.066 7.008-1.785 8.654 1.08.847 1.502 1.035 3.662 2.681 4.273 1.552.61 3.198-.892 3.716-2.489.517-1.596.376-3.334.846-4.93 1.035-3.475 5.362-5.494 8.701-4.132 3.34 1.361 4.939 5.869 3.246 9.062-.706 1.315-1.835 2.348-2.728 3.569-.847 1.221-1.458 2.817-.894 4.179.8 1.972 3.339 2.394 5.174 3.568 1.975 1.268 3.104 3.663 2.869 5.964-.236 2.301-1.835 4.414-3.998 5.306-2.446.986-5.174.328-7.808.563-2.634.188-5.644 1.972-5.408 4.555.188 2.113 2.304 3.428 4.28 4.226 1.975.798 4.185 1.549 5.126 3.428 1.317 2.629-.846 5.822-3.527 6.949-2.681 1.127-5.738.892-8.654 1.08a28.755 28.755 0 0 0-13.64 4.555c-1.975 1.268-6.491 7.184-8.325 5.728-1.035-.798-1.317-3.474-1.834-4.648-.941-2.16-2.211-4.132-3.198-6.292-2.305-4.978-3.998-10.284-5.08-15.637Z" />
   <path fill="#fff"
      d="M177.277 117.587c-7.666 10.19-16.085 19.768-25.257 28.643-.517.517.283 1.268.8.798a247.043 247.043 0 0 0 25.398-28.877c.423-.611-.517-1.127-.941-.564Z"
      opacity=".3" />
   <path fill="#FCFBFF"
      d="M158.229 38.232v129.926c0 .986-.799 1.737-1.74 1.737H98.92c-.987 0-1.74-.798-1.74-1.737V38.232c0-.986.8-1.738 1.74-1.738h10.442v.705a5.304 5.304 0 0 0 5.314 5.306h25.728a5.304 5.304 0 0 0 5.314-5.306v-.705h10.771c.988 0 1.74.752 1.74 1.738Z" />
   <path fill="#F9F1EF" d="M158.276 34.945H97.18v81.609h61.096v-81.61Z" />
   <path fill="#3D3F53"
      d="M156.489 30.531H98.92a7.682 7.682 0 0 0-7.713 7.7v129.927a7.682 7.682 0 0 0 7.713 7.701h57.569a7.681 7.681 0 0 0 7.713-7.701V38.232c0-4.226-3.433-7.701-7.713-7.701Zm1.74 137.627c0 .986-.799 1.737-1.74 1.737H98.92c-.987 0-1.74-.798-1.74-1.737V38.232c0-.986.8-1.738 1.74-1.738h10.442v.705a5.304 5.304 0 0 0 5.315 5.306h25.727a5.304 5.304 0 0 0 5.314-5.306v-.705h10.771c.988 0 1.74.799 1.74 1.738v129.926Z" />
   <path fill="#FFA06F"
      d="M138.757 121.296h-22.481c-2.587 0-4.704-2.113-4.704-4.695 0-2.583 2.117-4.696 4.704-4.696h22.481c2.587 0 4.704 2.113 4.704 4.696a4.684 4.684 0 0 1-4.704 4.695Z" />
   <path fill="#fff"
      d="M119.286 116.695c.094.141.188.328.188.516 0 .282-.094.47-.282.658-.188.14-.423.234-.752.234h-1.505v-3.193h1.411c.329 0 .564.094.752.235.188.141.282.329.282.611a.793.793 0 0 1-.141.469.73.73 0 0 1-.376.282c.141-.047.282.047.423.188Zm-1.599-.517h.517c.142 0 .236-.047.283-.094a.358.358 0 0 0 .094-.234.359.359 0 0 0-.094-.235c-.047-.047-.141-.094-.283-.094h-.517v.657Zm.894 1.174a.359.359 0 0 0 .094-.235c0-.094-.047-.188-.094-.281-.094-.047-.188-.094-.282-.094h-.565v.704h.565c.094 0 .188-.047.282-.094ZM120.65 114.864v1.925c0 .188.047.328.141.422.094.094.235.141.423.141.189 0 .33-.047.424-.141.094-.094.141-.234.141-.422v-1.925h.752v1.925c0 .281-.047.516-.188.704a2.228 2.228 0 0 1-.47.47c-.188.094-.423.14-.659.14a1.5 1.5 0 0 1-.658-.14c-.188-.094-.329-.235-.47-.47a1.556 1.556 0 0 1-.189-.704v-1.925h.753ZM125.683 114.864l-1.082 2.159v1.08h-.753v-1.08l-1.081-2.159h.846l.612 1.361.611-1.361h.847ZM129.774 118.057h-.752l-1.27-1.973v1.973H127v-3.193h.752l1.27 1.972v-1.972h.752v3.193ZM130.997 117.869a1.62 1.62 0 0 1-.564-.564 1.62 1.62 0 0 1-.235-.845c0-.329.094-.61.235-.845a1.62 1.62 0 0 1 .564-.564c.235-.141.518-.187.8-.187.282 0 .564.046.799.187.236.141.424.329.565.564.141.235.235.516.235.845 0 .329-.094.61-.235.845a1.615 1.615 0 0 1-.565.564c-.235.141-.517.188-.799.188-.282 0-.565-.047-.8-.188Zm1.411-.752c.141-.187.235-.375.235-.657 0-.282-.094-.516-.235-.657-.141-.188-.329-.235-.611-.235a.898.898 0 0 0-.612.235 1.014 1.014 0 0 0-.235.657c0 .282.094.517.235.657.142.188.33.235.612.235.235.047.423-.047.611-.235ZM138.099 114.864l-.799 3.193h-.941l-.517-2.114-.518 2.114h-.94l-.8-3.193h.8l.47 2.347.564-2.347h.847l.517 2.347.471-2.347h.846Z" />
   <path fill="#EBEBEB" d="M158.276 129.749H97.18v12.255h61.096v-12.255Z" />
   <path fill="#FC9BA6" d="M114.959 129.749H97.18v12.255h17.779v-12.255Z" />
   <path fill="#3A7EAA"
      d="M141.25 135.148v-.986h1.694v4.461h-1.082v-3.475h-.612ZM146.8 135.101h-1.928v.846c.094-.094.188-.141.329-.235a1.67 1.67 0 0 1 .47-.094c.33 0 .565.047.753.188.188.141.329.328.423.516.094.235.141.47.141.704 0 .47-.141.846-.423 1.127-.282.282-.658.423-1.129.423-.329 0-.611-.047-.846-.188-.236-.094-.424-.282-.565-.469-.141-.188-.188-.423-.235-.705h1.035a.758.758 0 0 0 .188.329.534.534 0 0 0 .376.141c.188 0 .329-.047.423-.188a.788.788 0 0 0 .142-.47c0-.187-.047-.375-.142-.469-.094-.094-.235-.141-.423-.141a.68.68 0 0 0-.329.094c-.094.047-.141.141-.188.282h-1.035v-2.677h2.869v.986h.094ZM150.845 138.012c-.094.188-.283.329-.518.47-.235.141-.517.188-.799.188v.516h-.377v-.516c-.423-.047-.799-.188-1.034-.376a1.088 1.088 0 0 1-.424-.892h1.129c.047.235.141.423.376.47v-.987c-.329-.093-.564-.14-.752-.234-.188-.094-.376-.188-.517-.376a1.148 1.148 0 0 1-.236-.704c0-.376.141-.658.424-.892.282-.235.611-.329 1.081-.376v-.517h.377v.517c.423.047.752.141 1.034.376.236.234.377.516.424.892h-1.129c-.047-.235-.141-.376-.329-.423v.939c.329.094.611.188.799.235.188.094.329.188.471.376.141.187.235.422.235.704a2.34 2.34 0 0 1-.235.61Zm-1.976-2.253c.047.046.141.14.282.187v-.845c-.094 0-.188.047-.282.141-.047.047-.094.141-.094.282 0 .094 0 .188.094.235Zm.941 1.972c.094-.094.094-.188.094-.282 0-.094-.047-.188-.094-.282a1.463 1.463 0 0 0-.282-.188v.846c.094 0 .188-.047.282-.094Z" />
   <path fill="#FCFBFF"
      d="M105.082 135.148h-2.022v3.24h2.022v-3.24ZM105.458 135.148s.705-.892 1.693-2.958c.141-.329.847-.047.518 1.268-.283.986-.424 1.174-.424 1.174h2.07c.141 0 .235.094.282.235.141.657.47 2.535-.894 3.474-.047.047-.094.047-.188.047h-3.057v-3.24Z" />
   <path fill="#EBEBEB"
      d="M149.34 151.583h-46.563v1.643h46.563v-1.643ZM138.052 160.082h-35.275v1.643h35.275v-1.643ZM149.387 160.082h-9.453v1.643h9.453v-1.643ZM129.351 147.357h-26.574V149h26.574v-1.643ZM137.629 147.357h-7.102V149h7.102v-1.643ZM149.387 147.357h-10.535V149h10.535v-1.643ZM120.603 155.856h-17.826v1.643h17.826v-1.643ZM149.34 155.856h-26.338v1.643h26.338v-1.643Z" />
   <path fill="#FFA06F" d="M83.023 104.533h-22.34v48.74h22.34v-48.74Z" />
   <path fill="#FF6924" d="M55.133 153.226h5.55v-48.693l-5.55 1.831v46.862Z" />
   <path fill="#0EB096" d="M121.873 126.743H79.59v26.812h42.283v-26.812Z" />
   <path fill="#0A9379" d="M69.102 153.555H79.59v-26.812l-10.488 1.033v25.779Z" />
   <path fill="#FDD17A" d="M112.137 116.037H93.888v11.739h18.249v-11.739Z" />
   <path fill="#F8A219" d="M89.373 127.776h4.515v-11.739l-4.515.423v11.316Z" />
   <path fill="#3B4050"
      d="M52.452 154.963c-.658 0-1.27-.422-1.458-1.126L35.99 101.575H25.972a1.564 1.564 0 0 1-1.552-1.55c0-.845.706-1.55 1.552-1.55h11.194c.706 0 1.27.47 1.458 1.128L53.91 152.99a1.522 1.522 0 0 1-1.035 1.879c-.14.093-.282.093-.423.093Z" />
   <path fill="#3B4050"
      d="M122.814 155.949h-69.75c-.706 0-1.27-.469-1.459-1.127l-11.381-40.053c-.142-.469-.047-.939.235-1.361a1.56 1.56 0 0 1 1.222-.611h90.21c.47 0 .894.235 1.223.564.282.375.423.845.282 1.314l-9.03 40.054a1.598 1.598 0 0 1-1.552 1.22Zm-68.622-3.052h67.352l8.325-36.954H43.704l10.488 36.954Z" />
   <path fill="#3B4050" d="M128.128 126.978H44.974v1.549h83.154v-1.549Z" />
   <path fill="#3B4050"
      d="m115.585 114.212-8.84 40.029 1.515.334 8.84-40.029-1.515-.334ZM57.922 114.196l-1.511.355 9.435 40.039 1.51-.355-9.434-40.039ZM78.179 114.394h-1.552v40.053h1.552v-40.053ZM97.415 114.394h-1.552v40.053h1.552v-40.053Z" />
   <path fill="#3B4050"
      d="M124.836 140.501H48.689v1.55h76.147v-1.55ZM107.481 170.553H50.006c-4.891 0-8.842-3.944-8.842-8.828 0-4.883 3.95-8.828 8.842-8.828h7.902c.846 0 1.552.705 1.552 1.55 0 .845-.706 1.55-1.552 1.55h-7.902c-3.15 0-5.738 2.582-5.738 5.728s2.587 5.729 5.738 5.729h57.522c.846 0 1.552.704 1.552 1.549-.047.845-.753 1.55-1.599 1.55Z" />
   <path fill="#FDFDFD"
      d="M66.47 175.171a8.16 8.16 0 0 0 0-11.554 8.193 8.193 0 0 0-11.574 0 8.16 8.16 0 0 0 0 11.554 8.193 8.193 0 0 0 11.574 0Z" />
   <path fill="#3B4050" d="M63.928 169.379a3.2 3.2 0 0 1-6.396 0 3.199 3.199 0 0 1 6.396 0Z" />
   <path fill="#FDFDFD"
      d="M97.12 176.74c4.082-1.938 5.818-6.812 3.877-10.887-1.941-4.075-6.823-5.808-10.905-3.871-4.082 1.938-5.817 6.812-3.877 10.887 1.941 4.075 6.823 5.808 10.905 3.871Z" />
   <path fill="#3B4050"
      d="M93.606 172.572a3.196 3.196 0 0 0 3.198-3.193 3.195 3.195 0 0 0-3.198-3.193 3.195 3.195 0 0 0-3.198 3.193 3.196 3.196 0 0 0 3.198 3.193Z" />
   <path fill="#FFDE9C"
      d="M97.85 37.253c6.868-6.858 6.868-17.977 0-24.835-6.87-6.858-18.008-6.858-24.877 0-6.87 6.858-6.87 17.977 0 24.835 6.87 6.858 18.007 6.858 24.876 0Z" />
   <path fill="#3D3F53"
      d="M83.835 21.187c0 3.38-1.787 5.071-3.856 5.071-2.023 0-3.716-1.596-3.763-4.836 0-3.193 1.74-4.978 3.857-4.978 2.304 0 3.762 1.69 3.762 4.743Zm-5.879.14c-.047 2.067.706 3.616 2.07 3.616 1.41 0 2.069-1.55 2.069-3.662 0-1.925-.564-3.569-2.07-3.569-1.316 0-2.069 1.597-2.069 3.616Zm1.881 11.646 9.454-16.529h1.364l-9.407 16.529h-1.41Zm14.44-5.165c0 3.38-1.788 5.07-3.81 5.07-2.023 0-3.716-1.596-3.763-4.789 0-3.24 1.74-5.024 3.857-5.024 2.257 0 3.715 1.69 3.715 4.743Zm-5.88.187c-.047 2.066.753 3.616 2.117 3.616 1.41 0 2.07-1.55 2.07-3.663 0-1.925-.565-3.568-2.07-3.568-1.364-.047-2.117 1.596-2.117 3.615Z" />
   <path fill="#FDD17A"
      d="M150.28 75.186h-19.659a1.313 1.313 0 0 1-1.317-1.315V54.244c0-.705.564-1.315 1.317-1.315h19.659c.706 0 1.317.563 1.317 1.314v19.628c-.047.704-.611 1.315-1.317 1.315Z" />
   <path fill="#F9F1EF"
      d="M146.941 70.82h-4.75l-1.74-6.669-1.788 6.668h-4.75l2.211-12.35h-.047v-1.173h8.654v1.174l2.21 12.35Z" />
   <path fill="#FFA06F"
      d="M123.989 75.186h-19.66a1.314 1.314 0 0 1-1.317-1.315V54.244c0-.705.565-1.315 1.317-1.315h19.66c.705 0 1.317.563 1.317 1.314v19.628c0 .704-.612 1.315-1.317 1.315Z" />
   <path fill="#FDD17A"
      d="m121.966 59.972-2.916-3.146h-3.057c0 .752-.47 1.409-1.128 1.69-.236.095-.471.141-.706.141-.141 0-.235 0-.376-.046-.847-.188-1.458-.893-1.458-1.785h-3.01l-2.916 3.146-.471.517 2.352 2.207.47-.517.565-.61v9.766h9.735V61.57l.565.61.47.517 2.352-2.207-.471-.517ZM150.233 100.871h-19.66a1.314 1.314 0 0 1-1.317-1.315V79.928c0-.704.565-1.314 1.317-1.314h19.66c.706 0 1.317.563 1.317 1.314v19.628c0 .704-.564 1.315-1.317 1.315Z" />
   <path fill="#F9F1EF"
      d="M146.941 96.504h-4.75l-1.787-6.668-1.741 6.668h-4.75l2.211-12.35h-.047v-1.173h8.654v1.173l2.21 12.35Z" />
   <path fill="#FDD17A"
      d="M123.989 100.871h-19.66a1.314 1.314 0 0 1-1.317-1.315V79.928c0-.704.565-1.314 1.317-1.314h19.66c.705 0 1.317.563 1.317 1.314v19.628c0 .704-.612 1.315-1.317 1.315Z" />
   <path fill="#F9F1EF"
      d="m121.966 85.657-2.916-3.146h-3.057c0 .751-.47 1.409-1.128 1.69-.236.094-.471.141-.706.141-.141 0-.235 0-.376-.047-.847-.188-1.458-.892-1.458-1.784h-3.01l-2.916 3.146-.471.517 2.352 2.206.47-.516.565-.61v9.766h9.735v-9.766l.565.61.47.516 2.352-2.206-.471-.517Z" />
   <path fill="#fff"
      d="M180.291 90.783c4.572-2.054 6.611-7.419 4.554-11.983-2.057-4.564-7.431-6.599-12.002-4.545-4.572 2.053-6.611 7.418-4.554 11.982 2.057 4.564 7.431 6.6 12.002 4.546Z" />
   <path fill="#FF884F"
      d="M180.476 82.041c-1.27 2.02-3.857 4.227-3.857 4.227s-2.587-2.207-3.857-4.227c-.517-.798-.329-1.549 0-2.112.424-.705 1.176-1.174 2.023-1.127 1.505.093 1.881 1.596 1.881 1.596s.376-1.502 1.881-1.596c.8-.047 1.599.422 2.023 1.126.188.517.376 1.315-.094 2.114Z" />
   <path fill="#fff"
      d="M57.908 85.61c6.338 0 11.476-5.13 11.476-11.457 0-6.328-5.138-11.457-11.476-11.457-6.338 0-11.476 5.13-11.476 11.457 0 6.328 5.138 11.457 11.476 11.457Z" />
   <path fill="#FF884F"
      d="M54.897 72.228h-4.28v6.761h4.28v-6.761ZM55.603 72.228s1.505-1.878 3.527-6.198c.283-.658 1.835-.094 1.035 2.63-.611 2.112-.846 2.488-.846 2.488h4.327c.282 0 .517.188.564.47.33 1.361.94 5.352-1.834 7.277-.094.094-.235.094-.377.094h-6.396v-6.761Z" />
   <path stroke="#fff" stroke-miterlimit="10"
      d="m182.875 55.183-4.233 4.273M182.875 59.456l-4.233-4.273M32.51 134.632l-4.28 4.273M32.51 138.905l-4.28-4.273M55.604 39.265a2.773 2.773 0 0 0 2.775-2.77c0-1.53-1.243-2.77-2.775-2.77a2.773 2.773 0 0 0-2.775 2.77c0 1.53 1.242 2.77 2.775 2.77Z" />
</svg>