<svg xmlns="http://www.w3.org/2000/svg" width="161" height="179" fill="none">
   <path fill="#000"
      d="M19.637 124v-6.768h2.424v-1.236h-6.252v1.236h2.424V124h1.404Zm7.053.144c2.388 0 4.092-1.752 4.092-4.14s-1.704-4.14-4.092-4.14c-2.4 0-4.092 1.752-4.092 4.14s1.692 4.14 4.092 4.14Zm0-1.248c-1.62 0-2.652-1.248-2.652-2.892 0-1.656 1.032-2.892 2.652-2.892 1.608 0 2.652 1.236 2.652 2.892 0 1.644-1.044 2.892-2.652 2.892ZM33.525 124v-3h2.125c1.668 0 2.604-1.14 2.604-2.496 0-1.368-.924-2.508-2.604-2.508H32.12V124h1.404Zm1.933-4.236h-1.932v-2.532h1.931c.792 0 1.356.504 1.356 1.272 0 .756-.564 1.26-1.355 1.26Zm10.922 4.38c1.608 0 2.604-.852 3.216-1.812l-1.2-.6c-.384.66-1.164 1.164-2.016 1.164-1.584 0-2.76-1.224-2.76-2.892 0-1.692 1.176-2.892 2.76-2.892.852 0 1.632.492 2.016 1.164l1.188-.624c-.588-.96-1.596-1.788-3.204-1.788-2.364 0-4.2 1.668-4.2 4.14 0 2.46 1.836 4.14 4.2 4.14ZM56.91 124l-1.968-3.144c.973-.156 1.909-.936 1.909-2.352 0-1.488-1.044-2.508-2.628-2.508h-3.516V124h1.404v-2.988h1.404L55.28 124h1.631Zm-2.867-4.224h-1.932v-2.544h1.931c.793 0 1.368.492 1.368 1.26 0 .78-.575 1.284-1.367 1.284Zm7.954 4.368c2.388 0 4.092-1.752 4.092-4.14s-1.704-4.14-4.092-4.14c-2.4 0-4.092 1.752-4.092 4.14s1.692 4.14 4.092 4.14Zm0-1.248c-1.62 0-2.652-1.248-2.652-2.892 0-1.656 1.032-2.892 2.652-2.892 1.608 0 2.652 1.236 2.652 2.892 0 1.644-1.044 2.892-2.652 2.892Zm8.18 1.248c2.148 0 3.096-1.152 3.096-2.484 0-2.976-4.656-2.052-4.656-3.552 0-.588.528-.996 1.344-.996.84 0 1.692.288 2.328.924l.792-1.044c-.732-.72-1.752-1.128-2.988-1.128-1.764 0-2.916 1.02-2.916 2.352 0 2.94 4.656 1.896 4.656 3.576 0 .54-.444 1.104-1.596 1.104a3.439 3.439 0 0 1-2.532-1.116l-.792 1.092c.72.744 1.788 1.272 3.264 1.272Zm7.125 0c2.148 0 3.096-1.152 3.096-2.484 0-2.976-4.656-2.052-4.656-3.552 0-.588.528-.996 1.344-.996.84 0 1.692.288 2.328.924l.792-1.044c-.732-.72-1.752-1.128-2.988-1.128-1.764 0-2.916 1.02-2.916 2.352 0 2.94 4.656 1.896 4.656 3.576 0 .54-.444 1.104-1.596 1.104a3.439 3.439 0 0 1-2.532-1.116l-.792 1.092c.72.744 1.788 1.272 3.264 1.272Zm6.765-2.508v-1.08h-2.88v1.08h2.88ZM86.682 124v-3h2.124c1.668 0 2.604-1.14 2.604-2.496 0-1.368-.924-2.508-2.604-2.508h-3.528V124h1.404Zm1.932-4.236h-1.932v-2.532h1.932c.792 0 1.356.504 1.356 1.272 0 .756-.564 1.26-1.356 1.26ZM97.426 124v-1.236h-3.528v-6.768h-1.404V124h4.932Zm8.447 0-3.144-8.004h-1.752L97.833 124h1.596l.588-1.548h3.672l.588 1.548h1.596Zm-2.58-2.784h-2.88l1.44-3.816 1.44 3.816Zm5.969 2.784v-6.768h2.424v-1.236h-6.252v1.236h2.424V124h1.404Zm5.017 0v-3.468h3.996v-1.236h-3.996v-2.064h4.08v-1.236h-5.484V124h1.404Zm9.102.144c2.388 0 4.092-1.752 4.092-4.14s-1.704-4.14-4.092-4.14c-2.4 0-4.092 1.752-4.092 4.14s1.692 4.14 4.092 4.14Zm0-1.248c-1.62 0-2.652-1.248-2.652-2.892 0-1.656 1.032-2.892 2.652-2.892 1.608 0 2.652 1.236 2.652 2.892 0 1.644-1.044 2.892-2.652 2.892ZM135.017 124l-1.968-3.144c.972-.156 1.908-.936 1.908-2.352 0-1.488-1.044-2.508-2.628-2.508h-3.516V124h1.404v-2.988h1.404l1.764 2.988h1.632Zm-2.868-4.224h-1.932v-2.544h1.932c.792 0 1.368.492 1.368 1.26 0 .78-.576 1.284-1.368 1.284ZM144.676 124v-8.004h-1.98l-2.172 5.496-2.184-5.496h-1.98V124h1.404v-6.18l2.46 6.18h.6l2.448-6.18V124h1.404Zm-133.57 15v-8.004h-1.98l-2.172 5.496-2.184-5.496H2.79V139h1.404v-6.18l2.46 6.18h.6l2.447-6.18V139h1.404Zm5.447.144c2.388 0 4.092-1.752 4.092-4.14s-1.704-4.14-4.092-4.14c-2.4 0-4.092 1.752-4.092 4.14s1.692 4.14 4.092 4.14Zm0-1.248c-1.62 0-2.652-1.248-2.652-2.892 0-1.656 1.032-2.892 2.652-2.892 1.608 0 2.652 1.236 2.652 2.892 0 1.644-1.044 2.892-2.652 2.892ZM26.029 139c1.512 0 2.328-.924 2.328-2.172 0-.972-.684-1.824-1.548-1.956.744-.156 1.392-.84 1.392-1.836 0-1.128-.804-2.04-2.28-2.04h-3.936V139h4.044Zm-.384-4.704h-2.256v-2.064h2.256c.708 0 1.116.444 1.116 1.032 0 .612-.408 1.032-1.116 1.032Zm.06 3.468h-2.316v-2.232h2.316c.792 0 1.212.516 1.212 1.116 0 .696-.456 1.116-1.212 1.116ZM31.182 139v-8.004h-1.404V139h1.404Zm6.537 0v-1.236h-3.528v-6.768h-1.404V139h4.932Zm6.719 0v-1.236h-4.08v-2.232h3.996v-1.236h-3.996v-2.064h4.08v-1.236h-5.484V139h5.484Zm11.747 0-3.144-8.004H51.29L48.145 139h1.596l.588-1.548h3.672L54.59 139h1.596Zm-2.58-2.784h-2.88l1.44-3.816 1.44 3.816ZM58.451 139v-3h2.124c1.668 0 2.604-1.14 2.604-2.496 0-1.368-.924-2.508-2.604-2.508h-3.528V139h1.404Zm1.932-4.236h-1.932v-2.532h1.932c.792 0 1.356.504 1.356 1.272 0 .756-.564 1.26-1.356 1.26Zm5.38 4.236v-3h2.125c1.668 0 2.604-1.14 2.604-2.496 0-1.368-.924-2.508-2.604-2.508H64.36V139h1.404Zm1.933-4.236h-1.932v-2.532h1.932c.792 0 1.356.504 1.356 1.272 0 .756-.564 1.26-1.356 1.26ZM77.754 139c2.496 0 4.176-1.644 4.176-4.008 0-2.34-1.68-3.996-4.188-3.996h-2.976V139h2.988Zm-.012-1.236H76.17v-5.532h1.584c1.776 0 2.736 1.224 2.736 2.76 0 1.524-1.008 2.772-2.748 2.772ZM88.77 139v-1.236h-4.08v-2.232h3.996v-1.236H84.69v-2.064h4.08v-1.236h-5.484V139h5.484Zm5.51 0 3.143-8.004h-1.596l-2.424 6.468-2.424-6.468h-1.596L92.527 139h1.752Zm9.49 0v-1.236h-4.08v-2.232h3.996v-1.236H99.69v-2.064h4.08v-1.236h-5.484V139h5.484Zm6.277 0v-1.236h-3.528v-6.768h-1.404V139h4.932Zm4.615.144c2.388 0 4.092-1.752 4.092-4.14s-1.704-4.14-4.092-4.14c-2.4 0-4.092 1.752-4.092 4.14s1.692 4.14 4.092 4.14Zm0-1.248c-1.62 0-2.652-1.248-2.652-2.892 0-1.656 1.032-2.892 2.652-2.892 1.608 0 2.652 1.236 2.652 2.892 0 1.644-1.044 2.892-2.652 2.892Zm6.836 1.104v-3h2.124c1.668 0 2.604-1.14 2.604-2.496 0-1.368-.924-2.508-2.604-2.508h-3.528V139h1.404Zm1.932-4.236h-1.932v-2.532h1.932c.792 0 1.356.504 1.356 1.272 0 .756-.564 1.26-1.356 1.26ZM135.723 139v-8.004h-1.98l-2.172 5.496-2.184-5.496h-1.98V139h1.404v-6.18l2.46 6.18h.6l2.448-6.18V139h1.404Zm7.187 0v-1.236h-4.08v-2.232h3.996v-1.236h-3.996v-2.064h4.08v-1.236h-5.484V139h5.484Zm8.378 0v-8.004h-1.404v5.544l-4.092-5.544h-1.44V139h1.404v-5.724l4.176 5.724h1.356Zm5.013 0v-6.768h2.424v-1.236h-6.252v1.236h2.424V139h1.404ZM56.136 154.144c1.608 0 2.604-.852 3.216-1.812l-1.2-.6c-.384.66-1.164 1.164-2.016 1.164-1.584 0-2.76-1.224-2.76-2.892 0-1.692 1.176-2.892 2.76-2.892.852 0 1.632.492 2.016 1.164l1.188-.624c-.588-.96-1.596-1.788-3.204-1.788-2.364 0-4.2 1.668-4.2 4.14 0 2.46 1.836 4.14 4.2 4.14Zm8.071 0c2.388 0 4.092-1.752 4.092-4.14s-1.704-4.14-4.092-4.14c-2.4 0-4.092 1.752-4.092 4.14s1.692 4.14 4.092 4.14Zm0-1.248c-1.62 0-2.652-1.248-2.652-2.892 0-1.656 1.032-2.892 2.652-2.892 1.608 0 2.652 1.236 2.652 2.892 0 1.644-1.044 2.892-2.652 2.892ZM77.955 154v-8.004h-1.98l-2.172 5.496-2.184-5.496h-1.98V154h1.404v-6.18l2.46 6.18h.6l2.448-6.18V154h1.404Zm3.108 0v-3h2.124c1.668 0 2.604-1.14 2.604-2.496 0-1.368-.924-2.508-2.604-2.508h-3.528V154h1.404Zm1.932-4.236h-1.932v-2.532h1.932c.792 0 1.356.504 1.356 1.272 0 .756-.564 1.26-1.356 1.26ZM93.28 154l-3.144-8.004h-1.752L85.24 154h1.596l.588-1.548h3.672l.588 1.548h1.596Zm-2.58-2.784h-2.88l1.44-3.816 1.44 3.816ZM101.079 154v-8.004h-1.404v5.544l-4.092-5.544h-1.44V154h1.404v-5.724L99.723 154h1.356Zm5.385 0v-3.324l3.096-4.68h-1.608l-2.196 3.42-2.196-3.42h-1.608l3.108 4.68V154h1.404Z" />
   <path fill="#18AAD1"
      d="M80.765 68.666c-.188 0-.188-.2 0 0l-.938-.602-.188-.201-22.135-16.865s-.188 0-.188-.201l-.375-.402-.188-.2h-.375L50 45.376l12.569 2.008c.562 0 .75.2 1.313.401.187 0 .563.201.563.201.562.2.75.402 1.125.602.375.201.563.402.938.603.188.2.563.401.563.602.187.2.375.2.563.402.375.2.562.401.562.602.563.602.938 1.205 1.501 1.606l9.942 15.059.188.2.938 1.004Z" />
   <path fill="url(#a)"
      d="m80.765 91.956-.938-1.606-.188-.2-29.451-44.774 6.378 4.819 1.125.803 22.136 16.865h.188l.75.602s.188 0 .188.201l.937-.803 29.827-22.487L81.703 90.35l-.188.201-.75 1.405Z" />
   <path fill="#18AAD1"
      d="m80.765 61.036-.938-1.606-.188-.2-7.316-10.843 7.316 1.606h.188l.938.201.938-.2 7.128-1.807-7.128 11.243v.2l-.938 1.406ZM111.905 45.175l-9.38 1.405-3.564.603c-2.814.401-5.44 2.007-7.128 4.617L81.89 67.06l-.187.2-.938 1.406 1.125-1.205.188-.2-1.313 1.405L106.09 49.39l5.815-4.216Z" />
   <path fill="#2AD2FF"
      d="M85.455 13.452c0 8.834-14.257 13.452-14.257 22.889-.188 2.208.375 4.417 1.313 6.425 0 0-5.44-5.622-5.44-11.646 0-6.023 5.252-15.058 5.252-15.058 0 4.016 1.501 5.22 3.002 5.421h.187c1.689 0 2.627-1.405 2.627-3.413s-2.064-4.016-2.064-8.031C76.075 6.224 80.577 0 80.577 0c3.19 4.016 4.878 8.633 4.878 13.452Z" />
   <path fill="#2AD2FF"
      d="M81.515 45.576c-4.502 0-7.879-3.815-7.879-8.432v-.201c0-10.24 13.32-11.244 13.32-25.097.375.602 3.939 5.822 3.939 11.444 0 7.027-6.19 8.834-6.19 12.247 0 1.406.562 2.41 2.438 2.41.188 0 .375 0 .563-.201 3.564-1.606 6.003-5.22 6.19-9.437 0 .201 1.876 17.267-12.38 17.267Z" />
   <path fill="#18AAD1"
      d="M87.33 37.947c.188 0 .376 0 .563-.201-1.876.602-8.816 2.41-8.816-2.81 0-6.426 10.317-7.831 10.317-13.252 0-3.413-.75-6.827-2.439-9.838.376.602 3.94 5.822 3.94 11.444 0 7.027-6.19 8.834-6.19 12.247.187 1.406.937 2.41 2.626 2.41ZM81.378 17.066c0 5.02-6.003 4.618-6.378 4.417h.563c1.688 0 2.626-1.405 2.626-3.413s-2.063-4.016-2.063-8.031C76.126 6.224 80.627 0 80.627 0c-1.501 2.61-2.251 5.421-2.439 8.232 0 4.618 3.19 5.02 3.19 8.834ZM77.951 104.806l-4.127-3.012h5.065l1.688-5.421 1.501 5.421h5.065l-4.127 3.012 1.5 5.22-4.126-3.213-4.315 3.213 1.876-5.22ZM101.127 104.806 97 101.794h5.065l1.688-5.421 1.501 5.421h5.065l-4.127 3.012 1.501 5.22-4.127-3.213-4.315 3.213 1.876-5.22ZM124.127 104.806 120 101.794h5.065l1.688-5.421 1.501 5.421h5.065l-4.127 3.012 1.501 5.22-4.127-3.213-4.315 3.213 1.876-5.22ZM54.127 104.806 50 101.794h5.065l1.688-5.421 1.501 5.421h5.065l-4.127 3.012 1.5 5.22-4.126-3.213-4.127 3.213 1.688-5.22ZM31.127 104.806 27 101.794h5.065l1.688-5.421 1.501 5.421h5.065l-4.127 3.012 1.5 5.22-4.126-3.213-4.127 3.213 1.688-5.22Z" />
   <path fill="#0460B5" d="M135.1 160.1H25.8v18.2h109.3v-18.2Z" />
   <path fill="#0460B5"
      d="M34.2 151H12l4.6 9.1-4.6 9.1h12.3l.1-9.9 9.8-8.3ZM126.8 151h22.1l-4.6 9.1 4.6 9.1h-12.3v-9.9l-9.8-8.3Z" />
   <path fill="#fff"
      d="M36.9 166c.6.3 1.1.8 1.4 1.3.3.6.5 1.3.5 1.9 0 .7-.2 1.3-.5 1.9-.3.6-.8 1-1.4 1.3-.6.3-1.3.5-2 .5h-3.1v-7.5h3.1c.7.1 1.4.2 2 .6Zm-.7 5.4c.4-.2.7-.5.9-.9.4-.8.4-1.8 0-2.6-.2-.4-.5-.7-.9-.9-.4-.2-.8-.3-1.3-.3h-1.7v5h1.7c.4 0 .9-.1 1.3-.3ZM40 165.5h5.5v1.2h-4v1.9h3.6v1.2h-3.6v1.9h4.2v1.2H40v-7.4ZM50.7 166.9c-.3-.1-.7-.2-1.1-.2-.3 0-.6.1-.8.2-.2.1-.3.3-.3.5s.1.4.2.5c.1.1.3.3.5.3l.9.3c.4.1.8.3 1.2.4.3.2.6.4.8.7.2.3.4.7.3 1.2 0 .4-.1.9-.4 1.2-.3.3-.6.6-1 .8-.5.2-1 .3-1.5.3-.6 0-1.2-.1-1.7-.3-.5-.2-1-.5-1.5-.9l.6-1.2c.4.3.8.6 1.3.8.4.2.9.3 1.3.3.3 0 .7-.1.9-.2.4-.2.4-.7.2-1.1l-.1-.1c-.2-.1-.3-.3-.5-.3-.2-.1-.5-.2-.9-.3-.4-.1-.8-.3-1.2-.4-.3-.1-.6-.4-.8-.6-.2-.3-.4-.7-.3-1.1 0-.4.1-.8.3-1.1.3-.3.6-.6 1-.8.5-.2 1-.3 1.5-.3s1 .1 1.4.2c.4.1.9.3 1.3.6l-.6 1.2c-.2-.3-.6-.5-1-.6ZM53.9 165.5h1.4v7.5h-1.4v-7.5ZM62.2 169.2h1.2v2.9c-.4.3-.9.5-1.4.7-.5.2-1 .3-1.6.3-.7 0-1.4-.2-2-.5-.6-.3-1.1-.8-1.4-1.4-.4-.6-.5-1.3-.5-2s.2-1.4.5-1.9c.4-.6.9-1.1 1.5-1.4.6-.3 1.3-.5 2-.5.5 0 1.1.1 1.6.3.5.2 1 .4 1.3.8l-.8 1.1c-.3-.3-.6-.5-1-.6-.4-.1-.7-.2-1.1-.2-.5 0-.9.1-1.3.3-1.2.7-1.6 2.3-.9 3.5.5.8 1.3 1.3 2.2 1.3.3 0 .5 0 .8-.1.3-.1.6-.2.8-.4l.1-2.2ZM70.4 165.5h1.4v7.5h-1.3l-3.9-5.2v5.2h-1.4v-7.5h1.4l3.9 5.2-.1-5.2ZM78.3 173l-1.3-2.2h-2v2.2h-1.4v-7.5h3.1c.8-.1 1.6.2 2.3.6.5.5.8 1.2.8 1.9 0 .5-.1 1-.4 1.5-.3.4-.7.7-1.1.9l1.7 2.5-1.7.1Zm-3.3-3.5h1.7c.5 0 .9-.1 1.3-.4.3-.3.4-.6.4-1s-.1-.8-.4-1c-.4-.2-.8-.4-1.2-.3H75v2.7ZM83.1 171.3c.4.3.9.5 1.3.5.5 0 1-.2 1.3-.5.3-.4.5-.9.5-1.4v-4.4h1.4v4.4c0 .6-.1 1.2-.4 1.7-.3.5-.7.9-1.1 1.1-.5.3-1.1.4-1.7.4-.6 0-1.2-.1-1.8-.4-.5-.2-.9-.6-1.1-1.1-.3-.5-.4-1.1-.4-1.7v-4.4h1.4v4.4c.1.5.3 1 .6 1.4ZM93 166.9c-.3-.1-.7-.2-1.1-.2-.3 0-.6.1-.8.2-.2.1-.3.3-.3.5s.1.4.2.5c.1.1.3.3.5.3l.9.3c.4.1.8.3 1.2.4.3.2.6.4.8.7.2.3.4.7.3 1.2 0 .4-.1.9-.4 1.2-.3.3-.6.6-1 .8-.5.2-1 .3-1.5.3-.6 0-1.2-.1-1.7-.3-.5-.2-1-.5-1.5-.9l.6-1.2c.4.3.8.6 1.3.8.4.2.9.3 1.3.3.3 0 .7-.1.9-.2.4-.2.4-.7.2-1.1l-.1-.1c-.2-.1-.3-.3-.5-.3-.2-.1-.5-.2-.9-.3-.4-.1-.8-.3-1.2-.4-.3-.1-.6-.4-.8-.6-.2-.3-.4-.7-.3-1.1 0-.4.1-.8.3-1.1.3-.3.6-.6 1-.8.5-.2 1-.3 1.5-.3s1 .1 1.4.2c.4.1.9.3 1.3.6l-.6 1.2c-.2-.3-.6-.5-1-.6ZM96.2 165.5h1.4v3.2h3.7v-3.2h1.4v7.5h-1.4v-3h-3.7v3h-1.4v-7.5ZM105.4 171.7c.1.1.2.3.2.6 0 .2-.1.4-.2.6-.1.1-.3.2-.5.2s-.4-.1-.5-.2c-.1-.2-.2-.4-.2-.6 0-.2.1-.4.2-.6.1-.1.3-.2.5-.2s.4.1.5.2ZM109.4 168.4c-.4 0-.8.2-1.1.5-.3.3-.4.8-.4 1.2 0 .5.1.9.4 1.2.3.3.7.5 1.1.5.6 0 1.2-.2 1.5-.7l.9.7c-.3.4-.6.7-1 .9-.5.2-1 .3-1.5.3s-1-.1-1.5-.4c-.4-.2-.8-.6-1-1-.5-.9-.5-2.1 0-3 .2-.4.6-.8 1-1 .5-.2 1-.4 1.5-.4s1 .1 1.4.3c.4.2.7.4 1 .8l-.8.8c-.3-.4-.9-.7-1.5-.7ZM116.9 167.6c.4.2.8.6 1.1 1 .3.5.4 1 .4 1.5s-.1 1.1-.4 1.5c-.3.4-.6.8-1.1 1-.5.2-1 .4-1.6.4-.6 0-1.1-.1-1.6-.4-.4-.2-.8-.6-1.1-1-.3-.5-.4-1-.4-1.5s.1-1.1.4-1.5c.3-.4.6-.8 1.1-1 .5-.3 1-.4 1.6-.4.6 0 1.1.1 1.6.4Zm-2.7 1.3c-.6.7-.6 1.8 0 2.5.3.3.7.5 1.2.5.4 0 .9-.2 1.2-.5.6-.7.6-1.8 0-2.5-.3-.3-.7-.5-1.2-.5s-.9.1-1.2.5ZM128.6 167.8c.4.4.6 1 .6 1.6v3.6h-1.4v-3.2c0-.4-.1-.7-.3-1-.2-.2-.6-.4-.9-.4-.4 0-.8.2-1.1.5-.3.3-.4.7-.4 1.2v2.8h-1.4v-3.1c0-.4-.1-.7-.3-1-.2-.2-.6-.4-.9-.4-.4 0-.8.2-1.1.5-.3.3-.4.8-.3 1.2v2.8h-1.4v-5.7h1.4v1.1c.7-1.1 2.2-1.4 3.3-.8.3.2.6.6.7 1 .3-.9 1.2-1.4 2.1-1.4.5 0 1 .3 1.4.7Z" />
   <defs>
      <linearGradient id="a" x1="80.953" x2="80.953" y1="92.094" y2="67.45" gradientUnits="userSpaceOnUse">
         <stop offset="1" stop-color="#2AD2FF" />
      </linearGradient>
   </defs>
</svg>