<svg xmlns="http://www.w3.org/2000/svg" width="136" height="202" fill="none" viewBox="0 0 136 218">
   <path fill="#0460B5"
      d="M124 189h11.102l-4.152-10.5 4.152-10.5H119.5l4.5 5v16ZM11.101 189H0l4.152-10.5L0 168h15.602l-4.5 5v16Z" />
   <path fill="#0460B5" d="M122 174H13v21h109v-21Z" />
   <path fill="#fff"
      d="M27.636 181.545c.546.273 1 .728 1.273 1.182.273.546.455 1.182.455 1.728 0 .636-.182 1.181-.455 1.727-.273.545-.727.909-1.273 1.182-.545.272-1.181.454-1.818.454H23V181h2.818c.636.091 1.273.182 1.818.545Zm-.636 4.91c.364-.182.636-.455.818-.819a2.696 2.696 0 0 0 0-2.363 1.778 1.778 0 0 0-.818-.818 2.514 2.514 0 0 0-1.182-.273h-1.545v4.545h1.545a2.81 2.81 0 0 0 1.182-.272ZM30.455 181.091h5v1.091h-3.636v1.727h3.272V185h-3.273v1.727h3.819v1.091h-5.182v-6.727ZM40.182 182.364a3.265 3.265 0 0 0-1-.182c-.273 0-.546.091-.727.182a.498.498 0 0 0-.273.454c0 .182.09.364.182.455.09.091.272.272.454.272l.818.273c.364.091.728.273 1.091.364.273.182.546.363.728.636.181.273.363.636.272 1.091 0 .364-.09.818-.363 1.091s-.546.545-.91.727c-.454.182-.909.273-1.363.273-.546 0-1.09-.091-1.546-.273a5.42 5.42 0 0 1-1.363-.818l.545-1.091c.364.273.728.546 1.182.727.364.182.818.273 1.182.273.273 0 .636-.091.818-.182.364-.182.364-.636.182-1l-.09-.091c-.183-.091-.274-.272-.456-.272-.181-.091-.454-.182-.818-.273-.363-.091-.727-.273-1.09-.364-.273-.091-.546-.363-.728-.545-.182-.273-.364-.637-.273-1 0-.364.091-.727.273-1 .273-.273.546-.546.91-.727.454-.182.908-.273 1.363-.273.454 0 .909.091 1.273.182a3.44 3.44 0 0 1 1.181.545l-.545 1.091c-.182-.273-.546-.455-.91-.545ZM43.091 181.091h1.273v6.818H43.09v-6.818ZM50.637 184.455h1.09v2.636c-.363.273-.818.454-1.272.636-.455.182-.91.273-1.455.273-.636 0-1.272-.182-1.818-.455a2.87 2.87 0 0 1-1.273-1.272c-.363-.546-.454-1.182-.454-1.818 0-.637.182-1.273.454-1.728.364-.545.819-1 1.364-1.272.545-.273 1.182-.455 1.818-.455.455 0 1 .091 1.455.273.454.182.909.363 1.182.727L51 183c-.272-.273-.545-.455-.909-.545-.363-.091-.636-.182-1-.182-.454 0-.818.091-1.182.272-1.09.637-1.454 2.091-.818 3.182.455.728 1.182 1.182 2 1.182.273 0 .455 0 .727-.091.273-.091.546-.182.728-.363l.09-2ZM58.091 181.091h1.273v6.818h-1.182l-3.545-4.727v4.727h-1.273v-6.818h1.273l3.545 4.727-.09-4.727ZM65.273 187.909l-1.182-2h-1.818v2H61v-6.818h2.818c.728-.091 1.455.182 2.091.545.455.455.728 1.091.728 1.728 0 .454-.091.909-.364 1.363a2.83 2.83 0 0 1-1 .818l1.545 2.273-1.545.091Zm-3-3.182h1.545c.455 0 .819-.091 1.182-.363.273-.273.364-.546.364-.909 0-.364-.091-.728-.364-.91-.363-.181-.727-.363-1.09-.272h-1.637v2.454ZM69.636 186.364c.364.272.819.454 1.182.454.455 0 .91-.182 1.182-.454.273-.364.455-.819.455-1.273v-4h1.273v4c0 .545-.091 1.091-.364 1.545-.273.455-.636.818-1 1-.455.273-1 .364-1.546.364-.545 0-1.09-.091-1.636-.364a1.8 1.8 0 0 1-1-1c-.273-.454-.364-1-.364-1.545v-4h1.273v4c.091.454.273.909.546 1.273ZM78.637 182.364a3.265 3.265 0 0 0-1-.182c-.273 0-.546.091-.728.182a.498.498 0 0 0-.272.454c0 .182.09.364.181.455.091.091.273.272.455.272l.818.273c.364.091.727.273 1.091.364.273.182.546.363.727.636.182.273.364.636.273 1.091 0 .364-.09.818-.364 1.091-.272.273-.545.545-.909.727-.454.182-.909.273-1.363.273-.546 0-1.091-.091-1.546-.273a5.42 5.42 0 0 1-1.363-.818l.545-1.091c.364.273.727.546 1.182.727.364.182.818.273 1.182.273.272 0 .636-.091.818-.182.364-.182.364-.636.182-1l-.091-.091c-.182-.091-.273-.272-.455-.272-.182-.091-.454-.182-.818-.273-.364-.091-.727-.273-1.09-.364-.274-.091-.546-.363-.728-.545-.182-.273-.364-.637-.273-1 0-.364.091-.727.273-1 .273-.273.545-.546.909-.727.455-.182.91-.273 1.364-.273.454 0 .909.091 1.272.182a3.44 3.44 0 0 1 1.182.545l-.545 1.091c-.182-.273-.546-.455-.91-.545ZM81.546 181.091h1.272V184h3.364v-2.909h1.273v6.818h-1.273v-2.727h-3.364v2.727h-1.272v-6.818ZM89.91 186.728c.09.091.181.272.181.545 0 .182-.09.364-.181.546a.693.693 0 0 1-.455.181.694.694 0 0 1-.455-.181c-.09-.182-.181-.364-.181-.546 0-.182.09-.363.181-.545a.694.694 0 0 1 .455-.182c.182 0 .364.091.454.182ZM93.545 183.728c-.363 0-.727.181-1 .454-.272.273-.363.727-.363 1.091 0 .455.09.818.363 1.091s.637.455 1 .455c.546 0 1.091-.182 1.364-.637l.818.637c-.273.363-.545.636-.909.818-.454.182-.909.272-1.364.272-.454 0-.909-.09-1.363-.363a2.196 2.196 0 0 1-.91-.909 2.9 2.9 0 0 1 0-2.728c.183-.363.546-.727.91-.909.454-.181.909-.363 1.364-.363.454 0 .909.091 1.272.272.364.182.636.364.91.728l-.728.727c-.273-.364-.818-.636-1.364-.636ZM100.364 183c.364.182.727.546 1 .909.273.455.364.91.364 1.364 0 .455-.091 1-.364 1.364-.273.363-.545.727-1 .909-.455.182-.909.363-1.455.363-.545 0-1-.09-1.454-.363-.364-.182-.727-.546-1-.909a2.567 2.567 0 0 1-.364-1.364c0-.454.091-1 .364-1.364.273-.363.545-.727 1-.909.454-.272.909-.363 1.454-.363.546 0 1 .091 1.455.363Zm-2.455 1.182a1.783 1.783 0 0 0 0 2.273c.273.273.637.454 1.091.454.364 0 .819-.181 1.091-.454a1.782 1.782 0 0 0 0-2.273 1.503 1.503 0 0 0-1.09-.454c-.455 0-.819.091-1.092.454ZM111 183.181c.364.364.546.909.546 1.455v3.273h-1.273v-2.91c0-.363-.091-.636-.273-.909-.181-.181-.545-.363-.818-.363-.363 0-.727.182-1 .454-.273.273-.363.637-.363 1.091v2.546h-1.273v-2.819c0-.363-.091-.636-.273-.909-.182-.181-.545-.363-.818-.363-.364 0-.727.182-1 .454-.273.273-.364.728-.273 1.091v2.546h-1.273v-5.182h1.273v1c.637-1 2-1.273 3-.727.273.181.546.545.637.909.272-.819 1.09-1.273 1.909-1.273.454 0 .909.273 1.272.636Z" />
   <path fill="#000"
      d="M58.146 130v-9.024h3.232v-1.648h-8.336v1.648h3.232V130h1.872Zm9.404.192c3.184 0 5.456-2.336 5.456-5.52 0-3.184-2.272-5.52-5.456-5.52-3.2 0-5.456 2.336-5.456 5.52 0 3.184 2.256 5.52 5.456 5.52Zm0-1.664c-2.16 0-3.536-1.664-3.536-3.856 0-2.208 1.376-3.856 3.536-3.856 2.144 0 3.536 1.648 3.536 3.856 0 2.192-1.392 3.856-3.536 3.856ZM76.664 130v-4h2.832c2.224 0 3.472-1.52 3.472-3.328 0-1.824-1.232-3.344-3.472-3.344h-4.704V130h1.872Zm2.576-5.648h-2.576v-3.376h2.576c1.056 0 1.808.672 1.808 1.696 0 1.008-.752 1.68-1.808 1.68ZM15.343 148l3.056-10.672h-2.096l-2.08 8.208-2.208-8.208h-1.488l-2.208 8.208-2.08-8.208h-2.08L7.199 148h2l2.08-7.888L13.343 148h2Zm8.973.192c3.184 0 5.456-2.336 5.456-5.52 0-3.184-2.272-5.52-5.456-5.52-3.2 0-5.456 2.336-5.456 5.52 0 3.184 2.256 5.52 5.456 5.52Zm0-1.664c-2.16 0-3.537-1.664-3.537-3.856 0-2.208 1.377-3.856 3.537-3.856 2.143 0 3.536 1.648 3.536 3.856 0 2.192-1.393 3.856-3.537 3.856Zm12.234 1.664c3.184 0 5.456-2.336 5.456-5.52 0-3.184-2.272-5.52-5.456-5.52-3.2 0-5.456 2.336-5.456 5.52 0 3.184 2.256 5.52 5.456 5.52Zm0-1.664c-2.16 0-3.536-1.664-3.536-3.856 0-2.208 1.376-3.856 3.536-3.856 2.144 0 3.536 1.648 3.536 3.856 0 2.192-1.392 3.856-3.536 3.856Zm12.378 1.664c2.144 0 3.472-1.136 4.288-2.416l-1.6-.8c-.512.88-1.552 1.552-2.688 1.552-2.112 0-3.68-1.632-3.68-3.856 0-2.256 1.568-3.856 3.68-3.856 1.136 0 2.176.656 2.688 1.552l1.584-.832c-.784-1.28-2.128-2.384-4.272-2.384-3.152 0-5.6 2.224-5.6 5.52 0 3.28 2.448 5.52 5.6 5.52Zm10.763 0c3.183 0 5.456-2.336 5.456-5.52 0-3.184-2.273-5.52-5.457-5.52-3.2 0-5.456 2.336-5.456 5.52 0 3.184 2.256 5.52 5.456 5.52Zm0-1.664c-2.16 0-3.537-1.664-3.537-3.856 0-2.208 1.377-3.856 3.536-3.856 2.145 0 3.537 1.648 3.537 3.856 0 2.192-1.392 3.856-3.536 3.856ZM78.02 148v-10.672h-2.64l-2.896 7.328-2.912-7.328h-2.64V148h1.872v-8.24l3.28 8.24h.8l3.264-8.24V148h1.872Zm13.36 0v-10.672h-2.64l-2.897 7.328-2.912-7.328h-2.64V148h1.872v-8.24l3.28 8.24h.8l3.264-8.24V148h1.872Zm9.583 0v-1.648h-5.44v-2.976h5.328v-1.648h-5.328v-2.752h5.44v-1.648h-7.312V148h7.312Zm10.194 0-2.624-4.192c1.296-.208 2.544-1.248 2.544-3.136 0-1.984-1.392-3.344-3.504-3.344h-4.688V148h1.872v-3.984h1.872l2.352 3.984h2.176Zm-3.824-5.632h-2.576v-3.392h2.576c1.056 0 1.824.656 1.824 1.68 0 1.04-.768 1.712-1.824 1.712Zm10.751 5.824c2.144 0 3.472-1.136 4.288-2.416l-1.6-.8c-.513.88-1.552 1.552-2.688 1.552-2.112 0-3.68-1.632-3.68-3.856 0-2.256 1.568-3.856 3.68-3.856 1.136 0 2.175.656 2.688 1.552l1.584-.832c-.784-1.28-2.128-2.384-4.272-2.384-3.152 0-5.6 2.224-5.6 5.52 0 3.28 2.448 5.52 5.6 5.52Zm13.082-.192v-1.648h-5.44v-2.976h5.328v-1.648h-5.328v-2.752h5.44v-1.648h-7.312V148h7.312Zm-107.54 18c3.329 0 5.569-2.192 5.569-5.344 0-3.12-2.24-5.328-5.584-5.328h-3.968V166h3.984Zm-.015-1.648h-2.096v-7.376h2.112c2.368 0 3.648 1.632 3.648 3.68 0 2.032-1.344 3.696-3.664 3.696ZM38.315 166v-1.648h-5.44v-2.976h5.328v-1.648h-5.328v-2.752h5.44v-1.648h-7.312V166h7.312Zm7.347 0 4.192-10.672h-2.128l-3.232 8.624-3.232-8.624h-2.128L43.326 166h2.336Zm12.653 0v-1.648h-5.44v-2.976h5.328v-1.648h-5.328v-2.752h5.44v-1.648h-7.312V166h7.312Zm8.37 0v-1.648h-4.703v-9.024H60.11V166h6.576Zm6.154.192c3.184 0 5.456-2.336 5.456-5.52 0-3.184-2.272-5.52-5.456-5.52-3.2 0-5.456 2.336-5.456 5.52 0 3.184 2.256 5.52 5.456 5.52Zm0-1.664c-2.16 0-3.536-1.664-3.536-3.856 0-2.208 1.376-3.856 3.536-3.856 2.144 0 3.536 1.648 3.536 3.856 0 2.192-1.392 3.856-3.536 3.856ZM81.953 166v-4h2.832c2.224 0 3.472-1.52 3.472-3.328 0-1.824-1.232-3.344-3.472-3.344h-4.704V166h1.872Zm2.576-5.648h-2.576v-3.376h2.576c1.056 0 1.808.672 1.808 1.696 0 1.008-.752 1.68-1.808 1.68ZM97.143 166v-1.648h-5.44v-2.976h5.328v-1.648h-5.328v-2.752h5.44v-1.648h-7.312V166h7.312Zm10.195 0-2.624-4.192c1.296-.208 2.544-1.248 2.544-3.136 0-1.984-1.392-3.344-3.504-3.344h-4.688V166h1.872v-3.984h1.872l2.352 3.984h2.176Zm-3.824-5.632h-2.576v-3.392h2.576c1.056 0 1.824.656 1.824 1.68 0 1.04-.768 1.712-1.824 1.712Zm9.278 5.824c2.864 0 4.128-1.536 4.128-3.312 0-3.968-6.208-2.736-6.208-4.736 0-.784.704-1.328 1.792-1.328 1.12 0 2.256.384 3.104 1.232l1.056-1.392c-.976-.96-2.336-1.504-3.984-1.504-2.352 0-3.888 1.36-3.888 3.136 0 3.92 6.208 2.528 6.208 4.768 0 .72-.592 1.472-2.128 1.472a4.585 4.585 0 0 1-3.376-1.488l-1.056 1.456c.96.992 2.384 1.696 4.352 1.696Z" />
   <path fill="#18AAD1"
      d="M67.765 68.666c-.188 0-.188-.2 0 0l-.938-.602-.188-.201-22.135-16.865s-.188 0-.188-.201l-.375-.402-.188-.2h-.375L37 45.376l12.569 2.008c.562 0 .75.2 1.313.401.187 0 .563.201.563.201.562.2.75.402 1.125.602.375.201.563.402.938.603.188.2.563.401.563.602.187.2.375.2.563.402.375.2.562.401.562.602.563.602.938 1.205 1.501 1.606l9.942 15.059.188.2.938 1.004Z" />
   <path fill="#2AD2FF"
      d="m67.765 91.956-.938-1.606-.188-.2-29.451-44.774 6.378 4.819 1.125.803 22.136 16.865h.188l.75.602s.188 0 .188.201l.937-.803 29.828-22.487L68.703 90.35l-.188.201-.75 1.405Z" />
   <path fill="#18AAD1"
      d="m67.765 61.036-.938-1.606-.188-.2-7.316-10.843 7.316 1.606h.188l.938.201.938-.2 7.128-1.807-7.128 11.243v.2l-.938 1.406ZM98.905 45.175l-9.38 1.405-3.564.603c-2.814.401-5.44 2.007-7.128 4.617L68.89 67.06l-.187.2-.938 1.406 1.125-1.205.188-.2-1.313 1.405L93.09 49.39l5.815-4.216Z" />
   <path fill="#2AD2FF"
      d="M72.455 13.452c0 8.834-14.257 13.452-14.257 22.889-.188 2.208.375 4.417 1.313 6.425 0 0-5.44-5.622-5.44-11.646 0-6.023 5.252-15.058 5.252-15.058 0 4.016 1.501 5.22 3.002 5.421h.187c1.689 0 2.627-1.405 2.627-3.413s-2.064-4.016-2.064-8.031C63.075 6.224 67.577 0 67.577 0c3.19 4.016 4.878 8.633 4.878 13.452Z" />
   <path fill="#2AD2FF"
      d="M68.515 45.576c-4.502 0-7.879-3.815-7.879-8.432v-.201c0-10.24 13.32-11.244 13.32-25.097.375.602 3.939 5.822 3.939 11.444 0 7.027-6.19 8.834-6.19 12.247 0 1.406.562 2.41 2.438 2.41.188 0 .375 0 .563-.201 3.564-1.606 6.003-5.22 6.19-9.437 0 .201 1.876 17.267-12.38 17.267Z" />
   <path fill="#18AAD1"
      d="M74.33 37.947c.188 0 .376 0 .563-.201-1.876.602-8.816 2.41-8.816-2.81 0-6.426 10.317-7.831 10.317-13.252 0-3.413-.75-6.827-2.439-9.838.376.602 3.94 5.822 3.94 11.444 0 7.027-6.19 8.834-6.19 12.247.187 1.406.937 2.41 2.626 2.41ZM68.378 17.066c0 5.02-6.003 4.618-6.378 4.417h.563c1.688 0 2.626-1.405 2.626-3.413s-2.063-4.016-2.063-8.031C63.126 6.224 67.627 0 67.627 0c-1.501 2.61-2.251 5.421-2.439 8.232 0 4.618 3.19 5.02 3.19 8.834Z" />
   <path fill="#2AD2FF"
      d="m65.162 105.02-4.338-3.088h5.324l1.775-5.559 1.577 5.559h5.324l-4.338 3.088 1.577 5.353-4.338-3.294-4.535 3.294 1.972-5.353ZM88.338 105.02 84 101.932h5.324l1.775-5.559 1.577 5.559H98l-4.338 3.088 1.577 5.353-4.338-3.294-4.535 3.294 1.972-5.353ZM111.338 105.02 107 101.932h5.324l1.775-5.559 1.577 5.559H121l-4.338 3.088 1.577 5.353-4.338-3.294-4.535 3.294 1.972-5.353ZM41.338 105.02 37 101.932h5.324l1.775-5.559 1.577 5.559H51l-4.338 3.088 1.577 5.353-4.338-3.294-4.338 3.294 1.775-5.353ZM18.338 105.02 14 101.932h5.324l1.775-5.559 1.577 5.559H28l-4.338 3.088 1.577 5.353-4.338-3.294-4.338 3.294 1.775-5.353Z" />
</svg>