<svg xmlns="http://www.w3.org/2000/svg" width="80" height="80" fill="none">
  <path fill="#000" fill-rule="evenodd"
    d="M0 0h80v80H0V0Zm53.333 32c-5.89 0-10.666 4.776-10.666 10.667 0 5.89 4.775 10.666 10.666 10.666h5.334a5.333 5.333 0 1 1 0 10.667h-5.334A5.333 5.333 0 0 1 48 58.667h-5.333c0 5.89 4.775 10.666 10.666 10.666h5.334c5.89 0 10.666-4.775 10.666-10.666S64.558 48 58.667 48h-5.334a5.333 5.333 0 0 1 0-10.667h6.223A4.444 4.444 0 0 1 64 41.778v.889h5.333v-.89c0-5.4-4.377-9.777-9.777-9.777h-6.223ZM16 32h26.667v5.333H32v32h-5.333v-32H16V32Z"
    clip-rule="evenodd" />
</svg>