<svg xmlns="http://www.w3.org/2000/svg" viewBox="0 0 24 24">
   <path
      d="M12 .375C5.363.375 0 5.553 0 12c0 6.446 5.363 11.625 12 11.625S24 18.445 24 12C24 5.553 18.637.375 12 .375zm7.063 12.47c-.052 1.269-.265 2.274-.69 3.065-.425.74-1.116 1.321-2.126 1.637-1.008.32-2.387.477-4.14.477h-.213c-1.753 0-3.132-.158-4.142-.477-1.008-.317-1.699-.899-2.124-1.637-.424-.793-.637-1.796-.69-3.065-.053-1.269 0-1.427 0-1.427-.004-.69.05-1.379.159-2.061.106-.581.159-1.003.267-1.479.051-.211.104-.266.104-.369.053-.055.161-.159.266-.159h.052l1.54.211c.107 0 .212.108.212.212v.052l-.105.421c-.107.425-.159.953-.267 1.586-.051.635-.104 1.27-.104 1.956-.053 1.269.105 2.217.371 2.8.318.581.797 1.005 1.541 1.162.637.107 1.592.21 2.76.21v.002h.531c1.168 0 2.123-.053 2.762-.212.744-.157 1.273-.579 1.539-1.162.267-.634.371-1.532.371-2.8 0-.687 0-1.32-.105-1.956-.108-.633-.16-1.16-.266-1.585l-.106-.422v-.052c0-.105.108-.212.213-.212l1.54-.211h.053c.161 0 .266.053.266.159.052.052.052.158.105.369.108.422.161.845.266 1.48.056.631.16 1.32.16 2.059 0 .001.052.159 0 1.428z" />
</svg>