<svg xmlns="http://www.w3.org/2000/svg" width="413" height="470" fill="none">
   <path stroke="#185A96" stroke-miterlimit="10"
      d="M106.158 83.742v59.867c0 4.553 4.979 7.359 8.872 4.999l9.042-5.494c3.21-1.927 7.297.384 7.297 4.129v41.546M82.4 121.32v32.06a8.154 8.154 0 0 1-4.066 7.056l-24.617 14.382a8.189 8.189 0 0 0-4.083 7.085v49.818M129.925 93.797v28.361c0 3.796 4.135 6.148 7.398 4.207l27.884-16.366c3.472-2.063 7.868.436 7.868 4.474v26.492" />
   <path fill="url(#a)"
      d="M109.79 98.802a1.277 1.277 0 0 1-.049.273 1.085 1.085 0 0 1-.041.142c-.013.039-.033.078-.048.117-.022.05-.043.099-.07.148a1.964 1.964 0 0 1-.123.202l-.023.031c-.047.066-.1.133-.156.197-.012.012-.022.025-.031.037a3.728 3.728 0 0 1-.201.197c-.045.04-.095.079-.146.12-.045.035-.087.072-.134.105a3.65 3.65 0 0 1-.172.113c-.06.039-.116.08-.181.117a4.605 4.605 0 0 1-.449.228l-.137.058c-.122.051-.247.1-.375.142-.045.016-.09.034-.137.047-.079.026-.163.047-.245.07a6.49 6.49 0 0 1-.187.051 5.394 5.394 0 0 1-.265.056c-.06.012-.118.026-.179.037-.179.032-.36.057-.543.076-.056.006-.113.01-.169.014-.107.01-.215.017-.322.021-.068.004-.138.004-.206.006-.088.002-.173.002-.261.002-.072 0-.146-.004-.218-.006-.082-.004-.162-.007-.241-.013l-.22-.018a8.643 8.643 0 0 1-.238-.027l-.212-.029a6.663 6.663 0 0 1-.452-.086c-.099-.021-.198-.047-.296-.072-.054-.014-.109-.027-.163-.043a5.916 5.916 0 0 1-.512-.173c-.082-.031-.162-.068-.242-.103l-.122-.053a4.159 4.159 0 0 1-.351-.183c-.94-.543-1.411-1.256-1.409-1.968l-.028 9.947c-.002.712.468 1.425 1.41 1.968.113.064.23.125.35.183.041.019.082.035.123.053.072.031.142.064.216.093.008.004.018.006.025.01.166.064.337.12.512.173l.041.014c.041.011.082.019.123.029.097.025.197.051.296.072.027.006.053.014.08.019l.119.022c.083.015.167.031.253.045.033.005.066.013.101.017.037.006.074.008.113.012l.237.027c.037.004.076.01.113.012.035.004.072.004.107.006l.242.013c.041.002.08.006.12.006h.098c.087.002.173 0 .261-.002h.13c.025 0 .051-.004.078-.006.107-.004.214-.011.321-.021.043-.004.088-.004.131-.008l.041-.006c.183-.019.364-.045.543-.076l.025-.004c.053-.009.101-.023.154-.033.089-.017.177-.035.265-.056.064-.016.124-.033.187-.051.081-.023.165-.045.245-.07.017-.006.035-.01.052-.015.03-.01.057-.022.084-.032.129-.042.253-.091.376-.142.045-.019.091-.037.136-.058.156-.07.308-.144.45-.228l.058-.035c.045-.027.082-.055.123-.082.058-.037.117-.076.171-.115.047-.035.09-.07.135-.105.05-.041.101-.08.146-.12.009-.008.021-.016.029-.026a2.316 2.316 0 0 0 .202-.21 1.93 1.93 0 0 0 .094-.109c.023-.029.043-.058.064-.088l.024-.031c.036-.054.073-.109.105-.165.005-.012.009-.024.017-.037.027-.049.049-.1.07-.148.012-.029.029-.059.041-.088a.157.157 0 0 0 .008-.029c.017-.047.029-.095.041-.142.008-.033.021-.064.027-.098l.004-.025c.01-.051.012-.099.017-.15.004-.033.01-.066.012-.097v-.043l.027-9.947c-.007.053-.015.097-.019.144Z" />
   <path fill="url(#b)"
      d="M108.397 96.698c1.869 1.079 1.876 2.83.019 3.908-1.857 1.08-4.877 1.08-6.746 0-1.87-1.079-1.879-2.829-.022-3.908 1.858-1.078 4.878-1.08 6.749 0Z" />
   <path fill="url(#c)"
      d="M88.227 113.486c-.003.05-.007.099-.017.15-.008.041-.02.081-.031.122-.012.047-.024.096-.041.142-.014.039-.033.078-.049.117a2.01 2.01 0 0 1-.193.351l-.023.031c-.047.066-.1.132-.156.197-.011.011-.021.025-.03.037a3.192 3.192 0 0 1-.201.196c-.045.041-.096.08-.146.121-.045.035-.088.072-.135.105-.054.039-.113.076-.171.113-.06.039-.117.08-.181.117a5.03 5.03 0 0 1-.586.286 5.644 5.644 0 0 1-.376.142c-.045.016-.09.033-.136.047-.08.025-.164.047-.245.07l-.187.051c-.088.021-.176.038-.265.056l-.18.037c-.178.031-.36.056-.543.076-.056.006-.112.01-.169.014a6.914 6.914 0 0 1-.321.021c-.068.004-.138.004-.207.006-.087.002-.173.002-.26.002-.072 0-.146-.004-.218-.006-.08-.004-.162-.008-.242-.014l-.22-.017a8.631 8.631 0 0 1-.237-.028l-.213-.029a5.136 5.136 0 0 1-.253-.044 9.126 9.126 0 0 1-.658-.156 5.955 5.955 0 0 1-.512-.174c-.082-.031-.161-.068-.241-.103a7.984 7.984 0 0 1-.123-.052 4.497 4.497 0 0 1-.35-.183c-.94-.543-1.412-1.256-1.41-1.969l-.027 9.947c-.002.713.467 1.425 1.41 1.969.112.064.23.124.35.183.04.019.082.035.123.052.072.031.142.064.216.094.007.004.017.005.025.009.165.065.337.121.512.174l.04.013c.04.012.083.02.124.029.097.026.196.051.295.073.028.005.053.013.08.019l.119.021c.084.016.167.032.253.045.033.006.066.014.101.018.037.006.074.007.113.011.08.01.158.02.238.028.037.004.076.009.113.011l.107.006c.08.006.161.01.241.014.041.002.08.006.121.006h.097c.088.002.174 0 .261-.002h.13c.026 0 .051-.004.079-.006.107-.004.214-.012.32-.022.044-.003.088-.003.131-.007l.041-.006c.183-.02.364-.045.543-.076l.026-.004c.052-.01.1-.021.153-.033.09-.018.178-.035.265-.057.064-.015.125-.033.187-.05.082-.024.166-.045.245-.07l.053-.016c.03-.01.056-.021.084-.031.128-.043.253-.092.376-.142.044-.02.091-.037.136-.059.155-.07.307-.144.45-.227l.058-.035c.045-.028.082-.055.123-.082.058-.037.116-.076.17-.115.048-.035.09-.07.135-.105.05-.041.102-.08.146-.121.01-.008.022-.015.03-.025.06-.057.118-.115.17-.173.013-.012.022-.026.032-.037.031-.035.064-.072.093-.109.024-.03.043-.059.065-.088.007-.01.015-.022.023-.031.037-.055.074-.109.105-.166.006-.011.01-.023.018-.037.027-.048.048-.099.07-.148.011-.029.029-.058.04-.087a.166.166 0 0 0 .008-.03c.018-.046.03-.095.041-.142.008-.033.022-.064.028-.097l.004-.025c.01-.051.011-.1.017-.15.004-.033.01-.066.012-.098v-.042l.027-9.947c-.008.052-.016.097-.02.144Z" />
   <path fill="url(#d)"
      d="M86.831 111.38c1.87 1.079 1.877 2.829.02 3.907-1.858 1.081-4.877 1.081-6.747 0-1.869-1.078-1.878-2.828-.021-3.907 1.857-1.079 4.879-1.081 6.748 0Z" />
   <path fill="url(#e)"
      d="M133.775 86.917c-.004.051-.007.1-.017.15-.008.041-.02.082-.031.123a1.362 1.362 0 0 1-.041.142c-.014.04-.033.078-.049.117a1.954 1.954 0 0 1-.193.35l-.023.032a2.331 2.331 0 0 1-.156.196l-.031.037a3.108 3.108 0 0 1-.2.197c-.045.04-.096.08-.147.12-.044.036-.087.073-.134.106-.054.039-.113.076-.171.113-.061.038-.117.08-.181.116a4.597 4.597 0 0 1-.586.287c-.123.05-.248.099-.376.142-.045.015-.09.033-.136.047-.08.025-.164.046-.246.07a5.709 5.709 0 0 1-.187.05 5.741 5.741 0 0 1-.264.057c-.061.011-.119.025-.179.037-.18.03-.361.056-.544.075-.056.006-.113.01-.169.014-.107.01-.214.018-.321.022-.068.004-.138.004-.207.005-.087.002-.173.002-.261.002-.072 0-.146-.004-.218-.005a9.943 9.943 0 0 1-.241-.014l-.22-.018a8.637 8.637 0 0 1-.703-.1 7.029 7.029 0 0 1-.494-.113 4.949 4.949 0 0 1-.676-.217c-.082-.031-.162-.068-.241-.103-.041-.018-.084-.035-.123-.053a4.076 4.076 0 0 1-.35-.183c-.941-.543-1.412-1.255-1.41-1.968l-.027 9.947c-.002.712.467 1.425 1.409 1.968.113.064.23.125.351.183.041.02.081.035.122.053.072.031.142.064.216.093l.026.01c.165.064.337.12.512.173l.041.014c.039.012.081.02.122.03.098.024.197.05.296.071l.08.02c.039.007.08.013.119.021.084.016.167.031.253.045.033.006.066.013.101.017.037.006.074.008.113.012.08.01.158.02.238.027.037.004.076.01.113.012.035.004.072.004.107.006.08.006.161.01.241.013.041.002.08.006.121.006h.097c.088.002.173 0 .261-.002h.131c.025 0 .05-.004.077-.005a6 6 0 0 0 .322-.022c.042-.004.087-.004.13-.008l.041-.006c.183-.019.364-.044.543-.075l.025-.004c.053-.01.102-.022.154-.034.09-.017.177-.034.265-.056.064-.016.125-.033.187-.05.082-.024.165-.045.245-.07.018-.007.035-.01.053-.016.029-.01.056-.022.084-.031.128-.043.253-.092.375-.142.045-.02.092-.038.137-.059.155-.07.307-.144.449-.228l.059-.035c.045-.027.082-.054.122-.082.059-.037.117-.075.172-.114.046-.035.089-.07.134-.106.051-.04.101-.08.146-.12.01-.008.022-.016.029-.026.063-.056.119-.114.172-.173.011-.011.021-.025.031-.037.031-.035.064-.072.093-.109.024-.029.043-.058.064-.088l.024-.03c.037-.055.074-.11.105-.166l.017-.037c.028-.049.049-.1.071-.148.011-.03.029-.058.04-.088a.157.157 0 0 0 .008-.029c.018-.047.029-.095.041-.142.008-.033.022-.064.027-.097l.004-.026c.01-.05.012-.099.018-.15.004-.033.01-.066.012-.097v-.043l.027-9.947c-.008.051-.016.098-.02.144Z" />
   <path fill="url(#f)"
      d="M132.38 84.812c1.869 1.079 1.877 2.83.019 3.908-1.857 1.079-4.877 1.08-6.746 0-1.869-1.079-1.879-2.829-.021-3.908 1.857-1.08 4.879-1.08 6.748 0Z" />
   <path fill="url(#g)"
      d="M123.144 11.87c.578-.22 1.144-.406 1.707-.573.093-.027.185-.057.278-.084.071-.02.141-.045.211-.062a19.88 19.88 0 0 1 1.374-.318c.103-.021.207-.039.31-.056.161-.03.327-.064.487-.09.173-.027.338-.029.51-.05.323-.04.642-.074.958-.096.114-.007.235-.029.35-.035.171-.008.333.006.5.004.255-.002.507-.004.756.006.107.004.22-.004.327.002.189.012.368.045.553.064.212.022.424.043.631.074.079.012.165.016.245.03.23.038.446.103.668.153.169.04.342.072.508.117.045.012.093.02.138.031.329.096.644.216.96.339.078.031.16.05.235.084.01.004.02.006.028.01.395.165.779.352 1.15.562l.123.07 3.917 2.276c.152.076.312.142.462.226l.122.07 22.912 13.315-.006-.004.006.004a10.943 10.943 0 0 0-1.303-.642c-.076-.031-.155-.053-.233-.082-.358-.14-.725-.267-1.102-.372-.166-.047-.339-.078-.508-.117-.3-.07-.604-.134-.915-.183-.207-.03-.421-.052-.631-.074-.29-.03-.582-.056-.88-.068a13.89 13.89 0 0 0-.754-.006c-.28.004-.564.012-.852.031a18.48 18.48 0 0 0-.958.096c-.331.04-.66.08-.997.14-.103.02-.207.037-.31.056-.52.104-1.047.228-1.585.38-.091.025-.185.057-.278.084-.563.167-1.131.352-1.707.572l-4.455-2.59c-.016.007-.031.01-.047.018L123.144 11.87Z" />
   <path fill="url(#h)"
      d="M86.709 13.475c.442-.506.892-1.004 1.35-1.491.153-.164.31-.32.466-.481.308-.32.614-.64.927-.95l.041-.043c.043-.043.088-.08.133-.123a49.602 49.602 0 0 1 2.211-2.04 45.619 45.619 0 0 1 1.945-1.612c.031-.025.065-.047.096-.072a42.817 42.817 0 0 1 2.435-1.748c.684-.456 1.37-.894 2.068-1.297a34.184 34.184 0 0 1 3.532-1.762c.079-.033.161-.076.241-.11.033-.013.064-.022.095-.036.483-.197.962-.38 1.435-.543.061-.022.119-.037.177-.057.413-.138.824-.265 1.229-.377.043-.012.088-.03.13-.041.18-.049.355-.086.532-.129.171-.043.347-.087.516-.124.234-.051.465-.092.697-.135.16-.029.321-.062.481-.087l.078-.014c.338-.053.671-.093 1.002-.125.065-.005.127-.007.191-.013.244-.022.489-.043.728-.053.033-.002.063.002.096 0 .504-.02.997-.015 1.479.012.039.002.08-.002.117 0 .074.004.144.02.216.025.372.03.738.072 1.098.129.07.011.144.013.215.025.037.006.072.017.11.025.425.078.844.172 1.248.288.016.004.032.006.047.012.057.016.107.041.162.057.333.1.658.216.977.344.055.022.115.037.17.06.058.024.111.057.169.082.304.133.6.279.89.434.056.032.116.053.171.084.043.026.088.049.13.074l3.91 2.272c.095.049.195.09.288.14.057.032.117.053.171.084l.131.074 22.911 13.315c-.097-.056-.202-.105-.301-.157a11.5 11.5 0 0 0-.89-.435c-.111-.048-.224-.095-.337-.142a11.81 11.81 0 0 0-.977-.344c-.07-.022-.139-.047-.209-.069-.405-.116-.823-.21-1.248-.288-.107-.02-.216-.033-.325-.05-.36-.057-.726-.1-1.098-.129-.111-.008-.222-.02-.335-.025a15.54 15.54 0 0 0-2.303.04c-.064.007-.127.009-.191.014-.356.036-.716.082-1.08.14-.158.026-.322.059-.481.088-.232.043-.462.084-.697.135-.172.037-.345.083-.516.124-.22.055-.44.107-.662.17-.405.113-.814.239-1.229.377-.06.02-.118.035-.177.057-.473.163-.952.346-1.435.543-.111.045-.226.1-.336.146-.452.193-.91.399-1.369.623-.154.074-.308.148-.462.226-.562.284-1.129.582-1.701.913a38.26 38.26 0 0 0-2.586 1.649c-.646.446-1.287.907-1.917 1.396-.032.025-.065.047-.096.072a48.575 48.575 0 0 0-1.945 1.612l-.485.428a51.98 51.98 0 0 0-1.727 1.612c-.056.057-.114.11-.173.166-.313.31-.619.63-.927.95-.155.162-.313.317-.467.48-.457.49-.907.986-1.349 1.492l-4.474-2.6-.025.028-22.912-13.315Z" />
   <path fill="url(#i)"
      d="M19.762 94.561c.015-.232.046-.467.068-.7.037-.425.068-.848.124-1.274.006-.047.016-.095.022-.144.015-.115.035-.232.052-.347.078-.545.17-1.094.275-1.645.03-.163.06-.327.095-.49.024-.12.043-.236.068-.355.05-.235.12-.473.175-.708.104-.446.21-.894.33-1.342.03-.117.054-.233.085-.35.07-.252.156-.505.232-.756.105-.352.208-.704.323-1.059.039-.119.07-.237.11-.356.095-.29.207-.578.31-.867.106-.297.209-.593.32-.89.035-.09.064-.182.1-.274.143-.374.303-.746.457-1.117.095-.23.183-.462.282-.692.02-.046.037-.095.058-.142.277-.638.569-1.275.875-1.908l.005-.01c.02-.038.041-.077.06-.118.289-.592.585-1.182.896-1.766.028-.05.057-.101.084-.152.129-.241.267-.477.4-.716.192-.347.377-.695.577-1.038.053-.09.11-.175.162-.263.173-.292.353-.58.532-.87.165-.27.325-.543.494-.81.068-.11.144-.212.214-.32.216-.332.44-.66.662-.988.158-.234.308-.472.471-.701.072-.103.152-.2.224-.304.28-.393.57-.78.86-1.166.16-.214.312-.434.476-.645.054-.07.113-.134.167-.204.565-.72 1.141-1.43 1.737-2.117l.03-.034.003-.004.041-.045c.473-.543.958-1.071 1.45-1.59.16-.17.324-.334.485-.5.222-.227.44-.46.666-.683.23-.225.46-.45.691-.67l4.472 2.6c.01-.01.02-.018.028-.028L62.92 79.32c-.461.438-.911.895-1.359 1.355-.161.165-.323.327-.483.494a51.933 51.933 0 0 0-1.458 1.599l-.033.037-.039.046c-.594.686-1.17 1.39-1.733 2.109-.22.28-.432.568-.646.853-.29.385-.578.769-.857 1.162-.237.333-.467.67-.695 1.007-.222.327-.446.654-.662.987-.243.373-.477.753-.71 1.133-.178.288-.357.574-.53.866-.255.432-.5.87-.744 1.308-.13.238-.268.472-.395.711a55.264 55.264 0 0 0-.977 1.912l-.065.125c-.328.683-.64 1.37-.936 2.06-.097.227-.185.455-.28.683-.193.467-.384.932-.56 1.402-.11.294-.211.59-.316.884-.146.41-.29.819-.423 1.23-.113.35-.218.703-.321 1.053-.11.37-.218.74-.318 1.11-.12.448-.225.894-.329 1.34-.081.356-.17.71-.243 1.065-.033.163-.064.327-.095.488-.105.551-.197 1.1-.275 1.645-.015.115-.037.232-.052.347-.063.473-.104.942-.145 1.411-.02.236-.052.474-.068.709a29.316 29.316 0 0 0-.07 2.058c.02 6.698 2.43 11.405 6.353 13.687l-5.247-3.049c.242.169.49.329.746.477l-22.912-13.315a11.033 11.033 0 0 1-3.208-2.837c-1.988-2.581-3.133-6.245-3.145-10.85 0-.68.026-1.367.07-2.06Z" />
   <path fill="url(#j)"
      d="M35.271 57.106a39.179 39.179 0 0 1 .245-2.679c0-.006 0-.01.002-.016.014-.11.035-.226.05-.337.061-.444.126-.887.202-1.333.034-.207.077-.413.116-.62.066-.36.133-.72.209-1.082.01-.045.015-.087.025-.13.016-.072.037-.146.053-.218a48.09 48.09 0 0 1 .617-2.514c.013-.05.023-.1.037-.15l.017-.058c.21-.758.446-1.517.695-2.276.027-.084.049-.17.078-.253.033-.1.074-.199.107-.298.22-.65.452-1.299.7-1.947.023-.06.04-.119.063-.18l.02-.046c.267-.69.55-1.378.845-2.064.031-.07.056-.142.087-.212.051-.117.108-.23.158-.346.232-.528.473-1.052.72-1.575.055-.115.104-.232.16-.349l.09-.175c.327-.672.664-1.34 1.014-2.002.014-.025.025-.052.039-.078.045-.085.095-.167.14-.253.31-.576.629-1.148.958-1.719.056-.097.107-.198.166-.296.048-.085.103-.167.153-.25.407-.69.822-1.375 1.252-2.05l.006-.009.027-.039c.452-.704.92-1.396 1.396-2.083.06-.088.117-.18.18-.267.046-.066.095-.126.142-.192a64.047 64.047 0 0 1 1.616-2.189c.037-.047.07-.097.107-.146.05-.064.105-.124.153-.189.657-.839 1.328-1.66 2.021-2.459.032-.035.059-.074.09-.109.095-.109.193-.212.288-.319.337-.384.68-.761 1.024-1.133l.477-.51c.364-.384.732-.76 1.102-1.131.097-.096.189-.199.286-.294l.119-.115c.152-.15.308-.294.462-.442.255-.245.512-.489.77-.728.17-.156.34-.308.51-.462a39.203 39.203 0 0 1 1.285-1.12 45.82 45.82 0 0 1 1.3-1.058c.254-.203.511-.4.77-.594a35.83 35.83 0 0 1 1.355-.99c.174-.122.347-.247.522-.365.302-.207.606-.403.91-.6.147-.095.293-.195.44-.286.453-.286.908-.563 1.366-.828a38.551 38.551 0 0 1 1.892-1.016c.174-.088.345-.17.516-.253a34.751 34.751 0 0 1 1.523-.693c.087-.037.179-.086.269-.123.035-.015.07-.025.107-.04.537-.22 1.07-.425 1.596-.606.07-.024.138-.043.208-.066.456-.154.91-.292 1.357-.417.049-.014.1-.033.148-.047.197-.052.39-.093.586-.142.193-.047.386-.097.577-.14.26-.056.518-.103.775-.15.177-.033.356-.07.533-.097.031-.004.062-.012.092-.018.373-.056.745-.103 1.111-.138.066-.006.13-.008.195-.014.28-.025.559-.048.833-.06.035-.002.068.002.103 0a17.688 17.688 0 0 1 1.642.014c.043.002.09-.002.132.002.082.005.16.021.242.029.412.033.82.08 1.218.142.078.012.162.014.24.027.04.008.08.022.122.027.474.086.937.191 1.387.32.017.006.035.008.052.011.063.018.119.045.181.065.37.113.73.24 1.085.381.06.026.126.041.189.066.064.028.124.065.188.092.337.146.664.308.984.48.062.034.13.06.192.094l.148.086 3.896 2.264c.088.045.18.082.265.129.062.033.13.058.193.093l.148.086 22.911 13.315c-.111-.064-.228-.119-.341-.18a13.38 13.38 0 0 0-1.359-.638 13.102 13.102 0 0 0-1.084-.381c-.078-.024-.154-.053-.232-.076a14.326 14.326 0 0 0-1.386-.32c-.119-.021-.239-.036-.36-.056a15.4 15.4 0 0 0-1.219-.142c-.124-.01-.247-.022-.374-.03a17.68 17.68 0 0 0-2.577.045c-.067.006-.129.008-.195.014-.397.039-.798.092-1.203.156-.176.027-.357.064-.534.097-.257.047-.514.094-.775.15-.19.041-.383.092-.576.14-.243.06-.489.119-.734.187-.448.125-.9.263-1.357.417-.07.023-.138.04-.208.066a29.51 29.51 0 0 0-1.597.606c-.124.05-.249.108-.374.161-.502.214-1.01.444-1.522.693-.171.084-.343.166-.516.253a36.84 36.84 0 0 0-3.26 1.844c-.147.093-.293.193-.44.286-.303.197-.607.393-.908.6-.176.119-.349.243-.522.366-.27.19-.541.381-.81.58-.183.134-.364.273-.545.409a54.284 54.284 0 0 0-1.316 1.03c-.254.204-.505.413-.754.623-.179.15-.358.302-.535.456-.251.218-.5.44-.75.663-.171.154-.34.306-.51.462-.259.24-.514.483-.77.728-.155.148-.309.292-.462.442-.137.134-.271.273-.405.407-.372.372-.74.748-1.104 1.131-.16.17-.32.339-.477.51-.345.372-.688.752-1.024 1.133-.127.142-.253.285-.378.429a66.73 66.73 0 0 0-2.02 2.459c-.088.11-.176.221-.262.333a64.16 64.16 0 0 0-1.616 2.19l-.32.457a68.114 68.114 0 0 0-1.43 2.134c-.432.676-.847 1.361-1.252 2.048l-.32.547c-.328.569-.648 1.143-.957 1.72-.058.11-.12.22-.181.33a62.12 62.12 0 0 0-1.014 2.002c-.084.173-.166.348-.25.524-.249.523-.488 1.05-.722 1.575-.082.187-.165.372-.245.559a63.8 63.8 0 0 0-.845 2.063c-.03.076-.055.152-.084.226a54.36 54.36 0 0 0-.884 2.498c-.25.76-.485 1.519-.695 2.276-.02.07-.035.138-.055.208-.23.84-.434 1.679-.617 2.514-.025.117-.054.232-.078.348-.075.362-.142.723-.208 1.083-.039.206-.082.413-.117.619-.076.446-.14.89-.2 1.334-.016.116-.037.235-.053.352a39.179 39.179 0 0 0-.21 2.151c-.014.178-.023.353-.035.528a35.63 35.63 0 0 0-.068 2.126c.004 1.478.115 2.876.31 4.198l-4.506-2.619c.002.016.002.031.006.047L35.516 63.422a29.827 29.827 0 0 1-.31-4.198c-.005-.695.024-1.406.065-2.118Z" />
   <path fill="url(#k)"
      d="M62.925 79.314a29.545 29.545 0 0 1-.31-4.197C62.57 58.443 75.02 37.72 90.426 28.824c9.981-5.762 18.744-5.141 23.697.538 3.481-3.997 7.451-7.422 11.668-9.855 12.394-7.156 22.711-3.367 24.769 8.25 10.971-4.183 19.319 1.371 19.356 13.847.039 14.038-10.441 31.48-23.412 38.968l-75.84 43.787c-12.969 7.488-23.515 2.184-23.556-11.853-.033-11.148 6.588-24.444 15.818-33.192Z" />
   <path fill="url(#l)"
      d="M59.612 123.43c-7.358 0-8.174-7.65-8.183-10.938-.028-9.587 5.922-21.942 14.47-30.041l1.629-1.544-.325-2.222a25.29 25.29 0 0 1-.263-3.58C66.897 60.1 78.643 40.62 92.589 32.57c3.913-2.258 7.702-3.454 10.953-3.454 3.073 0 5.536 1.04 7.321 3.088l3.261 3.738 3.259-3.74c3.267-3.75 6.922-6.845 10.57-8.952 3.452-1.994 6.781-3.047 9.63-3.047 5.988 0 8.046 4.517 8.718 8.308l.913 5.147 4.887-1.863c1.902-.726 3.691-1.094 5.315-1.094 7.352 0 8.167 7.632 8.177 10.913.035 12.415-9.696 28.54-21.249 35.212L68.5 120.61c-3.193 1.844-6.268 2.82-8.888 2.82Z" />
   <path fill="#C2C4C6"
      d="M297.039 215.909v.717a5.701 5.701 0 0 1-2.767 4.604l-20.801 12.476-31.295 18.726c-3.339 2.003-7.157 2.934-10.924 2.72-2.911-.119-5.82-.954-8.493-2.434l-35.827-20.133-17.46-9.803c-2.695-1.503-4.033-4.223-4.033-6.917v-.215c.072-2.552 1.336-5.056 3.842-6.559l51.761-31.034a13.702 13.702 0 0 1 13.693-.191l59.395 33.371a5.656 5.656 0 0 1 2.885 4.413.937.937 0 0 1 .024.259Z" />
   <path fill="#C2C4C6"
      d="M297.039 253.575v.717a5.701 5.701 0 0 1-2.767 4.604l-20.801 12.476-31.295 18.726c-3.339 2.003-7.157 2.934-10.924 2.72-2.911-.119-5.82-.954-8.493-2.434l-35.827-20.133-17.46-9.803c-2.695-1.503-4.033-4.223-4.033-6.917v-.215c.072-2.552 1.336-5.056 3.842-6.559l51.761-31.034a13.702 13.702 0 0 1 13.693-.191l59.395 33.371a5.656 5.656 0 0 1 2.885 4.413.945.945 0 0 1 .024.259Z" />
   <path fill="url(#m)"
      d="M297.039 216.625v34.064a5.669 5.669 0 0 1-2.767 4.604l-52.096 31.225a19.12 19.12 0 0 1-10.924 2.695v-34.064a19.146 19.146 0 0 0 10.924-2.72l31.295-18.725 20.801-12.476a5.699 5.699 0 0 0 2.767-4.603Z" />
   <path fill="url(#n)"
      d="M231.252 255.149v34.063a18.896 18.896 0 0 1-8.493-2.434l-53.289-29.936c-2.695-1.503-4.032-4.197-4.032-6.894v-34.087c0 2.695 1.335 5.415 4.032 6.918l17.46 9.803 35.827 20.133c2.673 1.48 5.584 2.315 8.495 2.434Z" />
   <path fill="#83869B"
      d="M279.497 239.169v15.978a5.092 5.092 0 0 1-2.472 4.367l-22.221 13.309c-1.384.824-3.062.285-3.798-.952a2.728 2.728 0 0 0 1.797-.374l22.22-13.299a5.102 5.102 0 0 0 2.483-4.377v-15.978c0-.333-.069-.649-.197-.923 1.149.031 2.188.964 2.188 2.249Z" />
   <path fill="url(#o)"
      d="M277.505 237.845v15.979a5.096 5.096 0 0 1-2.482 4.377l-22.22 13.299a2.736 2.736 0 0 1-1.797.374 2.76 2.76 0 0 1-.394-1.423V256.16a6.425 6.425 0 0 1 3.131-5.515l22.368-13.397a2.19 2.19 0 0 1 1.198-.324c.126.273.196.587.196.921Z" />
   <path fill="#83869B"
      d="M180.364 238.51v15.979c0 1.787.943 3.456 2.473 4.367l22.22 13.309c1.385.824 3.063.284 3.799-.952a2.727 2.727 0 0 1-1.797-.374l-22.221-13.299a5.1 5.1 0 0 1-2.482-4.377v-15.978c0-.333.068-.649.197-.923-1.149.031-2.189.963-2.189 2.248Z" />
   <path fill="url(#p)"
      d="M182.356 237.185v15.979c0 1.797.943 3.456 2.483 4.376l22.22 13.3a2.741 2.741 0 0 0 1.797.374c.245-.413.393-.894.393-1.423V255.5a6.427 6.427 0 0 0-3.13-5.516l-22.369-13.396a2.186 2.186 0 0 0-1.197-.324 2.195 2.195 0 0 0-.197.921Z" />
   <path fill="url(#q)"
      d="m261.276 252.315-2.913 1.729c-.368.218-.668.095-.668-.271 0-.368.3-.847.668-1.065l2.913-1.729c.368-.218.668-.095.668.271.001.368-.3.847-.668 1.065Z" />
   <path fill="#83869B"
      d="m266.601 249.155-2.913 1.729c-.368.218-.667.095-.667-.271 0-.368.299-.847.667-1.065l2.913-1.729c.368-.218.668-.095.668.271 0 .368-.3.847-.668 1.065Z" />
   <path fill="#FFF5FD"
      d="m271.926 245.993-2.912 1.728c-.368.218-.668.096-.668-.27 0-.368.3-.847.668-1.065l2.912-1.729c.368-.218.668-.095.668.271 0 .368-.3.846-.668 1.065Z" />
   <path fill="url(#r)"
      d="m261.276 257.116-2.913 1.728c-.368.219-.668.096-.668-.27 0-.368.3-.847.668-1.065l2.913-1.729c.368-.218.668-.095.668.271.001.368-.3.847-.668 1.065Z" />
   <path fill="#83869B"
      d="m266.601 253.952-2.913 1.728c-.368.218-.667.096-.667-.27 0-.368.299-.847.667-1.065l2.913-1.729c.368-.218.668-.095.668.271 0 .368-.3.846-.668 1.065Z" />
   <path fill="#FFF5FD"
      d="m271.926 250.793-2.912 1.729c-.368.218-.668.096-.668-.27 0-.368.3-.847.668-1.065l2.912-1.729c.368-.218.668-.096.668.27 0 .368-.3.847-.668 1.065Z" />
   <path fill="url(#s)"
      d="m261.276 261.918-2.913 1.729c-.368.218-.668.096-.668-.27 0-.368.3-.847.668-1.065l2.913-1.729c.368-.218.668-.096.668.27.001.368-.3.847-.668 1.065Z" />
   <path fill="#83869B"
      d="m266.601 258.758-2.913 1.729c-.368.218-.667.095-.667-.271 0-.368.299-.847.667-1.065l2.913-1.728c.368-.219.668-.096.668.27 0 .368-.3.847-.668 1.065Z" />
   <path fill="#FFF5FD"
      d="m271.925 255.596-2.912 1.729c-.368.218-.668.095-.668-.271 0-.368.3-.847.668-1.065l2.912-1.729c.368-.218.668-.095.668.271 0 .368-.3.847-.668 1.065Z" />
   <path fill="url(#t)" d="m190.015 248.521-2.703-1.623v-2.703l2.703 1.626v2.7Z" />
   <path fill="url(#u)" d="m194.516 251.228-2.703-1.623v-2.701l2.703 1.624v2.7Z" />
   <path fill="url(#v)" d="m199.018 253.935-2.703-1.623v-2.701l2.703 1.624v2.7Z" />
   <path fill="url(#w)" d="m203.519 256.641-2.703-1.624v-2.701l2.703 1.624v2.701Z" />
   <path fill="url(#x)" d="m190.015 252.252-2.703-1.624v-2.7l2.703 1.623v2.701Z" />
   <path fill="url(#y)" d="m194.516 254.959-2.703-1.626v-2.7l2.703 1.624v2.702Z" />
   <path fill="url(#z)" d="m199.018 257.668-2.703-1.624v-2.702l2.703 1.625v2.701Z" />
   <path fill="url(#A)" d="m203.519 260.373-2.703-1.624v-2.7l2.703 1.624v2.7Z" />
   <path fill="url(#B)" d="m190.015 255.988-2.703-1.624v-2.7l2.703 1.624v2.7Z" />
   <path fill="url(#C)" d="m194.516 258.693-2.703-1.623v-2.701l2.703 1.624v2.7Z" />
   <path fill="url(#D)" d="m199.018 261.402-2.703-1.623v-2.701l2.703 1.624v2.7Z" />
   <path fill="url(#E)" d="m203.519 264.109-2.703-1.625v-2.701l2.703 1.624v2.702Z" />
   <path fill="#C2C4C6"
      d="M297.039 175.86v.717a5.701 5.701 0 0 1-2.767 4.604l-20.801 12.476-31.295 18.726c-3.339 2.003-7.157 2.934-10.924 2.72-2.911-.119-5.82-.954-8.493-2.434l-35.827-20.133-17.46-9.803c-2.695-1.503-4.033-4.223-4.033-6.917v-.214c.072-2.553 1.336-5.057 3.842-6.56l51.761-31.034a13.702 13.702 0 0 1 13.693-.191l59.395 33.371a5.656 5.656 0 0 1 2.885 4.414.927.927 0 0 1 .024.258Z" />
   <path fill="url(#F)"
      d="M297.039 176.576v34.064a5.669 5.669 0 0 1-2.767 4.604l-52.096 31.225a19.112 19.112 0 0 1-10.924 2.695V215.1a19.146 19.146 0 0 0 10.924-2.72l31.295-18.725 20.801-12.476a5.696 5.696 0 0 0 2.767-4.603Z" />
   <path fill="url(#G)"
      d="M231.252 215.1v34.063a18.882 18.882 0 0 1-8.493-2.433l-53.289-29.936c-2.695-1.503-4.032-4.198-4.032-6.895v-34.087c0 2.695 1.335 5.415 4.032 6.918l17.46 9.803 35.827 20.133c2.673 1.48 5.584 2.315 8.495 2.434Z" />
   <path fill="#83869B"
      d="M279.497 199.122V215.1a5.09 5.09 0 0 1-2.472 4.367l-22.221 13.309c-1.384.824-3.062.285-3.798-.952a2.733 2.733 0 0 0 1.797-.373l22.22-13.3a5.102 5.102 0 0 0 2.483-4.377v-15.978c0-.333-.069-.648-.197-.923a2.248 2.248 0 0 1 2.188 2.249Z" />
   <path fill="url(#H)"
      d="M277.505 197.797v15.978a5.096 5.096 0 0 1-2.482 4.377l-22.22 13.299a2.736 2.736 0 0 1-1.797.374 2.76 2.76 0 0 1-.394-1.423v-14.291a6.425 6.425 0 0 1 3.131-5.515l22.368-13.397a2.18 2.18 0 0 1 1.198-.323c.126.272.196.588.196.921Z" />
   <path fill="#83869B"
      d="M180.364 198.462v15.978c0 1.787.943 3.456 2.473 4.367l22.22 13.309a2.774 2.774 0 0 0 3.799-.952 2.727 2.727 0 0 1-1.797-.374l-22.221-13.299a5.1 5.1 0 0 1-2.482-4.377v-15.978c0-.333.068-.649.197-.923-1.149.031-2.189.964-2.189 2.249Z" />
   <path fill="url(#I)"
      d="M182.356 197.136v15.979c0 1.797.943 3.456 2.483 4.377l22.22 13.299a2.735 2.735 0 0 0 1.797.374c.245-.413.393-.894.393-1.423v-14.291a6.424 6.424 0 0 0-3.13-5.515l-22.369-13.397a2.177 2.177 0 0 0-1.197-.323 2.19 2.19 0 0 0-.197.92Z" />
   <path fill="url(#J)"
      d="m261.276 212.264-2.913 1.729c-.368.218-.668.095-.668-.271 0-.368.3-.847.668-1.065l2.913-1.729c.368-.218.668-.095.668.271.001.368-.3.847-.668 1.065Z" />
   <path fill="#83869B"
      d="m266.601 209.104-2.913 1.729c-.368.218-.667.095-.667-.271 0-.368.299-.847.667-1.065l2.913-1.729c.368-.218.668-.095.668.271 0 .368-.3.847-.668 1.065Z" />
   <path fill="#FFF5FD"
      d="m271.926 205.942-2.912 1.729c-.368.218-.668.095-.668-.271 0-.368.3-.847.668-1.065l2.912-1.729c.368-.218.668-.095.668.271 0 .368-.3.847-.668 1.065Z" />
   <path fill="url(#K)"
      d="m261.276 217.065-2.913 1.729c-.368.218-.668.095-.668-.271 0-.368.3-.847.668-1.065l2.913-1.729c.368-.218.668-.095.668.271.001.368-.3.847-.668 1.065Z" />
   <path fill="#83869B"
      d="m266.601 213.903-2.913 1.729c-.368.218-.667.095-.667-.271 0-.368.299-.847.667-1.065l2.913-1.729c.368-.218.668-.095.668.271 0 .368-.3.847-.668 1.065Z" />
   <path fill="#FFF5FD"
      d="m271.925 210.743-2.912 1.728c-.368.218-.668.096-.668-.27 0-.368.3-.847.668-1.065l2.912-1.729c.368-.218.668-.095.668.271 0 .368-.3.846-.668 1.065Z" />
   <path fill="url(#L)"
      d="m261.276 221.868-2.913 1.728c-.368.218-.668.096-.668-.27 0-.368.3-.847.668-1.065l2.913-1.729c.368-.218.668-.095.668.271.001.368-.3.846-.668 1.065Z" />
   <path fill="#83869B"
      d="m266.601 218.707-2.913 1.729c-.368.218-.667.096-.667-.27 0-.368.299-.847.667-1.065l2.913-1.729c.368-.218.668-.096.668.27 0 .368-.3.847-.668 1.065Z" />
   <path fill="#FFF5FD"
      d="m271.925 215.545-2.912 1.729c-.368.218-.668.096-.668-.27 0-.368.3-.847.668-1.065l2.912-1.729c.368-.218.668-.096.668.27 0 .368-.3.847-.668 1.065Z" />
   <path fill="url(#M)" d="m190.015 208.473-2.703-1.624v-2.703l2.703 1.626v2.701Z" />
   <path fill="url(#N)" d="m194.516 211.18-2.703-1.624v-2.701l2.703 1.624v2.701Z" />
   <path fill="url(#O)" d="m199.018 213.887-2.703-1.624v-2.701l2.703 1.624v2.701Z" />
   <path fill="url(#P)" d="m203.519 216.592-2.703-1.624v-2.7l2.703 1.623v2.701Z" />
   <path fill="url(#Q)" d="m190.015 212.203-2.703-1.624v-2.7l2.703 1.624v2.7Z" />
   <path fill="url(#R)" d="m194.516 214.91-2.703-1.626v-2.7l2.703 1.624v2.702Z" />
   <path fill="url(#S)" d="m199.018 217.619-2.703-1.624v-2.7l2.703 1.624v2.7Z" />
   <path fill="url(#T)" d="m203.519 220.324-2.703-1.624V216l2.703 1.624v2.7Z" />
   <path fill="url(#U)" d="m190.015 215.939-2.703-1.623v-2.701l2.703 1.624v2.7Z" />
   <path fill="url(#V)" d="m194.516 218.644-2.703-1.623v-2.701l2.703 1.624v2.7Z" />
   <path fill="url(#W)" d="m199.018 221.353-2.703-1.623v-2.701l2.703 1.624v2.7Z" />
   <path fill="url(#X)" d="m203.519 224.06-2.703-1.623v-2.703l2.703 1.624v2.702Z" />
   <path fill="url(#Y)"
      d="M297.039 135.814v.716a5.704 5.704 0 0 1-2.767 4.605l-20.799 12.474-31.295 18.725a19.15 19.15 0 0 1-10.924 2.72c-2.911-.119-5.82-.954-8.493-2.434l-35.827-20.133-17.46-9.803c-2.695-1.503-4.033-4.223-4.033-6.917v-.214c.072-2.553 1.336-5.057 3.842-6.56l51.761-31.034a13.702 13.702 0 0 1 13.693-.19l59.395 33.37a5.656 5.656 0 0 1 2.885 4.414c.022.093.022.165.022.261Z" />
   <path fill="#83869B"
      d="m283.835 136.281-8.347 5.008-45.398-25.513a4.179 4.179 0 0 0-2.033-.526c-.752 0-1.489.203-2.112.571l-41.036 24.599-8.347-4.682 49.383-29.607a4.096 4.096 0 0 1 2.112-.576c.711 0 1.412.185 2.033.531l53.745 30.195Z" />
   <path fill="url(#Z)"
      d="m275.487 141.29-6.913 4.145-31.287 18.722a9.705 9.705 0 0 1-4.969 1.394c-.173 0-.347 0-.526-.012l-.152-.011c-1.411-.057-2.879-.481-4.246-1.239l-35.792-20.111-6.696-3.76 41.036-24.599a4.152 4.152 0 0 1 2.112-.571c.711 0 1.412.179 2.033.526l45.4 25.516Z" />
   <path fill="url(#aa)"
      d="M297.039 136.529v34.064a5.669 5.669 0 0 1-2.767 4.604l-52.096 31.225a19.112 19.112 0 0 1-10.924 2.695v-34.064a19.146 19.146 0 0 0 10.924-2.72l31.297-18.725 20.801-12.476a5.697 5.697 0 0 0 2.765-4.603Z" />
   <path fill="url(#ab)"
      d="M231.252 175.055v34.063a18.882 18.882 0 0 1-8.493-2.433l-53.289-29.936c-2.695-1.503-4.032-4.198-4.032-6.894v-34.087c0 2.694 1.335 5.414 4.032 6.917l17.46 9.803 35.827 20.133c2.673 1.478 5.584 2.313 8.495 2.434Z" />
   <path fill="#83869B"
      d="M279.497 159.075v15.978a5.09 5.09 0 0 1-2.472 4.367l-22.221 13.31c-1.384.823-3.062.284-3.798-.952a2.74 2.74 0 0 0 1.797-.374l22.22-13.3a5.1 5.1 0 0 0 2.483-4.376v-15.979c0-.333-.069-.648-.197-.923a2.248 2.248 0 0 1 2.188 2.249Z" />
   <path fill="url(#ac)"
      d="M277.505 157.75v15.978a5.096 5.096 0 0 1-2.482 4.377l-22.22 13.299a2.736 2.736 0 0 1-1.797.374 2.757 2.757 0 0 1-.394-1.423v-14.29a6.426 6.426 0 0 1 3.131-5.516l22.368-13.397a2.18 2.18 0 0 1 1.198-.323c.126.272.196.588.196.921Z" />
   <path fill="#83869B"
      d="M180.364 158.413v15.978c0 1.788.943 3.456 2.473 4.367l22.22 13.31a2.775 2.775 0 0 0 3.799-.953 2.732 2.732 0 0 1-1.797-.373l-22.221-13.3a5.1 5.1 0 0 1-2.482-4.377v-15.978c0-.333.068-.648.197-.923-1.149.031-2.189.964-2.189 2.249Z" />
   <path fill="url(#ad)"
      d="M182.356 157.09v15.978c0 1.797.943 3.456 2.483 4.377l22.22 13.299a2.735 2.735 0 0 0 1.797.374c.245-.413.393-.894.393-1.423v-14.291a6.424 6.424 0 0 0-3.13-5.515l-22.369-13.397a2.177 2.177 0 0 0-1.197-.323 2.192 2.192 0 0 0-.197.921Z" />
   <path fill="url(#ae)"
      d="m261.276 172.217-2.913 1.729c-.368.218-.668.095-.668-.271 0-.368.3-.847.668-1.065l2.913-1.728c.368-.219.668-.096.668.27.001.368-.3.847-.668 1.065Z" />
   <path fill="#83869B"
      d="m266.601 169.057-2.913 1.729c-.368.218-.667.095-.667-.271 0-.368.299-.847.667-1.065l2.913-1.729c.368-.218.668-.095.668.271 0 .368-.3.847-.668 1.065Z" />
   <path fill="#FFF5FD"
      d="m271.926 165.895-2.912 1.729c-.368.218-.668.095-.668-.271 0-.368.3-.847.668-1.065l2.912-1.729c.368-.218.668-.095.668.271 0 .368-.3.847-.668 1.065Z" />
   <path fill="url(#af)"
      d="m261.276 177.016-2.913 1.729c-.368.218-.668.095-.668-.271 0-.368.3-.847.668-1.065l2.913-1.729c.368-.218.668-.095.668.271.001.368-.3.847-.668 1.065Z" />
   <path fill="#83869B"
      d="m266.601 173.856-2.913 1.729c-.368.218-.667.095-.667-.271 0-.368.299-.847.667-1.065l2.913-1.729c.368-.218.668-.095.668.271 0 .368-.3.847-.668 1.065Z" />
   <path fill="#FFF5FD"
      d="m271.925 170.694-2.912 1.729c-.368.218-.668.095-.668-.271 0-.368.3-.847.668-1.065l2.912-1.729c.368-.218.668-.095.668.271 0 .368-.3.847-.668 1.065Z" />
   <path fill="url(#ag)"
      d="m261.276 181.819-2.913 1.729c-.368.218-.668.095-.668-.271 0-.368.3-.847.668-1.065l2.913-1.729c.368-.218.668-.095.668.271.001.368-.3.847-.668 1.065Z" />
   <path fill="#83869B"
      d="m266.601 178.659-2.913 1.728c-.368.218-.667.096-.667-.27 0-.368.299-.847.667-1.065l2.913-1.729c.368-.218.668-.095.668.271 0 .368-.3.846-.668 1.065Z" />
   <path fill="#FFF5FD"
      d="m271.925 175.496-2.912 1.729c-.368.218-.668.096-.668-.27 0-.368.3-.847.668-1.065l2.912-1.729c.368-.218.668-.096.668.27 0 .368-.3.847-.668 1.065Z" />
   <path fill="url(#ah)" d="m190.015 168.424-2.703-1.624v-2.7l2.703 1.623v2.701Z" />
   <path fill="url(#ai)" d="m194.516 171.129-2.703-1.624v-2.7l2.703 1.623v2.701Z" />
   <path fill="url(#aj)" d="m199.018 173.838-2.703-1.624v-2.7l2.703 1.623v2.701Z" />
   <path fill="url(#ak)" d="m203.519 176.545-2.703-1.626v-2.7l2.703 1.623v2.703Z" />
   <path fill="url(#al)" d="m190.015 172.158-2.703-1.626v-2.7l2.703 1.624v2.702Z" />
   <path fill="url(#am)" d="m194.516 174.863-2.703-1.624v-2.702l2.703 1.626v2.7Z" />
   <path fill="url(#an)" d="m199.018 177.572-2.703-1.624v-2.7l2.703 1.624v2.7Z" />
   <path fill="url(#ao)" d="m203.519 180.277-2.703-1.623v-2.701l2.703 1.624v2.7Z" />
   <path fill="url(#ap)" d="m190.015 175.891-2.703-1.624v-2.701l2.703 1.624v2.701Z" />
   <path fill="url(#aq)" d="m194.516 178.596-2.703-1.624v-2.701l2.703 1.624v2.701Z" />
   <path fill="url(#ar)" d="m199.018 181.307-2.703-1.626v-2.701l2.703 1.624v2.703Z" />
   <path fill="url(#as)" d="m203.519 184.012-2.703-1.624v-2.702l2.703 1.625v2.701Z" />
   <path fill="#83869B"
      d="m271.551 400.067-49.184-29.347a11.394 11.394 0 0 0-11.559-.068l-101.227 58.815c-3.565 2.072-3.594 7.208-.054 9.32l49.162 29.335a9.076 9.076 0 0 0 9.213.052l103.602-60.195c3.025-1.758 3.051-6.119.047-7.912Z" />
   <path fill="url(#at)"
      d="m271.551 397.945-49.184-29.346a11.394 11.394 0 0 0-11.559-.068l-101.227 58.815c-3.565 2.072-3.594 7.208-.054 9.32l49.162 29.335a9.081 9.081 0 0 0 9.213.054l103.602-60.195c3.025-1.76 3.051-6.121.047-7.915Z" />
   <path fill="#fff"
      d="M163.342 464.48a6.268 6.268 0 0 1-3.216-.886l-49.162-29.334c-1.155-.689-1.274-1.805-1.272-2.253.004-.448.135-1.561 1.297-2.237l101.225-58.815a8.59 8.59 0 0 1 8.715.051l49.183 29.346c.793.473.874 1.238.872 1.546a1.756 1.756 0 0 1-.889 1.536l-103.603 60.195a6.255 6.255 0 0 1-3.15.851Z" />
   <path fill="url(#au)"
      d="m231.329 382.524-1.682-.049-13.711-8.181a3.406 3.406 0 0 0-3.459-.02l-12.476 7.344-1.655-.048v1.853a1.554 1.554 0 0 0 0 .193v.035l.002.002a1.6 1.6 0 0 0 .78 1.258l14.717 8.78a2.717 2.717 0 0 0 2.757.016l14.041-8.261c.553-.321.769-.935.651-1.486l.033-.019v-1.417h.002Z" />
   <path fill="url(#av)"
      d="m230.659 380.998-14.723-8.784a3.408 3.408 0 0 0-3.46-.02l-13.33 7.847a1.618 1.618 0 0 0-.016 2.79l14.717 8.78a2.717 2.717 0 0 0 2.757.016l14.041-8.261a1.374 1.374 0 0 0 .014-2.368Z" />
   <path fill="url(#aw)"
      d="m259.451 399.535-1.682-.048-13.711-8.181a3.406 3.406 0 0 0-3.459-.02l-12.476 7.344-1.655-.049v1.854a1.554 1.554 0 0 0 0 .193v.035h.002c.039.492.298.969.78 1.257l14.717 8.781a2.717 2.717 0 0 0 2.757.016l14.041-8.261c.553-.322.77-.935.651-1.486l.033-.019v-1.416h.002Z" />
   <path fill="url(#ax)"
      d="m258.78 398.01-14.723-8.784a3.408 3.408 0 0 0-3.46-.02l-13.33 7.846a1.618 1.618 0 0 0-.016 2.79l14.717 8.781a2.714 2.714 0 0 0 2.757.015l14.041-8.26c.908-.526.913-1.83.014-2.368Z" />
   <path fill="url(#ay)"
      d="m180.142 413.674-1.682-.049-13.71-8.181a3.41 3.41 0 0 0-3.46-.019l-12.476 7.344-1.655-.049v1.853a1.554 1.554 0 0 0 0 .193v.035h.002c.039.493.298.97.781 1.258l14.717 8.781a2.714 2.714 0 0 0 2.757.015l14.041-8.261a1.37 1.37 0 0 0 .65-1.485l.033-.02v-1.415h.002Z" />
   <path fill="url(#az)"
      d="m179.472 412.149-14.722-8.785a3.41 3.41 0 0 0-3.46-.019l-13.331 7.846a1.618 1.618 0 0 0-.015 2.79l14.716 8.781a2.714 2.714 0 0 0 2.757.015l14.042-8.261a1.373 1.373 0 0 0 .013-2.367Z" />
   <path fill="url(#aA)"
      d="m208.264 430.686-1.682-.049-13.71-8.181a3.408 3.408 0 0 0-3.46-.019l-12.476 7.343-1.655-.048v1.853a1.554 1.554 0 0 0 0 .193v.035l.002.002c.039.493.298.97.781 1.258l14.717 8.78a2.714 2.714 0 0 0 2.757.016l14.041-8.261a1.37 1.37 0 0 0 .65-1.485l.033-.02v-1.417h.002Z" />
   <path fill="url(#aB)"
      d="m207.594 429.161-14.722-8.785a3.406 3.406 0 0 0-3.46-.019l-13.331 7.846a1.618 1.618 0 0 0-.015 2.79l14.717 8.78a2.715 2.715 0 0 0 2.756.016l14.042-8.261c.905-.526.913-1.83.013-2.367Z" />
   <path fill="url(#aC)"
      d="m154.29 429.676-1.682-.049-13.711-8.181a3.409 3.409 0 0 0-3.459-.019l-12.476 7.344-1.655-.049v1.853a1.554 1.554 0 0 0 0 .193v.035h.002c.039.493.297.97.78 1.258l14.717 8.781a2.714 2.714 0 0 0 2.757.015l14.041-8.261c.553-.321.769-.934.651-1.485l.033-.02v-1.415h.002Z" />
   <path fill="url(#aD)"
      d="m153.619 428.151-14.723-8.785a3.41 3.41 0 0 0-3.46-.019l-13.33 7.846a1.618 1.618 0 0 0-.016 2.79l14.717 8.781a2.714 2.714 0 0 0 2.757.015l14.041-8.261a1.372 1.372 0 0 0 .014-2.367Z" />
   <path fill="url(#aE)"
      d="m182.412 446.688-1.682-.049-13.711-8.181a3.404 3.404 0 0 0-3.459-.019l-12.476 7.343-1.655-.048v1.853a1.554 1.554 0 0 0 0 .193v.035l.002.002c.039.492.298.97.78 1.258l14.717 8.78a2.714 2.714 0 0 0 2.757.016l14.041-8.261c.553-.321.769-.934.651-1.485l.033-.02v-1.417h.002Z" />
   <path fill="url(#aF)"
      d="m181.742 445.163-14.723-8.785a3.408 3.408 0 0 0-3.46-.02l-13.33 7.847a1.618 1.618 0 0 0-.016 2.79l14.717 8.78a2.717 2.717 0 0 0 2.757.016l14.041-8.261c.905-.526.913-1.83.014-2.367Z" />
   <path fill="url(#aG)"
      d="m229.758 415.687-40.462-23.58c-.558-.325-.786-2.184-.196-2.449l1.551.462a1.611 1.611 0 0 1 1.476.078l40.892 22.701c.407.237.15 1.83-.279 2.023l-1.834.825c-.37.168-.798.146-1.148-.06Z" />
   <path fill="url(#aH)"
      d="m229.757 414.453-40.461-23.579a.794.794 0 0 1 .074-1.411l1.283-.579a1.614 1.614 0 0 1 1.476.078l40.666 23.698a.577.577 0 0 1-.055 1.026l-1.834.826c-.37.167-.798.146-1.149-.059Z" />
   <path fill="url(#aI)"
      d="m222.443 419.948-40.461-23.579c-.559-.325-.787-2.184-.197-2.449l1.552.461a1.614 1.614 0 0 1 1.476.078l40.891 22.701c.407.238.15 1.831-.278 2.023l-1.834.826c-.37.167-.798.144-1.149-.061Z" />
   <path fill="url(#aJ)"
      d="m222.443 418.711-40.461-23.579a.795.795 0 0 1 .074-1.412l1.283-.578a1.614 1.614 0 0 1 1.476.078l40.665 23.698a.578.578 0 0 1-.054 1.026l-1.834.826c-.37.169-.799.146-1.149-.059Z" />
   <path fill="url(#aK)"
      d="m215.13 424.21-40.462-23.579c-.558-.325-.786-2.185-.196-2.449l1.551.461a1.614 1.614 0 0 1 1.476.078l40.892 22.701c.407.238.15 1.83-.279 2.023l-1.834.826c-.37.165-.798.144-1.148-.061Z" />
   <path fill="url(#aL)"
      d="m215.13 422.973-40.462-23.579a.795.795 0 0 1 .074-1.412l1.283-.578a1.614 1.614 0 0 1 1.476.078l40.666 23.698a.577.577 0 0 1-.055 1.026l-1.834.825c-.37.17-.798.146-1.148-.058Z" />
   <path fill="url(#aM)"
      d="m308.595 142.39 5.778 137.424a11.59 11.59 0 0 0 5.753 10.023l29.129 20.659 26.174 18.57c4.441 2.59 14.485-5.007 14.485-10.155V183.918c0-2.103-.605-4.125-1.699-5.839a10.84 10.84 0 0 0-3.703-3.559l-63.803-37.194c-2.808-1.639-12.114 1.807-12.114 5.064Z" />
   <path fill="url(#aN)"
      d="M349.255 199.023v111.474l26.174 18.57c4.441 2.589 14.486-5.008 14.486-10.155V183.919a10.85 10.85 0 0 0-1.7-5.839l-38.96 20.943Z" />
   <path fill="url(#aO)"
      d="m373.582 328.15-59.763-34.835a11.596 11.596 0 0 1-5.757-10.02v-138.85c0-3.251 3.525-5.278 6.335-3.641l63.805 37.192a10.876 10.876 0 0 1 5.401 9.398v134.999c0 5.142-5.578 8.348-10.021 5.757Z" />
   <path fill="#fff"
      d="M376.927 325.332c1.413 0 2.94-1.124 2.94-2.938V187.395a7.17 7.17 0 0 0-3.546-6.172l-63.807-37.19a.452.452 0 0 0-.233-.072c-.098 0-.485.086-.485.485v138.849a7.89 7.89 0 0 0 3.903 6.793l59.764 34.835c.465.272.958.409 1.464.409Z" />
   <path fill="url(#aP)" d="m317.36 152.422 56.057 32.866v12.015l-56.057-32.867v-12.014Z" />
   <path fill="#D1D1D1"
      d="m371.545 215.091-22.417-13.212c-.459-.271-.837-.87-.837-1.33 0-.459.376-.615.837-.342l22.417 13.212c.46.27.837.87.837 1.329 0 .46-.375.616-.837.343ZM371.545 220.366l-22.417-13.212c-.459-.27-.837-.87-.837-1.329 0-.46.376-.616.837-.343l22.417 13.212c.46.271.837.87.837 1.33 0 .459-.375.613-.837.342ZM371.545 225.64l-22.417-13.212c-.459-.271-.837-.87-.837-1.33 0-.459.376-.615.837-.342l22.417 13.211c.46.271.837.871.837 1.33 0 .46-.375.613-.837.343ZM371.545 230.915l-22.417-13.212c-.459-.27-.837-.87-.837-1.329 0-.46.376-.616.837-.343l22.417 13.212c.46.27.837.87.837 1.33 0 .459-.375.613-.837.342ZM371.545 236.189l-22.417-13.212c-.459-.271-.837-.871-.837-1.33 0-.459.376-.615.837-.343l22.417 13.212c.46.271.837.871.837 1.33 0 .459-.375.613-.837.343Z" />
   <path fill="url(#aQ)" d="m317.359 241.021 22.193 13.012v23.902l-22.193-13.013v-23.901Z" />
   <path fill="#D1D1D1"
      d="m349.241 258.615 22.193 13.012v23.902l-22.193-13.011v-23.903ZM338.716 284.831l-22.417-13.212c-.459-.27-.837-.87-.837-1.329 0-.46.376-.616.837-.343l22.417 13.212c.46.27.837.87.837 1.33 0 .459-.377.613-.837.342ZM338.716 290.105l-22.417-13.212c-.459-.271-.837-.871-.837-1.33 0-.459.376-.615.837-.343l22.417 13.212c.46.271.837.871.837 1.33 0 .458-.377.613-.837.343ZM338.716 295.376l-22.417-13.212c-.459-.27-.837-.87-.837-1.33 0-.459.376-.615.837-.342l22.417 13.212c.46.27.837.87.837 1.33 0 .459-.377.615-.837.342ZM371.545 304.177l-22.417-13.212c-.459-.271-.837-.87-.837-1.33 0-.459.376-.615.837-.342l22.417 13.212c.46.27.837.87.837 1.329 0 .46-.375.614-.837.343ZM371.545 309.452l-22.417-13.212c-.459-.27-.837-.87-.837-1.329 0-.46.376-.616.837-.343l22.417 13.212c.46.271.837.87.837 1.33 0 .459-.375.613-.837.342ZM371.545 314.726l-22.417-13.212c-.459-.271-.837-.87-.837-1.33 0-.459.376-.615.837-.343l22.417 13.212c.46.271.837.871.837 1.33 0 .46-.375.613-.837.343ZM371.964 249.785l-45.387-27.195c-.459-.271-.837-.87-.837-1.33 0-.459.376-.615.837-.342l45.387 27.194c.46.271.838.871.838 1.33 0 .46-.376.615-.838.343ZM371.964 255.058l-52.849-31.566c-.46-.27-.838-.87-.838-1.329 0-.46.376-.616.838-.343l52.849 31.566c.46.27.837.87.837 1.329 0 .46-.376.614-.837.343ZM371.964 260.333l-52.849-31.565c-.46-.271-.838-.871-.838-1.33 0-.459.376-.615.838-.343l52.849 31.566c.46.271.837.87.837 1.33 0 .459-.376.613-.837.342ZM341.532 247.253l-22.417-13.212c-.46-.27-.838-.87-.838-1.33 0-.459.376-.615.838-.342l22.417 13.212c.459.27.837.87.837 1.329 0 .46-.378.614-.837.343Z" />
   <path fill="#BABECC" d="m77.246 349.107 34.825-20.283v2.94l-34.825 20.281v-2.938Z" />
   <path fill="#3D415B" d="m77.246 349.186-20.805-12.733v2.938l20.805 12.733v-2.938Z" />
   <path fill="#D0D5E2" d="m77.246 349.184 34.825-20.361-20.805-12.714-34.825 20.359 20.805 12.716Z" />
   <path fill="#BABECC" d="m63.67 323.659 26.936-15.688v13.268L63.67 336.927v-13.268Z" />
   <path fill="#3D415B" d="m63.67 323.718-3.611-2.103v13.269l3.611 2.104v-13.27Z" />
   <path fill="url(#aR)"
      d="M127.853 155.385a3.492 3.492 0 0 0-1.148.421L4.017 227.262a8.068 8.068 0 0 0-3.604 4.449A7.997 7.997 0 0 0 0 234.252v112.762c0 3.452 7.805 8.812 10.794 7.072l117.602-74.064a7.06 7.06 0 0 0 3.503-6.096v-87.049l5.165-27.255c-.004-2.401-5.527-5.093-9.211-4.237Z" />
   <path fill="url(#aS)"
      d="M132.378 158.449 9.692 229.902a8.095 8.095 0 0 0-4.022 6.995v112.757c0 3.454 3.744 5.605 6.729 3.869l121.671-70.861a7.044 7.044 0 0 0 3.499-6.086V161.434c0-2.665-2.889-4.326-5.191-2.985Z" />
   <path fill="#CECECE" d="M134.194 276.111 9.044 349.047V237.764l125.15-72.936v111.283Z" />
   <path fill="url(#aT)" d="M134.194 164.83 9.044 237.766v14.883l125.15-72.938V164.83Z" />
   <path fill="#fff"
      d="M54.927 231.037 12.25 256.308v87.369l42.677-25.271v-87.369ZM131.852 186.85l-73.355 42.9v38.922l73.355-42.901V186.85ZM131.852 232.639l-73.355 42.9v38.922l73.355-42.901v-38.921Z" />
   <path fill="#DADBE0" d="m17.49 284.606 31.1-17.892V242.42l-31.1 17.892v24.294Z" />
   <path fill="#fff" d="M46.697 265.286v-19.263l-27.315 15.716V281l27.315-15.714Z" />
   <path fill="url(#aU)"
      d="m46.697 260.524-5.862-3.594-6.403 10.486-7.555-6.768-7.495 13.607V281l27.315-15.714v-4.762Z" />
   <path fill="#DADBE0" d="m104.607 231.591 24.691-14.207v-19.288l-24.691 14.206v19.289Z" />
   <path fill="#fff" d="M127.795 216.25v-15.291l-21.685 12.476v15.291l21.685-12.476Z" />
   <path fill="#CECECE"
      d="m127.795 212.471-4.653-2.854-5.083 8.323-5.999-5.369-5.95 10.801v5.354l21.685-12.476v-3.779Z" />
   <path fill="#DADBE0" d="m104.607 277.731 24.691-14.206v-19.289l-24.691 14.207v19.288Z" />
   <path fill="#fff" d="M127.795 262.391V247.1l-21.685 12.476v15.291l21.685-12.476Z" />
   <path fill="#2D2F4F"
      d="m127.795 258.612-4.653-2.854-5.083 8.323-5.999-5.37-5.95 10.802v5.354l21.685-12.476v-3.779Z" />
   <path fill="#CECECE"
      d="m49.688 276.837-24.313 13.319c-.49.269-.888.09-.888-.401v-.179c0-.49.398-1.104.888-1.372l24.313-13.319c.491-.269.888-.09.888.401v.179c0 .488-.397 1.104-.888 1.372ZM49.598 281.678l-29.644 16.239c-.54.296-.976.098-.976-.442 0-.539.437-1.215.976-1.51l29.644-16.24c.54-.296.975-.097.975.442.002.539-.436 1.217-.975 1.511ZM49.598 286.471 19.954 302.71c-.54.296-.976.098-.976-.442 0-.539.437-1.215.976-1.51l29.644-16.24c.54-.296.975-.097.975.442.002.539-.436 1.215-.975 1.511ZM43.142 294.8l-23.295 12.76c-.48.263-.869.087-.869-.394v-.214c0-.479.39-1.082.869-1.345l23.295-12.76c.48-.263.868-.088.868.393v.214c0 .481-.387 1.083-.868 1.346ZM97.973 219.907l-24.314 14.616c-.49.294-.888.136-.888-.354v-.18c0-.49.398-1.125.888-1.421l24.314-14.615c.49-.294.887-.137.887.354v.179c0 .491-.397 1.127-.887 1.421ZM97.882 224.752 68.238 242.57c-.54.324-.975.15-.975-.389s.436-1.238.975-1.563l29.644-17.819c.54-.323.976-.15.976.39.001.539-.437 1.238-.976 1.563ZM97.882 229.547l-29.644 17.818c-.54.324-.975.15-.975-.389s.436-1.238.975-1.563l29.644-17.819c.54-.323.976-.15.976.39.001.539-.437 1.238-.976 1.563ZM91.426 238.219l-23.295 14.002c-.479.288-.868.132-.868-.347v-.214c0-.479.39-1.102.868-1.392l23.295-14.002c.481-.288.868-.133.868.346v.215c0 .48-.387 1.103-.868 1.392ZM97.973 263.519l-24.314 14.615c-.49.294-.888.137-.888-.354v-.179c0-.491.398-1.126.888-1.421l24.314-14.616c.49-.294.887-.136.887.354v.179c0 .491-.397 1.128-.887 1.422ZM97.882 268.363l-29.644 17.819c-.54.323-.975.15-.975-.39 0-.539.436-1.238.975-1.563l29.644-17.818c.54-.324.976-.15.976.389.001.539-.437 1.238-.976 1.563ZM97.882 273.158l-29.644 17.819c-.54.323-.975.15-.975-.39 0-.539.436-1.238.975-1.563l29.644-17.818c.54-.324.976-.15.976.389.001.539-.437 1.238-.976 1.563ZM91.426 281.83l-23.295 14.002c-.479.288-.868.133-.868-.346v-.214c0-.479.39-1.102.868-1.393l23.295-14.002c.481-.288.868-.132.868.347v.214c0 .481-.387 1.104-.868 1.392ZM49.688 300.38l-24.314 13.319c-.49.269-.888.09-.888-.401v-.179c0-.49.398-1.104.888-1.372l24.314-13.319c.49-.269.887-.09.887.401v.179c0 .488-.397 1.104-.888 1.372ZM49.598 305.223l-29.644 16.239c-.54.296-.976.098-.976-.442 0-.539.437-1.215.976-1.511l29.644-16.239c.54-.296.975-.097.975.442.002.539-.436 1.215-.975 1.511ZM49.598 310.014l-29.644 16.239c-.54.296-.976.098-.976-.442 0-.539.437-1.215.976-1.511l29.644-16.239c.54-.296.975-.097.975.442.002.539-.436 1.217-.975 1.511ZM43.142 318.344l-23.295 12.761c-.48.262-.869.087-.869-.394v-.214c0-.479.39-1.082.869-1.345l23.295-12.76c.48-.263.868-.088.868.393v.214c0 .479-.387 1.083-.868 1.345Z" />
   <mask id="aW" width="50" height="22" x="275" y="330" maskUnits="userSpaceOnUse" style="mask-type:alpha">
      <path fill="url(#aV)"
         d="M300.126 351.937c13.388 0 24.241-4.84 24.241-10.811s-10.853-10.812-24.241-10.812-24.241 4.841-24.241 10.812c0 5.971 10.853 10.811 24.241 10.811Z" />
   </mask>
   <g mask="url(#aW)">
      <path fill="url(#aX)"
         d="M300.126 351.937c13.388 0 24.241-4.84 24.241-10.811s-10.853-10.812-24.241-10.812-24.241 4.841-24.241 10.812c0 5.971 10.853 10.811 24.241 10.811Z"
         opacity=".23" />
      <path fill="#1B1D33"
         d="M300.09 339.524s-.995 3.594-.438 4.211c.557.617 3.399 2.288 5.13 1.916 1.731-.37 4.758-4.351 7.973-5.545 3.214-1.191 3.584-3.479 1.236-4.406-2.348-.927-6.659.808-6.659.808l-7.242 3.016Z" />
      <path fill="#2D2F4F"
         d="M296.862 282.203s-2.667 6.986 0 10.492c2.668 3.507 4.936 15.986 4.936 15.986s-3.476 9.04-3.061 15.876c.415 6.835.635 14.222.635 14.222s.551 1.433 3.528 1.324c2.977-.109 4.409-2.535 4.409-2.535s.331-21.718 3.088-27.672c2.757-5.953.878-23.166.878-23.166s-8.103 1.849-14.413-4.527Z" />
      <path fill="#1B1D33"
         d="M291.162 324.894s1.509-2.57 2.847-2.57c1.337 0 4.647 1.974 4.201 6.112-.446 4.137-2.122 10.527-2.122 10.527l-4.926-14.069Z" />
      <path fill="#4B4F6D"
         d="M293.538 324.362c-3.874-.44-3.477 3.248-3.159 6.684.317 3.438-.773 9.359 1.491 10.058 2.264.701 5.031-1.019 4.698-5.604-.331-4.581.894-10.694-3.03-11.138Z" />
   </g>
   <path fill="#686B71" d="m361.01 304.085 10.358-6.02 1.931-5.977-10.358 6.02-1.931 5.977Z" />
   <path fill="#E0E0E0" d="m340.146 258.629 10.358-6.02-6.168-1.359-10.357 6.018 6.167 1.361Z" />
   <path fill="#6C6F76"
      d="M349.083 271.969a19.198 19.198 0 0 1-.054-.358c-.008-.056-.018-.113-.025-.169l-.004-.045a12.39 12.39 0 0 1-.074-.761l-.01-.16a12.508 12.508 0 0 1-.025-.771c.007-2.798.995-4.764 2.587-5.691l10.358-6.02c-1.593.925-2.58 2.893-2.588 5.691 0 .255.01.512.026.771.004.053.005.107.009.16.018.251.043.506.074.761l.03.212c.017.119.033.238.054.358.014.08.027.162.043.242l.066.348.059.277.052.233c.023.102.051.203.076.304.02.076.039.154.06.23l.053.183a18.592 18.592 0 0 0 .588 1.748c.082.209.165.417.255.623.014.031.025.063.039.096a24.288 24.288 0 0 0 .399.86c.088.179.177.356.271.534l.085.163c.119.222.242.442.368.66l.074.125c.111.189.226.376.343.562l.103.164c.146.226.294.45.448.67l.072.099a20.624 20.624 0 0 0 1.211 1.552l.088.101c.138.158.276.311.418.463l.022.024c.148.157.299.311.451.463.098.095.195.191.294.284l.082.078a14.395 14.395 0 0 0 .94.812c.088.07.174.138.261.205a14.246 14.246 0 0 0 .421.307l.157.111c.096.064.191.129.287.191.044.029.089.06.136.088a10.345 10.345 0 0 0 .989.56l.16.078c.142.068.282.133.422.193l.148.064c.133.055.263.103.393.15.032.012.065.025.096.035.161.055.321.103.479.148.093.025.185.047.276.068.043.01.086.022.129.031.134.03.268.055.401.074l.017.002c.121.018.24.031.357.043.04.004.079.006.118.008a6.261 6.261 0 0 0 .73.008l.086-.008c.136-.01.271-.025.401-.047l.123-.019c.15-.028.3-.061.444-.102l.019-.005a4.427 4.427 0 0 0 .841-.351c.035-.019.072-.035.107-.056l-10.357 6.02-.049.027c-.019.01-.039.017-.058.029a4.299 4.299 0 0 1-.327.16c-.022.009-.041.021-.061.029-.017.008-.035.012-.052.019a4.427 4.427 0 0 1-.401.143l-.016.005h-.004a4.786 4.786 0 0 1-.444.102c-.017.004-.035.009-.052.011-.024.004-.049.004-.07.008a4.412 4.412 0 0 1-.402.047l-.064.008h-.023a5.858 5.858 0 0 1-.514.003c-.018 0-.033.002-.051 0-.054-.001-.111-.007-.165-.011l-.119-.008a7.659 7.659 0 0 1-.356-.043l-.018-.002h-.002a5.8 5.8 0 0 1-.399-.074c-.043-.009-.088-.021-.132-.031-.084-.019-.166-.037-.25-.06-.007-.002-.015-.006-.025-.008a7.455 7.455 0 0 1-.479-.148l-.097-.037a7.47 7.47 0 0 1-.391-.15c-.018-.008-.036-.012-.053-.019-.031-.014-.064-.032-.097-.045a12.105 12.105 0 0 1-.423-.193c-.052-.025-.107-.051-.16-.078a10.706 10.706 0 0 1-.989-.56l-.136-.09a13.99 13.99 0 0 1-.284-.189l-.158-.111a15.688 15.688 0 0 1-.261-.189l-.159-.12a12.334 12.334 0 0 1-.261-.205c-.049-.039-.099-.078-.148-.119a9.61 9.61 0 0 1-.294-.247 13.073 13.073 0 0 1-.497-.444l-.083-.08a9.671 9.671 0 0 1-.253-.243l-.037-.037a18.161 18.161 0 0 1-.894-.952l-.039-.043c-.016-.019-.031-.039-.049-.058a17.944 17.944 0 0 1-.716-.884c-.17-.22-.333-.442-.495-.67-.015-.023-.033-.045-.048-.066-.008-.01-.014-.022-.022-.033-.154-.22-.304-.444-.45-.67l-.042-.064c-.022-.033-.039-.066-.061-.1a16.462 16.462 0 0 1-.342-.562l-.055-.09c-.006-.011-.014-.023-.019-.035-.127-.218-.25-.438-.368-.658l-.03-.052-.056-.111a24.34 24.34 0 0 1-.271-.534c-.017-.037-.039-.074-.056-.109-.01-.021-.02-.045-.031-.066a26.05 26.05 0 0 1-.312-.682l-.009-.021c-.01-.025-.02-.051-.032-.074a20.711 20.711 0 0 1-.253-.621c-.013-.033-.029-.068-.041-.101-.011-.027-.019-.057-.031-.086a19.173 19.173 0 0 1-.27-.751c-.004-.014-.008-.03-.014-.043a18.592 18.592 0 0 1-.263-.861l-.023-.089c-.022-.076-.041-.152-.061-.228-.025-.101-.052-.203-.075-.306a61.625 61.625 0 0 1-.053-.231l-.037-.162-.021-.115c-.024-.115-.045-.232-.067-.347-.011-.087-.025-.167-.039-.247ZM374.81 304.272l10.357-6.02c.331-.193.641-.421.927-.686l-10.358 6.02a5.246 5.246 0 0 1-.926.686Z" />
   <path fill="#898D95"
      d="m341.851 244.891 10.358-6.02a5.575 5.575 0 0 0-.536.191l-10.358 6.02c.176-.074.353-.136.536-.191Z" />
   <path fill="#858891"
      d="m341.318 245.08 10.357-6.019c-.187.077-.37.167-.545.266l-10.358 6.02c.176-.099.357-.189.546-.267Z" />
   <path fill="#81848C" d="m340.77 245.35 10.358-6.02-.06.035-10.358 6.02a.657.657 0 0 1 .06-.035Z" />
   <path fill="#686B71" d="m375.737 303.583 10.358-6.02 1.153-1.061-10.358 6.02-1.153 1.061Z" />
   <path fill="#8E919A" d="m343.351 244.438 10.359-6.02-1.501.454-10.359 6.02 1.501-.454Z" />
   <path fill="#E0E0E0"
      d="m376.889 302.527 10.358-6.02-2.987-8.292-10.358 6.02 2.987 8.292ZM349.051 251.186l10.358-6.02-5.699-6.748-10.359 6.02 5.7 6.748Z" />
   <path fill="#6C6F76"
      d="m373.902 294.232 10.358-6.02c.606-.928 1.1-1.999 1.47-3.208l-10.358 6.02c-.37 1.209-.864 2.28-1.47 3.208Z" />
   <path fill="#9699A3"
      d="M351.589 251.347a15.452 15.452 0 0 0-.771-.105c-.02-.002-.037-.006-.057-.007a12.368 12.368 0 0 0-.804-.053l-.146-.004a10.69 10.69 0 0 0-.761.006l10.357-6.02c.25-.012.505-.012.762-.006l.146.004c.039.002.078 0 .119.002.225.01.455.027.685.049l.056.007c.207.022.415.047.625.078l.148.026.172.029c.27.048.543.101.817.165l-10.357 6.02a14.277 14.277 0 0 0-.818-.165c-.059-.004-.117-.016-.173-.026Z" />
   <path fill="#7D8088"
      d="M375.053 277.556a38.567 38.567 0 0 0-.224-.806l-.099-.341a38.75 38.75 0 0 0-.315-1.005c-.012-.033-.022-.068-.033-.101a42.053 42.053 0 0 0-.423-1.205l10.358-6.02c.146.393.284.789.416 1.184l.006.021c.012.033.02.065.031.098a41.92 41.92 0 0 1 .417 1.347c.039.132.078.263.115.395.039.138.072.277.109.415l.087.329c.094.368.184.736.265 1.102l-10.357 6.02a41.87 41.87 0 0 0-.265-1.102c-.027-.111-.059-.222-.088-.331Z" />
   <path fill="#A6AAB5"
      d="M365.273 259.821c-.109-.118-.218-.241-.329-.358a40.653 40.653 0 0 0-.792-.814c-.057-.056-.109-.113-.166-.169-.307-.304-.617-.6-.93-.888l10.357-6.02c.314.288.625.586.931.888.006.006.012.01.016.016.05.05.099.103.15.153.266.267.531.538.792.814.111.117.218.238.327.357.202.221.405.443.606.669.04.047.081.09.122.135.195.224.386.449.576.677l-10.357 6.02c-.23-.276-.464-.545-.699-.814a64.64 64.64 0 0 0-.604-.666Z" />
   <path fill="#E0E0E0" d="m381.561 284.738 10.358-6.018-6.154-5.755-10.36 6.02 6.156 5.753Z" />
   <path fill="#767880"
      d="M381.796 290.381c.132-1.036.136-2.161.01-3.349l-.244-2.291 10.358-6.02.243 2.291a14.444 14.444 0 0 1-.009 3.349l-.255 2.005-10.358 6.02.255-2.005Z" />
   <path fill="#E0E0E0"
      d="m364.868 239.549 1.87.794c.484.205.971.45 1.458.73.486.281.973.6 1.456.952l1.871 1.365-10.358 6.02-1.871-1.365a15.81 15.81 0 0 0-1.456-.952c-.487-.28-.973-.525-1.458-.73l-1.869-.794 10.357-6.02Z" />
   <path fill="#7F828A" d="m363.056 257.594 10.357-6.02-1.89-8.183-10.358 6.02 1.891 8.183Z" />
   <path fill="#686B71" d="m373.959 274.094 10.36-6.018 3.021-4.826-10.357 6.02-3.024 4.824Z" />
   <path fill="#9EA1AB" d="m372.291 261.149 10.358-6.02-5.718.158-10.358 6.02 5.718-.158Z" />
   <path fill="#E0E0E0"
      d="M375.136 265.529c-.095-.171-.186-.342-.286-.512-.074-.126-.152-.249-.226-.375-.107-.176-.212-.353-.321-.526a22.988 22.988 0 0 0-.516-.783l-1.495-2.182 10.358-6.02 1.495 2.182c.16.234.317.472.471.711.016.023.029.049.045.072.111.173.216.351.321.528.064.107.132.212.197.321l.029.054c.097.17.191.341.286.512.066.119.134.236.199.357.008.013.013.029.021.043.094.177.183.358.273.537.06.121.124.239.183.36.009.022.021.043.031.064l1.141 2.383-10.358 6.02-1.141-2.383c-.068-.142-.142-.282-.212-.424-.09-.179-.177-.36-.273-.537-.074-.137-.15-.269-.222-.402Z" />
   <path fill="#C2C4C6"
      d="m333.978 257.268 6.168 1.359c.37-1.205.865-2.28 1.472-3.205l-2.987-8.294 1.151-1.059a5.227 5.227 0 0 1 2.068-1.178l1.501-.453 5.698 6.748c1.112-.053 2.294.064 3.528.356l1.932-5.975 1.869.794c.484.205.971.45 1.458.73.487.281.973.6 1.456.952l1.871 1.365 1.891 8.183a38.264 38.264 0 0 1 3.52 3.713l5.716-.158 1.495 2.183a26.632 26.632 0 0 1 2.054 3.557l1.141 2.383-3.023 4.824a37.88 37.88 0 0 1 1.446 4.889l6.154 5.755.244 2.292a14.489 14.489 0 0 1-.01 3.348l-.255 2.006-6.168-1.361c-.37 1.207-.864 2.28-1.47 3.208l2.987 8.292-1.151 1.061a5.253 5.253 0 0 1-2.068 1.178l-1.503.452-5.696-6.748c-1.114.051-2.294-.066-3.53-.36l-1.93 5.977-1.871-.794a13.123 13.123 0 0 1-1.456-.731c-.487-.28-.973-.599-1.458-.954l-1.869-1.366-1.893-8.183a38.545 38.545 0 0 1-3.518-3.709l-5.718.156-1.493-2.183a26.602 26.602 0 0 1-2.054-3.557l-1.141-2.385 3.024-4.823a37.562 37.562 0 0 1-1.449-4.892l-6.154-5.751-.242-2.294a14.499 14.499 0 0 1 .01-3.349l.253-1.999Zm23.753 27.753c4.898 2.827 8.882.555 8.897-5.073.016-5.631-3.942-12.486-8.839-15.315-4.9-2.829-8.884-.559-8.899 5.072-.018 5.63 3.94 12.487 8.841 15.316Z" />
   <path fill="url(#aY)"
      d="M380.288 256.274s-.527 4.496-.374 5.16c.154.664.483.876.483.876s-.714 1.464-.459 2.747c.257 1.283 1.341 4.864 1.867 5.35.526.487 3.096.553 3.096.553l.225 2.592 6.974-3.219s-.531-5.554-.494-5.683c.037-.128-5.218-10.502-5.218-10.502l-6.1 2.126Z" />
   <path fill="#2D2F4F"
      d="M378.698 256.316c1.958 1.957 3.718 2.722 3.785 4.603.066 1.881-.246 3.197.307 3.495.555.298.028-1.299 1.472-1.377 1.445-.078.814 2.346.569 3.045-.244.699.948 1.079 3.746 1.27 2.797.19 3.309-1.159 3.627-1.961.317-.802 1.569-4.198 1.022-6.037-.547-1.838-1.548-2.222-1.548-2.222s.152-3.265-3.538-3.428c-3.689-.164-6.572 1.152-8.208.714-1.631-.436-1.234 1.898-1.234 1.898ZM396.211 360.206s-1.601-2.912-3.608-2.955c-2.007-.043-4.017 1.509-2.19 3.88 1.826 2.373 6.115 8.489 7.028 8.578.913.09 5.385-.821 5.658-1.643.272-.822.455-4.016.455-4.016l-7.343-3.844ZM374.159 354.534s-3.01-3.274-4.524-3.401c-1.515-.126-6.309 2.65-2.65 5.298 3.658 2.649 8.05 7.065 10.585 6.939 2.535-.127 4.174-1.389 4.428-2.65.253-1.262-.962-4.075-.962-4.075l-6.877-2.111Z" />
   <path fill="#2D2F4F"
      d="M402.099 306.393s2.278 1.703 2.404 7.803c.127 6.1-2.404 8.06-2.404 8.06l-1.059 14.084s3.346 6.733 3.469 12.916c.123 6.184-.004 14.48-.004 14.48s.035 1.509-3.463 1.055c-3.499-.454-4.957-2.716-4.957-2.716s1.306-14.694-1.862-19.565c-3.167-4.871-4.978-28.316-4.978-28.316l12.854-7.801Z" />
   <path fill="#4B4F6D"
      d="M381.039 308.562s-8.688 16.483-8.084 19.31c.603 2.827 2.564 9.854 2.414 14.637-.15 4.784-1.207 12.023-1.207 12.023s-.241 2.414 2.821 3.167c3.063.754 4.057-1.055 4.057-1.055s3.079-6.248 3.682-14.135c.604-7.887 0-14.072 0-14.072s8.75-5.43 10.558-10.71c1.811-5.28 0-8.296 0-8.296l-14.241-.869Z" />
   <path fill="url(#aZ)"
      d="M400.429 269.758s4.619 11.421 4.021 16.617c-.598 5.196-6.875 6.041-6.875 6.041l2.854-22.658Z" />
   <path fill="url(#ba)"
      d="M385.613 272.458s-7.914 3.956-8.037 5.936c-.124 1.978 3.462 30.17 3.462 30.17s4.575 4.575 12.242 3.216c7.667-1.36 9.646-6.925 9.646-6.925s-2.226-11.995-1.731-22.257c.494-10.262-.495-14.557-2.35-14.141-1.856.415-13.232 4.001-13.232 4.001Z" />
   <path fill="url(#bb)"
      d="M379.687 277.629c-3.496-1.665-4.47 6.008-4.789 10.293-.319 4.286-1.17 5.874-1.17 5.874l-12.024-5.381s-2.235.068-2.874 2.73c-.639 2.661.426 3.405.426 3.405s15.749 8.514 19.156 6.491c3.403-2.023 5.744-21.284 1.275-23.412Z" />
   <path fill="url(#bc)"
      d="M360.807 288.638s-.257-1.95-1.787-3.288c-1.531-1.337-1.848-1.692-1.848-1.692s-1.211.355-.319 2.076l.891 1.721s-1.785-.701-3.251-2.231c-1.466-1.531-3.399 1.674-1.669 4.15 1.731 2.477 5.796 4.198 5.796 4.198s.341-3.876 2.187-4.934Z" />
   <path fill="url(#bd)"
      d="m247.595 329.69-3.431-.099-27.981-16.697a6.953 6.953 0 0 0-7.062-.041l-25.46 14.987-3.376-.097v3.783a3.22 3.22 0 0 0 0 .393v.07l.004.002a3.256 3.256 0 0 0 1.595 2.568l30.033 17.92a5.55 5.55 0 0 0 5.629.033l28.657-16.857c1.129-.656 1.571-1.906 1.327-3.029l.068-.039v-2.897h-.003Z" />
   <path fill="url(#be)"
      d="m246.226 326.575-30.045-17.927a6.953 6.953 0 0 0-7.062-.041l-27.204 16.013c-2.177 1.266-2.197 4.404-.034 5.693l30.034 17.92a5.549 5.549 0 0 0 5.628.033l28.657-16.857c1.846-1.074 1.862-3.74.026-4.834Z" />
   <path fill="#fff"
      d="M214.756 346.463a2.987 2.987 0 0 1-1.534-.423l-30.034-17.919a.725.725 0 0 1-.366-.65c0-.16.051-.458.374-.645l27.218-16.021a4.393 4.393 0 0 1 2.202-.59c.795 0 1.575.216 2.259.623l30.045 17.927a.229.229 0 0 1 .123.218.227.227 0 0 1-.127.218l-28.669 16.865a2.97 2.97 0 0 1-1.491.397Z" />
   <path fill="url(#bf)"
      d="m181.402 327.775 34.093 20.663 8.925-5.849 1.894-12.409-20.855 3.469 1.499-9.641-16.935-2.487-8.621 6.254Z" />
   <path fill="url(#bg)"
      d="M212.867 320.565c2.645 0 4.789-1.205 4.789-2.691 0-1.486-2.144-2.69-4.789-2.69-2.646 0-4.79 1.204-4.79 2.69s2.144 2.691 4.79 2.691Z" />
   <path fill="url(#bh)"
      d="M292.102 390.774c.819 0 1.625-.216 2.334-.627l25.205-14.592c.463-.269.738-.748.738-1.283-.002-.536.222-2.736-.242-3.001l-57.193-30.833a4.104 4.104 0 0 0-4.086.006l-26.292 13.097c-.399.229-.243 2.484-.243 2.945 0 .462.239.873.64 1.102l56.826 32.572a4.656 4.656 0 0 0 2.313.614Z" />
   <path fill="url(#bi)"
      d="M292.102 388.58a4.65 4.65 0 0 0 2.334-.627l25.205-14.592c.464-.268.738-.747.738-1.283a1.461 1.461 0 0 0-.743-1.279l-56.693-32.557a4.09 4.09 0 0 0-4.087.006l-25.898 14.939c-.399.23-.637.643-.637 1.104 0 .461.24.872.641 1.102l56.825 32.572a4.66 4.66 0 0 0 2.315.615Z" />
   <g fill="#fff" opacity=".64">
      <path
         d="m263.88 348.667 33.226 18.718c.463.261 1.316.218 1.894-.095.579-.316.672-.787.209-1.048l-33.227-18.718c-.463-.261-1.316-.218-1.894.096-.578.315-.672.786-.208 1.047ZM258.614 351.53l37.646 21.208c.464.261 1.316.218 1.895-.095.578-.315.671-.787.208-1.047l-37.646-21.208c-.463-.261-1.316-.218-1.894.095-.58.313-.674.785-.209 1.047ZM253.348 354.394l37.646 21.208c.464.261 1.316.218 1.895-.096.578-.315.671-.786.208-1.047l-37.646-21.208c-.463-.261-1.316-.218-1.894.095-.579.314-.672.787-.209 1.048ZM260.728 364.378l25.002 14.086c.464.261 1.316.218 1.895-.095.578-.316.671-.787.208-1.048l-25.003-14.086c-.463-.261-1.316-.218-1.894.096-.58.313-.674.784-.208 1.047Z" />
   </g>
   <mask id="bk" width="55" height="25" x="358" y="348" maskUnits="userSpaceOnUse" style="mask-type:alpha">
      <path fill="url(#bj)"
         d="M385.678 372.474c14.918 0 27.012-5.394 27.012-12.047 0-6.654-12.094-12.048-27.012-12.048-14.918 0-27.012 5.394-27.012 12.048 0 6.653 12.094 12.047 27.012 12.047Z" />
   </mask>
   <g mask="url(#bk)">
      <path fill="url(#bl)"
         d="M385.679 372.474c14.918 0 27.012-5.394 27.012-12.047 0-6.654-12.094-12.048-27.012-12.048-14.918 0-27.012 5.394-27.012 12.048 0 6.653 12.094 12.047 27.012 12.047Z"
         opacity=".23" />
   </g>
   <defs>
      <linearGradient id="a" x1="100.233" x2="109.802" y1="104.998" y2="104.998" gradientUnits="userSpaceOnUse">
         <stop stop-color="#1D7ECE" />
         <stop offset="1" stop-color="#17538C" />
      </linearGradient>
      <linearGradient id="b" x1="100.262" x2="109.803" y1="98.651" y2="98.651" gradientUnits="userSpaceOnUse">
         <stop stop-color="#47C3B9" />
         <stop offset=".99" stop-color="#B8EDFF" />
      </linearGradient>
      <linearGradient id="c" x1="78.67" x2="88.239" y1="119.682" y2="119.682" gradientUnits="userSpaceOnUse">
         <stop stop-color="#1D7ECE" />
         <stop offset="1" stop-color="#17538C" />
      </linearGradient>
      <linearGradient id="d" x1="78.698" x2="88.238" y1="113.333" y2="113.333" gradientUnits="userSpaceOnUse">
         <stop stop-color="#47C3B9" />
         <stop offset=".99" stop-color="#B8EDFF" />
      </linearGradient>
      <linearGradient id="e" x1="124.217" x2="133.786" y1="93.113" y2="93.113" gradientUnits="userSpaceOnUse">
         <stop stop-color="#1D7ECE" />
         <stop offset="1" stop-color="#17538C" />
      </linearGradient>
      <linearGradient id="f" x1="124.246" x2="133.787" y1="86.765" y2="86.765" gradientUnits="userSpaceOnUse">
         <stop stop-color="#47C3B9" />
         <stop offset=".99" stop-color="#B8EDFF" />
      </linearGradient>
      <linearGradient id="g" x1="123.144" x2="163.569" y1="19.222" y2="19.222" gradientUnits="userSpaceOnUse">
         <stop stop-color="#fff" />
         <stop offset=".99" stop-color="#C2C4C6" />
      </linearGradient>
      <linearGradient id="h" x1="86.708" x2="144.148" y1="14.681" y2="14.681" gradientUnits="userSpaceOnUse">
         <stop stop-color="#fff" />
         <stop offset=".99" stop-color="#C2C4C6" />
      </linearGradient>
      <linearGradient id="i" x1="19.693" x2="62.924" y1="94.81" y2="94.81" gradientUnits="userSpaceOnUse">
         <stop stop-color="#fff" />
         <stop offset=".99" stop-color="#C2C4C6" />
      </linearGradient>
      <linearGradient id="j" x1="35.203" x2="110.846" y1="44.112" y2="44.112" gradientUnits="userSpaceOnUse">
         <stop stop-color="#fff" />
         <stop offset=".99" stop-color="#C2C4C6" />
      </linearGradient>
      <linearGradient id="k" x1="169.913" x2="47.106" y1="71.818" y2="71.818" gradientUnits="userSpaceOnUse">
         <stop stop-color="#fff" />
         <stop offset=".99" stop-color="#C2C4C6" />
      </linearGradient>
      <linearGradient id="l" x1="165.589" x2="51.429" y1="71.816" y2="71.816" gradientUnits="userSpaceOnUse">
         <stop stop-color="#1D7ECE" />
         <stop offset="1" stop-color="#17538C" />
      </linearGradient>
      <linearGradient id="m" x1="304.185" x2="249.538" y1="168.13" y2="284.538" gradientUnits="userSpaceOnUse">
         <stop stop-color="#fff" />
         <stop offset=".99" stop-color="#C2C4C6" />
      </linearGradient>
      <linearGradient id="n" x1="249.107" x2="181.849" y1="176.883" y2="277.123" gradientUnits="userSpaceOnUse">
         <stop stop-color="#fff" />
         <stop offset=".99" stop-color="#C2C4C6" />
      </linearGradient>
      <linearGradient id="o" x1="263.592" x2="264.529" y1="264.222" y2="245.647" gradientUnits="userSpaceOnUse">
         <stop stop-color="#1D7ECE" />
         <stop offset="1" stop-color="#17538C" />
      </linearGradient>
      <linearGradient id="p" x1="196.27" x2="195.333" y1="263.561" y2="244.986" gradientUnits="userSpaceOnUse">
         <stop stop-color="#1D7ECE" />
         <stop offset="1" stop-color="#17538C" />
      </linearGradient>
      <linearGradient id="q" x1="257.697" x2="261.945" y1="253.772" y2="253.772" gradientUnits="userSpaceOnUse">
         <stop stop-color="#FFAC06" />
         <stop offset="1" stop-color="#F25227" />
      </linearGradient>
      <linearGradient id="r" x1="257.697" x2="261.945" y1="258.573" y2="258.573" gradientUnits="userSpaceOnUse">
         <stop stop-color="#FFAC06" />
         <stop offset="1" stop-color="#F25227" />
      </linearGradient>
      <linearGradient id="s" x1="257.697" x2="261.945" y1="263.375" y2="263.375" gradientUnits="userSpaceOnUse">
         <stop stop-color="#FFAC06" />
         <stop offset="1" stop-color="#F25227" />
      </linearGradient>
      <linearGradient id="t" x1="187.313" x2="190.014" y1="246.358" y2="246.358" gradientUnits="userSpaceOnUse">
         <stop stop-color="#FFAC06" />
         <stop offset="1" stop-color="#F25227" />
      </linearGradient>
      <linearGradient id="u" x1="191.814" x2="194.515" y1="249.066" y2="249.066" gradientUnits="userSpaceOnUse">
         <stop stop-color="#FFAC06" />
         <stop offset="1" stop-color="#F25227" />
      </linearGradient>
      <linearGradient id="v" x1="196.316" x2="199.017" y1="251.773" y2="251.773" gradientUnits="userSpaceOnUse">
         <stop stop-color="#FFAC06" />
         <stop offset="1" stop-color="#F25227" />
      </linearGradient>
      <linearGradient id="w" x1="200.817" x2="203.518" y1="254.479" y2="254.479" gradientUnits="userSpaceOnUse">
         <stop stop-color="#FFAC06" />
         <stop offset="1" stop-color="#F25227" />
      </linearGradient>
      <linearGradient id="x" x1="187.313" x2="190.014" y1="250.09" y2="250.09" gradientUnits="userSpaceOnUse">
         <stop stop-color="#FFAC06" />
         <stop offset="1" stop-color="#F25227" />
      </linearGradient>
      <linearGradient id="y" x1="191.814" x2="194.515" y1="252.796" y2="252.796" gradientUnits="userSpaceOnUse">
         <stop stop-color="#FFAC06" />
         <stop offset="1" stop-color="#F25227" />
      </linearGradient>
      <linearGradient id="z" x1="196.316" x2="199.017" y1="255.505" y2="255.505" gradientUnits="userSpaceOnUse">
         <stop stop-color="#FFAC06" />
         <stop offset="1" stop-color="#F25227" />
      </linearGradient>
      <linearGradient id="A" x1="200.817" x2="203.518" y1="258.21" y2="258.21" gradientUnits="userSpaceOnUse">
         <stop stop-color="#FFAC06" />
         <stop offset="1" stop-color="#F25227" />
      </linearGradient>
      <linearGradient id="B" x1="187.313" x2="190.014" y1="253.826" y2="253.826" gradientUnits="userSpaceOnUse">
         <stop stop-color="#FFAC06" />
         <stop offset="1" stop-color="#F25227" />
      </linearGradient>
      <linearGradient id="C" x1="191.814" x2="194.515" y1="256.531" y2="256.531" gradientUnits="userSpaceOnUse">
         <stop stop-color="#FFAC06" />
         <stop offset="1" stop-color="#F25227" />
      </linearGradient>
      <linearGradient id="D" x1="196.316" x2="199.017" y1="259.241" y2="259.241" gradientUnits="userSpaceOnUse">
         <stop stop-color="#FFAC06" />
         <stop offset="1" stop-color="#F25227" />
      </linearGradient>
      <linearGradient id="E" x1="200.817" x2="203.518" y1="261.946" y2="261.946" gradientUnits="userSpaceOnUse">
         <stop stop-color="#FFAC06" />
         <stop offset="1" stop-color="#F25227" />
      </linearGradient>
      <linearGradient id="F" x1="288.78" x2="234.133" y1="160.898" y2="277.306" gradientUnits="userSpaceOnUse">
         <stop stop-color="#fff" />
         <stop offset=".99" stop-color="#C2C4C6" />
      </linearGradient>
      <linearGradient id="G" x1="230.577" x2="163.32" y1="164.451" y2="264.69" gradientUnits="userSpaceOnUse">
         <stop stop-color="#fff" />
         <stop offset=".99" stop-color="#C2C4C6" />
      </linearGradient>
      <linearGradient id="H" x1="263.592" x2="264.529" y1="224.173" y2="205.598" gradientUnits="userSpaceOnUse">
         <stop stop-color="#1D7ECE" />
         <stop offset="1" stop-color="#17538C" />
      </linearGradient>
      <linearGradient id="I" x1="196.27" x2="195.333" y1="223.513" y2="204.937" gradientUnits="userSpaceOnUse">
         <stop stop-color="#1D7ECE" />
         <stop offset="1" stop-color="#17538C" />
      </linearGradient>
      <linearGradient id="J" x1="257.697" x2="261.945" y1="213.721" y2="213.721" gradientUnits="userSpaceOnUse">
         <stop stop-color="#FFAC06" />
         <stop offset="1" stop-color="#F25227" />
      </linearGradient>
      <linearGradient id="K" x1="257.697" x2="261.945" y1="218.523" y2="218.523" gradientUnits="userSpaceOnUse">
         <stop stop-color="#FFAC06" />
         <stop offset="1" stop-color="#F25227" />
      </linearGradient>
      <linearGradient id="L" x1="257.697" x2="261.945" y1="223.325" y2="223.325" gradientUnits="userSpaceOnUse">
         <stop stop-color="#FFAC06" />
         <stop offset="1" stop-color="#F25227" />
      </linearGradient>
      <linearGradient id="M" x1="187.313" x2="190.014" y1="206.31" y2="206.31" gradientUnits="userSpaceOnUse">
         <stop stop-color="#FFAC06" />
         <stop offset="1" stop-color="#F25227" />
      </linearGradient>
      <linearGradient id="N" x1="191.814" x2="194.515" y1="209.017" y2="209.017" gradientUnits="userSpaceOnUse">
         <stop stop-color="#FFAC06" />
         <stop offset="1" stop-color="#F25227" />
      </linearGradient>
      <linearGradient id="O" x1="196.316" x2="199.017" y1="211.725" y2="211.725" gradientUnits="userSpaceOnUse">
         <stop stop-color="#FFAC06" />
         <stop offset="1" stop-color="#F25227" />
      </linearGradient>
      <linearGradient id="P" x1="200.817" x2="203.518" y1="214.43" y2="214.43" gradientUnits="userSpaceOnUse">
         <stop stop-color="#FFAC06" />
         <stop offset="1" stop-color="#F25227" />
      </linearGradient>
      <linearGradient id="Q" x1="187.313" x2="190.014" y1="210.041" y2="210.041" gradientUnits="userSpaceOnUse">
         <stop stop-color="#FFAC06" />
         <stop offset="1" stop-color="#F25227" />
      </linearGradient>
      <linearGradient id="R" x1="191.814" x2="194.515" y1="212.747" y2="212.747" gradientUnits="userSpaceOnUse">
         <stop stop-color="#FFAC06" />
         <stop offset="1" stop-color="#F25227" />
      </linearGradient>
      <linearGradient id="S" x1="196.316" x2="199.017" y1="215.456" y2="215.456" gradientUnits="userSpaceOnUse">
         <stop stop-color="#FFAC06" />
         <stop offset="1" stop-color="#F25227" />
      </linearGradient>
      <linearGradient id="T" x1="200.817" x2="203.518" y1="218.162" y2="218.162" gradientUnits="userSpaceOnUse">
         <stop stop-color="#FFAC06" />
         <stop offset="1" stop-color="#F25227" />
      </linearGradient>
      <linearGradient id="U" x1="187.313" x2="190.014" y1="213.777" y2="213.777" gradientUnits="userSpaceOnUse">
         <stop stop-color="#FFAC06" />
         <stop offset="1" stop-color="#F25227" />
      </linearGradient>
      <linearGradient id="V" x1="191.814" x2="194.515" y1="216.483" y2="216.483" gradientUnits="userSpaceOnUse">
         <stop stop-color="#FFAC06" />
         <stop offset="1" stop-color="#F25227" />
      </linearGradient>
      <linearGradient id="W" x1="196.316" x2="199.017" y1="219.192" y2="219.192" gradientUnits="userSpaceOnUse">
         <stop stop-color="#FFAC06" />
         <stop offset="1" stop-color="#F25227" />
      </linearGradient>
      <linearGradient id="X" x1="200.817" x2="203.518" y1="221.897" y2="221.897" gradientUnits="userSpaceOnUse">
         <stop stop-color="#FFAC06" />
         <stop offset="1" stop-color="#F25227" />
      </linearGradient>
      <linearGradient id="Y" x1="165.439" x2="297.039" y1="135.556" y2="135.556" gradientUnits="userSpaceOnUse">
         <stop stop-color="#fff" />
         <stop offset=".99" stop-color="#C2C4C6" />
      </linearGradient>
      <linearGradient id="Z" x1="184.906" x2="275.487" y1="140.403" y2="140.403" gradientUnits="userSpaceOnUse">
         <stop stop-color="#1D7ECE" />
         <stop offset="1" stop-color="#17538C" />
      </linearGradient>
      <linearGradient id="aa" x1="273.374" x2="218.727" y1="153.668" y2="270.075" gradientUnits="userSpaceOnUse">
         <stop stop-color="#fff" />
         <stop offset=".99" stop-color="#C2C4C6" />
      </linearGradient>
      <linearGradient id="ab" x1="212.048" x2="144.791" y1="152.02" y2="252.259" gradientUnits="userSpaceOnUse">
         <stop stop-color="#fff" />
         <stop offset=".99" stop-color="#C2C4C6" />
      </linearGradient>
      <linearGradient id="ac" x1="263.592" x2="264.529" y1="184.127" y2="165.552" gradientUnits="userSpaceOnUse">
         <stop stop-color="#1D7ECE" />
         <stop offset="1" stop-color="#17538C" />
      </linearGradient>
      <linearGradient id="ad" x1="196.27" x2="195.333" y1="183.466" y2="164.891" gradientUnits="userSpaceOnUse">
         <stop stop-color="#1D7ECE" />
         <stop offset="1" stop-color="#17538C" />
      </linearGradient>
      <linearGradient id="ae" x1="257.697" x2="261.945" y1="173.675" y2="173.675" gradientUnits="userSpaceOnUse">
         <stop stop-color="#FFAC06" />
         <stop offset="1" stop-color="#F25227" />
      </linearGradient>
      <linearGradient id="af" x1="257.697" x2="261.945" y1="178.474" y2="178.474" gradientUnits="userSpaceOnUse">
         <stop stop-color="#FFAC06" />
         <stop offset="1" stop-color="#F25227" />
      </linearGradient>
      <linearGradient id="ag" x1="257.697" x2="261.945" y1="183.276" y2="183.276" gradientUnits="userSpaceOnUse">
         <stop stop-color="#FFAC06" />
         <stop offset="1" stop-color="#F25227" />
      </linearGradient>
      <linearGradient id="ah" x1="187.313" x2="190.014" y1="166.261" y2="166.261" gradientUnits="userSpaceOnUse">
         <stop stop-color="#FFAC06" />
         <stop offset="1" stop-color="#F25227" />
      </linearGradient>
      <linearGradient id="ai" x1="191.814" x2="194.515" y1="168.967" y2="168.967" gradientUnits="userSpaceOnUse">
         <stop stop-color="#FFAC06" />
         <stop offset="1" stop-color="#F25227" />
      </linearGradient>
      <linearGradient id="aj" x1="196.316" x2="199.017" y1="171.676" y2="171.676" gradientUnits="userSpaceOnUse">
         <stop stop-color="#FFAC06" />
         <stop offset="1" stop-color="#F25227" />
      </linearGradient>
      <linearGradient id="ak" x1="200.817" x2="203.518" y1="174.382" y2="174.382" gradientUnits="userSpaceOnUse">
         <stop stop-color="#FFAC06" />
         <stop offset="1" stop-color="#F25227" />
      </linearGradient>
      <linearGradient id="al" x1="187.313" x2="190.014" y1="169.995" y2="169.995" gradientUnits="userSpaceOnUse">
         <stop stop-color="#FFAC06" />
         <stop offset="1" stop-color="#F25227" />
      </linearGradient>
      <linearGradient id="am" x1="191.814" x2="194.515" y1="172.7" y2="172.7" gradientUnits="userSpaceOnUse">
         <stop stop-color="#FFAC06" />
         <stop offset="1" stop-color="#F25227" />
      </linearGradient>
      <linearGradient id="an" x1="196.316" x2="199.017" y1="175.41" y2="175.41" gradientUnits="userSpaceOnUse">
         <stop stop-color="#FFAC06" />
         <stop offset="1" stop-color="#F25227" />
      </linearGradient>
      <linearGradient id="ao" x1="200.817" x2="203.518" y1="178.115" y2="178.115" gradientUnits="userSpaceOnUse">
         <stop stop-color="#FFAC06" />
         <stop offset="1" stop-color="#F25227" />
      </linearGradient>
      <linearGradient id="ap" x1="187.313" x2="190.014" y1="173.728" y2="173.728" gradientUnits="userSpaceOnUse">
         <stop stop-color="#FFAC06" />
         <stop offset="1" stop-color="#F25227" />
      </linearGradient>
      <linearGradient id="aq" x1="191.814" x2="194.515" y1="176.434" y2="176.434" gradientUnits="userSpaceOnUse">
         <stop stop-color="#FFAC06" />
         <stop offset="1" stop-color="#F25227" />
      </linearGradient>
      <linearGradient id="ar" x1="196.316" x2="199.017" y1="179.143" y2="179.143" gradientUnits="userSpaceOnUse">
         <stop stop-color="#FFAC06" />
         <stop offset="1" stop-color="#F25227" />
      </linearGradient>
      <linearGradient id="as" x1="200.817" x2="203.518" y1="181.849" y2="181.849" gradientUnits="userSpaceOnUse">
         <stop stop-color="#FFAC06" />
         <stop offset="1" stop-color="#F25227" />
      </linearGradient>
      <linearGradient id="at" x1="106.89" x2="273.789" y1="417.136" y2="417.136" gradientUnits="userSpaceOnUse">
         <stop offset=".016" stop-color="#A4A6B6" />
         <stop offset="1" stop-color="#E4E6EB" />
      </linearGradient>
      <linearGradient id="au" x1="227.459" x2="207.266" y1="382.011" y2="385.066" gradientUnits="userSpaceOnUse">
         <stop stop-color="#1D7ECE" />
         <stop offset="1" stop-color="#17538C" />
      </linearGradient>
      <linearGradient id="av" x1="198.341" x2="231.329" y1="381.863" y2="381.863" gradientUnits="userSpaceOnUse">
         <stop stop-color="#1D7ECE" />
         <stop offset="1" stop-color="#17538C" />
      </linearGradient>
      <linearGradient id="aw" x1="255.579" x2="235.386" y1="399.023" y2="402.079" gradientUnits="userSpaceOnUse">
         <stop stop-color="#FFAC06" />
         <stop offset="1" stop-color="#F25227" />
      </linearGradient>
      <linearGradient id="ax" x1="226.462" x2="259.451" y1="398.875" y2="398.875" gradientUnits="userSpaceOnUse">
         <stop stop-color="#FFAC06" />
         <stop offset="1" stop-color="#F25227" />
      </linearGradient>
      <linearGradient id="ay" x1="176.271" x2="156.078" y1="413.161" y2="416.217" gradientUnits="userSpaceOnUse">
         <stop offset=".016" stop-color="#A4A6B6" />
         <stop offset="1" stop-color="#E4E6EB" />
      </linearGradient>
      <linearGradient id="az" x1="147.153" x2="180.142" y1="413.013" y2="413.013" gradientUnits="userSpaceOnUse">
         <stop offset=".016" stop-color="#F6F7F9" />
         <stop offset="1" stop-color="#E4E6EB" />
      </linearGradient>
      <linearGradient id="aA" x1="204.394" x2="184.201" y1="430.174" y2="433.229" gradientUnits="userSpaceOnUse">
         <stop offset=".016" stop-color="#A4A6B6" />
         <stop offset="1" stop-color="#E4E6EB" />
      </linearGradient>
      <linearGradient id="aB" x1="175.275" x2="208.264" y1="430.026" y2="430.026" gradientUnits="userSpaceOnUse">
         <stop offset=".016" stop-color="#F6F7F9" />
         <stop offset="1" stop-color="#E4E6EB" />
      </linearGradient>
      <linearGradient id="aC" x1="150.418" x2="130.225" y1="429.163" y2="432.219" gradientUnits="userSpaceOnUse">
         <stop offset=".016" stop-color="#A4A6B6" />
         <stop offset="1" stop-color="#E4E6EB" />
      </linearGradient>
      <linearGradient id="aD" x1="121.301" x2="154.29" y1="429.015" y2="429.015" gradientUnits="userSpaceOnUse">
         <stop offset=".016" stop-color="#F6F7F9" />
         <stop offset="1" stop-color="#E4E6EB" />
      </linearGradient>
      <linearGradient id="aE" x1="178.541" x2="158.348" y1="446.175" y2="449.231" gradientUnits="userSpaceOnUse">
         <stop offset=".016" stop-color="#A4A6B6" />
         <stop offset="1" stop-color="#E4E6EB" />
      </linearGradient>
      <linearGradient id="aF" x1="149.423" x2="182.411" y1="446.028" y2="446.028" gradientUnits="userSpaceOnUse">
         <stop offset=".016" stop-color="#F6F7F9" />
         <stop offset="1" stop-color="#E4E6EB" />
      </linearGradient>
      <linearGradient id="aG" x1="199.804" x2="222.262" y1="395.751" y2="409.108" gradientUnits="userSpaceOnUse">
         <stop offset=".016" stop-color="#A4A6B6" />
         <stop offset="1" stop-color="#E4E6EB" />
      </linearGradient>
      <linearGradient id="aH" x1="226.338" x2="201.539" y1="399.339" y2="403.091" gradientUnits="userSpaceOnUse">
         <stop offset=".016" stop-color="#F6F7F9" />
         <stop offset="1" stop-color="#E4E6EB" />
      </linearGradient>
      <linearGradient id="aI" x1="192.491" x2="214.948" y1="400.012" y2="413.369" gradientUnits="userSpaceOnUse">
         <stop offset=".016" stop-color="#A4A6B6" />
         <stop offset="1" stop-color="#E4E6EB" />
      </linearGradient>
      <linearGradient id="aJ" x1="219.024" x2="194.225" y1="403.598" y2="407.35" gradientUnits="userSpaceOnUse">
         <stop offset=".016" stop-color="#F6F7F9" />
         <stop offset="1" stop-color="#E4E6EB" />
      </linearGradient>
      <linearGradient id="aK" x1="185.176" x2="207.633" y1="404.273" y2="417.63" gradientUnits="userSpaceOnUse">
         <stop offset=".016" stop-color="#A4A6B6" />
         <stop offset="1" stop-color="#E4E6EB" />
      </linearGradient>
      <linearGradient id="aL" x1="211.709" x2="186.91" y1="407.859" y2="411.611" gradientUnits="userSpaceOnUse">
         <stop offset=".016" stop-color="#F6F7F9" />
         <stop offset="1" stop-color="#E4E6EB" />
      </linearGradient>
      <linearGradient id="aM" x1="350.652" x2="349.519" y1="284.223" y2="186.011" gradientUnits="userSpaceOnUse">
         <stop stop-color="#2B2E3D" />
         <stop offset="1" stop-color="#878AA0" />
      </linearGradient>
      <linearGradient id="aN" x1="368.373" x2="370.679" y1="206.786" y2="283.558" gradientUnits="userSpaceOnUse">
         <stop stop-color="#2B2E3D" />
         <stop offset="1" stop-color="#878AA0" />
      </linearGradient>
      <linearGradient id="aO" x1="308.061" x2="383.602" y1="234.646" y2="234.646" gradientUnits="userSpaceOnUse">
         <stop stop-color="#2B2E3D" />
         <stop offset="1" stop-color="#878AA0" />
      </linearGradient>
      <linearGradient id="aP" x1="317.36" x2="373.416" y1="174.862" y2="174.862" gradientUnits="userSpaceOnUse">
         <stop stop-color="#1D7ECE" />
         <stop offset="1" stop-color="#17538C" />
      </linearGradient>
      <linearGradient id="aQ" x1="317.359" x2="339.552" y1="259.478" y2="259.478" gradientUnits="userSpaceOnUse">
         <stop stop-color="#1D7ECE" />
         <stop offset="1" stop-color="#17538C" />
      </linearGradient>
      <linearGradient id="aR" x1="-.002" x2="137.061" y1="254.824" y2="254.824" gradientUnits="userSpaceOnUse">
         <stop stop-color="#2B2E3D" />
         <stop offset="1" stop-color="#878AA0" />
      </linearGradient>
      <linearGradient id="aS" x1="132.346" x2="-3.532" y1="301.765" y2="198.909" gradientUnits="userSpaceOnUse">
         <stop stop-color="#2B2E3D" />
         <stop offset="1" stop-color="#878AA0" />
      </linearGradient>
      <linearGradient id="aT" x1="9.045" x2="134.194" y1="208.739" y2="208.739" gradientUnits="userSpaceOnUse">
         <stop stop-color="#1D7ECE" />
         <stop offset="1" stop-color="#17538C" />
      </linearGradient>
      <linearGradient id="aU" x1="19.382" x2="46.697" y1="268.965" y2="268.965" gradientUnits="userSpaceOnUse">
         <stop stop-color="#FFAC06" />
         <stop offset="1" stop-color="#F25227" />
      </linearGradient>
      <linearGradient id="aV" x1="275.886" x2="324.367" y1="341.126" y2="341.126" gradientUnits="userSpaceOnUse">
         <stop stop-color="#fff" />
         <stop offset=".99" stop-color="#1A1A1A" />
      </linearGradient>
      <linearGradient id="aX" x1="275.886" x2="324.367" y1="341.126" y2="341.126" gradientUnits="userSpaceOnUse">
         <stop stop-color="#262944" />
         <stop offset=".99" stop-color="#262944" />
      </linearGradient>
      <linearGradient id="aY" x1="391.496" x2="379.863" y1="263.35" y2="264.362" gradientUnits="userSpaceOnUse">
         <stop stop-color="#FFD9D9" />
         <stop offset="1" stop-color="#EFB4B4" />
      </linearGradient>
      <linearGradient id="aZ" x1="397.574" x2="404.503" y1="281.087" y2="281.087" gradientUnits="userSpaceOnUse">
         <stop stop-color="#1D7ECE" />
         <stop offset="1" stop-color="#17538C" />
      </linearGradient>
      <linearGradient id="ba" x1="377.573" x2="402.925" y1="290.232" y2="290.232" gradientUnits="userSpaceOnUse">
         <stop stop-color="#FFAC06" />
         <stop offset="1" stop-color="#F25227" />
      </linearGradient>
      <linearGradient id="bb" x1="358.625" x2="382.15" y1="289.374" y2="289.374" gradientUnits="userSpaceOnUse">
         <stop stop-color="#1D7ECE" />
         <stop offset="1" stop-color="#17538C" />
      </linearGradient>
      <linearGradient id="bc" x1="352.144" x2="360.808" y1="288.614" y2="288.614" gradientUnits="userSpaceOnUse">
         <stop stop-color="#FFD9D9" />
         <stop offset="1" stop-color="#EFB4B4" />
      </linearGradient>
      <linearGradient id="bd" x1="239.695" x2="198.485" y1="328.644" y2="334.88" gradientUnits="userSpaceOnUse">
         <stop stop-color="#1D7ECE" />
         <stop offset="1" stop-color="#17538C" />
      </linearGradient>
      <linearGradient id="be" x1="180.27" x2="247.594" y1="328.34" y2="328.34" gradientUnits="userSpaceOnUse">
         <stop stop-color="#1D7ECE" />
         <stop offset="1" stop-color="#17538C" />
      </linearGradient>
      <linearGradient id="bf" x1="181.402" x2="226.314" y1="334.979" y2="334.979" gradientUnits="userSpaceOnUse">
         <stop stop-color="#1D7ECE" />
         <stop offset="1" stop-color="#17538C" />
      </linearGradient>
      <linearGradient id="bg" x1="208.079" x2="217.656" y1="317.874" y2="317.874" gradientUnits="userSpaceOnUse">
         <stop stop-color="#FFAC06" />
         <stop offset="1" stop-color="#F25227" />
      </linearGradient>
      <linearGradient id="bh" x1="316.205" x2="271.535" y1="371.147" y2="364.61" gradientUnits="userSpaceOnUse">
         <stop stop-color="#1D7ECE" />
         <stop offset="1" stop-color="#17538C" />
      </linearGradient>
      <linearGradient id="bi" x1="232.321" x2="320.378" y1="363.141" y2="363.141" gradientUnits="userSpaceOnUse">
         <stop stop-color="#1D7ECE" />
         <stop offset="1" stop-color="#17538C" />
      </linearGradient>
      <linearGradient id="bj" x1="358.665" x2="412.69" y1="360.426" y2="360.426" gradientUnits="userSpaceOnUse">
         <stop stop-color="#fff" />
         <stop offset=".99" stop-color="#1A1A1A" />
      </linearGradient>
      <linearGradient id="bl" x1="358.666" x2="412.691" y1="360.426" y2="360.426" gradientUnits="userSpaceOnUse">
         <stop stop-color="#262944" />
         <stop offset=".99" stop-color="#262944" />
      </linearGradient>
   </defs>
</svg>