<svg xmlns="http://www.w3.org/2000/svg" width="536" height="439" fill="none">
   <g opacity=".35">
      <path fill="#4A0101"
         d="M126.112 438.256c41.576-.061 75.263-10.83 75.244-24.054-.019-13.225-33.738-23.896-75.314-23.835-41.575.06-75.263 10.83-75.243 24.054.019 13.224 33.738 23.896 75.313 23.835Z"
         opacity=".038" />
      <path fill="#480202"
         d="M126.111 437.623c40.477-.059 73.275-10.544 73.257-23.419-.019-12.875-32.848-23.265-73.325-23.205-40.477.059-73.275 10.544-73.256 23.419.019 12.875 32.847 23.264 73.324 23.205Z"
         opacity=".077" />
      <path fill="#460303"
         d="M126.11 436.986c39.378-.058 71.285-10.258 71.267-22.782-.018-12.525-31.955-22.631-71.333-22.574-39.377.058-71.284 10.257-71.266 22.782.018 12.524 31.955 22.631 71.332 22.574Z"
         opacity=".115" />
      <path fill="#440404"
         d="M126.109 436.354c38.279-.055 69.295-9.971 69.277-22.146-.018-12.175-31.063-22-69.341-21.944-38.278.056-69.294 9.971-69.276 22.146.017 12.176 31.062 22 69.34 21.944Z"
         opacity=".154" />
      <path fill="#420505"
         d="M126.109 435.721c37.178-.054 67.304-9.685 67.286-21.511-.017-11.826-30.17-21.368-67.349-21.314-37.179.054-67.304 9.685-67.287 21.511.018 11.826 30.17 21.369 67.35 21.314Z"
         opacity=".192" />
      <path fill="#400606"
         d="M126.108 435.09c36.079-.053 65.313-9.398 65.297-20.874-.017-11.475-29.279-20.735-65.358-20.682-36.08.052-65.314 9.398-65.297 20.873.017 11.475 29.278 20.736 65.358 20.683Z"
         opacity=".231" />
      <path fill="#3E0606"
         d="M126.107 434.457c34.98-.051 63.323-9.112 63.307-20.238-.016-11.127-28.386-20.105-63.366-20.054-34.98.051-63.323 9.112-63.307 20.239.016 11.126 28.386 20.104 63.366 20.053Z"
         opacity=".269" />
      <path fill="#3C0707"
         d="M126.106 433.824c33.88-.05 61.333-8.826 61.317-19.603-.016-10.777-27.494-19.473-61.374-19.424-33.88.05-61.333 8.826-61.317 19.603.015 10.777 27.493 19.473 61.374 19.424Z"
         opacity=".308" />
      <path fill="#3A0808"
         d="M126.105 433.192c32.782-.048 59.345-8.539 59.33-18.965-.016-10.427-26.603-18.84-59.385-18.792-32.782.048-59.345 8.539-59.33 18.965.015 10.427 26.603 18.84 59.385 18.792Z"
         opacity=".346" />
      <path fill="#380909"
         d="M126.104 432.559c31.683-.046 57.355-8.253 57.34-18.33-.015-10.077-25.711-18.209-57.393-18.162-31.683.046-57.355 8.253-57.34 18.33.014 10.077 25.71 18.208 57.393 18.162Z"
         opacity=".385" />
      <path fill="#360A0A"
         d="M126.103 431.926c30.583-.044 55.364-7.967 55.35-17.695-.014-9.727-24.818-17.577-55.401-17.533-30.584.045-55.365 7.967-55.35 17.695.014 9.728 24.818 17.578 55.401 17.533Z"
         opacity=".423" />
      <path fill="#340B0B"
         d="M126.102 431.295c29.484-.043 53.374-7.681 53.36-17.059-.013-9.379-23.926-16.947-53.409-16.904-29.484.043-53.374 7.681-53.36 17.06.013 9.378 23.925 16.946 53.409 16.903Z"
         opacity=".462" />
      <path fill="#330C0C"
         d="M126.101 430.658c28.384-.042 51.384-7.394 51.371-16.422-.014-9.028-23.034-16.313-51.419-16.272-28.384.041-51.383 7.394-51.37 16.422.013 9.028 23.034 16.313 51.418 16.272Z"
         opacity=".5" />
      <path fill="#310D0D"
         d="M126.1 430.025c27.285-.04 49.394-7.108 49.381-15.787-.013-8.679-22.142-15.682-49.427-15.642-27.284.04-49.393 7.108-49.38 15.786.012 8.679 22.141 15.683 49.426 15.643Z"
         opacity=".538" />
      <path fill="#2F0E0E"
         d="M126.099 429.394c26.187-.039 47.406-6.822 47.393-15.152-.012-8.329-21.25-15.051-47.437-15.012-26.186.038-47.405 6.821-47.393 15.151.013 8.329 21.25 15.051 47.437 15.013Z"
         opacity=".577" />
      <path fill="#2D0F0F"
         d="M126.099 428.76c25.087-.037 45.414-6.535 45.403-14.514-.012-7.979-20.359-14.417-45.446-14.381-25.087.037-45.415 6.535-45.403 14.514.012 7.979 20.358 14.418 45.446 14.381Z"
         opacity=".615" />
      <path fill="#2B1010"
         d="M126.097 428.129c23.988-.035 43.425-6.249 43.414-13.878-.011-7.63-19.466-13.787-43.454-13.752-23.988.035-43.424 6.249-43.413 13.878.01 7.63 19.466 13.787 43.453 13.752Z"
         opacity=".654" />
      <path fill="#291111"
         d="M126.097 427.492c22.888-.033 41.434-5.962 41.423-13.243-.01-7.281-18.574-13.155-41.462-13.122-22.888.033-41.434 5.963-41.423 13.243.01 7.281 18.573 13.156 41.462 13.122Z"
         opacity=".692" />
      <path fill="#271212"
         d="M126.096 426.859c21.788-.032 39.443-5.676 39.433-12.606-.01-6.93-17.681-12.522-39.47-12.49-21.789.031-39.444 5.675-39.434 12.605.01 6.93 17.682 12.522 39.471 12.491Z"
         opacity=".731" />
      <path fill="#251212"
         d="M126.095 426.227c20.689-.03 37.453-5.389 37.444-11.97-.01-6.581-16.79-11.891-37.479-11.861-20.689.031-37.454 5.39-37.444 11.971.01 6.58 16.789 11.891 37.479 11.86Z"
         opacity=".769" />
      <path fill="#231313"
         d="M126.094 425.594c19.591-.028 35.465-5.103 35.456-11.335-.009-6.231-15.898-11.259-35.489-11.231-19.591.029-35.466 5.104-35.456 11.335.009 6.232 15.898 11.26 35.489 11.231Z"
         opacity=".808" />
      <path fill="#211414"
         d="M126.093 424.957c18.492-.027 33.475-4.816 33.466-10.697-.008-5.881-15.006-10.627-33.497-10.6-18.492.027-33.475 4.816-33.467 10.697.009 5.881 15.006 10.627 33.498 10.6Z"
         opacity=".846" />
      <path fill="#1F1515"
         d="M126.092 424.326c17.392-.026 31.485-4.53 31.476-10.062-.008-5.532-14.113-9.996-31.505-9.97-17.393.025-31.485 4.53-31.477 10.062.008 5.532 14.114 9.995 31.506 9.97Z"
         opacity=".885" />
      <path fill="#1D1616"
         d="M126.091 423.693c16.293-.024 29.494-4.244 29.487-9.427-.008-5.182-13.222-9.364-29.514-9.34-16.293.023-29.495 4.244-29.487 9.426.008 5.183 13.221 9.365 29.514 9.341Z"
         opacity=".923" />
      <path fill="#1B1717"
         d="M126.09 423.06c15.193-.022 27.504-3.958 27.497-8.792-.007-4.833-12.329-8.733-27.522-8.711-15.194.023-27.504 3.959-27.497 8.792.007 4.833 12.329 8.733 27.522 8.711Z"
         opacity=".962" />
      <path fill="#191818"
         d="M126.089 422.428c14.094-.02 25.514-3.671 25.507-8.154-.006-4.482-11.437-8.1-25.531-8.079-14.093.021-25.513 3.671-25.507 8.154.007 4.483 11.437 8.1 25.531 8.079Z" />
   </g>
   <g opacity=".35">
      <path fill="#4A0101"
         d="M409.043 430.369c41.576-.06 75.263-10.83 75.244-24.054-.019-13.224-33.738-23.896-75.314-23.835-41.575.061-75.263 10.83-75.243 24.054.019 13.225 33.738 23.896 75.313 23.835Z"
         opacity=".038" />
      <path fill="#480202"
         d="M409.042 429.736c40.477-.059 73.275-10.544 73.257-23.419-.019-12.875-32.848-23.264-73.325-23.205-40.477.059-73.275 10.544-73.256 23.419.019 12.875 32.847 23.264 73.324 23.205Z"
         opacity=".077" />
      <path fill="#460303"
         d="M409.041 429.101c39.378-.058 71.285-10.257 71.267-22.782-.019-12.524-31.955-22.631-71.333-22.573-39.378.057-71.285 10.257-71.266 22.781.018 12.525 31.955 22.631 71.332 22.574Z"
         opacity=".115" />
      <path fill="#440404"
         d="M409.04 428.468c38.279-.056 69.295-9.971 69.277-22.147-.018-12.175-31.063-21.999-69.341-21.944-38.278.056-69.294 9.971-69.277 22.147.018 12.175 31.063 22 69.341 21.944Z"
         opacity=".154" />
      <path fill="#420505"
         d="M409.04 427.835c37.178-.055 67.304-9.685 67.286-21.511-.017-11.826-30.17-21.369-67.349-21.315-37.179.054-67.304 9.685-67.287 21.511.018 11.826 30.171 21.369 67.35 21.315Z"
         opacity=".192" />
      <path fill="#400606"
         d="M409.038 427.203c36.08-.052 65.314-9.398 65.297-20.873-.016-11.476-29.278-20.736-65.357-20.683-36.079.053-65.314 9.398-65.297 20.873.017 11.476 29.278 20.736 65.357 20.683Z"
         opacity=".231" />
      <path fill="#3E0606"
         d="M409.038 426.57c34.979-.051 63.323-9.112 63.307-20.238-.016-11.126-28.386-20.104-63.366-20.053-34.98.051-63.324 9.112-63.307 20.238.016 11.126 28.386 20.104 63.366 20.053Z"
         opacity=".269" />
      <path fill="#3C0707"
         d="M409.037 425.937c33.88-.049 61.333-8.826 61.317-19.603-.016-10.777-27.494-19.473-61.374-19.424-33.881.05-61.333 8.826-61.317 19.603.015 10.777 27.493 19.474 61.374 19.424Z"
         opacity=".308" />
      <path fill="#3A0808"
         d="M409.036 425.302c32.782-.048 59.345-8.539 59.329-18.966-.015-10.426-26.602-18.84-59.384-18.792-32.783.048-59.345 8.539-59.33 18.966.015 10.426 26.603 18.839 59.385 18.792Z"
         opacity=".346" />
      <path fill="#380909"
         d="M409.035 424.669c31.682-.047 57.354-8.253 57.34-18.33-.015-10.078-25.711-18.209-57.393-18.163-31.683.046-57.355 8.253-57.34 18.33.014 10.077 25.71 18.209 57.393 18.163Z"
         opacity=".385" />
      <path fill="#360A0A"
         d="M409.034 424.036c30.583-.045 55.364-7.967 55.35-17.695-.014-9.728-24.818-17.578-55.402-17.533-30.583.044-55.364 7.967-55.35 17.695.015 9.727 24.819 17.577 55.402 17.533Z"
         opacity=".423" />
      <path fill="#340B0B"
         d="M409.033 423.405c29.484-.044 53.374-7.681 53.36-17.06-.013-9.378-23.926-16.946-53.41-16.903-29.483.043-53.374 7.68-53.36 17.059.014 9.379 23.926 16.947 53.41 16.904Z"
         opacity=".462" />
      <path fill="#330C0C"
         d="M409.032 422.771c28.384-.041 51.384-7.394 51.37-16.422-.013-9.028-23.033-16.313-51.418-16.272-28.384.042-51.383 7.394-51.37 16.422.013 9.028 23.034 16.313 51.418 16.272Z"
         opacity=".5" />
      <path fill="#310D0D"
         d="M409.031 422.14c27.285-.04 49.394-7.108 49.381-15.787-.013-8.678-22.142-15.682-49.427-15.642-27.284.04-49.393 7.108-49.38 15.787.013 8.678 22.141 15.682 49.426 15.642Z"
         opacity=".538" />
      <path fill="#2F0E0E"
         d="M409.03 421.507c26.187-.038 47.405-6.822 47.393-15.151-.012-8.33-21.25-15.051-47.437-15.013-26.186.038-47.405 6.822-47.393 15.151.012 8.33 21.251 15.051 47.437 15.013Z"
         opacity=".577" />
      <path fill="#2D0F0F"
         d="M409.029 420.869c25.088-.036 45.415-6.534 45.404-14.513-.012-7.979-20.359-14.418-45.446-14.381-25.087.036-45.415 6.534-45.403 14.513.012 7.979 20.358 14.418 45.445 14.381Z"
         opacity=".615" />
      <path fill="#2B1010"
         d="M409.026 420.238c23.988-.035 43.425-6.248 43.413-13.878-.011-7.63-19.466-13.787-43.453-13.752-23.988.035-43.425 6.249-43.414 13.879.012 7.63 19.467 13.786 43.454 13.751Z"
         opacity=".654" />
      <path fill="#291111"
         d="M409.025 419.605c22.888-.033 41.434-5.962 41.424-13.243-.011-7.28-18.574-13.155-41.462-13.122-22.888.034-41.434 5.963-41.424 13.243.011 7.281 18.574 13.156 41.462 13.122Z"
         opacity=".692" />
      <path fill="#271212"
         d="M409.024 418.972c21.789-.032 39.444-5.676 39.434-12.606-.01-6.93-17.682-12.522-39.47-12.49-21.789.032-39.444 5.675-39.434 12.606.01 6.93 17.682 12.522 39.47 12.49Z"
         opacity=".731" />
      <path fill="#251212"
         d="M409.023 418.341c20.69-.03 37.454-5.39 37.444-11.971-.009-6.58-16.789-11.891-37.478-11.86-20.69.03-37.454 5.389-37.444 11.97.009 6.581 16.789 11.891 37.478 11.861Z"
         opacity=".769" />
      <path fill="#231313"
         d="M409.022 417.708c19.592-.029 35.466-5.104 35.457-11.335-.009-6.232-15.898-11.26-35.49-11.232-19.591.029-35.465 5.104-35.456 11.335.009 6.232 15.898 11.26 35.489 11.232Z"
         opacity=".808" />
      <path fill="#211414"
         d="M409.022 417.07c18.491-.027 33.475-4.816 33.466-10.697-.009-5.881-15.006-10.627-33.497-10.6-18.492.027-33.475 4.817-33.467 10.698.009 5.881 15.006 10.626 33.498 10.599Z"
         opacity=".846" />
      <path fill="#1F1515"
         d="M409.021 416.439c17.392-.025 31.484-4.53 31.476-10.062-.008-5.532-14.113-9.995-31.506-9.97-17.392.026-31.484 4.53-31.476 10.062.008 5.532 14.114 9.996 31.506 9.97Z"
         opacity=".885" />
      <path fill="#1D1616"
         d="M409.02 415.806c16.292-.024 29.494-4.244 29.486-9.427-.007-5.182-13.221-9.364-29.514-9.34-16.292.024-29.494 4.244-29.487 9.427.008 5.182 13.222 9.364 29.515 9.34Z"
         opacity=".923" />
      <path fill="#1B1717"
         d="M409.019 415.173c15.193-.022 27.504-3.958 27.497-8.791-.007-4.834-12.329-8.734-27.523-8.711-15.193.022-27.504 3.958-27.497 8.791.007 4.833 12.33 8.733 27.523 8.711Z"
         opacity=".962" />
      <path fill="#191818"
         d="M409.018 414.542c14.094-.021 25.514-3.672 25.507-8.154-.007-4.483-11.437-8.1-25.531-8.08-14.094.021-25.514 3.672-25.507 8.154.007 4.483 11.437 8.1 25.531 8.08Z" />
   </g>
   <g opacity=".35">
      <path fill="#4A0101"
         d="M321.512 378.541c59.134-.086 107.049-15.403 107.021-34.212-.027-18.809-47.986-33.987-107.12-33.901-59.133.086-107.048 15.404-107.021 34.212.027 18.809 47.987 33.987 107.12 33.901Z"
         opacity=".038" />
      <path fill="#480202"
         d="M321.511 377.641c57.569-.084 104.216-14.997 104.19-33.309-.027-18.312-46.717-33.089-104.287-33.005-57.569.084-104.216 14.996-104.189 33.308.026 18.312 46.717 33.089 104.286 33.006Z"
         opacity=".077" />
      <path fill="#460303"
         d="M321.51 376.741c56.006-.081 101.386-14.588 101.361-32.402-.026-17.814-45.449-32.189-101.455-32.108-56.006.082-101.387 14.589-101.361 32.403.026 17.814 45.449 32.189 101.455 32.107Z"
         opacity=".115" />
      <path fill="#440404"
         d="M321.508 375.839c54.443-.08 98.557-14.182 98.532-31.499-.025-17.317-44.18-31.291-98.623-31.212-54.443.079-98.557 14.182-98.532 31.499.025 17.317 44.18 31.291 98.623 31.212Z"
         opacity=".154" />
      <path fill="#420505"
         d="M321.507 374.94c52.879-.077 95.725-13.774 95.701-30.593-.025-16.819-42.911-30.392-95.79-30.315-52.878.077-95.725 13.774-95.7 30.593.024 16.819 42.91 30.392 95.789 30.315Z"
         opacity=".192" />
      <path fill="#400606"
         d="M321.506 374.039c51.315-.075 92.895-13.367 92.872-29.689-.024-16.322-41.643-29.494-92.958-29.419-51.316.075-92.896 13.367-92.872 29.689.024 16.322 41.642 29.494 92.958 29.419Z"
         opacity=".231" />
      <path fill="#3E0606"
         d="M321.504 373.14c49.753-.072 90.066-12.96 90.043-28.785-.023-15.826-40.374-28.596-90.126-28.523-49.752.072-90.066 12.96-90.043 28.785.023 15.826 40.374 28.596 90.126 28.523Z"
         opacity=".269" />
      <path fill="#3C0707"
         d="M321.503 372.237c48.189-.07 87.236-12.552 87.214-27.879-.022-15.328-39.106-27.696-87.295-27.626-48.189.07-87.236 12.553-87.214 27.88.023 15.327 39.106 27.695 87.295 27.625Z"
         opacity=".308" />
      <path fill="#3A0808"
         d="M321.502 371.337c46.625-.068 84.404-12.146 84.383-26.976-.022-14.831-37.837-26.798-84.462-26.73-46.625.068-84.404 12.145-84.382 26.976.021 14.83 37.836 26.797 84.461 26.73Z"
         opacity=".346" />
      <path fill="#380909"
         d="M321.5 370.438c45.062-.066 81.575-11.739 81.554-26.072-.021-14.334-36.567-25.9-81.629-25.834-45.062.065-81.575 11.738-81.554 26.072.021 14.333 36.568 25.9 81.629 25.834Z"
         opacity=".385" />
      <path fill="#360A0A"
         d="M321.499 369.535c43.499-.064 78.745-11.331 78.725-25.166-.02-13.836-35.299-25-78.798-24.937-43.499.064-78.745 11.331-78.725 25.166.02 13.836 35.299 25 78.798 24.937Z"
         opacity=".423" />
      <path fill="#340B0B"
         d="M321.498 368.636c41.934-.061 75.913-10.924 75.894-24.262-.02-13.339-34.03-24.102-75.965-24.041-41.934.061-75.913 10.923-75.893 24.262.019 13.339 34.029 24.102 75.964 24.041Z"
         opacity=".462" />
      <path fill="#330C0C"
         d="M321.496 367.735c40.372-.059 73.084-10.516 73.065-23.356-.018-12.841-32.761-23.203-73.132-23.144-40.372.059-73.084 10.516-73.065 23.357.019 12.84 32.761 23.202 73.132 23.143Z"
         opacity=".5" />
      <path fill="#310D0D"
         d="M321.495 366.836c38.808-.056 70.254-10.109 70.236-22.452-.018-12.344-31.493-22.305-70.301-22.248-38.808.056-70.254 10.109-70.236 22.453.018 12.343 31.493 22.304 70.301 22.247Z"
         opacity=".538" />
      <path fill="#2F0E0E"
         d="M321.494 365.934c37.244-.054 67.422-9.702 67.405-21.549-.018-11.847-30.224-21.407-67.468-21.352-37.244.054-67.422 9.702-67.404 21.548.017 11.847 30.223 21.407 67.467 21.353Z"
         opacity=".577" />
      <path fill="#2D0F0F"
         d="M321.493 365.035c35.68-.052 64.592-9.295 64.575-20.643-.016-11.349-28.955-20.507-64.635-20.455-35.681.052-64.593 9.294-64.576 20.643.016 11.349 28.955 20.507 64.636 20.455Z"
         opacity=".615" />
      <path fill="#2B1010"
         d="M321.491 364.134c34.118-.05 61.763-8.887 61.747-19.739-.016-10.852-27.686-19.609-61.804-19.559-34.118.049-61.763 8.887-61.747 19.739.016 10.852 27.687 19.609 61.804 19.559Z"
         opacity=".654" />
      <path fill="#291111"
         d="M321.49 363.232c32.553-.048 58.931-8.481 58.916-18.836-.015-10.355-26.417-18.711-58.971-18.664-32.553.048-58.931 8.481-58.915 18.836.015 10.355 26.417 18.711 58.97 18.664Z"
         opacity=".692" />
      <path fill="#271212"
         d="M321.489 362.332c30.99-.045 56.101-8.072 56.086-17.929-.014-9.857-25.148-17.811-56.138-17.766-30.991.045-56.102 8.072-56.087 17.929.014 9.857 25.148 17.812 56.139 17.766Z"
         opacity=".731" />
      <path fill="#251212"
         d="M321.487 361.434c29.428-.043 53.272-7.666 53.258-17.026-.013-9.36-23.88-16.913-53.307-16.871-29.427.043-53.272 7.666-53.258 17.026.014 9.36 23.88 16.914 53.307 16.871Z"
         opacity=".769" />
      <path fill="#231313"
         d="M321.486 360.529c27.863-.041 50.44-7.258 50.427-16.12-.013-8.862-22.611-16.014-50.474-15.973-27.863.041-50.439 7.258-50.426 16.12.013 8.862 22.61 16.013 50.473 15.973Z"
         opacity=".808" />
      <path fill="#211414"
         d="M321.485 359.63c26.299-.038 47.61-6.851 47.597-15.216-.012-8.365-21.342-15.116-47.641-15.077-26.3.038-47.61 6.851-47.598 15.216.012 8.365 21.342 15.115 47.642 15.077Z"
         opacity=".846" />
      <path fill="#1F1515"
         d="M321.483 358.731c24.737-.036 44.781-6.444 44.769-14.312-.011-7.868-20.074-14.218-44.81-14.182-24.737.036-44.78 6.444-44.769 14.313.012 7.868 20.074 14.217 44.81 14.181Z"
         opacity=".885" />
      <path fill="#1D1616"
         d="M321.482 357.832c23.174-.034 41.951-6.036 41.94-13.406-.011-7.371-18.805-13.318-41.979-13.284-23.173.034-41.951 6.036-41.94 13.406.011 7.371 18.806 13.318 41.979 13.284Z"
         opacity=".923" />
      <path fill="#1B1717"
         d="M321.481 356.928c21.609-.032 39.119-5.63 39.109-12.503-.011-6.874-17.536-12.42-39.146-12.388-21.609.031-39.118 5.629-39.108 12.502.01 6.874 17.536 12.42 39.145 12.389Z"
         opacity=".962" />
      <path fill="#191818"
         d="M321.48 356.029c20.046-.029 36.289-5.222 36.279-11.599-.009-6.377-16.267-11.522-36.313-11.493-20.046.029-36.289 5.223-36.28 11.599.009 6.377 16.267 11.522 36.314 11.493Z" />
   </g>
   <path fill="url(#a)"
      d="M303.287 48.786 417.539 65.28c6.232 1.309 13.478 17.126 11.713 23.666l-67.497 250.778c-1.843 6.837-7.869 10.375-14.353 8.435l-120.583-36.076c-5.707-1.708-15.57-14.135-13.822-20.083l75.858-234.064c2.004-6.805 7.872-10.526 14.432-9.15Z" />
   <path fill="url(#b)"
      d="M297.555 39.578 414.65 64.154c6.233 1.31 10.638 9.044 8.872 15.584l-67.496 250.778c-1.844 6.836-7.87 10.377-14.354 8.435l-120.583-36.076c-5.707-1.708-9.441-8.929-7.691-14.877l69.729-239.273c2-6.803 7.87-10.526 14.428-9.148Z" />
   <path fill="url(#c)"
      d="m417.79 76.726-52.258 194.149-15.24 56.636c-.996 3.683-4.14 5.665-7.649 4.819a8.913 8.913 0 0 1-.381-.1l-120.589-36.077c-1.247-.374-1.935-1.396-2.232-1.97-.296-.568-.734-1.728-.351-3.031l69.736-239.29c1.178-4.013 4.723-6.256 8.606-5.443l30.674 6.442 86.522 18.16c1.465.354 2.296 1.512 2.659 2.169.37.659.915 1.99.503 3.536Z" />
   <path fill="url(#d)"
      d="M422.255 70.3c1.189 2.657 1.579 5.704.817 8.527l-67.496 250.781c-1.844 6.834-7.869 10.374-14.354 8.435l-120.583-36.076c-2.779-.831-5.088-2.973-6.526-5.636 1.376 3.079 3.885 5.622 6.974 6.547l120.583 36.076c6.484 1.939 12.508-1.601 14.354-8.435L423.52 79.74c.853-3.155.267-6.584-1.265-9.44Z"
      opacity=".56" />
   <path fill="#fff"
      d="m417.79 76.728-52.258 194.149c-45.52-27.955-76.809-82.957-74.464-138.263 1.45-34.168 15.465-62.085 37.036-79.753l86.522 18.16c1.465.354 2.296 1.512 2.659 2.169.372.661.917 1.993.505 3.538Z"
      opacity=".3" />
   <path fill="url(#e)" d="m283.413 69.856-52.446 30.097 138.997 34.575 41.994-38-128.545-26.672Z" />
   <path fill="url(#f)" d="m283.413 69.857-52.445 30.098 21.544 5.36 48.435-31.663-17.534-3.795Z" />
   <path fill="url(#g)" d="m319.449 77.466-47.361 32.718-21.3-5.3 50.956-31.224 17.705 3.806Z" />
   <path fill="url(#h)" d="m337.949 81.28-46.286 33.773-21.054-5.235 49.468-32.353 17.872 3.814Z" />
   <path fill="url(#i)" d="m356.452 85.091-45.215 34.831-20.81-5.175 47.981-33.48 18.044 3.824Z" />
   <path fill="url(#j)" d="m374.954 88.905-44.142 35.886-20.564-5.114 46.493-34.605 18.213 3.833Z" />
   <path fill="url(#k)" d="m393.456 92.716-43.068 36.943-20.319-5.053 45.003-35.731 18.384 3.841Z" />
   <path fill="url(#l)" d="m411.959 96.53-41.995 38-20.075-4.993 43.516-36.857 18.554 3.85Z" />
   <path fill="url(#m)"
      d="m228.01 130.157.846.212c5.487 1.365 10.622-1.136 13.045-6.351l8.885-19.133-19.821-4.93-8.499 18.302c-2.076 4.469.839 10.729 5.544 11.9Z" />
   <path fill="url(#n)"
      d="m247.838 134.946.846.212c5.487 1.365 10.622-1.136 13.044-6.351l8.885-19.132-19.82-4.933-8.5 18.302c-2.075 4.472.839 10.731 5.545 11.902Z" />
   <path fill="url(#o)"
      d="m267.665 139.735.846.212c5.487 1.365 10.622-1.136 13.045-6.351l8.885-19.133-19.821-4.93-8.5 18.302c-2.075 4.469.84 10.729 5.545 11.9Z" />
   <path fill="url(#p)"
      d="m287.49 144.519.846.211c5.487 1.365 10.622-1.136 13.045-6.351l8.885-19.132-19.819-4.933-8.499 18.302c-2.078 4.472.837 10.731 5.542 11.903Z" />
   <path fill="url(#q)"
      d="m307.317 149.307.847.212c5.486 1.365 10.621-1.136 13.044-6.351l8.885-19.132-19.821-4.931-8.499 18.302c-2.076 4.47.839 10.729 5.544 11.9Z" />
   <path fill="url(#r)"
      d="m327.145 154.097.846.211c5.487 1.365 10.622-1.135 13.044-6.351l8.885-19.132-19.82-4.932-8.5 18.302c-2.075 4.471.839 10.73 5.545 11.902Z" />
   <path fill="url(#s)"
      d="m346.97 158.886.846.211c5.487 1.365 10.622-1.136 13.044-6.351l8.885-19.132-19.82-4.93-8.5 18.302c-2.075 4.469.84 10.728 5.545 11.9Z" />
   <path fill="url(#t)"
      d="m242.785 151.993-.013-.02a11.8 11.8 0 0 0-.559-.77l-4.941-6.83-4.445 2.238-51.501-11.308c-7.142-1.567-13.726 2.232-16.133 9.311l-14.786 43.475-6.135 3.089 6.429 9.319c1.57 2.817 4.121 5.062 7.223 5.89l57.126 15.231c5.171 1.378 10.039-1.311 11.736-6.482l17.522-53.427c1.069-3.267.341-6.899-1.523-9.716Z" />
   <path fill="url(#u)"
      d="m238.445 153.529-17.529 53.425c-1.693 5.175-6.56 7.865-11.731 6.487l-57.126-15.231c-6.422-1.717-10.506-9.502-8.337-15.888l2.966-8.732 12.641-37.158c2.41-7.075 8.99-10.873 16.133-9.304l45.808 10.059 9.248 2.026c5.927 1.301 9.864 8.406 7.927 14.316Z" />
   <path fill="#fff"
      d="M221.985 149.546c-1.82 26.218-24.767 42.502-51.25 36.376-8.956-2.071-17.162-6.442-24.045-12.332l12.642-37.158c2.409-7.075 8.989-10.873 16.133-9.304l45.807 10.059a49.49 49.49 0 0 1 .713 12.359Z"
      opacity=".3" />
   <g stroke="#fff" stroke-miterlimit="10" opacity=".56">
      <path
         d="m225.138 152.56-11.773-1.889c-1.911-.307-3.672.817-4.282 2.73l-8.326 26.132c-.657 2.057-2.61 3.208-4.652 2.739l-18.698-4.307c-2.458-.566-4.307-2.951-4.369-5.634l-.434-18.549c-.058-2.514 1.957-4.338 4.266-3.855l30.394 6.345M186.434 179.219l3.432-25.733M173.806 163.252l29.26 6.284" />
      <path
         d="m196.833 182.398 1.486 5.233c.438 1.55-1.047 2.791-2.911 2.432l-18.785-3.623M183.394 195.427c1.809-.707 2.635-2.916 1.846-4.933-.789-2.016-2.895-3.078-4.703-2.371-1.809.708-2.635 2.916-1.846 4.933.789 2.017 2.895 3.079 4.703 2.371Z" />
   </g>
   <path fill="url(#v)"
      d="M331.772 303.044a5.216 5.216 0 0 1-.229-.081l-74.947-22.071c-.748-.279-1.158-.929-1.334-1.292-.176-.363-4.093-5.714-3.864-6.496l10.907-17.694c.708-2.405 2.828-3.634 5.062-3.943l71.974 15.091c.966 1.238 3.737 7.041 3.955 7.459.218.417.548 1.254.296 2.18l-7.242 24.208c-.596 2.213-2.478 3.298-4.578 2.639Z" />
   <path fill="url(#w)"
      d="M327.909 296.546a4.186 4.186 0 0 1-.23-.08l-74.947-22.072c-.748-.278-1.158-.928-1.334-1.291-.175-.363-.44-1.087-.209-1.869l7.162-23.285c.708-2.405 2.828-3.634 5.152-2.98l74.339 21.117c.873.274 1.372 1.016 1.59 1.434.219.417.548 1.254.296 2.18l-7.241 24.208c-.597 2.213-2.481 3.297-4.578 2.638Z" />
   <path fill="#FFFEFF"
      d="M279.002 264.599c-1.243 3.663-4.146 5.266-7.306 4.357-3.209-.921-4.238-3.961-3.158-7.143 1.136-3.347 4.055-5.255 7.248-4.34 3.321.953 4.26 4.044 3.216 7.126Zm-7.865-2.094c-.742 2.187-.27 4.015 1.367 4.485 1.652.474 3.151-.877 3.888-3.048.679-2.007.334-3.995-1.349-4.481-1.657-.476-3.169.873-3.906 3.044ZM283.21 259.969c.831.093 2.038.329 3.336.703 1.606.461 2.643 1.031 3.2 1.882.461.715.55 1.594.203 2.623-.483 1.425-1.795 2.122-2.844 2.203l-.018.048c.648.533.811 1.397.737 2.503-.091 1.357-.249 2.911-.184 3.403l-2.503-.719c-.069-.366-.018-1.352.129-2.819.182-1.475-.152-1.991-1.142-2.292l-.74-.211-1.49 4.391-2.422-.695 3.738-11.02Zm.793 5.502.962.276c1.22.35 2.156-.073 2.488-1.051.349-1.026-.152-1.734-1.27-2.073-.594-.171-.948-.218-1.135-.236l-1.045 3.084ZM293.527 262.93c.949.109 2.149.363 3.385.717 2.053.59 3.256 1.354 4.024 2.465.83 1.184 1.071 2.761.401 4.734-.726 2.138-1.98 3.396-3.332 4.008-1.472.65-3.362.617-5.48.009-1.267-.363-2.138-.704-2.719-.962l3.721-10.971Zm-.637 9.82c.192.109.528.207.833.294 2.209.652 4.08-.194 4.986-2.862.804-2.316-.096-3.919-2.198-4.522-.545-.156-.915-.21-1.14-.218l-2.481 7.308ZM309.794 274.51l-3.979-1.143-.9 2.652 4.445 1.276-.704 2.071-6.901-1.982 3.79-11.169 6.676 1.917-.704 2.071-4.219-1.211-.786 2.32 3.979 1.142-.697 2.056ZM314.867 269.057c.83.093 2.037.329 3.335.703 1.604.461 2.643 1.031 3.2 1.882.461.715.55 1.594.203 2.623-.483 1.425-1.795 2.122-2.844 2.202l-.018.049c.648.533.811 1.397.737 2.503-.091 1.356-.249 2.911-.184 3.403l-2.503-.719c-.069-.366-.018-1.352.129-2.82.182-1.474-.152-1.99-1.142-2.291l-.74-.211-1.49 4.391-2.422-.695 3.739-11.02Zm.792 5.502.962.276c1.221.35 2.156-.073 2.488-1.051.349-1.026-.152-1.735-1.27-2.073a6.1 6.1 0 0 0-1.135-.236l-1.045 3.084Z" />
   <g opacity=".35">
      <path fill="#4A0101"
         d="M444.916 234.632c4.45-24.874-27.844-51.46-72.13-59.382-44.287-7.923-83.795 5.819-88.245 30.693-4.449 24.873 27.845 51.46 72.131 59.382 44.286 7.923 83.794-5.819 88.244-30.693Z"
         opacity=".038" />
      <path fill="#480202"
         d="M442.796 234.254c4.333-24.217-27.108-50.101-70.223-57.814-43.116-7.713-81.58 5.666-85.912 29.882-4.332 24.217 27.108 50.101 70.224 57.813 43.115 7.713 81.579-5.665 85.911-29.881Z"
         opacity=".077" />
      <path fill="#460303"
         d="M440.677 233.871c4.214-23.558-26.373-48.738-68.317-56.241-41.945-7.504-79.365 5.511-83.579 29.068-4.214 23.558 26.372 48.738 68.317 56.242 41.945 7.503 79.365-5.511 83.579-29.069Z"
         opacity=".115" />
      <path fill="#440404"
         d="M438.555 233.492c4.097-22.901-25.635-47.378-66.408-54.672-40.773-7.294-77.147 5.358-81.244 28.258-4.097 22.901 25.635 47.378 66.408 54.672 40.773 7.294 77.147-5.358 81.244-28.258Z"
         opacity=".154" />
      <path fill="#420505"
         d="M436.435 233.113c3.979-22.243-24.899-46.018-64.501-53.102-39.603-7.085-74.932 5.204-78.911 27.447-3.979 22.243 24.899 46.018 64.501 53.102 39.602 7.084 74.932-5.204 78.911-27.447Z"
         opacity=".192" />
      <path fill="#400606"
         d="M434.316 232.738c3.861-21.585-24.164-44.657-62.595-51.532-38.432-6.875-72.717 5.05-76.579 26.636-3.861 21.585 24.164 44.657 62.595 51.532 38.432 6.875 72.717-5.05 76.579-26.636Z"
         opacity=".231" />
      <path fill="#3E0606"
         d="M432.196 232.356c3.744-20.927-23.428-43.295-60.689-49.961-37.26-6.666-70.501 4.896-74.245 25.823-3.744 20.927 23.428 43.295 60.689 49.961 37.26 6.665 70.501-4.896 74.245-25.823Z"
         opacity=".269" />
      <path fill="#3C0707"
         d="M430.076 231.977c3.626-20.269-22.691-41.935-58.781-48.391-36.091-6.456-68.287 4.742-71.913 25.011-3.626 20.27 22.691 41.936 58.782 48.392 36.09 6.456 68.286-4.742 71.912-25.012Z"
         opacity=".308" />
      <path fill="#3A0808"
         d="M427.955 231.596c3.508-19.612-21.955-40.575-56.873-46.822-34.918-6.246-66.07 4.589-69.578 24.201-3.508 19.612 21.954 40.575 56.873 46.822 34.918 6.246 66.069-4.589 69.578-24.201Z"
         opacity=".346" />
      <path fill="#380909"
         d="M425.835 231.217c3.391-18.955-21.219-39.215-54.966-45.252-33.748-6.037-63.855 4.435-67.245 23.39-3.391 18.955 21.218 39.215 54.965 45.252 33.748 6.037 63.855-4.435 67.246-23.39Z"
         opacity=".385" />
      <path fill="#360A0A"
         d="M423.715 230.839c3.274-18.298-20.482-37.855-53.059-43.683-32.577-5.828-61.639 4.281-64.912 22.579-3.274 18.297 20.482 37.855 53.059 43.682 32.577 5.828 61.639-4.281 64.912-22.578Z"
         opacity=".423" />
      <path fill="#340B0B"
         d="M421.596 230.46c3.155-17.639-19.747-36.492-51.153-42.111-31.406-5.618-59.424 4.127-62.58 21.766-3.155 17.639 19.747 36.492 51.153 42.111 31.406 5.618 59.424-4.127 62.58-21.766Z"
         opacity=".462" />
      <path fill="#330C0C"
         d="M419.476 230.082c3.038-16.982-19.01-35.133-49.246-40.542-30.236-5.409-57.209 3.973-60.247 20.954-3.038 16.982 19.01 35.133 49.246 40.542 30.236 5.409 57.209-3.973 60.247-20.954Z"
         opacity=".5" />
      <path fill="#310D0D"
         d="M417.354 229.702c2.921-16.324-18.273-33.772-47.337-38.971-29.063-5.2-54.991 3.819-57.912 20.143-2.92 16.324 18.273 33.772 47.337 38.972 29.064 5.199 54.992-3.82 57.912-20.144Z"
         opacity=".538" />
      <path fill="#2F0E0E"
         d="M415.235 229.322c2.802-15.667-17.538-32.413-45.431-37.403-27.893-4.989-52.776 3.666-55.579 19.333-2.803 15.667 17.537 32.412 45.43 37.402 27.893 4.99 52.777-3.666 55.58-19.332Z"
         opacity=".577" />
      <path fill="#2D0F0F"
         d="M413.115 228.941c2.685-15.008-16.801-31.05-43.524-35.83-26.722-4.781-50.561 3.511-53.246 18.519-2.685 15.008 16.801 31.05 43.524 35.83 26.722 4.781 50.561-3.511 53.246-18.519Z"
         opacity=".615" />
      <path fill="#2B1010"
         d="M410.995 228.566c2.568-14.35-16.065-29.69-41.617-34.261-25.551-4.571-48.346 3.358-50.914 17.708-2.567 14.351 16.066 29.691 41.617 34.261 25.552 4.571 48.347-3.357 50.914-17.708Z"
         opacity=".654" />
      <path fill="#291111"
         d="M408.874 228.185c2.449-13.693-15.329-28.33-39.708-32.691-24.38-4.361-46.13 3.204-48.579 16.897-2.45 13.694 15.328 28.33 39.708 32.691 24.379 4.362 46.129-3.204 48.579-16.897Z"
         opacity=".692" />
      <path fill="#271212"
         d="M406.754 227.806c2.332-13.036-14.592-26.969-37.801-31.121-23.209-4.152-43.914 3.05-46.247 16.086-2.332 13.036 14.593 26.97 37.802 31.122 23.209 4.152 43.914-3.051 46.246-16.087Z"
         opacity=".731" />
      <path fill="#251212"
         d="M404.635 227.426c2.214-12.378-13.857-25.608-35.895-29.55-22.039-3.942-41.699 2.896-43.914 15.273-2.214 12.378 13.857 25.608 35.895 29.55 22.039 3.942 41.699-2.895 43.914-15.273Z"
         opacity=".769" />
      <path fill="#231313"
         d="M402.515 227.049c2.097-11.72-13.12-24.247-33.988-27.98-20.867-3.733-39.484 2.742-41.58 14.462-2.097 11.72 13.12 24.247 33.988 27.98 20.867 3.733 39.484-2.742 41.58-14.462Z"
         opacity=".808" />
      <path fill="#211414"
         d="M400.396 226.667c1.979-11.063-12.384-22.888-32.082-26.411-19.697-3.524-37.268 2.588-39.247 13.651-1.98 11.062 12.384 22.887 32.081 26.411 19.697 3.523 37.269-2.589 39.248-13.651Z"
         opacity=".846" />
      <path fill="#1F1515"
         d="M398.274 226.291c1.862-10.405-11.647-21.527-30.172-24.841s-35.052 2.435-36.913 12.84c-1.862 10.406 11.647 21.527 30.172 24.841s35.052-2.434 36.913-12.84Z"
         opacity=".885" />
      <path fill="#1D1616"
         d="M396.155 225.911c1.744-9.748-10.911-20.168-28.266-23.272-17.354-3.105-32.836 2.281-34.58 12.029-1.744 9.748 10.911 20.167 28.265 23.272 17.355 3.104 32.837-2.281 34.581-12.029Z"
         opacity=".923" />
      <path fill="#1B1717"
         d="M394.036 225.534c1.626-9.089-10.176-18.805-26.36-21.7-16.183-2.895-30.621 2.126-32.247 11.216-1.626 9.089 10.175 18.805 26.359 21.7 16.184 2.895 30.622-2.126 32.248-11.216Z"
         opacity=".962" />
      <path fill="#191818"
         d="M391.916 225.152c1.509-8.433-9.439-17.445-24.452-20.131-15.013-2.686-28.407 1.973-29.915 10.405-1.508 8.432 9.439 17.445 24.452 20.13 15.013 2.686 28.407-1.972 29.915-10.404Z" />
   </g>
   <path fill="url(#x)"
      d="m304.672 124.309 72.525 16.971c5.798 1.356 9.301 7.268 7.706 13.006l-22.512 80.777c-1.555 5.587-7.322 8.876-12.92 7.371l-71.315-19.193c-5.585-1.503-8.856-7.288-7.264-12.849l22.715-79.585a9.303 9.303 0 0 1 11.065-6.498Z" />
   <path fill="url(#y)"
      d="m384.311 152.705-22.513 80.776c-1.554 5.587-7.319 8.874-12.922 7.369l-71.313-19.193a10.289 10.289 0 0 1-5.854-4.155 10.315 10.315 0 0 1-1.412-8.693l22.716-79.588c1.363-4.768 6.233-7.625 11.067-6.5l56.206 13.154 16.318 3.819c5.799 1.356 9.304 7.274 7.707 13.011Z" />
   <path fill="#fff"
      d="m299.116 143.111 71.881 18.27a4.652 4.652 0 0 1 3.338 5.745l-14.042 50.858a5.404 5.404 0 0 1-6.631 3.774l-69.721-19.039a5.887 5.887 0 0 1-4.124-7.25l13.557-49.023a4.741 4.741 0 0 1 5.742-3.335Z" />
   <path fill="#fff"
      d="M360.293 136.828c0 44.82-35.758 81.155-79.859 81.155a78.33 78.33 0 0 1-8.723-.481 10.315 10.315 0 0 1-1.411-8.693l22.715-79.588c1.363-4.768 6.233-7.625 11.067-6.5l56.207 13.154c.004.318.004.636.004.953Z"
      opacity=".3" />
   <path fill="url(#z)"
      d="M314.241 153.421s3.055-4.529 8.007 1.37c4.953 5.898 3.283 19.433 12.021 28.048 0 0 1.781 9.669-.642 10.934-2.423 1.264-12.748-4.142-14.013-7.549-1.265-3.407-5.373-21.952-5.373-21.952v-10.851Z" />
   <path fill="url(#A)"
      d="M314.241 153.424s-6.202 8.577-8.217 17.91c-2.015 9.332-3.899 21.809-3.899 21.809l4.03.886 6.44-20.174s7.502 20.23 10.471 23.846c2.968 3.617 18.927 8.153 22.118 7.313 3.191-.839 1.679-8.566-3.863-13.102-5.545-4.536-7.055-9.068-7.055-9.068s.167 6.939-4.536 6.743c-4.703-.194-10.808-8.542-9.802-19.199 1.009-10.658-5.687-16.964-5.687-16.964Z" />
   <path fill="url(#B)"
      d="m401.21 149.885 72.525 16.97c5.798 1.356 9.301 7.268 7.706 13.007l-22.512 80.776c-1.555 5.587-7.322 8.876-12.92 7.371l-71.315-19.19c-5.585-1.504-8.856-7.289-7.264-12.849l22.715-79.585a9.307 9.307 0 0 1 11.065-6.5Z" />
   <path fill="url(#C)"
      d="m400.62 148.3 72.524 16.97c5.799 1.356 9.302 7.268 7.707 13.007l-22.512 80.776c-1.555 5.587-7.322 8.876-12.92 7.371l-71.315-19.191c-5.585-1.503-8.856-7.288-7.264-12.848l22.715-79.585a9.3 9.3 0 0 1 11.065-6.5Z" />
   <path fill="#fff"
      d="m395.657 168.682 71.881 18.271a4.65 4.65 0 0 1 3.337 5.745l-14.042 50.857a5.403 5.403 0 0 1-6.631 3.775l-69.721-19.039a5.89 5.89 0 0 1-4.124-7.251l13.557-49.022a4.744 4.744 0 0 1 5.743-3.336Z" />
   <path fill="#fff"
      d="M456.929 162.517c0 44.821-35.758 81.155-79.859 81.155a78.33 78.33 0 0 1-8.723-.481 10.314 10.314 0 0 1-1.411-8.693l22.715-79.588c1.365-4.767 6.233-7.624 11.067-6.5l56.207 13.154c.004.316.004.637.004.953Z"
      opacity=".3" />
   <path fill="url(#D)"
      d="M421.354 182.457s2.093 7.948 8.497 9.11c6.407 1.163 13.176-2.73 13.176-2.73s9.567 1.534 10.232 5.124c.666 3.59 0 24.023 0 24.023l-10.23-4.149-5.976 22.435-35.809-10.967 7.765-27.585-8.594-1.8s8.527-14.32 12.156-15.318c3.632-.997 8.783 1.857 8.783 1.857Z" />
   <g fill="#fff" opacity=".68">
      <path
         d="m324.767 138.406-22.544-5.404a.6.6 0 0 1-.443-.722l.329-1.373a.602.602 0 0 1 .722-.444l22.544 5.405a.6.6 0 0 1 .443.721l-.33 1.374a.599.599 0 0 1-.721.443ZM333.286 146.579l-32.453-7.778a.6.6 0 0 1-.443-.722l.33-1.374a.6.6 0 0 1 .721-.443l32.453 7.778a.602.602 0 0 1 .444.722l-.33 1.374a.6.6 0 0 1-.722.443Z" />
   </g>
   <g fill="#fff" opacity=".68">
      <path
         d="m419.976 161.943-22.544-5.404a.601.601 0 0 1-.444-.721l.33-1.374a.601.601 0 0 1 .721-.444l22.544 5.405a.601.601 0 0 1 .444.721l-.33 1.374a.598.598 0 0 1-.721.443ZM428.495 170.12l-32.453-7.778a.6.6 0 0 1-.443-.722l.329-1.374a.602.602 0 0 1 .722-.443l32.453 7.778a.6.6 0 0 1 .443.722l-.329 1.374a.6.6 0 0 1-.722.443Z" />
   </g>
   <path fill="#fff"
      d="m296.867 212.578.935 2.087 2.249.409-1.692 1.535.305 2.266-1.984-1.135-2.06.989.468-2.238-1.579-1.653 2.274-.247 1.084-2.013ZM306.402 215.197l.938 2.085 2.249.411-1.695 1.535.305 2.264-1.984-1.135-2.06.991.468-2.238-1.577-1.655 2.272-.247 1.084-2.011ZM315.94 217.812l.937 2.087 2.247.41-1.693 1.536.306 2.265-1.985-1.136-2.059.989.467-2.238-1.578-1.652 2.273-.248 1.085-2.013ZM325.477 220.432l.935 2.084 2.249.412-1.694 1.534.305 2.265-1.982-1.136-2.062.991.467-2.238-1.576-1.654 2.271-.248 1.087-2.01ZM335.012 223.051l.937 2.084 2.247.41-1.692 1.536.305 2.265-1.984-1.136-2.06.989.468-2.238-1.579-1.652 2.273-.247 1.085-2.011ZM391.793 237.041l.935 2.084 2.249.41-1.692 1.536.303 2.265-1.982-1.136-2.06.989.468-2.236-1.579-1.654 2.273-.247 1.085-2.011ZM401.328 239.656l.938 2.087 2.249.409-1.695 1.535.305 2.267-1.984-1.138-2.06.991.468-2.238-1.577-1.655 2.272-.245 1.084-2.013ZM410.865 242.275l.938 2.085 2.247.409-1.693 1.537.305 2.265-1.984-1.136-2.059.989.467-2.236-1.579-1.655 2.274-.247 1.084-2.011ZM420.403 244.891l.935 2.086 2.249.41-1.695 1.534.305 2.267-1.981-1.136-2.062.989.467-2.238-1.576-1.652 2.271-.247 1.087-2.013ZM429.938 247.51l.937 2.084 2.247.412-1.692 1.534.305 2.265-1.984-1.136-2.06.991.467-2.238-1.578-1.654 2.273-.247 1.085-2.011Z" />
   <path fill="url(#E)"
      d="M170.615 385.564c-8.03 1.255-15.144 9.909-15.888 19.326-.744 9.417 5.164 16.033 13.194 14.777 15.808-2.474 15.144-9.909 15.888-19.326.744-9.418-5.164-16.036-13.194-14.777Zm7.248 15.705c-.438 5.567-4.645 10.682-9.392 11.426-4.748.743-8.239-3.169-7.801-8.736.439-5.567 4.645-10.682 9.393-11.426 4.747-.741 8.241 3.169 7.8 8.736Z" />
   <path fill="url(#F)"
      d="M174.421 388.954c-8.03 1.256-15.145 9.909-15.888 19.326-.744 9.417 5.164 16.033 13.193 14.777 8.03-1.256 15.145-9.909 15.888-19.326.746-9.417-5.161-16.033-13.193-14.777Zm7.25 15.708c-.439 5.566-4.645 10.681-9.392 11.425-4.748.744-8.24-3.169-7.801-8.736.439-5.567 4.645-10.681 9.393-11.425 4.747-.744 8.239 3.169 7.8 8.736Z" />
   <path fill="url(#G)"
      d="M174.819 405.732c-.225 2.85-2.378 5.467-4.807 5.848-2.43.381-4.218-1.621-3.993-4.472.225-2.85 2.378-5.466 4.808-5.847 2.429-.379 4.217 1.623 3.992 4.471Z" />
   <path fill="url(#H)" d="m164.523 410.264 2.52-1.737 1.675-.521-3.899 3.258-.296-1Z" />
   <path fill="url(#I)" d="m169.557 410.006-3.701 3.489-1.037-2.231 3.899-3.258.839 2Z" />
   <path fill="url(#J)" d="m174.579 410.185 1.256 3.768s1.933-1.316 2.576-2.984l-2.705-2.942-1.127 2.158Z" />
   <path fill="url(#K)" d="m172.666 411.165.884 3.142 2.283-.357-1.43-4.188-1.737 1.403Z" />
   <path fill="url(#L)" d="m167.938 399.3 2.031 3.204 2.365-1.307-1.251-4.386c0 .002-1.955 1.028-3.145 2.489Z" />
   <path fill="url(#M)" d="m167.097 400.425 1.512 2.156 1.36-.076-2.03-3.204-.842 1.124Z" />
   <path fill="url(#N)" d="m177.14 402.945 2.387-1.937s.819 1.574.539 3.097l-3.06 1.285.134-2.445Z" />
   <path fill="url(#O)" d="m179.527 401.008-2.292.18-1.997 1.902 1.646.325 2.643-2.407Z" />
   <path fill="url(#P)"
      d="M177.474 405.321c-.225 2.85-2.379 5.466-4.808 5.847-2.429.381-4.218-1.621-3.993-4.471.225-2.851 2.379-5.467 4.808-5.848 2.432-.381 4.217 1.621 3.993 4.472Z" />
   <path fill="url(#Q)"
      d="M89.965 359.36c-8.03 1.256-15.144 9.909-15.888 19.326-.744 9.417 5.164 16.033 13.194 14.777 15.808-2.474 15.144-9.909 15.888-19.326.744-9.417-5.164-16.033-13.194-14.777Zm7.248 15.708c-.438 5.567-4.645 10.682-9.392 11.425-4.748.744-8.24-3.168-7.8-8.735.438-5.567 4.644-10.682 9.392-11.426 4.747-.741 8.239 3.169 7.8 8.736Z" />
   <path fill="url(#R)"
      d="M93.77 362.755c-8.03 1.256-15.144 9.909-15.887 19.326-.744 9.417 5.163 16.033 13.193 14.777 8.03-1.256 15.145-9.909 15.888-19.326.744-9.419-5.161-16.035-13.193-14.777Zm7.251 15.706c-.439 5.567-4.645 10.681-9.392 11.425-4.748.744-8.24-3.169-7.8-8.735.438-5.567 4.644-10.682 9.392-11.426 4.747-.742 8.239 3.169 7.8 8.736Z" />
   <path fill="url(#S)"
      d="M94.17 379.533c-.226 2.851-2.379 5.467-4.808 5.848-2.43.381-4.218-1.621-3.993-4.471.225-2.851 2.378-5.467 4.808-5.848 2.429-.381 4.217 1.621 3.992 4.471Z" />
   <path fill="url(#T)" d="m83.873 384.061 2.52-1.735 1.675-.523-3.9 3.26-.295-1.002Z" />
   <path fill="url(#U)" d="m88.907 383.802-3.7 3.49-1.038-2.229 3.899-3.26.84 1.999Z" />
   <path fill="url(#V)" d="m93.927 383.982 1.256 3.768s1.932-1.316 2.576-2.984l-2.706-2.942-1.126 2.158Z" />
   <path fill="url(#W)" d="m92.016 384.961.884 3.142 2.282-.356-1.43-4.188-1.736 1.402Z" />
   <path fill="url(#X)" d="m87.289 373.097 2.03 3.204 2.365-1.307-1.251-4.387c0 .003-1.955 1.031-3.144 2.49Z" />
   <path fill="url(#Y)" d="m86.447 374.224 1.512 2.154 1.358-.074-2.028-3.206-.842 1.126Z" />
   <path fill="url(#Z)" d="m96.49 376.742 2.387-1.937s.82 1.574.539 3.097l-3.06 1.285.134-2.445Z" />
   <path fill="url(#aa)" d="m98.877 374.805-2.292.182-1.997 1.902 1.646.323 2.643-2.407Z" />
   <path fill="url(#ab)"
      d="M96.824 379.117c-.225 2.85-2.379 5.467-4.808 5.848-2.43.38-4.218-1.622-3.993-4.472.225-2.85 2.379-5.467 4.808-5.847 2.43-.379 4.218 1.623 3.993 4.471Z" />
   <path fill="#7F7B79" d="m180.676 232.758-.614 79.797 1.941.015.615-79.797-1.942-.015Z" />
   <path fill="#AAA8A7"
      d="M131.381 415.667c-2.144 0-4.286-.579-6.244-1.737-3.93-2.327-6.175-6.442-6.003-11.004l1.129-29.984 4.364.165-1.129 29.984c-.111 2.937 1.334 5.584 3.862 7.081 2.5 1.481 5.477 1.489 7.983.031l49.592-36.339c2.227-1.332 3.403-3.67 3.147-6.253-.256-2.583-1.871-4.643-4.316-5.511l-47.709-15.777c-6.758-2.398-14.115-1.668-20.228 1.991l-60.733 36.341c-3.906 2.336-8.578 2.347-12.492.029-3.917-2.318-6.153-6.42-5.982-10.969l1.132-30.06 4.364.165-1.131 30.06c-.11 2.921 1.325 5.555 3.841 7.045 2.516 1.49 5.516 1.483 8.025-.018l60.734-36.341a28.079 28.079 0 0 1 23.887-2.374l47.709 15.777c4.063 1.443 6.825 4.966 7.246 9.21.418 4.209-1.557 8.175-5.16 10.377l-49.513 36.294-.086.052c-1.967 1.178-4.129 1.765-6.289 1.765ZM62.188 235.773h-1.942v19.478h1.942v-19.478ZM86.964 230.842h-1.942v30.876h1.942v-30.876Z" />
   <path fill="#C9C9C9"
      d="m39.342 242.369-.802-3.799 86.985-18.333c2.73-.572 5.484-.55 8.188.067l63.871 14.566-.864 3.785-63.871-14.565a15.137 15.137 0 0 0-6.523-.054l-86.984 18.333Z" />
   <path fill="#7F7B79" d="m126.503 299.569-.419 1.896 71.316 15.738.418-1.896-71.315-15.738Z" />
   <path fill="#A67C52"
      d="M109.721 225.393h-1.942v41.823h1.942v-41.823ZM169.306 230.842h-1.942v20.288h1.942v-20.288ZM146.891 225.393h-1.942v79.434h1.942v-79.434Z" />
   <path fill="#7F7B79"
      d="m129.234 242.266-.41 1.898 70.976 15.344.411-1.898-70.977-15.344ZM129.86 262.244l-.406 1.899 70.359 15.014.405-1.899-70.358-15.014ZM128.47 282.079l-.405 1.9 70.358 15.014.406-1.899-70.359-15.015Z" />
   <path fill="#AAA8A7"
      d="m145.487 306.286-84.704 42.646.873 1.734 84.704-42.646-.873-1.734ZM112.877 346.391l-.58 1.853 30.006 9.395.58-1.853-30.006-9.395Z" />
   <path fill="#AAA8A7" d="m114.339 322.243-.5 1.876 57.762 15.418.5-1.876-57.762-15.418Z" />
   <path stroke="#AAA8A7" stroke-miterlimit="10"
      d="m127.638 221.766-.096 72.991a13.815 13.815 0 0 1-9.121 12.978l-81.389 29.416" />
   <path fill="#AAA8A7"
      d="m127.382 242.26-90.606 24.025.498 1.877 90.606-24.025-.498-1.877ZM127.323 267.08l-90.548 25.594.528 1.868 90.548-25.593-.528-1.869ZM87.73 362.292l-.985-1.674 22.335-13.129-76.267-29.015 75.637-24.642.599 1.846-70.405 22.938 74.907 28.496-25.821 15.18Z" />
   <path fill="url(#ac)" d="m99.574 219.68 66.343 18.979-6.801 96.317-66.376-25.764 6.834-89.532Z" />
   <path fill="url(#ad)" d="m165.917 238.656 8.865-5.732.002 88.541-8.869-1.556-6.799 15.064 6.801-96.317Z" />
   <path fill="url(#ae)" d="m99.574 219.677 11.499-5.988 63.709 19.235-8.865 5.732-66.343-18.979Z" />
   <path fill="url(#af)" d="m165.915 319.909 4.05-83.87 4.817-3.115.002 88.541-8.869-1.556Z" />
   <path fill="url(#ag)" d="m111.073 213.689-.401 9.164-11.098-3.176 11.499-5.988Z" />
   <path fill="url(#ah)"
      d="M118.284 235.244c0 2.126-1.613 3.567-3.603 3.217-1.991-.349-3.603-2.355-3.603-4.482 0-2.127 1.612-3.567 3.603-3.218 1.988.35 3.603 2.356 3.603 4.483Z" />
   <path fill="url(#ai)"
      d="M152.661 247.824c0 2.126-1.612 3.567-3.603 3.218-1.991-.35-3.603-2.356-3.603-4.483s1.612-3.567 3.603-3.218c1.991.35 3.603 2.356 3.603 4.483Z" />
   <path fill="#fff"
      d="M131.161 286.423a17.896 17.896 0 0 1-3.371-.946l-3.585-1.392c-8.175-3.173-13.791-12.16-13.063-20.907l2.385-28.663c.058-.699.646-1.123 1.307-.942.664.178 1.156.891 1.098 1.59l-2.385 28.663c-.619 7.451 4.164 15.109 11.13 17.812l3.585 1.392c4.168 1.619 8.504 1.314 11.893-.833 3.389-2.149 5.525-5.943 5.857-10.415l1.866-25.091c.053-.702.637-1.129 1.298-.958.663.172 1.16.88 1.109 1.581l-1.866 25.092c-.388 5.195-2.868 9.608-6.805 12.102-3.031 1.92-6.712 2.572-10.453 1.915Z" />
   <path fill="url(#aj)" d="m68.051 253.479 66.343 18.978-6.801 88.945-66.376-25.764 6.834-82.159Z" />
   <path fill="url(#ak)" d="m134.394 272.456 8.865-5.731.002 81.17-8.869-1.556-6.798 15.062 6.8-88.945Z" />
   <path fill="url(#al)" d="m68.052 253.478 11.499-5.988 63.708 19.235-8.865 5.732-66.343-18.979Z" />
   <path fill="url(#am)" d="m68.052 253.478 11.499-5.988 63.708 19.235-8.865 5.732-66.343-18.979Z" />
   <path fill="url(#an)" d="m134.392 346.339 4.05-76.499 4.817-3.115.002 81.17-8.869-1.556Z" />
   <path fill="url(#ao)" d="m134.392 346.339 4.05-76.499 4.817-3.115.002 81.17-8.869-1.556Z" />
   <path fill="url(#ap)" d="m79.55 247.49-.4 9.163-11.099-3.175 11.5-5.988Z" />
   <path fill="url(#aq)"
      d="M86.76 269.045c0 2.126-1.611 3.567-3.602 3.217-1.99-.349-3.603-2.356-3.603-4.482 0-2.127 1.612-3.568 3.603-3.218 1.99.35 3.603 2.356 3.603 4.483Z" />
   <path fill="url(#ar)"
      d="M121.138 281.625c0 2.126-1.612 3.567-3.603 3.217-1.991-.349-3.603-2.356-3.603-4.482 0-2.127 1.612-3.567 3.603-3.218 1.991.35 3.603 2.356 3.603 4.483Z" />
   <path fill="#fff"
      d="M99.638 320.226a17.883 17.883 0 0 1-3.371-.946l-3.585-1.392c-8.175-3.173-13.79-12.16-13.063-20.907l2.385-28.663c.058-.7.646-1.123 1.307-.942.664.178 1.156.89 1.098 1.59l-2.385 28.663c-.619 7.451 4.164 15.108 11.13 17.812l3.585 1.392c4.168 1.618 8.504 1.313 11.893-.833 3.389-2.147 5.525-5.944 5.857-10.415l1.866-25.091c.053-.702.636-1.129 1.298-.958.663.172 1.16.88 1.109 1.581l-1.866 25.092c-.388 5.195-2.868 9.608-6.805 12.102-3.031 1.92-6.712 2.572-10.453 1.915Z" />
   <path fill="#C9C9C9"
      d="M108.978 269.961h-.241a43.196 43.196 0 0 1-12.47-1.909l-58.253-17.894c-2.652-.815-4.349-3.224-4.222-5.999.127-2.772 2.036-5.017 4.75-5.589l.8 3.801c-1.479.312-1.653 1.583-1.668 1.964-.036.788.336 1.757 1.483 2.111l58.252 17.894a39.24 39.24 0 0 0 11.35 1.737 39.31 39.31 0 0 0 11.299-1.585l76.766-22.495c.749-.221 1.047-.728 1.163-1.116a1.878 1.878 0 0 0-.167-1.452c-.232-.398-.604-.659-1.105-.775l.871-3.783c1.545.354 2.819 1.28 3.592 2.605a5.752 5.752 0 0 1 .528 4.525c-.553 1.824-1.933 3.178-3.788 3.721l-76.769 22.495a43.254 43.254 0 0 1-12.171 1.744Z" />
   <path fill="#C9C9C9"
      d="M121.96 374.996c-1.779 0-3.576-.407-5.28-1.231-4.097-1.982-6.636-5.881-6.789-10.432l-3.082-95.251a1.932 1.932 0 0 1 .55-1.416 1.998 1.998 0 0 1 1.403-.588 39.384 39.384 0 0 0 11.298-1.586l76.767-22.495c.748-.22 1.046-.728 1.162-1.115.085-.281.232-.537.428-.751a1.94 1.94 0 0 1 3.529 1.116v64.599c0 8.079-3.879 15.77-10.375 20.573l-62.497 46.19c-2.139 1.581-4.611 2.387-7.114 2.387Zm-11.208-105.07 3.02 93.28c.105 3.079 1.824 5.72 4.598 7.063 2.775 1.343 5.915 1.051 8.395-.782l62.497-46.19a21.785 21.785 0 0 0 8.801-17.451v-60.17c-.049.015-.098.031-.147.044l-76.769 22.495a43.13 43.13 0 0 1-10.395 1.711Zm87.489-29.49c0 .002 0 .002 0 0 0 .002 0 .002 0 0Z" />
   <path fill="#C9C9C9"
      d="m116.017 373.366-68.073-23.31a20.944 20.944 0 0 1-14.158-19.814v-83.734h3.883v83.734a17.066 17.066 0 0 0 11.533 16.142l68.073 23.31-1.258 3.672Z" />
   <path fill="#C9C9C9" d="M62.188 255.256h-1.942v98.384h1.942v-98.384ZM86.964 262.865h-1.942v97.177h1.942v-97.177Z" />
   <path fill="#C9C9C9"
      d="m110.53 322.504-75.127-26.793.652-1.828 74.375 26.524 89.165-41.753.824 1.759-89.889 42.091Z" />
   <path fill="#C9C9C9"
      d="m36.026 267.105-.584 1.852 73.021 23.031.584-1.852-73.021-23.031ZM199.695 260.099l-89.52 30.016.618 1.841 89.519-30.016-.617-1.841ZM199.529 297.184l-88.686 48.199.927 1.706 88.686-48.199-.927-1.706Z" />
   <path fill="#C9C9C9"
      d="m142.816 259.45-1.942.019.981 100.597 1.942-.019-.981-100.597ZM174.757 250.77h-1.942v86.381h1.942V250.77ZM110.685 268.168l-3.872-.298 1.71-22.143a4.368 4.368 0 0 0-1.844-2.686 4.379 4.379 0 0 0-3.402-.65l-27.28 5.936c-2.539.553-5.191.444-7.674-.318l-31.908-9.214 1.14 6.506-3.825.67-1.465-8.374-27.592-7.966c-2.323-.71-3.795-2.79-3.697-5.186.098-2.396 1.74-4.347 4.082-4.856l20.905-4.55a5.907 5.907 0 0 1 4.587.875 5.911 5.911 0 0 1 2.545 3.917l2.574 14.706 33.76 9.747c1.878.574 3.853.656 5.741.245l27.281-5.937a8.227 8.227 0 0 1 6.393 1.22 8.234 8.234 0 0 1 3.547 5.458l.042.241-1.748 22.657Zm-83.45-49.381c-.15 0-.3.015-.446.049l-20.905 4.549c-.89.194-1.016.92-1.027 1.223-.013.303.052 1.037.922 1.302l25.74 7.431-2.247-12.837a2.059 2.059 0 0 0-.886-1.363 2.05 2.05 0 0 0-1.152-.354Z" />
   <path fill="#9B9B9B"
      d="m82.216 242.001-7.25 1.577c-1.726.376-3.532.3-5.266-.23L6.062 224.977c-.115-.035-.247-.075-.238-.334.011-.258.145-.289.265-.314l6.355-1.382a2.912 2.912 0 0 0 2.227-3.465 2.91 2.91 0 0 0-3.465-2.227l-6.355 1.383c-2.781.606-4.727 2.921-4.845 5.765-.118 2.844 1.63 5.313 4.395 6.159l30.552 8.821c-1.26 1.195-2.047 2.857-2.133 4.727a7.099 7.099 0 0 0 .242 2.198c-.16.361-.25.757-.25 1.178v17.017a2.914 2.914 0 0 0 5.826 0v-13.145l6.068 1.864a2.916 2.916 0 0 0 3.639-1.928 2.913 2.913 0 0 0-1.929-3.639l-6.976-2.144c-.73-.225-.815-.809-.8-1.138.018-.401.19-.909.9-1.06a2.91 2.91 0 0 0 2.18-1.982l26.32 7.598a16.184 16.184 0 0 0 8.164.338l7.25-1.576a2.91 2.91 0 1 0-1.238-5.69ZM121.929 375.94c2.73 0 5.438-.864 7.722-2.55l7.507-5.547a2.91 2.91 0 0 0 .61-4.073 2.911 2.911 0 0 0-4.073-.61l-7.506 5.547c-2.185 1.615-4.95 1.871-7.395.688-2.445-1.182-3.962-3.509-4.053-6.221l-.261-8.088a2.913 2.913 0 0 0-5.823.187l.261 8.092c.029.873.147 1.73.343 2.559l-9.161-3.138a2.912 2.912 0 1 0-1.886 5.511l14.267 4.886a2.9 2.9 0 0 0 .944.158c.205 0 .407-.029.603-.071a13.052 13.052 0 0 0 7.901 2.67ZM35.728 317.551a2.914 2.914 0 0 0-2.913 2.912v9.774A21.918 21.918 0 0 0 47.63 350.97l4.58 1.568a2.91 2.91 0 1 0 1.886-5.509l-4.58-1.57a16.09 16.09 0 0 1-10.878-15.222v-9.774a2.909 2.909 0 0 0-2.91-2.912ZM106.384 284.983a2.911 2.911 0 0 0 2.908 2.817c.031 0 .064 0 .096-.003a2.912 2.912 0 0 0 2.816-3.006l-.452-13.953a44.175 44.175 0 0 0 9.669-1.697l7.035-2.062a2.913 2.913 0 0 0-1.639-5.589l-7.033 2.06a38.572 38.572 0 0 1-11.02 1.548 38.38 38.38 0 0 1-11.07-1.695 2.914 2.914 0 0 0-3.64 1.928 2.91 2.91 0 0 0 1.928 3.639c3.24.995 6.574 1.61 9.943 1.841l.459 14.172ZM200.626 238.395a2.913 2.913 0 0 0-2.966 1.121 2.895 2.895 0 0 0-.599 1.077c-.074.243-.225.383-.508.466l-11.37 3.331a2.913 2.913 0 0 0 1.639 5.589l10.272-3.01v8.23a2.913 2.913 0 0 0 5.825 0v-13.958a2.914 2.914 0 0 0-2.293-2.846ZM200.007 294.35a2.913 2.913 0 0 0-2.913 2.912v8.58c0 6.547-3.144 12.78-8.406 16.67l-2.311 1.708a2.913 2.913 0 0 0 3.46 4.685l2.311-1.708c6.743-4.986 10.769-12.969 10.769-21.355v-8.58a2.91 2.91 0 0 0-2.91-2.912ZM59.87 375.853l-7.388 4.42c-2.276 1.363-4.997 1.367-7.28.018-2.282-1.352-3.584-3.741-3.484-6.391l.218-5.81a2.913 2.913 0 1 0-5.82-.218l-.219 5.809c-.183 4.821 2.187 9.166 6.337 11.622 2.067 1.225 4.332 1.835 6.594 1.835 2.282 0 4.565-.621 6.645-1.866l7.388-4.42a2.913 2.913 0 1 0-2.99-4.999ZM141.235 404.977l-6.288 4.61c-2.267 1.307-4.955 1.291-7.213-.047-2.296-1.359-3.605-3.761-3.505-6.429l.27-7.181a2.913 2.913 0 0 0-5.821-.219l-.27 7.182c-.182 4.834 2.196 9.194 6.36 11.659 2.073 1.227 4.345 1.842 6.616 1.842 2.291 0 4.58-.624 6.665-1.871l6.633-4.847a2.912 2.912 0 0 0 .628-4.071 2.918 2.918 0 0 0-4.075-.628Z" />
   <path fill="url(#as)"
      d="m431.892 41.468 99.188 19.72a4.464 4.464 0 0 1 3.812 5.696l-29.393 90.691a7.387 7.387 0 0 1-8.747 5.121l-95.895-21.435a5.238 5.238 0 0 1-3.843-6.611l27.628-88.359a6.818 6.818 0 0 1 7.25-4.823Z" />
   <path fill="url(#at)"
      d="m429.614 38.345 99.188 19.72a4.464 4.464 0 0 1 3.812 5.697l-29.393 90.69a7.388 7.388 0 0 1-8.747 5.122l-95.892-21.435a5.24 5.24 0 0 1-3.844-6.612l27.628-88.358a6.812 6.812 0 0 1 7.248-4.824Z" />
   <path fill="url(#au)"
      d="M496.276 78.066c.661 7.823-2.521 15.57-8.05 21.377-4.302 4.518-10.027 7.861-16.467 9.148-12.225 2.445-23.183-3.273-27.225-13.252a22.58 22.58 0 0 1-1.563-6.613c-1.182-13.915 9.793-27.579 24.517-30.525 14.719-2.942 27.605 5.95 28.788 19.865Z" />
   <path fill="#fff"
      d="M488.226 99.442c-4.302 4.519-10.027 7.861-16.467 9.148-12.225 2.445-23.183-3.273-27.225-13.252.408-1.04 3.387-6.669 20.01-6.15 16.746.523 23.116-.722 23.682 10.254Z" />
   <path fill="#fff"
      d="M480.174 66.286s.913-4.957-7.435-5.213c-8.348-.256-14.225 5.233-14.225 5.233s-.675 1.902.987 3.362c-.41 1.19-.898 2.735-.878 3.316.031.996.806 1.995.806 1.995s-1.02.435-1.512 2.612c-.492 2.178-1.318 7.89-1.011 9.137.308 1.247 3.058.806 3.058.806l-.764 2.663s.425 2.995 6.284 2.363c5.859-.633 7.404-2.944 7.404-2.944l2.449-8.366c1.898.154 6.425-4.723 7.362-8.769 1.045-4.52-2.525-6.195-2.525-6.195Z" />
   <path fill="url(#av)"
      d="m524.693 155.545-88.176-18.723c-2.904-.617-4.747-3.373-4.115-6.159l2.278-10.047c.632-2.786 3.498-4.543 6.402-3.926l88.176 18.723c2.904.616 4.748 3.373 4.115 6.159l-2.278 10.047c-.63 2.786-3.496 4.543-6.402 3.926Z" />
   <path fill="#C0C4C0"
      d="m488.753 139.258-49.39-10.488c-1.456-.31-2.389-1.706-2.073-3.102.316-1.396 1.768-2.287 3.224-1.978l49.39 10.489c1.457.309 2.39 1.705 2.073 3.101-.316 1.399-1.768 2.287-3.224 1.978Z" />
   <path fill="url(#aw)"
      d="m200.681 4.201 138.907 27.318c3.728.764 6.945 7.865 6.502 11.63l-17.13 52.388c-.533 4.523-4.761 7.46-9.215 6.402L181.041 67.967c-4.049-.962-9.217-7.199-8.34-11.223L194.047 8.48c.664-3.031 3.568-4.906 6.634-4.278Z" />
   <path fill="url(#ax)"
      d="m198.383.121 139.519 30.832c3.728.764 6.331 4.351 5.888 8.117l-17.131 52.387c-.532 4.523-4.761 7.46-9.214 6.402L178.741 63.887c-4.049-.962-6.67-5.086-5.792-9.11l18.8-50.38c.662-3.031 3.568-4.904 6.634-4.276Z" />
   <path fill="#fff"
      d="M242.643 34.216c1.044 5.897-.782 11.869-4.492 16.456-2.888 3.57-6.918 6.297-11.626 7.495-8.938 2.276-17.505-1.667-21.221-9.078a18.04 18.04 0 0 1-1.63-4.95c-1.862-10.489 5.353-21.21 16.117-23.95 10.76-2.74 20.99 3.539 22.852 14.027Z" />
   <path fill="url(#ay)"
      d="M238.153 50.671c-2.888 3.57-6.918 6.298-11.626 7.496-8.938 2.275-17.504-1.668-21.221-9.079.232-.802 2.053-5.164 14.476-5.35 12.517-.188 17.176-1.353 18.371 6.933Z" />
   <path fill="url(#az)"
      d="M229.816 25.865s.332-3.783-5.907-3.685c-6.24.098-10.232 4.453-10.232 4.453s-.368 1.463.973 2.51c-.221.913-.477 2.1-.421 2.538.093.753.741 1.481.741 1.481s-.73.365-.942 2.03c-.211 1.667-.425 6.016-.109 6.949.319.933 2.336.503 2.336.503l-.383 2.042s.528 2.251 4.85 1.57c4.32-.682 5.309-2.486 5.309-2.486l1.236-6.415c1.425.05 4.453-3.796 4.867-6.892.459-3.456-2.318-4.598-2.318-4.598Z" />
   <path fill="#FEFEFE"
      d="m317.817 48.408-50.722-11.24c-1.497-.332-2.568-1.76-2.381-3.173.187-1.415 1.564-2.299 3.06-1.969l50.722 11.24c1.496.333 2.567 1.76 2.38 3.174-.187 1.414-1.563 2.3-3.059 1.968ZM315.588 61.307l-50.722-11.24c-1.496-.333-2.568-1.76-2.38-3.174.187-1.414 1.563-2.298 3.059-1.969l50.722 11.241c1.496.332 2.567 1.76 2.38 3.173-.187 1.417-1.563 2.3-3.059 1.969ZM313.359 74.21l-50.722-11.242c-1.497-.331-2.568-1.759-2.381-3.173.187-1.414 1.564-2.298 3.06-1.968l50.722 11.24c1.496.332 2.567 1.76 2.38 3.174-.187 1.414-1.563 2.3-3.059 1.968Z"
      opacity=".5" />
   <path fill="url(#aA)"
      d="M326.648 375.139c1.405.014 119.12 38.666 119.12 38.666l22.949-86.352-119.594-35.295-22.475 82.981Z" />
   <path fill="url(#aB)" d="m349.121 292.162 40.147 67.153 79.449-31.858-22.949 86.352-119.12-38.668 22.473-82.979Z" />
   <path fill="url(#aC)" d="m389.268 359.314 59.604-23.902 13.494-53.125-87.007-21.916-12.196 55.278 26.105 43.665Z" />
   <path fill="#C0C4C0"
      d="m439.177 307.316-49.76-14.147c-1.467-.416-2.438-1.886-2.16-3.265.281-1.378 1.71-2.164 3.178-1.748l49.759 14.147c1.468.417 2.439 1.886 2.16 3.265-.28 1.378-1.71 2.164-3.177 1.748ZM436.099 319.863l-49.759-14.147c-1.468-.417-2.439-1.886-2.16-3.265.28-1.378 1.71-2.164 3.177-1.748l49.76 14.147c1.467.417 2.438 1.886 2.16 3.265-.281 1.378-1.71 2.164-3.178 1.748ZM433.022 332.406l-49.76-14.147c-1.467-.417-2.438-1.886-2.16-3.265.281-1.378 1.71-2.164 3.178-1.748l49.76 14.147c1.467.417 2.438 1.886 2.16 3.265-.281 1.378-1.711 2.166-3.178 1.748Z"
      opacity=".5" />
   <g opacity=".35">
      <path fill="#4A0101"
         d="M383.427 390.166c.608-13.21-32.565-25.469-74.095-27.382-41.529-1.912-75.689 7.246-76.297 20.456-.609 13.21 32.565 25.469 74.094 27.381 41.53 1.912 75.689-7.246 76.298-20.455Z"
         opacity=".038" />
      <path fill="#480202"
         d="M381.44 390.073c.593-12.861-31.704-24.796-72.137-26.658-40.432-1.862-73.69 7.055-74.282 19.916-.592 12.86 31.705 24.796 72.137 26.658 40.433 1.861 73.69-7.055 74.282-19.916Z"
         opacity=".077" />
      <path fill="#460303"
         d="M379.452 389.985c.576-12.511-30.844-24.121-70.178-25.932-39.334-1.812-71.688 6.862-72.264 19.372-.576 12.511 30.843 24.122 70.178 25.933 39.334 1.811 71.688-6.862 72.264-19.373Z"
         opacity=".115" />
      <path fill="#440404"
         d="M377.463 389.893c.56-12.162-29.982-23.449-68.218-25.21-38.236-1.76-69.687 6.671-70.247 18.833-.56 12.162 29.983 23.449 68.219 25.209 38.236 1.761 69.686-6.671 70.246-18.832Z"
         opacity=".154" />
      <path fill="#420505"
         d="M375.475 389.8c.544-11.813-29.121-22.776-66.259-24.486-37.138-1.71-67.685 6.48-68.229 18.293-.544 11.813 29.121 22.776 66.259 24.486 37.138 1.71 67.685-6.48 68.229-18.293Z"
         opacity=".192" />
      <path fill="#400606"
         d="M373.486 389.71c.528-11.463-28.26-22.101-64.299-23.76-36.04-1.66-65.684 6.287-66.212 17.75-.528 11.463 28.26 22.1 64.3 23.76 36.04 1.66 65.683-6.287 66.211-17.75Z"
         opacity=".231" />
      <path fill="#3E0606"
         d="M371.497 389.617c.512-11.114-27.398-21.428-62.34-23.037-34.941-1.609-63.681 6.097-64.193 17.21-.512 11.114 27.399 21.428 62.34 23.038 34.941 1.609 63.682-6.097 64.193-17.211Z"
         opacity=".269" />
      <path fill="#3C0707"
         d="M369.509 389.529c.496-10.765-26.538-20.755-60.381-22.314-33.843-1.558-61.68 5.905-62.176 16.67-.495 10.765 26.538 20.755 60.381 22.314 33.843 1.558 61.68-5.905 62.176-16.67Z"
         opacity=".308" />
      <path fill="#3A0808"
         d="M367.523 389.435c.479-10.415-25.678-20.08-58.424-21.588-32.746-1.508-59.681 5.712-60.16 16.127-.48 10.415 25.677 20.08 58.423 21.588 32.746 1.508 59.681-5.712 60.161-16.127Z"
         opacity=".346" />
      <path fill="#380909"
         d="M365.534 389.342c.464-10.066-24.816-19.407-56.464-20.865-31.648-1.457-57.679 5.522-58.143 15.588-.463 10.066 24.816 19.407 56.464 20.865 31.648 1.457 57.679-5.521 58.143-15.588Z"
         opacity=".385" />
      <path fill="#360A0A"
         d="M363.546 389.254c.447-9.717-23.955-18.735-54.505-20.142-30.55-1.407-55.678 5.33-56.125 15.047-.448 9.718 23.955 18.735 54.504 20.142 30.55 1.407 55.678-5.33 56.126-15.047Z"
         opacity=".423" />
      <path fill="#340B0B"
         d="M361.557 389.163c.431-9.368-23.094-18.062-52.545-19.418-29.452-1.356-53.676 5.139-54.108 14.507-.431 9.368 23.094 18.062 52.545 19.419 29.452 1.356 53.676-5.139 54.108-14.508Z"
         opacity=".462" />
      <path fill="#330C0C"
         d="M359.568 389.069c.416-9.018-22.232-17.387-50.585-18.693-28.354-1.305-51.675 4.947-52.09 13.965-.415 9.018 22.233 17.387 50.586 18.693 28.353 1.306 51.674-4.946 52.089-13.965Z"
         opacity=".5" />
      <path fill="#310D0D"
         d="M357.58 388.981c.399-8.67-21.372-16.715-48.626-17.97-27.255-1.255-49.673 4.755-50.072 13.425-.4 8.669 21.371 16.714 48.626 17.969 27.255 1.255 49.673-4.755 50.072-13.424Z"
         opacity=".538" />
      <path fill="#2F0E0E"
         d="M355.593 388.889c.384-8.321-20.511-16.042-46.669-17.247-26.157-1.205-47.673 4.564-48.056 12.884-.383 8.321 20.511 16.042 46.669 17.247 26.158 1.204 47.673-4.564 48.056-12.884Z"
         opacity=".577" />
      <path fill="#2D0F0F"
         d="M353.605 388.794c.367-7.97-19.65-15.367-44.71-16.521-25.059-1.154-45.671 4.372-46.039 12.342-.367 7.971 19.651 15.367 44.71 16.521 25.06 1.154 45.672-4.371 46.039-12.342Z"
         opacity=".615" />
      <path fill="#2B1010"
         d="M351.616 388.706c.351-7.622-18.789-14.694-42.75-15.798-23.961-1.103-43.67 4.181-44.021 11.802-.351 7.621 18.789 14.694 42.75 15.798 23.962 1.103 43.67-4.181 44.021-11.802Z"
         opacity=".654" />
      <path fill="#291111"
         d="M349.628 388.613c.335-7.272-17.928-14.021-40.791-15.074-22.863-1.053-41.669 3.989-42.003 11.262-.335 7.272 17.927 14.021 40.79 15.074 22.863 1.053 41.669-3.989 42.004-11.262Z"
         opacity=".692" />
      <path fill="#271212"
         d="M347.639 388.523c.319-6.922-17.066-13.346-38.831-14.349-21.765-1.002-39.667 3.797-39.986 10.72-.319 6.922 17.067 13.346 38.832 14.349 21.764 1.002 39.667-3.797 39.985-10.72Z"
         opacity=".731" />
      <path fill="#251212"
         d="M345.651 388.431c.303-6.574-16.205-12.674-36.872-13.626-20.666-.952-37.665 3.606-37.968 10.179-.303 6.574 16.205 12.674 36.872 13.626 20.666.952 37.665-3.606 37.968-10.179Z"
         opacity=".769" />
      <path fill="#231313"
         d="M343.662 388.34c.287-6.224-15.344-12.001-34.912-12.902-19.568-.901-35.664 3.414-35.951 9.639-.286 6.225 15.345 12.001 34.913 12.902 19.568.901 35.664-3.414 35.95-9.639Z"
         opacity=".808" />
      <path fill="#211414"
         d="M341.676 388.25c.271-5.874-14.484-11.326-32.955-12.177-18.471-.85-33.664 3.222-33.935 9.097-.271 5.874 14.484 11.326 32.955 12.177 18.472.85 33.665-3.222 33.935-9.097Z"
         opacity=".846" />
      <path fill="#1F1515"
         d="M339.688 388.158c.254-5.526-13.623-10.654-30.996-11.454-17.373-.8-31.663 3.031-31.917 8.557-.255 5.525 13.622 10.653 30.995 11.453 17.373.8 31.663-3.031 31.918-8.556Z"
         opacity=".885" />
      <path fill="#1D1616"
         d="M337.699 388.065c.239-5.176-12.761-9.981-29.036-10.73-16.275-.75-29.661 2.839-29.9 8.016-.238 5.177 12.762 9.981 29.037 10.731 16.274.749 29.661-2.84 29.899-8.017Z"
         opacity=".923" />
      <path fill="#1B1717"
         d="M335.711 387.973c.222-4.828-11.901-9.308-27.077-10.007-15.177-.699-27.66 2.648-27.882 7.476-.222 4.828 11.9 9.308 27.077 10.007 15.176.699 27.66-2.648 27.882-7.476Z"
         opacity=".962" />
      <path fill="#191818"
         d="M333.722 387.883c.207-4.478-11.039-8.634-25.117-9.282-14.078-.648-25.658 2.456-25.865 6.934-.206 4.478 11.04 8.633 25.118 9.281 14.078.649 25.658-2.456 25.864-6.933Z" />
   </g>
   <path fill="url(#aD)"
      d="m233.163 322.692 107.823 31.015c10.8 2.981 16.695 14.605 12.718 25.08l-.032.085c-4.589 12.087-17.718 18.593-30.115 14.926l-103.926-31.489c-10.519-3.113-16.089-14.588-12.027-24.778l1.064-2.67c3.868-9.708 14.421-14.95 24.495-12.169Z" />
   <path fill="url(#aE)"
      d="m230.832 317.684 107.823 31.015c10.8 2.981 16.694 14.605 12.717 25.08l-.031.085c-4.589 12.087-17.719 18.593-30.115 14.926l-103.927-31.489c-10.519-3.113-16.088-14.588-12.026-24.778l1.064-2.67c3.87-9.706 14.423-14.95 24.495-12.169Z" />
   <path stroke="#FF9C23" stroke-miterlimit="10"
      d="M325.479 384.24a19.557 19.557 0 0 1-4.643-.788l-100.067-30.32c-3.779-1.118-6.785-3.667-8.493-7.186-1.708-3.52-1.853-7.459-.403-11.093l1.024-2.572a15.533 15.533 0 0 1 18.563-9.224l103.803 29.859c3.917 1.082 7.055 3.645 8.872 7.231 1.819 3.585 2.033 7.629.606 11.387l-.032.083a19.53 19.53 0 0 1-19.23 12.623Z" />
   <path fill="url(#aF)"
      d="m229.703 330.438 2.222 5.099 5.46 1.06-4.162 3.687.679 5.523-4.794-2.819-5.041 2.351 1.2-5.431-3.795-4.068 5.536-.537 2.695-4.865Z" />
   <path fill="url(#aG)"
      d="m252.839 337.068 2.222 5.1 5.46 1.06-4.164 3.687.68 5.523-4.795-2.819-5.041 2.351 1.2-5.431-3.794-4.068 5.535-.537 2.697-4.866Z" />
   <path fill="url(#aH)"
      d="m275.973 343.699 2.222 5.1 5.46 1.06-4.164 3.689.68 5.521-4.795-2.82-5.041 2.354 1.2-5.433-3.794-4.066 5.535-.539 2.697-4.866Z" />
   <path fill="url(#aI)"
      d="m299.107 350.33 2.222 5.099 5.461 1.06-4.162 3.69.679 5.52-4.797-2.819-5.039 2.352 1.198-5.431-3.794-4.067 5.538-.538 2.694-4.866Z" />
   <path fill="url(#aJ)"
      d="m322.241 356.961 2.223 5.099 5.46 1.06-4.162 3.69.679 5.52-4.797-2.819-5.039 2.352 1.198-5.432-3.792-4.066 5.536-.539 2.694-4.865Z" />
   <defs>
      <linearGradient id="a" x1="374.94" x2="239.3" y1="159.172" y2="263.797" gradientUnits="userSpaceOnUse">
         <stop stop-color="#303030" />
         <stop offset=".333" stop-color="#535353" />
         <stop offset=".744" stop-color="#fff" />
         <stop offset=".921" stop-color="#6C6C6C" />
         <stop offset="1" stop-color="#727272" />
      </linearGradient>
      <linearGradient id="b" x1="218.245" x2="419.753" y1="166.429" y2="174.984" gradientUnits="userSpaceOnUse">
         <stop stop-color="#303030" />
         <stop offset="1" stop-color="#727272" />
      </linearGradient>
      <linearGradient id="c" x1="293.185" x2="371.662" y1="286.123" y2="104.654" gradientUnits="userSpaceOnUse">
         <stop stop-color="#0576DE" />
         <stop offset="1" stop-color="#173691" />
      </linearGradient>
      <linearGradient id="d" x1="346.718" x2="339.25" y1="325.236" y2="179.121" gradientUnits="userSpaceOnUse">
         <stop stop-color="#fff" />
         <stop offset="1" stop-color="#727272" />
      </linearGradient>
      <linearGradient id="e" x1="344.331" x2="280.907" y1="81.405" y2="131.396" gradientUnits="userSpaceOnUse">
         <stop stop-color="#F6F6F6" />
         <stop offset="1" stop-color="#ABABAB" />
      </linearGradient>
      <linearGradient id="f" x1="265.63" x2="273.411" y1="114.141" y2="66.795" gradientUnits="userSpaceOnUse">
         <stop stop-color="#DD2F2F" />
         <stop offset="1" stop-color="#FF6757" />
      </linearGradient>
      <linearGradient id="g" x1="282.369" x2="315.418" y1="97.154" y2="43.536" gradientUnits="userSpaceOnUse">
         <stop stop-color="#F6F6F6" />
         <stop offset="1" stop-color="#ABABAB" />
      </linearGradient>
      <linearGradient id="h" x1="303.973" x2="311.766" y1="121.115" y2="73.7" gradientUnits="userSpaceOnUse">
         <stop stop-color="#DD2F2F" />
         <stop offset="1" stop-color="#FF6757" />
      </linearGradient>
      <linearGradient id="i" x1="314.845" x2="347.983" y1="118.619" y2="64.856" gradientUnits="userSpaceOnUse">
         <stop stop-color="#F6F6F6" />
         <stop offset="1" stop-color="#ABABAB" />
      </linearGradient>
      <linearGradient id="j" x1="342.317" x2="350.12" y1="128.079" y2="80.601" gradientUnits="userSpaceOnUse">
         <stop stop-color="#DD2F2F" />
         <stop offset="1" stop-color="#FF6757" />
      </linearGradient>
      <linearGradient id="k" x1="347.29" x2="380.516" y1="140.148" y2="86.243" gradientUnits="userSpaceOnUse">
         <stop stop-color="#F6F6F6" />
         <stop offset="1" stop-color="#ABABAB" />
      </linearGradient>
      <linearGradient id="l" x1="380.661" x2="388.474" y1="135.038" y2="87.502" gradientUnits="userSpaceOnUse">
         <stop stop-color="#DD2F2F" />
         <stop offset="1" stop-color="#FF6757" />
      </linearGradient>
      <linearGradient id="m" x1="234.87" x2="246.424" y1="134.866" y2="87.476" gradientUnits="userSpaceOnUse">
         <stop stop-color="#DD2F2F" />
         <stop offset="1" stop-color="#FF6757" />
      </linearGradient>
      <linearGradient id="n" x1="254.697" x2="266.251" y1="139.655" y2="92.266" gradientUnits="userSpaceOnUse">
         <stop stop-color="#F6F6F6" />
         <stop offset="1" stop-color="#ABABAB" />
      </linearGradient>
      <linearGradient id="o" x1="274.524" x2="286.078" y1="144.444" y2="97.055" gradientUnits="userSpaceOnUse">
         <stop stop-color="#DD2F2F" />
         <stop offset="1" stop-color="#FF6757" />
      </linearGradient>
      <linearGradient id="p" x1="294.35" x2="305.904" y1="149.228" y2="101.838" gradientUnits="userSpaceOnUse">
         <stop stop-color="#F6F6F6" />
         <stop offset="1" stop-color="#ABABAB" />
      </linearGradient>
      <linearGradient id="q" x1="314.177" x2="325.731" y1="154.016" y2="106.627" gradientUnits="userSpaceOnUse">
         <stop stop-color="#DD2F2F" />
         <stop offset="1" stop-color="#FF6757" />
      </linearGradient>
      <linearGradient id="r" x1="334.003" x2="345.557" y1="158.806" y2="111.416" gradientUnits="userSpaceOnUse">
         <stop stop-color="#F6F6F6" />
         <stop offset="1" stop-color="#ABABAB" />
      </linearGradient>
      <linearGradient id="s" x1="353.83" x2="365.384" y1="163.595" y2="116.205" gradientUnits="userSpaceOnUse">
         <stop stop-color="#DD2F2F" />
         <stop offset="1" stop-color="#FF6757" />
      </linearGradient>
      <linearGradient id="t" x1="184.894" x2="221.687" y1="189.732" y2="157.522" gradientUnits="userSpaceOnUse">
         <stop stop-color="#DD2F2F" />
         <stop offset="1" stop-color="#FF6757" />
      </linearGradient>
      <linearGradient id="u" x1="184.25" x2="189.494" y1="138.716" y2="187.098" gradientUnits="userSpaceOnUse">
         <stop stop-color="#DD2F2F" />
         <stop offset="1" stop-color="#FF6757" />
      </linearGradient>
      <linearGradient id="v" x1="325.951" x2="288.845" y1="259.394" y2="284.779" gradientUnits="userSpaceOnUse">
         <stop stop-color="#DD2F2F" />
         <stop offset="1" stop-color="#FF6757" />
      </linearGradient>
      <linearGradient id="w" x1="251.679" x2="340.124" y1="258.125" y2="261.88" gradientUnits="userSpaceOnUse">
         <stop stop-color="#DD2F2F" />
         <stop offset="1" stop-color="#FF6757" />
      </linearGradient>
      <linearGradient id="x" x1="399.655" x2="249.758" y1="173.851" y2="193.731" gradientUnits="userSpaceOnUse">
         <stop stop-color="#206751" />
         <stop offset="1" stop-color="#0BA2B3" />
      </linearGradient>
      <linearGradient id="y" x1="399.063" x2="249.167" y1="172.268" y2="192.147" gradientUnits="userSpaceOnUse">
         <stop stop-color="#F9BF1E" />
         <stop offset="1" stop-color="#F79C45" />
      </linearGradient>
      <linearGradient id="z" x1="314.24" x2="334.898" y1="172.86" y2="172.86" gradientUnits="userSpaceOnUse">
         <stop stop-color="#FE7F0A" />
         <stop offset="1" stop-color="#FFB538" />
      </linearGradient>
      <linearGradient id="A" x1="347.561" x2="294.509" y1="176.862" y2="183.897" gradientUnits="userSpaceOnUse">
         <stop stop-color="#303030" />
         <stop offset="1" stop-color="#727272" />
      </linearGradient>
      <linearGradient id="B" x1="496.194" x2="346.297" y1="199.428" y2="219.308" gradientUnits="userSpaceOnUse">
         <stop stop-color="#206751" />
         <stop offset="1" stop-color="#0BA2B3" />
      </linearGradient>
      <linearGradient id="C" x1="495.603" x2="345.706" y1="197.841" y2="217.72" gradientUnits="userSpaceOnUse">
         <stop stop-color="#3ABAF9" />
         <stop offset="1" stop-color="#B1E4FD" />
      </linearGradient>
      <linearGradient id="D" x1="400.416" x2="453.555" y1="208.329" y2="208.329" gradientUnits="userSpaceOnUse">
         <stop stop-color="#82FB7C" />
         <stop offset="1" stop-color="#0BA2B3" />
      </linearGradient>
      <linearGradient id="E" x1="172.634" x2="171.362" y1="394.413" y2="408.869" gradientUnits="userSpaceOnUse">
         <stop stop-color="#303030" />
         <stop offset="1" stop-color="#727272" />
      </linearGradient>
      <linearGradient id="F" x1="158.527" x2="187.287" y1="408.282" y2="409.854" gradientUnits="userSpaceOnUse">
         <stop stop-color="#303030" />
         <stop offset="1" stop-color="#727272" />
      </linearGradient>
      <linearGradient id="G" x1="166.018" x2="174.72" y1="407.11" y2="407.585" gradientUnits="userSpaceOnUse">
         <stop stop-color="#303030" />
         <stop offset="1" stop-color="#727272" />
      </linearGradient>
      <linearGradient id="H" x1="164.539" x2="168.598" y1="409.983" y2="410.205" gradientUnits="userSpaceOnUse">
         <stop stop-color="#303030" />
         <stop offset="1" stop-color="#727272" />
      </linearGradient>
      <linearGradient id="I" x1="164.826" x2="169.483" y1="411.135" y2="411.389" gradientUnits="userSpaceOnUse">
         <stop stop-color="#303030" />
         <stop offset="1" stop-color="#727272" />
      </linearGradient>
      <linearGradient id="J" x1="174.908" x2="177.547" y1="407.358" y2="412.337" gradientUnits="userSpaceOnUse">
         <stop stop-color="#303030" />
         <stop offset="1" stop-color="#727272" />
      </linearGradient>
      <linearGradient id="K" x1="173.654" x2="175.479" y1="409.18" y2="414.516" gradientUnits="userSpaceOnUse">
         <stop stop-color="#303030" />
         <stop offset="1" stop-color="#727272" />
      </linearGradient>
      <linearGradient id="L" x1="169.038" x2="171.284" y1="396.968" y2="401.206" gradientUnits="userSpaceOnUse">
         <stop stop-color="#303030" />
         <stop offset="1" stop-color="#727272" />
      </linearGradient>
      <linearGradient id="M" x1="168.999" x2="167.095" y1="403.082" y2="398.616" gradientUnits="userSpaceOnUse">
         <stop stop-color="#303030" />
         <stop offset="1" stop-color="#727272" />
      </linearGradient>
      <linearGradient id="N" x1="178.772" x2="177.216" y1="404.789" y2="401.14" gradientUnits="userSpaceOnUse">
         <stop stop-color="#303030" />
         <stop offset="1" stop-color="#727272" />
      </linearGradient>
      <linearGradient id="O" x1="178.263" x2="177.033" y1="400.866" y2="403.233" gradientUnits="userSpaceOnUse">
         <stop stop-color="#303030" />
         <stop offset="1" stop-color="#727272" />
      </linearGradient>
      <linearGradient id="P" x1="168.673" x2="177.374" y1="406.697" y2="407.173" gradientUnits="userSpaceOnUse">
         <stop stop-color="#303030" />
         <stop offset="1" stop-color="#727272" />
      </linearGradient>
      <linearGradient id="Q" x1="91.984" x2="90.712" y1="368.211" y2="382.666" gradientUnits="userSpaceOnUse">
         <stop stop-color="#303030" />
         <stop offset="1" stop-color="#727272" />
      </linearGradient>
      <linearGradient id="R" x1="77.877" x2="106.637" y1="382.083" y2="383.655" gradientUnits="userSpaceOnUse">
         <stop stop-color="#303030" />
         <stop offset="1" stop-color="#727272" />
      </linearGradient>
      <linearGradient id="S" x1="85.368" x2="94.07" y1="380.91" y2="381.385" gradientUnits="userSpaceOnUse">
         <stop stop-color="#303030" />
         <stop offset="1" stop-color="#727272" />
      </linearGradient>
      <linearGradient id="T" x1="83.889" x2="87.948" y1="383.781" y2="384.003" gradientUnits="userSpaceOnUse">
         <stop stop-color="#303030" />
         <stop offset="1" stop-color="#727272" />
      </linearGradient>
      <linearGradient id="U" x1="84.176" x2="88.833" y1="384.933" y2="385.187" gradientUnits="userSpaceOnUse">
         <stop stop-color="#303030" />
         <stop offset="1" stop-color="#727272" />
      </linearGradient>
      <linearGradient id="V" x1="94.258" x2="96.897" y1="381.156" y2="386.135" gradientUnits="userSpaceOnUse">
         <stop stop-color="#303030" />
         <stop offset="1" stop-color="#727272" />
      </linearGradient>
      <linearGradient id="W" x1="93.004" x2="94.829" y1="382.978" y2="388.314" gradientUnits="userSpaceOnUse">
         <stop stop-color="#303030" />
         <stop offset="1" stop-color="#727272" />
      </linearGradient>
      <linearGradient id="X" x1="88.388" x2="90.634" y1="370.766" y2="375.004" gradientUnits="userSpaceOnUse">
         <stop stop-color="#303030" />
         <stop offset="1" stop-color="#727272" />
      </linearGradient>
      <linearGradient id="Y" x1="88.349" x2="86.445" y1="376.88" y2="372.414" gradientUnits="userSpaceOnUse">
         <stop stop-color="#303030" />
         <stop offset="1" stop-color="#727272" />
      </linearGradient>
      <linearGradient id="Z" x1="98.122" x2="96.565" y1="378.588" y2="374.938" gradientUnits="userSpaceOnUse">
         <stop stop-color="#303030" />
         <stop offset="1" stop-color="#727272" />
      </linearGradient>
      <linearGradient id="aa" x1="97.613" x2="96.383" y1="374.664" y2="377.031" gradientUnits="userSpaceOnUse">
         <stop stop-color="#303030" />
         <stop offset="1" stop-color="#727272" />
      </linearGradient>
      <linearGradient id="ab" x1="88.023" x2="96.724" y1="380.494" y2="380.97" gradientUnits="userSpaceOnUse">
         <stop stop-color="#303030" />
         <stop offset="1" stop-color="#727272" />
      </linearGradient>
      <linearGradient id="ac" x1="139.894" x2="105.641" y1="227.392" y2="311.299" gradientUnits="userSpaceOnUse">
         <stop stop-color="#FE7F0A" />
         <stop offset="1" stop-color="#FFB538" />
      </linearGradient>
      <linearGradient id="ad" x1="154.645" x2="196.556" y1="325.004" y2="249.029" gradientUnits="userSpaceOnUse">
         <stop stop-color="#FE7F0A" />
         <stop offset="1" stop-color="#FFB538" />
      </linearGradient>
      <linearGradient id="ae" x1="138.9" x2="131.241" y1="215.31" y2="237.209" gradientUnits="userSpaceOnUse">
         <stop stop-color="#FE7F0A" />
         <stop offset="1" stop-color="#FFB538" />
      </linearGradient>
      <linearGradient id="af" x1="161.097" x2="195.884" y1="311.024" y2="247.962" gradientUnits="userSpaceOnUse">
         <stop stop-color="#FE7F0A" />
         <stop offset="1" stop-color="#FFB538" />
      </linearGradient>
      <linearGradient id="ag" x1="104.936" x2="109.606" y1="221.801" y2="213.336" gradientUnits="userSpaceOnUse">
         <stop stop-color="#FE7F0A" />
         <stop offset="1" stop-color="#FFB538" />
      </linearGradient>
      <linearGradient id="ah" x1="111.078" x2="118.283" y1="233.98" y2="233.98" gradientUnits="userSpaceOnUse">
         <stop stop-color="#DD2F2F" />
         <stop offset="1" stop-color="#FF6757" />
      </linearGradient>
      <linearGradient id="ai" x1="145.455" x2="152.661" y1="246.56" y2="246.56" gradientUnits="userSpaceOnUse">
         <stop stop-color="#DD2F2F" />
         <stop offset="1" stop-color="#FF6757" />
      </linearGradient>
      <linearGradient id="aj" x1="88.519" x2="118.609" y1="343.909" y2="276.041" gradientUnits="userSpaceOnUse">
         <stop stop-color="#0576DE" />
         <stop offset="1" stop-color="#6182E6" />
      </linearGradient>
      <linearGradient id="ak" x1="133.439" x2="163.536" y1="346.055" y2="329.487" gradientUnits="userSpaceOnUse">
         <stop stop-color="#0576DE" />
         <stop offset="1" stop-color="#2352DC" />
      </linearGradient>
      <linearGradient id="al" x1="107.378" x2="99.718" y1="249.111" y2="271.01" gradientUnits="userSpaceOnUse">
         <stop stop-color="#82FB7C" />
         <stop offset="1" stop-color="#0BA2B3" />
      </linearGradient>
      <linearGradient id="am" x1="96.111" x2="97.967" y1="268.41" y2="249.809" gradientUnits="userSpaceOnUse">
         <stop stop-color="#0576DE" />
         <stop offset="1" stop-color="#6182E6" />
      </linearGradient>
      <linearGradient id="an" x1="130.508" x2="162.504" y1="338.468" y2="280.466" gradientUnits="userSpaceOnUse">
         <stop stop-color="#206751" />
         <stop offset="1" stop-color="#0BA2B3" />
      </linearGradient>
      <linearGradient id="ao" x1="137.701" x2="157.31" y1="334.739" y2="327.611" gradientUnits="userSpaceOnUse">
         <stop stop-color="#0576DE" />
         <stop offset="1" stop-color="#6182E6" />
      </linearGradient>
      <linearGradient id="ap" x1="72.342" x2="73.904" y1="255.168" y2="248.647" gradientUnits="userSpaceOnUse">
         <stop stop-color="#0576DE" />
         <stop offset="1" stop-color="#849EEB" />
      </linearGradient>
      <linearGradient id="aq" x1="82.243" x2="83.972" y1="271.05" y2="265.74" gradientUnits="userSpaceOnUse">
         <stop stop-color="#0576DE" />
         <stop offset="1" stop-color="#849EEB" />
      </linearGradient>
      <linearGradient id="ar" x1="116.621" x2="118.349" y1="283.63" y2="278.32" gradientUnits="userSpaceOnUse">
         <stop stop-color="#0576DE" />
         <stop offset="1" stop-color="#849EEB" />
      </linearGradient>
      <linearGradient id="as" x1="543.853" x2="400.26" y1="62.599" y2="134.505" gradientUnits="userSpaceOnUse">
         <stop stop-color="#966011" />
         <stop offset="1" stop-color="#F79C45" />
      </linearGradient>
      <linearGradient id="at" x1="391.511" x2="536.052" y1="107.19" y2="90.59" gradientUnits="userSpaceOnUse">
         <stop stop-color="#F9BF1E" />
         <stop offset="1" stop-color="#F79C45" />
      </linearGradient>
      <linearGradient id="au" x1="474.458" x2="463.24" y1="100.805" y2="67.838" gradientUnits="userSpaceOnUse">
         <stop stop-color="#DD2F2F" />
         <stop offset="1" stop-color="#FF6757" />
      </linearGradient>
      <linearGradient id="av" x1="433.543" x2="531.928" y1="125.64" y2="147.955" gradientUnits="userSpaceOnUse">
         <stop stop-color="#FCFCFC" />
         <stop offset="1" stop-color="#DCDCDC" />
      </linearGradient>
      <linearGradient id="aw" x1="332.051" x2="212.781" y1="54.474" y2="57.97" gradientUnits="userSpaceOnUse">
         <stop stop-color="#82FB7C" />
         <stop offset="1" stop-color="#0BA2B3" />
      </linearGradient>
      <linearGradient id="ax" x1="236.601" x2="248.954" y1="82.178" y2="10.51" gradientUnits="userSpaceOnUse">
         <stop stop-color="#1089FA" />
         <stop offset="1" stop-color="#6989E7" />
      </linearGradient>
      <linearGradient id="ay" x1="206.23" x2="237.443" y1="53.543" y2="47.07" gradientUnits="userSpaceOnUse">
         <stop stop-color="#303030" />
         <stop offset="1" stop-color="#4C4A4B" />
      </linearGradient>
      <linearGradient id="az" x1="212.583" x2="232.676" y1="35.75" y2="31.583" gradientUnits="userSpaceOnUse">
         <stop stop-color="#303030" />
         <stop offset="1" stop-color="#4C4A4B" />
      </linearGradient>
      <linearGradient id="aA" x1="324.563" x2="470.453" y1="360.315" y2="339.807" gradientUnits="userSpaceOnUse">
         <stop stop-color="#FFECCA" />
         <stop offset="1" stop-color="#CE9849" />
      </linearGradient>
      <linearGradient id="aB" x1="404.76" x2="379.042" y1="334.858" y2="393.048" gradientUnits="userSpaceOnUse">
         <stop stop-color="#FFECCA" />
         <stop offset="1" stop-color="#CE9849" />
      </linearGradient>
      <linearGradient id="aC" x1="412.977" x2="387.524" y1="295.758" y2="353.347" gradientUnits="userSpaceOnUse">
         <stop stop-color="#FCFCFC" />
         <stop offset="1" stop-color="#DCDCDC" />
      </linearGradient>
      <linearGradient id="aD" x1="366.683" x2="186.581" y1="350.99" y2="366.215" gradientUnits="userSpaceOnUse">
         <stop stop-color="#B0B0B0" />
         <stop offset="1" stop-color="#F6F6F6" />
      </linearGradient>
      <linearGradient id="aE" x1="203.423" x2="353.117" y1="349.889" y2="357.007" gradientUnits="userSpaceOnUse">
         <stop stop-color="#F6F6F6" />
         <stop offset="1" stop-color="#fff" />
      </linearGradient>
      <linearGradient id="aF" x1="238.919" x2="219.43" y1="337.52" y2="339.167" gradientUnits="userSpaceOnUse">
         <stop stop-color="#FE7F0A" />
         <stop offset="1" stop-color="#FFB538" />
      </linearGradient>
      <linearGradient id="aG" x1="262.054" x2="242.565" y1="344.15" y2="345.798" gradientUnits="userSpaceOnUse">
         <stop stop-color="#FE7F0A" />
         <stop offset="1" stop-color="#FFB538" />
      </linearGradient>
      <linearGradient id="aH" x1="285.188" x2="265.699" y1="350.783" y2="352.431" gradientUnits="userSpaceOnUse">
         <stop stop-color="#FE7F0A" />
         <stop offset="1" stop-color="#FFB538" />
      </linearGradient>
      <linearGradient id="aI" x1="308.323" x2="288.834" y1="357.414" y2="359.061" gradientUnits="userSpaceOnUse">
         <stop stop-color="#FE7F0A" />
         <stop offset="1" stop-color="#FFB538" />
      </linearGradient>
      <linearGradient id="aJ" x1="331.457" x2="311.968" y1="364.044" y2="365.692" gradientUnits="userSpaceOnUse">
         <stop stop-color="#FE7F0A" />
         <stop offset="1" stop-color="#FFB538" />
      </linearGradient>
   </defs>
</svg>