<svg xmlns="http://www.w3.org/2000/svg" width="517" height="404" fill="none">
   <path fill="#000"
      d="M258.1 403.722c142.545 0 258.1-8.646 258.1-19.312s-115.555-19.312-258.1-19.312C115.555 365.098 0 373.744 0 384.41s115.555 19.312 258.1 19.312Z"
      opacity=".15" />
   <path fill="url(#a)"
      d="M370.487 145.72s26.832-32.882 34.659-37.36c7.828-4.478 10.255-4.683 20.953-.068 10.699 4.614 11.827-12.032 24.269-8.887 12.441 3.144 9.844 1.538 16.201-1.06 6.358-2.598 10.391-4.717 18.697 5.537 0 0 2.598 2.256 13.536 4.17 10.938 1.915 9.878 11.759-4.341 18.219-14.219 6.426-.479 14.834-23.448 17.09 0 0-6.289-1.88-9.297 8.033-3.008 9.912-24.166 1.025-26.696 2.734-2.495 1.675-7.759 16.441-24.2 8.306-16.475-8.169-40.333-16.714-40.333-16.714Z" />
   <path fill="url(#b)"
      d="M374.315 144.9c11.041-2.495 21.979-5.161 32.917-7.827l16.406-4.033c5.469-1.299 10.938-2.666 16.407-3.965 10.938-2.598 21.876-5.23 32.882-7.588l4.102-.923 4.136-.855 4.136-.854c.683-.137 1.367-.308 2.051-.445l2.085-.376c2.768-.512 5.537-1.059 8.306-1.572l4.17-.684c1.401-.239 2.768-.478 4.17-.717-1.402.034-2.837.102-4.239.136l-4.238.205c-.718.035-1.401.103-2.119.171l-2.119.205-4.239.411-2.119.205c-.718.068-1.402.171-2.119.273l-4.205.581-4.204.581a152.41 152.41 0 0 0-4.17.684c-11.177 1.811-22.218 4.204-33.224 6.836l-4.101.991c-1.368.342-2.735.65-4.102 1.026l-8.204 2.153c-5.434 1.504-10.869 3.008-16.304 4.649-2.7.786-5.4 1.64-8.101 2.495a718.51 718.51 0 0 0-8.066 2.598c-5.264 1.777-10.631 3.589-15.895 5.639Z" />
   <path fill="url(#c)"
      d="M463.63 142.813c-1.299-1.983-2.803-3.794-4.375-5.537a43.7 43.7 0 0 0-5.23-4.82c-.957-.718-1.914-1.435-2.905-2.085-1.026-.649-2.051-1.265-3.145-1.777a36.927 36.927 0 0 0-3.384-1.402c-1.162-.376-2.358-.683-3.623-.854l.547 2.256c.581-.41 1.128-.821 1.675-1.265a28.51 28.51 0 0 0 1.572-1.299c1.06-.889 2.051-1.811 3.042-2.734a57.37 57.37 0 0 0 2.837-2.94 45.548 45.548 0 0 0 2.598-3.179c1.641-2.187 3.11-4.546 4.17-7.109 1.06-2.53 1.675-5.333 1.367-8.033-.068.342-.102.684-.137.991-.034.342-.136.65-.205.992-.068.341-.171.649-.239.957l-.137.478c-.034.171-.102.308-.171.479-.136.307-.205.615-.341.923l-.376.888c-.308.581-.581 1.163-.923 1.744-1.265 2.29-2.871 4.375-4.58 6.391-1.71 1.983-3.589 3.863-5.538 5.64-.957.889-1.982 1.743-2.974 2.598l-1.538 1.231c-.512.41-1.059.82-1.538 1.196l-2.495 1.811 3.042.445c1.094.171 2.153.376 3.213.683 1.06.342 2.119.718 3.145 1.163 2.051.922 4.033 2.05 5.947 3.281 1.914 1.265 3.76 2.666 5.538 4.136 1.777 1.572 3.486 3.11 5.161 4.751Z" />
   <path fill="url(#d)"
      d="M486.087 130.886c-.342-.684-.752-1.299-1.163-1.949-.41-.615-.888-1.23-1.367-1.811a32.027 32.027 0 0 0-3.145-3.316 23.941 23.941 0 0 0-3.691-2.734l-.991-.581c-.342-.171-.684-.342-1.06-.513l-.513-.239c-.171-.069-.376-.137-.547-.205l-1.093-.411.171 1.778c.239-.137.376-.239.581-.342.171-.102.341-.239.512-.376.171-.137.342-.239.479-.376.171-.137.308-.273.478-.376l.445-.41.444-.41c.308-.274.581-.581.855-.855a24.099 24.099 0 0 0 2.871-3.862c.41-.684.82-1.367 1.128-2.085.171-.376.376-.718.513-1.06l.444-1.094c.171-.376.273-.752.41-1.128.137-.376.239-.752.376-1.128.205-.752.41-1.538.581-2.29-.205.342-.376.684-.547 1.026-.171.342-.342.683-.547 1.025-.205.342-.376.684-.581 1.026a9.566 9.566 0 0 1-.581.991c-.41.649-.786 1.333-1.23 1.948-.205.308-.41.65-.65.957-.239.308-.444.615-.649.923-.923 1.196-1.88 2.359-2.94 3.418-.273.274-.512.547-.82.786l-.41.376-.41.342a2.211 2.211 0 0 1-.445.342c-.136.102-.273.239-.444.342-.137.102-.308.205-.444.307-.137.103-.308.205-.411.274l-1.811 1.059 1.982.718.992.376c.17.069.341.103.512.171l.479.205c.307.137.649.274.991.445l.957.512c1.265.684 2.495 1.436 3.657 2.325 2.359 1.709 4.581 3.691 6.632 5.879Z" />
   <path fill="url(#e)"
      d="M435.02 154.092c-.581-1.128-1.23-2.221-1.88-3.281a99.827 99.827 0 0 0-2.119-3.145c-1.504-2.05-3.11-4.033-4.853-5.879-.889-.923-1.812-1.811-2.735-2.7a51.146 51.146 0 0 0-2.974-2.461c-2.085-1.538-4.341-2.905-6.802-3.897l.342 2.393c.513-.41.991-.786 1.47-1.196.478-.411.923-.821 1.367-1.265.923-.855 1.778-1.743 2.632-2.632 1.675-1.812 3.247-3.76 4.615-5.845 1.367-2.085 2.563-4.307 3.383-6.631.411-1.162.752-2.393.923-3.623a16.78 16.78 0 0 0 .205-1.846 10.95 10.95 0 0 0-.034-1.846 23.829 23.829 0 0 1-.957 3.487 23.07 23.07 0 0 1-1.47 3.247c-1.093 2.085-2.461 4.033-3.896 5.913a62.913 62.913 0 0 1-4.717 5.298c-.821.855-1.709 1.641-2.564 2.461-.444.41-.888.786-1.333 1.162-.444.376-.889.787-1.333 1.128l-1.88 1.504 2.222.889c1.094.444 2.188.957 3.213 1.538a35.576 35.576 0 0 1 3.076 1.914 43.855 43.855 0 0 1 2.94 2.188 61.51 61.51 0 0 1 2.837 2.393 84.468 84.468 0 0 1 5.332 5.195c.855.889 1.709 1.812 2.564 2.735.786.888 1.606 1.811 2.426 2.802Z" />
   <path fill="url(#f)"
      d="M367.718 142.063s.445-54.005 4.649-64.67c4.204-10.698 6.46-12.784 20.748-16.714 14.287-3.931 2.153-21.363 16.988-28.131 14.834-6.768 11.006-6.29 15.244-13.946 4.273-7.657 6.597-12.955 22.97-9.4 0 0 4.375.171 16.748-6.63 12.374-6.803 19.176 3.827 10.186 21.533-8.989 17.706 11.314 15.108-9.673 35.65 0 0-7.759 3.145-2.837 15.382 4.922 12.237-23.175 20.27-24.302 23.927-1.128 3.657 5.366 22.491-17.433 27.515-22.833 5.025-53.288 15.484-53.288 15.484Z" />
   <path fill="url(#g)"
      d="M370.829 138.234c8.955-11.245 17.705-22.593 26.456-33.976l13.091-17.056c4.375-5.674 8.716-11.348 13.125-16.988 8.785-11.314 17.569-22.627 26.593-33.702l3.35-4.204 3.418-4.136 3.418-4.136c.581-.684 1.128-1.402 1.709-2.085l1.743-2.017c2.325-2.7 4.649-5.469 6.973-8.17l3.589-3.998c1.197-1.333 2.393-2.7 3.555-4.034-1.367 1.163-2.734 2.359-4.102 3.521l-4.067 3.555a33.417 33.417 0 0 0-1.983 1.846l-1.948 1.88-3.862 3.76-1.812 1.88c-.65.649-1.265 1.298-1.88 1.948l-3.726 3.896-3.691 3.931c-1.197 1.333-2.427 2.666-3.623 4-9.639 10.698-18.732 21.84-27.55 33.189l-3.282 4.273c-1.093 1.435-2.187 2.837-3.247 4.306l-6.426 8.648c-4.204 5.81-8.408 11.656-12.476 17.569a410.083 410.083 0 0 0-6.05 8.921c-2.017 2.974-3.965 5.982-5.913 8.99-3.897 6.084-7.759 12.168-11.382 18.389Z" />
   <path fill="url(#h)"
      d="M457.888 65.087c-2.837-.923-5.777-1.538-8.751-1.982a60.963 60.963 0 0 0-9.024-.65c-1.503.035-3.042.103-4.546.274-1.504.17-3.042.41-4.546.752-1.504.341-3.008.752-4.477 1.333a28.63 28.63 0 0 0-4.273 2.017l2.359 1.811c.239-.889.444-1.709.649-2.563.205-.855.376-1.71.547-2.564.342-1.71.615-3.418.82-5.161.239-1.71.376-3.453.479-5.196.068-1.743.136-3.486.068-5.23-.102-3.486-.513-7.007-1.538-10.356-.957-3.35-2.598-6.597-5.025-9.058.205.376.445.752.65 1.094.205.375.376.751.581 1.127.205.376.342.752.513 1.163l.239.58c.068.206.137.41.205.582.137.41.273.786.376 1.196l.342 1.196c.171.82.376 1.641.478 2.461.547 3.282.65 6.632.513 9.981a83.105 83.105 0 0 1-1.025 10.015c-.274 1.675-.547 3.316-.889 4.956-.171.82-.342 1.641-.547 2.461-.171.82-.376 1.641-.581 2.427l-1.026 3.794 3.384-1.982a29.716 29.716 0 0 1 3.76-1.88 39.756 39.756 0 0 1 4.034-1.333c2.768-.718 5.639-1.196 8.511-1.47 2.905-.273 5.845-.342 8.784-.308a97.63 97.63 0 0 1 8.956.513Z" />
   <path fill="url(#i)"
      d="M470.671 35.35a25.464 25.464 0 0 0-2.7-.99c-.923-.309-1.846-.514-2.803-.719-1.88-.41-3.794-.65-5.742-.786a30.43 30.43 0 0 0-5.845.24l-1.47.239c-.479.102-.957.205-1.436.342l-.717.17c-.24.069-.479.137-.718.24l-1.402.478 1.573 1.64c.136-.307.205-.546.273-.82.069-.273.137-.512.205-.751.069-.24.137-.513.171-.752.069-.24.103-.513.171-.752l.137-.752.102-.787c.069-.512.103-1.025.137-1.538.137-2.05.034-4.101-.205-6.118a31.064 31.064 0 0 0-.547-3.008c-.102-.478-.205-.991-.342-1.47l-.41-1.435c-.137-.479-.308-.957-.478-1.436-.171-.478-.342-.957-.547-1.401a39.79 39.79 0 0 0-1.265-2.735c.068.479.205.992.273 1.47.103.479.206.957.308 1.47.068.478.171.991.239 1.47.103.478.171.957.24 1.47.136.956.273 1.948.341 2.905.035.478.103.957.137 1.435.034.479.034.957.069 1.436.068 1.914.034 3.862-.171 5.742-.069.479-.103.957-.171 1.402l-.103.718-.137.683c-.034.24-.102.479-.136.684-.069.239-.103.444-.171.683-.069.205-.137.445-.205.65-.069.205-.137.444-.205.58l-.957 2.496 2.563-.854 1.299-.445c.205-.068.41-.137.649-.205l.65-.17c.444-.103.889-.24 1.333-.343l1.333-.273c1.812-.308 3.623-.547 5.469-.615 3.657-.24 7.417 0 11.211.512Z" />
   <path fill="url(#j)"
      d="M438.404 99.029a71.513 71.513 0 0 0-4.477-1.778c-1.504-.547-3.077-.991-4.615-1.435a74.302 74.302 0 0 0-9.502-1.949 77.685 77.685 0 0 0-4.854-.478c-1.64-.069-3.281-.137-4.922-.069-3.281.103-6.631.547-9.844 1.505l2.222 2.119c.205-.82.342-1.573.478-2.359.137-.786.274-1.572.376-2.324.24-1.572.376-3.145.513-4.683.205-3.145.239-6.323-.068-9.468-.308-3.145-.889-6.29-1.949-9.297a25.899 25.899 0 0 0-1.948-4.341c-.41-.684-.82-1.367-1.265-1.983-.478-.615-.957-1.23-1.504-1.811a27.285 27.285 0 0 1 1.812 4.238 32.75 32.75 0 0 1 1.128 4.375c.547 2.94.786 5.948.82 8.956a72.563 72.563 0 0 1-.478 9.023c-.137 1.504-.376 3.008-.581 4.478-.103.752-.24 1.47-.376 2.222-.137.718-.274 1.504-.445 2.188l-.683 2.973 2.905-.854c1.436-.445 2.94-.786 4.444-1.06a67.067 67.067 0 0 1 4.58-.581c1.538-.102 3.11-.17 4.648-.17 1.573 0 3.111.033 4.683.102a125.622 125.622 0 0 1 14.151 1.606c1.607.274 3.179.547 4.751.855Z" />
   <path fill="url(#k)"
      d="M364.505 139.192s-23.858-35.104-25.909-43.889c-2.051-8.784-1.538-11.143 5.948-20.098 7.485-8.921-8.17-14.766-1.607-25.773 6.563-11.006 4.307-8.99 3.623-15.825-.683-6.837-1.538-11.314 10.631-16.339 0 0 2.905-1.846 7.861-11.792 4.956-9.913 14.117-6.119 16.202 9.365 2.119 15.45 14.082 4.717 9.673 27.38 0 0-3.589 5.502 5.059 11.21 8.648 5.709-5.913 23.483-5.025 26.354.889 2.871 13.536 12.134 1.06 25.567-12.544 13.468-27.516 33.84-27.516 33.84Z" />
   <path fill="url(#l)"
      d="M364.813 135.329c.752-11.28 1.333-22.525 1.914-33.771l.82-16.885c.308-5.606.547-11.246.889-16.851.615-11.246 1.23-22.457 2.119-33.669l.308-4.204.376-4.204.342-4.204c.068-.718.102-1.402.171-2.12l.239-2.084c.273-2.803.547-5.606.854-8.409l.547-4.204c.171-1.402.342-2.803.479-4.204a181.742 181.742 0 0 0-1.06 4.101l-1.025 4.136a37.523 37.523 0 0 0-.445 2.085l-.41 2.085-.82 4.17-.41 2.085c-.137.684-.24 1.402-.342 2.085l-.65 4.205-.649 4.204c-.205 1.401-.376 2.803-.547 4.204-1.436 11.211-2.324 22.491-2.939 33.77l-.206 4.24c-.068 1.4-.136 2.836-.205 4.238l-.273 8.477c-.137 5.64-.239 11.28-.205 16.953 0 2.837.034 5.64.068 8.477.034 2.837.103 5.64.205 8.477.171 5.537.376 11.177.855 16.817Z" />
   <path fill="url(#m)"
      d="M388.33 49.126c-2.256.65-4.444 1.607-6.563 2.632a48.05 48.05 0 0 0-6.119 3.623 57.109 57.109 0 0 0-2.837 2.188c-.888.786-1.777 1.606-2.597 2.495a25.829 25.829 0 0 0-2.29 2.837c-.684 1.026-1.334 2.085-1.846 3.213l2.324.103c-.239-.684-.478-1.3-.718-1.949a30.437 30.437 0 0 0-.786-1.88 46.044 46.044 0 0 0-1.777-3.691c-.616-1.23-1.299-2.393-2.017-3.59-.718-1.161-1.47-2.323-2.29-3.417-1.641-2.188-3.487-4.273-5.606-6.016-2.119-1.743-4.614-3.11-7.28-3.623l.923.41c.307.137.581.308.888.479.308.136.581.341.855.512l.41.274.41.307c.274.205.547.376.786.581l.752.616c.479.444.957.888 1.402 1.367 1.845 1.88 3.384 3.999 4.819 6.22 1.402 2.222 2.666 4.547 3.829 6.905a83.926 83.926 0 0 1 1.64 3.59c.274.615.513 1.23.752 1.81.239.616.479 1.231.684 1.813l1.025 2.905 1.299-2.803c.444-.991.991-1.948 1.572-2.871a30.407 30.407 0 0 1 2.017-2.666c1.47-1.71 3.111-3.282 4.854-4.751 1.743-1.47 3.623-2.837 5.537-4.136 1.914-1.128 3.897-2.359 5.948-3.487Z" />
   <path fill="url(#n)"
      d="M383.305 24.208c-.752.137-1.47.342-2.188.581-.718.24-1.436.479-2.119.786a26.854 26.854 0 0 0-4.068 2.085c-1.299.787-2.529 1.744-3.691 2.77l-.855.785c-.273.274-.512.581-.786.855l-.376.444c-.137.137-.239.308-.342.479l-.752.854 1.744.342c-.069-.273-.103-.444-.171-.65-.069-.205-.137-.41-.205-.58a4.198 4.198 0 0 0-.24-.582c-.068-.205-.171-.376-.239-.58l-.239-.548-.274-.546c-.171-.377-.376-.718-.581-1.06-.82-1.367-1.811-2.666-2.871-3.863-.547-.58-1.094-1.162-1.675-1.709-.307-.273-.581-.547-.889-.786l-.922-.752c-.308-.239-.616-.478-.958-.718-.341-.239-.649-.444-.957-.683-.649-.41-1.333-.82-2.016-1.197.273.274.547.547.854.82.274.274.581.514.855.821l.82.82c.274.274.547.547.786.82.513.582 1.06 1.129 1.538 1.71.24.308.513.581.718.889.239.307.479.615.684.888.889 1.23 1.743 2.496 2.461 3.794.171.342.376.65.513.992l.239.512.205.513.205.513.205.512c.068.171.137.342.171.513.034.171.103.342.137.479l.512 2.05 1.265-1.708.65-.855.307-.41.342-.41c.239-.274.444-.547.684-.82l.752-.787c1.025-.991 2.119-1.982 3.281-2.837a48.96 48.96 0 0 1 7.486-4.546Z" />
   <path fill="url(#o)"
      d="M390.927 79.786c-1.23.24-2.461.547-3.691.855a63.484 63.484 0 0 0-3.623 1.128 63.26 63.26 0 0 0-7.007 2.974 46.412 46.412 0 0 0-3.35 1.88 65.44 65.44 0 0 0-3.213 2.153c-2.085 1.538-4.034 3.316-5.674 5.4l2.392.376a26.306 26.306 0 0 0-.752-1.743c-.273-.58-.512-1.128-.82-1.675-.547-1.128-1.162-2.187-1.777-3.247-1.265-2.119-2.666-4.17-4.273-6.084-1.606-1.914-3.384-3.657-5.4-5.127-.992-.718-2.086-1.401-3.179-1.914a15.02 15.02 0 0 0-1.709-.718 15.223 15.223 0 0 0-1.778-.513c1.094.581 2.119 1.197 3.042 1.914a29.359 29.359 0 0 1 2.701 2.325 40.872 40.872 0 0 1 4.546 5.434 61.197 61.197 0 0 1 3.725 6.05c.581 1.026 1.094 2.085 1.641 3.145.274.547.513 1.06.752 1.607.239.546.479 1.093.684 1.606l.888 2.222 1.504-1.846a34.992 34.992 0 0 1 2.393-2.666c.855-.82 1.777-1.64 2.7-2.427.957-.752 1.914-1.504 2.94-2.187a157.217 157.217 0 0 1 3.076-2.017 92.49 92.49 0 0 1 6.495-3.623 60.36 60.36 0 0 1 3.349-1.641c1.128-.615 2.256-1.128 3.418-1.64Z" />
   <path fill="url(#p)" d="M35.035 86.35v233.694h391.918V86.35H35.035Z" />
   <path fill="url(#q)" d="M421.826 91.443H40.162v214.759h381.664V91.443Z" />
   <path fill="url(#r)"
      d="M254.203 320.045v20.816c-.171 7.178-5.948 12.989-13.126 13.228h-20.098c-7.281-.239-13.125-6.221-13.16-13.57v-20.474h46.384Z" />
   <path fill="url(#s)"
      d="M220.979 354.087c-7.281-.239-13.126-6.221-13.16-13.569v-.137l-14.424 11.485v2.221L90.203 379.518l-2.735 6.905 4.375 3.315 139.151-18.799v-16.852h-10.015Z" />
   <path fill="url(#t)"
      d="m371.785 379.52-103.192-25.431v-2.221l-14.391-11.348v.341c-.17 7.178-5.947 12.989-13.125 13.228h-10.083v16.852l139.15 18.799 4.375-3.316-2.734-6.904Z" />
   <path fill="url(#u)" d="M222.893 94.176H42.897V303.02h179.996V94.176Z" />
   <path fill="url(#v)" d="M70.275 110.41h-3.178v62.654h3.178V110.41Z" />
   <path fill="url(#w)" d="M119.906 137.688H78.034v6.562h41.872v-6.562Z" />
   <path fill="url(#x)" d="M192.199 137.688h-72.293v6.562h72.293v-6.562Z" />
   <path fill="url(#y)" d="M154.599 125.654H78.034v6.563H154.6v-6.563Z" />
   <path fill="url(#z)" d="M192.199 125.654H154.6v6.563h37.599v-6.563Z" />
   <path fill="url(#A)" d="M166.563 113.588H78.034v6.563h88.529v-6.563Z" />
   <path fill="url(#B)" d="M192.199 113.588h-25.636v6.563h25.636v-6.563Z" />
   <path fill="url(#C)" d="M135.116 149.752H78.034v6.563h57.082v-6.563Z" />
   <path fill="url(#D)" d="M192.199 149.752h-57.082v6.563h57.082v-6.563Z" />
   <path fill="url(#E)" d="M114.95 161.818H78.034v6.563h36.916v-6.563Z" />
   <path fill="url(#F)" d="M192.199 161.818H114.95v6.563h77.249v-6.563Z" />
   <path fill="url(#G)" d="M158.975 194.631h-55.954v7.417h55.954v-7.417Z" />
   <path fill="url(#H)" d="M197.189 205.432h-94.168v3.965h94.168v-3.965Z" opacity=".48" />
   <path fill="url(#I)" d="M197.189 212.062h-94.168v3.965h94.168v-3.965Z" opacity=".48" />
   <path fill="url(#J)" d="M197.189 219.07h-94.168v3.965h94.168v-3.965Z" opacity=".48" />
   <path fill="url(#K)" d="M197.189 226.281h-94.168v3.965h94.168v-3.965Z" opacity=".48" />
   <path fill="url(#L)"
      d="M74.89 230.247c9.835 0 17.808-7.973 17.808-17.808s-7.973-17.808-17.808-17.808-17.809 7.973-17.809 17.808 7.974 17.808 17.809 17.808Z" />
   <path fill="url(#M)" d="m74.24 222.384-8.58-5.845.069-5.127 8.511 4.922v6.05Z" />
   <path fill="url(#N)" d="M87.023 205.979 74.24 222.385v-6.015l8.1-10.46 4.683.069Z" />
   <path fill="url(#O)" d="M162.189 251.303h-55.955v7.417h55.955v-7.417Z" />
   <path fill="url(#P)" d="M200.403 262.07h-94.169v3.965h94.169v-3.965Z" opacity=".48" />
   <path fill="url(#Q)" d="M200.403 268.701h-94.169v3.965h94.169v-3.965Z" opacity=".48" />
   <path fill="url(#R)" d="M200.403 275.707h-94.169v3.965h94.169v-3.965Z" opacity=".48" />
   <path fill="url(#S)" d="M200.403 282.92h-94.169v3.965h94.169v-3.965Z" opacity=".48" />
   <path fill="url(#T)"
      d="M74.89 286.886c9.835 0 17.808-7.973 17.808-17.808S84.727 251.27 74.89 251.27c-9.835 0-17.808 7.973-17.808 17.808s7.973 17.808 17.808 17.808Z" />
   <path fill="url(#U)" d="m74.24 277.314-8.579-5.845.069-5.127 8.51 4.922v6.05Z" />
   <path fill="url(#V)" d="M87.024 260.908 74.24 277.315v-6.016l8.101-10.459 4.683.068Z" />
   <path fill="url(#W)" d="M416.938 94.176H236.941V303.02h179.997V94.176Z" />
   <path fill="url(#X)" d="M360.847 100.635h-67.746v6.802h67.746v-6.802Z" />
   <path fill="url(#Y)" d="M367.888 109.521h-81.829v6.802h81.829v-6.802Z" />
   <path fill="url(#Z)" d="M367.888 118.375h-81.829v6.802h81.829v-6.802Z" />
   <path fill="url(#aa)" d="M259.022 292.117v10.904h2.667v-8.238h19.619v8.238h2.667v-10.904h-24.953Z" />
   <path fill="url(#ab)"
      d="M353.088 145.757h-51.272a2.327 2.327 0 0 1-2.324-2.324v-.513a2.327 2.327 0 0 1 2.324-2.324h51.272a2.326 2.326 0 0 1 2.324 2.324v.513c.034 1.299-1.025 2.324-2.324 2.324Z" />
   <path fill="url(#ac)" d="M393.661 148.115h-94.169v2.769h94.169v-2.769Z" opacity=".48" />
   <path fill="url(#ad)" d="M393.661 152.764h-94.169v2.768h94.169v-2.768Z" opacity=".48" />
   <path fill="url(#ae)" d="M393.661 157.686h-94.169v2.768h94.169v-2.768Z" opacity=".48" />
   <path fill="url(#af)" d="M393.661 162.744h-94.169v2.769h94.169v-2.769Z" opacity=".48" />
   <path fill="url(#ag)"
      d="M283.975 165.513h-24.952v-24.952h24.952v24.952Zm-22.286-2.667h19.62v-19.619h-19.62v19.619Z" />
   <path fill="url(#ah)"
      d="m269.687 161.686-7.315-7.657 3.316-3.145 3.725 3.931 16.373-19.961 3.555 2.905-19.654 23.927Z" />
   <path fill="url(#ai)"
      d="M353.088 182.326h-51.272a2.327 2.327 0 0 1-2.324-2.324v-.547a2.327 2.327 0 0 1 2.324-2.324h51.272a2.326 2.326 0 0 1 2.324 2.324v.513c.034 1.299-1.025 2.358-2.324 2.358Z" />
   <path fill="url(#aj)" d="M393.661 184.686h-94.169v2.768h94.169v-2.768Z" opacity=".48" />
   <path fill="url(#ak)" d="M393.661 189.334h-94.169v2.769h94.169v-2.769Z" opacity=".48" />
   <path fill="url(#al)" d="M393.661 194.256h-94.169v2.769h94.169v-2.769Z" opacity=".48" />
   <path fill="url(#am)" d="M393.661 199.279h-94.169v2.769h94.169v-2.769Z" opacity=".48" />
   <path fill="url(#an)" d="M283.975 203.417h-24.952v-24.952h24.952v24.952Zm-22.286-2.666h19.62v-19.62h-19.62v19.62Z" />
   <path fill="url(#ao)"
      d="m269.687 199.588-7.315-7.691 3.316-3.144 3.725 3.93 16.373-19.927 3.555 2.871-19.654 23.961Z" />
   <path fill="url(#ap)"
      d="M353.088 218.868h-51.271a2.326 2.326 0 0 1-2.324-2.324v-.513a2.326 2.326 0 0 1 2.324-2.324h51.271a2.327 2.327 0 0 1 2.325 2.324v.513c.034 1.299-1.026 2.324-2.325 2.324Z" />
   <path fill="url(#aq)" d="M393.661 221.227h-94.168v2.768h94.168v-2.768Z" opacity=".48" />
   <path fill="url(#ar)" d="M393.661 225.875h-94.168v2.769h94.168v-2.769Z" opacity=".48" />
   <path fill="url(#as)" d="M393.661 230.797h-94.168v2.769h94.168v-2.769Z" opacity=".48" />
   <path fill="url(#at)" d="M393.661 235.855h-94.168v2.769h94.168v-2.769Z" opacity=".48" />
   <path fill="url(#au)" d="M283.975 241.29h-24.952v-24.952h24.952v24.952Zm-22.286-2.666h19.62v-19.62h-19.62v19.62Z" />
   <path fill="url(#av)"
      d="m269.687 237.463-7.314-7.657 3.315-3.144 3.726 3.93 16.372-19.961 3.555 2.905-19.654 23.927Z" />
   <path fill="url(#aw)" d="M283.975 279.196h-24.952v-24.952h24.952v24.952Zm-22.286-2.666h19.62v-19.62h-19.62v19.62Z" />
   <path fill="url(#ax)"
      d="m269.687 275.367-7.315-7.691 3.316-3.144 3.725 3.931 16.373-19.928 3.555 2.871-19.654 23.961Z" />
   <path fill="url(#ay)"
      d="M441.617 378.185H310.909c.752 12.75-9.776 13.468-9.776 13.468a10.08 10.08 0 0 1-10.083-10.084V257.766a9.137 9.137 0 0 0-2.735-6.563 9.275 9.275 0 0 0-6.563-2.734h142.056c9.81 0 17.774 7.964 17.774 17.774v111.942h.035Z" />
   <path fill="url(#az)"
      d="M291.05 257.767v45.29h-33.908c9.639-.137 12.305-9.776 14.39-18.321 0 0 .957-25.26.957-26.935 0-5.127 4.17-9.297 9.298-9.297a9.279 9.279 0 0 1 9.263 9.263Z" />
   <path fill="url(#aA)" d="M394.173 262.074h-44.879v5.948h44.879v-5.948Z" />
   <path fill="url(#aB)" d="M424.868 270.723h-75.574v3.178h75.574v-3.178Z" opacity=".48" />
   <path fill="url(#aC)" d="M424.868 276.055h-75.574v3.179h75.574v-3.179Z" opacity=".48" />
   <path fill="url(#aD)" d="M424.868 281.66h-75.574v3.179h75.574v-3.179Z" opacity=".48" />
   <path fill="url(#aE)" d="M424.868 287.436h-75.574v3.178h75.574v-3.178Z" opacity=".48" />
   <path fill="url(#aF)"
      d="M326.701 290.649c7.891 0 14.288-6.396 14.288-14.287 0-7.891-6.397-14.288-14.288-14.288s-14.287 6.397-14.287 14.288 6.396 14.287 14.287 14.287Z" />
   <path fill="url(#aG)" d="m326.188 284.327-6.87-4.682.034-4.102 6.836 3.931v4.853Z" />
   <path fill="url(#aH)" d="m336.443 271.168-10.255 13.16v-4.82l6.529-8.408 3.726.068Z" />
   <path fill="url(#aI)" d="M394.172 307.227h-44.879v5.947h44.879v-5.947Z" />
   <path fill="url(#aJ)" d="M424.867 315.875h-75.574v3.179h75.574v-3.179Z" opacity=".48" />
   <path fill="url(#aK)" d="M424.867 321.207h-75.574v3.179h75.574v-3.179Z" opacity=".48" />
   <path fill="url(#aL)" d="M424.867 326.812h-75.574v3.179h75.574v-3.179Z" opacity=".48" />
   <path fill="url(#aM)" d="M424.867 332.588h-75.574v3.179h75.574v-3.179Z" opacity=".48" />
   <path fill="url(#aN)"
      d="M324.102 335.767c7.89 0 14.287-6.397 14.287-14.288s-6.397-14.288-14.287-14.288c-7.891 0-14.288 6.397-14.288 14.288s6.397 14.288 14.288 14.288Z" />
   <path fill="url(#aO)" d="m323.623 328.11-6.905-4.717.034-4.102 6.871 3.965v4.854Z" />
   <path fill="url(#aP)" d="m333.843 314.949-10.22 13.16v-4.82l6.494-8.408 3.726.068Z" />
   <path fill="url(#aQ)" d="M394.172 352.141h-44.879v5.947h44.879v-5.947Z" />
   <path fill="url(#aR)" d="M424.867 360.789h-75.574v3.179h75.574v-3.179Z" opacity=".48" />
   <path fill="url(#aS)" d="M424.867 366.121h-75.574v3.179h75.574v-3.179Z" opacity=".48" />
   <path fill="url(#aT)" d="M424.867 371.76h-75.574v3.179h75.574v-3.179Z" opacity=".48" />
   <path fill="url(#aU)" d="M424.867 377.537h-75.574v3.179h75.574v-3.179Z" opacity=".48" />
   <path fill="url(#aV)"
      d="M324.101 380.716c7.891 0 14.288-6.397 14.288-14.288s-6.397-14.287-14.288-14.287-14.288 6.396-14.288 14.287c0 7.891 6.397 14.288 14.288 14.288Z" />
   <path fill="url(#aW)" d="m323.622 373.061-6.904-4.717.034-4.102 6.87 3.931v4.888Z" />
   <path fill="url(#aX)" d="m333.843 359.867-10.22 13.194v-4.854l6.494-8.408 3.726.068Z" />
   <path fill="url(#aY)"
      d="M441.616 391.618H301.133s10.528-.718 9.776-13.468h140.62c-.034.035.547 12.1-9.913 13.468Z" />
   <path fill="url(#aZ)" d="M289.17 96.33H172.852v5.332H289.17V96.33Z" />
   <path fill="url(#ba)"
      d="M281.069 77.634h-11.622s-12.442-.069-19.483-4.683c-6.016-3.965-3.896-11.827-13.159-15.21a17.074 17.074 0 0 0-11.656 0c-9.229 3.383-7.11 11.279-13.16 15.21-7.075 4.648-19.483 4.683-19.483 4.683h-11.621c-4.444 0-8.067 3.623-8.067 8.066v10.63H289.17V85.7c0-4.443-3.624-8.066-8.101-8.066Zm-50.075-16.75a6.273 6.273 0 0 1 6.289 6.29 6.273 6.273 0 0 1-6.289 6.29 6.273 6.273 0 0 1-6.29-6.29 6.273 6.273 0 0 1 6.29-6.29Z" />
   <path fill="url(#bb)"
      d="M181.466 299.709v2.905s-2.529-1.162-2.905-1.88c-.411-.752-.513-3.589-.513-3.589l1.265.889c-.342-.513 0-1.128.239-.821.239.308 1.47 1.299 1.606 1.538.069.171.205.547.274.752 0 .103.034.206.034.206Z" />
   <path fill="url(#bc)"
      d="M214.45 374.874h-3.965s-10.63-24.849-16.577-34.18a14.481 14.481 0 0 1-1.949-4.683l-1.025-4.751-8.955-24.713h18.731s1.435 18.697 1.128 27.857a6.575 6.575 0 0 0 .512 2.803c2.085 4.956 8.648 24.234 12.1 37.667Z" />
   <path fill="url(#bd)"
      d="M198.077 263.58c-.273-.274-.512 2.358-3.418 2.632h-.307c-1.573-.137-1.778-2.632-1.709-4.444.034-1.059.17-1.914.17-1.914s.513-1.059 1.06-1.846c.513-.786 2.119-1.059 2.632 0 .513 1.06.786.787.786 2.359s0 2.905.786 1.572c.787-1.333 2.632-1.572 2.906 0 .273 1.641-2.632 1.88-2.906 1.641Z" />
   <path fill="url(#be)"
      d="M198.078 263.582v5.811s-3.418 1.572-4.751 3.179c-.103.137-.205.239-.274.273-.102.069-.136.035-.136-.068.034-.547 1.401-3.281 1.435-3.384.274-.273-.034-3.076-.034-3.179h.308c2.939-.273 3.213-2.905 3.452-2.632Z" />
   <path fill="url(#bf)"
      d="M200.983 263.308c-1.333 1.572-2.905 3.213-2.905 3.213v-2.94c.273.273 3.179 0 2.905-1.572-.273-1.573-2.119-1.333-2.905 0-.786 1.333-.786 0-.786-1.573 0-1.572-.274-1.333-.786-2.358-.513-1.06-2.12-.786-2.632 0-.513.786-1.06 1.846-1.06 1.846s-.137.82-.171 1.914c0 0-.889-.069-2.187-.855-1.334-.786.273-2.632.273-2.632-4.478-.273-3.692-5.81-3.179-5.537.513.273.513 1.333 5.811 0 5.264-1.333 5.537 3.418 5.537 3.418 4.478.479 3.418 5.503 2.085 7.076Z" />
   <path fill="url(#bg)"
      d="m198.864 269.905-3.145 4.991c-.273.273.274 0-.512-1.333-.035-.035-.035-.069-.069-.103a1.76 1.76 0 0 0-.923-.718c-.547-.171-1.059.034-1.128.034.069-.034.137-.136.274-.273 1.333-1.572 4.751-3.179 4.751-3.179s.273.239.752.581Z" />
   <path fill="url(#bh)"
      d="M203.923 274.416c-7.418-1.675-5.845 18.424-5.845 18.424-1.675 1.264-11.075 4.819-14.972 6.255l1.504-9.947-2.256.923c-7.348 1.231-11.758 1.572-11.758 1.572l-.718-2.734c3.965-1.402 10.733-3.999 10.733-3.999 1.333 0 5.435-8.58 7.281-10.938 1.196-1.538 3.589-3.008 5.093-3.863-.65.616-1.709 1.744-2.051 2.974 0 0 1.333-1.128 1.982-.308 0 .103.035.137.137.069a1.702 1.702 0 0 1 2.119.786c.786 1.333.274 1.572.513 1.333l3.145-4.99c1.23.786 3.554 2.563 5.093 4.443Z" />
   <path fill="url(#bi)"
      d="M194.386 269.393c-.068.102-1.402 2.802-1.436 3.383-.171-.205-.376-.307-.581-.307-.205 0-.41.034-.615.137-.41.17-.786.478-.786.478.342-1.23 1.367-2.324 2.051-2.974.752-.444 1.333-.717 1.367-.717Z" />
   <path fill="url(#bj)" d="M200.71 299.164v7.417h-18.731l.615-4.136c3.384-.581 13.159-2.256 18.116-3.281Z" />
   <path fill="url(#bk)"
      d="M190.934 331.26c-1.094 2.905-1.982 5.264-2.358 6.426-1.573 5.024-5.811 32.984-7.11 37.188h-3.965l2.119-42.726 2.359-25.601 8.955 24.713Z" />
   <path fill="url(#bl)"
      d="M181.466 374.875s0 3.828-.513 4.068c-.513.239-1.572.239-1.572-.479 0-.547-1.333.239-1.846.479-.513.239-3.418 0-4.478 0-1.059 0-1.572-.24-1.572-1.197 0-.957 4.204-.718 4.478-1.675.273-.957 1.572-1.196 1.572-1.196h3.931Z" />
   <path fill="url(#bm)"
      d="M214.451 374.875s0 3.828-.513 4.068c-.513.239-1.572.239-1.572-.479 0-.547-1.334.239-1.846.479-.513.239-3.418 0-4.478 0-1.06 0-1.572-.24-1.572-1.197 0-.957 4.204-.718 4.477-1.675.274-.957 1.573-1.196 1.573-1.196h3.931Z" />
   <path fill="url(#bn)"
      d="m194.489 273.869-1.538.957c-.616.205-1.162-.307-1.162-.307v-1.504l.615-.445c.137.24.513.718 1.709.24l.376 1.059Z" />
   <path fill="url(#bo)" d="m195.104 273.492-.615.41-.376-1.059c.034 0 .068-.034.102-.034.274.068.616.273.889.683Z" />
   <path fill="url(#bp)" d="m192.403 272.57-.615.445-.034-.445c.205-.068.41-.136.615-.136 0 .034 0 .068.034.136Z" />
   <path fill="url(#bq)"
      d="M192.95 274.86c-1.264 2.085-3.862 21.979-3.862 21.979l-2.427 3.042-1.265-3.213c.616-6.221 6.358-22.115 6.358-22.115s.581.512 1.196.307Z" />
   <path fill="url(#br)" d="m161.196 258.01-12.818 18.013 59.27 42.145 12.818-18.047-59.27-42.111Z" />
   <path fill="url(#bs)" d="m103.875 222.562-7.793 10.973 54.826 38.966 7.793-10.972-54.826-38.967Z" />
   <path fill="url(#bt)"
      d="m223.098 305.623-4.307-3.076-9.365 13.194 4.307 3.076c1.025.752 2.495.479 3.213-.547l6.699-9.434c.718-1.025.479-2.461-.547-3.213Z" />
   <path fill="url(#bu)"
      d="m223.269 309.385-5.948 8.374 7.862 5.606a1.545 1.545 0 0 0 2.153-.376l4.17-5.879a1.545 1.545 0 0 0-.376-2.154l-7.861-5.571Z" />
   <path fill="url(#bv)"
      d="m214.347 319.296-3.964-2.837-4.068 5.811c-.684.957-2.017 1.196-2.974.513l-63.952-45.392-3.179 4.477 67.849 48.23c.957.683 2.29.444 2.974-.513l7.314-10.289Z" />
   <path fill="url(#bw)" d="m99.978 228.033-3.896 5.504-4.444-9.674.855-1.162.923-1.299 10.459 1.162-3.897 5.469Z" />
   <path fill="url(#bx)" d="m91.638 223.863-5.024-4.991c-.205-.239.034-.581.307-.478l6.46 2.973-1.743 2.496Z" />
   <path fill="url(#by)"
      d="M204.948 292.464c-.376 3.213-.854 5.64-1.333 5.914-.273.171-1.367.444-2.905.752-4.068.854-11.417 2.153-15.758 2.871-.957.171-1.743.308-2.324.376-.718.137-1.162.205-1.162.205v-2.905s.068-.035.171-.069c.239-.102.786-.273 1.504-.547 3.862-1.435 13.296-4.99 14.971-6.255 0 0-.171-2.324-.137-5.366.103-5.811 1.06-14.151 5.982-13.057.41.512.786 1.025 1.025 1.538.992 2.119.684 10.63-.034 16.543Z" />
   <path fill="url(#bz)"
      d="M166.46 288.909s.308-1.538.718-1.606c.41-.069.581.478.786.444.205-.034 1.06.069 1.06.376 0 .308.103.376.649.718.547.342.103.581.206.718.102.136.683.068.717.41.035.342-.991 1.333-1.059 1.299-.069-.069-2.666-.684-3.077-2.359Z" />
   <defs>
      <linearGradient id="a" x1="465.385" x2="410.181" y1="182.298" y2="74.335" gradientUnits="userSpaceOnUse">
         <stop stop-color="#FFD571" />
         <stop offset=".251" stop-color="#FFBD60" />
         <stop offset=".778" stop-color="#FF8035" />
         <stop offset="1" stop-color="#FF6421" />
      </linearGradient>
      <linearGradient id="b" x1="441.612" x2="438.737" y1="135.005" y2="124.678" gradientUnits="userSpaceOnUse">
         <stop stop-color="#F7F7F7" />
         <stop offset="1" stop-color="#fff" />
      </linearGradient>
      <linearGradient id="c" x1="456.56" x2="445.468" y1="145.299" y2="105.457" gradientUnits="userSpaceOnUse">
         <stop stop-color="#F7F7F7" />
         <stop offset="1" stop-color="#fff" />
      </linearGradient>
      <linearGradient id="d" x1="481.84" x2="474.694" y1="132.384" y2="106.718" gradientUnits="userSpaceOnUse">
         <stop stop-color="#F7F7F7" />
         <stop offset="1" stop-color="#fff" />
      </linearGradient>
      <linearGradient id="e" x1="428.86" x2="416.833" y1="156.218" y2="113.017" gradientUnits="userSpaceOnUse">
         <stop stop-color="#F7F7F7" />
         <stop offset="1" stop-color="#fff" />
      </linearGradient>
      <linearGradient id="f" x1="455.996" x2="366.715" y1="128.899" y2="-21.867" gradientUnits="userSpaceOnUse">
         <stop stop-color="#FFD571" />
         <stop offset=".251" stop-color="#FFBD60" />
         <stop offset=".778" stop-color="#FF8035" />
         <stop offset="1" stop-color="#FF6421" />
      </linearGradient>
      <linearGradient id="g" x1="429.777" x2="418.707" y1="74.844" y2="66.881" gradientUnits="userSpaceOnUse">
         <stop stop-color="#F7F7F7" />
         <stop offset="1" stop-color="#fff" />
      </linearGradient>
      <linearGradient id="h" x1="452.815" x2="410.095" y1="73.171" y2="42.441" gradientUnits="userSpaceOnUse">
         <stop stop-color="#F7F7F7" />
         <stop offset="1" stop-color="#fff" />
      </linearGradient>
      <linearGradient id="i" x1="467.635" x2="440.114" y1="40.228" y2="20.432" gradientUnits="userSpaceOnUse">
         <stop stop-color="#F7F7F7" />
         <stop offset="1" stop-color="#fff" />
      </linearGradient>
      <linearGradient id="j" x1="434.004" x2="387.68" y1="106.059" y2="72.737" gradientUnits="userSpaceOnUse">
         <stop stop-color="#F7F7F7" />
         <stop offset="1" stop-color="#fff" />
      </linearGradient>
      <linearGradient id="k" x1="413.459" x2="306.806" y1="90.534" y2="40.707" gradientUnits="userSpaceOnUse">
         <stop stop-color="#FFD571" />
         <stop offset=".251" stop-color="#FFBD60" />
         <stop offset=".778" stop-color="#FF8035" />
         <stop offset="1" stop-color="#FF6421" />
      </linearGradient>
      <linearGradient id="l" x1="374.539" x2="363.826" y1="68.002" y2="67.806" gradientUnits="userSpaceOnUse">
         <stop stop-color="#F7F7F7" />
         <stop offset="1" stop-color="#fff" />
      </linearGradient>
      <linearGradient id="m" x1="388.681" x2="347.331" y1="56.621" y2="55.865" gradientUnits="userSpaceOnUse">
         <stop stop-color="#F7F7F7" />
         <stop offset="1" stop-color="#fff" />
      </linearGradient>
      <linearGradient id="n" x1="383.526" x2="356.888" y1="28.704" y2="28.217" gradientUnits="userSpaceOnUse">
         <stop stop-color="#F7F7F7" />
         <stop offset="1" stop-color="#fff" />
      </linearGradient>
      <linearGradient id="o" x1="391.231" x2="346.394" y1="86.287" y2="85.466" gradientUnits="userSpaceOnUse">
         <stop stop-color="#F7F7F7" />
         <stop offset="1" stop-color="#fff" />
      </linearGradient>
      <linearGradient id="p" x1="472.035" x2="-48.312" y1="25.906" y2="408.649" gradientUnits="userSpaceOnUse">
         <stop stop-color="gray" />
         <stop offset=".639" stop-color="#52524D" />
         <stop offset="1" stop-color="#3C3C35" />
      </linearGradient>
      <linearGradient id="q" x1="40.154" x2="421.834" y1="198.814" y2="198.814" gradientUnits="userSpaceOnUse">
         <stop stop-color="#FFD571" />
         <stop offset=".251" stop-color="#FFBD60" />
         <stop offset=".778" stop-color="#FF8035" />
         <stop offset="1" stop-color="#FF6421" />
      </linearGradient>
      <linearGradient id="r" x1="207.836" x2="254.216" y1="337.078" y2="337.078" gradientUnits="userSpaceOnUse">
         <stop stop-color="gray" />
         <stop offset=".639" stop-color="#52524D" />
         <stop offset="1" stop-color="#3C3C35" />
      </linearGradient>
      <linearGradient id="s" x1="87.453" x2="230.996" y1="365.078" y2="365.078" gradientUnits="userSpaceOnUse">
         <stop stop-color="gray" />
         <stop offset=".639" stop-color="#52524D" />
         <stop offset="1" stop-color="#3C3C35" />
      </linearGradient>
      <linearGradient id="t" x1="230.995" x2="374.538" y1="365.14" y2="365.14" gradientUnits="userSpaceOnUse">
         <stop stop-color="gray" />
         <stop offset=".639" stop-color="#52524D" />
         <stop offset="1" stop-color="#3C3C35" />
      </linearGradient>
      <linearGradient id="u" x1="42.881" x2="222.875" y1="198.614" y2="198.614" gradientUnits="userSpaceOnUse">
         <stop stop-color="#F7F7F7" />
         <stop offset="1" stop-color="#fff" />
      </linearGradient>
      <linearGradient id="v" x1="67.096" x2="70.286" y1="141.725" y2="141.725" gradientUnits="userSpaceOnUse">
         <stop stop-color="#BE73DE" />
         <stop offset="1" stop-color="#514EB7" />
      </linearGradient>
      <linearGradient id="w" x1="133.084" x2="66.32" y1="140.982" y2="140.982" gradientUnits="userSpaceOnUse">
         <stop stop-color="#BE73DE" />
         <stop offset="1" stop-color="#514EB7" />
      </linearGradient>
      <linearGradient id="x" x1="156.047" x2="156.047" y1="137.189" y2="144.8" gradientUnits="userSpaceOnUse">
         <stop stop-color="#E2E2E2" />
         <stop offset=".095" stop-color="#E6E6E6" />
         <stop offset=".624" stop-color="#F8F8F8" />
         <stop offset="1" stop-color="#fff" />
      </linearGradient>
      <linearGradient id="y" x1="170.797" x2="64.281" y1="128.924" y2="128.924" gradientUnits="userSpaceOnUse">
         <stop stop-color="#BE73DE" />
         <stop offset="1" stop-color="#514EB7" />
      </linearGradient>
      <linearGradient id="z" x1="173.392" x2="173.392" y1="125.264" y2="132.875" gradientUnits="userSpaceOnUse">
         <stop stop-color="#E2E2E2" />
         <stop offset=".228" stop-color="#EDEDED" />
         <stop offset=".636" stop-color="#FAFAFA" />
         <stop offset="1" stop-color="#fff" />
      </linearGradient>
      <linearGradient id="A" x1="184.048" x2="57.146" y1="116.867" y2="116.867" gradientUnits="userSpaceOnUse">
         <stop stop-color="#BE73DE" />
         <stop offset="1" stop-color="#514EB7" />
      </linearGradient>
      <linearGradient id="B" x1="179.219" x2="179.6" y1="113.006" y2="122.519" gradientUnits="userSpaceOnUse">
         <stop stop-color="#E2E2E2" />
         <stop offset=".115" stop-color="#E6E6E6" />
         <stop offset="1" stop-color="#fff" />
      </linearGradient>
      <linearGradient id="C" x1="142.767" x2="63.263" y1="153.037" y2="153.037" gradientUnits="userSpaceOnUse">
         <stop stop-color="#BE73DE" />
         <stop offset="1" stop-color="#514EB7" />
      </linearGradient>
      <linearGradient id="D" x1="163.683" x2="163.62" y1="149.716" y2="156.375" gradientUnits="userSpaceOnUse">
         <stop stop-color="#E2E2E2" />
         <stop offset=".589" stop-color="#F6F6F6" />
         <stop offset="1" stop-color="#fff" />
      </linearGradient>
      <linearGradient id="E" x1="125.439" x2="64.791" y1="165.094" y2="165.094" gradientUnits="userSpaceOnUse">
         <stop stop-color="#BE73DE" />
         <stop offset="1" stop-color="#514EB7" />
      </linearGradient>
      <linearGradient id="F" x1="153.6" x2="153.537" y1="161.755" y2="168.414" gradientUnits="userSpaceOnUse">
         <stop stop-color="#E2E2E2" />
         <stop offset=".125" stop-color="#E7E7E7" />
         <stop offset=".629" stop-color="#F9F9F9" />
         <stop offset="1" stop-color="#fff" />
      </linearGradient>
      <linearGradient id="G" x1="167.739" x2="67.849" y1="198.358" y2="198.358" gradientUnits="userSpaceOnUse">
         <stop stop-color="#BE73DE" />
         <stop offset="1" stop-color="#514EB7" />
      </linearGradient>
      <linearGradient id="H" x1="103.006" x2="197.189" y1="207.411" y2="207.411" gradientUnits="userSpaceOnUse">
         <stop stop-color="#B7B4B1" />
         <stop offset=".546" stop-color="#959390" />
         <stop offset="1" stop-color="#7D7B79" />
      </linearGradient>
      <linearGradient id="I" x1="103.006" x2="197.189" y1="214.044" y2="214.044" gradientUnits="userSpaceOnUse">
         <stop stop-color="#B7B4B1" />
         <stop offset=".546" stop-color="#959390" />
         <stop offset="1" stop-color="#7D7B79" />
      </linearGradient>
      <linearGradient id="J" x1="103.006" x2="197.189" y1="221.058" y2="221.058" gradientUnits="userSpaceOnUse">
         <stop stop-color="#B7B4B1" />
         <stop offset=".546" stop-color="#959390" />
         <stop offset="1" stop-color="#7D7B79" />
      </linearGradient>
      <linearGradient id="K" x1="103.006" x2="197.189" y1="228.255" y2="228.255" gradientUnits="userSpaceOnUse">
         <stop stop-color="#B7B4B1" />
         <stop offset=".546" stop-color="#959390" />
         <stop offset="1" stop-color="#7D7B79" />
      </linearGradient>
      <linearGradient id="L" x1="130.21" x2="43.061" y1="164.879" y2="239.796" gradientUnits="userSpaceOnUse">
         <stop stop-color="#CAEDC0" />
         <stop offset=".062" stop-color="#C2EAB9" />
         <stop offset=".706" stop-color="#6FCA6E" />
         <stop offset="1" stop-color="#4EBD50" />
      </linearGradient>
      <linearGradient id="M" x1="65.652" x2="74.247" y1="216.91" y2="216.91" gradientUnits="userSpaceOnUse">
         <stop stop-color="#F7F7F7" />
         <stop offset="1" stop-color="#fff" />
      </linearGradient>
      <linearGradient id="N" x1="74.247" x2="87.023" y1="214.153" y2="214.153" gradientUnits="userSpaceOnUse">
         <stop stop-color="#F7F7F7" />
         <stop offset="1" stop-color="#fff" />
      </linearGradient>
      <linearGradient id="O" x1="173.392" x2="76.56" y1="255.616" y2="254.087" gradientUnits="userSpaceOnUse">
         <stop stop-color="#BE73DE" />
         <stop offset="1" stop-color="#514EB7" />
      </linearGradient>
      <linearGradient id="P" x1="106.241" x2="200.424" y1="264.051" y2="264.051" gradientUnits="userSpaceOnUse">
         <stop stop-color="#B7B4B1" />
         <stop offset=".546" stop-color="#959390" />
         <stop offset="1" stop-color="#7D7B79" />
      </linearGradient>
      <linearGradient id="Q" x1="106.241" x2="200.424" y1="270.684" y2="270.684" gradientUnits="userSpaceOnUse">
         <stop stop-color="#B7B4B1" />
         <stop offset=".546" stop-color="#959390" />
         <stop offset="1" stop-color="#7D7B79" />
      </linearGradient>
      <linearGradient id="R" x1="106.241" x2="200.424" y1="277.696" y2="277.696" gradientUnits="userSpaceOnUse">
         <stop stop-color="#B7B4B1" />
         <stop offset=".546" stop-color="#959390" />
         <stop offset="1" stop-color="#7D7B79" />
      </linearGradient>
      <linearGradient id="S" x1="106.241" x2="200.424" y1="284.895" y2="284.895" gradientUnits="userSpaceOnUse">
         <stop stop-color="#B7B4B1" />
         <stop offset=".546" stop-color="#959390" />
         <stop offset="1" stop-color="#7D7B79" />
      </linearGradient>
      <linearGradient id="T" x1="127.964" x2="49.479" y1="224.961" y2="290.196" gradientUnits="userSpaceOnUse">
         <stop stop-color="#CAEDC0" />
         <stop offset=".062" stop-color="#C2EAB9" />
         <stop offset=".706" stop-color="#6FCA6E" />
         <stop offset="1" stop-color="#4EBD50" />
      </linearGradient>
      <linearGradient id="U" x1="65.653" x2="74.248" y1="271.84" y2="271.84" gradientUnits="userSpaceOnUse">
         <stop stop-color="#F7F7F7" />
         <stop offset="1" stop-color="#fff" />
      </linearGradient>
      <linearGradient id="V" x1="74.248" x2="87.023" y1="269.083" y2="269.083" gradientUnits="userSpaceOnUse">
         <stop stop-color="#F7F7F7" />
         <stop offset="1" stop-color="#fff" />
      </linearGradient>
      <linearGradient id="W" x1="236.955" x2="416.949" y1="198.614" y2="198.614" gradientUnits="userSpaceOnUse">
         <stop stop-color="#F7F7F7" />
         <stop offset="1" stop-color="#fff" />
      </linearGradient>
      <linearGradient id="X" x1="372.599" x2="259.458" y1="103.628" y2="104.648" gradientUnits="userSpaceOnUse">
         <stop stop-color="#BE73DE" />
         <stop offset="1" stop-color="#514EB7" />
      </linearGradient>
      <linearGradient id="Y" x1="378.208" x2="246.72" y1="112.707" y2="113.217" gradientUnits="userSpaceOnUse">
         <stop stop-color="#BE73DE" />
         <stop offset="1" stop-color="#514EB7" />
      </linearGradient>
      <linearGradient id="Z" x1="378.73" x2="254.377" y1="122.197" y2="121.178" gradientUnits="userSpaceOnUse">
         <stop stop-color="#BE73DE" />
         <stop offset="1" stop-color="#514EB7" />
      </linearGradient>
      <linearGradient id="aa" x1="259.026" x2="283.974" y1="297.582" y2="297.582" gradientUnits="userSpaceOnUse">
         <stop stop-color="#BE73DE" />
         <stop offset="1" stop-color="#514EB7" />
      </linearGradient>
      <linearGradient id="ab" x1="366.501" x2="271.197" y1="143.168" y2="143.168" gradientUnits="userSpaceOnUse">
         <stop stop-color="#BE73DE" />
         <stop offset="1" stop-color="#514EB7" />
      </linearGradient>
      <linearGradient id="ac" x1="299.494" x2="393.677" y1="149.514" y2="149.514" gradientUnits="userSpaceOnUse">
         <stop stop-color="#B7B4B1" />
         <stop offset=".546" stop-color="#959390" />
         <stop offset="1" stop-color="#7D7B79" />
      </linearGradient>
      <linearGradient id="ad" x1="299.494" x2="393.677" y1="154.163" y2="154.163" gradientUnits="userSpaceOnUse">
         <stop stop-color="#B7B4B1" />
         <stop offset=".546" stop-color="#959390" />
         <stop offset="1" stop-color="#7D7B79" />
      </linearGradient>
      <linearGradient id="ae" x1="299.494" x2="393.677" y1="159.079" y2="159.079" gradientUnits="userSpaceOnUse">
         <stop stop-color="#B7B4B1" />
         <stop offset=".546" stop-color="#959390" />
         <stop offset="1" stop-color="#7D7B79" />
      </linearGradient>
      <linearGradient id="af" x1="299.494" x2="393.677" y1="164.125" y2="164.125" gradientUnits="userSpaceOnUse">
         <stop stop-color="#B7B4B1" />
         <stop offset=".546" stop-color="#959390" />
         <stop offset="1" stop-color="#7D7B79" />
      </linearGradient>
      <linearGradient id="ag" x1="259.025" x2="283.973" y1="153.04" y2="153.04" gradientUnits="userSpaceOnUse">
         <stop stop-color="#BE73DE" />
         <stop offset="1" stop-color="#514EB7" />
      </linearGradient>
      <linearGradient id="ah" x1="262.386" x2="289.331" y1="148.275" y2="148.275" gradientUnits="userSpaceOnUse">
         <stop stop-color="#BE73DE" />
         <stop offset="1" stop-color="#514EB7" />
      </linearGradient>
      <linearGradient id="ai" x1="365.997" x2="266.61" y1="180.315" y2="178.786" gradientUnits="userSpaceOnUse">
         <stop stop-color="#BE73DE" />
         <stop offset="1" stop-color="#514EB7" />
      </linearGradient>
      <linearGradient id="aj" x1="299.494" x2="393.677" y1="186.069" y2="186.069" gradientUnits="userSpaceOnUse">
         <stop stop-color="#B7B4B1" />
         <stop offset=".546" stop-color="#959390" />
         <stop offset="1" stop-color="#7D7B79" />
      </linearGradient>
      <linearGradient id="ak" x1="299.494" x2="393.677" y1="190.718" y2="190.718" gradientUnits="userSpaceOnUse">
         <stop stop-color="#B7B4B1" />
         <stop offset=".546" stop-color="#959390" />
         <stop offset="1" stop-color="#7D7B79" />
      </linearGradient>
      <linearGradient id="al" x1="299.494" x2="393.677" y1="195.634" y2="195.634" gradientUnits="userSpaceOnUse">
         <stop stop-color="#B7B4B1" />
         <stop offset=".546" stop-color="#959390" />
         <stop offset="1" stop-color="#7D7B79" />
      </linearGradient>
      <linearGradient id="am" x1="299.494" x2="393.677" y1="200.679" y2="200.679" gradientUnits="userSpaceOnUse">
         <stop stop-color="#B7B4B1" />
         <stop offset=".546" stop-color="#959390" />
         <stop offset="1" stop-color="#7D7B79" />
      </linearGradient>
      <linearGradient id="an" x1="259.025" x2="283.973" y1="190.928" y2="190.928" gradientUnits="userSpaceOnUse">
         <stop stop-color="#BE73DE" />
         <stop offset="1" stop-color="#514EB7" />
      </linearGradient>
      <linearGradient id="ao" x1="262.386" x2="289.331" y1="186.161" y2="186.161" gradientUnits="userSpaceOnUse">
         <stop stop-color="#BE73DE" />
         <stop offset="1" stop-color="#514EB7" />
      </linearGradient>
      <linearGradient id="ap" x1="365.007" x2="270.209" y1="216.687" y2="215.668" gradientUnits="userSpaceOnUse">
         <stop stop-color="#BE73DE" />
         <stop offset="1" stop-color="#514EB7" />
      </linearGradient>
      <linearGradient id="aq" x1="299.494" x2="393.677" y1="222.629" y2="222.629" gradientUnits="userSpaceOnUse">
         <stop stop-color="#B7B4B1" />
         <stop offset=".546" stop-color="#959390" />
         <stop offset="1" stop-color="#7D7B79" />
      </linearGradient>
      <linearGradient id="ar" x1="299.494" x2="393.677" y1="227.278" y2="227.278" gradientUnits="userSpaceOnUse">
         <stop stop-color="#B7B4B1" />
         <stop offset=".546" stop-color="#959390" />
         <stop offset="1" stop-color="#7D7B79" />
      </linearGradient>
      <linearGradient id="as" x1="299.494" x2="393.677" y1="232.194" y2="232.194" gradientUnits="userSpaceOnUse">
         <stop stop-color="#B7B4B1" />
         <stop offset=".546" stop-color="#959390" />
         <stop offset="1" stop-color="#7D7B79" />
      </linearGradient>
      <linearGradient id="at" x1="299.494" x2="393.677" y1="237.24" y2="237.24" gradientUnits="userSpaceOnUse">
         <stop stop-color="#B7B4B1" />
         <stop offset=".546" stop-color="#959390" />
         <stop offset="1" stop-color="#7D7B79" />
      </linearGradient>
      <linearGradient id="au" x1="259.025" x2="283.973" y1="228.819" y2="228.819" gradientUnits="userSpaceOnUse">
         <stop stop-color="#BE73DE" />
         <stop offset="1" stop-color="#514EB7" />
      </linearGradient>
      <linearGradient id="av" x1="262.386" x2="289.332" y1="224.054" y2="224.054" gradientUnits="userSpaceOnUse">
         <stop stop-color="#BE73DE" />
         <stop offset="1" stop-color="#514EB7" />
      </linearGradient>
      <linearGradient id="aw" x1="259.025" x2="283.973" y1="266.709" y2="266.709" gradientUnits="userSpaceOnUse">
         <stop stop-color="#BE73DE" />
         <stop offset="1" stop-color="#514EB7" />
      </linearGradient>
      <linearGradient id="ax" x1="262.386" x2="289.331" y1="261.941" y2="261.941" gradientUnits="userSpaceOnUse">
         <stop stop-color="#BE73DE" />
         <stop offset="1" stop-color="#514EB7" />
      </linearGradient>
      <linearGradient id="ay" x1="376.228" x2="353.015" y1="380.856" y2="246.526" gradientUnits="userSpaceOnUse">
         <stop stop-color="#E2E2E2" />
         <stop offset=".115" stop-color="#E6E6E6" />
         <stop offset="1" stop-color="#fff" />
      </linearGradient>
      <linearGradient id="az" x1="273.872" x2="307.07" y1="276.362" y2="281.261" gradientUnits="userSpaceOnUse">
         <stop stop-color="#F5F5F5" />
         <stop offset=".405" stop-color="#DDD" />
         <stop offset="1" stop-color="#B3B3B3" />
      </linearGradient>
      <linearGradient id="aA" x1="405.743" x2="303.305" y1="265.05" y2="265.05" gradientUnits="userSpaceOnUse">
         <stop stop-color="#BE73DE" />
         <stop offset="1" stop-color="#514EB7" />
      </linearGradient>
      <linearGradient id="aB" x1="349.281" x2="424.857" y1="272.316" y2="272.316" gradientUnits="userSpaceOnUse">
         <stop stop-color="#B7B4B1" />
         <stop offset=".546" stop-color="#959390" />
         <stop offset="1" stop-color="#7D7B79" />
      </linearGradient>
      <linearGradient id="aC" x1="349.281" x2="424.857" y1="277.639" y2="277.639" gradientUnits="userSpaceOnUse">
         <stop stop-color="#B7B4B1" />
         <stop offset=".546" stop-color="#959390" />
         <stop offset="1" stop-color="#7D7B79" />
      </linearGradient>
      <linearGradient id="aD" x1="349.281" x2="424.857" y1="283.266" y2="283.266" gradientUnits="userSpaceOnUse">
         <stop stop-color="#B7B4B1" />
         <stop offset=".546" stop-color="#959390" />
         <stop offset="1" stop-color="#7D7B79" />
      </linearGradient>
      <linearGradient id="aE" x1="349.281" x2="424.857" y1="289.041" y2="289.041" gradientUnits="userSpaceOnUse">
         <stop stop-color="#B7B4B1" />
         <stop offset=".546" stop-color="#959390" />
         <stop offset="1" stop-color="#7D7B79" />
      </linearGradient>
      <linearGradient id="aF" x1="350.856" x2="310.594" y1="245.18" y2="297.164" gradientUnits="userSpaceOnUse">
         <stop stop-color="#CAEDC0" />
         <stop offset=".062" stop-color="#C2EAB9" />
         <stop offset=".706" stop-color="#6FCA6E" />
         <stop offset="1" stop-color="#4EBD50" />
      </linearGradient>
      <linearGradient id="aG" x1="319.308" x2="326.205" y1="279.94" y2="279.94" gradientUnits="userSpaceOnUse">
         <stop stop-color="#F7F7F7" />
         <stop offset="1" stop-color="#fff" />
      </linearGradient>
      <linearGradient id="aH" x1="326.205" x2="336.457" y1="277.727" y2="277.727" gradientUnits="userSpaceOnUse">
         <stop stop-color="#F7F7F7" />
         <stop offset="1" stop-color="#fff" />
      </linearGradient>
      <linearGradient id="aI" x1="407.263" x2="310.941" y1="310.006" y2="310.516" gradientUnits="userSpaceOnUse">
         <stop stop-color="#BE73DE" />
         <stop offset="1" stop-color="#514EB7" />
      </linearGradient>
      <linearGradient id="aJ" x1="349.28" x2="424.856" y1="317.46" y2="317.46" gradientUnits="userSpaceOnUse">
         <stop stop-color="#B7B4B1" />
         <stop offset=".546" stop-color="#959390" />
         <stop offset="1" stop-color="#7D7B79" />
      </linearGradient>
      <linearGradient id="aK" x1="349.28" x2="424.856" y1="322.782" y2="322.782" gradientUnits="userSpaceOnUse">
         <stop stop-color="#B7B4B1" />
         <stop offset=".546" stop-color="#959390" />
         <stop offset="1" stop-color="#7D7B79" />
      </linearGradient>
      <linearGradient id="aL" x1="349.28" x2="424.856" y1="328.41" y2="328.41" gradientUnits="userSpaceOnUse">
         <stop stop-color="#B7B4B1" />
         <stop offset=".546" stop-color="#959390" />
         <stop offset="1" stop-color="#7D7B79" />
      </linearGradient>
      <linearGradient id="aM" x1="349.28" x2="424.856" y1="334.185" y2="334.185" gradientUnits="userSpaceOnUse">
         <stop stop-color="#B7B4B1" />
         <stop offset=".546" stop-color="#959390" />
         <stop offset="1" stop-color="#7D7B79" />
      </linearGradient>
      <linearGradient id="aN" x1="353.065" x2="305.158" y1="288.542" y2="343.074" gradientUnits="userSpaceOnUse">
         <stop stop-color="#CAEDC0" />
         <stop offset=".062" stop-color="#C2EAB9" />
         <stop offset=".706" stop-color="#6FCA6E" />
         <stop offset="1" stop-color="#4EBD50" />
      </linearGradient>
      <linearGradient id="aO" x1="316.71" x2="323.607" y1="323.709" y2="323.709" gradientUnits="userSpaceOnUse">
         <stop stop-color="#F7F7F7" />
         <stop offset="1" stop-color="#fff" />
      </linearGradient>
      <linearGradient id="aP" x1="323.607" x2="333.859" y1="321.495" y2="321.495" gradientUnits="userSpaceOnUse">
         <stop stop-color="#F7F7F7" />
         <stop offset="1" stop-color="#fff" />
      </linearGradient>
      <linearGradient id="aQ" x1="404.729" x2="307.897" y1="355.296" y2="354.787" gradientUnits="userSpaceOnUse">
         <stop stop-color="#BE73DE" />
         <stop offset="1" stop-color="#514EB7" />
      </linearGradient>
      <linearGradient id="aR" x1="349.28" x2="424.856" y1="362.388" y2="362.388" gradientUnits="userSpaceOnUse">
         <stop stop-color="#B7B4B1" />
         <stop offset=".546" stop-color="#959390" />
         <stop offset="1" stop-color="#7D7B79" />
      </linearGradient>
      <linearGradient id="aS" x1="349.28" x2="424.856" y1="367.711" y2="367.711" gradientUnits="userSpaceOnUse">
         <stop stop-color="#B7B4B1" />
         <stop offset=".546" stop-color="#959390" />
         <stop offset="1" stop-color="#7D7B79" />
      </linearGradient>
      <linearGradient id="aT" x1="349.28" x2="424.856" y1="373.337" y2="373.337" gradientUnits="userSpaceOnUse">
         <stop stop-color="#B7B4B1" />
         <stop offset=".546" stop-color="#959390" />
         <stop offset="1" stop-color="#7D7B79" />
      </linearGradient>
      <linearGradient id="aU" x1="349.28" x2="424.856" y1="379.115" y2="379.115" gradientUnits="userSpaceOnUse">
         <stop stop-color="#B7B4B1" />
         <stop offset=".546" stop-color="#959390" />
         <stop offset="1" stop-color="#7D7B79" />
      </linearGradient>
      <linearGradient id="aV" x1="353.662" x2="312.381" y1="333.958" y2="379.317" gradientUnits="userSpaceOnUse">
         <stop stop-color="#CAEDC0" />
         <stop offset=".062" stop-color="#C2EAB9" />
         <stop offset=".706" stop-color="#6FCA6E" />
         <stop offset="1" stop-color="#4EBD50" />
      </linearGradient>
      <linearGradient id="aW" x1="316.71" x2="323.607" y1="368.64" y2="368.64" gradientUnits="userSpaceOnUse">
         <stop stop-color="#F7F7F7" />
         <stop offset="1" stop-color="#fff" />
      </linearGradient>
      <linearGradient id="aX" x1="323.607" x2="333.859" y1="366.427" y2="366.427" gradientUnits="userSpaceOnUse">
         <stop stop-color="#F7F7F7" />
         <stop offset="1" stop-color="#fff" />
      </linearGradient>
      <linearGradient id="aY" x1="376.341" x2="376.299" y1="391.741" y2="375.692" gradientUnits="userSpaceOnUse">
         <stop stop-color="#E2E2E2" />
         <stop offset=".005" stop-color="#E2E2E2" />
         <stop offset=".28" stop-color="#F2F2F2" />
         <stop offset=".588" stop-color="#FCFCFC" />
         <stop offset="1" stop-color="#fff" />
      </linearGradient>
      <linearGradient id="aZ" x1="231.544" x2="230.524" y1="113.562" y2="86.551" gradientUnits="userSpaceOnUse">
         <stop offset=".003" stop-color="#C662C2" />
         <stop offset=".124" stop-color="#B95DBC" />
         <stop offset=".349" stop-color="#9751AB" />
         <stop offset=".653" stop-color="#5F3D90" />
         <stop offset="1" stop-color="#17236D" />
      </linearGradient>
      <linearGradient id="ba" x1="230.994" x2="230.994" y1="56.693" y2="106.638" gradientUnits="userSpaceOnUse">
         <stop stop-color="#BE73DE" />
         <stop offset="1" stop-color="#514EB7" />
      </linearGradient>
      <linearGradient id="bb" x1="178.052" x2="181.469" y1="299.856" y2="299.856" gradientUnits="userSpaceOnUse">
         <stop stop-color="#FFECDC" />
         <stop offset=".238" stop-color="#F6DAC4" />
         <stop offset=".737" stop-color="#E0AD87" />
         <stop offset="1" stop-color="#D39364" />
      </linearGradient>
      <linearGradient id="bc" x1="181.995" x2="214.439" y1="340.721" y2="340.721" gradientUnits="userSpaceOnUse">
         <stop stop-color="#F5F5F5" />
         <stop offset=".405" stop-color="#DDD" />
         <stop offset="1" stop-color="#B3B3B3" />
      </linearGradient>
      <linearGradient id="bd" x1="192.623" x2="201.003" y1="261.772" y2="261.772" gradientUnits="userSpaceOnUse">
         <stop stop-color="#FFECDC" />
         <stop offset=".238" stop-color="#F6DAC4" />
         <stop offset=".737" stop-color="#E0AD87" />
         <stop offset="1" stop-color="#D39364" />
      </linearGradient>
      <linearGradient id="be" x1="192.94" x2="198.085" y1="268.206" y2="268.206" gradientUnits="userSpaceOnUse">
         <stop stop-color="#FFECDC" />
         <stop offset=".238" stop-color="#F6DAC4" />
         <stop offset=".737" stop-color="#E0AD87" />
         <stop offset="1" stop-color="#D39364" />
      </linearGradient>
      <linearGradient id="bf" x1="187.121" x2="202.127" y1="259.513" y2="259.513" gradientUnits="userSpaceOnUse">
         <stop stop-color="gray" />
         <stop offset=".639" stop-color="#52524D" />
         <stop offset="1" stop-color="#3C3C35" />
      </linearGradient>
      <linearGradient id="bg" x1="193.071" x2="198.867" y1="272.188" y2="272.188" gradientUnits="userSpaceOnUse">
         <stop offset=".003" stop-color="#fff" />
         <stop offset=".367" stop-color="#F2F2FF" />
         <stop offset="1" stop-color="#D2D2FF" />
      </linearGradient>
      <linearGradient id="bh" x1="169.901" x2="203.917" y1="284.501" y2="284.501" gradientUnits="userSpaceOnUse">
         <stop stop-color="#7DE1F6" />
         <stop offset=".069" stop-color="#74D8F4" />
         <stop offset=".708" stop-color="#218BE2" />
         <stop offset="1" stop-color="#006DDB" />
      </linearGradient>
      <linearGradient id="bi" x1="190.963" x2="194.391" y1="271.22" y2="271.22" gradientUnits="userSpaceOnUse">
         <stop offset=".003" stop-color="#fff" />
         <stop offset=".367" stop-color="#F2F2FF" />
         <stop offset="1" stop-color="#D2D2FF" />
      </linearGradient>
      <linearGradient id="bj" x1="181.995" x2="200.723" y1="302.856" y2="302.856" gradientUnits="userSpaceOnUse">
         <stop stop-color="#7DE1F6" />
         <stop offset=".069" stop-color="#74D8F4" />
         <stop offset=".708" stop-color="#218BE2" />
         <stop offset="1" stop-color="#006DDB" />
      </linearGradient>
      <linearGradient id="bk" x1="177.511" x2="190.943" y1="340.721" y2="340.721" gradientUnits="userSpaceOnUse">
         <stop stop-color="#F5F5F5" />
         <stop offset=".405" stop-color="#DDD" />
         <stop offset="1" stop-color="#B3B3B3" />
      </linearGradient>
      <linearGradient id="bl" x1="171.444" x2="181.468" y1="376.991" y2="376.991" gradientUnits="userSpaceOnUse">
         <stop offset=".003" stop-color="#fff" />
         <stop offset=".367" stop-color="#F2F2FF" />
         <stop offset="1" stop-color="#D2D2FF" />
      </linearGradient>
      <linearGradient id="bm" x1="204.416" x2="214.439" y1="376.991" y2="376.991" gradientUnits="userSpaceOnUse">
         <stop offset=".003" stop-color="#fff" />
         <stop offset=".367" stop-color="#F2F2FF" />
         <stop offset="1" stop-color="#D2D2FF" />
      </linearGradient>
      <linearGradient id="bn" x1="191.77" x2="194.479" y1="273.736" y2="273.736" gradientUnits="userSpaceOnUse">
         <stop offset=".003" stop-color="#fff" />
         <stop offset=".367" stop-color="#F2F2FF" />
         <stop offset="1" stop-color="#D2D2FF" />
      </linearGradient>
      <linearGradient id="bo" x1="194.099" x2="195.107" y1="273.328" y2="273.328" gradientUnits="userSpaceOnUse">
         <stop offset=".003" stop-color="#fff" />
         <stop offset=".367" stop-color="#F2F2FF" />
         <stop offset="1" stop-color="#D2D2FF" />
      </linearGradient>
      <linearGradient id="bp" x1="191.735" x2="192.401" y1="272.74" y2="272.74" gradientUnits="userSpaceOnUse">
         <stop offset=".003" stop-color="#fff" />
         <stop offset=".367" stop-color="#F2F2FF" />
         <stop offset="1" stop-color="#D2D2FF" />
      </linearGradient>
      <linearGradient id="bq" x1="185.4" x2="192.938" y1="287.192" y2="287.192" gradientUnits="userSpaceOnUse">
         <stop offset=".003" stop-color="#fff" />
         <stop offset=".367" stop-color="#F2F2FF" />
         <stop offset="1" stop-color="#D2D2FF" />
      </linearGradient>
      <linearGradient id="br" x1="148.385" x2="220.475" y1="288.088" y2="288.088" gradientUnits="userSpaceOnUse">
         <stop stop-color="#FFD571" />
         <stop offset=".251" stop-color="#FFBD60" />
         <stop offset=".778" stop-color="#FF8035" />
         <stop offset="1" stop-color="#FF6421" />
      </linearGradient>
      <linearGradient id="bs" x1="96.092" x2="158.69" y1="247.533" y2="247.533" gradientUnits="userSpaceOnUse">
         <stop stop-color="#E2E2E2" />
         <stop offset=".388" stop-color="#E9E9E9" />
         <stop offset=".965" stop-color="#FEFEFE" />
         <stop offset="1" stop-color="#fff" />
      </linearGradient>
      <linearGradient id="bt" x1="209.398" x2="224.055" y1="310.917" y2="310.917" gradientUnits="userSpaceOnUse">
         <stop stop-color="#FFD571" />
         <stop offset=".251" stop-color="#FFBD60" />
         <stop offset=".778" stop-color="#FF8035" />
         <stop offset="1" stop-color="#FF6421" />
      </linearGradient>
      <linearGradient id="bu" x1="217.314" x2="231.789" y1="316.527" y2="316.527" gradientUnits="userSpaceOnUse">
         <stop stop-color="#FFD571" />
         <stop offset=".251" stop-color="#FFBD60" />
         <stop offset=".778" stop-color="#FF8035" />
         <stop offset="1" stop-color="#FF6421" />
      </linearGradient>
      <linearGradient id="bv" x1="136.198" x2="214.345" y1="303.955" y2="303.955" gradientUnits="userSpaceOnUse">
         <stop stop-color="#E2E2E2" />
         <stop offset=".115" stop-color="#E6E6E6" />
         <stop offset="1" stop-color="#fff" />
      </linearGradient>
      <linearGradient id="bw" x1="91.65" x2="103.878" y1="227.466" y2="227.466" gradientUnits="userSpaceOnUse">
         <stop stop-color="#FFD571" />
         <stop offset=".251" stop-color="#FFBD60" />
         <stop offset=".778" stop-color="#FF8035" />
         <stop offset="1" stop-color="#FF6421" />
      </linearGradient>
      <linearGradient id="bx" x1="86.559" x2="93.403" y1="221.137" y2="221.137" gradientUnits="userSpaceOnUse">
         <stop stop-color="#E2E2E2" />
         <stop offset=".115" stop-color="#E6E6E6" />
         <stop offset="1" stop-color="#fff" />
      </linearGradient>
      <linearGradient id="by" x1="191.946" x2="206.981" y1="287.943" y2="299.461" gradientUnits="userSpaceOnUse">
         <stop stop-color="#7DE1F6" />
         <stop offset=".069" stop-color="#74D8F4" />
         <stop offset=".708" stop-color="#218BE2" />
         <stop offset="1" stop-color="#006DDB" />
      </linearGradient>
      <linearGradient id="bz" x1="166.437" x2="170.661" y1="289.135" y2="289.442" gradientUnits="userSpaceOnUse">
         <stop stop-color="#FFECDC" />
         <stop offset=".238" stop-color="#F6DAC4" />
         <stop offset=".737" stop-color="#E0AD87" />
         <stop offset="1" stop-color="#D39364" />
      </linearGradient>
   </defs>
</svg>