<svg xmlns="http://www.w3.org/2000/svg" width="340" height="425" fill="none">
   <g opacity=".15">
      <path fill="#4A0101"
         d="M259.859 347.732c.032-20.435-38.18-37.062-85.351-37.136-47.17-.075-85.435 16.43-85.468 36.864-.032 20.435 38.181 37.062 85.351 37.136 47.17.075 85.435-16.43 85.468-36.864Z"
         opacity=".038" />
      <path fill="#480202"
         d="M257.599 347.729c.032-19.896-37.17-36.083-83.092-36.156-45.922-.073-83.175 15.996-83.207 35.892-.031 19.895 37.17 36.083 83.092 36.155 45.923.073 83.175-15.996 83.207-35.891Z"
         opacity=".077" />
      <path fill="#460303"
         d="M255.342 347.725c.031-19.354-36.161-35.102-80.837-35.173-44.676-.07-80.917 15.562-80.948 34.916-.031 19.355 36.161 35.102 80.837 35.173 44.676.071 80.918-15.561 80.948-34.916Z"
         opacity=".115" />
      <path fill="#440404"
         d="M253.083 347.721c.03-18.815-35.151-34.123-78.579-34.192-43.428-.069-78.657 15.127-78.687 33.943-.03 18.815 35.151 34.123 78.579 34.192 43.428.069 78.657-15.128 78.687-33.943Z"
         opacity=".154" />
      <path fill="#420505"
         d="M250.826 347.718c.029-18.274-34.142-33.142-76.324-33.209-42.181-.067-76.4 14.692-76.429 32.966-.028 18.274 34.143 33.143 76.324 33.21 42.182.067 76.4-14.693 76.429-32.967Z"
         opacity=".192" />
      <path fill="#400606"
         d="M248.566 347.715c.029-17.733-33.132-32.161-74.065-32.226-40.934-.065-74.14 14.258-74.168 31.991-.028 17.732 33.132 32.161 74.066 32.226 40.933.065 74.139-14.258 74.167-31.991Z"
         opacity=".231" />
      <path fill="#3E0606"
         d="M246.31 347.711c.027-17.194-32.123-31.183-71.811-31.246-39.687-.063-71.882 13.824-71.909 31.017-.027 17.194 32.123 31.183 71.811 31.246 39.687.063 71.882-13.824 71.909-31.017Z"
         opacity=".269" />
      <path fill="#3C0707"
         d="M244.05 347.708c.027-16.653-31.113-30.202-69.552-30.263-38.439-.061-69.622 13.389-69.648 30.042-.027 16.652 31.113 30.201 69.552 30.262 38.439.061 69.622-13.389 69.648-30.041Z"
         opacity=".308" />
      <path fill="#3A0808"
         d="M241.793 347.704c.026-16.113-30.104-29.223-67.297-29.282-37.193-.06-67.364 12.955-67.39 29.068-.025 16.113 30.105 29.224 67.298 29.283 37.192.059 67.364-12.956 67.389-29.069Z"
         opacity=".346" />
      <path fill="#380909"
         d="M239.534 347.7c.024-15.572-29.095-28.242-65.039-28.299-35.945-.057-65.104 12.52-65.129 28.092-.025 15.573 29.094 28.243 65.039 28.3 35.945.057 65.104-12.52 65.129-28.093Z"
         opacity=".385" />
      <path fill="#360A0A"
         d="M237.277 347.697c.024-15.033-28.085-27.264-62.784-27.319-34.698-.055-62.846 12.086-62.87 27.119-.024 15.033 28.085 27.264 62.784 27.32 34.698.055 62.846-12.087 62.87-27.12Z"
         opacity=".423" />
      <path fill="#340B0B"
         d="M235.018 347.694c.023-14.492-27.076-26.283-60.526-26.336-33.45-.053-60.586 11.652-60.609 26.143-.023 14.492 27.075 26.283 60.526 26.336 33.45.054 60.586-11.651 60.609-26.143Z"
         opacity=".462" />
      <path fill="#330C0C"
         d="M232.761 347.69c.022-13.951-26.066-25.301-58.271-25.353-32.204-.051-58.328 11.217-58.35 25.168-.023 13.951 26.066 25.301 58.27 25.353 32.204.051 58.329-11.217 58.351-25.168Z"
         opacity=".5" />
      <path fill="#310D0D"
         d="M230.501 347.687c.022-13.412-25.056-24.324-56.012-24.373-30.956-.049-56.068 10.783-56.09 24.194-.021 13.412 25.057 24.324 56.013 24.373 30.956.049 56.068-10.783 56.089-24.194Z"
         opacity=".538" />
      <path fill="#2F0E0E"
         d="M228.244 347.683c.021-12.871-24.047-23.343-53.757-23.39-29.709-.047-53.811 10.348-53.831 23.219-.021 12.87 24.047 23.342 53.757 23.389 29.71.047 53.811-10.348 53.831-23.218Z"
         opacity=".577" />
      <path fill="#2D0F0F"
         d="M225.985 347.679c.019-12.331-23.037-22.364-51.499-22.409-28.462-.045-51.551 9.914-51.57 22.245-.02 12.331 23.037 22.364 51.499 22.41 28.462.045 51.55-9.915 51.57-22.246Z"
         opacity=".615" />
      <path fill="#2B1010"
         d="M223.728 347.675c.019-11.79-22.029-21.383-49.244-21.426-27.215-.043-49.293 9.479-49.312 21.27-.018 11.79 22.029 21.382 49.244 21.426 27.216.043 49.293-9.48 49.312-21.27Z"
         opacity=".654" />
      <path fill="#291111"
         d="M221.468 347.672c.018-11.251-21.018-20.405-46.985-20.446-25.968-.041-47.033 9.046-47.051 20.296-.018 11.251 21.018 20.405 46.986 20.446 25.967.042 47.032-9.045 47.05-20.296Z"
         opacity=".692" />
      <path fill="#271212"
         d="M219.212 347.668c.017-10.71-20.009-19.423-44.73-19.463-24.721-.039-44.776 8.611-44.793 19.32-.017 10.71 20.01 19.424 44.731 19.463 24.721.04 44.775-8.61 44.792-19.32Z"
         opacity=".731" />
      <path fill="#251212"
         d="M216.952 347.662c.016-10.169-18.999-18.442-42.472-18.48-23.473-.037-42.515 8.176-42.531 18.345-.016 10.168 18.999 18.442 42.472 18.479 23.473.038 42.515-8.175 42.531-18.344Z"
         opacity=".769" />
      <path fill="#231313"
         d="M214.696 347.659c.015-9.63-17.991-17.464-40.218-17.5-22.226-.035-40.257 7.742-40.272 17.371-.016 9.63 17.99 17.465 40.217 17.5 22.227.035 40.257-7.742 40.273-17.371Z"
         opacity=".808" />
      <path fill="#211414"
         d="M212.436 347.655c.014-9.089-16.981-16.483-37.959-16.517-20.979-.033-37.997 7.307-38.012 16.396-.014 9.088 16.981 16.482 37.959 16.516 20.979.033 37.997-7.307 38.012-16.395Z"
         opacity=".846" />
      <path fill="#1F1515"
         d="M210.179 347.651c.014-8.548-15.971-15.504-35.704-15.536-19.732-.031-35.739 6.874-35.753 15.423-.013 8.548 15.972 15.504 35.704 15.536 19.732.031 35.74-6.874 35.753-15.423Z"
         opacity=".885" />
      <path fill="#1D1616"
         d="M207.919 347.647c.013-8.008-14.961-14.523-33.445-14.553-18.485-.029-33.479 6.439-33.492 14.447-.013 8.007 14.961 14.523 33.445 14.552 18.485.03 33.48-6.438 33.492-14.446Z"
         opacity=".923" />
      <path fill="#1B1717"
         d="M205.663 347.644c.012-7.469-13.952-13.545-31.19-13.573-17.238-.027-31.222 6.005-31.234 13.473-.012 7.469 13.953 13.545 31.19 13.573 17.238.027 31.222-6.005 31.234-13.473Z"
         opacity=".962" />
      <path fill="#191818"
         d="M203.403 347.64c.011-6.927-12.942-12.564-28.932-12.589-15.99-.026-28.961 5.569-28.972 12.497-.011 6.927 12.942 12.564 28.932 12.589 15.99.026 28.961-5.57 28.972-12.497Z" />
   </g>
   <path fill="url(#a)"
      d="M98.348 65.968 206.88 3.328c7.111-4.104 25.304 3.734 25.304 11.946l-9.303 273.744c0 7.236-3.859 13.92-10.127 17.538l-108.332 72.587c-5.04 2.908-17.539-7.211-17.539-13.033V85.827a22.922 22.922 0 0 1 11.466-19.86Z" />
   <path fill="url(#b)"
      d="M98.658 66.02 207.19 3.383c7.111-4.105 25.304 3.732 25.304 11.945L223.19 289.07c0 7.236-3.859 13.92-10.127 17.538l-108.332 72.587c-5.04 2.908-17.54-7.211-17.54-13.033V85.883c0-8.193 4.372-15.767 11.467-19.862Z" />
   <path fill="url(#c)"
      d="M108.317 71.49 216.848 8.85c7.111-4.104 15.998 1.03 15.998 9.242v276.451c0 7.236-3.859 13.92-10.127 17.537l-114.532 66.099c-5.04 2.908-11.339-.729-11.339-6.548V91.349a22.933 22.933 0 0 1 11.469-19.86Z" />
   <path fill="url(#d)"
      d="M108.317 71.49 216.848 8.85c4.38-2.53 9.433-1.546 12.669 1.495-3.233-2.514-7.855-3.175-11.903-.837L109.083 72.147a22.933 22.933 0 0 0-11.47 19.86v280.282c0 2.173.881 4.042 2.245 5.382a7.47 7.47 0 0 1-3.01-6.039V91.349a22.933 22.933 0 0 1 11.469-19.86Z" />
   <path fill="url(#e)"
      d="m111.395 76.825 31.715-18.303a1.626 1.626 0 0 1 2.439 1.407v2.76c0 2.206 2.39 3.59 4.303 2.485l24.144-13.935a5.587 5.587 0 0 0 2.796-4.84v-5.071c0-1.389.741-2.672 1.944-3.364l41.19-23.772a4.428 4.428 0 0 1 2.238-.62c2.176 0 4.526 1.73 4.526 4.527v276.45c0 5.035-2.684 9.685-7.046 12.202l-114.535 66.096a1.367 1.367 0 0 1-.688.198c-.357 0-.732-.155-1.004-.418a1.317 1.317 0 0 1-.41-.995V91.349c0-5.993 3.199-11.53 8.388-14.524Z" />
   <path fill="#424242"
      d="m153.112 58.816 18.072-10.435c.676-.39 1.231-1.265 1.231-1.94 0-.677-.555-.912-1.231-.522l-18.072 10.436c-.675.39-1.23 1.264-1.23 1.94 0 .676.555.912 1.23.521Z" />
   <path fill="url(#f)"
      d="m126.042 161.035 128.673-73.62a7.346 7.346 0 0 0 3.698-6.38V36.638c0-4.14-4.469-6.731-8.062-4.679l-127.477 72.935a7.501 7.501 0 0 0-3.776 6.51v45.6c0 3.569 3.85 5.801 6.944 4.031Z" />
   <path fill="url(#g)"
      d="m129.256 162.615 128.674-73.62a7.348 7.348 0 0 0 3.698-6.38V38.219c0-4.138-4.47-6.73-8.063-4.678l-127.477 72.938a7.5 7.5 0 0 0-3.775 6.51v45.6c0 3.566 3.85 5.798 6.943 4.027Z" />
   <path fill="#fff"
      d="M258.565 44.609c0 2.446-.995 5.245-2.613 7.806-1.606 2.554-3.825 4.845-6.271 6.271L133.58 126.42c-4.891 2.852-8.884 1.178-8.884-3.711 0-2.437.995-5.246 2.613-7.797 1.609-2.545 3.825-4.846 6.271-6.272l116.101-67.732c4.891-2.852 8.884-1.178 8.884 3.702Z" />
   <path fill="url(#h)"
      d="M258.565 44.608c0 2.447-.995 5.246-2.613 7.807-1.606 2.554-3.825 4.845-6.271 6.271l-20.164 11.462v-17.78l20.164-11.461c4.891-2.852 8.884-1.178 8.884 3.702Z" />
   <path fill="#E2E2E2"
      d="m200.54 79.827-67.707 39.468c-.871.508-1.581.211-1.581-.661 0-.871.713-1.996 1.581-2.501l67.707-39.468c.871-.509 1.58-.211 1.58.66 0 .868-.709 1.993-1.58 2.502Z" />
   <path fill="#12A4B4"
      d="m182.26 111.683-49.845 29.055c-.642.372-1.166.155-1.166-.487s.524-1.47 1.166-1.842l49.845-29.054c.642-.372 1.165-.155 1.165.486 0 .642-.523 1.47-1.165 1.842Z" />
   <path fill="#FDFDFD"
      d="m232.694 88.93-100.279 58.008c-.642.372-1.166.155-1.166-.487 0-.641.524-1.469 1.166-1.841l100.279-58.007c.642-.372 1.166-.155 1.166.486-.004.639-.527 1.47-1.166 1.842ZM232.694 95.13l-100.279 58.006c-.642.372-1.166.155-1.166-.486 0-.642.524-1.47 1.166-1.842l100.279-58.007c.642-.372 1.166-.155 1.166.487-.004.638-.527 1.47-1.166 1.841Z" />
   <path fill="#FEFCFD"
      d="M247.186 54.755a4.518 4.518 0 0 0-1.848-6.116 4.517 4.517 0 0 0-6.116 1.847 4.508 4.508 0 0 0 1.209 5.686l-2.957 5.515 1.348.726 2.958-5.515c2.049.682 4.352-.174 5.406-2.143Zm-5.8 1.256a3.847 3.847 0 1 1 3.638-6.78 3.847 3.847 0 0 1-3.638 6.78Z" />
   <path fill="#DBD9D7"
      d="m128.02 217.232 128.673-73.62a7.346 7.346 0 0 0 3.698-6.38v-32.059c0-4.138-4.47-6.73-8.062-4.678l-127.48 72.935a7.5 7.5 0 0 0-3.776 6.51v33.262c0 3.565 3.853 5.8 6.947 4.03Z" />
   <path fill="url(#i)"
      d="m129.257 217.975 128.673-73.62a7.344 7.344 0 0 0 3.698-6.38v-32.058c0-4.139-4.47-6.73-8.062-4.679l-127.48 72.935a7.5 7.5 0 0 0-3.776 6.51v33.262c.003 3.565 3.853 5.8 6.947 4.03Z" />
   <path fill="#12A4B4"
      d="m214.191 140.62-49.845 29.055c-.642.372-1.165.155-1.165-.487 0-.641.523-1.469 1.165-1.841l49.845-29.055c.642-.372 1.166-.155 1.166.487 0 .639-.524 1.466-1.166 1.841Z" />
   <path fill="#E2E2E2"
      d="m248.798 126.939-84.452 48.933c-.641.372-1.165.155-1.165-.487s.524-1.469 1.165-1.841l84.452-48.933c.641-.372 1.165-.155 1.165.486-.003.639-.527 1.47-1.165 1.842ZM248.798 133.136l-84.452 48.933c-.642.372-1.165.155-1.165-.487 0-.641.523-1.469 1.165-1.841l84.452-48.933c.641-.372 1.165-.155 1.165.487-.003.641-.527 1.469-1.165 1.841Z" />
   <path fill="#C1C1C1"
      d="m152.539 169.287-21.903 12.441c-1.302.738-2.356 2.551-2.356 4.049v18.018c0 1.497 1.054 2.111 2.356 1.373l21.903-12.441c1.302-.738 2.356-2.551 2.356-4.049V170.66c.003-1.497-1.054-2.111-2.356-1.373Zm-18.527 31.116-2.771 1.575v-6.941l2.771-1.575v6.941Zm4.482-2.545-2.771 1.575v-5.385l2.771-1.575v5.385Zm4.479-2.545-2.771 1.575v-8.87l2.771-1.575v8.87Zm4.483-2.549-2.772 1.575v-12.007l2.772-1.575v12.007Zm4.482-2.545-2.771 1.575v-8.87l2.771-1.574v8.869Z" />
   <path fill="#DBD9D7"
      d="m128.019 270.771 128.674-73.62a7.348 7.348 0 0 0 3.698-6.38v-32.056c0-4.138-4.47-6.73-8.063-4.678l-127.48 72.935a7.5 7.5 0 0 0-3.775 6.51v33.262c0 3.565 3.853 5.797 6.946 4.027Z" />
   <path fill="url(#j)"
      d="m129.256 271.515 128.674-73.62a7.348 7.348 0 0 0 3.698-6.38v-32.059c0-4.138-4.47-6.73-8.063-4.678l-127.48 72.935a7.5 7.5 0 0 0-3.775 6.51v33.262c.003 3.565 3.853 5.8 6.946 4.03Z" />
   <path fill="#12A4B4"
      d="m214.191 194.16-49.845 29.055c-.641.372-1.165.155-1.165-.487 0-.641.524-1.469 1.165-1.841l49.845-29.055c.642-.372 1.166-.155 1.166.487 0 .638-.524 1.466-1.166 1.841Z" />
   <path fill="#E2E2E2"
      d="m248.798 180.48-84.452 48.933c-.641.372-1.165.155-1.165-.487s.524-1.47 1.165-1.842l84.452-48.933c.641-.372 1.165-.155 1.165.487-.003.642-.527 1.47-1.165 1.842ZM248.798 186.68l-84.452 48.933c-.641.372-1.165.155-1.165-.487s.524-1.47 1.165-1.842l84.452-48.933c.641-.372 1.165-.155 1.165.487-.003.639-.527 1.467-1.165 1.842Z" />
   <path fill="#C1C1C1"
      d="m152.539 222.831-21.903 12.441c-1.302.738-2.356 2.551-2.356 4.048v18.019c0 1.497 1.054 2.111 2.356 1.373l21.903-12.441c1.302-.738 2.356-2.551 2.356-4.049v-18.018c.003-1.5-1.054-2.114-2.356-1.373Zm-13.552 23.456v-8.579l5.204 1.172-5.204 7.407Z" />
   <path fill="#DBD9D7"
      d="m128.02 324.311 128.673-73.62a7.344 7.344 0 0 0 3.698-6.38v-32.058c0-4.139-4.47-6.731-8.062-4.679l-127.48 72.935a7.501 7.501 0 0 0-3.776 6.51v33.262c0 3.568 3.853 5.8 6.947 4.03Z" />
   <path fill="url(#k)"
      d="m129.257 325.055 128.673-73.619a7.347 7.347 0 0 0 3.698-6.381v-32.058c0-4.139-4.469-6.731-8.062-4.678l-127.48 72.934a7.501 7.501 0 0 0-3.776 6.51v33.262c.003 3.565 3.853 5.8 6.947 4.03Z" />
   <path fill="#12A4B4"
      d="m214.191 247.7-49.845 29.055c-.641.372-1.165.155-1.165-.487 0-.641.524-1.469 1.165-1.841l49.845-29.055c.642-.372 1.166-.155 1.166.487 0 .638-.524 1.469-1.166 1.841Z" />
   <path fill="#E2E2E2"
      d="m248.798 234.023-84.452 48.933c-.641.372-1.165.155-1.165-.487s.524-1.47 1.165-1.842l84.452-48.933c.641-.372 1.165-.155 1.165.487-.003.639-.527 1.467-1.165 1.842ZM248.798 240.22l-84.452 48.933c-.641.372-1.165.155-1.165-.487 0-.641.524-1.469 1.165-1.841l84.452-48.933c.641-.372 1.165-.155 1.165.487-.003.638-.527 1.469-1.165 1.841Z" />
   <path fill="#FDFFFC" d="M151.102 290.095v-5.432l-3.392 1.668 3.392 3.764Z" />
   <path fill="#C1C1C1"
      d="m152.54 276.37-21.904 12.441c-1.302.738-2.356 2.552-2.356 4.049v18.018c0 1.498 1.054 2.111 2.356 1.374l21.904-12.441c1.301-.738 2.355-2.552 2.355-4.049v-18.018c.004-1.498-1.054-2.115-2.355-1.374Zm-.45 16.292-2.824-3.135-4.169 8.278-6.045-5.45-6.878 14.329-.89-.428 7.449-15.52 6.063 5.466 3.76-7.465-2.452-2.722 5.986-2.939v9.586Z" />
   <path fill="url(#l)"
      d="m63.4 170.54 39.699-22.808a8.734 8.734 0 0 0 4.399-7.583V102.03c0-4.92-5.316-8.005-9.588-5.562l-38.28 21.996a8.912 8.912 0 0 0-4.488 7.741v39.549c0 4.237 4.578 6.891 8.258 4.786Z" />
   <path fill="url(#m)"
      d="m64.872 171.424 39.7-22.808a8.737 8.737 0 0 0 4.398-7.583v-38.12c0-4.92-5.316-8.004-9.588-5.561l-38.28 21.995a8.915 8.915 0 0 0-4.488 7.741v39.549c0 4.238 4.579 6.892 8.258 4.787Z" />
   <path fill="#FFFFFB" d="M77.606 126.707v21.469l14.179-17.671-14.179-3.798Z" />
   <path fill="url(#n)"
      d="m288.534 183.775 39.7-22.808a8.737 8.737 0 0 0 4.398-7.583v-38.12c0-4.92-5.316-8.004-9.587-5.561l-38.28 21.995a8.913 8.913 0 0 0-4.489 7.741v39.549c0 4.235 4.579 6.892 8.258 4.787Z" />
   <path fill="url(#o)"
      d="m290.007 184.658 39.699-22.807a8.737 8.737 0 0 0 4.399-7.583v-38.12c0-4.92-5.317-8.005-9.588-5.562l-38.28 21.996a8.914 8.914 0 0 0-4.488 7.741v39.549c0 4.235 4.578 6.891 8.258 4.786Z" />
   <path fill="#fff"
      d="M332.133 116.151v38.117a6.78 6.78 0 0 1-3.4 5.877l-39.709 22.802a3.473 3.473 0 0 1-1.745.484c-1.714 0-3.559-1.361-3.559-3.559V140.32a6.96 6.96 0 0 1 3.5-6.027l38.28-22.002a4.386 4.386 0 0 1 2.188-.592c2.139.003 4.445 1.699 4.445 4.452Z" />
   <path fill="url(#p)"
      d="M332.133 138.91v15.355a6.781 6.781 0 0 1-3.4 5.878l-39.709 22.801a3.463 3.463 0 0 1-1.745.484c-1.714 0-3.559-1.361-3.559-3.559v-11.182l14.288-20.551 12.16 9.362 9.65-28.239 12.315 9.651Z" />
   <path fill="url(#q)"
      d="M300.354 136.855c0 2.384-1.934 5.518-4.318 6.997-2.384 1.479-4.318.744-4.318-1.64s1.934-5.518 4.318-6.997c2.384-1.479 4.318-.744 4.318 1.64Z" />
   <path fill="url(#r)"
      d="m67.074 369.176 39.699-22.808a8.736 8.736 0 0 0 4.399-7.583V229.802c0-4.92-5.316-8.004-9.588-5.561l-38.28 21.995a8.913 8.913 0 0 0-4.488 7.741v110.412c0 4.235 4.581 6.892 8.258 4.787Z" />
   <path fill="url(#s)"
      d="m68.546 370.06 39.699-22.808a8.736 8.736 0 0 0 4.399-7.583V230.686c0-4.92-5.316-8.005-9.588-5.562l-38.28 21.996a8.913 8.913 0 0 0-4.488 7.741v110.412c0 4.235 4.582 6.892 8.258 4.787Z" />
   <path fill="#12A4B4"
      d="M90.567 298.762 71.742 309.91c-.387.23-.704.099-.704-.288 0-.388.317-.89.704-1.119l18.825-11.148c.388-.23.704-.1.704.288 0 .384-.316.89-.704 1.119Z" />
   <path fill="#FEFFFF"
      d="M102.963 295.361 71.742 313.85c-.388.229-.704.099-.704-.288 0-.388.316-.89.704-1.119l31.221-18.49c.388-.229.704-.099.704.289 0 .387-.316.889-.704 1.119ZM102.963 299.304l-31.221 18.489c-.388.23-.704.1-.704-.288 0-.387.317-.89.704-1.119l31.221-18.489c.388-.23.704-.1.704.288 0 .384-.316.89-.704 1.119ZM102.963 303.245l-31.221 18.489c-.388.229-.704.099-.704-.288 0-.388.317-.89.704-1.12l31.221-18.489c.388-.229.704-.099.704.288 0 .388-.316.89-.704 1.12ZM96.748 310.868l-25.006 14.81c-.387.229-.704.099-.704-.288 0-.388.317-.89.704-1.12l25.006-14.809c.388-.229.704-.099.704.288 0 .385-.316.89-.704 1.119Z" />
   <path fill="#12A4B4"
      d="M90.567 324.502 71.742 335.65c-.387.229-.704.099-.704-.289 0-.387.317-.889.704-1.119l18.825-11.148c.388-.229.704-.099.704.288 0 .388-.316.89-.704 1.12Z" />
   <path fill="#FEFFFF"
      d="m102.963 321.104-31.221 18.489c-.388.23-.704.1-.704-.288 0-.387.316-.89.704-1.119l31.221-18.489c.388-.23.704-.1.704.288 0 .384-.316.89-.704 1.119ZM102.963 325.044l-31.221 18.49c-.388.229-.704.099-.704-.289 0-.387.317-.889.704-1.119l31.221-18.489c.388-.23.704-.099.704.288 0 .388-.316.89-.704 1.119ZM102.963 328.988l-31.22 18.489c-.388.23-.704.099-.704-.288 0-.388.316-.89.703-1.119l31.221-18.49c.388-.229.704-.099.704.289 0 .384-.316.889-.704 1.119ZM96.748 336.608l-25.006 14.809c-.387.23-.704.1-.704-.288 0-.387.317-.89.704-1.119l25.006-14.81c.388-.229.704-.099.704.289 0 .387-.316.893-.704 1.119Z" />
   <path fill="url(#t)"
      d="M104.593 259.281c0 4.248-1.271 8.873-3.416 13.207-3.072 6.213-7.932 11.827-13.403 14.872-6.005 3.341-11.274 2.771-14.25-.847-1.628-1.975-2.567-4.858-2.567-8.513 0-10.339 7.53-22.907 16.817-28.078 9.29-5.168 16.819-.98 16.819 9.359Z" />
   <path fill="url(#u)"
      d="m84.128 272.358-.778 3.562s1.603 1.221 4.095-.245c2.492-1.466 4.715-4.433 4.715-4.433l-1.5-2.952-6.532 4.068Z" />
   <path fill="url(#v)"
      d="M81.503 265.34c-1.534 1.358-.85 3.035-.415 3.388.437.357 1.708.778 1.708.778s.08 2.006.855 2.756c.775.751 2.486 1.712 3.171 1.467.685-.245 4.848-4.855 5.347-5.866.503-1.01 1.048-5.72 1.048-5.72s1.32-1.168 1.491-3.072c.17-1.903.192-2.266-.334-2.092-.53.173-1.73-1.699-1.73-1.699l-6.96 3.937-1.853.505-.877 5.751-1.451-.133Z" />
   <path fill="url(#w)"
      d="M84.99 261.012c-1.53 1.652-1.633 4.824-1.633 4.824l-.45 2.833-1.02-3.295s-.678-3.194-.38-4.744c.297-1.55 1.49-2.706 1.49-2.706s.025-2.105 2.22-3.906c2.198-1.805 5.796-3.398 7.746-3.404 1.95-.006 1.876 2.849 1.857 4.349-.022 1.501-.136 1.709-.136 1.709s-1.646.961-1.736 2.39c-.09 1.429.043 2.61-.205 2.805-.245.196-.207-1.286-.207-1.286s-6.014-1.222-7.546.431Z" />
   <path fill="url(#x)"
      d="M101.177 272.489c-3.072 6.213-7.932 11.827-13.403 14.871-6.005 3.342-11.274 2.772-14.25-.846l9.922-11.036s2.369 1.016 4.455-.394c2.086-1.411 3.177-3.751 4.107-4.337.716-.45 6.534 1.032 9.169 1.742Z" />
   <path fill="url(#y)" d="m83.353 274.15 2.93.824-2.037 3.835-2.365-2.626 1.472-2.033Z" />
   <path fill="url(#z)" d="m88.279 273.623 1.091 2.152 3.599-5.15-1.562-.871-3.128 3.869Z" />
   <path fill="url(#A)"
      d="M18.673 33.77 76.702.483c2.275-1.302 9.03.161 9.03 2.784L81.81 53.071a4.94 4.94 0 0 1-2.48 4.282L46.209 76.35l4.541 29.396-4.54-1.779-15.184-18.905-7.675 8.116c-1.903 1.088-7.486-2.151-7.486-4.337v-50.22c0-2.002 1.07-3.86 2.808-4.851Z" />
   <path fill="url(#B)"
      d="M23.215 35.549 81.243 2.263c2.275-1.303 5.109.334 5.109 2.957v49.627a4.94 4.94 0 0 1-2.48 4.282L50.75 78.127v27.613L35.567 86.835l-10.893 6.25c-1.903 1.088-4.265-.288-4.265-2.474V40.39a5.572 5.572 0 0 1 2.806-4.842Z" />
   <g fill="#fff" opacity=".58">
      <path
         d="m32.939 54.77 40.88-23.598c.447-.257.81-.83.81-1.277v-.174c0-.446-.363-.598-.81-.34L32.94 52.978c-.446.257-.81.83-.81 1.277v.174c0 .446.364.598.81.34ZM32.939 49.08l40.88-23.6c.447-.256.81-.83.81-1.277v-.173c0-.447-.363-.598-.81-.341L32.94 47.287c-.446.258-.81.831-.81 1.278v.173c0 .447.364.599.81.341ZM32.939 43.387l40.88-23.599c.447-.257.81-.83.81-1.277v-.174c0-.446-.363-.598-.81-.34L32.94 41.594c-.446.257-.81.83-.81 1.277v.174c0 .443.364.598.81.34Z" />
   </g>
   <g fill="#fff" opacity=".58">
      <path
         d="m32.939 74.531 40.88-23.598c.447-.257.81-.83.81-1.277v-.174c0-.446-.363-.598-.81-.34L32.94 72.74c-.446.257-.81.83-.81 1.277v.174c0 .443.364.598.81.34ZM32.939 68.84l40.88-23.598c.447-.258.81-.831.81-1.278v-.173c0-.447-.363-.599-.81-.341L32.94 67.048c-.446.257-.81.831-.81 1.277v.174c0 .443.364.598.81.341ZM32.939 63.148l40.88-23.599c.447-.257.81-.83.81-1.277v-.174c0-.446-.363-.598-.81-.34L32.94 61.355c-.446.257-.81.83-.81 1.277v.174c0 .443.364.598.81.34Z" />
   </g>
   <path fill="url(#C)" d="m35.903 87.09 14.848 18.49v.164l-14.941-18.6.093-.053Z" />
   <path fill="url(#D)"
      d="M23.215 35.55 81.243 2.263c1.343-.769 2.877-.508 3.913.372-1.014-.67-2.375-.809-3.578-.12L23.55 35.8a5.584 5.584 0 0 0-2.809 4.849v50.219c0 .936.45 1.708 1.095 2.217a2.82 2.82 0 0 1-1.43-2.468v-50.22c0-2 1.07-3.856 2.809-4.848Z" />
   <path fill="url(#E)"
      d="m334.523 285.205-112.226 64.198c-2.325 1.33-5.22-.351-5.22-3.029v-60.081a6.731 6.731 0 0 1 3.388-5.841l112.036-64.093c2.288-1.308 5.137.344 5.137 2.98v60.496a6.18 6.18 0 0 1-3.115 5.37Z" />
   <path fill="url(#F)"
      d="M336.295 285.7 224.07 349.899c-2.325 1.329-5.22-.351-5.22-3.029v-60.081a6.731 6.731 0 0 1 3.388-5.841l112.036-64.093c2.288-1.308 5.137.344 5.137 2.979v60.497a6.185 6.185 0 0 1-3.116 5.369Z" />
   <path fill="url(#G)"
      d="M298.593 272.612c0 9.347 6.215 13.508 14.299 10.15a20.457 20.457 0 0 0 2.431-1.209c5.279-3.041 9.984-8.457 13.05-14.465 2.303-4.514 3.685-9.356 3.685-13.765 0-10.267-7.492-14.264-16.739-8.938-.235.146-.474.283-.7.428-5.233 3.259-9.839 8.82-12.762 14.893-2.052 4.26-3.264 8.774-3.264 12.906Z" />
   <path fill="url(#H)"
      d="M298.593 272.612c0 9.347 6.215 13.508 14.299 10.15l2.895-19.788-13.924-3.268c-2.058 4.26-3.27 8.774-3.27 12.906Z" />
   <path fill="#DBDDDC"
      d="M312.892 282.762a20.457 20.457 0 0 0 2.43-1.209c5.279-3.041 9.985-8.457 13.051-14.465l-12.589-4.114-2.892 19.788Z" />
   <path fill="#EFEFEF"
      d="m288.732 294.985 4.885-2.821v-10.01l-4.885 2.821v10.01ZM281.324 299.266l4.885-2.821v-16.289l-4.885 2.818v16.292ZM273.912 303.545l4.885-2.822v-20.008l-4.885 2.821v20.009ZM266.503 307.823l4.882-2.819v-11.176l-4.882 2.822v11.173ZM259.091 312.103l4.886-2.821v-22.566l-4.886 2.821v22.566ZM251.683 316.382l4.882-2.821v-28.804l-4.882 2.821v28.804ZM244.271 320.663l4.886-2.821v-18.148l-4.886 2.818v18.151ZM236.86 324.941l4.885-2.821v-22.566l-4.885 2.821v22.566ZM229.451 329.219l4.885-2.821v-28.804l-4.885 2.821v28.804Z" />
   <path fill="url(#I)"
      d="M227.167 397.956s1.938 5.44.865 6.997c-1.069 1.556-5.741 5.351-8.757 4.573-3.016-.779-9.244-6.464-15.081-9.459-5.837-2.995-9.922-9.902-3.794-10.779 6.129-.875 14.107 4.166 14.107 4.166l12.66 4.502Z" />
   <path fill="url(#J)"
      d="M252.536 391.78s2.449 6.365.893 7.63c-1.556 1.264-8.853 3.404-11.187 1.457-2.335-1.947-4.477-9.35-6.42-11.682-1.947-2.331-1.169-11.377 4.085-6.708 5.251 4.671 12.629 9.303 12.629 9.303Z" />
   <path fill="url(#K)"
      d="M253.835 305.833s2.904 7.097 1.683 13.033c-1.221 5.937-4.538 10.479-4.538 10.479l-1.221 27.765s3.093 6.985 3.031 16.065c-.062 9.08-.285 14.493 0 15.715.286 1.221.986 4.889-5.651 4.542-6.633-.351-6.46-3.668-6.46-3.668s.524-19.382-2.969-28.115c-3.494-8.73-4.188-42.24-4.188-42.24s14.426-3.153 20.313-13.576Z" />
   <path fill="url(#L)"
      d="M208.574 310.636s-.669 40.014 0 45.253c.67 5.239 3.813 10.128 3.813 20.256v19.733s4.355 4.191 9.423 4.191c5.069 0 6.07-3.317 6.07-3.317s2.142-12.921 1.795-20.083c-.351-7.158-2.793-15.541-2.793-15.541l1.001-23.4s10.201-7.27 10.536-19.875c0 0-19.69 5.329-29.845-7.217Z" />
   <path fill="url(#M)"
      d="M256.523 239.448s13.772 28.502 13.686 33.472c-.087 4.969-16.374 32.917-16.374 32.917s-5.827-4.231-7.201-7.601c-1.373-3.37 1.03-4.743 1.03-4.743l8.23-18.372-8.742-15.749 9.371-19.924Z" />
   <path fill="url(#N)"
      d="M243.891 230.397c4.445.484 16.457 1.714 11.658 17.659-4.802 15.944-6.088 33.091-5.273 40.633.816 7.543 3.559 17.144 3.559 17.144s-4.458 11.486-21.259 13.715c-16.801 2.229-24.002-8.916-24.002-8.916s-5.313-63.193-3.772-66.573c1.544-3.376 36.844-13.907 39.089-13.662Z" />
   <path fill="url(#O)"
      d="M201.203 243.449s8.056-1.221 8.23 12.15c.171 13.374-14.572 7.542-18.345 6.343-3.772-1.2-24.343-17.879-24.343-17.879l-11.484-20.012s-.859-4.613 4.801-7.707c5.657-3.093 8.103-.998 8.103-.998s13.137 18.415 14.774 19.903c1.637 1.491 18.264 8.2 18.264 8.2Z" />
   <path fill="url(#P)"
      d="M210.571 210.578s-.608 5.968-.044 7.094a21.875 21.875 0 0 0 1.194 2.07s-.806 2.322-.394 4.319c.415 1.996 1.448 8.187 3.49 8.786 2.043.598 4.861-.093 5.115-.127.251-.031.04 4.52.04 4.52s5.527 2.378 10.62-.087c5.093-2.465 4.864-4.334 4.864-4.334l-3.899-19.227-20.986-3.014Z" />
   <path fill="url(#Q)"
      d="M217.456 217.064c2.755-.483.784 6.563 4.445 7.986 3.661 1.423 11.5 1.213 12.92-2.464 1.419-3.677 4.153-10.51 3.217-13.21-.936-2.7-4.243-4.508-4.243-4.508s.527-7.068-6.463-7.049c-6.991.018-11.104 3.332-16.154 3.289-5.049-.043-6.996 2.846-4.69 6.228 2.307 3.385 6.916 4.688 7.201 6.957.285 2.269.298 7.136 1.432 7.335 1.135.195.661-4.269 2.335-4.564Z" />
   <path fill="url(#R)"
      d="M165.177 214.652s-3.621-13.805-4.377-14.869c-.753-1.063-10.595-8.134-10.595-8.134s-2.421 2.533.762 5.13c3.184 2.598 4.923 5.212 4.923 5.212s-7.238 5.952-6.566 8.758c.673 2.805 6.057 11.191 6.057 11.191s3.28-6.95 9.796-7.288Z" />
   <g opacity=".15">
      <path fill="#4A0101"
         d="M286.111 399.89c.021-13.182-24.63-23.908-55.059-23.956-30.428-.048-55.113 10.599-55.134 23.781-.021 13.182 24.63 23.907 55.059 23.956 30.428.048 55.113-10.599 55.134-23.781Z"
         opacity=".038" />
      <path fill="#480202"
         d="M284.654 399.888c.02-12.835-23.978-23.277-53.602-23.324-29.625-.047-53.656 10.319-53.677 23.153-.02 12.835 23.979 23.277 53.603 23.324 29.624.047 53.656-10.319 53.676-23.153Z"
         opacity=".077" />
      <path fill="#460303"
         d="M283.197 399.885c.02-12.486-23.327-22.644-52.147-22.69-28.819-.045-52.198 10.039-52.218 22.524-.02 12.485 23.327 22.643 52.147 22.689 28.819.046 52.198-10.038 52.218-22.523Z"
         opacity=".115" />
      <path fill="#440404"
         d="M281.74 399.883c.02-12.137-22.675-22.013-50.69-22.057-28.015-.045-50.741 9.759-50.761 21.896-.019 12.138 22.676 22.013 50.691 22.058 28.015.044 50.741-9.759 50.76-21.897Z"
         opacity=".154" />
      <path fill="#420505"
         d="M280.283 399.881c.019-11.788-22.024-21.379-49.234-21.423-27.21-.043-49.284 9.479-49.303 21.267-.018 11.788 22.025 21.379 49.235 21.423 27.21.043 49.284-9.479 49.302-21.267Z"
         opacity=".192" />
      <path fill="#400606"
         d="M278.826 399.879c.019-11.441-21.373-20.749-47.778-20.791-26.406-.042-47.827 9.199-47.845 20.639-.018 11.441 21.373 20.75 47.779 20.791 26.406.042 47.826-9.198 47.844-20.639Z"
         opacity=".231" />
      <path fill="#3E0606"
         d="M277.37 399.876c.017-11.091-20.722-20.116-46.323-20.156-25.601-.041-46.369 8.917-46.387 20.009-.017 11.091 20.722 20.116 46.323 20.156 25.601.041 46.369-8.918 46.387-20.009Z"
         opacity=".269" />
      <path fill="#3C0707"
         d="M275.913 399.874c.017-10.742-20.071-19.482-44.867-19.522-24.797-.039-44.912 8.637-44.929 19.379-.017 10.743 20.071 19.483 44.867 19.522 24.796.039 44.912-8.637 44.929-19.379Z"
         opacity=".308" />
      <path fill="#3A0808"
         d="M274.459 399.872c.016-10.395-19.421-18.852-43.414-18.89-23.994-.038-43.457 8.357-43.474 18.752-.016 10.394 19.421 18.852 43.414 18.89 23.994.038 43.457-8.358 43.474-18.752Z"
         opacity=".346" />
      <path fill="#380909"
         d="M273.002 399.87c.016-10.046-18.769-18.219-41.958-18.256-23.189-.036-42 8.077-42.016 18.122-.016 10.046 18.769 18.219 41.958 18.256 23.189.037 42-8.077 42.016-18.122Z"
         opacity=".385" />
      <path fill="#360A0A"
         d="M271.545 399.867c.016-9.697-18.118-17.588-40.502-17.623-22.384-.036-40.543 7.797-40.558 17.495-.015 9.698 18.118 17.588 40.502 17.623 22.384.036 40.543-7.797 40.558-17.495Z"
         opacity=".423" />
      <path fill="#340B0B"
         d="M270.088 399.864c.015-9.348-17.467-16.954-39.046-16.988-21.58-.035-39.086 7.516-39.1 16.864-.015 9.349 17.466 16.955 39.046 16.989 21.58.035 39.085-7.516 39.1-16.865Z"
         opacity=".462" />
      <path fill="#330C0C"
         d="M268.632 399.862c.014-9-16.816-16.324-37.591-16.357-20.775-.033-37.628 7.237-37.642 16.238-.014 9.001 16.815 16.324 37.59 16.357 20.775.033 37.628-7.237 37.643-16.238Z"
         opacity=".5" />
      <path fill="#310D0D"
         d="M267.175 399.86c.013-8.651-16.165-15.691-36.135-15.722-19.97-.032-36.17 6.956-36.184 15.607-.014 8.652 16.164 15.691 36.134 15.723 19.971.032 36.171-6.956 36.185-15.608Z"
         opacity=".538" />
      <path fill="#2F0E0E"
         d="M265.718 399.858c.013-8.302-15.513-15.057-34.679-15.088-19.166-.03-34.713 6.676-34.726 14.978-.013 8.302 15.513 15.057 34.678 15.088 19.166.03 34.713-6.676 34.727-14.978Z"
         opacity=".577" />
      <path fill="#2D0F0F"
         d="M264.261 399.856c.013-7.955-14.862-14.427-33.223-14.456-18.361-.029-33.256 6.396-33.268 14.35-.013 7.955 14.861 14.427 33.222 14.457 18.361.029 33.256-6.396 33.269-14.351Z"
         opacity=".615" />
      <path fill="#2B1010"
         d="M262.804 399.854c.012-7.606-14.211-13.794-31.767-13.822-17.556-.028-31.798 6.115-31.811 13.721-.012 7.605 14.211 13.793 31.767 13.821 17.557.028 31.799-6.115 31.811-13.72Z"
         opacity=".654" />
      <path fill="#291111"
         d="M261.347 399.852c.012-7.258-13.559-13.164-30.311-13.19-16.751-.027-30.341 5.835-30.352 13.093-.012 7.258 13.559 13.163 30.311 13.19 16.751.027 30.341-5.836 30.352-13.093Z"
         opacity=".692" />
      <path fill="#271212"
         d="M259.89 399.849c.011-6.909-12.908-12.53-28.855-12.555-15.947-.026-28.884 5.554-28.895 12.463-.011 6.909 12.908 12.53 28.855 12.555 15.947.025 28.884-5.555 28.895-12.463Z"
         opacity=".731" />
      <path fill="#251212"
         d="M258.433 399.846c.011-6.561-12.256-11.899-27.399-11.923-15.142-.024-27.426 5.275-27.436 11.836-.011 6.561 12.256 11.899 27.399 11.924 15.142.024 27.426-5.276 27.436-11.837Z"
         opacity=".769" />
      <path fill="#231313"
         d="M256.977 399.845c.01-6.212-11.606-11.266-25.943-11.288-14.338-.023-25.969 4.994-25.979 11.206-.01 6.211 11.605 11.265 25.943 11.288 14.338.023 25.969-4.994 25.979-11.206Z"
         opacity=".808" />
      <path fill="#211414"
         d="M255.52 399.842c.009-5.862-10.954-10.632-24.488-10.654-13.533-.021-24.511 4.714-24.521 10.576-.009 5.863 10.954 10.633 24.488 10.654 13.533.022 24.511-4.713 24.521-10.576Z"
         opacity=".846" />
      <path fill="#1F1515"
         d="M254.063 399.84c.009-5.515-10.303-10.002-23.031-10.022-12.729-.021-23.055 4.434-23.063 9.949-.009 5.514 10.302 10.002 23.031 10.022 12.728.02 23.054-4.434 23.063-9.949Z"
         opacity=".885" />
      <path fill="#1D1616"
         d="M252.606 399.839c.008-5.166-9.652-9.369-21.576-9.388-11.924-.019-21.597 4.153-21.605 9.319-.008 5.166 9.652 9.369 21.576 9.388 11.924.019 21.596-4.154 21.605-9.319Z"
         opacity=".923" />
      <path fill="#1B1717"
         d="M251.149 399.836c.007-4.819-9.001-8.739-20.12-8.756-11.119-.018-20.139 3.873-20.147 8.691-.008 4.818 9 8.739 20.119 8.756 11.12.018 20.14-3.873 20.148-8.691Z"
         opacity=".962" />
      <path fill="#191818"
         d="M249.692 399.833c.007-4.469-8.349-8.105-18.664-8.122-10.314-.016-18.682 3.593-18.689 8.062-.007 4.469 8.349 8.105 18.664 8.121 10.314.017 18.682-3.593 18.689-8.061Z" />
   </g>
   <path fill="#E2E2E2"
      d="M110.725 178.373c0 3.383-1.379 7.258-3.614 10.798-2.222 3.534-5.291 6.703-8.676 8.678L12.29 248.22C5.524 252.167 0 249.851 0 243.086c0-3.37 1.38-7.257 3.614-10.785 2.223-3.522 5.292-6.703 8.677-8.678l86.144-50.371c6.763-3.947 12.29-1.631 12.29 5.121Z" />
   <path fill="url(#S)"
      d="M113.23 179.377c0 3.383-1.379 7.258-3.614 10.798-2.223 3.535-5.292 6.703-8.677 8.678l-86.144 50.371c-6.766 3.947-12.29 1.631-12.29-5.134 0-3.37 1.38-7.257 3.614-10.785 2.223-3.522 5.291-6.703 8.676-8.678l86.144-50.371c6.767-3.947 12.291-1.631 12.291 5.121Z" />
   <path fill="url(#T)"
      d="m21.85 225.697 1.802 3.339 4.026-1.643-2.914 5.118.689 4.424-3.602-.18-3.602 4.381.688-5.227-2.914-1.721 4.027-3.05 1.8-5.441Z" />
   <path fill="url(#U)"
      d="m39.473 215.427 1.801 3.339 4.027-1.644-2.914 5.119.688 4.424-3.602-.18-3.602 4.38.688-5.226-2.913-1.721 4.026-3.051 1.801-5.44Z" />
   <path fill="url(#V)"
      d="m57.096 205.155 1.8 3.339 4.027-1.643-2.913 5.118.688 4.424-3.602-.18-3.602 4.381.688-5.227-2.914-1.721 4.027-3.05 1.8-5.441Z" />
   <path fill="url(#W)"
      d="m74.718 194.885 1.801 3.339 4.027-1.643-2.914 5.118.688 4.424-3.602-.18-3.602 4.381.689-5.227-2.917-1.721 4.03-3.05 1.8-5.441Z" />
   <path fill="url(#X)"
      d="m92.34 184.614 1.801 3.339 4.027-1.643-2.914 5.118.688 4.424-3.602-.18-3.602 4.381.689-5.227-2.917-1.721 4.03-3.05 1.8-5.441Z" />
   <defs>
      <linearGradient id="a" x1="154.568" x2="238.011" y1="187.864" y2="-5.206" gradientUnits="userSpaceOnUse">
         <stop stop-color="#303030" />
         <stop offset="1" stop-color="#727272" />
      </linearGradient>
      <linearGradient id="b" x1="154.879" x2="238.322" y1="187.917" y2="-5.153" gradientUnits="userSpaceOnUse">
         <stop stop-color="#3A3A3A" />
         <stop offset=".258" stop-color="#8B8B8B" />
         <stop offset=".39" stop-color="#fff" />
         <stop offset=".804" stop-color="#505050" />
         <stop offset="1" stop-color="#727272" />
      </linearGradient>
      <linearGradient id="c" x1="213.01" x2="118.981" y1="315.461" y2="79.467" gradientUnits="userSpaceOnUse">
         <stop stop-color="#303030" />
         <stop offset="1" stop-color="#727272" />
      </linearGradient>
      <linearGradient id="d" x1="211.286" x2="118.385" y1="312.483" y2="79.323" gradientUnits="userSpaceOnUse">
         <stop stop-color="#303030" />
         <stop offset="1" stop-color="#fff" />
      </linearGradient>
      <linearGradient id="e" x1="158.726" x2="167.427" y1="17.802" y2="269.384" gradientUnits="userSpaceOnUse">
         <stop stop-color="#8BC7C5" />
         <stop offset="1" stop-color="#0BA2B3" />
      </linearGradient>
      <linearGradient id="f" x1="216.955" x2="145.015" y1="59.295" y2="153.419" gradientUnits="userSpaceOnUse">
         <stop stop-color="#FD8061" />
         <stop offset="1" stop-color="#FF9D00" />
      </linearGradient>
      <linearGradient id="g" x1="179.474" x2="207.089" y1="72.722" y2="129.261" gradientUnits="userSpaceOnUse">
         <stop stop-color="#FD8061" />
         <stop offset="1" stop-color="#FF9D00" />
      </linearGradient>
      <linearGradient id="h" x1="243.095" x2="244.203" y1="44.341" y2="59.433" gradientUnits="userSpaceOnUse">
         <stop stop-color="#8BC7C5" />
         <stop offset="1" stop-color="#0BA2B3" />
      </linearGradient>
      <linearGradient id="i" x1="196.705" x2="179.218" y1="172.409" y2="126.06" gradientUnits="userSpaceOnUse">
         <stop stop-color="#EFEFEF" />
         <stop offset=".801" stop-color="#fff" />
      </linearGradient>
      <linearGradient id="j" x1="196.704" x2="179.218" y1="225.949" y2="179.601" gradientUnits="userSpaceOnUse">
         <stop stop-color="#EFEFEF" />
         <stop offset=".801" stop-color="#fff" />
      </linearGradient>
      <linearGradient id="k" x1="196.705" x2="179.218" y1="279.49" y2="233.142" gradientUnits="userSpaceOnUse">
         <stop stop-color="#EFEFEF" />
         <stop offset=".801" stop-color="#fff" />
      </linearGradient>
      <linearGradient id="l" x1="55.142" x2="107.498" y1="133.446" y2="133.446" gradientUnits="userSpaceOnUse">
         <stop stop-color="#B92222" />
         <stop offset=".247" stop-color="#DD2F2F" />
         <stop offset=".855" stop-color="#FF6757" />
      </linearGradient>
      <linearGradient id="m" x1="86.884" x2="71.585" y1="145.54" y2="104.99" gradientUnits="userSpaceOnUse">
         <stop stop-color="#B92222" />
         <stop offset=".247" stop-color="#DD2F2F" />
         <stop offset=".855" stop-color="#FF6757" />
      </linearGradient>
      <linearGradient id="n" x1="280.277" x2="332.633" y1="146.679" y2="146.679" gradientUnits="userSpaceOnUse">
         <stop stop-color="#8BC7C5" />
         <stop offset="1" stop-color="#0BA2B3" />
      </linearGradient>
      <linearGradient id="o" x1="312.019" x2="296.72" y1="158.773" y2="118.223" gradientUnits="userSpaceOnUse">
         <stop stop-color="#8BC7C5" />
         <stop offset="1" stop-color="#0BA2B3" />
      </linearGradient>
      <linearGradient id="p" x1="283.718" x2="332.135" y1="156.342" y2="156.342" gradientUnits="userSpaceOnUse">
         <stop stop-color="#8BC7C5" />
         <stop offset="1" stop-color="#0BA2B3" />
      </linearGradient>
      <linearGradient id="q" x1="291.717" x2="300.354" y1="139.534" y2="139.534" gradientUnits="userSpaceOnUse">
         <stop stop-color="#8BC7C5" />
         <stop offset="1" stop-color="#0BA2B3" />
      </linearGradient>
      <linearGradient id="r" x1="82.535" x2="100.617" y1="306.075" y2="234.742" gradientUnits="userSpaceOnUse">
         <stop stop-color="#FD8061" />
         <stop offset="1" stop-color="#FF9D00" />
      </linearGradient>
      <linearGradient id="s" x1="65.567" x2="116.495" y1="244.918" y2="373.968" gradientUnits="userSpaceOnUse">
         <stop stop-color="#FD8061" />
         <stop offset="1" stop-color="#FF9D00" />
      </linearGradient>
      <linearGradient id="t" x1="90.599" x2="84.548" y1="282.83" y2="252.42" gradientUnits="userSpaceOnUse">
         <stop stop-color="#303030" />
         <stop offset="1" stop-color="#727272" />
      </linearGradient>
      <linearGradient id="u" x1="85.23" x2="88.986" y1="271.47" y2="273.778" gradientUnits="userSpaceOnUse">
         <stop stop-color="#E08282" />
         <stop offset="1" stop-color="#FFC0C0" />
      </linearGradient>
      <linearGradient id="v" x1="83.313" x2="90.136" y1="262.211" y2="266.403" gradientUnits="userSpaceOnUse">
         <stop stop-color="#E08282" />
         <stop offset="1" stop-color="#FFC0C0" />
      </linearGradient>
      <linearGradient id="w" x1="83.667" x2="90.039" y1="257.268" y2="261.582" gradientUnits="userSpaceOnUse">
         <stop stop-color="#303030" />
         <stop offset="1" stop-color="#727272" />
      </linearGradient>
      <linearGradient id="x" x1="73.527" x2="101.178" y1="288.144" y2="288.144" gradientUnits="userSpaceOnUse">
         <stop stop-color="#EFEFEF" />
         <stop offset="1" stop-color="#FCFCFC" />
      </linearGradient>
      <linearGradient id="y" x1="82.404" x2="86.699" y1="277.667" y2="276.155" gradientUnits="userSpaceOnUse">
         <stop stop-color="#FD8061" />
         <stop offset="1" stop-color="#FF9D00" />
      </linearGradient>
      <linearGradient id="z" x1="88.533" x2="93.643" y1="274.343" y2="272.544" gradientUnits="userSpaceOnUse">
         <stop stop-color="#FD8061" />
         <stop offset="1" stop-color="#FF9D00" />
      </linearGradient>
      <linearGradient id="A" x1="33.779" x2="69.954" y1="70.627" y2="15.509" gradientUnits="userSpaceOnUse">
         <stop stop-color="#3ABAF9" />
         <stop offset="1" stop-color="#267EBD" />
      </linearGradient>
      <linearGradient id="B" x1="52.199" x2="54.979" y1="28.724" y2="73.954" gradientUnits="userSpaceOnUse">
         <stop stop-color="#3ABAF9" />
         <stop offset="1" stop-color="#267EBD" />
      </linearGradient>
      <linearGradient id="C" x1="42.98" x2="43.513" y1="91.46" y2="100.139" gradientUnits="userSpaceOnUse">
         <stop stop-color="#3ABAF9" />
         <stop offset="1" stop-color="#fff" />
      </linearGradient>
      <linearGradient id="D" x1="51.462" x2="53.848" y1="25.226" y2="64.053" gradientUnits="userSpaceOnUse">
         <stop stop-color="#3ABAF9" />
         <stop offset="1" stop-color="#fff" />
      </linearGradient>
      <linearGradient id="E" x1="337.638" x2="217.078" y1="282.887" y2="282.887" gradientUnits="userSpaceOnUse">
         <stop stop-color="#3ABAF9" />
         <stop offset="1" stop-color="#267EBD" />
      </linearGradient>
      <linearGradient id="F" x1="274.114" x2="288.464" y1="260.494" y2="325.898" gradientUnits="userSpaceOnUse">
         <stop stop-color="#3ABAF9" />
         <stop offset="1" stop-color="#267EBD" />
      </linearGradient>
      <linearGradient id="G" x1="332.061" x2="298.594" y1="262.972" y2="262.972" gradientUnits="userSpaceOnUse">
         <stop stop-color="#B92222" />
         <stop offset=".247" stop-color="#DD2F2F" />
         <stop offset=".855" stop-color="#FF6757" />
      </linearGradient>
      <linearGradient id="H" x1="315.787" x2="298.594" y1="271.811" y2="271.811" gradientUnits="userSpaceOnUse">
         <stop stop-color="#303030" />
         <stop offset="1" stop-color="#727272" />
      </linearGradient>
      <linearGradient id="I" x1="228.357" x2="197.361" y1="399.408" y2="399.408" gradientUnits="userSpaceOnUse">
         <stop stop-color="#303030" />
         <stop offset="1" stop-color="#727272" />
      </linearGradient>
      <linearGradient id="J" x1="253.945" x2="234.844" y1="391.404" y2="391.404" gradientUnits="userSpaceOnUse">
         <stop stop-color="#303030" />
         <stop offset="1" stop-color="#727272" />
      </linearGradient>
      <linearGradient id="K" x1="255.816" x2="233.519" y1="349.644" y2="349.644" gradientUnits="userSpaceOnUse">
         <stop stop-color="#303030" />
         <stop offset="1" stop-color="#727272" />
      </linearGradient>
      <linearGradient id="L" x1="238.418" x2="208.278" y1="355.351" y2="355.351" gradientUnits="userSpaceOnUse">
         <stop stop-color="#303030" />
         <stop offset="1" stop-color="#727272" />
      </linearGradient>
      <linearGradient id="M" x1="270.208" x2="246.211" y1="272.641" y2="272.641" gradientUnits="userSpaceOnUse">
         <stop stop-color="#FD8061" />
         <stop offset="1" stop-color="#FF9D00" />
      </linearGradient>
      <linearGradient id="N" x1="256.661" x2="204.523" y1="275.119" y2="275.119" gradientUnits="userSpaceOnUse">
         <stop stop-color="#FD8061" />
         <stop offset="1" stop-color="#FF9D00" />
      </linearGradient>
      <linearGradient id="O" x1="209.434" x2="155.214" y1="239.446" y2="239.446" gradientUnits="userSpaceOnUse">
         <stop stop-color="#FD8061" />
         <stop offset="1" stop-color="#FF9D00" />
      </linearGradient>
      <linearGradient id="P" x1="234.155" x2="211.404" y1="222.465" y2="225.318" gradientUnits="userSpaceOnUse">
         <stop stop-color="#E08282" />
         <stop offset="1" stop-color="#FFC0C0" />
      </linearGradient>
      <linearGradient id="Q" x1="238.237" x2="206.722" y1="210.445" y2="214.397" gradientUnits="userSpaceOnUse">
         <stop stop-color="#303030" />
         <stop offset="1" stop-color="#727272" />
      </linearGradient>
      <linearGradient id="R" x1="165.177" x2="149.28" y1="206.796" y2="206.796" gradientUnits="userSpaceOnUse">
         <stop stop-color="#E08282" />
         <stop offset="1" stop-color="#FFC0C0" />
      </linearGradient>
      <linearGradient id="S" x1="2.505" x2="113.231" y1="211.739" y2="211.739" gradientUnits="userSpaceOnUse">
         <stop stop-color="#EFEFEF" />
         <stop offset="1" stop-color="#FDFDFD" />
      </linearGradient>
      <linearGradient id="T" x1="16.022" x2="27.68" y1="233.416" y2="233.416" gradientUnits="userSpaceOnUse">
         <stop stop-color="#FD8061" />
         <stop offset="1" stop-color="#FF9D00" />
      </linearGradient>
      <linearGradient id="U" x1="33.644" x2="45.302" y1="223.145" y2="223.145" gradientUnits="userSpaceOnUse">
         <stop stop-color="#FD8061" />
         <stop offset="1" stop-color="#FF9D00" />
      </linearGradient>
      <linearGradient id="V" x1="51.267" x2="62.924" y1="212.874" y2="212.874" gradientUnits="userSpaceOnUse">
         <stop stop-color="#FD8061" />
         <stop offset="1" stop-color="#FF9D00" />
      </linearGradient>
      <linearGradient id="W" x1="68.889" x2="80.547" y1="202.603" y2="202.603" gradientUnits="userSpaceOnUse">
         <stop stop-color="#FD8061" />
         <stop offset="1" stop-color="#FF9D00" />
      </linearGradient>
      <linearGradient id="X" x1="86.511" x2="98.168" y1="192.332" y2="192.332" gradientUnits="userSpaceOnUse">
         <stop stop-color="#FD8061" />
         <stop offset="1" stop-color="#FF9D00" />
      </linearGradient>
   </defs>
</svg>