<svg xmlns="http://www.w3.org/2000/svg" width="486" height="402" fill="none">
   <path fill="url(#a)" d="M372.3 278.5c-.2 0-.4-.2-.4-.4V226c0-.2.2-.4.4-.4s.4.2.4.4v52.1c0 .2-.2.4-.4.4Z" />
   <path fill="#9898ED"
      d="M372.6 214.3c-.2 0-.4-.2-.4-.4V192L320 162.2c-.1-.1-.2-.2-.2-.4v-19.3c0-.2.2-.4.4-.4s.4.2.4.4v19l52.2 29.7c.1.1.2.2.2.4v22.2c0 .3-.2.5-.4.5ZM288.1 204.1c-.2 0-.4-.2-.4-.4v-77.4c0-.2.2-.4.4-.4s.4.2.4.4v77.4c.1.3-.1.4-.4.4ZM303 213.899c-.2 0-.4-.2-.4-.4v-77.4c0-.2.2-.4.4-.4s.4.2.4.4v77.4c0 .2-.2.4-.4.4Z" />
   <path fill="#947BAF" d="M356.7 211.898c-.1 0-.2 0-.2.1l1.7-1.1c0 .3.1.6.2.9l-1.7.1Z" />
   <path fill="url(#b)" d="M370.9 227.398c1.9.6 3.7.4 5-.5l.1.2-5.5 3.1c.2-.2.3-.5.3-.9v-1.9h.1Z" />
   <path fill="url(#c)"
      d="m386.7 221.699-1.7-2.1c.2-.9.4-1.9.4-3 0-.9-.1-1.9-.3-2.8l1.7-1c.4-.2.5-.8.3-1.5l-1.4-3.6c-.1-.3-.3-.5-.4-.7-.3-.4-.7-.6-1.1-.6l-1.8.2c-1.3-2.3-3-4.4-4.9-6v-2.2c0-.3-.1-.6-.2-.9-.2-.5-.5-1-.9-1.2l-2.8-1.6c-.3-.2-.6-.2-.8 0l-5.4 3-1.5-1.9c-.4-.5-1-.8-1.3-.6l-6.5 3.7c.4-.1.8.2 1.2.6l1.8 2.2c1-.6 2.3-.8 3.8-.6.4.1.7.1 1.1.2v-2.5c0-.1 0-.2.1-.2 0-.1.1-.2.1-.2l.2-.2.8-.5c-.3.2-.8.5-.8.5.1 0 .2-.1.3 0h.2c.1 0 .1.1.2.1l2.8 1.6c.4.2.7.6.9 1.1v.1c0 .1.1.2.1.3 0 .1 0 .2.1.2v2.8c1.2 1 2.3 2.2 3.3 3.5 0 0 0 .1.1.1.2.2.3.5.5.7.1.1.1.2.2.3.1.2.2.4.4.5.2.3.3.6.5.9h.1l1.7-.1c.2 0 .5.1.7.3l.2.2.2.2c0 .1.1.1.1.2s.1.1.1.2c0 0 0 .1.1.1 0 .1.1.2.1.3l1.4 3.6c.2.5.2.9 0 1.2 0 .1-.2.2-.2.3 0 0-.1 0-.2.1h-.4l-1.4.1c.3 1.2.4 2.5.4 3.6v.8c0 .2 0 .4-.1.7v.1c-.1.5-.2.9-.3 1.4l.5.6 1.2 1.5c.1.1.1.2.2.3v.1c0 .1.1.2.1.2v.1c0 .1.1.2.1.3 0 .1.1.2.1.3v.6c0 .1 0 .1-.1.2l-1.4 2-.1.1 6.4-3.6c.1 0 .2-.1.3-.2l1.4-2c.1-.2.2-.5.1-.8-.1-.9-.3-1.3-.6-1.7Z" />
   <path fill="#F0F0FC"
      d="m356.7 203.099 1.7 2.2c-.3.9-.4 2-.4 3.1 0 .8.1 1.6.2 2.5 0 .3.1.6.2.9l-1.7.1c-.1 0-.2 0-.2.1-.4.2-.5.8-.2 1.5l1.4 3.6c.3.8 1 1.4 1.5 1.4l1.6-.1c1.3 2.4 3.1 4.6 5 6.3v1.9c0 .8.5 1.8 1.1 2.1l2.8 1.6c.3.2.6.2.8 0 .2-.2.3-.5.3-.9v-1.9c1.9.6 3.7.4 5-.5l.1.2 1.5 1.9c.5.6 1.1.8 1.5.5l.1-.1 1.4-2s.1-.1.1-.2V226.699c0-.1 0-.2-.1-.3 0-.1-.1-.2-.1-.3v-.1c0-.1-.1-.2-.1-.2v-.1c-.1-.1-.1-.2-.2-.3l-1.2-1.5-.5-.6c.1-.5.2-.9.3-1.4v-.1c0-.2 0-.4.1-.7v-.8c0-1.2-.2-2.4-.4-3.6l1.4-.1h.4c.1 0 .1 0 .2-.1l.1-.1s.1-.1.1-.2c.1-.3.1-.7 0-1.2l-1.4-3.6c0-.1-.1-.2-.1-.3 0 0 0-.1-.1-.1 0-.1-.1-.1-.1-.2s-.1-.1-.1-.2l-.2-.2-.2-.2c-.2-.2-.5-.3-.7-.3l-1.7.1h-.1c-.2-.3-.3-.6-.5-.9-.1-.2-.2-.4-.4-.5-.1-.1-.1-.2-.2-.3-.2-.2-.3-.5-.5-.7 0 0 0-.1-.1-.1-1-1.3-2.1-2.5-3.2-3.5V201.199c0-.1 0-.2-.1-.3 0-.1-.1-.2-.1-.2v-.1c-.2-.5-.5-.9-.9-1.1l-2.8-1.6c-.1 0-.1-.1-.2-.1h-.5c-.1 0-.2.1-.2.2-.1.1-.1.1-.1.2s-.1.2-.1.2v2.5c-.4-.1-.8-.2-1.1-.2-1.4-.2-2.7 0-3.8.6l-1.8-2.2c-.4-.5-.9-.7-1.2-.6-.1 0-.2.1-.3.2l-1.4 2c-.4.8-.2 1.7.4 2.4Zm3.7 7.9c0-1.6.4-2.8 1.1-3.6.3-.4.7-.7 1.2-.9l.8-.4c1.2-.8 2.9-.7 4.9.4.2.1.3.2.5.3 0 0 .1 0 .1.1.2.1.3.2.5.3h.1c.1.1.3.2.4.3l.1.1.4.4.1.1c.1.1.3.2.4.4l.1.1.4.4.1.1c.1.1.3.3.4.5.2.2.3.4.4.5l.1.1c.1.2.2.3.4.5.1.2.2.4.3.5 0 0 0 .1.1.1.1.2.2.4.3.5v.1c.1.2.2.3.3.5v.1l.3.6v.1c.1.2.1.4.2.5v.1c.1.2.1.4.2.6v.1c.1.2.1.4.2.6.1.2.1.4.2.7v.1c0 .2.1.4.1.6v.1c0 .2.1.4.1.6v.7c0 2-.7 3.4-1.7 4.1-.1 0-.1.1-.2.1h-.1l-1 .5c-.1 0-.1.1-.2.1-.1.1-.2.1-.3.2-.3.1-.6.2-.9.2-1 .1-2.2-.2-3.5-.9-3.9-1.8-6.9-6.9-6.9-11.2Z" />
   <path fill="#FFD33F"
      d="M373.2 221.699c.4-.8.7-1.7.7-2.9V217.999c0-.2 0-.5-.1-.7v-.1c0-.2-.1-.5-.1-.7-.1-.3-.1-.5-.2-.8-.1-.4-.3-.9-.4-1.3-.2-.4-.3-.8-.5-1.3-.2-.4-.4-.8-.7-1.2-.2-.4-.5-.7-.7-1.1v-.1c-.1-.2-.3-.3-.4-.5-.1-.2-.2-.3-.4-.5l-.1-.1c-.1-.2-.3-.3-.4-.5l-.1-.1-.4-.4-.1-.1-.4-.4-.1-.1c-.1-.1-.3-.2-.4-.3-.2-.1-.3-.2-.5-.3 0 0-.1 0-.1-.1-.2-.1-.3-.2-.5-.3-1-.6-1.9-.8-2.7-.9-.6 0-1.2.1-1.7.3l.8-.4c1.2-.8 2.9-.7 4.9.4.2.1.3.2.5.3 0 0 .1 0 .1.1.2.1.3.2.5.3h.1c.1.1.3.2.4.3l.1.1.4.4.1.1c.1.1.3.2.4.4l.1.1.4.4.1.1c.1.1.3.3.4.5.2.2.3.4.4.5l.1.1c.1.2.2.3.4.5.1.2.2.4.3.5 0 0 0 .1.1.1.1.2.2.4.3.5v.1c.1.2.2.3.3.5v.1l.3.6v.1c.1.2.1.4.2.5v.1c.1.2.1.4.2.6v.1c.1.2.1.4.2.6.1.2.1.4.2.7v.1c0 .2.1.4.1.6v.1c0 .2.1.4.1.6v.7c0 2-.7 3.4-1.7 4.1-.1 0-.1.1-.2.1h-.1l-1 .5c.1.1.5-.3.8-.8Z" />
   <path fill="url(#d)"
      d="M361.6 207.399c-.7.8-1.1 2-1.1 3.6 0 4.2 3 9.4 6.7 11.5 1.3.7 2.5 1 3.5.9.3 0 .6-.1.9-.2.1 0 .2-.1.3-.2.1 0 .1-.1.2-.1.4-.3.8-.7 1.1-1.2.4-.8.7-1.7.7-2.9V217.999c0-.2 0-.5-.1-.7v-.1c0-.2-.1-.5-.1-.7-.1-.3-.1-.5-.2-.8-.1-.4-.3-.9-.4-1.3-.2-.4-.3-.8-.5-1.2-.2-.4-.4-.8-.7-1.2-.2-.4-.5-.7-.7-1.1v-.1c-.1-.2-.3-.3-.4-.5-.1-.2-.2-.3-.4-.5l-.1-.1c-.1-.2-.3-.3-.4-.5l-.1-.1-.4-.4-.1-.1-.4-.4-.1-.1c-.1-.1-.3-.2-.4-.3-.2-.1-.3-.2-.5-.3 0 0-.1 0-.1-.1-.2-.1-.3-.2-.5-.3-1-.6-1.9-.8-2.7-.9-.6 0-1.2.1-1.7.3-.6.3-1 .6-1.3.9Zm2.2 6.6v-.2c0-.1 0-.2-.1-.3v-1.9c0-.1 0-.1.1-.2v-.1c0-.1.1-.1.1-.2v-.1c0-.1.1-.1.1-.2v-.1c0-.1.1-.1.1-.2.1-.1.1-.1.2-.1.1-.1.2-.1.2-.1.1 0 .2-.1.3-.1.1 0 .2 0 .3-.1h.6c1.9.2 4 2.5 4.8 5.1.1.2.1.4.1.6v.2c0 .1 0 .3.1.4V217.599c0 .1 0 .3-.1.4v.1c0 .1-.1.2-.1.3v.1c0 .1-.1.2-.2.3-.1.1-.2.2-.2.3l-.2.2s-.1 0-.1.1l-.1.1s-.1 0-.1.1c-.1 0-.1 0-.2.1h-.1c-.1 0-.2 0-.3.1h-.7c-1.9-.2-4-2.5-4.8-5.1.4-.4.3-.6.3-.7Z" />
   <path fill="#FFD33F"
      d="M363.7 213.5v-1.9c0-.1 0-.1.1-.2v-.1c0-.1.1-.1.1-.2v-.1c0-.1.1-.1.1-.2v-.1c0-.1.1-.1.1-.2.1-.1.1-.1.2-.1.1-.1.2-.1.2-.1.1 0 .2-.1.3-.1.1 0 .2 0 .3-.1h.3c-.7.7-.9 2.1-.4 3.7.7 2.6 2.9 4.9 4.8 5.1h.3l-.2.2s-.1 0-.1.1l-.1.1s-.1 0-.1.1c-.1 0-.1 0-.2.1h-.1c-.1 0-.2 0-.3.1h-.7c-1.9-.2-4-2.5-4.8-5.1 0-.2-.1-.3-.1-.5v-.2c.3-.1.3-.2.3-.3Z" />
   <path fill="#232F6D"
      d="M370.1 218.999c-1.9-.2-4-2.5-4.8-5.1-.5-1.6-.3-3 .4-3.7h.3c1.9.2 4 2.5 4.8 5.1.1.2.1.4.1.6v.2c0 .1 0 .3.1.4V217.699c0 .2 0 .3-.1.4v.1c0 .1-.1.2-.1.3v.1c0 .1-.1.2-.2.3-.1.1-.2.2-.2.3-.1-.1-.2-.1-.3-.2Z" />
   <path fill="#0C25BA"
      d="m163.1 202.6-32.4-18.5c-3.2-1.8-7.1-1.8-10.4 0l-31.6 18v11.4l26.6 15.6H131l32.2-19.5c2.6-1.7 2.5-5.4-.1-7Z"
      opacity=".43" />
   <path fill="url(#e)"
      d="M81.6 155.6v53.9c0 .8.4 1.6 1.2 2.1l28.3 16.3c2.6 1.5 5.8 1.5 8.4 0l28.2-16.3c.8-.5 1.2-1.3 1.2-2.1l.2-53.6-67.5-.3Z" />
   <path fill="#F0F0FC"
      d="m111.1 173.899-28.3-16.3c-1.6-.9-1.6-3.2 0-4.2l28.5-16.4c2.4-1.4 5.3-1.4 7.6 0l28.8 16.6c1.5.9 1.8 3 .2 3.9l-28.4 16.5c-2.6 1.4-5.8 1.4-8.4-.1Z" />
   <path fill="url(#f)"
      d="M86.1 204.598v-40.7c-.7-.2-1.4.3-1.4 1v40.5c0 .6.3 1.2.9 1.5l24.6 14.2c.5.3 1.2-.1 1.2-.7v-.2l-24.4-14.1c-.5-.3-.9-.9-.9-1.5Z" />
   <path fill="#212D60"
      d="m110.3 177.699-23.9-13.8c-.1 0-.1-.1-.2-.1v40.7c0 .6.3 1.2.9 1.5l24.4 14.1v-40.5c0-.7-.5-1.5-1.2-1.9Z" />
   <path fill="url(#g)"
      d="M93.5 182.399c1.9 1.1 3.4.2 3.4-1.9 0-2.2-1.5-4.8-3.4-5.9v-1.9c2.8 1.6 5.1 5.5 5.1 8.7 0 3.2-2.3 4.5-5 2.9-.2-.1-.2-1.9-.1-1.9Z" />
   <path fill="#474AB6"
      d="M93.5 172.7v1.9c-1.8-1-3.3-.2-3.4 1.9l-1.6-.9c0-3.1 2.3-4.4 5-2.9ZM99.5 194.699v1.401c-1.3-.8-2.4-.101-2.5 1.399l-1.2-.7c0-2.3 1.7-3.2 3.7-2.1Z" />
   <path fill="#474AB6"
      d="M99.3 205.7c3.3 1.9 6 .4 6-3.4s-2.7-8.4-6-10.4h-.1v-3.3h.1c4.9 2.8 8.9 9.7 8.9 15.3 0 5.6-4 7.9-8.9 5.1h-.1l.1-3.3Z" />
   <path fill="#71D4FF" d="M93.5 195.399c0 3.8 2.6 8.4 5.9 10.4v3.3c-4.9-2.8-8.8-9.7-8.8-15.3l2.9 1.6Z" />
   <path fill="#0C25BA"
      d="m167.6 136.798-10.7-6.2c-1.1-.6-2.4-.6-3.4 0l-10.2 8.9 8.6 6.1h5.2l10.6-6.5c.8-.6.8-1.8-.1-2.3Z"
      opacity=".43" />
   <path fill="url(#h)"
      d="M162.6 108.898h-22.4v30.3c0 .3.1.5.4.7l9.4 5.4c.9.5 1.9.5 2.8 0l9.4-5.4c.3-.2.4-.4.4-.7h.1v-30.3h-.1Z" />
   <path fill="#6278B7"
      d="m150 114.999-9.4-5.4c-.5-.3-.5-1.1 0-1.4l9.5-5.5c.8-.5 1.7-.5 2.5 0l9.6 5.5c.5.3.5 1 0 1.3l-9.4 5.4c-.9.6-2 .6-2.8.1Z" />
   <path fill="#212D60"
      d="m150.5 113.398-6.8-3.9c-.4-.2-.4-.8 0-1l6.8-3.9c.6-.3 1.3-.3 1.8 0l6.9 4c.4.2.4.7 0 1l-6.8 3.9c-.5.3-1.2.3-1.9-.1Z" />
   <path fill="url(#i)"
      d="m143.701 108.998 6.8-3.9c.6-.3 1.3-.3 1.8 0l6.9 4c.1.1.2.1.2.2.1-.3.1-.6-.2-.8l-6.9-4c-.6-.3-1.3-.3-1.8 0l-6.8 3.9c-.3.2-.4.5-.2.8l.2-.2Z" />
   <path fill="#474AB6" d="M156.5 116.999c0-.4.3-.9.6-1.1.3-.2.6 0 .6.4v11.2l-1.2.7v-11.2Z" />
   <path fill="#71D4FF" d="M157.6 127.398v9.9c0 .4-.3.9-.6 1.1-.3.2-.6 0-.6-.4v-9.9l1.2-.7Z" />
   <path fill="#FFAB83"
      d="M32.4 246.6c.5-.3.5-.9-.2-1.2l-.8-.5c-.6-.4-1.6-.4-2.1-.1-.5.3-.5.9.2 1.2l.8.5c.6.4 1.6.4 2.1.1Z" />
   <path fill="#0C25BA"
      d="M63.6 292.2 41 279.1c-2.2-1.3-5-1.3-7.2 0l-29 16.7 25.4 15.1h10.9L63.6 297c1.9-1.1 1.8-3.7 0-4.8Z"
      opacity=".43" />
   <path fill="url(#j)"
      d="M57.2 280.301v14.1c0 .7-.3 1.4-1 1.8l-24 13.9a6.95 6.95 0 0 1-7.1 0l-24-13.8c-.7-.4-1-1.1-1-1.8H0v-14.1h57.2v-.1Z" />
   <path fill="#F0F0FC"
      d="m32.2 295.8 24-13.9c1.4-.8 1.4-2.8 0-3.5l-24.2-14c-2-1.2-4.5-1.2-6.5 0L1.1 278.5c-1.3.8-1.3 2.7 0 3.4l24 13.8c2.2 1.4 4.9 1.4 7.1.1Z" />
   <path fill="url(#k)"
      d="M62.3 261.999c-.8 0-1.5-.2-2.1-.5l-26-15c-.6-.3-.9-.8-.9-1.3 0-.6.4-1.2 1.2-1.7l9.3-5.3c1.4-.8 3.5-.9 4.7-.2l26 15c.6.3.9.8.9 1.3 0 .6-.4 1.2-1.2 1.7l-9.3 5.3c-.7.4-1.7.7-2.6.7Zm-1.8-.9c1.1.6 3 .5 4.2-.2l9.3-5.3c.6-.4 1-.8 1-1.3 0-.3-.2-.7-.7-.9l-26-15c-1.1-.6-3-.5-4.2.2l-9.3 5.3c-.6.4-1 .8-1 1.3 0 .3.2.7.7.9l26 15Z" />
   <path fill="#FF969B"
      d="M51.9 248.801c.5-.5 1.4-.5 1.9 0s.5 1.4 0 1.9l-1.5 1.5c-.5.5-1.4.5-1.9 0s-.5-1.4 0-1.9l1.5-1.5ZM45.3 247.1c.5-.5 1.4-.5 1.9 0s.5 1.4 0 1.9l-1.5 1.5c-.5.5-1.4.5-1.9 0s-.5-1.4 0-1.9l1.5-1.5Z" />
   <path fill="url(#l)"
      d="M45.2 251.099c-1.7 1-3.4 1.9-5.2 2.9-1.5.8-3.4 2.4-5.2 2.3-2.2-.1-3.2-2-4.3-3.6l-3.6-5.1c-1.1-1.5 1.4-2.9 2.4-1.4.9 1.2 1.8 2.5 2.6 3.7.8 1.1 1.9 3.7 3.5 3.3 1.5-.3 3.2-1.8 4.5-2.6 1.2-.7 2.5-1.4 3.7-2.1 1.7-.8 3.2 1.7 1.6 2.6Z" />
   <path fill="url(#m)"
      d="M37.7 263.3c-4.1 1.9-8 4.5-12 6.7-2.5 1.4-.3 5.3 2.3 3.9 3.5-1.9 6.9-3.9 10.4-5.8.2-.1.5-.3.8-.5 0-.2.2-.3.8-.3-.2 0-.5.2-.8.3 0 .2.1.4.2.9 0 .1 0 .2.1.3l5.4 3.1c-.7-5.9-2.7-10.8-7.2-8.6Z" />
   <path fill="#2A4280" d="M39.2 267.501c.3-.2.5-.3.8-.3-.6.1-.8.1-.8.3Z" />
   <path fill="url(#n)"
      d="M27.7 234.101c.3-.2.7-.2 1-.5.2-.2.2-.6.4-.8.5-.6 1.6.1 2.2-.3.2-.1.3-.3.5-.4.7-.3 1.2.8 1.9.6.2 0 .4-.2.5-.1.2 0 .3.1.4.2.2.2.5.6.6 1 .2.1.3.2.4.3.1.1.1.3.1.4 0 .5-.1 1-.4 1.5 0 .2-.1.4-.2.6-.2.5-.6 1-1 1.3-.2.1-.4.3-.6.4v.8c0 .2-.1.3-.3.3-.1 0-.1 0-.2-.1v-.2c0-.6-.2-1-.5-1s-.6.5-.6 1c0 .3.1.6.2.8-.2.4-.3.9-.6 1.3-.3.5-1 1-1.5.7-.1 0-.2-.1-.3-.2-.1-.1-.2-.3-.4-.4-.1 0-.2-.1-.2-.2-.1-.1-.1-.3-.2-.5-.2-.4-.8-.5-.9-.9-.1-.3.1-.5 0-.8-.1-.4-.6-.5-.8-.9-.2-.4 0-.7.1-1.1.1-.7-.2-1.3-.4-1.9.1-.4.4-.7.8-.9Z" />
   <path fill="#FF969B"
      d="M30.2 241.802c.5.3 1.2-.1 1.5-.7.2-.4.4-.8.6-1.3-.1-.2-.2-.5-.2-.8 0-.6.2-1 .6-1 .3 0 .5.5.5 1v.2s.1.1.2.1c.2 0 .3-.1.3-.3v-.8c.2-.1.4-.3.6-.4.4-.3.8-.8 1-1.3v2.5c0 1.7-1.3 3-2.9 3.2 0 1 0 2.1.1 3.1 0 1-2.3 1-2.4 0 0-1.3-.1-2.6-.1-3.8 0 .2.1.3.2.3Z" />
   <path fill="#212D60"
      d="m42.3 226.8 50.5 29.1c1.5.9 3.4-.2 3.4-2v-28.8c0-1.5-.8-2.9-2.1-3.6l-51.9-30c-.4-.2-1 .1-1 .6v32.7c-.1.8.4 1.6 1.1 2Z" />
   <path fill="#71D4FF"
      d="m49 204-5.9-3.4v.6l5.9 3.4v-.6ZM49 206.201l-5.9-3.4v.6l5.9 3.5v-.7ZM43.1 197v.6l2 1.2v-.6l-2-1.2ZM43.1 198.199v.6l2 1.2v-.6l-2-1.2ZM43.1 206.699v.6l1.7 1v-.6l-1.7-1ZM43.1 207.9v.6l1.7 1v-.6l-1.7-1ZM43.1 211.5v.6l4 2.3v-.6l-4-2.3ZM43.1 213.9v.6l4 2.4v-.7l-4-2.3ZM43.1 215.199v.6l1.5.9v-.6l-1.5-.9ZM43.1 218.801v.6l1.5.9v-.6l-1.5-.9ZM43.1 221.199v.6l1.5.9v-.6l-1.5-.9Z" />
   <path fill="#2A4280" d="M45.5 270.6c.1-.1.3-.1.4-.2-.3.1-.4.1-.4.2Z" />
   <path fill="url(#o)"
      d="M31.3 273.8c2.8-1.6 5.5-3.4 8.3-5 1.4-.8 2.8-1.6 4.2-2.3 4.5-2.2 6.2 2.6 7.2 6 .3 1.1.6 2.2.8 3.3l-5.6-3.2c-.1-.4-.3-.8-.4-1.2-.2-.5-.3-.7-.3-.8.1-.1.3-.1.4-.2-.3.1-.5.1-.4.2-.4.2-.8.6-1.2.8l-.1.1c-3.5 2.1-6.7 4-10.3 6.1-2.4 1.5-5.2-2.3-2.6-3.8Z" />
   <path fill="url(#p)"
      d="M24.9 253.299c.2-3.5 1.5-9.6 4.5-8.8 2.8.8 5.1 1.4 6.2 3.5.1.1.2.1.3.2.9 1.2 4.5 7.4 6.1 7.1 1.4-.3 1.3-.7 8.3-4.6 1.6-.9 3 1.6 1.4 2.4-8.2 4.6-8.7 5.3-10.4 5.2-1.8-.1-2.5-.9-5.1-4.7-.2 2.7-.4 7.7-.2 18.7 0 .9.4 3.9-.1 4.6-.5.8-.9 1.5-1.8 1.4-.9-.1-1.9-.3-2.7-.8-6.8-3.7-6.9-4.5-7.1-8.7-.3-5.1.3-10.3.6-15.5Z" />
   <path fill="#626FA6"
      d="M52.5 206.199v.6l2.4 1.4v-.6l-2.4-1.4ZM52.5 207.398v.7l2.4 1.4v-.7l-2.4-1.4ZM52.5 208.699v.6l2.4 1.4v-.6l-2.4-1.4ZM52.5 209.898v.7l5.9 3.4v-.6l-5.9-3.5ZM52.5 212.199v.7l4.3 2.5v-.6l-4.3-2.6ZM52.5 213.5v.6l4.3 2.5v-.6l-4.3-2.5ZM68.9 223.1l-3.6-2.1v.6l3.6 2.1v-.6ZM52.5 214.699v.7l4.3 2.5v-.6l-4.3-2.6ZM66.5 214.998l-11-6.5v-.6l11 6.5v.6ZM63.7 214.6l-8.2-4.8v-.7l8.2 4.9v.6ZM68.9 216.999l-4.6-2.7v.7l4.6 2.6v-.6ZM68.9 218.298l-13.5-7.9v.6l13.5 7.9v-.6ZM68.9 219.499l-9-5.3v.7l9 5.3v-.7ZM68.9 221.8l-11.5-6.7v.6l11.5 6.8v-.7ZM64.7 221.299l-7.3-4.3v-.7l7.3 4.4v.6ZM68.8 224.9l-11.4-6.7v-.6l11.4 6.7v.6ZM59.2 220.8l-4.4-2.5v-.7l4.4 2.6v.6ZM68.9 225.8l-9.1-5.3v.6l9.1 5.4v-.7ZM68.9 227.098l-14.1-8.2v.6l14.1 8.2v-.6ZM65.1 226.8l-10.3-6v-.7l10.3 6v.7ZM68.9 228.4l-3.2-1.9v.6l3.2 1.9v-.6ZM52.5 220v.7l4.3 2.5v-.7l-4.3-2.5ZM52.5 221.299v.6l11.1 6.5v-.6l-11.1-6.5ZM68.9 230.8l-4.7-2.7v.7l4.7 2.7v-.7ZM52.5 222.5v.7l8.1 4.7v-.6l-8.1-4.8ZM52.5 223.799v.6l9.7 5.7v-.6l-9.7-5.7ZM65.9 233.6 55 227.2v-.6l10.9 6.3v.7ZM68.6 236.499l-13.6-8v-.7l13.6 8v.7ZM71.3 216.801v.6l2.3 1.4v-.6l-2.3-1.4ZM71.3 218v.7l2.3 1.4v-.7l-2.3-1.4ZM71.3 219.301v.6l2.3 1.4v-.6l-2.3-1.4ZM71.3 220.5v.7l5.8 3.4v-.6l-5.8-3.5ZM71.3 222.801v.7l4.3 2.5v-.6l-4.3-2.6ZM71.3 224.102v.6l4.2 2.5.1-.6-4.3-2.5ZM87.6 233.702l-3.6-2.1v.6l3.6 2.1v-.6ZM71.3 225.301v.7l4.2 2.5v-.6l-4.2-2.6ZM85.2 225.6l-11-6.5v-.6l11 6.5v.6ZM82.4 225.201l-8.2-4.8v-.7l8.2 4.9v.6ZM87.6 227.6l-4.6-2.7v.7l4.6 2.6v-.6ZM87.6 228.9 74.2 221v.6l13.4 7.9v-.6ZM87.6 230.101l-9-5.3v.7l9 5.3v-.7ZM87.6 232.401l-11.5-6.7v.6l11.5 6.8v-.7ZM83.5 231.9l-7.4-4.3v-.7l7.4 4.4v.6ZM87.5 235.501l-11.4-6.7v-.6l11.4 6.7v.6ZM77.9 231.401l-4.3-2.5v-.7l4.3 2.6v.6ZM87.6 236.402l-9.1-5.3v.6l9.1 5.4v-.7ZM87.6 237.7l-14-8.2v.6l14 8.2v-.6ZM83.8 237.401l-10.2-6v-.7l10.2 6v.7ZM87.6 239.002l-3.2-1.9v.6l3.2 1.9v-.6ZM71.3 230.602v.7l4.2 2.5v-.7l-4.2-2.5ZM71.3 231.9v.6l11 6.5v-.6l-11-6.5ZM87.6 241.401l-4.7-2.7v.7l4.7 2.7v-.7ZM71.3 233.102v.7l8 4.7v-.6l-8-4.8ZM71.3 234.4v.6l9.6 5.7.1-.6-9.7-5.7ZM84.6 244.201l-10.9-6.4v-.6l10.9 6.3v.7ZM87.3 247.1l-13.6-8v-.7l13.6 8v.7Z" />
   <path fill="#0C25BA"
      d="m86.6 271.399 94-53.8c2.1-1.2 4.6-1.2 6.6 0l155.8 89.1c1.9 1.1 1.9 3.8 0 4.8l-87.4 50h-19.9l-149.1-85.2c-1.8-1.1-1.8-3.8 0-4.9ZM446.7 362.799l-33.3-19.3c-3.3-1.9-7.4-1.9-10.7 0l-42.7 24.6 37.5 22.3h16.1l33.1-20.4c2.7-1.7 2.7-5.6 0-7.2Z"
      opacity=".43" />
   <path fill="url(#q)"
      d="M437.3 345.299v20.8c0 1-.5 2-1.5 2.6l-35.5 20.5c-3.2 1.9-7.2 1.9-10.5 0l-35.4-20.4c-1-.6-1.5-1.6-1.4-2.7h-.2v-20.8h84.5Z" />
   <path fill="#6278B7"
      d="m400.3 368.098 35.5-20.5c2-1.2 2-4.1 0-5.2l-35.7-20.6c-2.9-1.7-6.6-1.7-9.5 0l-36.1 20.8c-1.9 1.1-1.9 3.9 0 5l35.4 20.4c3.2 2 7.2 2 10.4.1Z" />
   <path fill="#71D4FF"
      d="M404.7 373.999c-.7.4-1.2 1.5-1.2 2.4 0 .9.6 1.3 1.2.9l22.9-13.2v-3.3l-22.9 13.2ZM430.8 358.899l-3.2 1.9v3.3l3.2-1.9c.7-.4 1.2-1.5 1.2-2.4.1-.9-.5-1.3-1.2-.9Z" />
   <path fill="url(#r)"
      d="M437.3 318.199v20.8c0 1-.5 2-1.5 2.6l-35.5 20.5c-3.2 1.9-7.2 1.9-10.5 0l-35.4-20.4c-1-.6-1.5-1.6-1.4-2.7h-.2v-20.8h84.5Z" />
   <path fill="#6278B7"
      d="m400.3 340.999 35.5-20.5c2-1.2 2-4.1 0-5.2l-35.7-20.6c-2.9-1.7-6.6-1.7-9.5 0l-36.1 20.8c-1.9 1.1-1.9 3.9 0 5l35.4 20.4c3.2 2 7.2 2 10.4.1Z" />
   <path fill="#71D4FF"
      d="M404.7 346.899c-.7.4-1.2 1.5-1.2 2.4 0 .9.6 1.3 1.2.9l22.9-13.2v-3.3l-22.9 13.2ZM430.8 331.8l-3.2 1.9v3.3l3.2-1.9c.7-.4 1.2-1.5 1.2-2.4.1-.9-.5-1.3-1.2-.9Z" />
   <path fill="url(#s)"
      d="M437.3 291v20.8c0 1-.5 2-1.5 2.6l-35.5 20.5c-3.2 1.9-7.2 1.9-10.5 0l-35.4-20.4c-1-.6-1.5-1.6-1.4-2.7h-.2V291h84.5Z" />
   <path fill="#6278B7"
      d="m400.3 313.899 35.5-20.5c2-1.2 2-4.1 0-5.2l-35.7-20.6c-2.9-1.7-6.6-1.7-9.5 0l-36.1 20.8c-1.9 1.1-1.9 3.9 0 5l35.4 20.4c3.2 1.9 7.2 1.9 10.4.1Z" />
   <path fill="#71D4FF"
      d="M404.7 319.7c-.7.4-1.2 1.5-1.2 2.4 0 .9.6 1.3 1.2.9l22.9-13.2v-3.3l-22.9 13.2ZM430.8 304.7l-3.2 1.9v3.3l3.2-1.9c.7-.4 1.2-1.5 1.2-2.4.1-.9-.5-1.3-1.2-.9Z" />
   <path fill="url(#t)"
      d="M437.3 263.699v20.8c0 1-.5 2-1.5 2.6l-35.5 20.5c-3.2 1.9-7.2 1.9-10.5 0l-35.4-20.4c-1-.6-1.5-1.6-1.4-2.7h-.2v-20.8h84.5Z" />
   <path fill="#6278B7"
      d="m400.3 286.499 35.5-20.5c2-1.2 2-4.1 0-5.2l-35.7-20.6c-2.9-1.7-6.6-1.7-9.5 0l-36.1 20.8c-1.9 1.1-1.9 3.9 0 5l35.4 20.4c3.2 2 7.2 2 10.4.1Z" />
   <path fill="#71D4FF"
      d="M404.7 292.399c-.7.4-1.2 1.5-1.2 2.4 0 .9.6 1.3 1.2.9l22.9-13.2v-3.3l-22.9 13.2ZM430.8 277.3l-3.2 1.9v3.3l3.2-1.9c.7-.4 1.2-1.5 1.2-2.4.1-.9-.5-1.3-1.2-.9Z" />
   <path fill="#212D60"
      d="M388.1 295.298c0 .9.6 2 1.4 2.5.8.5 1.4.1 1.4-.8s-.6-2-1.4-2.5c-.7-.4-1.4-.1-1.4.8ZM383.1 292.399c0 .9.6 2 1.4 2.5.8.5 1.4.1 1.4-.8s-.6-2-1.4-2.5c-.8-.5-1.4-.1-1.4.8ZM378 289.498c0 .9.6 2 1.4 2.5.8.5 1.4.1 1.4-.8s-.6-2-1.4-2.5c-.7-.5-1.4-.1-1.4.8ZM373 286.598c0 .9.6 2 1.4 2.5.8.5 1.4.1 1.4-.8s-.6-2-1.4-2.5c-.8-.5-1.4-.1-1.4.8Z" />
   <path fill="#fff"
      d="M367.9 283.698c0 .9.6 2 1.4 2.5.8.5 1.4.099 1.4-.801s-.6-2-1.4-2.5c-.7-.5-1.4-.099-1.4.801ZM362.9 280.698c0 .9.6 2 1.4 2.5.8.5 1.4.1 1.4-.8s-.6-2-1.4-2.5c-.8-.4-1.4-.1-1.4.8ZM357.8 277.798c0 .9.6 2 1.4 2.5.8.5 1.4.1 1.4-.8s-.6-2-1.4-2.5c-.8-.4-1.4-.1-1.4.8ZM388.9 323.699c0 .9.6 2 1.4 2.5.8.5 1.4.1 1.4-.8s-.6-2-1.4-2.5c-.8-.5-1.4-.1-1.4.8Z" />
   <path fill="url(#u)" d="M383.8 320.799c0 .9.6 2 1.4 2.5.8.5 1.4.1 1.4-.8s-.6-2-1.4-2.5c-.8-.5-1.4-.2-1.4.8Z" />
   <path fill="url(#v)" d="M378.8 317.8c0 .9.6 2 1.4 2.5.8.5 1.4.1 1.4-.8s-.6-2-1.4-2.5c-.8-.4-1.4-.1-1.4.8Z" />
   <path fill="url(#w)" d="M373.7 314.899c0 .9.6 2 1.4 2.5.8.5 1.4.1 1.4-.8s-.6-2-1.4-2.5c-.8-.5-1.4-.1-1.4.8Z" />
   <path fill="url(#x)" d="M368.7 312c0 .9.6 2 1.4 2.5.8.5 1.4.1 1.4-.8s-.6-2-1.4-2.5c-.8-.5-1.4-.1-1.4.8Z" />
   <path fill="url(#y)" d="M363.6 309.1c0 .9.6 2 1.4 2.5.8.5 1.4.1 1.4-.8s-.6-2-1.4-2.5c-.8-.5-1.4-.1-1.4.8Z" />
   <path fill="#fff"
      d="M358.5 306.199c0 .9.6 2 1.4 2.5.8.5 1.4.1 1.4-.8s-.6-2-1.4-2.5c-.7-.5-1.4-.1-1.4.8ZM387.8 350.998c0 .9.6 2 1.4 2.5.8.5 1.4.1 1.4-.8s-.6-2-1.4-2.5c-.8-.5-1.4-.1-1.4.8Z" />
   <path fill="#212D60"
      d="M382.7 348.098c0 .9.6 2 1.4 2.5.8.5 1.4.1 1.4-.8s-.6-2-1.4-2.5c-.8-.5-1.4-.2-1.4.8ZM377.7 345.099c0 .9.6 2 1.4 2.5.8.5 1.4.1 1.4-.8s-.6-2-1.4-2.5c-.8-.4-1.4-.1-1.4.8Z" />
   <path fill="#fff"
      d="M372.6 342.198c0 .9.6 2 1.4 2.5.8.5 1.4.099 1.4-.801s-.6-2-1.4-2.5c-.8-.5-1.4-.099-1.4.801ZM367.5 339.299c0 .9.6 2 1.4 2.5.8.5 1.4.1 1.4-.8s-.6-2-1.4-2.5c-.7-.5-1.4-.1-1.4.8ZM362.5 336.399c0 .9.6 2 1.4 2.5.8.5 1.4.1 1.4-.8s-.6-2-1.4-2.5c-.8-.5-1.4-.1-1.4.8ZM357.4 333.498c0 .9.6 2 1.4 2.5.8.5 1.4.1 1.4-.8s-.6-2-1.4-2.5c-.7-.5-1.4-.1-1.4.8Z" />
   <path fill="#212D60"
      d="M387.399 376.498c0 .9.6 2 1.4 2.5.8.5 1.4.1 1.4-.8s-.6-2-1.4-2.5c-.8-.5-1.4-.1-1.4.8ZM382.3 373.499c0 .9.6 2 1.4 2.5.8.5 1.4.1 1.4-.8s-.6-2-1.4-2.5c-.7-.4-1.4-.1-1.4.8Z" />
   <path fill="url(#z)" d="M377.3 370.599c0 .9.6 2 1.4 2.5.8.5 1.4.1 1.4-.8s-.6-2-1.4-2.5c-.8-.4-1.4-.1-1.4.8Z" />
   <path fill="url(#A)"
      d="M372.2 367.698c0 .9.6 2 1.4 2.5.8.5 1.4.099 1.4-.801s-.6-2-1.4-2.5c-.7-.5-1.4-.099-1.4.801Z" />
   <path fill="url(#B)" d="M367.2 364.799c0 .9.6 2 1.4 2.5.8.5 1.4.1 1.4-.8s-.6-2-1.4-2.5c-.8-.5-1.4-.1-1.4.8Z" />
   <path fill="#212D60"
      d="M362.1 361.899c0 .9.6 2 1.4 2.5.8.5 1.4.1 1.4-.8s-.6-2-1.4-2.5c-.7-.5-1.4-.1-1.4.8ZM357.1 358.998c0 .9.6 2 1.4 2.5.8.5 1.4.1 1.4-.8s-.6-2-1.4-2.5c-.8-.5-1.4-.2-1.4.8Z" />
   <path fill="url(#C)"
      d="M239.9 351.8c-4.3 2.5-9.6 2.4-13.8-.1L84.4 268.6v7.8c0 1.9 1 3.7 2.7 4.7L224 359.4c5.6 3.2 12.5 3.2 18 0l77.9-44.5c2.7-1.6 4.5-4.5 4.5-7.6l.1-5.5-84.6 50Z" />
   <path fill="#F7F7F9"
      d="m239.6 351.9 83.5-47.8c1.7-1 1.7-3.5 0-4.5l-144.2-82.5c-1.9-1.1-4.2-1.1-6.2 0l-87 49.9c-1.7 1-1.7 3.5 0 4.5L226.3 352c4.1 2.3 9.2 2.3 13.3-.1Z" />
   <path fill="#7777D8"
      d="M288.5 291.6c1.3.7 3.4.7 4.7 0 1.3-.7 1.3-1.9 0-2.7-1.3-.7-3.4-.7-4.7 0-1.3.8-1.3 2 0 2.7ZM294.9 295.401c1.3.7 3.4.7 4.7 0 1.3-.7 1.3-1.9 0-2.7-1.3-.7-3.4-.7-4.7 0-1.2.7-1.2 1.9 0 2.7ZM301.4 299.1c1.3.7 3.4.7 4.7 0 1.3-.7 1.3-1.9 0-2.7-1.3-.7-3.4-.7-4.7 0-1.2.8-1.3 2 0 2.7Z" />
   <path fill="#9898ED"
      d="m148.3 297.9 27.2 15.6c3 1.8 8.4 1.5 11.9-.5l10-5.7c3.5-2 3.9-5.1.9-6.8L171 284.8c-3-1.8-8.4-1.5-11.9.5l-10 5.7c-3.5 2.1-3.8 5.1-.8 6.9ZM171.5 238.3l-9.3-5.4 9.3-5.3 9.3 5.4-9.3 5.3ZM182.7 244.7l-9.4-5.4 9.3-5.3 9.4 5.4-9.3 5.3ZM193.8 251.1l-9.4-5.4 9.3-5.3 9.4 5.4-9.3 5.3ZM204.9 257.599l-9.3-5.4 9.3-5.4 9.3 5.4-9.3 5.4ZM216.1 263.999l-9.4-5.4 9.3-5.4 9.4 5.4-9.3 5.4ZM227.2 270.4l-9.4-5.4 9.3-5.4 9.4 5.4-9.3 5.4ZM238.3 276.8l-9.3-5.4 9.3-5.4 9.3 5.4-9.3 5.4ZM249.5 283.2l-9.4-5.4 9.3-5.4 9.4 5.4-9.3 5.4ZM260.6 289.599l-9.4-5.4 9.3-5.4 9.4 5.5-9.3 5.3ZM271.7 295.999l-9.3-5.4 9.3-5.3 9.3 5.4-9.3 5.3ZM282.9 302.399l-9.4-5.4 9.3-5.3 9.4 5.4-9.3 5.3ZM294 308.8l-9.4-5.4 9.3-5.3 9.4 5.4-9.3 5.3ZM159.7 245.2l-9.4-5.4 9.3-5.4 9.4 5.4-9.3 5.4ZM170.8 251.601l-9.4-5.4 9.3-5.4 9.4 5.4-9.3 5.4ZM181.9 258.001l-9.3-5.4 9.3-5.4 9.3 5.4-9.3 5.4ZM193.1 264.4l-9.4-5.4 9.3-5.4 9.4 5.4-9.3 5.4ZM204.2 270.8l-9.4-5.4 9.3-5.4 9.4 5.4-9.3 5.4ZM215.3 277.2l-9.3-5.4 9.3-5.3 9.3 5.4-9.3 5.3ZM226.5 283.6l-9.4-5.4 9.3-5.3 9.4 5.3-9.3 5.4ZM237.6 290.001l-9.4-5.4 9.4-5.3 9.3 5.4-9.3 5.3ZM248.7 296.401l-9.3-5.4 9.3-5.3 9.3 5.4-9.3 5.3ZM259.9 302.8l-9.4-5.4 9.3-5.3 9.4 5.4-9.3 5.3ZM271 309.2l-9.4-5.4 9.4-5.3 9.3 5.4-9.3 5.3ZM282.1 315.7l-9.3-5.4 9.3-5.4 9.4 5.4-9.4 5.4ZM147.4 252.2l-9.4-5.4 9.3-5.3 9.4 5.4-9.3 5.3ZM158.5 258.6l-9.3-5.4 9.3-5.3 9.3 5.4-9.3 5.3ZM169.7 265.001l-9.4-5.3 9.3-5.4 9.4 5.4-9.3 5.3ZM180.8 271.499l-9.4-5.4 9.3-5.4 9.4 5.4-9.3 5.4ZM191.9 277.9l-9.3-5.4 9.3-5.4 9.3 5.4-9.3 5.4ZM203 284.3l-9.3-5.4 9.3-5.4 9.4 5.4-9.4 5.4ZM214.2 290.7l-9.4-5.4 9.3-5.4 9.4 5.4-9.3 5.4ZM225.3 297.101l-9.3-5.4 9.3-5.4 9.3 5.4-9.3 5.4ZM236.5 303.499l-9.4-5.4 9.3-5.4 9.4 5.4-9.3 5.4ZM247.6 309.899l-9.4-5.4 9.3-5.3 9.4 5.3-9.3 5.4ZM258.7 316.3l-9.3-5.4 9.3-5.3 9.3 5.4-9.3 5.3ZM269.9 322.7l-9.4-5.4 9.3-5.3 9.4 5.4-9.3 5.3Z" />
   <path fill="#fff"
      d="m153.8 317.1-4.8-2.8c-.7-.4-1.2-1.4-1.2-2.3 0-.9.6-1.3 1.2-.9l4.8 2.8c.7.4 1.2 1.4 1.2 2.3 0 .9-.5 1.3-1.2.9Z" />
   <path fill="#757575" d="m178 106.6.2-.1c0 .1-.1.1-.2.1Z" />
   <path fill="url(#D)"
      d="M336.7 192.701c-.8-4.6-3.5-8.7-7.7-11.1l-138-79.3c-1.9-1.1-4-.9-5.6 0l-7 4.2c1.6-.9 3.7-1 5.6 0l137.9 79.2c4.1 2.3 6.8 6.3 7.6 10.8.2.9.3 1.8.3 2.8v91.3c0 2.9-1.5 5.2-3.7 6.5l6.7-3.8c2.4-1.2 4.1-3.7 4.1-6.7v-91.4c0-.9 0-1.7-.2-2.5Z" />
   <path fill="#F7F7F9"
      d="M178.1 106.6c.1 0 .1-.1.2-.1s.1-.1.2-.1c1.6-.9 3.7-1 5.6 0L322 185.6c4.9 2.8 7.9 8 7.9 13.6v91.3c0 2.9-1.5 5.2-3.7 6.5-2.2 1.4-5.1 1.6-7.7.1l-135.1-76.8c-4.8-2.7-7.8-7.8-7.8-13.4v-95.7c-.1-1.9.9-3.6 2.5-4.6Z" />
   <path fill="#212D60"
      d="m320.1 189.3-137.7-79.1c-1.6-.9-3.6.2-3.6 2.1l.2 94.4c0 4.5 2.4 8.7 6.4 10.9l131.9 74.8c3.7 2.1 8.2-.6 8.2-4.8v-89.2c-.1-3.7-2.1-7.2-5.4-9.1Z" />
   <path fill="#fff" d="M189.6 199.601c0-1.9 1.4-2.7 3-1.8v-5.2c-4.3-2.4-7.7-.5-7.7 4.4l4.7 2.7v-.1Z" />
   <path fill="#4A5EA5" d="m189.6 199.802-4.7-2.7c0 2.5.9 5.3 2.3 7.7l3.4-2c-.6-1-1-2-1-3Z" />
   <path fill="url(#E)"
      d="M200.4 206.101c0-4.9-3.5-10.9-7.8-13.4h-.1v5.2c1.7 1 3.1 3.4 3.1 5.3 0 2-1.4 2.7-3.1 1.8-.8-.5-1.6-1.3-2.1-2.2l-3.4 2c1.4 2.4 3.3 4.5 5.5 5.8 4.4 2.5 7.9.5 7.9-4.5Z" />
   <path fill="#4A5EA5" d="M219.7 150.202v1.2c-1.2-.7-2.2-.1-2.2 1.3l-1.1-.6c0-2.1 1.5-3 3.3-1.9Z" />
   <path fill="#4A5EA5"
      d="M219.6 160.102c3 1.7 5.4.3 5.4-3.1s-2.4-7.7-5.4-9.4h-.1v-3h.1c4.4 2.6 8 8.8 8 13.9s-3.6 7.1-8 4.6h-.1l.1-3c-.1 0 0 0 0 0Z" />
   <path fill="#FFD33F" d="M214.3 150.801c0 3.5 2.4 7.6 5.4 9.4v3c-4.4-2.6-8-8.8-8-13.8 0-.1 2.6 1.4 2.6 1.4Z" />
   <path fill="#F74B9D" d="m189.8 161.3-.1 3.1-2.7-1.6v-3.2l2.8 1.7Z" />
   <path fill="#5A3B72" d="M189.8 154.901v3.2l-2.8-1.7.1-3.1 2.7 1.6ZM189.9 148.6v3.1l-2.8-1.6.1-3.1 2.7 1.6Z" />
   <path fill="#F74B9D" d="m190 142.3-.1 3.1-2.7-1.6v-3.2l2.8 1.7Z" />
   <path fill="#9FAFFC"
      d="m190.1 135.901-.1 3.2-2.7-1.7v-3.1l2.8 1.6ZM190.1 129.6v3.1l-2.8-1.6.1-3.1 2.7 1.6ZM194 163.799l-.1 3.1-2.7-1.6v-3.1l2.8 1.6Z"
      opacity=".2" />
   <path fill="#F74B9D" d="m194.1 157.401-.1 3.2-2.7-1.6v-3.2l2.8 1.6Z" />
   <path fill="#FFD33F" d="M194.1 151.1v3.1l-2.8-1.6.1-3.1 2.7 1.6Z" />
   <path fill="#5A3B72" d="M194.2 144.8v3.1l-2.8-1.6.1-3.2 2.7 1.7Z" />
   <path fill="#9FAFFC" d="m194.3 138.401-.1 3.2-2.7-1.7v-3.1l2.8 1.6Z" opacity=".2" />
   <path fill="#5A3B72" d="m198.3 166.299-.1 3.2-2.7-1.7v-3.1l2.8 1.6ZM198.4 160l-.1 3.1-2.7-1.6v-3.1l2.8 1.6Z" />
   <path fill="#9FAFFC" d="M198.4 153.7v3.1l-2.8-1.6.1-3.2 2.7 1.7Z" opacity=".2" />
   <path fill="#F74B9D" d="M198.5 147.299v3.2l-2.8-1.7.1-3.1 2.7 1.6Z" />
   <path fill="#5A3B72" d="m198.6 141.001-.1 3.1-2.7-1.6v-3.2l2.8 1.7Z" />
   <path fill="#FFD33F" d="m202.3 168.7-.1 3.1-2.7-1.6v-3.1l2.8 1.6Z" />
   <path fill="#F74B9D" d="m202.4 162.401-.1 3.1-2.7-1.6v-3.2l2.8 1.7Z" />
   <path fill="#5A3B72"
      d="M202.4 156v3.2l-2.8-1.7.1-3.1 2.7 1.6ZM202.5 149.7v3.1l-2.8-1.6v-3.1l2.8 1.6ZM202.6 143.301l-.1 3.2-2.7-1.6v-3.2l2.8 1.6Z" />
   <path fill="#FFD33F" d="M202.6 137v3.1l-2.7-1.6v-3.1l2.7 1.6Z" />
   <path fill="#F74B9D" d="m227.8 182.299-13.1-7.6v1.4l13.1 7.6v-1.4Z" />
   <path fill="#71D4FF" d="m227.8 187.199-13.1-7.5v1.3l13.1 7.6v-1.4Z" />
   <path fill="#F74B9D"
      d="M214.7 166.699v1.4l4.6 2.7v-1.4l-4.6-2.7ZM214.7 169.398v1.4l4.6 2.6v-1.3l-4.6-2.7ZM214.7 188.199v1.4l3.8 2.2v-1.4l-3.8-2.2ZM214.7 190.898v1.4l3.8 2.2v-1.4l-3.8-2.2ZM214.7 198.898v1.4l8.9 5.1v-1.4l-8.9-5.1ZM214.7 204.199v1.4l8.9 5.1v-1.3l-8.9-5.2Z" />
   <path fill="#71D4FF" d="M214.7 207.1v1.3l3.3 2V209l-3.3-1.9Z" />
   <path fill="#F74B9D" d="M214.7 215.1v1.3l3.3 2V217l-3.3-1.9Z" />
   <path fill="#71D4FF" d="M214.7 220.398v1.4l3.3 1.9v-1.4l-3.3-1.9Z" />
   <path fill="#4A5EA5"
      d="M236.7 155.6v1.4l5.3 3.1v-1.4l-5.3-3.1ZM236.7 158.4v1.4l5.2 3.1v-1.4l-5.2-3.1ZM236.7 161.1v1.5l5.2 3v-1.4l-5.2-3.1ZM236.7 163.9v1.4l13 7.7v-1.4l-13-7.7ZM236.7 169v1.4l9.5 5.6v-1.4l-9.5-5.6ZM236.7 171.799v1.4l9.5 5.6v-1.4l-9.5-5.6ZM272.8 192.999l-7.9-4.7v1.5l7.9 4.6v-1.4ZM236.7 174.6v1.4l9.5 5.6v-1.5l-9.5-5.5ZM267.5 175.1l-24.3-14.3v-1.4l24.3 14.3v1.4ZM261.4 174.299l-18.2-10.7v-1.4l18.2 10.7v1.4ZM272.8 179.6l-10.1-6v1.4l10.1 6v-1.4ZM272.801 182.4l-29.6-17.5-.1 1.5 29.7 17.4v-1.4ZM272.8 185.2 253 173.5v1.4l19.8 11.7v-1.4ZM272.8 190.299l-25.3-15-.1 1.5 25.4 14.9v-1.4ZM263.7 189.1l-16.3-9.6v-1.4l16.3 9.6v1.4ZM272.6 197.1l-25.2-14.8v-1.4l25.2 14.8v1.4ZM251.4 188l-9.6-5.6v-1.5l9.6 5.7v1.4ZM272.8 199.099l-20.1-11.8v1.4l20.1 11.9v-1.5ZM272.8 201.899l-31-18.2v1.4l31 18.3v-1.5ZM264.4 201.2l-22.6-13.3v-1.4l22.6 13.3v1.4ZM272.8 204.7l-7-4.1v1.4l7 4.1v-1.4ZM236.7 186.299v1.4l9.4 5.5v-1.4l-9.4-5.5ZM236.7 189v1.4l24.4 14.4v-1.4L236.7 189ZM272.801 210.199l-10.2-6v1.4l10.2 6v-1.4ZM236.7 191.799v1.4l17.9 10.5v-1.4l-17.9-10.5ZM236.7 194.6v1.4l21.4 12.6.1-1.4-21.5-12.6ZM266.2 216.299l-24-14.1v-1.4l24 14.1v1.4ZM272.3 222.6l-30.1-17.7v-1.4l30.1 17.7v1.4ZM236.4 203.6v1.5l5.3 3.1v-1.5l-5.3-3.1ZM236.4 206.4v1.4l5.3 3.1v-1.4l-5.3-3.1ZM236.4 209.199v1.4l5.2 3.1v-1.4l-5.2-3.1ZM236.4 212v1.4l13 7.6v-1.4l-13-7.6ZM236.4 217.1v1.4l9.5 5.6v-1.4l-9.5-5.6ZM236.4 219.799v1.5l9.5 5.5v-1.4l-9.5-5.6ZM272.6 241l-7.9-4.6v1.4l7.9 4.6V241ZM236.4 222.6v1.4l9.5 5.6v-1.4l-9.5-5.6ZM267.3 223.2l-24.4-14.3v-1.4l24.4 14.3v1.4ZM261.1 222.399l-18.2-10.8v-1.4l18.2 10.7v1.5ZM272.6 227.599l-10.2-5.9v1.4l10.2 5.9v-1.4ZM272.6 230.4 242.9 213v1.4l29.7 17.4v-1.4ZM272.6 233.2l-19.9-11.7v1.4l19.9 11.7v-1.4ZM272.6 238.3l-25.4-14.9v1.4l25.4 14.9v-1.4ZM263.4 237.099l-16.3-9.5.1-1.4 16.2 9.5v1.4ZM272.4 245.2l-25.3-14.9v-1.4l25.3 14.8v1.5ZM251.2 236.1l-9.7-5.7V229l9.7 5.7v1.4ZM272.6 247.2l-20.2-11.8v1.4l20.2 11.8v-1.4ZM272.6 249.999l-31.1-18.2v1.4l31.1 18.2v-1.4ZM264.1 249.2l-22.6-13.3v-1.4l22.6 13.3v1.4ZM272.6 252.8l-7.1-4.2v1.5l7.1 4.1v-1.4ZM236.4 234.299v1.4l9.5 5.6v-1.4l-9.5-5.6ZM236.4 237.1v1.4l24.5 14.4v-1.5l-24.5-14.3ZM279.4 179.799v1.4l5.3 3v-1.4l-5.3-3ZM279.4 182.498v1.4l5.3 3.1v-1.4l-5.3-3.1ZM279.4 185.299v1.4l13.1 7.7v-1.5l-13.1-7.6ZM279.4 190.398v1.4l9.6 5.6v-1.4l-9.6-5.6ZM279.4 193.199v1.4l9.5 5.6.1-1.4-9.6-5.6ZM315.6 214.399l-7.9-4.7v1.4l7.9 4.7v-1.4ZM279.4 195.998v1.4l9.5 5.5v-1.4l-9.5-5.5ZM304.2 195.7 285.9 185v-1.4l18.3 10.7v1.4ZM315.6 200.998l-10.1-6v1.4l10.1 6v-1.4ZM315.6 203.799l-29.7-17.5v1.4l29.7 17.5v-1.4ZM315.6 206.498l-19.9-11.6v1.4l19.9 11.6v-1.4ZM315.6 211.599l-25.4-14.9v1.4l25.4 15v-1.5ZM306.4 210.498l-16.2-9.6v-1.4l16.3 9.5-.1 1.5ZM315.4 218.499l-25.2-14.8v-1.5l25.2 14.9v1.4ZM294.2 209.399l-9.6-5.7v-1.4l9.6 5.7v1.4ZM315.6 220.499l-20.1-11.8v1.4l20.1 11.8v-1.4ZM315.6 223.3l-31-18.2-.1 1.4 31.1 18.2v-1.4ZM307.2 222.599l-22.7-13.3v-1.5l22.7 13.3v1.5ZM315.6 226.098l-7-4.1v1.4l7 4.1v-1.4ZM279.4 207.6v1.5l9.5 5.5v-1.4l-9.5-5.6ZM279.4 210.398v1.4l24.5 14.4v-1.4l-24.5-14.4ZM315.6 231.6l-10.3-6v1.4l10.3 6v-1.4ZM279.4 213.199v1.4l17.9 10.5v-1.4l-17.9-10.5ZM279.4 215.998v1.4l21.5 12.6v-1.4l-21.5-12.6ZM308.9 237.7l-24-14.1.1-1.5 24 14.1-.1 1.5ZM315 243.998l-30.1-17.7v-1.4l30.2 17.7-.1 1.4ZM279.2 225v1.4l5.2 3.1v-1.4l-5.2-3.1ZM279.2 227.801v1.4l5.2 3.1v-1.4l-5.2-3.1ZM279.2 230.6v1.4l5.2 3.1v-1.5l-5.2-3ZM279.2 233.301v1.5l13 7.6v-1.4l-13-7.7ZM279.2 240.4v1.4l9.5 5.6v-1.5l-9.5-5.5ZM279.2 243.1v1.4l9.5 5.6v-1.4l-9.5-5.6ZM279.2 245.9v1.4l9.4 5.6.1-1.4-9.5-5.6ZM310 244.601l-24.3-14.3v-1.5l24.3 14.3v1.5ZM303.9 243.7 285.7 233v-1.4l18.2 10.7v1.4ZM315.3 249l-10.1-5.9v1.4l10.1 5.9V249ZM315.3 251.8l-29.7-17.4v1.4l29.7 17.4v-1.4ZM315.3 254.6l-19.8-11.7-.1 1.4 19.9 11.7v-1.4ZM315.3 261.599l-25.4-14.9v1.4l25.4 14.9v-1.4ZM306.2 260.4l-16.3-9.6v-1.4l16.3 9.6v1.4ZM315.1 268.399l-25.2-14.8v-1.4l25.2 14.8v1.4ZM293.9 259.301l-9.6-5.6v-1.4l9.6 5.6v1.4ZM315.3 273.3l-31-18.3v1.4l31 18.3v-1.4ZM306.9 272.501l-22.6-13.3v-1.4l22.6 13.3v1.4ZM279.2 257.6v1.4l9.4 5.5v-1.4l-9.4-5.5ZM279.2 260.4v1.4l24.4 14.3v-1.4l-24.4-14.3Z" />
   <path fill="url(#F)"
      d="M214.4 61.7 198 52.2s-.1 0-.1-.1l-31.1-18c-.7-.4-1.3-.3-1.7 0 0 0-1.8 1-1.7 1h.1c.4-.2.9-.2 1.5.2l15.5 9 15.6 9s.1 0 .1.1l4 2.3 12.4 7.2c1.2.7 2.2 2.4 2.2 3.8v2.8l1.9-1.1v-2.8c0-1.5-1-3.2-2.3-3.9Z" />
   <path fill="#1D2856" d="M214.8 69.4v30.1c0 .6-.2 1-.4 1.3.9-.5 1.7-1 1.7-1 .4-.2.6-.7.6-1.4v-30l-1.9 1Z" />
   <path fill="#232F6D"
      d="m214.8 69.5-35.6-20.6-16.5-9.5v30.1c0 1.4 1 3.1 2.2 3.8l16.4 9.5s.1 0 .1.1l31.1 18c.6.3 1.1.4 1.5.2h.2c.1 0 .1-.1.2-.1.3-.3.4-.7.4-1.3V69.5Z" />
   <path fill="#F0F0FC"
      d="m212.6 62.8-12.4-7.2-4-2.3s-.1 0-.1-.1l-15.6-9-15.5-9c-.6-.3-1.1-.4-1.5-.2h-.1c-.4.2-.6.7-.6 1.4v2.7l16.5 9.5 35.6 20.6v-2.8c-.1-1.2-1.1-2.9-2.3-3.6Z" />
   <path fill="#F90000"
      d="M212.9 66.7c.1-.1.1-.3.1-.4 0-.6-.4-1.4-1-1.7-.1-.1-.3-.1-.4-.1h-.3l.4-.2c.2-.1.4-.1.7.1.5.3 1 1.1 1 1.7 0 .3-.1.5-.3.6l-.5.3c.2-.1.2-.2.3-.3Z" />
   <path fill="url(#G)"
      d="M211.3 64.5h.3c.1 0 .3.1.4.1.5.3 1 1.1 1 1.7 0 .2 0 .3-.1.4 0 .1-.1.2-.2.2-.2.1-.4.1-.7-.1-.5-.3-1-1.1-1-1.7 0-.2.1-.5.3-.6Z" />
   <path fill="#FFD33F"
      d="M210 65.099c.1-.1.1-.3.1-.4 0-.6-.4-1.4-1-1.7-.1-.1-.3-.1-.4-.1h-.3l.4-.2c.2-.1.4-.1.7.1.5.3 1 1.1 1 1.7 0 .3-.1.5-.3.6l-.5.3c.1-.2.2-.3.3-.3Z" />
   <path fill="url(#H)"
      d="M208.4 62.898h.3c.1 0 .3.1.4.1.5.3 1 1.1 1 1.7 0 .2 0 .3-.1.4 0 .1-.1.2-.2.2-.2.1-.4.1-.7-.1-.5-.3-1-1.1-1-1.7 0-.3.1-.6.3-.6Z" />
   <path fill="#40B8E2"
      d="M207.1 63.4c.1-.1.1-.3.1-.4 0-.6-.4-1.4-1-1.7-.1-.1-.3-.1-.4-.1h-.3l.4-.2c.2-.1.4-.1.7.1.5.3 1 1.1 1 1.7 0 .3-.1.5-.3.6l-.5.3c.1-.2.2-.3.3-.3Z" />
   <path fill="#71D4FF"
      d="M205.5 61.2h.3c.1 0 .3.1.4.1.5.3 1 1.1 1 1.7 0 .2 0 .3-.1.4 0 .1-.1.2-.2.2-.2.1-.4.1-.7-.1-.5-.3-1-1.1-1-1.7 0-.3.1-.5.3-.6Z" />
   <path fill="#F74B9D"
      d="M392.7 236.499c-.2 1.4.1 2.9-.7 4-.9 1.2-4 2-5.9 4.3-3.1 3.8-.8 10 4.8 11s8.4-4.2 5.5-8.8c-1.4-2.3.9-2.1 1.7-3.3.4-.6.8-1.8.5-2.5-.3-.6-.3-.7-.6-1.4-1-3.1 2.8-1.8 3.3-4.3 1.3-4.4-7.6-4.5-8.6 1Z" />
   <path fill="#FF969B"
      d="M394.9 246.399c-1.9 3.1-4.6 6.3-5.9 9.7-.1.2-.1.4-.2.6l2.8.9c.1-.2.2-.4.2-.6 0 0 .4-.9.6-1.2 2.2-3.5 2.6-4.1 5-7.9 1.1-1.6-1.5-3.1-2.5-1.5Z" />
   <path fill="#fff"
      d="M378.9 293.499c-.9-.5-2.4-.4-3.4.1l-1.3.8c-1 .6-1.1 1.4-.2 1.9.9.5 2.4.4 3.4-.1l1.3-.8c.9-.5 1-1.4.2-1.9ZM389.1 297.9c-1-.2-2.4.2-3.2 1.1l-1 1.1c-.8.8-.6 1.7.3 1.9 1 .2 2.4-.2 3.2-1.1l1-1.1c.8-.8.6-1.6-.3-1.9Z" />
   <path fill="#FF969B"
      d="M398.7 276.1c-3.3 2.1-6.9 4.1-10 6.5-1.5 1.2-1.9 3.1-2.2 4.9-.7 3.5-.9 7.3.3 10.8.6 1.8 3.4 1 2.8-.8-1-3.2-.8-6.7-.1-9.9.5-2.1.4-2.3 1.9-3.3 2.9-1.9 5.8-3.8 8.8-5.7 1.6-.9.1-3.5-1.5-2.5ZM379.5 293.499c1-3.7 1.9-7.5 2.9-11.2 1.3-4.7 5.4-6.4 9.2-8.8 1.6-1 .1-3.6-1.5-2.5-4.3 2.7-8.9 4.8-10.4 10-1.2 3.9-2 7.8-3 11.7-.5 1.9 2.3 2.7 2.8.8Z" />
   <path fill="#fff"
      d="M402.6 247.8c1 2.3 1.1 5 1.1 7.5l.3 12.6c.1 2.8.1 5.8-1.1 8.1-.6 1.2-1.5 2.2-2.5 3-1.4 1.3-2.9 2.5-4.4 3.6-.3.3-.7.5-1.1.5-.5 0-.9-.3-1.3-.5-3.1-2.1-6.1-4.5-8.2-7.9-.4-.6-.8-1.4-.8-2.2 0-1.4 1.1-2.3 2-3 1-.7 2.1-1.5 3.1-2.1.8-.6 1.7-1.1 2.3-2 1-1.5 1.2-3.6 1.4-5.5.2-2.7.4-5.4.6-8 .1-1.8.3-3.7 1-5.3 1.9-4.7 6-2.6 7.6 1.2Z" />
   <path fill="#F74B9D"
      d="M401.6 235.9v-.5c0-.6-.2-1-.7-1.5-.8-.7-1.8-1.3-2.9-1.3-.9 0-1.6.2-2.2.9-.3.3-1.3 1.2-1 1.6.2.3.4.5.6.7 1.1.7 2.8-.3 3.8.9.2.2.3.4.4.7.1.4 0 .8.3 1.1 0 0 .1 0 .1.1v-.3c0-.5.3-1 .6-1s.6.4.6 1c0 .5-.2.9-.5 1v.5c.2-.2.3-.4.5-.6.2-.3.3-.7.4-1 .1-.1.1-.3.1-.4.1-.3.1-.6.1-.9-.1-.5-.1-.7-.2-1Z" />
   <path fill="#FF969B"
      d="M400.5 239.1c.3-.1.5-.5.5-1s-.3-1-.6-1-.6.4-.6 1v.3s-.1 0-.1-.1c-.3-.3-.2-.7-.3-1.1-.1-.2-.2-.5-.4-.7-1-1.2-2.8-.2-3.8-.9v2.6c0 1.6 1.2 2.9 2.7 3.1v2.4c-.4 0-.8.1-1.1.2-.6.4-.6 1 .2 1.4l.9.5c.7.4 1.9.5 2.5.1.6-.3.6-.9 0-1.4 0-.1.1-.2.1-.3 0-1.6-.1-3.3-.1-4.9v-.3c.1.3.1.2.1.1ZM386.7 267.599c-.4 1.9 2.5 2.6 2.8.8.7-3.4 1.2-8 2.1-10.8l-2.8-.9c-1 3.5-1.4 7.4-2.1 10.9Z" />
   <path fill="#fff"
      d="m385.1 277.8 10.2-5.9c.3-.2.3-.6 0-.7l-6.5-3.7c-.3-.2-.6-.2-.9 0l-10.2 5.9c-.2.1-.2.5 0 .6l6.6 3.8c.3.2.6.2.8 0Z" />
   <path fill="#232F6D" d="m384.9 277.299 9.8-5.6-6.6-3.9-9.8 5.7 6.6 3.8Z" />
   <path fill="#FF969B"
      d="M387.2 267.2c.7-.3 1.6 0 1.9.7.3.7 0 1.6-.7 1.9l-2.1.9c-.7.3-1.6 0-1.9-.7-.3-.7 0-1.6.7-1.9l2.1-.9Z" />
   <path fill="#FF969B"
      d="M389.6 268.6c.7-.3 1.6 0 1.9.7.3.7 0 1.6-.7 1.9l-2.1.9c-.7.3-1.6 0-1.9-.7-.3-.7 0-1.6.7-1.9l2.1-.9Z" />
   <path fill="#FF969B"
      d="M400 248.499c.2 2 .5 4.1.7 6.1.2 1.9 1.1 4.9.1 6.7-1 1.7-3.7 2.7-5.3 3.7-1.7 1.1-3.5 2.1-5.2 3.2-1.6 1-.1 3.5 1.5 2.5 2-1.2 3.9-2.4 5.9-3.6 1.9-1.2 4.4-2.3 5.6-4.3 1.3-2.2.7-4.6.5-7-.3-2.4-.6-4.8-.8-7.2-.3-2-3.2-2-3-.1ZM353.8 319.899h.2c.8.1 1.6-.3 1.7-1l.5-2.3c.2-.7-.4-1.4-1.1-1.5h-.2c-.8-.1-1.6.3-1.7 1l-.5 2.3c-.2.7.3 1.4 1.1 1.5ZM356.4 350.3l.1.2c.3.6 1.2.9 1.9.6l2.5-1c.7-.3 1.1-1.1.7-1.7l-.1-.2c-.3-.6-1.2-.9-1.9-.6l-2.5 1c-.7.3-1 1-.7 1.7Z" />
   <path fill="#FF969B" d="M353.5 317.6c1.9-.7 2.8 2.1.9 2.8-2.5.9-5.1 2.1-7.7 3.5l-1.8-2.4c2.8-1.5 5.7-2.8 8.6-3.9Z" />
   <path fill="url(#I)" d="M333.6 329.9c3.2-3.3 7.1-6.1 11.4-8.4l1.8 2.4c-4 2.2-7.9 5-10.8 8-1.5 1.4-3.7-.6-2.4-2Z" />
   <path fill="#212D60"
      d="M345.7 395.999c-.9-.5-2.6-.4-3.7.1l-1.4.7c-1.1.6-1.2 1.4-.3 1.9.9.5 2.6.4 3.7-.1l1.4-.7c1.2-.6 1.3-1.4.3-1.9ZM335.8 391.399c-.9-.5-2.6-.4-3.7.1l-1.4.7c-1.1.6-1.2 1.4-.3 1.9.9.5 2.6.4 3.7-.1l1.4-.7c1.1-.6 1.2-1.5.3-1.9Z" />
   <path fill="#F74B9D"
      d="M340.6 354.5c5.7 13 6.2 28.4 3.3 42-.6 2.9-5.6 1.7-5-1.2 2.7-12.8 2.1-27.3-3.3-39.6-1.1-2.8 3.9-4 5-1.2Z" />
   <path fill="#F74B9D"
      d="M332.2 373.8c.2-5.3-1.8-10.5-3.7-15.6-.4-1.1.5-2.2 1.8-2.2h2.8c2 5.8 4.4 11.8 4.2 17.8-.2 6-2.2 12.1-3.5 18-.6 2.9-5.6 1.7-5-1.2 1.3-5.4 3.2-11.2 3.4-16.8Z" />
   <path fill="#FF969B" d="M358.2 348.7c1.8.9.2 3.3-1.6 2.5-3.4-1.6-7.2-3-10.5-4.8l1.7-2.4c3.3 1.7 7 3.1 10.4 4.7Z" />
   <path fill="url(#J)"
      d="M330.1 348.7c2.5-18.4 2.3-19.3 4.8-19.8 3.3-.7 5.7 2.7 6.4 5.4.7 1.3 1.3 2.6 2 3.9 1 1.9 1.7 4.2 3.7 5.3.3.2.6.3.8.5l-1.7 2.4c-.4-.2-.8-.4-1.2-.7-1.5-.9-2.6-2.3-3.6-3.9-.6 2.9-1.8 4.3-1.8 7.3s1.5 4.9 3.3 11.1c2 6.8-13.9-.4-14.7-3.1-1-3.2 1.7-6.7 2-8.4Z" />
   <path fill="#FF969B" d="M335 325.699c0 1.4.1 2.8.1 4.3 0 1 2.7 1 2.7 0 0-1.4-.1-2.8-.1-4.3 0-1-2.7-1-2.7 0Z" />
   <path fill="#FF969B"
      d="M336.1 326.799c-.2 0-.5-.1-.6-.3-1.2-1.3-1.1-3.8-.3-5.5.5-1.1 1-1.7 3-1.7.5 0 1.9-.1 2.5.5.2.1.3.1.4.2v3.6c0 1.8-1.6 3.2-3.7 3.2h-1.3Z" />
   <path fill="url(#K)"
      d="M339.9 322.4c-.7.4-1.4.8-1.9 1.4-.4.5-.6 1.2-.9 1.8-.4.6-1.1 1-1.7.7-1.2-.6-2.8-4.4-1.4-6.8 1-1.7 5.6-1.4 6.8-.4 1.1.9 0 2.6-.9 3.3Z" />
   <path fill="#FF969B"
      d="M337.5 323.601c0 .6.3 1 .6 1s.6-.5.6-1-.3-1-.6-1c-.4-.1-.6.4-.6 1ZM338.3 330.799c.7-.3.6-.9-.2-1.3l-.9-.5c-.8-.4-1.9-.4-2.6-.1-.7.3-.6.9.2 1.3l.9.5c.8.4 1.9.4 2.6.1Z" />
   <path fill="url(#L)"
      d="M330.8 324.999c-1.9.8-4.1 1.4-5 3.1-.8 1.4-.3 3-.7 4.5-.7 2.2-3.2 3.5-4.5 5.5-1.6 2.6-.6 6.2 2.2 7.9 2.7 1.7 6.8 1.4 9.3-.6 2.5-2 3.2-5.4 1.9-8.1-.5-1.2-1.4-2.2-1.9-3.4-.5-1.2-.6-2.6.3-3.6.5-.5 1.2-.9 1.5-1.5.3-.9-.4-1.8-.3-2.7.1-.9 2.2-2.6 1.2-3.3-1.1-.7-3.1 1.8-4 2.2Z" />
   <path fill="#71D4FF"
      d="M245.5 319.101c.3 1.5-.1 3.1.8 4.3 1 1.3 4.8 2.2 7.1 4.6 3.8 4.1.9 10.7-5.8 11.8-6.7 1.1-10.1-4.5-6.7-9.5 1-1.5.4-2-.4-2.5.6-.1 1.1-.4 1-.9 0-1.7-.1-3.3-.1-5v-.5c.3-.1.6-.5.6-1s-.3-1-.6-1c-.4 0-.6.4-.6 1v.3s-.1 0-.1-.1c-.4-.3-.3-.7-.4-1.1-.1-.2-.1-.7-.4-.7-3.9.6-2.3-2.1-4.5-1.7v1.4c-.2-.2-.3-.5-.4-.9-1.3-4.3 9.3-4.5 10.5 1.5Z" />
   <path fill="#212D60"
      d="M239.5 398.201c-1-.5-2.8-.5-3.9.1l-1.5.8c-1.2.6-1.3 1.6-.3 2.1s2.8.5 3.9-.1l1.5-.8c1.1-.7 1.3-1.6.3-2.1ZM255 384.9c-1.2-.1-2.7.6-3.5 1.6l-1 1.3c-.8 1-.5 1.9.7 2 1.2.1 2.7-.6 3.5-1.6l1-1.3c.8-1 .4-1.9-.7-2Z" />
   <path fill="#FF969B"
      d="M233.9 365.101c0-.5.1-1.1.1-1.6l.5-10.9c0-.9.6-1.4 1.1-1.6.7-.3 1.7-.3 2.3.1.5.3.8.8.8 1.5l-.5 10c0 .5-.1 1.1-.2 1.7-.3 2.1-.5 4.3.7 5.6 3.4 3.4 7 6.6 10.4 9.8 1.8 1.6 3.5 3.2 5.3 4.8 1 .9.7 2-.1 2.7-.7.7-1.9.9-2.8 0-1.8-1.7-3.7-3.4-5.5-5-3.6-3.3-7.4-6.6-10.7-10.1-1.9-2-1.7-4.4-1.4-7Z" />
   <path fill="#FF969B"
      d="M247.2 357c-6.3 11.6-7.9 26.9-7 40.2.2 3.3-4.2 3.2-4.4 0-1-14.1.9-30.5 7.6-42.8 1.5-2.8 5.4-.2 3.8 2.6Z" />
   <path fill="url(#M)" d="M233.8 368s1.8 3.5 8.1 4.2l6.5-13-14.3-4.7c-.1.1-.7 8.9-.3 13.5Z" />
   <path fill="#E9DBEF" d="m232.5 341.102 1.9 2.1c-.7.5-1.4.9-2.1 1.3l-1.8-2c.7-.4 1.3-.9 2-1.4Z" />
   <path fill="#FF969B"
      d="M223.4 347.502c1.9-1.3 3.7-2.6 5.6-3.9.5-.3 1-.7 1.5-1l1.8 2c-.5.3-.9.6-1.3.8-2 1.4-4.1 2.8-6.1 4.3-1.5.9-2.9-1.3-1.5-2.2Z" />
   <path fill="#fff" d="M237.6 327.301c.2-.2.5-.3.9-.4 1.5-.5 3-.2 4.3.6l-4.3 31.6-1.2-.6.3-31.2Z" />
   <path fill="#212D60"
      d="M236.3 341.3c-.1.2-.2.4-.3.5-.4.5-1 1-1.6 1.5l-1.8-2.1c.3-.2 1-.7 1-.7s2-7.6 3.1-11.6c0-.2.1-.3.2-.4.2-.5.5-.8.8-1.1l-.3 31.3c-1.4-.8-2.5-1.6-2.9-2.3-1.5-3.1 1.9-7.1 1.9-8.9-.1-2.4-.1-4.4-.1-6.2Z" />
   <path fill="#E9DBEF" d="m252.7 344.201 2.8-.5c.2.7.3 1.3.5 1.9l-2.7.5c-.3-.6-.4-1.3-.6-1.9Z" />
   <path fill="#FF969B"
      d="M255.9 345.701c.1.6.3 1.1.4 1.7.7 2.4 1.4 4.7 2.1 7.1.5 1.6-2.2 2.3-2.7.7-.9-3-1.7-6-2.5-8.9l2.7-.6Z" />
   <path fill="#2B1C3C" d="m251.699 340.802-.2-.2c-.2-.6.4.4.2.2Z" />
   <path fill="#212D60"
      d="M242.7 327.602c.4.3.9.6 1.3 1 .2 0 .4.1.5.3 1.8 1.9 3.5 3.9 5.3 5.8 1.4 1.5 3.4 3.2 4.3 5 .6 1.2 1 2.6 1.3 4l-2.8.5c-.4-1.2-.7-2.4-1.2-3.6v-.1l.2.2c.2.3-.4-.7-.2-.2l-.6-.6c-1.1-1.1-2.1-2.3-3.1-3.4-.3-.3-.5-.6-.8-.9.8 5.5-.9 6.5-.3 10.5.4 3 3.7 5.1 2.2 11.6-1 4.1-6.5 3.2-10.5 1.4l4.4-31.5Z" />
   <path fill="#FF969B"
      d="M242 328.6c.6-.3.5-.9-.2-1.3l-.9-.5c-.7-.4-1.8-.4-2.4-.1-.6.3-.5.9.2 1.3l.9.5c.7.4 1.8.4 2.4.1Z" />
   <path fill="#71D4FF" d="M238.6 324.1v2.3c-.4-.7-.7-1.7-.4-2.3v-.1c.1.1.4.1.4.1Z" />
   <path fill="#FF969B"
      d="M235.3 317.502c2.2-.5.5 2.3 4.5 1.7.3 0 .3.4.4.7.1.4 0 .8.4 1.1 0 0 .1 0 .1.1v-.3c0-.5.3-1 .6-1 .4 0 .6.4.6 1 0 .5-.2.9-.6 1v.5c0 1.7.1 3.3.1 5 0 .5-.5.8-1 .9-.8.1-1.8-.2-1.8-.9v-2.9h-.3c-1.6 0-3-1.2-3-2.6v-4.3ZM220.8 350.101c.4.7 1.3 1 2.1.7l1.8-.8c.8-.3 1.1-1.2.7-1.9-.4-.7-1.3-1-2.1-.7l-1.8.8c-.7.3-1.1 1.1-.7 1.9ZM256.6 358.4c.9.1 1.7-.5 1.8-1.3l.2-1.8c.1-.8-.5-1.5-1.4-1.6-.9-.1-1.7.5-1.8 1.3l-.2 1.8c0 .8.6 1.5 1.4 1.6Z" />
   <path fill="#71D4FF"
      d="m169.5 71.3 5.3-7.9c.7-1 2.2-.8 2.5.3l1.2 3.6c.3.8 1.3 1.1 1.9.4l5.7-5.9c1-1 2.6-.6 3.1.7l4.1 12c.7 2.2 3.4 2.9 5.2 1.5l.6-.5c.7-.5 1.7-.2 1.9.7l3.9 15-35.4-19.9Z" />
   <path fill="#9898ED"
      d="M274.8 131.1c-.1 0-.1 0-.2-.1l-58.9-34.5c-.2-.1-.3-.4-.1-.6.1-.2.4-.3.6-.1l58.3 34.1v-13.1c0-.2.2-.4.4-.4s.4.2.4.4v13.8c0 .1-.1.3-.2.4-.2.1-.3.1-.3.1Z" />
   <path fill="url(#N)"
      d="M349.9 83.599c-12-28.5-38.9-47.1-54.3-36.7l-16.7 9.7c15.7-7.7 40.7 10.5 52.3 37.8 9.4 2.2 22.2 11.3 31.3 32.5 4.6 11.9 5.8 27.6-3.6 34.1l18.1-10.4h-.1c19.5-11.4-.4-60.8-27-67Zm31.9 34.3s-.1.1-.2.1l.2-.1Z" />
   <path fill="#F2E8EA" d="m276 58.398.8-.5c-.2.2-.5.3-.7.5h-.1Z" />
   <path fill="url(#O)"
      d="M261.6 73.9c-4.6-2.6-8.8-3.1-11.9-1.7l17.2-10c1.9-1.3 4.2-1.8 6.8-1.5-3.6 4.1-5.7 10.3-5.8 18.2-1.9-2-4.1-3.7-6.3-5Z" />
   <path fill="#F0F0FC"
      d="M302.3 59.6c.7.4 1.3.8 2 1.2.2.1.3.2.5.3.6.4 1.3.9 1.9 1.3.1.1.2.2.3.2.5.4 1 .8 1.6 1.2.2.2.4.3.6.5.6.5 1.1.9 1.7 1.4.2.2.5.4.7.6.3.3.7.6 1 .9.3.3.6.6.9.8l.9.9c.5.5 1 1.1 1.6 1.6.2.2.3.3.4.5 1.2 1.3 2.4 2.7 3.5 4.1 1.2 1.5 2.3 3.1 3.4 4.7 2.2 3.3 4.3 6.7 6 10.3l.3.6c.5 1.1 1.1 2.3 1.6 3.4 0 .1.1.1.1.2.6.1 1.2.3 1.9.5 1.9.6 3.9 1.5 5.9 2.7.6.3 1.1.7 1.7 1 .2.1.3.2.5.3.4.3.8.6 1.3.9.1.1.3.2.4.3.5.4 1.1.8 1.6 1.3l.1.1c.5.4 1 .8 1.5 1.3.1.1.3.2.4.4.4.4.9.8 1.3 1.2l.3.3c.5.5 1 1 1.5 1.6l.1.1c.5.5.9 1 1.4 1.5l.3.3c.4.5.9 1.1 1.3 1.6l.1.1c.5.6 1 1.3 1.4 1.9.4.6.9 1.2 1.3 1.9l.2.2c1.3 2 2.6 4.1 3.7 6.2v.1c1.1 2.2 2.1 4.4 3 6.7.8 2.1 1.5 4.3 2 6.4 0 .1 0 .2.1.3.2.6.3 1.3.4 1.9v.1c.1.7.3 1.4.4 2.1v.2c.1.6.2 1.2.2 1.8 0 .2 0 .4.1.6 0 .5.1 1 .1 1.4v.6c0 .6.1 1.3.1 1.9 0 3.5-.5 6.6-1.5 9.2-.3.7-.6 1.5-.9 2.1-1 2-2.3 3.6-3.9 4.9-.3.2-.5.4-.8.6-4.9 3.3-12 3.1-19.9-1.4l-78.5-45.3v-.1c-9.4-6.1-16.8-19.3-16.8-30.2 0-6.1 2.3-10.2 6-11.9 3.2-1.4 7.3-1 11.9 1.7 2.2 1.3 4.4 3 6.3 5 .1-7.9 2.2-14.1 5.8-18.2.8-.9 1.6-1.6 2.4-2.3.2-.2.4-.3.7-.5.7-.5 1.3-.8 2.1-1.2 6.2-2.8 14.4-2.1 23.5 3.1Z" />
   <defs>
      <linearGradient id="a" x1="371.897" x2="372.711" y1="251.991" y2="251.991" gradientUnits="userSpaceOnUse">
         <stop stop-color="#FFD33F" />
         <stop offset="1" stop-color="#FF7364" />
      </linearGradient>
      <linearGradient id="b" x1="370.568" x2="376.032" y1="228.558" y2="228.558" gradientUnits="userSpaceOnUse">
         <stop stop-color="#EAEAF9" />
         <stop offset="1" stop-color="#BEBEED" />
      </linearGradient>
      <linearGradient id="c" x1="372.594" x2="372.594" y1="194.465" y2="229.446" gradientUnits="userSpaceOnUse">
         <stop stop-color="#EAEAF9" />
         <stop offset=".236" stop-color="#DBDBF5" />
         <stop offset=".659" stop-color="#C6C6EF" />
         <stop offset=".935" stop-color="#BEBEED" />
      </linearGradient>
      <linearGradient id="d" x1="360.448" x2="373.81" y1="214.883" y2="214.883" gradientUnits="userSpaceOnUse">
         <stop stop-color="#FFD33F" />
         <stop offset="1" stop-color="#FF7364" />
      </linearGradient>
      <linearGradient id="e" x1="73.527" x2="143.268" y1="192.276" y2="192.276" gradientUnits="userSpaceOnUse">
         <stop offset=".292" stop-color="#EAEAF9" />
         <stop offset=".388" stop-color="#E3E3F7" />
         <stop offset=".525" stop-color="#D0D0F2" />
         <stop offset=".627" stop-color="#BEBEED" />
      </linearGradient>
      <linearGradient id="f" x1="104.587" x2="71.446" y1="192.487" y2="192.487" gradientUnits="userSpaceOnUse">
         <stop offset=".465" stop-color="#fff" />
         <stop offset=".49" stop-color="#F8F8FD" />
         <stop offset=".526" stop-color="#E5E5F8" />
         <stop offset=".569" stop-color="#C7C7EF" />
         <stop offset=".579" stop-color="#BEBEED" />
      </linearGradient>
      <linearGradient id="g" x1="98.507" x2="93.447" y1="178.815" y2="178.815" gradientUnits="userSpaceOnUse">
         <stop stop-color="#FFD33F" />
         <stop offset="1" stop-color="#FF7364" />
      </linearGradient>
      <linearGradient id="h" x1="140.159" x2="162.576" y1="127.283" y2="127.283" gradientUnits="userSpaceOnUse">
         <stop offset=".292" stop-color="#4A5EA5" />
         <stop offset=".363" stop-color="#46599E" />
         <stop offset=".465" stop-color="#3B4C8B" />
         <stop offset=".585" stop-color="#28366D" />
         <stop offset=".627" stop-color="#212D60" />
      </linearGradient>
      <linearGradient id="i" x1="160.035" x2="143.345" y1="106.767" y2="106.767" gradientUnits="userSpaceOnUse">
         <stop offset=".292" stop-color="#4A5EA5" />
         <stop offset=".363" stop-color="#46599E" />
         <stop offset=".465" stop-color="#3B4C8B" />
         <stop offset=".585" stop-color="#28366D" />
         <stop offset=".627" stop-color="#212D60" />
      </linearGradient>
      <linearGradient id="j" x1="4.587" x2="47.077" y1="295.636" y2="295.636" gradientUnits="userSpaceOnUse">
         <stop offset=".292" stop-color="#EAEAF9" />
         <stop offset=".388" stop-color="#E3E3F7" />
         <stop offset=".525" stop-color="#D0D0F2" />
         <stop offset=".627" stop-color="#BEBEED" />
      </linearGradient>
      <linearGradient id="k" x1="75.406" x2="33.399" y1="249.743" y2="249.743" gradientUnits="userSpaceOnUse">
         <stop stop-color="#FF6F1B" />
         <stop offset="1" stop-color="#FF3933" />
      </linearGradient>
      <linearGradient id="l" x1="45.874" x2="26.68" y1="250.924" y2="250.924" gradientUnits="userSpaceOnUse">
         <stop offset=".546" stop-color="#FF7364" />
         <stop offset=".715" stop-color="#FF9457" />
         <stop offset="1" stop-color="#FFD33F" />
      </linearGradient>
      <linearGradient id="m" x1="44.924" x2="24.608" y1="268.476" y2="268.476" gradientUnits="userSpaceOnUse">
         <stop offset=".011" stop-color="#2234A4" />
         <stop offset=".135" stop-color="#263299" />
         <stop offset=".455" stop-color="#2F2D81" />
         <stop offset=".752" stop-color="#342A72" />
         <stop offset="1" stop-color="#36296D" />
      </linearGradient>
      <linearGradient id="n" x1="27.126" x2="35.827" y1="236.979" y2="236.979" gradientUnits="userSpaceOnUse">
         <stop offset=".292" stop-color="#4A5EA5" />
         <stop offset=".363" stop-color="#46599E" />
         <stop offset=".465" stop-color="#3B4C8B" />
         <stop offset=".585" stop-color="#28366D" />
         <stop offset=".627" stop-color="#212D60" />
      </linearGradient>
      <linearGradient id="o" x1="51.837" x2="30.262" y1="271.924" y2="271.924" gradientUnits="userSpaceOnUse">
         <stop offset=".011" stop-color="#2234A4" />
         <stop offset=".135" stop-color="#263299" />
         <stop offset=".455" stop-color="#2F2D81" />
         <stop offset=".752" stop-color="#342A72" />
         <stop offset="1" stop-color="#36296D" />
      </linearGradient>
      <linearGradient id="p" x1="37.674" x2="38.498" y1="274.278" y2="251.875" gradientUnits="userSpaceOnUse">
         <stop offset=".546" stop-color="#FF7364" />
         <stop offset=".715" stop-color="#FF9457" />
         <stop offset="1" stop-color="#FFD33F" />
      </linearGradient>
      <linearGradient id="q" x1="357.909" x2="421.098" y1="367.913" y2="367.913" gradientUnits="userSpaceOnUse">
         <stop offset=".292" stop-color="#4A5EA5" />
         <stop offset=".363" stop-color="#46599E" />
         <stop offset=".465" stop-color="#3B4C8B" />
         <stop offset=".585" stop-color="#28366D" />
         <stop offset=".627" stop-color="#212D60" />
      </linearGradient>
      <linearGradient id="r" x1="357.909" x2="421.098" y1="340.815" y2="340.815" gradientUnits="userSpaceOnUse">
         <stop offset=".292" stop-color="#4A5EA5" />
         <stop offset=".363" stop-color="#46599E" />
         <stop offset=".465" stop-color="#3B4C8B" />
         <stop offset=".585" stop-color="#28366D" />
         <stop offset=".627" stop-color="#212D60" />
      </linearGradient>
      <linearGradient id="s" x1="357.909" x2="421.098" y1="313.655" y2="313.655" gradientUnits="userSpaceOnUse">
         <stop offset=".292" stop-color="#4A5EA5" />
         <stop offset=".363" stop-color="#46599E" />
         <stop offset=".465" stop-color="#3B4C8B" />
         <stop offset=".585" stop-color="#28366D" />
         <stop offset=".627" stop-color="#212D60" />
      </linearGradient>
      <linearGradient id="t" x1="357.909" x2="421.098" y1="286.31" y2="286.31" gradientUnits="userSpaceOnUse">
         <stop offset=".292" stop-color="#4A5EA5" />
         <stop offset=".363" stop-color="#46599E" />
         <stop offset=".465" stop-color="#3B4C8B" />
         <stop offset=".585" stop-color="#28366D" />
         <stop offset=".627" stop-color="#212D60" />
      </linearGradient>
      <linearGradient id="u" x1="383.813" x2="386.685" y1="321.58" y2="321.58" gradientUnits="userSpaceOnUse">
         <stop stop-color="#FFD33F" />
         <stop offset="1" stop-color="#FF7364" />
      </linearGradient>
      <linearGradient id="v" x1="378.759" x2="381.631" y1="318.663" y2="318.663" gradientUnits="userSpaceOnUse">
         <stop stop-color="#FFD33F" />
         <stop offset="1" stop-color="#FF7364" />
      </linearGradient>
      <linearGradient id="w" x1="373.706" x2="376.577" y1="315.743" y2="315.743" gradientUnits="userSpaceOnUse">
         <stop stop-color="#FFD33F" />
         <stop offset="1" stop-color="#FF7364" />
      </linearGradient>
      <linearGradient id="x" x1="368.652" x2="371.523" y1="312.827" y2="312.827" gradientUnits="userSpaceOnUse">
         <stop stop-color="#FFD33F" />
         <stop offset="1" stop-color="#FF7364" />
      </linearGradient>
      <linearGradient id="y" x1="363.598" x2="366.469" y1="309.909" y2="309.909" gradientUnits="userSpaceOnUse">
         <stop stop-color="#FFD33F" />
         <stop offset="1" stop-color="#FF7364" />
      </linearGradient>
      <linearGradient id="z" x1="377.281" x2="380.153" y1="371.458" y2="371.458" gradientUnits="userSpaceOnUse">
         <stop stop-color="#FFD33F" />
         <stop offset="1" stop-color="#FF7364" />
      </linearGradient>
      <linearGradient id="A" x1="372.227" x2="375.099" y1="368.539" y2="368.539" gradientUnits="userSpaceOnUse">
         <stop stop-color="#FFD33F" />
         <stop offset="1" stop-color="#FF7364" />
      </linearGradient>
      <linearGradient id="B" x1="367.173" x2="370.045" y1="365.622" y2="365.622" gradientUnits="userSpaceOnUse">
         <stop stop-color="#FFD33F" />
         <stop offset="1" stop-color="#FF7364" />
      </linearGradient>
      <linearGradient id="C" x1="84.341" x2="324.455" y1="315.231" y2="315.231" gradientUnits="userSpaceOnUse">
         <stop offset=".465" stop-color="#EAEAF9" />
         <stop offset=".508" stop-color="#E3E3F7" />
         <stop offset=".57" stop-color="#D0D0F2" />
         <stop offset=".616" stop-color="#BEBEED" />
      </linearGradient>
      <linearGradient id="D" x1="404.423" x2="206.597" y1="283.684" y2="169.469" gradientUnits="userSpaceOnUse">
         <stop offset=".373" stop-color="#BEBEED" />
         <stop offset=".54" stop-color="#EAEAF9" />
      </linearGradient>
      <linearGradient id="E" x1="187.139" x2="200.424" y1="202.176" y2="202.176" gradientUnits="userSpaceOnUse">
         <stop stop-color="#FFD33F" />
         <stop offset="1" stop-color="#FF7364" />
      </linearGradient>
      <linearGradient id="F" x1="161.187" x2="261.49" y1="51.666" y2="51.666" gradientUnits="userSpaceOnUse">
         <stop offset=".459" stop-color="#EAEAF9" />
         <stop offset=".497" stop-color="#E8E8F8" />
         <stop offset=".514" stop-color="#E1E1F6" />
         <stop offset=".526" stop-color="#D4D4F3" />
         <stop offset=".536" stop-color="#C3C3EE" />
         <stop offset=".538" stop-color="#BEBEED" />
      </linearGradient>
      <linearGradient id="G" x1="211.019" x2="212.965" y1="65.757" y2="65.757" gradientUnits="userSpaceOnUse">
         <stop stop-color="#FF6F1B" />
         <stop offset="1" stop-color="#FF3933" />
      </linearGradient>
      <linearGradient id="H" x1="208.103" x2="210.049" y1="64.064" y2="64.064" gradientUnits="userSpaceOnUse">
         <stop stop-color="#FFD33F" />
         <stop offset="1" stop-color="#FF7364" />
      </linearGradient>
      <linearGradient id="I" x1="346.717" x2="333.191" y1="326.942" y2="326.942" gradientUnits="userSpaceOnUse">
         <stop offset=".011" stop-color="#9FAFFC" />
         <stop offset="1" stop-color="#E6F6FF" />
      </linearGradient>
      <linearGradient id="J" x1="347.791" x2="327.897" y1="345.912" y2="345.912" gradientUnits="userSpaceOnUse">
         <stop offset=".011" stop-color="#9FAFFC" />
         <stop offset="1" stop-color="#E6F6FF" />
      </linearGradient>
      <linearGradient id="K" x1="341.269" x2="333.363" y1="322.316" y2="322.316" gradientUnits="userSpaceOnUse">
         <stop offset=".292" stop-color="#4A5EA5" />
         <stop offset=".363" stop-color="#46599E" />
         <stop offset=".465" stop-color="#3B4C8B" />
         <stop offset=".585" stop-color="#28366D" />
         <stop offset=".627" stop-color="#212D60" />
      </linearGradient>
      <linearGradient id="L" x1="335.054" x2="319.851" y1="334.823" y2="334.823" gradientUnits="userSpaceOnUse">
         <stop offset=".292" stop-color="#4A5EA5" />
         <stop offset=".363" stop-color="#46599E" />
         <stop offset=".465" stop-color="#3B4C8B" />
         <stop offset=".585" stop-color="#28366D" />
         <stop offset=".627" stop-color="#212D60" />
      </linearGradient>
      <linearGradient id="M" x1="233.625" x2="248.295" y1="363.417" y2="363.417" gradientUnits="userSpaceOnUse">
         <stop offset=".292" stop-color="#4A5EA5" />
         <stop offset=".363" stop-color="#46599E" />
         <stop offset=".465" stop-color="#3B4C8B" />
         <stop offset=".585" stop-color="#28366D" />
         <stop offset=".627" stop-color="#212D60" />
      </linearGradient>
      <linearGradient id="N" x1="278.887" x2="384.746" y1="102.586" y2="102.586" gradientUnits="userSpaceOnUse">
         <stop stop-color="#EAEAF9" />
         <stop offset="1" stop-color="#BEBEED" />
      </linearGradient>
      <linearGradient id="O" x1="249.691" x2="273.717" y1="69.74" y2="69.74" gradientUnits="userSpaceOnUse">
         <stop stop-color="#EAEAF9" />
         <stop offset="1" stop-color="#BEBEED" />
      </linearGradient>
   </defs>
</svg>