<svg width="23" height="23" viewBox="0 0 23 23" fill="none" xmlns="http://www.w3.org/2000/svg">
<path d="M16.7158 6.74512H17.7158M5.21582 1.74512H17.2158C19.425 1.74512 21.2158 3.53598 21.2158 5.74512V17.7451C21.2158 19.9543 19.425 21.7451 17.2158 21.7451H5.21582C3.00668 21.7451 1.21582 19.9543 1.21582 17.7451V5.74512C1.21582 3.53598 3.00668 1.74512 5.21582 1.74512ZM11.2158 15.7451C9.00668 15.7451 7.21582 13.9543 7.21582 11.7451C7.21582 9.53598 9.00668 7.74512 11.2158 7.74512C13.425 7.74512 15.2158 9.53598 15.2158 11.7451C15.2158 13.9543 13.425 15.7451 11.2158 15.7451Z" stroke="white" strokeWidth="2"/>
</svg>
