<svg width="29" height="28" viewBox="0 0 29 28" fill="none" xmlns="http://www.w3.org/2000/svg">
<path d="M17.3496 21.9739C16.6243 22.2885 16.3202 23.184 16.6477 23.91L17.7941 26.4027C18.1216 27.1043 18.917 27.4192 19.6188 27.1043C21.6074 26.2331 23.3151 25.0956 24.672 23.7162C26.333 22.0949 27.456 20.2314 28.0642 18.1743C28.6725 16.0928 29 13.2615 29 9.65554V2.22578C29 1.42714 28.3683 0.77371 27.5963 0.77371H18.4023C17.6303 0.77371 16.9986 1.42714 16.9986 2.22578V11.7368C16.9986 12.5357 17.6303 13.1889 18.4023 13.1889H22.8005C22.7537 15.6335 22.1922 17.5935 21.1629 19.07C20.3207 20.2554 19.0574 21.2234 17.3496 21.9739Z" fill="#00B8C8"/>
<path d="M0.832914 21.9739C0.107686 22.2886 -0.196208 23.184 0.131081 23.91L1.27741 26.3783C1.60493 27.0801 2.40034 27.3948 3.10218 27.0801C5.06731 26.2089 6.75195 25.0714 8.13199 23.7162C9.79323 22.0705 10.9393 20.207 11.5478 18.1499C12.1561 16.1173 12.46 13.2855 12.46 9.65531V2.22555C12.46 1.42691 11.8283 0.773483 11.0563 0.773483H1.86227C1.09025 0.773483 0.458603 1.42691 0.458603 2.22555V11.7366C0.458603 12.5355 1.09025 13.1887 1.86227 13.1887H6.28382C6.23703 15.6332 5.67533 17.5933 4.64621 19.0698C3.80401 20.2554 2.54071 21.2235 0.832914 21.9739Z" fill="#00B8C8"/>
</svg>
